<?xml version="1.0" encoding="iso-8859-1"?>
<svg height="512pt" viewBox="0 -26 512 512" width="512pt" xmlns="http://www.w3.org/2000/svg">
    <path d="m460.894531 364.277344c-22.609375 0-41.109375 18.503906-41.109375 41.113281v-216.894531c0-1.019532.039063-2.027344.113282-3.027344h-327.796876c.074219 1 .113282 2.007812.113282 3.027344v215.941406c0-22.609375-18.5-41.113281-41.109375-41.113281-22.609375.003906-41.105469 18.503906-41.105469 41.117187v.269532c0 25.285156 20.492188 45.78125 45.773438 45.78125h400.453124c25.167969 0 45.589844-20.3125 45.769532-45.441407-.183594-22.457031-18.609375-40.773437-41.101563-40.773437zm0 0"
          fill="#ffe787"/>
    <path d="m51.105469 147.382812c-22.609375 0-41.105469 18.5-41.105469 41.113282v215.945312c0-22.613281 18.496094-41.113281 41.105469-41.113281s41.105469 18.5 41.105469 41.113281v-215.945312c.003906-22.613282-18.496094-41.113282-41.105469-41.113282zm0 0"
          fill="#ffa733"/>
    <path d="m419.785156 328.363281v77.027344c0-22.609375 18.5-41.109375 41.109375-41.109375 22.605469 0 41.105469 18.5 41.105469 41.109375v-216.894531c0-22.613282-18.5-41.113282-41.105469-41.113282-22.609375 0-41.109375 18.5-41.109375 41.113282v40.863281"
          fill="#ffa733"/>
    <path d="m419.789062 292.785156c-.648437 0-1.308593-.070312-1.960937-.199218-.628906-.132813-1.257813-.320313-1.867187-.570313-.601563-.25-1.179688-.5625-1.722657-.921875-.546875-.359375-1.058593-.777344-1.519531-1.238281-.457031-.460938-.878906-.96875-1.25-1.519531-.359375-.539063-.667969-1.121094-.917969-1.730469-.25-.601563-.441406-1.230469-.570312-1.871094-.128907-.640625-.191407-1.300781-.191407-1.949219 0-.648437.0625-1.308594.191407-1.960937.128906-.628907.320312-1.257813.570312-1.871094.25-.597656.558594-1.179687.917969-1.71875.371094-.550781.792969-1.058594 1.25-1.519531.460938-.460938.972656-.878906 1.519531-1.25.542969-.359375 1.121094-.667969 1.722657-.917969.609374-.25 1.238281-.441406 1.867187-.570313 1.292969-.261718 2.621094-.261718 3.910156 0 .640625.128907 1.273438.320313 1.871094.570313.609375.25 1.191406.558594 1.730469.917969.550781.371094 1.058594.789062 1.519531 1.25.460937.460937.878906.96875 1.242187 1.519531.359376.539063.667969 1.121094.917969 1.71875.25.613281.441407 1.242187.570313 1.871094.128906.652343.199218 1.308593.199218 1.960937 0 .648438-.070312 1.308594-.199218 1.949219s-.320313 1.269531-.570313 1.871094c-.25.609375-.558593 1.191406-.917969 1.730469-.363281.550781-.78125 1.058593-1.242187 1.519531-.460937.460937-.96875.878906-1.519531 1.238281-.539063.359375-1.121094.671875-1.730469.921875-.597656.25-1.230469.4375-1.871094.570313-.636719.128906-1.296875.199218-1.949219.199218zm0 0"/>
    <path d="m363.847656 117.863281c0 89.226563-107.847656 166.902344-107.847656 166.902344s-107.847656-78.160156-107.847656-166.902344c0-59.570312 48.285156-107.863281 107.847656-107.863281s107.847656 48.292969 107.847656 107.863281zm0 0"
          fill="#ff4d50"/>
    <path d="m321.558594 117.863281c0-36.210937-29.351563-65.566406-65.558594-65.566406s-65.558594 29.355469-65.558594 65.566406c0 36.214844 29.351563 65.570313 65.558594 65.570313s65.558594-29.355469 65.558594-65.570313zm0 0"
          fill="#fff"/>
    <path d="m256 193.433594c-41.664062 0-75.5625-33.898438-75.5625-75.570313 0-41.667969 33.898438-75.566406 75.5625-75.566406s75.558594 33.898437 75.558594 75.566406c0 41.671875-33.894532 75.570313-75.558594 75.570313zm0-131.136719c-30.636719 0-55.5625 24.925781-55.5625 55.566406 0 30.644531 24.925781 55.570313 55.5625 55.570313s55.558594-24.925782 55.558594-55.570313c0-30.640625-24.921875-55.566406-55.558594-55.566406zm0 0"/>
    <path d="m165.582031 368.574219c-3.90625-3.902344-10.238281-3.902344-14.140625.003906l-6.273437 6.273437-6.273438-6.273437c-3.902343-3.90625-10.234375-3.90625-14.140625-.003906-3.90625 3.90625-3.90625 10.238281 0 14.144531l6.273438 6.273438-6.273438 6.277343c-3.90625 3.90625-3.90625 10.238281 0 14.140625 1.953125 1.953125 4.511719 2.929688 7.070313 2.929688 2.558593 0 5.117187-.976563 7.070312-2.929688l6.273438-6.273437 6.273437 6.273437c1.953125 1.953125 4.511719 2.929688 7.070313 2.929688 2.558593 0 5.117187-.976563 7.070312-2.929688 3.90625-3.902344 3.90625-10.234375 0-14.140625l-6.273437-6.277343 6.273437-6.273438c3.90625-3.90625 3.90625-10.238281 0-14.144531zm0 0"/>
    <path d="m364.644531 317.980469 6.277344-6.277344c3.902344-3.90625 3.902344-10.238281-.003906-14.140625-3.902344-3.90625-10.234375-3.90625-14.140625 0l-6.273438 6.273438-6.269531-6.273438c-3.90625-3.90625-10.238281-3.90625-14.144531 0-3.90625 3.902344-3.90625 10.234375 0 14.140625l6.273437 6.277344-6.273437 6.273437c-3.90625 3.90625-3.902344 10.238282 0 14.144532 1.953125 1.949218 4.511718 2.925781 7.070312 2.925781s5.121094-.976563 7.074219-2.929688l6.269531-6.273437 6.273438 6.273437c1.953125 1.953125 4.511718 2.929688 7.070312 2.929688s5.121094-.976563 7.070313-2.925781c3.90625-3.90625 3.90625-10.238282.003906-14.144532zm0 0"/>
    <path d="m512 188.496094c0-28.183594-22.925781-51.113282-51.105469-51.113282-23.679687 0-43.652343 16.191407-49.425781 38.085938h-21.6875c-5.523438 0-10 4.476562-10 10s4.476562 10 10 10h20.003906v33.890625c0 5.523437 4.480469 10 10 10 5.523438 0 10-4.476563 10-10v-40.863281c0-.738282.027344-1.476563.078125-2.203125.007813-.066407.011719-.128907.015625-.195313 1.226563-16.039062 14.667969-28.714844 31.015625-28.714844 17.152344 0 31.105469 13.957032 31.105469 31.113282v176.367187c-8.621094-6.632812-19.410156-10.582031-31.105469-10.582031-11.695312 0-22.484375 3.949219-31.109375 10.582031v-36.5c0-5.519531-4.476562-10-10-10-5.519531 0-10 4.480469-10 10v77.027344c0 5.523437 4.480469 10 10 10 5.523438 0 10-4.476563 10-10 0-17.15625 13.957032-31.113281 31.109375-31.113281 17.027344 0 30.898438 13.753906 31.101563 30.734375-.160156 19.566406-16.199219 35.476562-35.769532 35.476562h-400.453124c-19.726563 0-35.773438-16.046875-35.773438-35.777343v-.273438c0-17.15625 13.953125-31.113281 31.105469-31.113281 17.152343 0 31.105469 13.957031 31.105469 31.113281 0 5.523438 4.476562 10 10 10 5.523437 0 10-4.476562 10-10v-208.96875h20.007812c5.519531 0 10-4.476562 10-10s-4.480469-10-10-10h-21.6875c-5.773438-21.894531-25.746094-38.085938-49.425781-38.085938-28.179688 0-51.105469 22.929688-51.105469 51.113282v216.214844c0 30.757812 25.019531 55.777343 55.773438 55.777343h400.453124c30.257813 0 55.101563-24.394531 55.757813-54.550781.011719-.179688.015625-.363281.015625-.546875zm-492 0c0-17.15625 13.953125-31.113282 31.105469-31.113282 16.347656 0 29.789062 12.675782 31.015625 28.714844.003906.066406.007812.128906.015625.195313.050781.726562.078125 1.464843.078125 2.203125v175.414062c-8.625-6.632812-19.414063-10.582031-31.109375-10.582031-11.691407 0-22.484375 3.949219-31.105469 10.582031zm0 0"/>
    <path d="m229.945312 276.433594c-3.757812 1.4375-6.421874 5.078125-6.421874 9.339844 0 5.523437 4.476562 10 10 10h44.953124c5.519532 0 10-4.476563 10-10 0-4.238282-2.636718-7.859376-6.359374-9.316407 10-8.746093 22.617187-20.679687 35.308593-35.066406 37.4375-42.457031 56.421875-84.015625 56.421875-123.527344 0-64.988281-52.867187-117.863281-117.847656-117.863281s-117.847656 52.875-117.847656 117.863281c0 39.308594 18.980468 80.804688 56.417968 123.335938 12.71875 14.453125 25.363282 26.449219 35.375 35.234375zm26.054688-256.433594c53.953125 0 97.847656 43.902344 97.847656 97.863281 0 71.371094-75.910156 136.863281-97.835937 154.285157-21.929688-17.488282-97.859375-83.183594-97.859375-154.285157 0-53.960937 43.894531-97.863281 97.847656-97.863281zm0 0"/>
</svg>