<?xml version="1.0" encoding="iso-8859-1"?>
<svg height="512pt" viewBox="0 0 512 512" width="512pt" xmlns="http://www.w3.org/2000/svg">
    <path d="m504.5 256c0 137.242188-111.257812 248.5-248.5 248.5s-248.5-111.257812-248.5-248.5 111.257812-248.5 248.5-248.5 248.5 111.257812 248.5 248.5zm0 0"
          fill="#c3ddff"/>
    <path d="m7.5 256c0 113.613281 76.277344 209.351562 180.394531 238.972656 63.101563-22.683594 74.667969-73.246094 64.097657-106.207031-8.515626-26.550781-40.582032-41.582031-80.828126-28.554687-49.339843 15.96875-84.445312 7.574218-103.542968-11.523438-13.855469-13.855469-14.777344-35.3125-4.921875-53.035156 7.589843-13.652344 21.386719-22.695313 36.640625-26.054688 35.34375-7.78125 138.796875-33.804687 139.625-71.878906.679687-31.148438-22.542969-50.234375-79.15625-75.894531-37.625-17.054688-48.023438-52.59375-33.929688-77.535157-71.019531 43.742188-118.378906 122.183594-118.378906 211.710938zm0 0"
          fill="#ccf49f"/>
    <path d="m296.082031 464.417969c-137.242187 0-248.5-111.257813-248.5-248.5 0-58.40625 20.203125-112.066407 53.929688-154.488281-57.257813 45.527343-94.011719 115.734374-94.011719 194.570312 0 137.242188 111.257812 248.5 248.5 248.5 78.835938 0 149.046875-36.753906 194.570312-94.011719-42.421874 33.730469-96.082031 53.929688-154.488281 53.929688zm0 0"
          fill="#a4ccff"/>
    <path d="m97.574219 365.398438c-12.382813-3.367188-22.429688-9.1875-29.953125-16.710938-13.234375-13.234375-14.550782-33.367188-6.066406-50.59375-9.015626-25.730469-13.972657-53.367188-13.972657-82.171875 0-58.410156 20.203125-112.066406 53.929688-154.488281-57.257813 45.523437-94.011719 115.730468-94.011719 194.566406 0 113.613281 76.277344 209.351562 180.394531 238.972656 24.816407-8.921875 41.566407-22.179687 52.230469-36.957031-57.828125-13.316406-107.957031-46.753906-142.550781-92.617187zm0 0"
          fill="#b3e59f"/>
    <path d="m256 7.5c-22.667969 0-44.601562 3.09375-65.46875 8.777344-30.335938 52.398437 12.695312 81.15625 56.449219 84.328125 55.613281 4.035156 93.113281-40.425781 121.914062-2.855469 22.179688 28.933594-55.730469 59.863281-34.640625 102.136719l-21.480468 116.328125c-3.003907 12.632812-2.507813 24.902344 4.351562 36.144531 23.046875 37.78125 93.855469-11.332031 78.488281 47.003906-7.796875 29.601563-9.355469 51.132813-7.191406 66.871094 69.726563-44.007813 116.078125-121.6875 116.078125-210.234375 0-137.242188-111.257812-248.5-248.5-248.5zm0 0"
          fill="#ccf49f"/>
    <path d="m400.289062 320.128906h-288.578124c-17.710938 0-32.066407-14.355468-32.066407-32.066406v-64.128906c0-17.707032 14.355469-32.0625 32.066407-32.0625h288.578124c17.710938 0 32.066407 14.355468 32.066407 32.0625v64.128906c0 17.710938-14.355469 32.066406-32.066407 32.066406zm0 0"
          fill="#fff"/>
    <path d="m387.671875 446.929688c-.300781 7.238281-.027344 13.664062.75 19.308593 23.625-14.914062 44.476563-33.761719 61.839844-55.515625-18.84375 14.933594-39.898438 27.183594-62.589844 36.207032zm0 0"
          fill="#b3e59f"/>
    <path d="m135.757812 296.082031c-17.707031 0-32.066406-14.355469-32.066406-32.066406v-71.011719c-13.804687 3.574219-24.046875 16.007813-24.046875 30.929688v64.128906c0 17.710938 14.355469 32.066406 32.066407 32.066406h288.578124c14.925782 0 27.355469-10.242187 30.933594-24.046875zm0 0"
          fill="#edf4ff"/>
    <path d="m194.757812 225.027344c-3.824218-1.59375-8.214843.214844-9.808593 4.039062l-13.121094 31.480469-13.113281-31.480469c-1.164063-2.792968-3.898438-4.613281-6.925782-4.613281-3.027343 0-5.757812 1.820313-6.921874 4.613281l-13.117188 31.480469-13.117188-31.480469c-1.59375-3.824218-5.984374-5.632812-9.808593-4.039062s-5.632813 5.984375-4.039063 9.808594l20.039063 48.097656c1.167969 2.796875 3.898437 4.617187 6.925781 4.617187s5.757812-1.820312 6.921875-4.617187l13.117187-31.480469 13.117188 31.480469c1.164062 2.792968 3.894531 4.617187 6.921875 4.617187s5.761719-1.824219 6.925781-4.617187l20.039063-48.097656c1.59375-3.824219-.214844-8.214844-4.035157-9.808594zm0 0"/>
    <path d="m298.964844 225.027344c-3.824219-1.59375-8.214844.214844-9.808594 4.039062l-13.117188 31.480469-13.117187-31.480469c-1.164063-2.792968-3.894531-4.613281-6.921875-4.613281s-5.757812 1.820313-6.925781 4.613281l-13.117188 31.480469-13.117187-31.480469c-1.59375-3.824218-5.984375-5.632812-9.808594-4.039062-3.820312 1.59375-5.628906 5.984375-4.039062 9.808594l20.042968 48.097656c1.164063 2.792968 3.894532 4.617187 6.921875 4.617187 3.027344 0 5.761719-1.824219 6.925781-4.617187l13.117188-31.480469 13.117188 31.480469c1.164062 2.792968 3.894531 4.613281 6.921874 4.613281 3.03125 0 5.761719-1.820313 6.925782-4.613281l20.039062-48.097656c1.59375-3.824219-.214844-8.214844-4.039062-9.808594zm0 0"/>
    <path d="m387.171875 282.933594 20.042969-48.097656c1.59375-3.824219-.214844-8.214844-4.039063-9.808594s-8.214843.214844-9.808593 4.039062l-13.117188 31.480469-13.117188-31.480469c-1.164062-2.796875-3.894531-4.617187-6.921874-4.617187-3.03125 0-5.761719 1.824219-6.925782 4.617187l-13.117187 31.480469-13.117188-31.480469c-1.59375-3.824218-5.984375-5.632812-9.808593-4.039062-3.820313 1.59375-5.628907 5.984375-4.039063 9.808594l20.042969 48.097656c1.164062 2.792968 3.894531 4.613281 6.921875 4.613281 3.027343 0 5.761719-1.820313 6.925781-4.613281l13.117188-31.480469 13.117187 31.480469c1.164063 2.792968 3.894531 4.613281 6.921875 4.613281s5.757812-1.820313 6.921875-4.613281zm0 0"/>
    <path d="m437.019531 74.980469c-48.351562-48.351563-112.640625-74.980469-181.019531-74.980469s-132.667969 26.628906-181.019531 74.980469c-48.351563 48.351562-74.980469 112.640625-74.980469 181.019531s26.628906 132.667969 74.980469 181.019531c48.351562 48.351563 112.640625 74.980469 181.019531 74.980469s132.667969-26.628906 181.019531-74.980469c48.351563-48.351562 74.980469-112.640625 74.980469-181.019531s-26.628906-132.667969-74.980469-181.019531zm-258.8125-2.628907c10.511719 20.125 36.660157 34.042969 68.234375 36.316407 24.101563 1.738281 44.453125-4.847657 62.40625-10.65625 27.191406-8.800781 40.847656-12.265625 54.109375 4.917969 4.929688 6.394531 3.640625 11.210937-14.023437 28.875-12.988282 12.988281-30.195313 30.207031-24.832032 52.566406h-77.726562c-2.296875-30.378906-31.753906-48.464844-83.6875-70.066406-28.527344-11.867188-34.042969-30.875-35.089844-38.496094-1.660156-12.066406 3.191406-23.554688 13.304688-31.523438.148437-.113281.28125-.238281.417968-.363281 11.46875-6.222656 23.40625-11.476563 35.71875-15.730469-7.351562 19.804688-3.824218 34.601563 1.167969 44.160156zm32.855469 420.472657c20.539062-10.652344 35.617188-25.390625 44.175781-43.382813 9.144531-19.222656 10.566407-42.171875 3.894531-62.964844-4.289062-13.371093-13.863281-24.433593-26.96875-31.148437-17.535156-8.992187-40.019531-9.792969-63.308593-2.253906-41.40625 13.402343-76.371094 9.867187-95.929688-9.691407-7.390625-7.390624-10.683593-17.546874-9.269531-28.601562.996094-7.800781 4.191406-15.191406 8.894531-21.105469 2.734375 19.167969 19.25 33.953125 39.160157 33.953125h192.1875c-1.28125 11.59375 1.03125 22.042969 6.929687 31.148438 12.632813 19.496094 35.722656 18.894531 54.28125 18.417968 9.84375-.253906 21-.542968 23.882813 3.15625 1.890624 2.421876 1.667968 8.46875-.601563 16.582032-7.332031 26.210937-9.863281 48.15625-7.546875 65.304687-37.265625 22.652344-80.121094 34.761719-124.84375 34.761719-15.246094 0-30.269531-1.421875-44.9375-4.175781zm215.351562-66.410157c-9.785156 9.785157-20.269531 18.621094-31.332031 26.46875-.574219-14 2.015625-31.394531 7.753907-51.90625 3.828124-13.6875 3.191406-23.167968-2.011719-29.84375-7.535157-9.667968-21.410157-9.3125-36.101563-8.933593-16.347656.425781-33.246094.859375-41.304687-11.578125-4.332031-6.6875-5.761719-14.09375-4.40625-22.992188h41.195312c4.144531 0 7.5-3.359375 7.5-7.5s-3.355469-7.5-7.5-7.5h-248.496093c-13.546876 0-24.566407-11.019531-24.566407-24.5625v-64.128906c0-13.546875 11.019531-24.566406 24.566407-24.566406h8.019531c4.140625 0 7.5-3.355469 7.5-7.5 0-4.140625-3.359375-7.5-7.5-7.5h-8.019531c-21.816407 0-39.566407 17.75-39.566407 39.566406v49.777344c-12.496093 8.632812-21.339843 23.316406-23.367187 39.164062-2.015625 15.761719 2.792968 30.363282 13.539062 41.109375 23.6875 23.6875 64.199219 28.554688 111.15625 13.355469 19.46875-6.300781 37.882813-5.828125 51.847656 1.332031 9.667969 4.957031 16.421876 12.695313 19.53125 22.382813 5.515626 17.195312 4.363282 36.128906-3.15625 51.9375-9.433593 19.832031-27.945312 34.597656-54.988281 43.9375-37.800781-11.289063-72.441406-31.839844-101.121093-60.523438-45.519532-45.515625-70.585938-106.035156-70.585938-170.410156s25.066406-124.894531 70.585938-170.414062c8.671874-8.671876 17.890624-16.59375 27.574218-23.75-1.015625 5.160156-1.175781 10.539062-.425781 16.011718 2.957031 21.519532 19.066406 39.855469 44.191406 50.304688 51.761719 21.53125 72.015625 36.484375 74.367188 56.21875h-79.5c-4.140625 0-7.5 3.355468-7.5 7.5 0 4.140625 3.359375 7.5 7.5 7.5h248.496093c13.546876 0 24.566407 11.019531 24.566407 24.5625v64.128906c0 13.546875-11.019531 24.566406-24.566407 24.566406h-8.019531c-4.140625 0-7.5 3.355469-7.5 7.5 0 4.140625 3.359375 7.5 7.5 7.5h8.019531c21.816407 0 39.566407-17.75 39.566407-39.566406v-64.128906c0-21.816406-17.75-39.5625-39.566407-39.5625h-60.480468c-5.792969-14.8125 4.15625-26.390625 19.730468-41.960938 13.285157-13.285156 29.820313-29.816406 15.292969-48.644531-20.300781-26.304687-44.734375-18.398437-70.601562-10.027344-16.652344 5.390625-35.519531 11.492188-56.710938 9.96875-26.429687-1.90625-47.894531-12.75-56.015625-28.300781-6.222656-11.910156-4.601562-26.367188 4.761719-42.980469 19.289063-4.894531 39.316406-7.425781 59.734375-7.425781 64.375 0 124.894531 25.066406 170.414062 70.585938 45.519532 45.519531 70.585938 106.039062 70.585938 170.414062s-25.066406 124.894531-70.585938 170.414062zm0 0"/>
</svg>