<?xml version="1.0" encoding="iso-8859-1"?>
<svg version="1.1" id="Layer_1" xmlns="http://www.w3.org/2000/svg" x="0px"
     y="0px"
     viewBox="0 0 512 512" style="enable-background:new 0 0 512 512;" xml:space="preserve">
<path style="fill:#9CA9A4;" d="M200.146,107.377c-56.661,0-102.756,46.096-102.756,102.756v68.387h99.572v-68.387
	c0-1.756,1.428-3.184,3.184-3.184h262.2v-99.572H200.146z"/>
<path style="fill:#788B82;" d="M418.771,96.112h-82.4c-5.991,0-10.894,4.902-10.894,10.894v100.315
	c0,5.991,4.902,10.894,10.894,10.894h82.4c5.991,0,10.894-4.902,10.894-10.894V107.006
	C429.664,101.014,424.762,96.112,418.771,96.112z"/>
<path style="fill:#A1EBFF;" d="M100.31,504.647c21.166,0,39.292-12.987,46.865-31.424c7.574,18.436,25.699,31.424,46.865,31.424
	c27.976,0,50.654-22.678,50.654-50.654c0-59.865-97.519-142.791-97.519-142.791s-97.521,82.924-97.521,142.791
	C49.656,481.968,72.334,504.647,100.31,504.647z"/>
<path d="M462.345,197.962h-24.511V114.73h24.511c4.512,0,8.17-3.658,8.17-8.17c0-4.512-3.658-8.17-8.17-8.17h-26.197
	c-2.988-6.63-9.645-11.265-17.378-11.265h-82.401c-7.732,0-14.389,4.635-17.377,11.265H200.146
	c-61.164,0-110.926,49.762-110.926,110.926v60.216h-2.723c-4.512,0-8.17,3.658-8.17,8.17c0,4.512,3.658,8.17,8.17,8.17h121.359
	c4.512,0,8.17-3.658,8.17-8.17c0-4.512-3.658-8.17-8.17-8.17h-2.723v-55.231h113.86c2.988,6.63,9.646,11.265,17.377,11.265h82.401
	c7.732,0,14.389-4.635,17.378-11.265h26.197c4.512,0,8.17-3.658,8.17-8.17C470.515,201.62,466.857,197.962,462.345,197.962z
	 M421.494,206.504c0,1.476-1.247,2.723-2.723,2.723h-82.401c-1.476,0-2.723-1.247-2.723-2.723V195.61c0-4.512-3.657-8.17-8.17-8.17
	c-4.513,0-8.17,3.658-8.17,8.17v2.352h-117.16c-6.261,0-11.354,5.094-11.354,11.354v60.216H105.56v-60.216
	c0-52.155,42.432-94.586,94.586-94.586h117.16v48.199c0,4.512,3.657,8.17,8.17,8.17c4.513,0,8.17-3.658,8.17-8.17v-56.741
	c0-1.476,1.247-2.723,2.723-2.723h82.401c1.476,0,2.723,1.247,2.723,2.723V206.504z"/>
<path d="M325.476,27.234H369.4v27.21h-22.137c-4.513,0-8.17,3.658-8.17,8.17s3.657,8.17,8.17,8.17h60.614
	c4.512,0,8.17-3.658,8.17-8.17s-3.658-8.17-8.17-8.17h-22.136v-27.21h43.923c4.512,0,8.17-3.658,8.17-8.17s-3.658-8.17-8.17-8.17
	h-43.923V8.17c0-4.512-3.657-8.17-8.17-8.17c-4.513,0-8.17,3.658-8.17,8.17v2.723h-43.924c-4.513,0-8.17,3.658-8.17,8.17
	S320.964,27.234,325.476,27.234z"/>
<path d="M152.469,304.16c-3.051-2.595-7.534-2.595-10.585,0c-4.099,3.486-100.399,86.095-100.399,149.016
	c0,32.436,26.389,58.824,58.824,58.824c18.759,0,35.927-8.782,46.865-23.237C158.114,503.218,175.282,512,194.041,512
	c32.436,0,58.824-26.389,58.824-58.824C252.865,390.257,156.569,307.646,152.469,304.16z M236.525,453.176
	c0,23.426-19.058,42.484-42.484,42.484c-17.301,0-32.731-10.347-39.307-26.358c-1.259-3.065-4.244-5.066-7.558-5.066
	s-6.299,2.001-7.558,5.066c-6.576,16.011-22.006,26.358-39.307,26.358c-23.426,0-42.484-19.058-42.484-42.484
	c0-47.678,69.415-113.86,89.355-131.885c8.394,7.575,25.544,23.675,42.572,43.382C220.351,400.083,236.525,430.688,236.525,453.176z
	"/>
</svg>
