<?xml version="1.0" encoding="iso-8859-1"?>
<svg version="1.1" id="Capa_1" xmlns="http://www.w3.org/2000/svg" x="0px"
     y="0px"
     viewBox="0 0 512.002 512.002" style="enable-background:new 0 0 512.002 512.002;" xml:space="preserve">
<g>
	<g>
		<path d="M197.965,198.867c-4.313-4.721-10.454-7.486-16.847-7.585c-12.859-0.165-23.497,10.087-23.715,22.936
			c-0.07,4.142,3.231,7.556,7.372,7.626c0.044,0.001,0.086,0.001,0.13,0.001c4.083,0,7.427-3.275,7.496-7.374
			c0.077-4.589,3.849-8.271,8.482-8.191c2.313,0.036,4.446,0.996,6.007,2.704c2.794,3.059,7.539,3.273,10.596,0.479
			C200.544,206.67,200.759,201.925,197.965,198.867z"/>
	</g>
</g>
<g>
	<g>
		<path d="M237.867,223.31c-2.299-5.404-6.774-9.669-12.281-11.702c-11.074-4.085-23.419,1.592-27.522,12.653
			c-1.441,3.884,0.54,8.2,4.423,9.641c0.86,0.319,1.741,0.47,2.607,0.47c3.047,0,5.911-1.87,7.033-4.894
			c1.232-3.322,4.945-5.022,8.265-3.797c1.669,0.616,2.973,1.859,3.67,3.499c1.621,3.811,6.027,5.589,9.837,3.967
			C237.712,231.526,239.487,227.122,237.867,223.31z"/>
	</g>
</g>
<g>
	<g>
		<path d="M286.206,156.885c-2.932-2.927-7.681-2.921-10.606,0.011l-7.07,7.084c-2.926,2.932-2.921,7.681,0.011,10.606
			c1.463,1.461,3.38,2.191,5.297,2.191c1.922,0,3.844-0.734,5.309-2.202l7.07-7.084C289.143,164.559,289.138,159.81,286.206,156.885
			z"/>
	</g>
</g>
<g>
	<g>
		<path d="M239.545,253.709h-9.996c-4.143,0-7.5,3.358-7.5,7.5c0,4.142,3.357,7.5,7.5,7.5h9.996c4.143,0,7.5-3.358,7.5-7.5
			C247.045,257.067,243.688,253.709,239.545,253.709z"/>
	</g>
</g>
<g>
	<g>
		<path d="M316.189,253.709h-9.997c-4.143,0-7.5,3.358-7.5,7.5c0,4.142,3.358,7.5,7.5,7.5h9.997c4.142,0,7.5-3.358,7.5-7.5
			C323.689,257.067,320.331,253.709,316.189,253.709z"/>
	</g>
</g>
<g>
	<g>
		<path d="M511.761,388.942l-1.953-10.542c-1.245-6.736-7.127-11.625-13.986-11.625c-0.861,0-1.729,0.079-2.583,0.236l-39.76,7.304
			l18.006-12.037c4.719-3.154,7.104-8.796,6.075-14.393c-0.286-1.533-0.822-3.004-1.598-4.381l-5.449-9.649
			c-1.867-3.315-5.051-5.778-8.726-6.754c-1.8-0.48-3.682-0.587-5.518-0.348c2.005-11.066,3.039-22.368,3.039-33.873
			c0-5.105-3.07-9.498-7.455-11.449c5.73-13.628,6.121-29.23,0.457-43.518c-0.459-1.162-1.141-2.199-2.024-3.083
			c-0.876-0.876-1.901-1.553-3.064-2.02c-6.787-2.703-13.92-4.073-21.201-4.073c-0.931,0-1.858,0.024-2.782,0.068
			c-1.039-20.933-18.364-37.644-39.514-37.644c-2.785,0-5.501,0.296-8.124,0.848c1.822-10.9,0.749-22.303-3.496-33.009
			c-0.456-1.177-1.141-2.233-2.072-3.179c-0.896-0.896-1.947-1.587-3.113-2.05c-7.311-2.912-14.995-4.388-22.839-4.388
			c-11.816,0-23.119,3.322-32.877,9.498c-3.565-10.327-9.444-20.022-17.658-28.255c-2.406-2.41-5.606-3.738-9.011-3.738
			c-3.405,0-6.605,1.328-9.014,3.74l-36.313,36.396c-6.72-5.994-15.563-9.577-25.161-9.577c-2.178,0-4.377,0.191-6.536,0.567
			c-7.823,1.362-15.022,5.191-20.541,10.799c-7.077-3.415-15.184-4.58-22.975-3.224c-1.714,0.298-3.377,0.718-4.991,1.23v-28.046
			c0-19.314-15.523-35.055-34.725-35.387V87.48c5.878-1.017,10.366-6.14,10.366-12.304V39.137c0-6.892-5.607-12.5-12.5-12.5H61.154
			c-6.893,0-12.5,5.608-12.5,12.5v36.039c0,6.164,4.488,11.287,10.366,12.304v15.904c-19.202,0.331-34.724,16.072-34.724,35.387
			v218.896C9.322,371.19,0,390.059,0,410.925c0,41.046,36.025,74.44,80.307,74.44l300.187-0.088
			c10.246-0.004,19.882-4.507,26.436-12.353c6.384-7.638,9.097-17.559,7.534-27.343l59.957,10.775
			c0.83,0.149,1.68,0.225,2.523,0.225c2.99,0,5.855-0.918,8.281-2.652c3.119-2.228,5.23-5.677,5.793-9.46l1.624-10.897
			c0.234-1.561,0.208-3.133-0.077-4.674c-1.032-5.572-5.275-9.993-10.81-11.261l-21.133-4.848l39.721-7.297
			c3.746-0.688,6.996-2.791,9.152-5.922C511.647,396.447,512.451,392.673,511.761,388.942z M426.021,243.735
			c4.515,0,8.954,0.715,13.222,2.124c3.814,11.614,2.386,24.141-3.586,34.489h-20.204l6.447-6.462
			c2.926-2.932,2.92-7.681-0.013-10.607c-2.933-2.926-7.682-2.921-10.606,0.012l-3.411,3.419c-1.599-5.265-4.391-9.979-8.061-13.846
			C407.253,246.953,416.391,243.735,426.021,243.735z M383.725,206.159c13.545,0,24.564,11.052,24.564,24.637
			c0,0.252-0.012,0.501-0.019,0.751c-7.906,2.571-15.193,6.866-21.408,12.699c-0.989-0.375-1.992-0.723-3.022-1.008
			c-2.194-11.852-10.181-21.352-20.732-25.789C367.487,210.665,375.085,206.159,383.725,206.159z M344.08,164.381
			c5.094,0,10.1,0.824,14.924,2.454c3.877,11.528,3.085,23.911-1.855,34.637c-4.061,3.699-7.356,8.229-9.608,13.321
			c-1.339,0.078-2.678,0.226-4.001,0.456c-5.877,1.023-11.357,3.573-15.943,7.271c-1.564-2.86-3.479-5.499-5.673-7.875
			l17.199-17.238c2.926-2.932,2.92-7.681-0.013-10.606c-2.932-2.926-7.681-2.921-10.607,0.012l-18.798,18.841
			c-3.577-1.691-7.443-2.867-11.506-3.417c1.755-8.95,6.098-17.383,12.816-24.117C319.854,169.26,331.597,164.381,344.08,164.381z
			 M286.61,280.348h-6.501c-1.095-2.786-3.802-4.761-6.977-4.761s-5.882,1.976-6.977,4.761h-7.648
			c1.776-2.892,1.417-6.724-1.09-9.226c-2.932-2.926-7.681-2.921-10.607,0.011l-7.069,7.084c-0.635,0.636-1.123,1.361-1.482,2.131
			h-15.265c-5.717-8.773-9.206-19.128-9.619-30.268h118.986c-0.413,11.14-3.902,21.495-9.619,30.268h-15.885
			c-0.358-0.77-0.848-1.496-1.482-2.132l-7.068-7.084c-2.927-2.931-7.674-2.939-10.606-0.012
			C285.192,273.622,284.833,277.455,286.61,280.348z M269.167,235.08c2.827-10.477,12.384-18.208,23.71-18.208
			c11.327,0,20.884,7.732,23.711,18.208H269.167z M284.504,142.859c7.134,7.71,11.851,16.864,14.164,26.486
			c-3.829,4.161-7.01,8.759-9.519,13.652c-1.139-0.698-2.474-1.107-3.907-1.107h-9.994c-4.142,0-7.5,3.358-7.5,7.5
			c0,4.142,3.358,7.5,7.5,7.5h8.767c-0.493,2.071-0.876,4.167-1.154,6.279c-2.978,0.782-5.822,1.896-8.484,3.314
			c-4.999-8.627-13.277-15.056-23.085-17.635c-0.003-0.021-0.007-0.042-0.011-0.063c-0.588-3.394-1.614-6.614-3.013-9.607
			L284.504,142.859z M148.926,210.535c-0.44-1.23-0.773-2.492-0.992-3.758c-2.151-12.401,6.209-24.249,18.632-26.412
			c1.31-0.228,2.641-0.344,3.955-0.344c4.941,0,9.663,1.576,13.654,4.557c1.651,1.234,3.739,1.733,5.771,1.381
			c2.032-0.353,3.829-1.526,4.969-3.245c3.521-5.311,8.908-8.835,15.168-9.925c1.313-0.229,2.647-0.344,3.964-0.344
			c11.112,0,20.556,7.95,22.454,18.905c0.218,1.255,0.33,2.563,0.332,3.888c0.007,3.882,2.976,7.118,6.844,7.458
			c8.385,0.737,15.523,6.014,18.832,13.448c-4.43,5.317-7.501,11.809-8.667,18.936H211.07c-5.318,0-9.881,3.283-11.784,7.929
			c-9.41-6.409-20.5-9.862-32.122-9.862c-7.281,0-14.414,1.371-21.206,4.075c-1.152,0.46-2.182,1.139-3.06,2.017
			c-0.89,0.89-1.573,1.933-2.021,3.077c-1.726,4.353-2.877,8.828-3.499,13.331c-2.688-3.06-4.582-6.865-5.322-11.135
			c-1.764-10.176,3.563-20.308,12.95-24.64C148.534,218.244,150.235,214.192,148.926,210.535z M171.284,278.297l2.046,2.051h-18.013
			c-4.044-9.382-4.658-20.061-1.375-30.077c4.274-1.411,8.711-2.125,13.222-2.125c11.301,0,21.932,4.417,29.933,12.436
			c1.064,1.067,2.055,2.185,2.986,3.34c1.271,5.754,3.224,11.251,5.74,16.425H194.52l-12.617-12.646
			c-2.927-2.931-7.676-2.939-10.606-0.012C168.364,270.616,168.358,275.365,171.284,278.297z M139.344,280.348h-26.737
			c1.192-7.265,5.562-13.458,11.628-17.11c3.591,4.811,8.278,8.701,13.678,11.336C138.295,276.52,138.764,278.449,139.344,280.348z
			 M63.654,41.637h55.991v31.039H63.654V41.637z M109.279,87.676v15.693H74.021V87.676H109.279z M39.297,169.187H88
			c4.143,0,7.5-3.358,7.5-7.5c0-4.142-3.357-7.5-7.5-7.5H39.297v-15.416c0-11.25,9.124-20.402,20.339-20.402h64.028
			c11.216,0,20.34,9.152,20.34,20.402v15.416H130c-4.143,0-7.5,3.358-7.5,7.5c0,4.142,3.357,7.5,7.5,7.5h14.004v6.657
			c-8.593,8.425-13.056,20.78-10.852,33.489c0.004,0.025,0.009,0.051,0.013,0.077c-12.032,8.255-18.443,22.931-15.89,37.664
			c0.149,0.86,0.336,1.706,0.54,2.543c-3.747,2.066-7.112,4.734-9.996,7.856H39.297V169.187z M39.296,272.472L39.296,272.472H99.11
			c-0.796,2.528-1.358,5.159-1.632,7.876h-1.264c-6.903,0-12.52,5.621-12.52,12.53c0,11.909,1.107,23.6,3.252,35.038
			c-2.155-0.173-4.365-0.266-6.613-0.266c-9.07,0-17.712,1.439-24.331,4.053c-10.125,3.998-12.924,9.675-13.535,13.603
			c-1.073,0.534-2.127,1.098-3.171,1.675V272.472z M134.267,364.607c2.701,2.161,4.352,3.998,5.309,5.323
			c-0.09,0.001-0.184,0.002-0.279,0.002c-4.245,0-11.872-1.711-20.545-6.512c-3.229-1.789-6.204-3.81-8.604-5.843
			c-2.798-2.371-6.901-2.369-9.697,0.001c-2.4,2.035-5.374,4.055-8.6,5.84c-8.675,4.803-16.302,6.514-20.546,6.514
			c-0.097,0-0.19-0.001-0.281-0.002c0.956-1.325,2.607-3.163,5.309-5.325c2.361-1.89,3.356-5.014,2.523-7.921
			c-0.834-2.908-3.332-5.031-6.337-5.383c-7.319-0.858-11.947-2.721-14.114-4.077c2.715-1.691,9.579-4.574,21.931-4.574
			c10.23,0,17.707,2.151,21.293,4.165c2.281,1.28,5.062,1.28,7.343,0.001c3.588-2.014,11.066-4.165,21.296-4.165
			c12.353,0,19.216,2.884,21.93,4.574c-2.166,1.357-6.795,3.219-14.116,4.077c-3.005,0.353-5.504,2.475-6.337,5.384
			C130.909,359.594,131.904,362.718,134.267,364.607z M119.264,455.893l0.258,1.39c0.892,4.817,2.773,9.238,5.401,13.082H80.307
			c-36.01,0-65.307-26.664-65.307-59.44c0-22.399,13.688-41.935,33.844-52.065c2.315,1.728,5.201,3.218,8.625,4.42
			c-1.358,2.319-2.304,4.813-2.527,7.414c-0.296,3.458,0.762,6.742,2.982,9.248c2.933,3.312,7.435,4.991,13.381,4.991
			c7.924,0,18.321-3.137,27.811-8.391c2.185-1.209,4.251-2.486,6.185-3.82c1.933,1.333,3.999,2.61,6.185,3.821
			c9.49,5.253,19.887,8.389,27.811,8.39h0.001c5.944,0,10.446-1.679,13.378-4.99c2.221-2.506,3.28-5.79,2.983-9.249
			c-0.223-2.601-1.169-5.095-2.527-7.414c3.424-1.203,6.311-2.693,8.626-4.42c15.985,8.034,27.896,21.985,32.143,38.588
			l-53.045,20.151C125.329,423.499,116.248,439.603,119.264,455.893z M395.418,463.307c-3.698,4.428-9.141,6.968-14.931,6.97
			l-7.872,0.003l-4.918-26.555c-0.755-4.073-4.666-6.766-8.741-6.009c-4.072,0.754-6.763,4.667-6.009,8.74l4.414,23.829
			l-25.806,0.01l-3.325-17.957c-0.755-4.073-4.667-6.763-8.741-6.009c-4.072,0.754-6.763,4.667-6.009,8.74l2.82,15.232
			l-60.025,0.023l-4.518-24.388c-0.756-4.073-4.666-6.763-8.741-6.008c-4.073,0.754-6.763,4.668-6.009,8.741l4.013,21.661
			l-87.644,0.034c-0.002,0-0.004,0-0.006,0c-9.372,0-17.404-6.65-19.102-15.816l-0.258-1.39c-1.695-9.156,3.423-18.213,12.17-21.537
			l29.477-11.198l2.196,11.852c0.669,3.611,3.821,6.135,7.365,6.135c0.454,0,0.914-0.042,1.376-0.127
			c4.072-0.755,6.762-4.668,6.007-8.741l-2.693-14.533l43.755-16.622c3.872-1.471,5.819-5.803,4.348-9.675
			c-1.471-3.873-5.808-5.819-9.674-4.348l-20.361,7.735c-5.712-20.223-20.386-37.116-39.845-46.794
			c-0.611-3.928-3.41-9.605-13.534-13.603c-6.619-2.614-15.261-4.053-24.331-4.053c-6.242,0-12.203,0.689-17.465,1.944v-4.53
			c0-4.142-3.357-7.5-7.5-7.5c-1.751,0-3.357,0.604-4.634,1.61c-1.183-7.823-1.845-15.769-1.955-23.827H343
			c4.143,0,7.5-3.358,7.5-7.5c0-4.142-3.357-7.5-7.5-7.5h-3.069c4.776-9.836,7.474-20.864,7.474-32.519
			c0-6.617-5.063-12.068-11.515-12.687c2.809-2.649,6.315-4.435,10.223-5.116c1.145-0.199,2.307-0.3,3.455-0.3
			c9.683,0,17.911,6.927,19.564,16.469c0.191,1.105,0.289,2.245,0.29,3.39c0.005,3.884,2.975,7.122,6.844,7.462
			c8.963,0.787,16.296,7.528,17.833,16.392c0.408,2.357,0.357,4.683-0.052,6.909H386c-4.143,0-7.5,3.358-7.5,7.5
			c0,4.142,3.357,7.5,7.5,7.5h58.292c-0.186,13.758-1.958,27.197-5.263,40.236l-40.646,23.994
			c-2.486-8.652-8.264-15.991-16.225-20.447c-8.929-4.997-19.54-5.778-29.11-2.143l-83.711,31.802
			c-3.873,1.471-5.819,5.803-4.348,9.675c1.471,3.873,5.807,5.817,9.674,4.348l11.028-4.189l3.424,18.487
			c0.669,3.611,3.821,6.136,7.366,6.136c0.453,0,0.913-0.042,1.375-0.127c4.072-0.754,6.763-4.667,6.009-8.74l-3.921-21.17
			l58.429-22.197c5.414-2.056,11.412-1.615,16.459,1.21c5.038,2.819,8.528,7.679,9.576,13.331l15.173,81.915
			C400.627,453.116,399.11,458.889,395.418,463.307z M422.178,404.601c-3.499,0.643-6.064,3.655-6.143,7.212
			c-0.078,3.557,2.354,6.679,5.821,7.474l55.84,12.808l-1.395,9.359l-64.734-11.633l-10.119-54.634l56.384-33.284l4.697,8.317
			l-47.558,31.791c-2.957,1.977-4.119,5.759-2.781,9.055c1.337,3.296,4.807,5.2,8.305,4.557l74.706-13.723l1.664,8.98
			L422.178,404.601z"/>
	</g>
</g>
</svg>
