<?xml version="1.0" encoding="iso-8859-1"?>
<svg version="1.1" id="Layer_1" xmlns="http://www.w3.org/2000/svg" x="0px" y="0px"
     viewBox="0 0 512.001 512.001" style="enable-background:new 0 0 512.001 512.001;" xml:space="preserve">
<path style="fill:#85C5FF;" d="M256.006,31.901v242.113h81.364v-87.716C337.371,122.199,305.142,65.628,256.006,31.901z"/>
    <path style="fill:#FF7945;" d="M256.001,7.824c-4.443,0-8.045,3.601-8.045,8.045v309.503h16.091V15.87
	C264.046,11.425,260.444,7.824,256.001,7.824z"/>
    <polygon style="fill:#FFBC79;" points="153.177,333.141 187.904,467.987 266.728,467.988 256.001,306.821 "/>
    <polygon style="fill:#FF7945;" points="358.825,333.141 256.001,306.821 256.001,467.988 324.096,467.988 "/>
    <path style="fill:#6DB4F5;" d="M500.044,431.768c-16.696,0-31.476-8.15-40.685-20.614c-9.174,12.463-23.989,20.614-40.649,20.614
	c-16.696,0-31.477-8.15-40.685-20.614c-9.209,12.463-23.99,20.614-40.685,20.614c-16.7,0-31.437-8.15-40.649-20.614
	c-9.209,12.463-23.99,20.614-40.685,20.614c-16.7,0-31.477-8.15-40.65-20.614c-9.248,12.463-23.989,20.614-40.685,20.614
	c-16.699,0-31.476-8.15-40.649-20.614c-9.209,12.463-24.029,20.614-40.725,20.614c-16.66,0-31.436-8.15-40.649-20.614
	c-9.209,12.463-23.985,20.614-40.685,20.614V512h244.042h244.042v-80.232H500.044z"/>
    <path style="fill:#5D8AE1;" d="M459.359,479.396c-9.174,7.729-23.989,12.785-40.649,12.785c-16.696,0-31.477-5.055-40.685-12.785
	c-9.209,7.729-23.99,12.785-40.685,12.785c-16.7,0-31.437-5.055-40.649-12.785c-9.209,7.729-23.99,12.785-40.685,12.785
	c-16.7,0-31.477-5.055-40.65-12.785c-9.248,7.729-23.989,12.785-40.685,12.785c-16.699,0-31.476-5.055-40.649-12.785
	c-9.209,7.729-24.029,12.785-40.725,12.785c-16.66,0-31.436-5.055-40.649-12.785c-9.209,7.729-23.985,12.785-40.685,12.785v19.821
	h488.085v-19.821C483.348,492.179,468.568,487.125,459.359,479.396z"/>
    <path d="M151.183,325.348c-2.069,0.529-3.842,1.86-4.93,3.699c-1.088,1.838-1.399,4.033-0.867,6.102l16.965,65.875
	c0.935,3.631,4.203,6.042,7.786,6.042c0.664,0,1.34-0.083,2.012-0.256c4.303-1.107,6.892-5.494,5.785-9.797l-14.956-58.073
	l84.977-21.753v82.402c0,4.444,3.602,8.045,8.045,8.045c4.443,0,8.045-3.601,8.045-8.045v-82.402l84.977,21.753l-14.956,58.074
	c-1.108,4.303,1.481,8.689,5.785,9.797c4.299,1.109,8.689-1.481,9.798-5.785l16.965-65.875c0.533-2.068,0.221-4.264-0.867-6.102
	c-1.088-1.839-2.861-3.17-4.93-3.699l-96.773-24.772v-26.447c0-0.039,0.005-0.075,0.005-0.114c0-0.039-0.005-0.076-0.005-0.115
	V48.028c41.133,33.889,65.278,84.493,65.278,138.272v79.67h-41.136c-4.443,0-8.045,3.601-8.045,8.045
	c0,4.444,3.602,8.045,8.045,8.045h70.636c4.443,0,8.045-3.601,8.045-8.045c0-4.444-3.602-8.045-8.045-8.045h-13.409v-79.67
	c0-62.937-30.345-121.876-81.37-158.558V8.045C264.045,3.601,260.443,0,256,0s-8.045,3.601-8.045,8.045v257.923h-94.767
	c-4.443,0-8.045,3.601-8.045,8.045c0,4.444,3.602,8.045,8.045,8.045h94.767v18.515L151.183,325.348z"/>
    <path d="M11.959,439.814c15.2,0,29.826-6.04,40.686-16.505c10.859,10.465,25.471,16.505,40.649,16.505
	c15.218,0,29.851-6.036,40.715-16.497c10.837,10.46,25.45,16.497,40.659,16.497c15.421,0,29.808-5.912,40.69-16.483
	c10.835,10.451,25.444,16.483,40.646,16.483c15.19,0,29.804-6.031,40.662-16.483c10.859,10.572,25.239,16.483,40.672,16.483
	c15.199,0,29.825-6.04,40.685-16.505c10.86,10.464,25.484,16.505,40.686,16.505c15.209,0,29.821-6.036,40.658-16.496
	c10.86,10.459,25.481,16.496,40.676,16.496c4.443,0,8.045-3.601,8.045-8.045c0-4.443-3.602-8.045-8.045-8.045
	c-13.596,0-26.067-6.324-34.214-17.35c-1.517-2.053-3.918-3.264-6.471-3.264c-0.002,0-0.004,0-0.007,0
	c-2.555,0.002-4.957,1.219-6.472,3.276c-7.992,10.857-20.766,17.338-34.17,17.338c-13.397,0-26.187-6.486-34.215-17.35
	c-1.517-2.053-3.918-3.264-6.471-3.264c-2.552,0-4.954,1.211-6.471,3.264c-8.028,10.863-20.819,17.35-34.215,17.35
	c-13.57,0-26.028-6.324-34.18-17.351c-1.517-2.052-3.919-3.263-6.471-3.263c-2.552,0-4.953,1.211-6.47,3.264
	c-8.028,10.863-20.819,17.35-34.215,17.35c-13.406,0-26.18-6.481-34.171-17.338c-1.514-2.055-3.911-3.271-6.463-3.276
	c-0.005,0-0.011,0-0.016,0c-2.547,0-4.943,1.206-6.461,3.25c-8.188,11.035-20.663,17.363-34.224,17.363
	c-13.405,0-26.18-6.481-34.17-17.338c-1.515-2.057-3.916-3.274-6.472-3.276c-0.003,0-0.004,0-0.008,0
	c-2.552,0-4.954,1.211-6.471,3.264c-8.027,10.864-20.832,17.35-34.254,17.35c-13.37,0-26.147-6.487-34.181-17.352
	c-1.518-2.052-3.918-3.262-6.471-3.262c-2.553,0-4.953,1.212-6.47,3.264c-8.147,11.025-20.618,17.35-34.214,17.35
	c-4.443,0-8.045,3.602-8.045,8.045C3.913,436.212,7.515,439.814,11.959,439.814z"/>
    <path d="M500.044,488.086c-13.596,0-26.067-6.324-34.214-17.35c-1.517-2.053-3.918-3.264-6.471-3.264c-0.002,0-0.004,0-0.007,0
	c-2.555,0.002-4.957,1.219-6.472,3.276c-7.992,10.857-20.766,17.338-34.17,17.338c-13.397,0-26.187-6.486-34.215-17.35
	c-1.517-2.053-3.918-3.264-6.471-3.264c-2.552,0-4.954,1.211-6.471,3.264c-8.028,10.863-20.819,17.35-34.215,17.35
	c-13.57,0-26.028-6.324-34.18-17.351c-1.517-2.052-3.919-3.263-6.471-3.263c-2.552,0-4.953,1.211-6.47,3.264
	c-8.028,10.863-20.819,17.35-34.215,17.35c-13.406,0-26.18-6.481-34.171-17.338c-1.514-2.055-3.911-3.271-6.463-3.276
	c-0.005,0-0.011,0-0.016,0c-2.547,0-4.943,1.206-6.461,3.25c-8.188,11.035-20.663,17.363-34.224,17.363
	c-13.405,0-26.18-6.481-34.17-17.338c-1.515-2.057-3.916-3.274-6.472-3.276c-0.003,0-0.004,0-0.008,0
	c-2.552,0-4.954,1.211-6.471,3.264c-8.027,10.864-20.832,17.35-34.254,17.35c-13.37,0-26.147-6.487-34.181-17.352
	c-1.518-2.052-3.918-3.262-6.471-3.262s-4.953,1.212-6.47,3.264c-8.147,11.025-20.618,17.35-34.214,17.35
	c-4.443,0-8.045,3.602-8.045,8.045c0,4.444,3.602,8.045,8.045,8.045c15.2,0,29.826-6.04,40.686-16.505
	c10.859,10.465,25.471,16.505,40.649,16.505c15.218,0,29.851-6.036,40.715-16.497c10.837,10.46,25.45,16.497,40.659,16.497
	c15.421,0,29.808-5.912,40.69-16.483c10.835,10.451,25.444,16.483,40.646,16.483c15.19,0,29.804-6.031,40.662-16.483
	c10.859,10.572,25.239,16.483,40.672,16.483c15.199,0,29.825-6.04,40.685-16.505c10.86,10.464,25.484,16.505,40.686,16.505
	c15.209,0,29.821-6.036,40.658-16.496c10.86,10.459,25.481,16.496,40.676,16.496c4.443,0,8.045-3.601,8.045-8.045
	C508.089,491.687,504.487,488.086,500.044,488.086z"/>
    <g>
</g>
</svg>
