<?xml version="1.0" encoding="UTF-8" standalone="no"?>
<svg
   xmlns:dc="http://purl.org/dc/elements/1.1/"
   xmlns:cc="http://creativecommons.org/ns#"
   xmlns:rdf="http://www.w3.org/1999/02/22-rdf-syntax-ns#"
   xmlns:svg="http://www.w3.org/2000/svg"
   xmlns="http://www.w3.org/2000/svg"
   xmlns:sodipodi="http://sodipodi.sourceforge.net/DTD/sodipodi-0.dtd"
   xmlns:inkscape="http://www.inkscape.org/namespaces/inkscape"
   viewBox="0 0 216.00435 215.99999"
   height="216"
   width="216.00435"
   xml:space="preserve"
   id="svg2"
   version="1.1"
   sodipodi:docname="bareboat-necessities-logo-vect.svg"
   inkscape:version="1.0.1 (3bc2e813f5, 2020-09-07)"><sodipodi:namedview
     pagecolor="#ffffff"
     bordercolor="#666666"
     borderopacity="1"
     objecttolerance="10"
     gridtolerance="10"
     guidetolerance="10"
     inkscape:pageopacity="0"
     inkscape:pageshadow="2"
     inkscape:window-width="1902"
     inkscape:window-height="1033"
     id="bareboat-necessities"
     showgrid="false"
     inkscape:zoom="3.4280537"
     inkscape:cx="42.373777"
     inkscape:cy="116.17988"
     inkscape:window-x="0"
     inkscape:window-y="0"
     inkscape:window-maximized="0"
     inkscape:current-layer="svg2"
     inkscape:document-rotation="0" /><metadata
     id="metadata8"><rdf:RDF><cc:Work
         rdf:about=""><dc:format>image/svg+xml</dc:format><dc:type
           rdf:resource="http://purl.org/dc/dcmitype/StillImage" /><dc:title></dc:title></cc:Work></rdf:RDF></metadata><defs
     id="defs6"><clipPath
       id="clipPath28"
       clipPathUnits="userSpaceOnUse"><path
         id="path26"
         d="M 0,500 H 500 V 0 H 0 Z"
         inkscape:connector-curvature="0" /></clipPath><clipPath
       id="clipPath68"
       clipPathUnits="userSpaceOnUse"><path
         id="path66"
         d="M 0,500 H 500 V 0 H 0 Z"
         inkscape:connector-curvature="0" /></clipPath><clipPath
       id="clipPath108"
       clipPathUnits="userSpaceOnUse"><path
         id="path106"
         d="M 0,500 H 500 V 0 H 0 Z"
         inkscape:connector-curvature="0" /></clipPath><clipPath
       id="clipPath148"
       clipPathUnits="userSpaceOnUse"><path
         id="path146"
         d="M 0,500 H 500 V 0 H 0 Z"
         inkscape:connector-curvature="0" /></clipPath><clipPath
       id="clipPath188"
       clipPathUnits="userSpaceOnUse"><path
         id="path186"
         d="M 0,500 H 500 V 0 H 0 Z"
         inkscape:connector-curvature="0" /></clipPath></defs><g
     id="g306"
     transform="matrix(1.1763375,0,0,1.1496466,16.307733,3.4011145e-6)"><g
       transform="matrix(1.3333333,0,0,-1.3333333,-133.97009,281.66399)"
       id="g10"><g
   id="g102"><g
     clip-path="url(#clipPath108)"
     id="g104"><g
       transform="translate(161.0337,200.1182)"
       id="g110"><path
         id="path112"
         style="fill:#febd29;fill-opacity:1;fill-rule:nonzero;stroke:none"
         d="m 0,0 c 0,0 7.705,-24.039 -9.759,-60.758 0,0 37.423,9.316 54.774,3.163 0,0 -10.035,46.67 -45.015,57.595"
         inkscape:connector-curvature="0" /></g><g
       transform="translate(157.2051,211.248)"
       id="g114"><path
         id="path116"
         style="fill:#febd29;fill-opacity:1;fill-rule:nonzero;stroke:none"
         d="m 0,0 c 0,0 -23.363,-48.003 -17.346,-76.43 0,0 -23.696,2.724 -34.346,-4.044 0,0 19.327,58.097 51.692,80.474"
         inkscape:connector-curvature="0" /></g><g
       transform="translate(180.3569,137.0811)"
       id="g118"><path
         id="path120"
         style="fill:#003154;fill-opacity:1;fill-rule:nonzero;stroke:none"
         d="m 0,0 c -6.183,1.61 -12.851,0.719 -19.152,0.354 -3.931,-0.226 -7.822,-0.621 -11.693,-1.191 -0.03,3.075 -0.173,6.156 -0.091,9.189 0.191,7.046 0.749,14.045 1.665,21.054 1.829,13.991 5.015,27.589 10.226,41.035 0.289,0.746 -1.06,1.283 -1.406,0.518 -5.957,-13.21 -10.783,-27.049 -13.484,-40.947 -1.343,-6.916 -2.196,-13.95 -2.548,-20.945 -0.18,-3.575 -0.417,-7.265 -0.244,-10.917 -0.505,-0.098 -1.01,-0.195 -1.516,-0.301 -1.423,-0.297 -1.052,-2.451 0.336,-2.477 6.526,-0.128 13.015,0.069 19.538,0.404 C -12.287,-3.911 -5.889,-4.328 0,-2.576 1.239,-2.207 1.302,-0.34 0,0"
         inkscape:connector-curvature="0" /></g><g
       transform="translate(213.7651,130.1152)"
       id="g122"><path
         id="path124"
         style="fill:#1380c5;fill-opacity:1;fill-rule:nonzero;stroke:none"
         d="m 0,0 c -3.596,-8.376 -15.875,-9.048 -23.595,-9.686 -11.168,-0.923 -22.314,0.178 -33.374,1.722 -10.028,1.401 -20.005,3.588 -30.081,4.584 -8.882,0.878 -17.98,0.462 -25.656,-4.541 -1.321,-0.86 -0.168,-2.84 1.235,-2.113 9.982,5.167 21.459,2.605 31.945,0.659 11.036,-2.048 22.035,-4.293 33.215,-5.421 10.702,-1.08 22.197,-1.591 32.727,1.026 C -6.42,-11.989 0.218,-8.467 2.373,-1 2.769,0.372 0.592,1.38 0,0"
         inkscape:connector-curvature="0" /></g><g
       transform="translate(213.7651,120.6846)"
       id="g126"><path
         id="path128"
         style="fill:#1380c5;fill-opacity:1;fill-rule:nonzero;stroke:none"
         d="m 0,0 c -3.596,-8.376 -15.875,-9.048 -23.595,-9.686 -11.168,-0.923 -22.314,0.178 -33.374,1.722 -10.028,1.401 -20.005,3.588 -30.081,4.584 -8.882,0.878 -17.98,0.462 -25.656,-4.541 -1.321,-0.86 -0.168,-2.84 1.235,-2.113 9.982,5.167 21.459,2.605 31.945,0.659 11.036,-2.048 22.035,-4.293 33.215,-5.421 10.702,-1.08 22.197,-1.591 32.727,1.026 C -6.42,-11.989 0.218,-8.467 2.373,-1 2.769,0.372 0.592,1.38 0,0"
         inkscape:connector-curvature="0" /></g></g></g><g
   aria-label="BAREBOAT"
   transform="scale(1,-1)"
   id="text132"
   style="font-style:normal;font-variant:normal;font-weight:bold;font-stretch:semi-condensed;font-size:20px;font-family:'DejaVu Sans';-inkscape-font-specification:'DejaVu Sans, Bold Semi-Condensed';font-variant-ligatures:normal;font-variant-caps:normal;font-variant-numeric:normal;font-variant-east-asian:normal;writing-mode:lr-tb;fill:#000000;fill-opacity:1;fill-rule:nonzero;stroke:none"><path
     d="m 96.398005,-94.618769 q 0.962933,0 1.456147,-0.430376 0.504951,-0.430377 0.504951,-1.269611 0,-0.828474 -0.504951,-1.258851 -0.493214,-0.441136 -1.456147,-0.441136 h -2.242938 v 3.399974 z m 0.14092,7.025895 q 1.233025,0 1.843663,-0.527212 0.622386,-0.52721 0.622386,-1.592392 0,-1.043663 -0.622386,-1.560115 -0.610638,-0.52721 -1.843663,-0.52721 h -2.383858 v 4.206929 z m 3.781275,-5.777804 q 1.31523,0.387339 2.03155,1.431003 0.71633,1.043662 0.71633,2.560738 0,2.324033 -1.55009,3.464531 -1.538347,1.140497 -4.685488,1.140497 h -6.752288 v -16.063801 h 6.106417 q 3.288061,0 4.755949,1.011383 1.47963,1.011388 1.47963,3.238587 0,1.172775 -0.54019,2.00125 -0.52843,0.817714 -1.56182,1.215812 z"
     style="font-style:normal;font-variant:normal;font-weight:bold;font-stretch:semi-condensed;font-size:20px;font-family:'DejaVu Sans';-inkscape-font-specification:'DejaVu Sans, Bold Semi-Condensed';font-variant-ligatures:normal;font-variant-caps:normal;font-variant-numeric:normal;font-variant-east-asian:normal;stroke-width:1.15103"
     id="path1481" /><path
     d="m 116.49749,-87.700468 h -6.36476 l -1.00991,2.926559 h -4.0866 l 5.84806,-16.063801 h 4.84991 l 5.84806,16.063801 h -4.09834 z m -5.35485,-2.980357 h 4.32146 l -2.14899,-6.39109 z"
     style="font-style:normal;font-variant:normal;font-weight:bold;font-stretch:semi-condensed;font-size:20px;font-family:'DejaVu Sans';-inkscape-font-specification:'DejaVu Sans, Bold Semi-Condensed';font-variant-ligatures:normal;font-variant-caps:normal;font-variant-numeric:normal;font-variant-east-asian:normal;stroke-width:1.15103"
     id="path1483" /><path
     d="m 130.74187,-93.714979 q 1.26826,0 1.82018,-0.484173 0.56367,-0.484174 0.56367,-1.592392 0,-1.09746 -0.56367,-1.570874 -0.55192,-0.473414 -1.82018,-0.473414 h -1.71449 v 4.120853 z m -1.71449,2.862004 v 6.079066 h -4.07485 v -16.063801 h 6.21209 q 3.12367,0 4.56807,1.065184 1.45615,1.065181 1.45615,3.367695 0,1.592393 -0.75156,2.614537 -0.75156,1.022143 -2.27816,1.506317 0.83376,0.19367 1.49137,0.882272 0.66935,0.677842 1.33871,2.065806 l 2.2077,4.56199 h -4.33319 l -1.91413,-3.991741 q -0.58715,-1.205054 -1.18606,-1.64619 -0.5989,-0.441135 -1.58532,-0.441135 z"
     style="font-style:normal;font-variant:normal;font-weight:bold;font-stretch:semi-condensed;font-size:20px;font-family:'DejaVu Sans';-inkscape-font-specification:'DejaVu Sans, Bold Semi-Condensed';font-variant-ligatures:normal;font-variant-caps:normal;font-variant-numeric:normal;font-variant-east-asian:normal;stroke-width:1.15103"
     id="path1485" /><path
     d="m 144.19242,-100.83771 h 10.9798 v 3.130991 h -6.90495 v 2.991115 h 6.49394 v 3.130988 h -6.49394 v 3.679719 h 7.13981 v 3.130988 h -11.21466 z"
     style="font-style:normal;font-variant:normal;font-weight:bold;font-stretch:semi-condensed;font-size:20px;font-family:'DejaVu Sans';-inkscape-font-specification:'DejaVu Sans, Bold Semi-Condensed';font-variant-ligatures:normal;font-variant-caps:normal;font-variant-numeric:normal;font-variant-east-asian:normal;stroke-width:1.15103"
     id="path1487" /><path
     d="m 167.34512,-94.618769 q 0.96293,0 1.45613,-0.430376 0.50495,-0.430377 0.50495,-1.269611 0,-0.828474 -0.50495,-1.258851 -0.4932,-0.441136 -1.45613,-0.441136 h -2.24294 v 3.399974 z m 0.1409,7.025895 q 1.23303,0 1.84368,-0.527212 0.62237,-0.52721 0.62237,-1.592392 0,-1.043663 -0.62237,-1.560115 -0.61065,-0.52721 -1.84368,-0.52721 h -2.38384 v 4.206929 z m 3.78128,-5.777804 q 1.31523,0.387339 2.03156,1.431003 0.71633,1.043662 0.71633,2.560738 0,2.324033 -1.55009,3.464531 -1.53835,1.140497 -4.6855,1.140497 h -6.75228 v -16.063801 h 6.10641 q 3.28807,0 4.75596,1.011383 1.47963,1.011388 1.47963,3.238587 0,1.172775 -0.54019,2.00125 -0.52843,0.817714 -1.56183,1.215812 z"
     style="font-style:normal;font-variant:normal;font-weight:bold;font-stretch:semi-condensed;font-size:20px;font-family:'DejaVu Sans';-inkscape-font-specification:'DejaVu Sans, Bold Semi-Condensed';font-variant-ligatures:normal;font-variant-caps:normal;font-variant-numeric:normal;font-variant-east-asian:normal;stroke-width:1.15103"
     id="path1489" /><path
     d="m 185.07249,-98.126337 q -1.85542,0 -2.8888,1.398723 -1.02165,1.398724 -1.02165,3.937945 0,2.528461 1.02165,3.927184 1.03338,1.398724 2.8888,1.398724 1.86715,0 2.88881,-1.398724 1.03338,-1.398723 1.03338,-3.927184 0,-2.539221 -1.03338,-3.937945 -1.02166,-1.398723 -2.88881,-1.398723 z m 0,-3.001873 q 3.80477,0 5.95374,2.216437 2.16074,2.216438 2.16074,6.122104 0,3.894906 -2.16074,6.111344 -2.14897,2.216439 -5.95374,2.216439 -3.79302,0 -5.95375,-2.216439 -2.16073,-2.216438 -2.16073,-6.111344 0,-3.905666 2.16073,-6.122104 2.16073,-2.216437 5.95375,-2.216437 z"
     style="font-style:normal;font-variant:normal;font-weight:bold;font-stretch:semi-condensed;font-size:20px;font-family:'DejaVu Sans';-inkscape-font-specification:'DejaVu Sans, Bold Semi-Condensed';font-variant-ligatures:normal;font-variant-caps:normal;font-variant-numeric:normal;font-variant-east-asian:normal;stroke-width:1.15103"
     id="path1491" /><path
     d="m 206.68449,-87.700468 h -6.36476 l -1.00991,2.926559 h -4.0866 l 5.84806,-16.063801 h 4.8499 l 5.84806,16.063801 h -4.09834 z m -5.35486,-2.980357 h 4.32146 l -2.14899,-6.39109 z"
     style="font-style:normal;font-variant:normal;font-weight:bold;font-stretch:semi-condensed;font-size:20px;font-family:'DejaVu Sans';-inkscape-font-specification:'DejaVu Sans, Bold Semi-Condensed';font-variant-ligatures:normal;font-variant-caps:normal;font-variant-numeric:normal;font-variant-east-asian:normal;stroke-width:1.15103"
     id="path1493" /><path
     d="m 213.26062,-100.83771 h 14.53795 v 3.130991 h -5.22567 v 12.93281 h -4.07486 v -12.93281 h -5.23742 z"
     style="font-style:normal;font-variant:normal;font-weight:bold;font-stretch:semi-condensed;font-size:20px;font-family:'DejaVu Sans';-inkscape-font-specification:'DejaVu Sans, Bold Semi-Condensed';font-variant-ligatures:normal;font-variant-caps:normal;font-variant-numeric:normal;font-variant-east-asian:normal;stroke-width:1.15103"
     id="path1495" /></g>
<g
   aria-label="NECESSITIES"
   transform="matrix(1.3605672,0,0,-1,-51.87176,1.0939152)"
   id="text140"
   style="font-style:normal;font-variant:normal;font-weight:bold;font-stretch:semi-condensed;font-size:11.1451px;font-family:'DejaVu Sans';-inkscape-font-specification:'DejaVu Sans, Bold Semi-Condensed';font-variant-ligatures:normal;font-variant-caps:normal;font-variant-numeric:normal;font-variant-east-asian:normal;writing-mode:lr-tb;white-space:pre;inline-size:80.2809;fill:#000000;fill-opacity:1;fill-rule:nonzero;stroke:none"><path
     d="m 112.53558,-78.366722 h 2.53249 l 3.19996,6.139633 v -6.139633 h 2.14639 v 8.951632 h -2.53248 l -3.19343,-6.139632 v 6.139632 h -2.15293 z"
     style="font-style:normal;font-variant:normal;font-weight:bold;font-stretch:semi-condensed;font-size:11.1451px;font-family:'DejaVu Sans';-inkscape-font-specification:'DejaVu Sans, Bold Semi-Condensed';font-variant-ligatures:normal;font-variant-caps:normal;font-variant-numeric:normal;font-variant-east-asian:normal;stroke-width:1.15103"
     id="path1498" /><path
     d="m 122.62626,-78.366722 h 6.11855 v 1.744759 H 124.897 v 1.666814 h 3.61877 v 1.744759 H 124.897 v 2.050541 h 3.97869 v 1.744759 h -6.24943 z"
     style="font-style:normal;font-variant:normal;font-weight:bold;font-stretch:semi-condensed;font-size:11.1451px;font-family:'DejaVu Sans';-inkscape-font-specification:'DejaVu Sans, Bold Semi-Condensed';font-variant-ligatures:normal;font-variant-caps:normal;font-variant-numeric:normal;font-variant-east-asian:normal;stroke-width:1.15103"
     id="path1500" /><path
     d="m 137.84083,-69.90674 q -0.62822,0.329765 -1.30878,0.497646 -0.67402,0.16788 -1.40694,0.16788 -2.19875,0 -3.48135,-1.247113 -1.2826,-1.253108 -1.2826,-3.393586 0,-2.146472 1.2826,-3.393586 1.2826,-1.253108 3.48135,-1.253108 0.73292,0 1.40694,0.167881 0.68056,0.16788 1.30878,0.497646 v 1.852681 q -0.63476,-0.437687 -1.24988,-0.641543 -0.60858,-0.203855 -1.2826,-0.203855 -1.21717,0 -1.91083,0.791437 -0.69365,0.791437 -0.69365,2.182447 0,1.385015 0.69365,2.176453 0.69366,0.791436 1.91083,0.791436 0.67402,0 1.2826,-0.203855 0.61512,-0.203855 1.24988,-0.641543 z"
     style="font-style:normal;font-variant:normal;font-weight:bold;font-stretch:semi-condensed;font-size:11.1451px;font-family:'DejaVu Sans';-inkscape-font-specification:'DejaVu Sans, Bold Semi-Condensed';font-variant-ligatures:normal;font-variant-caps:normal;font-variant-numeric:normal;font-variant-east-asian:normal;stroke-width:1.15103"
     id="path1502" /><path
     d="m 139.71239,-78.366722 h 6.11854 v 1.744759 h -3.84781 v 1.666814 h 3.61878 v 1.744759 h -3.61878 v 2.050541 h 3.97869 v 1.744759 h -6.24942 z"
     style="font-style:normal;font-variant:normal;font-weight:bold;font-stretch:semi-condensed;font-size:11.1451px;font-family:'DejaVu Sans';-inkscape-font-specification:'DejaVu Sans, Bold Semi-Condensed';font-variant-ligatures:normal;font-variant-caps:normal;font-variant-numeric:normal;font-variant-east-asian:normal;stroke-width:1.15103"
     id="path1504" /><path
     d="m 154.0697,-78.084922 v 1.894652 q -0.71982,-0.329766 -1.41348,-0.497646 -0.6871,-0.167881 -1.30224,-0.167881 -0.81144,0 -1.20407,0.227838 -0.38609,0.227838 -0.38609,0.707497 0,0.359744 0.26176,0.563599 0.26175,0.197859 0.9554,0.341757 l 0.96196,0.197859 q 1.47238,0.299787 2.0875,0.911351 0.61513,0.611566 0.61513,1.738764 0,1.480946 -0.8638,2.20643 -0.85725,0.719488 -2.63065,0.719488 -0.83762,0 -1.68178,-0.161884 -0.83762,-0.161886 -1.68178,-0.47966 v -1.948613 q 0.84416,0.455675 1.62943,0.689509 0.78527,0.227838 1.51819,0.227838 0.73946,0 1.1321,-0.251821 0.39916,-0.25182 0.39916,-0.719488 0,-0.419701 -0.2683,-0.64754 -0.2683,-0.227837 -1.07319,-0.407709 l -0.87689,-0.197859 q -1.31532,-0.287795 -1.93045,-0.917347 -0.60858,-0.629553 -0.60858,-1.696793 0,-1.337049 0.85071,-2.056538 0.85071,-0.719488 2.43434,-0.719488 0.72636,0 1.492,0.113919 0.76564,0.107918 1.58362,0.329766 z"
     style="font-style:normal;font-variant:normal;font-weight:bold;font-stretch:semi-condensed;font-size:11.1451px;font-family:'DejaVu Sans';-inkscape-font-specification:'DejaVu Sans, Bold Semi-Condensed';font-variant-ligatures:normal;font-variant-caps:normal;font-variant-numeric:normal;font-variant-east-asian:normal;stroke-width:1.15103"
     id="path1506" /><path
     d="m 162.15142,-78.084922 v 1.894652 q -0.71984,-0.329766 -1.41348,-0.497646 -0.68712,-0.167881 -1.30224,-0.167881 -0.81144,0 -1.20408,0.227838 -0.38609,0.227838 -0.38609,0.707497 0,0.359744 0.26176,0.563599 0.26175,0.197859 0.95541,0.341757 l 0.96195,0.197859 q 1.47237,0.299787 2.08751,0.911351 0.61512,0.611566 0.61512,1.738764 0,1.480946 -0.8638,2.20643 -0.85724,0.719488 -2.63064,0.719488 -0.83762,0 -1.68179,-0.161884 -0.83762,-0.161886 -1.68178,-0.47966 v -1.948613 q 0.84416,0.455675 1.62944,0.689509 0.78526,0.227838 1.51818,0.227838 0.73946,0 1.13209,-0.251821 0.39918,-0.25182 0.39918,-0.719488 0,-0.419701 -0.2683,-0.64754 -0.2683,-0.227837 -1.0732,-0.407709 l -0.87688,-0.197859 q -1.31533,-0.287795 -1.93045,-0.917347 -0.60858,-0.629553 -0.60858,-1.696793 0,-1.337049 0.8507,-2.056538 0.85071,-0.719488 2.43433,-0.719488 0.72638,0 1.49202,0.113919 0.76564,0.107918 1.58362,0.329766 z"
     style="font-style:normal;font-variant:normal;font-weight:bold;font-stretch:semi-condensed;font-size:11.1451px;font-family:'DejaVu Sans';-inkscape-font-specification:'DejaVu Sans, Bold Semi-Condensed';font-variant-ligatures:normal;font-variant-caps:normal;font-variant-numeric:normal;font-variant-east-asian:normal;stroke-width:1.15103"
     id="path1508" /><path
     d="m 164.71663,-78.366722 h 2.27072 v 8.951632 h -2.27072 z"
     style="font-style:normal;font-variant:normal;font-weight:bold;font-stretch:semi-condensed;font-size:11.1451px;font-family:'DejaVu Sans';-inkscape-font-specification:'DejaVu Sans, Bold Semi-Condensed';font-variant-ligatures:normal;font-variant-caps:normal;font-variant-numeric:normal;font-variant-east-asian:normal;stroke-width:1.15103"
     id="path1510" /><path
     d="m 168.15217,-78.366722 h 8.10136 v 1.744759 h -2.91205 v 7.206873 h -2.27072 v -7.206873 h -2.91859 z"
     style="font-style:normal;font-variant:normal;font-weight:bold;font-stretch:semi-condensed;font-size:11.1451px;font-family:'DejaVu Sans';-inkscape-font-specification:'DejaVu Sans, Bold Semi-Condensed';font-variant-ligatures:normal;font-variant-caps:normal;font-variant-numeric:normal;font-variant-east-asian:normal;stroke-width:1.15103"
     id="path1512" /><path
     d="m 177.42489,-78.366722 h 2.27072 v 8.951632 h -2.27072 z"
     style="font-style:normal;font-variant:normal;font-weight:bold;font-stretch:semi-condensed;font-size:11.1451px;font-family:'DejaVu Sans';-inkscape-font-specification:'DejaVu Sans, Bold Semi-Condensed';font-variant-ligatures:normal;font-variant-caps:normal;font-variant-numeric:normal;font-variant-east-asian:normal;stroke-width:1.15103"
     id="path1514" /><path
     d="m 181.90746,-78.366722 h 6.11853 v 1.744759 h -3.84781 v 1.666814 h 3.61878 v 1.744759 h -3.61878 v 2.050541 h 3.97869 v 1.744759 h -6.24941 z"
     style="font-style:normal;font-variant:normal;font-weight:bold;font-stretch:semi-condensed;font-size:11.1451px;font-family:'DejaVu Sans';-inkscape-font-specification:'DejaVu Sans, Bold Semi-Condensed';font-variant-ligatures:normal;font-variant-caps:normal;font-variant-numeric:normal;font-variant-east-asian:normal;stroke-width:1.15103"
     id="path1516" /><path
     d="m 196.26477,-78.084922 v 1.894652 q -0.71984,-0.329766 -1.41349,-0.497646 -0.68711,-0.167881 -1.30224,-0.167881 -0.81144,0 -1.20408,0.227838 -0.38608,0.227838 -0.38608,0.707497 0,0.359744 0.26175,0.563599 0.26176,0.197859 0.95541,0.341757 l 0.96195,0.197859 q 1.47238,0.299787 2.0875,0.911351 0.61514,0.611566 0.61514,1.738764 0,1.480946 -0.8638,2.20643 -0.85726,0.719488 -2.63065,0.719488 -0.83762,0 -1.68178,-0.161884 -0.83762,-0.161886 -1.68178,-0.47966 v -1.948613 q 0.84416,0.455675 1.62942,0.689509 0.78528,0.227838 1.51819,0.227838 0.73946,0 1.1321,-0.251821 0.39918,-0.25182 0.39918,-0.719488 0,-0.419701 -0.2683,-0.64754 -0.2683,-0.227837 -1.0732,-0.407709 l -0.87689,-0.197859 q -1.31532,-0.287795 -1.93044,-0.917347 -0.60858,-0.629553 -0.60858,-1.696793 0,-1.337049 0.8507,-2.056538 0.8507,-0.719488 2.43433,-0.719488 0.72637,0 1.492,0.113919 0.76564,0.107918 1.58364,0.329766 z"
     style="font-style:normal;font-variant:normal;font-weight:bold;font-stretch:semi-condensed;font-size:11.1451px;font-family:'DejaVu Sans';-inkscape-font-specification:'DejaVu Sans, Bold Semi-Condensed';font-variant-ligatures:normal;font-variant-caps:normal;font-variant-numeric:normal;font-variant-east-asian:normal;stroke-width:1.15103"
     id="path1518" /></g>
</g></g></svg>
