<?xml version="1.0" encoding="UTF-8" standalone="no"?>
<svg
   xmlns:dc="http://purl.org/dc/elements/1.1/"
   xmlns:cc="http://creativecommons.org/ns#"
   xmlns:rdf="http://www.w3.org/1999/02/22-rdf-syntax-ns#"
   xmlns:svg="http://www.w3.org/2000/svg"
   xmlns="http://www.w3.org/2000/svg"
   viewBox="0 0 666.66669 666.66669"
   height="666.66669"
   width="666.66669"
   xml:space="preserve"
   id="svg2"
   version="1.1"><metadata
     id="metadata8"><rdf:RDF><cc:Work
         rdf:about=""><dc:format>image/svg+xml</dc:format><dc:type
           rdf:resource="http://purl.org/dc/dcmitype/StillImage" /></cc:Work></rdf:RDF></metadata><defs
     id="defs6"><clipPath
       id="clipPath28"
       clipPathUnits="userSpaceOnUse"><path
         id="path26"
         d="M 0,500 H 500 V 0 H 0 Z" /></clipPath><clipPath
       id="clipPath68"
       clipPathUnits="userSpaceOnUse"><path
         id="path66"
         d="M 0,500 H 500 V 0 H 0 Z" /></clipPath><clipPath
       id="clipPath108"
       clipPathUnits="userSpaceOnUse"><path
         id="path106"
         d="M 0,500 H 500 V 0 H 0 Z" /></clipPath><clipPath
       id="clipPath148"
       clipPathUnits="userSpaceOnUse"><path
         id="path146"
         d="M 0,500 H 500 V 0 H 0 Z" /></clipPath><clipPath
       id="clipPath188"
       clipPathUnits="userSpaceOnUse"><path
         id="path186"
         d="M 0,500 H 500 V 0 H 0 Z" /></clipPath></defs><g
     transform="matrix(1.3333333,0,0,-1.3333333,0,666.66667)"
     id="g10"><path
       id="path12"
       style="fill:#ffffff;fill-opacity:1;fill-rule:nonzero;stroke:none"
       d="M 0,0 H 500 V 500 H 0 Z" /><text
       id="text16"
       style="font-variant:normal;font-weight:900;font-stretch:normal;font-size:40.91260147px;font-family:'Raleway Black';-inkscape-font-specification:Raleway-Black;writing-mode:lr-tb;fill:#424242;fill-opacity:1;fill-rule:nonzero;stroke:none"
       transform="matrix(1,0,0,-1,126.9365,441.7725)"><tspan
         id="tspan14"
         y="0"
         x="0 28.229694 58.341366 82.970757">BOAT</tspan></text>
<text
       id="text20"
       style="font-variant:normal;font-weight:300;font-stretch:normal;font-size:40.91260147px;font-family:'Raleway Light';-inkscape-font-specification:Raleway-Light;writing-mode:lr-tb;fill:#424242;fill-opacity:1;fill-rule:nonzero;stroke:none"
       transform="matrix(1,0,0,-1,235.43672,441.7725)"><tspan
         id="tspan18"
         y="0"
         x="0 21.929153 52.73634 82.070679 112.87786">LOGOS</tspan></text>
<g
       id="g22"><g
         clip-path="url(#clipPath28)"
         id="g24"><g
           transform="translate(250.3271,124.7549)"
           id="g30"><path
             id="path32"
             style="fill:#1380c5;fill-opacity:1;fill-rule:nonzero;stroke:none"
             d="M 0,0 C -0.236,0 -0.237,-0.367 0,-0.367 0.237,-0.367 0.237,0 0,0" /></g><g
           transform="translate(181.2476,291.6636)"
           id="g34"><path
             id="path36"
             style="fill:#1380c5;fill-opacity:1;fill-rule:nonzero;stroke:none"
             d="m 0,0 c -9.019,-1.699 -19.217,6.623 -26.338,11.156 -7.671,4.882 -15.157,10.607 -23.656,13.992 -6.916,2.755 -15.243,3.496 -21.978,-0.223 -5.639,-3.114 -9.305,-9.196 -8.234,-15.65 0.158,-0.955 1.545,-0.648 1.603,0.217 0.62,9.342 9.626,14.227 18.239,12.915 8.053,-1.226 14.809,-6.105 21.276,-10.717 6.7,-4.777 13.63,-9.362 20.778,-13.445 C -11.908,-5.413 -5.256,-7.608 1.687,-4 4.009,-2.792 2.313,0.436 0,0" /></g><g
           transform="translate(174.1162,279.2549)"
           id="g38"><path
             id="path40"
             style="fill:#1380c5;fill-opacity:1;fill-rule:nonzero;stroke:none"
             d="m 0,0 c -5.973,3.058 -12.148,5.646 -17.986,8.998 -6.156,3.535 -12.089,7.459 -18.333,10.841 -5.623,3.046 -13.306,6.855 -19.854,5.816 -5.243,-0.832 -9.156,-5.582 -7.679,-10.886 0.325,-1.166 2.11,-0.937 2.113,0.285 0.014,5.766 6.839,5.36 10.465,4.217 2.622,-0.827 5.111,-2.189 7.51,-3.52 4.752,-2.636 9.348,-5.515 13.916,-8.455 C -21.27,1.774 -11.859,-4.892 -1.198,-4.423 1.017,-4.326 2.209,-1.131 0,0" /></g><g
           transform="translate(184.5156,302.9463)"
           id="g42"><path
             id="path44"
             style="fill:#003154;fill-opacity:1;fill-rule:nonzero;stroke:none"
             d="m 0,0 c -6.731,5.593 -14.393,9.844 -21.394,15.104 -1.769,1.329 -3.508,2.697 -5.22,4.099 -0.083,1.215 -0.229,2.434 -0.305,3.636 -0.193,3.085 -0.29,6.177 -0.285,9.268 0.01,5.946 0.374,11.892 1.106,17.792 1.535,12.366 4.661,24.45 8.536,36.275 0.321,0.983 -1.247,1.675 -1.695,0.714 -5.258,-11.26 -8.521,-23.261 -10.146,-35.574 -0.84,-6.367 -1.28,-12.783 -1.288,-19.207 -0.003,-2.807 -0.206,-6.15 -0.045,-9.402 -3.891,3.41 -7.625,6.998 -11.179,10.754 -3.433,3.63 -9.591,14.561 -15.445,8.986 -5.772,-5.498 -10.867,-14.599 -12.286,-22.419 -0.257,-1.417 1.466,-2.166 2.305,-0.972 2.184,3.111 4.057,6.425 6.141,9.607 1.232,1.881 2.49,3.741 3.88,5.511 0.468,0.596 2.784,4.109 3.482,4.082 0.653,-0.025 2.397,-2.775 2.885,-3.354 1.162,-1.375 2.346,-2.731 3.552,-4.067 2.713,-3.006 5.536,-5.912 8.462,-8.71 C -28.509,12.145 -15.896,1.041 -1.913,-3.286 -0.114,-3.842 1.535,-1.276 0,0" /></g><g
           transform="translate(191.6187,361.4282)"
           id="g46"><path
             id="path48"
             style="fill:#febd29;fill-opacity:1;fill-rule:nonzero;stroke:none"
             d="m 0,0 c -2.615,6.506 -5.266,13.001 -7.646,19.599 -2.371,6.574 -4.151,13.336 -6.465,19.918 -1.422,4.042 -5.538,-4.764 -5.924,-5.745 -1.411,-3.595 -2.234,-7.384 -3.237,-11.103 -1.773,-6.569 -2.896,-13.296 -3.865,-20.024 -1.813,-12.585 -3.905,-27.257 -1.627,-39.887 -0.233,1.292 7.464,3.688 8.556,3.875 3.188,0.546 6.584,0.042 9.638,-0.953 7.309,-2.382 13.694,-7.018 21.296,-8.63 0.236,-0.05 0.517,-0.086 0.691,0.081 0.148,0.141 0.158,0.37 0.157,0.575 -0.004,2.368 0.303,4.825 -0.016,7.149 C 9.898,-22.847 4.584,-11.408 0,0" /></g></g></g><text
       id="text52"
       style="font-variant:normal;font-weight:900;font-stretch:normal;font-size:21.21389961px;font-family:'Raleway Black';-inkscape-font-specification:Raleway-Black;writing-mode:lr-tb;fill:#000000;fill-opacity:1;fill-rule:nonzero;stroke:none"
       transform="matrix(1,0,0,-1,94.6948,256.333)"><tspan
         id="tspan50"
         y="0"
         x="0 14.637591 30.251022 43.02179">BOAT</tspan></text>
<text
       id="text56"
       style="font-variant:normal;font-weight:300;font-stretch:normal;font-size:21.21389961px;font-family:'Raleway Light';-inkscape-font-specification:Raleway-Light;writing-mode:lr-tb;fill:#000000;fill-opacity:1;fill-rule:nonzero;stroke:none"
       transform="matrix(1,0,0,-1,150.95406,256.333)"><tspan
         id="tspan54"
         y="0"
         x="0 11.37065 27.344717 42.555084">LOGO</tspan></text>
<text
       id="text60"
       style="font-variant:normal;font-weight:900;font-stretch:normal;font-size:8.04139996px;font-family:'Raleway Black';-inkscape-font-specification:Raleway-Black;writing-mode:lr-tb;fill:#000000;fill-opacity:1;fill-rule:nonzero;stroke:none"
       transform="matrix(1,0,0,-1,108.4805,245.9131)"><tspan
         id="tspan58"
         y="0"
         x="0 7.8484063 17.216637 25.861143 33.878418 43.962334 48.988209 54.753891 62.980244 71.158348 80.34967">LOREM IPSUM</tspan></text>
<g
       id="g62"><g
         clip-path="url(#clipPath68)"
         id="g64"><g
           transform="translate(390.9492,293.3223)"
           id="g70"><path
             id="path72"
             style="fill:#1380c5;fill-opacity:1;fill-rule:nonzero;stroke:none"
             d="m 0,0 c -9.075,-7.937 -20.104,-5.656 -29.911,-3.309 -10.686,2.558 -20.456,6.878 -30.678,10.571 -8.752,3.161 -18.545,4.965 -27.957,0.522 -7.182,-3.39 -12.717,-10.771 -12.228,-18.783 0.056,-0.923 1.419,-0.804 1.421,0.143 0.039,10.955 10.889,18.248 20.534,18.218 10.867,-0.034 19.859,-5.442 29.421,-9.289 9.131,-3.674 18.862,-6.883 28.777,-8.318 8.021,-1.161 17.848,-0.125 22.6,8.415 C 2.681,-0.569 1.195,1.046 0,0" /></g><g
           transform="translate(368.1318,294.1772)"
           id="g74"><path
             id="path76"
             style="fill:#003154;fill-opacity:1;fill-rule:nonzero;stroke:none"
             d="m 0,0 c -8.63,2.671 -17.217,5.456 -25.76,8.353 -7.493,2.541 -15.168,5.899 -23.136,6.998 -5.874,0.809 -12.369,-0.074 -17.786,-3.538 -0.056,4.176 1.264,8.981 2.491,13.181 0.215,0.737 0.496,1.548 1.144,1.959 0.464,0.293 1.017,0.314 1.538,0.32 C -38.153,27.589 -16.965,13.633 0,0" /></g><g
           transform="translate(357.4258,368.4253)"
           id="g78"><path
             id="path80"
             style="fill:#febd29;fill-opacity:1;fill-rule:nonzero;stroke:none"
             d="m 0,0 c -5.63,-8.299 -14.675,-25.564 -20.406,-36.807 -6.308,1.109 -13.841,0.867 -22.716,-1.873 -0.414,-0.131 -0.754,0.272 -0.559,0.678 3.76,7.919 28.554,59.81 35.509,65.663 C -4.707,30.577 -2.103,16.857 0,0" /></g><g
           transform="translate(336.5488,321.2134)"
           id="g82"><path
             id="path84"
             style="fill:#febd29;fill-opacity:1;fill-rule:nonzero;stroke:none"
             d="M 0,0 C -0.312,-0.089 -0.554,0.216 -0.403,0.517 2.51,6.351 21.728,44.593 26.979,48.833 32.668,53.424 34.081,-0.378 36.175,-9.625 38.25,-18.792 29.083,8.308 0,0" /></g><g
           transform="translate(344.1055,284.3711)"
           id="g86"><path
             id="path88"
             style="fill:#1780c4;fill-opacity:1;fill-rule:nonzero;stroke:none"
             d="m 0,0 c -7.374,5.547 -15.104,10.22 -24.571,11.65 -4.31,0.651 -9.338,0.88 -13.561,-1.313 -3.788,-1.967 -7.245,-6.616 -5.486,-10.763 1.096,-2.583 4.677,-2.539 5.674,0.571 1.285,4.005 3.293,5.767 7.383,6.327 3.549,0.486 7.066,0.191 10.453,-0.515 6.762,-1.409 13.252,-4.192 19.609,-6.67 C -0.107,-0.865 0.386,-0.289 0,0" /></g></g></g><text
       id="text92"
       style="font-variant:normal;font-weight:900;font-stretch:normal;font-size:21.21389961px;font-family:'Raleway Black';-inkscape-font-specification:Raleway-Black;writing-mode:lr-tb;fill:#000000;fill-opacity:1;fill-rule:nonzero;stroke:none"
       transform="matrix(1,0,0,-1,284.2334,256.333)"><tspan
         id="tspan90"
         y="0"
         x="0 14.637591 30.251022 43.02179">BOAT</tspan></text>
<text
       id="text96"
       style="font-variant:normal;font-weight:300;font-stretch:normal;font-size:21.21389961px;font-family:'Raleway Light';-inkscape-font-specification:Raleway-Light;writing-mode:lr-tb;fill:#000000;fill-opacity:1;fill-rule:nonzero;stroke:none"
       transform="matrix(1,0,0,-1,340.49266,256.333)"><tspan
         id="tspan94"
         y="0"
         x="0 11.37065 27.344717 42.555084">LOGO</tspan></text>
<text
       id="text100"
       style="font-variant:normal;font-weight:900;font-stretch:normal;font-size:8.04139996px;font-family:'Raleway Black';-inkscape-font-specification:Raleway-Black;writing-mode:lr-tb;fill:#000000;fill-opacity:1;fill-rule:nonzero;stroke:none"
       transform="matrix(1,0,0,-1,298.0195,245.9131)"><tspan
         id="tspan98"
         y="0"
         x="0 7.8484063 17.216637 25.861143 33.878418 43.962334 48.988209 54.753891 62.980244 71.158348 80.34967">LOREM IPSUM</tspan></text>
<g
       id="g102"><g
         clip-path="url(#clipPath108)"
         id="g104"><g
           transform="translate(161.0337,200.1182)"
           id="g110"><path
             id="path112"
             style="fill:#febd29;fill-opacity:1;fill-rule:nonzero;stroke:none"
             d="m 0,0 c 0,0 7.705,-24.039 -9.759,-60.758 0,0 37.423,9.316 54.774,3.163 0,0 -10.035,46.67 -45.015,57.595" /></g><g
           transform="translate(157.2051,211.248)"
           id="g114"><path
             id="path116"
             style="fill:#febd29;fill-opacity:1;fill-rule:nonzero;stroke:none"
             d="m 0,0 c 0,0 -23.363,-48.003 -17.346,-76.43 0,0 -23.696,2.724 -34.346,-4.044 0,0 19.327,58.097 51.692,80.474" /></g><g
           transform="translate(180.3569,137.0811)"
           id="g118"><path
             id="path120"
             style="fill:#003154;fill-opacity:1;fill-rule:nonzero;stroke:none"
             d="m 0,0 c -6.183,1.61 -12.851,0.719 -19.152,0.354 -3.931,-0.226 -7.822,-0.621 -11.693,-1.191 -0.03,3.075 -0.173,6.156 -0.091,9.189 0.191,7.046 0.749,14.045 1.665,21.054 1.829,13.991 5.015,27.589 10.226,41.035 0.289,0.746 -1.06,1.283 -1.406,0.518 -5.957,-13.21 -10.783,-27.049 -13.484,-40.947 -1.343,-6.916 -2.196,-13.95 -2.548,-20.945 -0.18,-3.575 -0.417,-7.265 -0.244,-10.917 -0.505,-0.098 -1.01,-0.195 -1.516,-0.301 -1.423,-0.297 -1.052,-2.451 0.336,-2.477 6.526,-0.128 13.015,0.069 19.538,0.404 C -12.287,-3.911 -5.889,-4.328 0,-2.576 1.239,-2.207 1.302,-0.34 0,0" /></g><g
           transform="translate(213.7651,130.1152)"
           id="g122"><path
             id="path124"
             style="fill:#1380c5;fill-opacity:1;fill-rule:nonzero;stroke:none"
             d="m 0,0 c -3.596,-8.376 -15.875,-9.048 -23.595,-9.686 -11.168,-0.923 -22.314,0.178 -33.374,1.722 -10.028,1.401 -20.005,3.588 -30.081,4.584 -8.882,0.878 -17.98,0.462 -25.656,-4.541 -1.321,-0.86 -0.168,-2.84 1.235,-2.113 9.982,5.167 21.459,2.605 31.945,0.659 11.036,-2.048 22.035,-4.293 33.215,-5.421 10.702,-1.08 22.197,-1.591 32.727,1.026 C -6.42,-11.989 0.218,-8.467 2.373,-1 2.769,0.372 0.592,1.38 0,0" /></g><g
           transform="translate(213.7651,120.6846)"
           id="g126"><path
             id="path128"
             style="fill:#1380c5;fill-opacity:1;fill-rule:nonzero;stroke:none"
             d="m 0,0 c -3.596,-8.376 -15.875,-9.048 -23.595,-9.686 -11.168,-0.923 -22.314,0.178 -33.374,1.722 -10.028,1.401 -20.005,3.588 -30.081,4.584 -8.882,0.878 -17.98,0.462 -25.656,-4.541 -1.321,-0.86 -0.168,-2.84 1.235,-2.113 9.982,5.167 21.459,2.605 31.945,0.659 11.036,-2.048 22.035,-4.293 33.215,-5.421 10.702,-1.08 22.197,-1.591 32.727,1.026 C -6.42,-11.989 0.218,-8.467 2.373,-1 2.769,0.372 0.592,1.38 0,0" /></g></g></g><text
       id="text132"
       style="font-variant:normal;font-weight:900;font-stretch:normal;font-size:21.21389961px;font-family:'Raleway Black';-inkscape-font-specification:Raleway-Black;writing-mode:lr-tb;fill:#000000;fill-opacity:1;fill-rule:nonzero;stroke:none"
       transform="matrix(1,0,0,-1,100.938,79.418)"><tspan
         id="tspan130"
         y="0"
         x="0 14.637591 30.251022 43.02179">BOAT</tspan></text>
<text
       id="text136"
       style="font-variant:normal;font-weight:300;font-stretch:normal;font-size:21.21389961px;font-family:'Raleway Light';-inkscape-font-specification:Raleway-Light;writing-mode:lr-tb;fill:#000000;fill-opacity:1;fill-rule:nonzero;stroke:none"
       transform="matrix(1,0,0,-1,157.19726,79.418)"><tspan
         id="tspan134"
         y="0"
         x="0 11.37065 27.344717 42.555084">LOGO</tspan></text>
<text
       id="text140"
       style="font-variant:normal;font-weight:900;font-stretch:normal;font-size:8.04139996px;font-family:'Raleway Black';-inkscape-font-specification:Raleway-Black;writing-mode:lr-tb;fill:#000000;fill-opacity:1;fill-rule:nonzero;stroke:none"
       transform="matrix(1,0,0,-1,114.7236,68.999)"><tspan
         id="tspan138"
         y="0"
         x="0 7.8484063 17.216637 25.861143 33.878418 43.962334 48.988209 54.753891 62.980244 71.158348 80.34967">LOREM IPSUM</tspan></text>
<g
       id="g142"><g
         clip-path="url(#clipPath148)"
         id="g144"><g
           transform="translate(330.5752,206.8184)"
           id="g150"><path
             id="path152"
             style="fill:#febd29;fill-opacity:1;fill-rule:nonzero;stroke:none"
             d="m 0,0 c 0,0 19.646,-28.418 8.771,-69.467 0,0 41.4,5.964 37.891,34.734 C 43.153,-5.964 0,0 0,0" /></g><g
           transform="translate(330.5752,203.3105)"
           id="g154"><path
             id="path156"
             style="fill:#febd29;fill-opacity:1;fill-rule:nonzero;stroke:none"
             d="m 0,0 c 0,0 14.384,-25.612 4.21,-65.959 0,0 -8.069,-3.859 -19.998,-4.562 0,0 19.296,32.279 15.788,70.521" /></g><g
           transform="translate(344.7939,134.833)"
           id="g158"><path
             id="path160"
             style="fill:#0f3253;fill-opacity:1;fill-rule:nonzero;stroke:none"
             d="m 0,0 c -10.879,-2.87 -22.248,-5.021 -33.516,-4.69 l -6.955,-6.169 c 3.309,-0.138 13.661,-1.593 16.716,-1.703 5.113,-0.183 10.246,-0.044 15.33,0.56 7.769,0.923 15.483,2.919 22.455,6.526 8.363,4.327 15.689,11.071 19.808,19.625 0.549,1.141 0.934,3.598 1.763,4.508 C 26.456,8.613 12.838,3.388 0,0" /></g><g
           transform="translate(380.4834,142.4834)"
           id="g162"><path
             id="path164"
             style="fill:#1380c5;fill-opacity:1;fill-rule:nonzero;stroke:none"
             d="m 0,0 c -8.743,-9.541 -19.432,-17.353 -32.057,-20.721 -7.225,-1.927 -14.72,-2.162 -22.158,-2.03 -7.975,0.142 -15.91,0.262 -23.889,0.105 -1.159,-0.022 -1.113,-1.655 0,-1.768 15.882,-1.609 32.898,-3.843 48.561,0.339 12.908,3.445 24.732,10.874 32.272,21.969 C 3.838,-0.476 1.329,1.45 0,0" /></g><g
           transform="translate(380.8037,132.3369)"
           id="g166"><path
             id="path168"
             style="fill:#1380c5;fill-opacity:1;fill-rule:nonzero;stroke:none"
             d="m 0,0 c -9.788,-9.281 -21.473,-16.623 -34.847,-19.203 -7.654,-1.477 -15.464,-1.172 -23.188,-0.492 -8.283,0.73 -16.525,1.435 -24.832,1.856 -1.207,0.061 -1.279,-1.641 -0.129,-1.84 16.396,-2.834 33.926,-6.399 50.517,-3.196 13.674,2.64 26.513,9.5 35.164,20.484 C 3.957,-0.775 1.488,1.411 0,0" /></g></g></g><text
       id="text172"
       style="font-variant:normal;font-weight:900;font-stretch:normal;font-size:21.21389961px;font-family:'Raleway Black';-inkscape-font-specification:Raleway-Black;writing-mode:lr-tb;fill:#000000;fill-opacity:1;fill-rule:nonzero;stroke:none"
       transform="matrix(1,0,0,-1,283.0195,79.418)"><tspan
         id="tspan170"
         y="0"
         x="0 14.637591 30.251022 43.02179">BOAT</tspan></text>
<text
       id="text176"
       style="font-variant:normal;font-weight:300;font-stretch:normal;font-size:21.21389961px;font-family:'Raleway Light';-inkscape-font-specification:Raleway-Light;writing-mode:lr-tb;fill:#000000;fill-opacity:1;fill-rule:nonzero;stroke:none"
       transform="matrix(1,0,0,-1,339.27876,79.418)"><tspan
         id="tspan174"
         y="0"
         x="0 11.37065 27.344717 42.555084">LOGO</tspan></text>
<text
       id="text180"
       style="font-variant:normal;font-weight:900;font-stretch:normal;font-size:8.04139996px;font-family:'Raleway Black';-inkscape-font-specification:Raleway-Black;writing-mode:lr-tb;fill:#000000;fill-opacity:1;fill-rule:nonzero;stroke:none"
       transform="matrix(1,0,0,-1,296.8057,68.999)"><tspan
         id="tspan178"
         y="0"
         x="0 7.8484063 17.216637 25.861143 33.878418 43.962334 48.988209 54.753891 62.980244 71.158348 80.34967">LOREM IPSUM</tspan></text>
<g
       id="g182"><g
         clip-path="url(#clipPath188)"
         id="g184"><g
           transform="translate(169.6553,20.6523)"
           id="g190"><path
             id="path192"
             style="fill:#424242;fill-opacity:1;fill-rule:nonzero;stroke:none"
             d="m 0,0 c 0,-0.484 0.076,-0.896 0.226,-1.236 0.15,-0.341 0.357,-0.597 0.618,-0.769 0.262,-0.173 0.548,-0.26 0.858,-0.26 0.314,0 0.6,0.082 0.861,0.246 0.259,0.164 0.466,0.415 0.621,0.752 C 3.339,-0.929 3.416,-0.505 3.416,0 3.416,0.476 3.339,0.885 3.184,1.229 3.029,1.57 2.82,1.832 2.556,2.014 2.292,2.193 2.002,2.284 1.688,2.284 1.361,2.284 1.069,2.19 0.812,2.006 0.554,1.821 0.354,1.555 0.213,1.208 0.071,0.86 0,0.458 0,0 m 3.515,-2.624 v 0.177 C 3.274,-2.722 3.038,-2.945 2.804,-3.117 2.571,-3.29 2.318,-3.422 2.045,-3.51 1.772,-3.601 1.475,-3.645 1.152,-3.645 c -0.428,0 -0.824,0.09 -1.188,0.271 -0.364,0.182 -0.679,0.44 -0.945,0.776 -0.267,0.336 -0.469,0.73 -0.606,1.184 -0.137,0.455 -0.206,0.945 -0.206,1.473 0,1.117 0.273,1.988 0.818,2.612 0.545,0.623 1.263,0.935 2.153,0.935 0.515,0 0.949,-0.088 1.302,-0.264 0.354,-0.177 0.698,-0.45 1.035,-0.816 v 2.638 c 0,0.366 0.072,0.643 0.219,0.83 0.145,0.189 0.354,0.281 0.624,0.281 0.271,0 0.479,-0.086 0.625,-0.257 C 5.13,5.845 5.203,5.592 5.203,5.255 V -2.624 C 5.203,-2.965 5.125,-3.22 4.967,-3.39 4.81,-3.56 4.607,-3.645 4.358,-3.645 c -0.244,0 -0.445,0.088 -0.605,0.265 -0.159,0.177 -0.238,0.429 -0.238,0.756" /></g><g
           transform="translate(177.5532,21.2148)"
           id="g194"><path
             id="path196"
             style="fill:#424242;fill-opacity:1;fill-rule:nonzero;stroke:none"
             d="M 0,0 H 3.24 C 3.197,0.611 3.031,1.068 2.746,1.371 2.459,1.675 2.083,1.826 1.617,1.826 1.172,1.826 0.806,1.673 0.521,1.365 0.235,1.058 0.062,0.603 0,0 M 3.495,-1.015 H 0 c 0.004,-0.405 0.086,-0.762 0.246,-1.072 0.159,-0.31 0.371,-0.544 0.634,-0.701 0.265,-0.157 0.556,-0.234 0.874,-0.234 0.214,0 0.409,0.024 0.586,0.074 0.177,0.051 0.348,0.128 0.514,0.236 0.166,0.107 0.318,0.221 0.458,0.344 0.139,0.122 0.32,0.288 0.542,0.498 0.092,0.078 0.224,0.117 0.394,0.117 0.183,0 0.331,-0.051 0.444,-0.151 0.114,-0.101 0.171,-0.242 0.171,-0.425 0,-0.162 -0.064,-0.35 -0.19,-0.567 C 4.546,-3.111 4.355,-3.318 4.1,-3.517 3.844,-3.716 3.525,-3.88 3.138,-4.011 2.752,-4.142 2.308,-4.207 1.806,-4.207 c -1.147,0 -2.039,0.327 -2.676,0.981 -0.637,0.655 -0.955,1.542 -0.955,2.664 0,0.528 0.078,1.018 0.235,1.468 0.157,0.452 0.386,0.839 0.687,1.162 0.301,0.324 0.672,0.571 1.113,0.744 0.44,0.171 0.929,0.257 1.466,0.257 0.698,0 1.296,-0.146 1.795,-0.441 C 3.971,2.334 4.346,1.953 4.594,1.486 4.842,1.02 4.967,0.543 4.967,0.06 4.967,-0.391 4.838,-0.681 4.582,-0.814 4.324,-0.947 3.962,-1.015 3.495,-1.015" /></g><g
           transform="translate(189.1885,19.3447)"
           id="g198"><path
             id="path200"
             style="fill:#424242;fill-opacity:1;fill-rule:nonzero;stroke:none"
             d="m 0,0 c 0,-0.493 -0.12,-0.916 -0.36,-1.268 -0.24,-0.35 -0.594,-0.617 -1.064,-0.798 -0.468,-0.181 -1.039,-0.271 -1.711,-0.271 -0.641,0 -1.191,0.098 -1.649,0.294 -0.458,0.196 -0.796,0.442 -1.014,0.736 -0.218,0.295 -0.327,0.59 -0.327,0.887 0,0.197 0.069,0.364 0.209,0.504 0.14,0.139 0.316,0.209 0.531,0.209 0.187,0 0.33,-0.046 0.431,-0.137 0.1,-0.092 0.197,-0.221 0.287,-0.385 0.184,-0.321 0.403,-0.556 0.659,-0.714 0.255,-0.158 0.602,-0.237 1.044,-0.237 0.358,0 0.651,0.081 0.88,0.24 0.229,0.16 0.343,0.341 0.343,0.546 0,0.315 -0.118,0.543 -0.357,0.687 -0.237,0.144 -0.629,0.282 -1.174,0.413 -0.615,0.152 -1.116,0.314 -1.502,0.481 -0.387,0.167 -0.695,0.389 -0.926,0.664 -0.231,0.275 -0.347,0.613 -0.347,1.014 0,0.358 0.107,0.697 0.32,1.015 0.215,0.317 0.53,0.572 0.947,0.762 0.416,0.19 0.919,0.285 1.508,0.285 0.462,0 0.878,-0.048 1.246,-0.145 C -1.657,4.687 -1.349,4.558 -1.103,4.396 -0.856,4.235 -0.668,4.057 -0.54,3.86 -0.412,3.664 -0.348,3.473 -0.348,3.284 -0.348,3.079 -0.416,2.911 -0.553,2.78 -0.69,2.65 -0.885,2.583 -1.139,2.583 c -0.183,0 -0.339,0.053 -0.468,0.158 -0.128,0.105 -0.275,0.262 -0.441,0.471 -0.136,0.174 -0.294,0.314 -0.478,0.419 -0.183,0.105 -0.432,0.157 -0.746,0.157 -0.323,0 -0.591,-0.068 -0.805,-0.207 -0.214,-0.137 -0.32,-0.308 -0.32,-0.513 0,-0.188 0.078,-0.341 0.234,-0.461 0.158,-0.121 0.369,-0.22 0.636,-0.298 C -3.261,2.23 -2.895,2.136 -2.428,2.021 -1.874,1.886 -1.422,1.725 -1.07,1.537 -0.719,1.35 -0.453,1.128 -0.271,0.872 -0.09,0.617 0,0.327 0,0" /></g><g
           transform="translate(191.8975,23.2568)"
           id="g202"><path
             id="path204"
             style="fill:#424242;fill-opacity:1;fill-rule:nonzero;stroke:none"
             d="m 0,0 v -5.163 c 0,-0.358 -0.085,-0.629 -0.256,-0.812 -0.17,-0.183 -0.386,-0.274 -0.647,-0.274 -0.263,0 -0.475,0.093 -0.639,0.281 -0.164,0.188 -0.245,0.456 -0.245,0.805 v 5.111 c 0,0.353 0.081,0.619 0.245,0.798 0.164,0.18 0.376,0.269 0.639,0.269 0.261,0 0.477,-0.089 0.647,-0.269 C -0.085,0.567 0,0.318 0,0 m -0.884,1.845 c -0.249,0 -0.461,0.077 -0.638,0.229 -0.177,0.153 -0.265,0.368 -0.265,0.649 0,0.254 0.091,0.461 0.271,0.625 0.182,0.164 0.392,0.246 0.632,0.246 0.231,0 0.436,-0.074 0.615,-0.224 C -0.09,3.222 0,3.007 0,2.723 0,2.447 -0.088,2.232 -0.263,2.078 -0.437,1.923 -0.644,1.845 -0.884,1.845" /></g><g
           transform="translate(194.5469,20.6982)"
           id="g206"><path
             id="path208"
             style="fill:#424242;fill-opacity:1;fill-rule:nonzero;stroke:none"
             d="m 0,0 c 0,-0.724 0.158,-1.271 0.474,-1.643 0.317,-0.371 0.726,-0.556 1.228,-0.556 0.296,0 0.576,0.08 0.84,0.239 0.264,0.159 0.479,0.399 0.645,0.72 0.165,0.321 0.249,0.71 0.249,1.168 0,0.728 -0.161,1.296 -0.481,1.701 C 2.634,2.034 2.212,2.238 1.688,2.238 1.177,2.238 0.769,2.044 0.461,1.655 0.153,1.268 0,0.715 0,0 m 5.177,2.265 v -5.19 C 5.177,-3.519 5.113,-4.029 4.986,-4.457 4.86,-4.884 4.657,-5.237 4.377,-5.517 4.099,-5.796 3.733,-6.004 3.282,-6.138 2.831,-6.273 2.269,-6.341 1.597,-6.341 c -0.616,0 -1.165,0.086 -1.65,0.258 -0.484,0.173 -0.856,0.396 -1.119,0.668 -0.261,0.272 -0.393,0.553 -0.393,0.841 0,0.218 0.075,0.396 0.223,0.533 0.148,0.138 0.328,0.206 0.537,0.206 0.262,0 0.491,-0.115 0.687,-0.347 0.096,-0.117 0.195,-0.237 0.297,-0.356 0.103,-0.121 0.217,-0.224 0.341,-0.309 0.125,-0.084 0.274,-0.147 0.448,-0.189 0.175,-0.04 0.376,-0.062 0.602,-0.062 0.463,0 0.822,0.064 1.077,0.194 0.255,0.128 0.435,0.308 0.537,0.54 0.102,0.23 0.162,0.477 0.18,0.742 0.017,0.265 0.03,0.688 0.039,1.273 -0.276,-0.384 -0.592,-0.677 -0.953,-0.878 -0.359,-0.2 -0.788,-0.3 -1.285,-0.3 -0.598,0 -1.12,0.153 -1.568,0.458 -0.447,0.305 -0.791,0.733 -1.03,1.283 -0.24,0.55 -0.36,1.183 -0.36,1.903 0,0.537 0.073,1.023 0.219,1.453 0.147,0.433 0.355,0.797 0.625,1.094 0.271,0.297 0.582,0.52 0.936,0.671 0.353,0.149 0.741,0.226 1.165,0.226 0.505,0 0.944,-0.098 1.315,-0.291 0.37,-0.196 0.716,-0.499 1.034,-0.915 v 0.244 c 0,0.309 0.076,0.548 0.229,0.719 0.153,0.17 0.349,0.255 0.589,0.255 0.345,0 0.574,-0.112 0.687,-0.337 C 5.12,3.012 5.177,2.688 5.177,2.265" /></g><g
           transform="translate(202.563,23.2832)"
           id="g210"><path
             id="path212"
             style="fill:#424242;fill-opacity:1;fill-rule:nonzero;stroke:none"
             d="M 0,0 V -0.216 C 0.313,0.198 0.657,0.503 1.03,0.697 1.403,0.891 1.832,0.988 2.316,0.988 2.788,0.988 3.208,0.886 3.58,0.681 3.95,0.476 4.228,0.186 4.41,-0.189 4.528,-0.407 4.604,-0.644 4.639,-0.896 4.674,-1.149 4.692,-1.472 4.692,-1.865 V -5.189 C 4.692,-5.547 4.61,-5.818 4.446,-6.001 4.283,-6.185 4.07,-6.275 3.809,-6.275 c -0.267,0 -0.482,0.092 -0.648,0.281 -0.167,0.187 -0.249,0.456 -0.249,0.805 v 2.977 c 0,0.589 -0.082,1.04 -0.245,1.352 -0.165,0.311 -0.49,0.467 -0.98,0.467 C 1.37,-0.393 1.08,-0.487 0.818,-0.677 0.556,-0.867 0.364,-1.128 0.242,-1.459 0.155,-1.726 0.111,-2.223 0.111,-2.951 v -2.238 c 0,-0.362 -0.085,-0.634 -0.252,-0.816 -0.168,-0.181 -0.385,-0.27 -0.651,-0.27 -0.258,0 -0.469,0.092 -0.635,0.281 -0.166,0.187 -0.249,0.456 -0.249,0.805 v 5.163 c 0,0.34 0.074,0.594 0.223,0.763 0.148,0.167 0.351,0.251 0.608,0.251 0.158,0 0.3,-0.037 0.426,-0.111 C -0.293,0.802 -0.191,0.691 -0.115,0.544 -0.038,0.396 0,0.214 0,0" /></g><g
           transform="translate(209.9375,21.2148)"
           id="g214"><path
             id="path216"
             style="fill:#424242;fill-opacity:1;fill-rule:nonzero;stroke:none"
             d="M 0,0 H 3.239 C 3.196,0.611 3.031,1.068 2.745,1.371 2.459,1.675 2.083,1.826 1.616,1.826 1.171,1.826 0.805,1.673 0.52,1.365 0.234,1.058 0.061,0.603 0,0 M 3.494,-1.015 H 0 c 0.005,-0.405 0.086,-0.762 0.246,-1.072 0.159,-0.31 0.37,-0.544 0.634,-0.701 0.264,-0.157 0.555,-0.234 0.873,-0.234 0.214,0 0.41,0.024 0.587,0.074 0.176,0.051 0.347,0.128 0.514,0.236 0.165,0.107 0.317,0.221 0.458,0.344 0.139,0.122 0.32,0.288 0.542,0.498 0.092,0.078 0.223,0.117 0.393,0.117 0.183,0 0.332,-0.051 0.445,-0.151 0.114,-0.101 0.17,-0.242 0.17,-0.425 0,-0.162 -0.063,-0.35 -0.19,-0.567 C 4.545,-3.111 4.354,-3.318 4.099,-3.517 3.844,-3.716 3.524,-3.88 3.138,-4.011 2.751,-4.142 2.308,-4.207 1.806,-4.207 c -1.147,0 -2.039,0.327 -2.677,0.981 -0.636,0.655 -0.955,1.542 -0.955,2.664 0,0.528 0.078,1.018 0.235,1.468 0.157,0.452 0.387,0.839 0.688,1.162 0.3,0.324 0.672,0.571 1.112,0.744 0.44,0.171 0.93,0.257 1.466,0.257 0.698,0 1.296,-0.146 1.796,-0.441 C 3.971,2.334 4.345,1.953 4.594,1.486 4.842,1.02 4.967,0.543 4.967,0.06 4.967,-0.391 4.838,-0.681 4.581,-0.814 4.324,-0.947 3.961,-1.015 3.494,-1.015" /></g><g
           transform="translate(217.2007,20.6523)"
           id="g218"><path
             id="path220"
             style="fill:#424242;fill-opacity:1;fill-rule:nonzero;stroke:none"
             d="m 0,0 c 0,-0.484 0.075,-0.896 0.226,-1.236 0.15,-0.341 0.356,-0.597 0.618,-0.769 0.262,-0.173 0.548,-0.26 0.857,-0.26 0.315,0 0.601,0.082 0.861,0.246 0.259,0.164 0.467,0.415 0.621,0.752 C 3.338,-0.929 3.416,-0.505 3.416,0 3.416,0.476 3.338,0.885 3.183,1.229 3.029,1.57 2.819,1.832 2.555,2.014 2.291,2.193 2.002,2.284 1.688,2.284 1.361,2.284 1.068,2.19 0.811,2.006 0.554,1.821 0.354,1.555 0.212,1.208 0.07,0.86 0,0.458 0,0 m 3.514,-2.624 v 0.177 C 3.274,-2.722 3.037,-2.945 2.804,-3.117 2.57,-3.29 2.317,-3.422 2.045,-3.51 1.772,-3.601 1.475,-3.645 1.152,-3.645 c -0.428,0 -0.824,0.09 -1.188,0.271 -0.364,0.182 -0.68,0.44 -0.946,0.776 -0.266,0.336 -0.468,0.73 -0.605,1.184 -0.138,0.455 -0.206,0.945 -0.206,1.473 0,1.117 0.272,1.988 0.817,2.612 0.546,0.623 1.264,0.935 2.154,0.935 0.514,0 0.949,-0.088 1.302,-0.264 0.353,-0.177 0.698,-0.45 1.034,-0.816 v 2.638 c 0,0.366 0.073,0.643 0.219,0.83 0.146,0.189 0.355,0.281 0.625,0.281 0.27,0 0.479,-0.086 0.625,-0.257 0.146,-0.173 0.22,-0.426 0.22,-0.763 V -2.624 C 5.203,-2.965 5.124,-3.22 4.967,-3.39 4.81,-3.56 4.607,-3.645 4.358,-3.645 c -0.244,0 -0.446,0.088 -0.605,0.265 -0.16,0.177 -0.239,0.429 -0.239,0.756" /></g><g
           transform="translate(228.1016,20.5996)"
           id="g222"><path
             id="path224"
             style="fill:#424242;fill-opacity:1;fill-rule:nonzero;stroke:none"
             d="m 0,0 c 0,-0.711 0.163,-1.257 0.488,-1.638 0.324,-0.383 0.751,-0.574 1.279,-0.574 0.449,0 0.837,0.195 1.161,0.586 0.325,0.391 0.488,0.95 0.488,1.679 0,0.47 -0.067,0.878 -0.203,1.217 C 3.078,1.61 2.886,1.874 2.638,2.059 2.389,2.243 2.098,2.337 1.767,2.337 1.427,2.337 1.123,2.243 0.857,2.059 0.591,1.874 0.382,1.605 0.229,1.254 0.077,0.903 0,0.484 0,0 M -0.085,5.308 V 2.579 c 0.336,0.349 0.678,0.616 1.027,0.802 0.35,0.184 0.782,0.278 1.296,0.278 0.594,0 1.114,-0.141 1.561,-0.422 C 4.246,2.955 4.593,2.547 4.84,2.013 5.086,1.479 5.21,0.845 5.21,0.111 5.21,-0.43 5.141,-0.925 5.003,-1.377 4.866,-1.828 4.666,-2.22 4.405,-2.551 4.143,-2.883 3.825,-3.14 3.453,-3.321 3.079,-3.502 2.668,-3.592 2.219,-3.592 c -0.275,0 -0.534,0.032 -0.776,0.098 -0.242,0.065 -0.448,0.151 -0.618,0.259 -0.17,0.106 -0.315,0.216 -0.435,0.33 -0.12,0.113 -0.279,0.284 -0.475,0.51 v -0.176 c 0,-0.336 -0.081,-0.59 -0.242,-0.763 -0.161,-0.173 -0.366,-0.258 -0.615,-0.258 -0.253,0 -0.455,0.085 -0.605,0.258 -0.151,0.173 -0.226,0.427 -0.226,0.763 v 7.8 c 0,0.363 0.073,0.636 0.218,0.822 0.147,0.184 0.351,0.277 0.613,0.277 0.275,0 0.486,-0.088 0.634,-0.264 0.149,-0.177 0.223,-0.428 0.223,-0.756" /></g><g
           transform="translate(235.6274,16.7852)"
           id="g226"><path
             id="path228"
             style="fill:#424242;fill-opacity:1;fill-rule:nonzero;stroke:none"
             d="m 0,0 0.164,0.399 -2.2,5.537 c -0.134,0.317 -0.203,0.549 -0.203,0.693 0,0.153 0.04,0.295 0.118,0.425 0.079,0.132 0.187,0.236 0.324,0.314 0.138,0.079 0.28,0.118 0.429,0.118 0.257,0 0.451,-0.082 0.583,-0.245 0.131,-0.164 0.246,-0.397 0.346,-0.703 L 1.073,2.14 2.506,6.23 C 2.62,6.561 2.722,6.821 2.814,7.009 2.905,7.196 3.002,7.323 3.105,7.388 3.207,7.454 3.353,7.486 3.54,7.486 3.676,7.486 3.805,7.451 3.93,7.378 4.054,7.307 4.15,7.209 4.217,7.087 4.285,6.965 4.319,6.837 4.319,6.701 4.301,6.619 4.273,6.501 4.234,6.348 4.194,6.195 4.147,6.039 4.09,5.883 l -2.33,-6.1 C 1.559,-0.753 1.363,-1.173 1.171,-1.479 0.979,-1.784 0.725,-2.02 0.409,-2.183 c -0.317,-0.164 -0.743,-0.245 -1.28,-0.245 -0.523,0 -0.916,0.057 -1.177,0.169 -0.263,0.114 -0.393,0.322 -0.393,0.623 0,0.204 0.062,0.364 0.187,0.474 0.124,0.111 0.308,0.168 0.552,0.168 0.096,0 0.19,-0.014 0.282,-0.04 0.113,-0.026 0.211,-0.039 0.294,-0.039 0.205,0 0.367,0.03 0.484,0.092 0.118,0.06 0.224,0.166 0.318,0.317 C -0.23,-0.515 -0.122,-0.292 0,0" /></g><g
           transform="translate(261.5088,24.1172)"
           id="g230"><path
             id="path232"
             style="fill:#424242;fill-opacity:1;fill-rule:nonzero;stroke:none"
             d="m 0,0 h 0.426 v 0.536 c 0,0.562 0.068,1.004 0.211,1.335 0.14,0.33 0.383,0.569 0.721,0.72 0.338,0.149 0.801,0.224 1.39,0.224 1.047,0 1.565,-0.252 1.565,-0.767 C 4.313,1.884 4.259,1.742 4.148,1.624 4.042,1.508 3.912,1.448 3.764,1.448 3.695,1.448 3.572,1.461 3.4,1.489 3.237,1.512 3.089,1.527 2.971,1.527 2.648,1.527 2.443,1.431 2.348,1.241 2.26,1.052 2.213,0.78 2.213,0.425 V 0 H 2.648 C 3.332,0 3.67,-0.205 3.67,-0.617 3.67,-0.906 3.582,-1.093 3.399,-1.172 3.219,-1.25 2.969,-1.289 2.648,-1.289 H 2.213 v -4.734 c 0,-0.353 -0.083,-0.622 -0.255,-0.805 -0.166,-0.189 -0.381,-0.28 -0.648,-0.28 -0.253,0 -0.463,0.091 -0.633,0.28 -0.168,0.183 -0.251,0.452 -0.251,0.805 v 4.734 h -0.492 c -0.268,0 -0.47,0.058 -0.616,0.18 -0.144,0.118 -0.216,0.275 -0.216,0.467 C -0.898,-0.212 -0.599,0 0,0" /></g><g
           transform="translate(267.3574,19.5869)"
           id="g234"><path
             id="path236"
             style="fill:#424242;fill-opacity:1;fill-rule:nonzero;stroke:none"
             d="m 0,0 v -1.493 c 0,-0.361 -0.091,-0.634 -0.257,-0.814 -0.171,-0.182 -0.386,-0.271 -0.646,-0.271 -0.263,0 -0.474,0.09 -0.639,0.276 -0.163,0.182 -0.248,0.452 -0.248,0.809 v 4.976 c 0,0.803 0.289,1.205 0.868,1.205 0.299,0 0.513,-0.092 0.644,-0.281 0.131,-0.188 0.203,-0.465 0.218,-0.833 0.212,0.368 0.43,0.645 0.654,0.833 0.228,0.189 0.525,0.281 0.902,0.281 0.378,0 0.739,-0.092 1.092,-0.281 C 2.943,4.219 3.12,3.968 3.12,3.659 3.12,3.442 3.044,3.26 2.896,3.121 2.743,2.978 2.582,2.906 2.408,2.906 2.34,2.906 2.181,2.949 1.932,3.03 1.68,3.108 1.457,3.149 1.268,3.149 1.006,3.149 0.791,3.079 0.626,2.944 0.459,2.803 0.329,2.602 0.237,2.333 0.148,2.062 0.087,1.737 0.05,1.365 0.016,0.992 0,0.536 0,0" /></g><g
           transform="translate(272.0752,21.2188)"
           id="g238"><path
             id="path240"
             style="fill:#424242;fill-opacity:1;fill-rule:nonzero;stroke:none"
             d="M 0,0 H 3.239 C 3.196,0.609 3.034,1.067 2.747,1.368 2.459,1.673 2.087,1.823 1.617,1.823 1.172,1.823 0.806,1.672 0.521,1.362 0.234,1.055 0.06,0.602 0,0 M 3.496,-1.017 H 0 c 0.006,-0.405 0.086,-0.764 0.244,-1.074 0.162,-0.306 0.372,-0.541 0.638,-0.7 0.264,-0.156 0.554,-0.234 0.874,-0.234 0.214,0 0.408,0.023 0.585,0.077 0.175,0.048 0.347,0.128 0.513,0.234 0.167,0.106 0.317,0.22 0.458,0.345 0.139,0.12 0.322,0.287 0.544,0.495 0.093,0.078 0.224,0.12 0.392,0.12 0.185,0 0.331,-0.051 0.447,-0.152 0.115,-0.102 0.168,-0.242 0.168,-0.426 0,-0.162 -0.061,-0.35 -0.184,-0.564 C 4.549,-3.115 4.359,-3.321 4.103,-3.521 3.845,-3.718 3.524,-3.884 3.14,-4.013 2.754,-4.144 2.309,-4.21 1.809,-4.21 c -1.152,0 -2.042,0.326 -2.678,0.98 -0.637,0.656 -0.959,1.544 -0.959,2.666 0,0.527 0.081,1.018 0.239,1.47 0.155,0.453 0.385,0.838 0.689,1.162 0.299,0.325 0.668,0.572 1.111,0.744 0.439,0.171 0.928,0.257 1.466,0.257 0.696,0 1.296,-0.147 1.796,-0.445 C 3.972,2.333 4.351,1.951 4.595,1.484 4.844,1.016 4.969,0.542 4.969,0.056 4.969,-0.392 4.839,-0.682 4.582,-0.816 4.324,-0.95 3.963,-1.017 3.496,-1.017" /></g><g
           transform="translate(279.5088,21.2188)"
           id="g242"><path
             id="path244"
             style="fill:#424242;fill-opacity:1;fill-rule:nonzero;stroke:none"
             d="M 0,0 H 3.238 C 3.195,0.609 3.029,1.067 2.746,1.368 2.456,1.673 2.083,1.823 1.614,1.823 1.17,1.823 0.805,1.672 0.517,1.362 0.232,1.055 0.058,0.602 0,0 M 3.495,-1.017 H 0 c 0.004,-0.405 0.086,-0.764 0.244,-1.074 0.159,-0.306 0.371,-0.541 0.634,-0.7 0.265,-0.156 0.556,-0.234 0.876,-0.234 0.213,0 0.409,0.023 0.583,0.077 0.178,0.048 0.348,0.128 0.517,0.234 0.167,0.106 0.316,0.22 0.457,0.345 0.137,0.12 0.319,0.287 0.543,0.495 0.092,0.078 0.224,0.12 0.391,0.12 0.186,0 0.333,-0.051 0.448,-0.152 0.115,-0.102 0.166,-0.242 0.166,-0.426 0,-0.162 -0.06,-0.35 -0.188,-0.564 C 4.549,-3.115 4.357,-3.321 4.099,-3.521 3.844,-3.718 3.52,-3.884 3.137,-4.013 2.753,-4.144 2.305,-4.21 1.804,-4.21 c -1.149,0 -2.038,0.326 -2.678,0.98 -0.636,0.656 -0.957,1.544 -0.957,2.666 0,0.527 0.08,1.018 0.24,1.47 0.156,0.453 0.385,0.838 0.687,1.162 0.3,0.325 0.67,0.572 1.111,0.744 0.439,0.171 0.931,0.257 1.468,0.257 0.694,0 1.293,-0.147 1.8,-0.445 C 3.971,2.333 4.347,1.951 4.592,1.484 4.84,1.016 4.968,0.542 4.968,0.056 4.968,-0.392 4.836,-0.682 4.58,-0.816 4.322,-0.95 3.961,-1.017 3.495,-1.017" /></g><g
           transform="translate(290.4199,20.6738)"
           id="g246"><path
             id="path248"
             style="fill:#424242;fill-opacity:1;fill-rule:nonzero;stroke:none"
             d="m 0,0 c 0,0.472 -0.073,0.878 -0.217,1.215 -0.143,0.339 -0.344,0.597 -0.596,0.777 -0.253,0.181 -0.54,0.273 -0.849,0.273 -0.492,0 -0.908,-0.196 -1.246,-0.581 -0.34,-0.391 -0.51,-0.962 -0.51,-1.718 0,-0.707 0.168,-1.263 0.507,-1.658 0.336,-0.395 0.748,-0.591 1.249,-0.591 0.295,0 0.571,0.086 0.825,0.256 0.255,0.174 0.458,0.431 0.608,0.776 C -0.076,-0.905 0,-0.487 0,0 M -3.503,2.596 V 2.382 c 0.335,0.414 0.686,0.718 1.051,0.913 0.357,0.195 0.77,0.294 1.227,0.294 0.548,0 1.058,-0.144 1.521,-0.426 C 0.759,2.878 1.122,2.464 1.392,1.919 1.659,1.371 1.795,0.727 1.795,-0.02 c 0,-0.548 -0.077,-1.055 -0.232,-1.517 -0.154,-0.46 -0.37,-0.845 -0.639,-1.157 -0.272,-0.31 -0.59,-0.552 -0.958,-0.721 -0.373,-0.166 -0.766,-0.25 -1.191,-0.25 -0.508,0 -0.939,0.102 -1.285,0.309 -0.346,0.201 -0.677,0.504 -0.993,0.899 V -5.14 c 0,-0.782 -0.286,-1.177 -0.857,-1.177 -0.337,0 -0.557,0.1 -0.669,0.302 -0.105,0.206 -0.161,0.499 -0.161,0.89 v 7.712 c 0,0.342 0.073,0.593 0.22,0.764 0.149,0.165 0.353,0.251 0.61,0.251 0.255,0 0.459,-0.086 0.617,-0.258 0.162,-0.175 0.24,-0.421 0.24,-0.748" /></g><g
           transform="translate(294.8984,23.2607)"
           id="g250"><path
             id="path252"
             style="fill:#424242;fill-opacity:1;fill-rule:nonzero;stroke:none"
             d="m 0,0 v -5.169 c 0,-0.354 -0.085,-0.625 -0.255,-0.807 -0.172,-0.186 -0.386,-0.276 -0.648,-0.276 -0.263,0 -0.472,0.092 -0.64,0.28 -0.16,0.191 -0.244,0.458 -0.244,0.803 v 5.118 c 0,0.352 0.084,0.616 0.244,0.795 0.168,0.183 0.377,0.271 0.64,0.271 0.262,0 0.476,-0.088 0.648,-0.271 C -0.085,0.565 0,0.316 0,0 m -0.885,1.846 c -0.249,0 -0.461,0.079 -0.636,0.231 -0.178,0.153 -0.266,0.366 -0.266,0.645 0,0.254 0.09,0.462 0.272,0.628 0.181,0.161 0.391,0.244 0.63,0.244 0.235,0 0.439,-0.073 0.616,-0.22 C -0.09,3.224 0,3.006 0,2.722 0,2.447 -0.087,2.232 -0.26,2.077 -0.435,1.925 -0.643,1.846 -0.885,1.846" /></g><g
           transform="translate(300.6582,17.8242)"
           id="g254"><path
             id="path256"
             style="fill:#424242;fill-opacity:1;fill-rule:nonzero;stroke:none"
             d="M 0,0 -1.573,2.595 -2.544,1.68 V 0.257 c 0,-0.344 -0.092,-0.609 -0.273,-0.792 -0.177,-0.189 -0.39,-0.28 -0.624,-0.28 -0.275,0 -0.493,0.089 -0.648,0.276 -0.156,0.182 -0.237,0.452 -0.237,0.809 v 7.623 c 0,0.394 0.079,0.696 0.227,0.904 0.155,0.21 0.376,0.311 0.658,0.311 0.275,0 0.491,-0.093 0.654,-0.283 0.161,-0.186 0.243,-0.464 0.243,-0.828 V 3.661 l 2.01,2.11 C -0.285,6.03 -0.099,6.213 0.035,6.308 0.166,6.403 0.324,6.451 0.511,6.451 0.735,6.451 0.92,6.38 1.072,6.238 1.218,6.097 1.293,5.917 1.293,5.705 1.293,5.444 1.049,5.093 0.566,4.657 L -0.383,3.787 1.449,0.905 C 1.583,0.689 1.684,0.53 1.741,0.419 1.8,0.309 1.831,0.198 1.831,0.101 1.831,-0.185 1.753,-0.405 1.597,-0.571 1.441,-0.734 1.235,-0.815 0.986,-0.815 0.768,-0.815 0.598,-0.76 0.48,-0.639 0.363,-0.52 0.2,-0.306 0,0" /></g><g
           transform="translate(304.542,17.0088)"
           id="g258"><path
             id="path260"
             style="fill:#424242;fill-opacity:1;fill-rule:nonzero;stroke:none"
             d="m 0,0 c -0.271,0 -0.502,0.087 -0.699,0.263 -0.196,0.171 -0.295,0.417 -0.295,0.733 0,0.266 0.095,0.495 0.282,0.686 0.19,0.192 0.419,0.289 0.694,0.289 0.275,0 0.507,-0.097 0.705,-0.284 C 0.88,1.496 0.978,1.265 0.978,0.996 0.978,0.685 0.88,0.439 0.687,0.266 0.489,0.087 0.261,0 0,0" /></g><g
           transform="translate(313.4287,19.2207)"
           id="g262"><path
             id="path264"
             style="fill:#424242;fill-opacity:1;fill-rule:nonzero;stroke:none"
             d="m 0,0 c 0,-0.221 -0.066,-0.46 -0.2,-0.713 -0.132,-0.255 -0.337,-0.494 -0.611,-0.724 -0.272,-0.228 -0.614,-0.415 -1.03,-0.553 -0.414,-0.139 -0.882,-0.211 -1.399,-0.211 -1.107,0 -1.969,0.324 -2.589,0.966 -0.617,0.644 -0.927,1.508 -0.927,2.59 0,0.736 0.141,1.382 0.427,1.946 0.28,0.561 0.691,0.997 1.226,1.304 0.538,0.309 1.183,0.462 1.926,0.462 0.464,0 0.887,-0.067 1.277,-0.203 0.385,-0.135 0.711,-0.311 0.981,-0.523 0.267,-0.217 0.473,-0.444 0.613,-0.684 0.143,-0.242 0.212,-0.469 0.212,-0.679 0,-0.212 -0.078,-0.394 -0.236,-0.543 -0.162,-0.148 -0.356,-0.223 -0.578,-0.223 -0.151,0 -0.275,0.039 -0.373,0.114 -0.099,0.077 -0.21,0.199 -0.329,0.373 -0.219,0.33 -0.447,0.58 -0.687,0.744 -0.236,0.167 -0.538,0.249 -0.905,0.249 -0.525,0 -0.953,-0.205 -1.277,-0.618 -0.323,-0.41 -0.485,-0.978 -0.485,-1.69 0,-0.337 0.043,-0.648 0.126,-0.929 0.081,-0.281 0.2,-0.521 0.359,-0.72 0.159,-0.197 0.347,-0.347 0.569,-0.451 0.223,-0.105 0.469,-0.155 0.733,-0.155 0.36,0 0.666,0.083 0.921,0.249 0.259,0.166 0.484,0.418 0.68,0.759 0.108,0.201 0.225,0.357 0.35,0.471 0.126,0.113 0.282,0.171 0.465,0.171 0.219,0 0.401,-0.084 0.542,-0.249 C -0.073,0.364 0,0.187 0,0" /></g><g
           transform="translate(319.3457,20.6406)"
           id="g266"><path
             id="path268"
             style="fill:#424242;fill-opacity:1;fill-rule:nonzero;stroke:none"
             d="m 0,0 c 0,0.729 -0.162,1.296 -0.481,1.701 -0.32,0.41 -0.751,0.612 -1.291,0.612 -0.351,0 -0.659,-0.091 -0.926,-0.272 C -2.965,1.86 -3.167,1.594 -3.311,1.239 -3.455,0.885 -3.528,0.472 -3.528,0 c 0,-0.468 0.07,-0.874 0.213,-1.223 0.143,-0.351 0.346,-0.618 0.61,-0.802 0.267,-0.184 0.576,-0.28 0.933,-0.28 0.54,0 0.971,0.204 1.291,0.616 C -0.162,-1.283 0,-0.718 0,0 m 1.793,0 c 0,-0.53 -0.084,-1.023 -0.244,-1.474 -0.171,-0.45 -0.408,-0.836 -0.724,-1.157 -0.313,-0.322 -0.69,-0.57 -1.124,-0.744 -0.441,-0.17 -0.93,-0.258 -1.473,-0.258 -0.541,0 -1.03,0.088 -1.462,0.264 -0.429,0.171 -0.807,0.423 -1.12,0.745 -0.318,0.328 -0.558,0.713 -0.725,1.155 -0.158,0.444 -0.241,0.934 -0.241,1.469 0,0.541 0.085,1.037 0.246,1.486 0.167,0.451 0.406,0.836 0.717,1.154 0.31,0.318 0.683,0.562 1.123,0.737 0.443,0.172 0.929,0.258 1.462,0.258 0.54,0 1.032,-0.086 1.473,-0.264 C 0.141,3.198 0.516,2.948 0.833,2.628 1.148,2.301 1.387,1.919 1.55,1.476 1.711,1.027 1.793,0.539 1.793,0" /></g><g
           transform="translate(327.9551,20.5088)"
           id="g270"><path
             id="path272"
             style="fill:#424242;fill-opacity:1;fill-rule:nonzero;stroke:none"
             d="m 0,0 v -2.374 c 0,-0.377 -0.083,-0.655 -0.255,-0.846 -0.172,-0.188 -0.393,-0.281 -0.674,-0.281 -0.27,0 -0.491,0.093 -0.655,0.281 -0.17,0.191 -0.256,0.469 -0.256,0.846 v 2.846 c 0,0.45 -0.014,0.8 -0.044,1.05 -0.031,0.244 -0.116,0.452 -0.25,0.609 -0.135,0.162 -0.35,0.242 -0.64,0.242 -0.586,0 -0.97,-0.2 -1.156,-0.607 C -4.114,1.369 -4.21,0.792 -4.21,0.039 v -2.413 c 0,-0.371 -0.084,-0.652 -0.249,-0.843 -0.172,-0.188 -0.391,-0.284 -0.665,-0.284 -0.272,0 -0.493,0.096 -0.666,0.284 -0.174,0.191 -0.259,0.472 -0.259,0.843 v 5.111 c 0,0.337 0.077,0.593 0.231,0.766 0.158,0.178 0.363,0.264 0.613,0.264 0.245,0 0.449,-0.085 0.614,-0.246 0.163,-0.164 0.244,-0.39 0.244,-0.678 V 2.675 c 0.313,0.368 0.645,0.641 0.995,0.812 0.357,0.18 0.747,0.267 1.181,0.267 0.448,0 0.834,-0.091 1.156,-0.269 0.324,-0.179 0.588,-0.452 0.799,-0.81 0.303,0.363 0.626,0.636 0.972,0.812 0.345,0.178 0.725,0.267 1.145,0.267 0.487,0 0.911,-0.099 1.264,-0.289 C 3.516,3.273 3.779,2.997 3.955,2.642 4.107,2.315 4.183,1.808 4.183,1.114 V -2.374 C 4.183,-2.751 4.099,-3.029 3.93,-3.22 3.76,-3.408 3.533,-3.501 3.255,-3.501 c -0.272,0 -0.492,0.096 -0.665,0.284 -0.172,0.191 -0.259,0.472 -0.259,0.843 V 0.631 C 2.331,1.016 2.314,1.322 2.283,1.553 2.251,1.785 2.161,1.979 2.02,2.136 1.873,2.293 1.654,2.373 1.362,2.373 1.127,2.373 0.904,2.3 0.691,2.161 0.48,2.024 0.315,1.833 0.195,1.602 0.067,1.299 0,0.766 0,0" /></g><g
           transform="translate(244.7876,21.0732)"
           id="g274"><path
             id="path276"
             style="fill:#424242;fill-opacity:1;fill-rule:nonzero;stroke:none"
             d="M 0,0 C -0.001,0.003 -0.001,0.007 -0.001,0.012 -0.001,0.007 -0.001,0.003 0,0" /></g><g
           transform="translate(244.8779,20.502)"
           id="g278"><path
             id="path280"
             style="fill:#424242;fill-opacity:1;fill-rule:nonzero;stroke:none"
             d="M 0,0 H 0.002 C -0.033,0.162 -0.059,0.324 -0.08,0.483 -0.059,0.322 -0.033,0.16 0,0" /></g><g
           transform="translate(245.4692,18.8438)"
           id="g282"><path
             id="path284"
             style="fill:#424242;fill-opacity:1;fill-rule:nonzero;stroke:none"
             d="M 0,0 C -0.004,0.007 -0.007,0.015 -0.012,0.022 -0.007,0.015 -0.004,0.007 0,0" /></g><g
           transform="translate(245.4126,18.9541)"
           id="g286"><path
             id="path288"
             style="fill:#424242;fill-opacity:1;fill-rule:nonzero;stroke:none"
             d="M 0,0 C -0.016,0.03 -0.03,0.062 -0.045,0.092 -0.03,0.06 -0.016,0.03 0,0" /></g><g
           transform="translate(245.0439,19.8633)"
           id="g290"><path
             id="path292"
             style="fill:#424242;fill-opacity:1;fill-rule:nonzero;stroke:none"
             d="M 0,0 C 0.087,-0.276 0.193,-0.543 0.315,-0.798 0.191,-0.538 0.087,-0.27 0.002,0 Z" /></g><g
           transform="translate(251.7041,27.9189)"
           id="g294"><path
             id="path296"
             style="fill:#424242;fill-opacity:1;fill-rule:nonzero;stroke:none"
             d="m 0,0 c 0.345,0 0.6,-0.027 0.892,-0.076 l 0.083,0.525 c 0,0 -0.807,0.248 -1.868,0.161 l -0.084,0.286 c 0.331,0.07 0.578,0.364 0.578,0.713 0,0.402 -0.327,0.726 -0.728,0.726 -0.402,0 -0.728,-0.324 -0.728,-0.726 0,-0.349 0.247,-0.643 0.576,-0.713 L -1.187,0.578 C -2.313,0.423 -3.209,-0.017 -3.209,-0.017 l 0.159,-0.485 c 0.681,0.227 1.272,0.364 1.808,0.422 C -0.717,-0.023 -0.322,0 0,0" /></g><g
           transform="translate(245.4556,25.2607)"
           id="g298"><path
             id="path300"
             style="fill:#424242;fill-opacity:1;fill-rule:nonzero;stroke:none"
             d="M 0,0 0.004,0.006 C 0.031,0.04 0.056,0.072 0.083,0.104 l -0.216,0.155 -0.336,0.246 c -0.019,-0.026 -0.548,-0.513 -0.966,-1.411 -0.018,0.028 -0.039,0.055 -0.062,0.082 -0.125,0.137 -0.3,0.207 -0.523,0.203 h -0.009 c -0.138,0 -0.233,0.045 -0.295,0.1 0.062,0.079 0.099,0.177 0.099,0.286 0,0.254 -0.207,0.461 -0.461,0.461 -0.254,0 -0.461,-0.207 -0.461,-0.461 0,-0.255 0.207,-0.461 0.461,-0.461 0.04,0 0.078,0.007 0.115,0.013 0.113,-0.125 0.293,-0.235 0.556,-0.229 0.136,0.001 0.235,-0.034 0.302,-0.108 0.076,-0.083 0.102,-0.203 0.11,-0.293 -0.001,-0.002 -0.001,-0.004 -0.002,-0.004 -0.3,-0.82 -0.215,-1.84 -0.215,-1.84 l 0.729,-0.029 c 0.014,0.372 0.068,1.022 0.256,1.537 C -0.473,-0.65 -0.019,-0.026 0,0" /></g><g
           transform="translate(258.042,27.3105)"
           id="g302"><path
             id="path304"
             style="fill:#424242;fill-opacity:1;fill-rule:nonzero;stroke:none"
             d="m 0,0 c -0.254,0 -0.461,-0.206 -0.461,-0.461 0,-0.04 0.006,-0.077 0.017,-0.114 -0.127,-0.114 -0.237,-0.294 -0.233,-0.558 0.002,-0.137 -0.033,-0.234 -0.106,-0.301 -0.059,-0.051 -0.132,-0.08 -0.204,-0.097 -0.542,0.76 -1.21,1.223 -1.21,1.223 l -0.523,-0.56 c 0.395,-0.36 0.799,-0.81 1.192,-1.371 0.27,-0.389 0.549,-0.889 0.782,-1.389 l 0.706,0.336 c 0,0 -0.322,0.796 -0.776,1.51 0.079,0.027 0.158,0.07 0.228,0.132 0.138,0.125 0.206,0.3 0.201,0.522 -0.001,0.144 0.046,0.24 0.103,0.304 0.079,-0.06 0.177,-0.098 0.284,-0.098 0.256,0 0.462,0.206 0.462,0.461 C 0.462,-0.206 0.256,0 0,0" /></g><g
           transform="translate(256.2109,20.9697)"
           id="g306"><path
             id="path308"
             style="fill:#424242;fill-opacity:1;fill-rule:nonzero;stroke:none"
             d="m 0,0 c -0.971,-0.473 -2.568,-1.098 -4.672,-1.392 -0.826,-0.114 -1.626,-0.156 -2.362,-0.156 -0.958,0 -1.805,0.071 -2.455,0.153 -0.741,0.094 -1.321,0.208 -1.676,0.289 0.085,-0.27 0.189,-0.539 0.313,-0.798 0.002,-0.007 0.005,-0.015 0.009,-0.02 0.014,-0.03 0.029,-0.061 0.045,-0.092 0.014,-0.03 0.029,-0.059 0.045,-0.088 0.004,-0.007 0.007,-0.015 0.011,-0.022 0.209,-0.393 0.459,-0.754 0.745,-1.067 0.992,-1.085 2.003,-1.257 2.012,-1.258 l 0.016,-0.002 0.015,-0.006 c 0.009,-0.003 0.905,-0.293 2.268,-0.293 1.34,0 2.656,0.272 3.91,0.805 0.927,0.474 1.806,1.196 2.241,1.84 0.337,0.498 0.58,1.028 0.723,1.58 C 1.266,-0.234 1.326,0.235 1.29,0.73 1.017,0.547 0.585,0.285 0,0" /></g><g
           transform="translate(248.543,25.5381)"
           id="g310"><path
             id="path312"
             style="fill:#424242;fill-opacity:1;fill-rule:nonzero;stroke:none"
             d="m 0,0 c 1.072,0 1.941,-0.869 1.941,-1.941 0,-1.072 -0.869,-1.94 -1.941,-1.94 -1.071,0 -1.94,0.868 -1.94,1.94 C -1.94,-0.869 -1.071,0 0,0 m 5.679,-0.048 c 0.662,0 1.201,-0.538 1.201,-1.201 0,-0.663 -0.539,-1.201 -1.201,-1.201 -0.663,0 -1.2,0.538 -1.2,1.201 0,0.663 0.537,1.201 1.2,1.201 m -8.454,-0.46 c -0.029,-0.041 -0.45,-0.637 -0.783,-1.552 -0.249,-0.685 -0.238,-1.683 -0.238,-1.695 v -0.002 c 0,-0.234 0.013,-0.466 0.039,-0.696 0,-0.005 0,-0.009 0.002,-0.012 0.002,-0.03 0.007,-0.058 0.01,-0.088 0.021,-0.159 0.047,-0.321 0.082,-0.483 0.482,-0.123 3.361,-0.794 6.579,-0.346 2.017,0.28 3.548,0.876 4.478,1.327 0.772,0.375 1.269,0.714 1.46,0.854 C 8.663,-2.493 8.137,-1.382 7.653,-0.689 6.272,1.285 4.782,1.792 4.018,1.918 3.726,1.966 3.491,1.993 3.161,1.993 2.853,1.993 2.471,1.968 1.959,1.914 1.447,1.861 0.876,1.727 0.215,1.504 -0.714,1.193 -1.554,0.705 -2.215,0.093 L -2.238,0.072 c -0.097,-0.091 -0.302,-0.28 -0.537,-0.58" /></g></g></g></g></svg>