<?xml version="1.0" encoding="iso-8859-1"?>
<svg id="Capa_1" enable-background="new 0 0 512 512" height="512" viewBox="0 0 512 512" width="512"
     xmlns="http://www.w3.org/2000/svg">
    <g>
        <g>
            <path d="m136.801 462.073v-412.146c0-5.579 4.523-10.102 10.102-10.102h218.195c5.579 0 10.102 4.523 10.102 10.102v412.146c0 5.579-4.523 10.102-10.102 10.102h-218.196c-5.579 0-10.101-4.523-10.101-10.102z"
                  fill="#9dc6fb"/>
        </g>
        <g>
            <path d="m136.801 366.108v95.965c0 5.579 4.523 10.102 10.102 10.102h60.61v-106.067z" fill="#b3e59f"/>
        </g>
        <g>
            <path d="m365.098 39.825h-18.183c5.579 0 10.102 4.523 10.102 10.102v412.146c0 5.579-4.523 10.102-10.102 10.102h18.183c5.579 0 10.102-4.523 10.102-10.102v-412.146c-.001-5.579-4.523-10.102-10.102-10.102z"
                  fill="#80b4fb"/>
        </g>
        <g>
            <path d="m256 472.175h109.098c5.579 0 10.102-4.523 10.102-10.102v-95.965h-119.2z" fill="#b3e59f"/>
        </g>
        <g>
            <path d="m357.016 462.073c0 5.579-4.523 10.102-10.102 10.102h18.183c5.579 0 10.102-4.523 10.102-10.102v-95.965h-18.183z"
                  fill="#95d6a4"/>
        </g>
        <g>
            <path d="m375.199 317.62h-238.398v48.488h70.711v106.067h48.488v-106.067h119.199z" fill="#ffe07d"/>
        </g>
        <g>
            <path d="m357.016 317.62h18.183v48.488h-18.183z" fill="#ffd064"/>
        </g>
        <g>
            <path d="m381.26 7.5h-250.52c-14.505 0-26.264 11.759-26.264 26.264v444.472c0 14.505 11.759 26.264 26.264 26.264h250.52c14.505 0 26.264-11.759 26.264-26.264v-444.472c0-14.505-11.758-26.264-26.264-26.264zm-16.162 464.675h-218.196c-5.579 0-10.102-4.523-10.102-10.102v-412.146c0-5.579 4.523-10.102 10.102-10.102h52.346c3.826 0 7.324 2.162 9.035 5.584l4.518 9.035c1.711 3.422 5.209 5.584 9.035 5.584h68.327c3.826 0 7.324-2.162 9.035-5.584l4.518-9.035c1.711-3.422 5.209-5.584 9.035-5.584h52.346c5.579 0 10.102 4.523 10.102 10.102v412.146c0 5.579-4.522 10.102-10.101 10.102z"
                  fill="#818181"/>
        </g>
        <g>
            <path d="m381.26 7.5h-17.357c14.505 0 26.264 11.759 26.264 26.264v444.472c0 14.505-11.759 26.264-26.264 26.264h17.357c14.505 0 26.264-11.759 26.264-26.264v-444.472c0-14.505-11.759-26.264-26.264-26.264z"
                  fill="#595959"/>
        </g>
        <g>
            <path d="m256 146.902c36.263 0 65.661 29.397 65.661 65.661 0 57.579-65.661 116.169-65.661 116.169s-65.661-58.589-65.661-116.169c0-36.263 29.398-65.661 65.661-65.661z"
                  fill="#e28086"/>
        </g>
        <g>
            <circle cx="256" cy="212.563" fill="#f9f6f9" r="25.254"/>
        </g>
        <g>
            <path d="m136.801 268.357c-4.142 0-7.5 3.358-7.5 7.5v186.216c0 9.706 7.896 17.602 17.602 17.602h218.195c9.706 0 17.602-7.896 17.602-17.602v-412.146c0-9.706-7.896-17.602-17.602-17.602h-52.346c-6.71 0-12.743 3.729-15.743 9.73l-4.518 9.035c-.444.887-1.335 1.438-2.327 1.438h-68.327c-.992 0-1.883-.551-2.327-1.438l-4.517-9.035c-3-6.002-9.033-9.73-15.744-9.73h-52.346c-9.706 0-17.602 7.896-17.602 17.602v190.901c0 4.142 3.358 7.5 7.5 7.5s7.5-3.358 7.5-7.5v-190.901c0-1.435 1.167-2.602 2.602-2.602h52.346c.992 0 1.883.551 2.327 1.438l4.518 9.036c3.001 6.001 9.034 9.729 15.743 9.729h68.327c6.709 0 12.742-3.728 15.743-9.73l4.518-9.036c.443-.887 1.335-1.438 2.327-1.438h52.346c1.435 0 2.602 1.167 2.602 2.602v260.194h-83.512c19.776-23.227 44.973-60.156 44.973-97.557 0-11.058-2.407-21.687-7.155-31.59-1.791-3.735-6.271-5.311-10.005-3.521-3.735 1.791-5.312 6.27-3.521 10.005 3.77 7.864 5.681 16.311 5.681 25.106 0 44.491-43.233 91.057-58.161 105.807-14.932-14.754-58.161-61.319-58.161-105.807 0-32.07 26.091-58.161 58.161-58.161 11.579 0 22.759 3.391 32.333 9.807 3.439 2.307 8.1 1.386 10.405-2.055 2.306-3.44 1.386-8.1-2.055-10.405-12.052-8.078-26.12-12.347-40.683-12.347-40.341 0-73.161 32.82-73.161 73.161 0 37.401 25.197 74.33 44.973 97.557h-83.512v-34.263c.001-4.142-3.357-7.5-7.499-7.5zm7.5 193.716v-88.465h55.711v91.067h-53.11c-1.434 0-2.601-1.167-2.601-2.602zm220.797 2.602h-101.598v-91.067h104.199v88.465c0 1.435-1.167 2.602-2.601 2.602zm-123.643-139.555c.013 0 .025-.002.038-.002 5.281 5.4 8.903 8.665 9.513 9.21 1.423 1.269 3.208 1.904 4.994 1.904s3.571-.635 4.994-1.904c.61-.545 4.231-3.809 9.511-9.208h97.194v33.488h-111.699c-4.142 0-7.5 3.358-7.5 7.5v98.567h-33.488v-98.567c0-4.142-3.358-7.5-7.5-7.5h-63.211v-33.488z"/>
            <path d="m407.524 247.298c4.142 0 7.5-3.358 7.5-7.5v-206.034c0-18.618-15.146-33.764-33.764-33.764h-250.52c-18.618 0-33.764 15.146-33.764 33.764v444.472c0 18.618 15.146 33.764 33.764 33.764h250.52c18.618 0 33.764-15.146 33.764-33.764v-203.415c0-4.142-3.358-7.5-7.5-7.5s-7.5 3.358-7.5 7.5v203.415c0 10.347-8.417 18.764-18.764 18.764h-250.52c-10.347 0-18.764-8.417-18.764-18.764v-444.472c0-10.347 8.417-18.764 18.764-18.764h250.52c10.347 0 18.764 8.417 18.764 18.764v206.034c0 4.142 3.358 7.5 7.5 7.5z"/>
            <path d="m256 179.809c-18.061 0-32.754 14.693-32.754 32.754s14.693 32.754 32.754 32.754 32.754-14.693 32.754-32.754-14.693-32.754-32.754-32.754zm0 50.508c-9.79 0-17.754-7.964-17.754-17.754s7.964-17.754 17.754-17.754 17.754 7.964 17.754 17.754-7.964 17.754-17.754 17.754z"/>
        </g>
    </g>
</svg>