<?xml version="1.0" encoding="iso-8859-1"?>
<svg id="Capa_1" enable-background="new 0 0 512 512" height="512" viewBox="0 0 512 512" width="512"
     xmlns="http://www.w3.org/2000/svg">
    <path d="m230.179 365.667h206.14v46.278h-206.14z" fill="#9ef1e5"/>
    <path d="m46.504 108.814h-28.341c-5.889 0-10.664 4.774-10.664 10.664v33.808c0 5.889 4.774 10.664 10.664 10.664h27.674z"
          fill="#293067"/>
    <path d="m476.437 448.756h-28.864c-11.124 0-20.142-9.018-20.142-20.142v-79.617c0-11.124 9.018-20.142 20.142-20.142h28.864z"
          fill="#888dc4"/>
    <path d="m242.067 378 105.943-171-54.697.194-91.246 145.806z" fill="#9ef1e5"/>
    <ellipse cx="209.422" cy="388.806" fill="#373e7a" rx="44.869" ry="44.7"/>
    <path d="m97.429 92.734h-44.677c-5.889 0-10.664 4.774-10.664 10.664v65.969c0 5.889 4.774 10.664 10.664 10.664h43.621z"
          fill="#4e5291"/>
    <path d="m504.5 56.448v146.248c0 7.522-6.098 13.62-13.62 13.62h-385.552c-7.522 0-13.62-6.098-13.62-13.62v-146.248z"
          fill="#a1a7cb"/>
    <path d="m471.5 56.448v146.249c0 7.522-6.098 13.62-13.62 13.62h33c7.522 0 13.62-6.098 13.62-13.62v-146.249z"
          fill="#888dc4"/>
    <path d="m43.672 54.735h50.675l44.869 38.039h365.284v-71.658c0-7.52-6.096-13.616-13.616-13.616h-481.523z"
          fill="#9ef1e5"/>
    <path d="m490.884 7.5h-33c7.52 0 13.616 6.096 13.616 13.616v71.658h33v-71.658c0-7.52-6.096-13.616-13.616-13.616z"
          fill="#3bdfc7"/>
    <path d="m500.216 504.5h-12.619c-11.655 0-21.104-9.448-21.104-21.103v-189.182c0-11.655 9.448-21.104 21.104-21.104h12.619c2.366 0 4.283 1.918 4.283 4.283v222.822c.001 2.366-1.917 4.284-4.283 4.284z"
          fill="#505491"/>
    <path d="m209.422 375.521c-7.337 0-13.306 5.959-13.306 13.284s5.969 13.285 13.306 13.285 13.307-5.96 13.307-13.285-5.97-13.284-13.307-13.284zm0 15c-.934 0-1.693-.77-1.693-1.716 0-.945.76-1.715 1.693-1.715.935 0 1.694.77 1.694 1.715 0 .947-.76 1.716-1.694 1.716z"/>
    <path d="m490.884 0h-481.523c-5.848 0-9.585 7.064-6.068 11.908l34.311 47.234c1.411 1.943 3.667 3.093 6.068 3.093h40.536v22.998h-31.456c-9.31 0-16.996 7.044-18.034 16.081h-16.555c-10.016 0-18.163 8.149-18.163 18.165v33.807c0 10.016 8.147 18.164 18.163 18.164h16.555c1.038 9.037 8.724 16.081 18.034 16.081h31.456v15.166c0 11.646 9.475 21.12 21.12 21.12h169.261l-30.276 48.194c-5.148 8.191 7.554 16.17 12.701 7.979l34.454-54.843 36.961-.132-80.502 128.457c-7.145-7.73-16.595-13.303-27.252-15.639l12.466-19.843c5.148-8.191-7.556-16.172-12.701-7.979l-15.877 25.273c-.327.521-.574 1.067-.76 1.626-26.243 2.804-46.749 25.005-46.749 51.896 0 28.783 23.492 52.2 52.368 52.2 17.406 0 32.847-8.517 42.375-21.581.128.006.254.019.383.019h167.751v9.17c0 15.242 12.4 27.643 27.643 27.643h11.42v27.14c0 15.772 12.831 28.604 28.604 28.604h16.902c4.143 0 7.5-3.357 7.5-7.5v-34.501c0-9.675-15-9.675-15 0v27h-9.403c-7.501 0-13.604-6.103-13.604-13.604v-189.181c0-7.501 6.103-13.604 13.604-13.604h9.403v147.389c0 9.675 15 9.675 15 0v-154.889c0-4.143-3.357-7.5-7.5-7.5h-16.903c-15.772 0-28.604 12.831-28.604 28.604v27.141h-11.42c-15.242 0-27.643 12.4-27.643 27.642v9.17h-157.243l84.195-134.351h143.998c11.646 0 21.12-9.475 21.12-21.12v-181.581c0-11.643-9.473-21.116-21.116-21.116zm-55.953 348.997c0-6.971 5.672-12.642 12.643-12.642h10.364v104.901h-10.364c-6.971 0-12.643-5.672-12.643-12.643zm-225.509 77.009c-20.604 0-37.368-16.688-37.368-37.2s16.764-37.2 37.368-37.2c20.605 0 37.369 16.688 37.369 37.2s-16.764 37.2-37.369 37.2zm208.397-21.562h-158.432c1.559-4.94 2.404-10.192 2.404-15.639s-.844-10.699-2.404-15.639h158.432zm-402.819-251.159v-33.807c0-1.745 1.419-3.164 3.163-3.164h16.426v40.135h-16.426c-1.744 0-3.163-1.419-3.163-3.164zm37.752 19.245c-1.744 0-3.163-1.419-3.163-3.164v-65.969c0-1.745 1.419-3.164 3.163-3.164h31.456v72.297zm438.128 36.286h-385.552c-3.375 0-6.12-2.745-6.12-6.12v-134.008l35.158 29.807c1.354 1.148 3.073 1.779 4.85 1.779h257.852c9.675 0 9.675-15 0-15h-255.101l-42.77-36.26c-1.354-1.148-3.073-1.779-4.85-1.779h-46.853l-23.415-32.235h466.805c3.372 0 6.116 2.744 6.116 6.116v35.331 28.827h-55.933c-9.675 0-9.675 15 0 15h55.933v102.422c0 3.375-2.745 6.12-6.12 6.12z"/>
    <path d="m467.067 56.5c0-4.143-3.357-7.5-7.5-7.5h-287c-9.675 0-9.675 15 0 15h287c4.143 0 7.5-3.357 7.5-7.5z"/>
</svg>