<?xml version="1.0" encoding="iso-8859-1"?>
<svg version="1.1" id="Capa_1" xmlns="http://www.w3.org/2000/svg" x="0px" y="0px"
     viewBox="0 0 512 512" style="enable-background:new 0 0 512 512;" xml:space="preserve">
<g>
	<g>
		<path d="M352.097,137.906c-0.225-0.309-0.47-0.608-0.748-0.887c-0.198-0.198-0.405-0.38-0.618-0.551
			c-23.397-24.221-55.966-39.522-92.052-40.246c-0.222-0.021-0.447-0.035-0.674-0.035c-0.136,0-0.268,0.013-0.403,0.02
			c-0.534-0.006-1.066-0.02-1.601-0.02c-72.651,0-131.757,59.106-131.757,131.757c0,0.268,0.009,0.533,0.01,0.801
			c-0.002,0.067-0.01,0.133-0.01,0.201c0,0.114,0.012,0.224,0.017,0.337c0.722,72.037,59.537,130.419,131.74,130.419
			c72.652,0,131.757-59.106,131.757-131.757C387.757,193.157,374.199,161.48,352.097,137.906z M256,344.673
			c-61.5,0-112.039-47.808-116.415-108.211h9.206c4.15,0,7.515-3.365,7.515-7.515c0-4.15-3.365-7.515-7.515-7.515h-9.333
			c1.494-27.037,12.233-51.645,29.099-70.719l6.615,6.616c1.467,1.468,3.391,2.201,5.313,2.201c1.923,0,3.846-0.733,5.313-2.201
			c2.935-2.935,2.935-7.692,0-10.627l-6.591-6.591c19.248-16.85,44.06-27.489,71.281-28.76v9.385c0,4.15,3.365,7.515,7.515,7.515
			c4.151,0,7.515-3.365,7.515-7.515v-9.129c26.85,2.177,51.159,13.482,69.816,30.799l-5.712,5.712
			c-2.935,2.935-2.935,7.693,0.001,10.627c1.467,1.468,3.391,2.201,5.313,2.201c1.923,0,3.846-0.733,5.314-2.201l5.431-5.431
			c15.979,19.168,25.936,43.518,26.952,70.122h-10.425c-4.151,0-7.515,3.365-7.515,7.515s3.364,7.515,7.515,7.515h10.042
			C366.912,297.918,316.818,344.673,256,344.673z"/>
	</g>
</g>
<g>
	<g>
		<path d="M411.267,215.06C404.694,135.155,337.572,72.141,256,72.141S107.306,135.155,100.733,215.06
			C43.724,221.054,0,269.034,0,327.139c0,62.154,50.566,112.72,112.72,112.72c42.809,0,81.616-24.148,100.691-62.05
			c13.715,3.898,28.031,5.941,42.589,5.941c14.566,0,28.881-2.04,42.592-5.935c19.074,37.898,57.881,62.044,100.688,62.044
			c62.153,0,112.72-50.566,112.72-112.72C512,269.033,468.276,221.054,411.267,215.06z M112.72,424.83
			c-53.867,0-97.691-43.824-97.691-97.691c0-49.646,36.826-90.764,85.203-96.893c0.055,3.697,0.238,7.384,0.555,11.058
			c-42.5,5.815-74.737,42.085-74.737,85.836c0,47.789,38.88,86.669,86.669,86.669c31.988,0,61.066-17.538,76.14-45.277
			c3.331,1.591,6.714,3.073,10.151,4.425C182.153,404.708,149.101,424.83,112.72,424.83z M256,368.72
			c-40.913,0-79.741-17.767-106.527-48.744c-2.714-3.138-7.46-3.483-10.6-0.769c-3.139,2.714-3.484,7.461-0.769,10.6
			c10.889,12.594,23.583,23.205,37.523,31.603c-12.47,22.897-36.487,37.37-62.907,37.37c-39.502,0-71.64-32.138-71.64-71.64
			c0-36.145,26.616-66.113,61.714-70.943c3.078,16.716,8.855,32.879,17.167,47.73c1.378,2.461,3.932,3.846,6.565,3.846
			c1.242,0,2.502-0.309,3.663-0.959c3.622-2.027,4.915-6.606,2.888-10.228c-11.678-20.866-17.851-44.601-17.851-68.641
			c0-77.624,63.151-140.775,140.775-140.775s140.775,63.151,140.775,140.775c0,23.777-6.044,47.283-17.479,67.978
			c-2.007,3.632-0.689,8.204,2.944,10.212c3.632,2.007,8.204,0.689,10.211-2.943c8.09-14.641,13.73-30.552,16.758-46.995
			c35.098,4.829,61.711,34.798,61.711,70.942c0,39.502-32.138,71.64-71.64,71.64c-26.417,0-50.432-14.47-62.904-37.363
			c14.157-8.531,27.024-19.353,38.032-32.214c2.698-3.153,2.33-7.896-0.823-10.596c-3.154-2.699-7.897-2.33-10.596,0.823
			C336.178,350.754,297.182,368.72,256,368.72z M399.28,424.83c-36.38,0-69.432-20.12-86.29-51.873
			c3.437-1.351,6.82-2.831,10.152-4.422c15.074,27.737,44.15,45.273,76.138,45.273c47.789,0,86.669-38.88,86.669-86.669
			c0-43.75-32.237-80.019-74.735-85.835c0.317-3.673,0.499-7.361,0.554-11.058c48.376,6.129,85.202,47.247,85.202,96.892
			C496.971,381.006,453.147,424.83,399.28,424.83z"/>
	</g>
</g>
<g>
	<g>
		<path d="M433.955,337.582l-31.061-17.033c-3.64-1.996-8.207-0.663-10.203,2.976c-1.995,3.64-0.663,8.207,2.976,10.203
			l31.061,17.033c1.147,0.628,2.386,0.927,3.607,0.927c2.655,0,5.229-1.411,6.596-3.903
			C438.925,344.146,437.594,339.578,433.955,337.582z"/>
	</g>
</g>
<g>
	<g>
		<path d="M118.612,322.475c-2.576-3.254-7.302-3.804-10.556-1.227l-24.047,19.037c-3.254,2.576-3.803,7.302-1.227,10.557
			c1.483,1.874,3.679,2.851,5.897,2.851c1.633,0,3.279-0.53,4.659-1.623l24.047-19.037
			C120.639,330.455,121.188,325.729,118.612,322.475z"/>
	</g>
</g>
<g>
	<g>
		<path d="M298.419,271.53h-84.838c-10.588,0-19.202,8.614-19.202,19.201v8.69c0,10.588,8.614,19.201,19.202,19.201h84.838
			c10.588,0,19.202-8.614,19.202-19.201v-8.69C317.62,280.144,309.007,271.53,298.419,271.53z M302.591,299.421
			c0,2.301-1.872,4.172-4.172,4.172h-84.838c-2.301,0-4.172-1.872-4.172-4.172v-8.69c0-2.3,1.872-4.172,4.172-4.172h84.838
			c2.3,0,4.172,1.872,4.172,4.172V299.421z"/>
	</g>
</g>
<g>
	<g>
		<path d="M335.188,200.946c-1.34-3.928-5.609-6.026-9.537-4.686l-52.969,18.058c-5.534-6.759-14.893-9.744-23.633-6.763
			c-11.243,3.833-17.271,16.098-13.438,27.341c3.05,8.947,11.441,14.591,20.407,14.591c2.3,0,4.638-0.372,6.934-1.154
			c8.743-2.981,14.329-11.06,14.581-19.792l52.967-18.058C334.428,209.146,336.527,204.875,335.188,200.946z M261.844,230.818
			c-0.768,1.561-2.096,2.73-3.742,3.291c-1.647,0.56-3.413,0.448-4.975-0.32c-1.561-0.768-2.73-2.097-3.291-3.743
			c-0.561-1.646-0.448-3.413,0.32-4.974c0.768-1.561,2.097-2.73,3.743-3.291c0.689-0.234,1.399-0.352,2.107-0.352
			c0.982,0,1.959,0.225,2.867,0.671c1.561,0.768,2.73,2.097,3.291,3.743C262.726,227.49,262.613,229.257,261.844,230.818z"/>
	</g>
</g>
</svg>
