<?xml version="1.0" encoding="iso-8859-1"?>
<svg version="1.1" id="Layer_1" xmlns="http://www.w3.org/2000/svg" x="0px" y="0px"
     viewBox="0 0 512 512" style="enable-background:new 0 0 512 512;" xml:space="preserve" width="512"
     height="512">
<g>
	<g>
		<path style="fill:#12DB84;"
              d="M403.38,221.62L302.04,368.03v0.01c16.1,37.32,53.22,63.46,96.46,63.46c57.99,0,105-47.01,105-105    C503.5,270.14,459.11,224.17,403.38,221.62z"/>
        <path style="fill:#5FED65;"
              d="M431.219,227.5c0-0.265-0.007-0.529-0.008-0.794c-8.82-2.888-18.154-4.643-27.831-5.086    L302.04,368.03v0.01c3.779,8.76,8.729,16.893,14.632,24.228c7.748-2.873,15.24-6.275,22.425-10.171    c48.216-26.12,82.837-74.158,90.507-130.744C430.673,243.552,431.219,235.585,431.219,227.5z"/>
        <path style="fill:#C8E5FC;"
              d="M402.14,247.59l-76.23,110.12c12.11,28.11,40.04,47.79,72.59,47.79c43.63,0,79-35.37,79-79    C477.5,284.09,444.08,249.49,402.14,247.59z"/>
        <path style="fill:#B8DAF2;"
              d="M429.245,253.732c-8.395-3.551-17.523-5.708-27.105-6.142l-76.23,110.12    c3.72,8.636,8.939,16.472,15.321,23.19C387.654,354.906,421.062,308.443,429.245,253.732z"/>
        <path style="fill:#12DB84;"
              d="M208.951,368.027L107.62,221.62C51.89,224.17,7.5,270.14,7.5,326.5c0,57.99,47.01,105,105,105    c43.24,0,80.36-26.14,96.46-63.46v-0.01C208.957,368.029,208.954,368.028,208.951,368.027z"/>
        <path style="fill:#5FED65;"
              d="M107.62,221.62c-9.677,0.443-19.011,2.198-27.831,5.086c-0.001,0.265-0.008,0.529-0.008,0.794    c0,8.085,0.546,16.052,1.615,23.853c7.67,56.586,42.291,104.624,90.507,130.744c7.185,3.896,14.677,7.298,22.425,10.171    c5.903-7.335,10.853-15.468,14.632-24.228v-0.01c-0.003-0.001-0.006-0.002-0.009-0.003L107.62,221.62z"/>
        <g>
			<path style="fill:#C8E5FC;"
                  d="M108.86,247.59c-41.94,1.9-75.36,36.5-75.36,78.91c0,43.63,35.37,79,79,79     c32.55,0,60.48-19.68,72.59-47.79L108.86,247.59z"/>
		</g>
        <path style="fill:#B8DAF2;"
              d="M169.769,380.9c6.382-6.719,11.601-14.554,15.321-23.19l-76.23-110.12    c-9.582,0.434-18.709,2.592-27.105,6.142C89.938,308.443,123.346,354.906,169.769,380.9z"/>
        <path style="fill:#5FED65;"
              d="M403.38,221.62C400.3,142.61,335.27,79.5,255.5,79.5s-144.8,63.11-147.88,142.12    c-0.08,1.95-0.12,3.91-0.12,5.88c0,6.81,0.46,13.52,1.36,20.09c6.46,47.66,35.62,88.12,76.23,110.12    c7.58,4.11,15.56,7.58,23.87,10.32v0.01c14.63,4.84,30.28,7.46,46.54,7.46s31.91-2.62,46.54-7.46v-0.01    c8.31-2.74,16.29-6.21,23.87-10.32c40.61-22,69.77-62.46,76.23-110.12c0.9-6.57,1.36-13.28,1.36-20.09    C403.5,225.53,403.46,223.57,403.38,221.62z"/>
        <path style="fill:#41E041;"
              d="M262.96,368.04v-0.01c-8.31-2.74-16.29-6.21-23.87-10.32c-40.61-22-69.77-62.46-76.23-110.12    c-0.9-6.57-1.36-13.28-1.36-20.09c0-1.97,0.04-3.93,0.12-5.88c2.724-69.875,53.905-127.305,120.88-139.652    c-8.756-1.614-17.777-2.468-27-2.468c-79.77,0-144.8,63.11-147.88,142.12c-0.08,1.95-0.12,3.91-0.12,5.88    c0,6.81,0.46,13.52,1.36,20.09c6.46,47.66,35.62,88.12,76.23,110.12c7.58,4.11,15.56,7.58,23.87,10.32v0.01    c14.63,4.84,30.28,7.46,46.54,7.46c9.221,0,18.246-0.845,27-2.457C275.818,371.812,269.293,370.135,262.96,368.04z"/>
        <path style="fill:#E0F1FC;"
              d="M345.36,142.05c-22.17-23.3-53.3-37.99-87.86-38.53c-0.66-0.01-1.33-0.02-2-0.02    c-68.48,0-124,55.52-124,124c0,0.33,0,0.67,0.01,1c0.53,68.02,55.84,123,123.99,123c68.48,0,124-55.52,124-124    C379.5,194.38,366.51,164.29,345.36,142.05z"/>
        <path style="fill:#D3E9F4;"
              d="M145.515,239.5c-0.01-0.33-0.01-0.67-0.01-1c0-68.48,55.52-124,124-124c0.67,0,1.34,0.01,2,0.02    c24.926,0.389,48.066,8.142,67.349,21.174c-21.565-19.588-50.052-31.685-81.354-32.174c-0.66-0.01-1.33-0.02-2-0.02    c-68.48,0-124,55.52-124,124c0,0.33,0,0.67,0.01,1c0.33,42.388,21.936,79.709,54.663,101.819    C161.422,307.843,145.796,275.499,145.515,239.5z"/>
        <g>
			<path style="fill:#FC5151;"
                  d="M309.5,290.16v8.68c0,6.44-5.22,11.66-11.66,11.66h-84.68c-6.44,0-11.66-5.22-11.66-11.66v-8.68     c0-6.44,5.22-11.66,11.66-11.66h84.68C304.28,278.5,309.5,283.72,309.5,290.16z"/>
		</g>
	</g>
    <g>
		<path d="M351.409,137.637c-0.225-0.308-0.469-0.607-0.747-0.885c-0.198-0.198-0.404-0.379-0.617-0.55    c-23.351-24.174-55.857-39.445-91.872-40.167C257.951,96.014,257.727,96,257.5,96c-0.136,0-0.268,0.013-0.402,0.02    c-0.533-0.006-1.064-0.02-1.598-0.02C182.991,96,124,154.991,124,227.5c0,0.267,0.009,0.532,0.01,0.799    c-0.002,0.067-0.01,0.133-0.01,0.201c0,0.114,0.012,0.224,0.017,0.336C124.738,300.732,183.438,359,255.5,359    c72.51,0,131.5-58.991,131.5-131.5C387,192.78,373.468,161.165,351.409,137.637z M255.5,344c-61.38,0-111.82-47.715-116.188-108    h9.188c4.142,0,7.5-3.358,7.5-7.5s-3.358-7.5-7.5-7.5h-9.315c1.491-26.984,12.209-51.544,29.042-70.581l6.602,6.603    c1.464,1.465,3.384,2.197,5.303,2.197c1.919,0,3.839-0.732,5.303-2.197c2.929-2.929,2.929-7.677,0-10.606l-6.578-6.578    c19.21-16.817,43.974-27.435,71.142-28.704v9.367c0,4.142,3.358,7.5,7.5,7.5c4.143,0,7.5-3.358,7.5-7.5v-9.111    c26.798,2.173,51.059,13.456,69.68,30.739l-5.701,5.701c-2.929,2.929-2.929,7.678,0.001,10.606    c1.464,1.465,3.384,2.197,5.303,2.197s3.839-0.732,5.304-2.197l5.42-5.42c15.948,19.131,25.885,43.433,26.899,69.985H361.5    c-4.143,0-7.5,3.358-7.5,7.5s3.357,7.5,7.5,7.5h10.022C366.195,297.336,316.199,344,255.5,344z"/>
        <path d="M410.464,214.64C403.904,134.891,336.913,72,255.5,72s-148.404,62.891-154.964,142.64C43.639,220.622,0,268.509,0,326.5    C0,388.533,50.467,439,112.5,439c42.725,0,81.457-24.101,100.494-61.929C226.682,380.961,240.97,383,255.5,383    c14.538,0,28.825-2.036,42.509-5.923C317.046,414.901,355.777,439,398.5,439c62.032,0,112.5-50.467,112.5-112.5    C511,268.508,467.361,220.622,410.464,214.64z M112.5,424C58.738,424,15,380.262,15,326.5c0-49.549,36.754-90.587,85.037-96.704    c0.055,3.69,0.238,7.37,0.554,11.036C58.174,246.636,26,282.835,26,326.5c0,47.696,38.804,86.5,86.5,86.5    c31.926,0,60.947-17.504,75.991-45.189c3.325,1.588,6.701,3.067,10.131,4.416C181.797,403.918,148.81,424,112.5,424z     M149.181,319.351c-2.709-3.132-7.445-3.476-10.579-0.768c-3.133,2.709-3.477,7.446-0.768,10.579    c10.868,12.569,23.537,23.16,37.45,31.541C162.838,383.555,138.868,398,112.5,398C73.075,398,41,365.925,41,326.5    c0-36.074,26.564-65.984,61.593-70.804c3.072,16.683,8.838,32.815,17.133,47.637c1.375,2.456,3.924,3.839,6.552,3.839    c1.24,0,2.497-0.308,3.656-0.957c3.615-2.023,4.905-6.593,2.882-10.208C121.161,275.182,115,251.493,115,227.5    C115,150.028,178.028,87,255.5,87C332.972,87,396,150.028,396,227.5c0,23.731-6.032,47.191-17.445,67.845    c-2.003,3.625-0.688,8.188,2.938,10.192c3.625,2.003,8.188,0.688,10.191-2.937c8.074-14.612,13.703-30.492,16.725-46.903    C443.438,260.517,470,290.427,470,326.5c0,39.425-32.075,71.5-71.5,71.5c-26.365,0-50.334-14.442-62.781-37.29    c14.129-8.514,26.971-19.315,37.958-32.151c2.693-3.147,2.325-7.881-0.821-10.575c-3.148-2.694-7.882-2.325-10.575,0.821    C335.521,350.069,296.602,368,255.5,368C214.667,368,175.915,350.268,149.181,319.351z M398.5,424    c-36.309,0-69.296-20.081-86.121-51.772c3.43-1.348,6.807-2.825,10.132-4.413C337.556,395.498,366.575,413,398.5,413    c47.696,0,86.5-38.804,86.5-86.5c0-43.665-32.174-79.863-74.589-85.667c0.316-3.666,0.498-7.347,0.553-11.036    C459.246,235.914,496,276.952,496,326.5C496,380.262,452.262,424,398.5,424z"/>
        <path d="M394.894,333.076l31,17c1.145,0.627,2.381,0.925,3.6,0.925c2.65,0,5.219-1.408,6.583-3.895    c1.991-3.632,0.662-8.191-2.97-10.183l-31-17c-3.633-1.992-8.191-0.662-10.183,2.97    C389.933,326.526,391.262,331.084,394.894,333.076z"/>
        <path d="M107.845,320.62l-24,19c-3.248,2.571-3.796,7.288-1.225,10.536c1.48,1.87,3.672,2.845,5.885,2.845    c1.63,0,3.273-0.529,4.65-1.62l24-19c3.248-2.571,3.796-7.288,1.225-10.536C115.809,318.597,111.092,318.048,107.845,320.62z"/>
        <path d="M297.836,271h-84.672C202.597,271,194,279.597,194,290.164v8.673c0,10.567,8.597,19.164,19.164,19.164h84.672    c10.567,0,19.164-8.597,19.164-19.164v-8.673C317,279.597,308.403,271,297.836,271z M302,298.836c0,2.296-1.868,4.164-4.164,4.164    h-84.672c-2.296,0-4.164-1.868-4.164-4.164v-8.673c0-2.296,1.868-4.164,4.164-4.164h84.672c2.296,0,4.164,1.868,4.164,4.164    V298.836z"/>
        <path d="M325.015,195.877L272.149,213.9c-5.523-6.746-14.864-9.725-23.587-6.75c-11.221,3.826-17.237,16.067-13.412,27.288    c3.044,8.93,11.419,14.563,20.367,14.563c2.296,0,4.629-0.371,6.92-1.152c8.726-2.975,14.301-11.038,14.553-19.753l52.864-18.023    c3.921-1.336,6.016-5.598,4.679-9.519C333.196,196.634,328.935,194.54,325.015,195.877z M261.333,230.367    c-0.766,1.558-2.092,2.725-3.735,3.285c-1.644,0.559-3.406,0.447-4.965-0.319c-1.558-0.766-2.725-2.093-3.285-3.736    c-0.56-1.643-0.447-3.406,0.319-4.964c0.766-1.558,2.093-2.725,3.736-3.285c0.688-0.234,1.396-0.351,2.103-0.351    c0.98,0,1.955,0.225,2.861,0.67c1.558,0.766,2.725,2.093,3.285,3.736C262.213,227.046,262.1,228.809,261.333,230.367z"/>
	</g>
</g>
</svg>
