<?xml version="1.0" encoding="iso-8859-1"?>
<svg version="1.1" id="Capa_1" xmlns="http://www.w3.org/2000/svg" x="0px"
     y="0px"
     viewBox="0 0 512 512" style="enable-background:new 0 0 512 512;" xml:space="preserve">
<g>
	<g>
		<path d="M402,246c-5.52,0-10,4.48-10,10s4.48,10,10,10c5.52,0,10-4.48,10-10C412,250.48,407.52,246,402,246z"/>
	</g>
</g>
<g>
	<g>
		<path d="M256,100c-5.52,0-10,4.48-10,10s4.48,10,10,10s10-4.48,10-10S261.52,100,256,100z"/>
	</g>
</g>
<g>
	<g>
		<path d="M256,392c-5.52,0-10,4.48-10,10c0,5.52,4.48,10,10,10s10-4.48,10-10C266,396.48,261.52,392,256,392z"/>
	</g>
</g>
<g>
	<g>
		<path d="M110,246c-5.52,0-10,4.48-10,10s4.48,10,10,10s10-4.48,10-10C120,250.48,115.52,246,110,246z"/>
	</g>
</g>
<g>
	<g>
		<path d="M256,226c-16.542,0-30,13.458-30,30s13.458,30,30,30s30-13.458,30-30S272.542,226,256,226z M256,266
			c-5.514,0-10-4.486-10-10c0-5.514,4.486-10,10-10c5.514,0,10,4.486,10,10C266,261.514,261.514,266,256,266z"/>
	</g>
</g>
<g>
	<g>
		<path d="M502,206H304.987c-5.085-4.983-10.893-9.15-17.196-12.37l31.185-75.708c3.282-7.417,5.4-15.16,6.38-23.112
			c18.789,8.457,36.153,20.408,50.794,35.042c3.903,3.903,10.237,3.905,14.142-0.003c3.904-3.906,3.903-10.237-0.003-14.142
			c-18.503-18.495-40.912-33.15-65.122-42.663c-2.694-18.776-11.853-36.131-25.861-48.967
			c44.861,8.534,86.174,30.292,119.253,63.364c3.905,3.904,10.236,3.904,14.143-0.002c3.904-3.905,3.903-10.237-0.002-14.143
			C385.423,26.031,322.669,0,256,0c-12.122,0-25.327,0-40,0c-5.523,0-10,4.478-10,10v197.013
			c-4.993,5.089-9.16,10.891-12.373,17.193c-80.03-32.26-81.987-35.633-98.781-37.634c8.463-18.778,20.401-36.118,35.005-50.721
			c3.905-3.905,3.906-10.237,0-14.143c-3.906-3.903-10.237-3.904-14.142,0c-18.312,18.311-32.867,40.487-42.398,64.464
			c-17.95,1.118-34.738,8.27-48.004,20.491c9.283-42.531,30.55-81.632,62.136-113.224c3.905-3.905,3.904-10.237-0.001-14.143
			c-3.905-3.904-10.237-3.903-14.142,0.002C26.031,126.577,0,189.331,0,256c0,0.761,0,40,0,40c0,5.522,4.477,10,10,10h197.036
			c3.363,3.3,7.02,6.228,10.943,8.765C194.197,382.437,186,392.065,186,416.83v0.067c-18.554-8.446-35.688-20.287-50.149-34.749
			c-3.905-3.904-10.237-3.904-14.143,0c-3.905,3.905-3.905,10.237,0,14.143c18.566,18.566,41.085,33.268,65.431,42.789
			c3.028,18.659,12.025,35.765,25.837,48.895c-44.97-8.496-86.387-30.275-119.535-63.417c-3.905-3.903-10.237-3.903-14.142,0.002
			c-3.905,3.905-3.904,10.237,0.001,14.143C126.578,485.969,189.331,512,256,512c14.87,0,16.645,0,40,0c5.522,0,10-4.478,10-10
			V304.963c3.3-3.363,6.227-7.02,8.765-10.942l69.88,25.805c10.289,4.097,21.117,6.174,32.186,6.174h0.067
			c-8.446,18.555-20.287,35.689-34.748,50.148c-3.905,3.905-3.905,10.237,0,14.143c3.907,3.905,10.236,3.904,14.143,0
			c18.565-18.565,33.267-41.083,42.789-65.43c18.66-3.028,35.767-12.025,48.895-25.837c-8.496,44.971-30.275,86.388-63.417,119.536
			c-3.904,3.905-3.903,10.237,0.002,14.143c3.905,3.904,10.236,3.904,14.143-0.002C485.969,385.423,512,322.669,512,256
			c0-13.99,0-26.01,0-40C512,210.478,507.522,206,502,206z M20,286v-21.72c0-15.566,6.062-30.201,17.071-41.209
			C57.283,202.86,82.394,206.432,85.51,206c18.463,0,21.555,5.307,101.666,37.179c-0.174,0.936-0.324,1.877-0.46,2.821H150
			c-5.523,0-10,4.478-10,10c0,5.522,4.477,10,10,10h36.723c1.001,6.954,3.045,13.689,6.039,20H20z M226,20c4.454,0,10.299,0,14.69,0
			c44.926,0,78.937,47.228,59.953,89.928c-0.037,0.084-0.073,0.169-0.108,0.254l-31.718,77.001
			c-0.935-0.173-1.874-0.326-2.817-0.461V150c0-5.522-4.478-10-10-10c-5.522,0-10,4.478-10,10v36.723
			c-6.954,1.001-13.689,3.045-20,6.039V20z M286.001,492H273.02c-15.164,0-30.034-5.217-41.872-14.688
			c-29.686-23.753-24.609-57.678-25.147-60.481c0-18.91,5.407-23.796,30.204-93.683c3.207,0.948,6.477,1.649,9.796,2.123V362
			c0,5.522,4.478,10,10,10c5.522,0,10-4.478,10-10v-36.723c6.954-1.001,13.689-3.045,20-6.039V492z M256,306
			c-27.778,0-50-22.551-50-50c0-27.716,22.488-50,50-50c27.779,0,50,22.555,50,50C306,283.783,283.445,306,256,306z M492,238.98
			c0,15.165-5.216,30.035-14.688,41.873c-23.753,29.686-57.678,24.609-60.481,25.147c-8.559,0-16.932-1.613-24.886-4.795
			c-0.083-0.033-0.166-0.064-0.25-0.096l-68.548-25.313c0.948-3.207,1.649-6.477,2.123-9.796H362c5.522,0,10-4.478,10-10
			c0-5.522-4.478-10-10-10h-36.723c-1.001-6.954-3.045-13.689-6.039-20H492C492,232.239,492,235.149,492,238.98z"/>
	</g>
</g>
</svg>
