<?xml version="1.0" encoding="iso-8859-1"?>
<svg viewBox="0 0 511 511.99968" xmlns="http://www.w3.org/2000/svg">
    <path d="m487.84375 416.628906c19.519531 19.53125 19.519531 51.1875 0 70.71875-19.515625 19.519532-51.195312 19.519532-70.714844 0l-133.726562-145.257812 58.949218-58.9375zm0 0"
          fill="#2bbdc4"/>
    <path d="m312.910156 256.132812 29.441406 27.019532-58.949218 58.9375-27.058594-29.386719zm0 0" fill="#495d85"/>
    <path d="m497.796875 71.257812-44.390625 44.738282h-28.289062l-27.628907-28.628906v-28.289063l43.738281-44.386719c-9.019531-3.039062-18.6875-4.691406-28.738281-4.691406-61.617187 0-104.898437 60.597656-85.308593 118.746094l-84.96875 84.980468-.066407-.070312-132.648437-132.949219v-28.277343l-70.707032-42.429688-28.28125 28.28125 42.421876 70.707031 28.277343.011719 132.65625 132.945312.058594.058594-84.675781 84.679688c-58.039063-19.550782-118.746094 23.566406-118.746094 85.304687 0 10.050781 1.648438 19.71875 4.6875 28.738281l44.390625-44.738281h28.289063l28.628906 28.628907v28.289062l-44.738282 44.390625c9.019532 3.039063 18.6875 4.691406 28.738282 4.691406 61.730468 0 104.859375-60.710937 85.308594-118.75 41.011718-41.011719 157.105468-157.105469 197.933593-197.933593 9.03125 3.042968 18.699219 4.691406 28.75 4.691406 49.707031 0 89.996094-40.289063 89.996094-89.996094 0-10.050781-1.648437-19.722656-4.6875-28.742188zm0 0"
          fill="#e9eef0"/>
    <path d="m347.339844 155.148438c-5.519532 0-10 4.46875-10 9.996093 0 5.523438 4.480468 10 10 10 5.53125 0 10-4.476562 10-10 0-5.527343-4.46875-9.996093-10-9.996093zm0 0"/>
    <path d="m165.644531 336.839844c-5.53125 0-10 4.480468-10 10 0 5.53125 4.46875 10 10 10 5.519531 0 10-4.46875 10-10 0-5.519532-4.480469-10-10-10zm0 0"/>
    <path d="m500.058594 61.519531c-3.375-.785156-6.921875.234375-9.359375 2.695313l-41.457031 41.785156h-19.875l-21.878907-22.667969v-20.152343l40.863281-41.472657c2.417969-2.453125 3.402344-5.980469 2.601563-9.335937-.796875-3.351563-3.265625-6.054688-6.53125-7.15625-10.265625-3.460938-21.007813-5.214844-31.933594-5.214844-32.570312 0-62.160156 15.1875-81.183593 41.667969-17.804688 24.789062-23.292969 55.167969-15.429688 84.242187l-73.660156 73.660156-122.71875-123v-24.140624c0-3.511719-1.84375-6.769532-4.855469-8.574219l-70.707031-42.429688c-3.9375-2.363281-8.972656-1.742187-12.214844 1.503907l-28.28125 28.277343c-3.242188 3.246094-3.863281 8.28125-1.503906 12.21875l42.421875 70.707031c1.804687 3.011719 5.058593 4.851563 8.570312 4.855469l24.132813.007813 122.730468 123-73.378906 73.378906c-29.074218-7.859375-59.46875-2.363281-84.269531 15.453125-26.464844 19.011719-41.640625 48.59375-41.640625 81.164063 0 10.921874 1.753906 21.667968 5.214844 31.929687 1.105468 3.285156 3.835937 5.765625 7.210937 6.546875 3.378907.785156 6.921875-.234375 9.363281-2.695312l41.453126-41.78125h19.984374l22.769532 22.769531v19.984375l-41.78125 41.453125c-2.460938 2.441406-3.480469 5.984375-2.695313 9.363281.78125 3.375 3.261719 6.105469 6.546875 7.210938 10.261719 3.460937 21.007813 5.214843 31.929688 5.214843 32.570312 0 62.148437-15.179687 81.164062-41.644531 17.816406-24.800781 23.3125-55.191406 15.453125-84.265625l58.933594-58.933594 13.5 14.664063-6.195313 6.191406c-3.90625 3.90625-3.90625 10.238281 0 14.144531 3.90625 3.902344 10.234376 3.902344 14.144532 0l5.609375-5.609375 126.664062 137.585938c.09375.101562.191407.199218.289063.296875 23.4375 23.4375 61.410156 23.445312 84.859375-.003907 23.382812-23.394531 23.382812-61.460937 0-84.855468-.101563-.101563-.207031-.199219-.3125-.296875l-137.800781-126.421875 5.546874-5.546875c3.90625-3.902344 3.90625-10.234375 0-14.140625s-10.234374-3.90625-14.144531 0l-6.152343 6.15625-14.691407-13.484375 59.21875-59.21875c8.417969 2.25 17.105469 3.390625 25.90625 3.390625 55.140625 0 99.996094-44.859375 99.996094-99.996094 0-10.925781-1.753906-21.667969-5.214844-31.933594-1.105469-3.285156-3.835937-5.765625-7.210937-6.546875zm-411.773438 40.414063c-1.875-1.878906-4.417968-2.835938-7.074218-2.835938l-22.617188-.007812-35.492188-59.257813 17.238282-17.238281 59.15625 35.5v22.617188c0 2.648437 1.050781 5.1875 2.921875 7.0625l125.65625 125.941406-14.144531 14.140625zm254.363282 195.0625 138.269531 126.847656c15.445312 15.609375 15.398437 40.882812-.144531 56.433594-15.578126 15.578125-40.796876 15.625-56.4375.136718l-127.078126-138.035156zm-14.75-13.535156-44.199219 44.191406-13.5-14.664063 43.007812-43.011719zm84.589843-103.464844c-8.746093 0-17.347656-1.402344-25.558593-4.167969-3.597657-1.207031-7.574219-.277344-10.261719 2.40625-50.132813 50.132813-158.15625 158.152344-197.933594 197.933594-2.6875 2.6875-3.621094 6.664062-2.40625 10.265625 8.3125 24.683594 4.335937 51.011718-10.914063 72.242187-15.207031 21.167969-38.871093 33.3125-64.917968 33.3125-2.925782 0-5.835938-.160156-8.71875-.46875l31.761718-31.515625c1.890626-1.875 2.957032-4.429687 2.957032-7.097656v-28.289062c0-2.652344-1.054688-5.195313-2.929688-7.070313l-28.628906-28.628906c-1.875-1.875-4.417969-2.929688-7.070312-2.929688h-28.289063c-2.667969 0-5.222656 1.066407-7.101563 2.957031l-31.511718 31.761719c-.3125-2.882812-.46875-5.792969-.46875-8.71875 0-26.050781 12.140625-49.710937 33.3125-64.917969 21.226562-15.25 47.558594-19.230468 72.246094-10.914062 3.597656 1.214844 7.574218.28125 10.261718-2.40625.550782-.546875 197.792969-197.792969 197.933594-197.933594 2.6875-2.6875 3.617188-6.660156 2.40625-10.261718-8.316406-24.683594-4.347656-51.003907 10.890625-72.21875 15.21875-21.1875 38.886719-33.335938 64.9375-33.335938 3.015625 0 6.011719.167969 8.980469.496094l-31.101563 31.566406c-1.84375 1.871094-2.875 4.390625-2.875 7.015625v28.289063c0 2.59375 1.003907 5.082031 2.804688 6.945312l27.628906 28.628906c1.882813 1.953125 4.480469 3.054688 7.195313 3.054688h28.289062c2.664062 0 5.21875-1.0625 7.097656-2.957032l31.511719-31.757812c.3125 2.882812.46875 5.792969.46875 8.71875 0 44.109375-35.886719 79.996094-79.996094 79.996094zm0 0"/>
    <path d="m311.988281 186.355469-125.136719 125.136719c-3.902343 3.902343-3.902343 10.234374 0 14.140624 3.90625 3.90625 10.238282 3.90625 14.144532 0l125.136718-125.136718c3.90625-3.902344 3.90625-10.234375 0-14.140625s-10.238281-3.90625-14.144531 0zm0 0"/>
    <path d="m438.355469 452c3.90625 3.894531 10.238281 3.894531 14.144531-.023438 3.898438-3.910156 3.886719-10.242187-.023438-14.140624l-90.136718-89.847657c-3.910156-3.898437-10.246094-3.886719-14.140625.023438-3.902344 3.914062-3.890625 10.242187.019531 14.140625zm0 0"/>
</svg>