<?xml version="1.0" encoding="iso-8859-1"?>
<svg version="1.1" id="Layer_1" xmlns="http://www.w3.org/2000/svg" x="0px"
     y="0px"
     viewBox="0 0 512 512" style="enable-background:new 0 0 512 512;" xml:space="preserve">
<g>
	<g>
		<g>
			<path d="M313.492,54.367c-6.567-3.454-14.438-2.987-20.547,1.212L141.7,159.529H29.247C13.12,159.528,0,172.649,0,188.776
				v134.448c0,16.127,13.12,29.247,29.247,29.247H141.7l151.246,103.95c3.39,2.331,7.321,3.511,11.271,3.511
				c3.17,0,6.353-0.76,9.276-2.298c6.562-3.453,10.639-10.205,10.639-17.619V71.986C324.131,64.571,320.055,57.82,313.492,54.367z
				 M53.932,336.113H29.247c-7.106,0-12.888-5.781-12.888-12.888V188.776c0-7.108,5.782-12.888,12.888-12.888h24.685V336.113z
				 M82.128,336.113H70.291V175.887h11.836V336.113z M136.06,336.113H98.487V175.887h37.573V336.113z M307.772,440.014
				c0,1.865-1.189,2.769-1.897,3.142c-0.709,0.371-2.126,0.841-3.663-0.216L152.419,339.989V172.012L302.212,69.061
				c1.539-1.057,2.956-0.586,3.663-0.216c0.709,0.373,1.897,1.277,1.897,3.142V440.014z"/>
            <path d="M429.806,79.936c-3.457-2.908-8.618-2.46-11.523,0.999c-2.906,3.458-2.459,8.617,0.999,11.523
				c48.528,40.785,76.361,100.396,76.361,163.546c0,63.149-27.833,122.76-76.361,163.545c-3.458,2.906-3.905,8.066-0.999,11.523
				c1.617,1.926,3.933,2.917,6.266,2.917c1.857,0,3.726-0.629,5.258-1.918C482.041,388.171,512,323.996,512,256.004
				C512,188.012,482.041,123.837,429.806,79.936z"/>
            <path d="M393.581,123.108c-3.457-2.906-8.617-2.462-11.523,0.999c-2.906,3.458-2.459,8.617,0.999,11.524
				c35.719,30.021,56.205,73.897,56.205,120.375c0,46.478-20.486,90.353-56.205,120.374c-3.458,2.906-3.906,8.066-0.999,11.523
				c1.617,1.926,3.934,2.917,6.266,2.917c1.857,0,3.726-0.629,5.258-1.918c39.427-33.137,62.04-81.576,62.04-132.896
				C455.621,204.685,433.008,156.246,393.581,123.108z"/>
            <path d="M357.385,166.238c-3.461-2.904-8.619-2.455-11.525,1.002c-2.905,3.459-2.456,8.619,1.002,11.525
				c22.889,19.225,36.017,47.379,36.017,77.24c0,29.861-13.128,58.013-36.017,77.239c-3.458,2.905-3.908,8.066-1.002,11.525
				c1.619,1.926,3.935,2.919,6.268,2.919c1.856,0,3.723-0.628,5.257-1.916c26.599-22.342,41.854-55.06,41.854-89.767
				C399.239,221.299,383.984,188.58,357.385,166.238z"/>
		</g>
	</g>
</g>
</svg>
