<?xml version="1.0" encoding="iso-8859-1"?>
<svg version="1.1" id="Capa_1" xmlns="http://www.w3.org/2000/svg" x="0px"
     y="0px"
     viewBox="0 0 470 470" style="enable-background:new 0 0 470 470;" xml:space="preserve">
<g>
	<path d="M424.418,181.723h-22.5v-76.404h22.5c4.143,0,7.5-3.358,7.5-7.5s-3.357-7.5-7.5-7.5H400.37
		c-2.743-6.087-8.854-10.341-15.952-10.341h-75.642c-7.098,0-13.209,4.255-15.952,10.341H183.728
		C127.58,90.319,81.9,135.999,81.9,192.146v55.276h-2.5c-4.142,0-7.5,3.358-7.5,7.5s3.358,7.5,7.5,7.5h111.404
		c4.142,0,7.5-3.358,7.5-7.5s-3.358-7.5-7.5-7.5h-2.5v-50.7h104.52c2.743,6.086,8.854,10.341,15.952,10.341h75.642
		c7.097,0,13.209-4.255,15.952-10.341h24.048c4.143,0,7.5-3.358,7.5-7.5S428.561,181.723,424.418,181.723z M386.918,189.564
		c0,1.355-1.145,2.5-2.5,2.5h-75.642c-1.355,0-2.5-1.145-2.5-2.5v-10c0-4.142-3.357-7.5-7.5-7.5s-7.5,3.358-7.5,7.5v2.159H183.728
		c-5.748,0-10.423,4.676-10.423,10.423v55.276H96.9v-55.276c0-47.877,38.951-86.827,86.827-86.827h107.549v44.245
		c0,4.142,3.357,7.5,7.5,7.5s7.5-3.358,7.5-7.5V97.478c0-1.355,1.145-2.5,2.5-2.5h75.642c1.355,0,2.5,1.145,2.5,2.5V189.564z"/>
    <path d="M298.776,25h40.321v24.978h-20.321c-4.143,0-7.5,3.358-7.5,7.5s3.357,7.5,7.5,7.5h55.642c4.143,0,7.5-3.358,7.5-7.5
		s-3.357-7.5-7.5-7.5h-20.32V25h40.32c4.143,0,7.5-3.358,7.5-7.5s-3.357-7.5-7.5-7.5h-40.32V7.5c0-4.142-3.357-7.5-7.5-7.5
		s-7.5,3.358-7.5,7.5V10h-40.321c-4.143,0-7.5,3.358-7.5,7.5S294.634,25,298.776,25z"/>
    <path d="M139.961,279.209c-2.801-2.382-6.916-2.382-9.717,0c-3.763,3.2-92.163,79.033-92.163,136.792
		c0,29.775,24.224,53.999,53.999,53.999c17.22,0,32.98-8.062,43.021-21.331C145.143,461.938,160.903,470,178.123,470
		c29.775,0,53.999-24.224,53.999-53.999C232.122,358.244,143.725,282.409,139.961,279.209z M217.122,416.001
		c0,21.504-17.495,38.999-38.999,38.999c-15.882,0-30.046-9.498-36.083-24.196c-1.156-2.813-3.896-4.65-6.938-4.65
		s-5.782,1.837-6.938,4.65C122.127,445.502,107.963,455,92.081,455c-21.504,0-38.999-17.495-38.999-38.999
		c0-43.767,63.721-104.52,82.025-121.066c7.705,6.954,23.449,21.733,39.08,39.823C202.275,367.264,217.122,395.358,217.122,416.001z
		"/>
</g>
</svg>
