<?xml version="1.0" encoding="iso-8859-1"?>
<svg id="Capa_1" enable-background="new 0 0 512 512" height="512" viewBox="0 0 512 512" width="512"
     xmlns="http://www.w3.org/2000/svg">
    <g id="XMLID_829_">
        <path id="XMLID_830_"
              d="m362 405.615c-101.398 58.542-231.055 23.801-289.597-77.597s-23.801-231.055 77.597-289.597 231.055-23.801 289.597 77.597 23.801 231.055-77.597 289.597z"
              fill="#91def5"/>
        <path id="XMLID_1032_"
              d="m339.167 366.067c-79.556 45.932-181.284 18.674-227.216-60.882s-18.674-181.284 60.882-227.216 181.284-18.674 227.216 60.882 18.674 181.284-60.882 227.216z"
              fill="#fff"/>
        <g fill="#79b2ff">
            <path id="XMLID_1996_"
                  d="m240.134 194.341-67.215-116.421c-30.762 17.761-34.821 60.558-7.945 83.784l60.247 52.067z"/>
            <path id="XMLID_1995_"
                  d="m271.866 249.695 67.216 116.421c30.762-17.761 34.821-60.558 7.945-83.784l-60.247-52.067z"/>
            <path id="XMLID_1994_"
                  d="m239.964 249.596-67.216 116.421c30.762 17.761 69.855-.123 76.532-35.011l14.968-78.208z"/>
            <path id="XMLID_1993_"
                  d="m272.036 194.44 67.216-116.421c-30.762-17.761-69.855.123-76.532 35.011l-14.968 78.208z"/>
            <path id="XMLID_1992_" d="m287.902 222.116h134.432c0-35.521-35.034-60.434-68.586-48.773l-75.214 26.142z"/>
            <path id="XMLID_1991_" d="m224.098 221.92h-134.431c0 35.521 35.034 60.434 68.586 48.773l75.214-26.142z"/>
        </g>
        <circle id="XMLID_1998_" cx="256" cy="222.018" fill="#ffcb7c" r="32"/>
        <path id="XMLID_1052_"
              d="m502 481.639c-27.172 27.172-71.228 27.172-98.4 0-27.172-27.172-71.228-27.172-98.4 0-27.172 27.172-71.228 27.172-98.4 0-27.172-27.172-71.228-27.172-98.4 0-27.172 27.172-71.228 27.172-98.4 0v-145.171c27.172 27.172 71.228 27.172 98.4 0 27.172-27.172 71.228-27.172 98.4 0 27.172 27.172 71.228 27.172 98.4 0 27.172-27.172 71.228-27.172 98.4 0 27.172 27.172 71.228 27.172 98.4 0z"
              fill="#cff1fb"/>
        <g id="XMLID_106_">
            <g id="XMLID_1581_">
                <path id="XMLID_418_"
                      d="m452.8 511.981c-20.378 0-40.757-7.757-56.271-23.271-11.253-11.254-26.215-17.451-42.129-17.451-15.915 0-30.876 6.197-42.129 17.451-31.027 31.027-81.514 31.028-112.542 0-11.253-11.254-26.215-17.451-42.129-17.451-15.915 0-30.876 6.197-42.129 17.451-31.027 31.027-81.514 31.028-112.542 0-3.905-3.905-3.906-10.237 0-14.143 3.905-3.904 10.237-3.904 14.142 0 23.23 23.23 61.028 23.23 84.258 0 15.03-15.03 35.014-23.309 56.271-23.309s41.241 8.278 56.271 23.309c23.229 23.229 61.028 23.229 84.258 0 15.03-15.03 35.014-23.309 56.271-23.309 21.256 0 41.24 8.278 56.271 23.309 23.23 23.23 61.028 23.229 84.258 0 3.905-3.904 10.236-3.903 14.142 0 3.905 3.905 3.905 10.237 0 14.143-15.514 15.514-35.892 23.271-56.271 23.271z"/>
            </g>
            <g id="XMLID_119_">
                <path id="XMLID_156_"
                      d="m452.8 439.414c-20.378 0-40.757-7.757-56.271-23.271-11.253-11.254-26.215-17.451-42.129-17.451-15.915 0-30.876 6.197-42.129 17.451-31.027 31.027-81.514 31.028-112.542 0-11.253-11.254-26.215-17.451-42.129-17.451-15.915 0-30.876 6.197-42.129 17.451-31.027 31.027-81.514 31.028-112.542 0-3.905-3.905-3.906-10.237 0-14.143 3.905-3.904 10.237-3.904 14.142 0 23.23 23.23 61.028 23.23 84.258 0 15.03-15.03 35.014-23.309 56.271-23.309s41.241 8.278 56.271 23.309c23.229 23.229 61.028 23.229 84.258 0 15.03-15.03 35.014-23.309 56.271-23.309 21.256 0 41.24 8.278 56.271 23.309 23.23 23.23 61.028 23.229 84.258 0 3.905-3.904 10.236-3.903 14.142 0 3.905 3.905 3.905 10.237 0 14.143-15.514 15.514-35.892 23.271-56.271 23.271z"/>
            </g>
            <g id="XMLID_1166_">
                <path id="XMLID_416_"
                      d="m439.6 126.02c-2.63 0-5.21-1.07-7.07-2.93-1.87-1.86-2.93-4.44-2.93-7.07s1.06-5.21 2.93-7.07c1.86-1.86 4.43-2.93 7.07-2.93 2.63 0 5.21 1.07 7.07 2.93s2.93 4.43 2.93 7.07c0 2.63-1.07 5.21-2.93 7.07s-4.44 2.93-7.07 2.93z"/>
            </g>
            <path id="XMLID_130_"
                  d="m509.071 329.397c-3.905-3.904-10.237-3.904-14.142 0-11.253 11.254-26.214 17.451-42.128 17.451-4.185 0-8.3-.44-12.303-1.276 37.635-56.219 47.764-126.791 26.892-191.509-1.695-5.256-7.33-8.146-12.586-6.448-5.256 1.695-8.143 7.33-6.448 12.586 19.425 60.233 9.315 126.036-26.896 177.746-3.866-2.401-7.49-5.252-10.789-8.55-2.873-2.873-5.915-5.477-9.09-7.818 17.416-25.465 27.829-54.979 30.247-86.011 2.77-35.55-5.225-70.723-23.119-101.716-23.55-40.79-61.575-69.968-107.071-82.158-45.495-12.191-93.015-5.935-133.805 17.616-40.79 23.55-69.968 61.575-82.158 107.071s-5.935 93.015 17.616 133.805c2.237 3.874 4.641 7.666 7.165 11.366-3.189 2.348-6.243 4.962-9.127 7.846-3.288 3.289-6.901 6.132-10.754 8.528-3.372-4.826-6.567-9.806-9.512-14.907-26.978-46.728-34.145-101.164-20.18-153.281s47.389-95.679 94.117-122.657c81.924-47.298 187.364-30.787 250.712 39.261 3.705 4.096 10.028 4.413 14.125.709 4.096-3.705 4.414-10.028.709-14.125-33.527-37.072-79.315-61.946-128.927-70.038-50.318-8.209-102.388 1.335-146.619 26.873-51.354 29.649-88.088 77.522-103.436 134.799s-7.471 117.104 22.178 168.458c2.459 4.259 5.072 8.448 7.809 12.543-4.018.843-8.15 1.287-12.352 1.287-15.914 0-30.875-6.197-42.128-17.451-3.906-3.903-10.237-3.904-14.142 0-3.905 3.905-3.906 10.237 0 14.143 15.031 15.03 35.015 23.309 56.271 23.309 21.257 0 41.241-8.278 56.271-23.309 23.23-23.229 61.029-23.229 84.258 0 15.031 15.03 35.015 23.309 56.271 23.309s41.24-8.278 56.271-23.309c23.23-23.229 61.028-23.229 84.258 0 15.031 15.03 35.015 23.309 56.271 23.309s41.24-8.278 56.271-23.309c3.906-3.906 3.905-10.238 0-14.143zm-97.921-117.28h-114.341c-.615-2.541-1.47-5.051-2.586-7.498l62.807-21.829c12.895-4.482 26.671-2.515 37.797 5.396 8.329 5.923 13.999 14.344 16.323 23.931zm-19.761-68.266c4.856 8.412 8.854 17.126 12.025 26.029-15.907-10.016-35.005-12.22-52.95-5.982l-61.611 21.414 53.931-93.412c19.766 13.157 36.386 30.787 48.605 51.951zm-66.389-61.148-57.183 99.044c-2.537-.744-5.141-1.25-7.778-1.508l12.503-65.331c2.566-13.408 11.158-24.355 23.572-30.035 9.295-4.25 19.422-4.949 28.886-2.17zm-46.99 139.315c0 12.156-9.854 22.01-22.01 22.01s-22.01-9.854-22.01-22.01 9.854-22.01 22.01-22.01 22.01 9.855 22.01 22.01zm6.509-153.715c-16.609 8.772-28.052 24.2-31.62 42.847l-12.261 64.064-53.894-93.347c30.428-15.09 64.447-19.802 97.775-13.564zm-127.232 50.403c.965-10.175 5.422-19.295 12.563-26.102l57.17 99.021c-1.937 1.847-3.669 3.857-5.191 5.997l-50.317-43.485c-10.329-8.926-15.514-21.84-14.225-35.431zm-52.293 62.85c6.142-22.924 17.155-43.704 32.152-61.209-.744 18.813 6.895 36.484 21.289 48.923l49.351 42.65h-107.84c.679-10.153 2.355-20.314 5.048-30.364zm-4.144 50.364h114.341c.615 2.541 1.47 5.051 2.586 7.497l-62.807 21.83c-12.896 4.482-26.672 2.514-37.797-5.397-8.329-5.923-13.999-14.343-16.323-23.93zm90.588 81.725c-19.962-9.354-43.032-9.97-63.405-1.849-2.631-3.761-5.126-7.636-7.422-11.611-4.844-8.391-8.852-17.106-12.033-26.043 9.948 6.267 21.139 9.487 32.522 9.486 6.821 0 13.71-1.152 20.436-3.49l61.611-21.414zm48.02 15.481c-.944 4.93-2.693 9.488-5.183 13.636-7.556-2.956-14.495-7.455-20.405-13.365-1.78-1.78-3.632-3.446-5.533-5.022l35.835-62.069c.319.094.634.195.956.281 2.262.606 4.544.998 6.829 1.224zm58.671.271c-11.253 11.254-26.214 17.451-42.129 17.451-.441 0-.878-.023-1.317-.032 2.001-4.427 3.495-9.103 4.419-13.93l12.261-64.063 32.148 55.682c-1.848 1.539-3.65 3.159-5.382 4.892zm22.256-15.665-35.405-61.322c1.937-1.847 3.669-3.857 5.192-5.997l50.317 43.486c5.201 4.495 9.131 10.074 11.565 16.283-10.857.318-21.656 2.827-31.669 7.55zm63.616-1.923c-3.423-1.366-6.92-2.49-10.469-3.363-2.771-13.034-9.689-24.798-19.967-33.68l-49.35-42.649h107.924c-1.808 28.091-11.267 55.672-28.138 79.692z"/>
        </g>
    </g>
</svg>