<?xml version="1.0" encoding="iso-8859-1"?>
<svg version="1.1" id="Capa_1" xmlns="http://www.w3.org/2000/svg" x="0px"
     y="0px"
     viewBox="0 0 512 512" style="enable-background:new 0 0 512 512;" xml:space="preserve">
<g>
	<g>
		<path d="M116,166c-5.52,0-10,4.48-10,10s4.48,10,10,10s10-4.48,10-10S121.52,166,116,166z"/>
	</g>
</g>
<g>
	<g>
		<path d="M256,0c-52.704,0-107.128,17.979-150.659,49.536C98.61,44.686,90.475,42,82,42c-22.056,0-40,17.944-40,40
			c0,8.48,2.688,16.62,7.534,23.344C17.979,148.875,0,203.298,0,256c0,137.929,117.719,256,256,256c137.98,0,256-117.801,256-256
			C512,118.279,394.505,0,256,0z M82,62c11.157,0,20,9.124,20,20c0,11.028-8.972,20-20,20c-10.914,0-20-8.882-20-20
			C62,70.972,70.972,62,82,62z M246,491.763C125.814,486.458,25.542,386.186,20.238,266h66.066c0.507,8.649,1.661,17.26,3.47,25.712
			c1.907,8.875,4.552,17.621,7.868,26.099C90.25,325.209,86,335.26,86,346c0,22.056,17.944,40,40,40
			c5.767,0,11.349-1.217,16.49-3.551c28.795,25.906,64.996,41.015,103.51,43.25V491.763z M126,306c-3.71,0-7.361,0.523-10.871,1.515
			c-2.394-6.531-4.344-13.223-5.801-19.997c-1.513-7.072-2.502-14.277-2.983-21.519h60.222
			c4.594,41.681,37.749,74.838,79.432,79.433v60.23c-32.488-2.14-63.059-14.681-87.773-36.006C163.199,362.859,166,354.565,166,346
			C166,323.944,148.056,306,126,306z M126,326c11.028,0,20,8.972,20,20c0,11.303-9.181,20-20,20c-11.028,0-20-8.972-20-20
			C106,334.739,115.192,326,126,326z M246,325.285c-30.477-4.351-54.901-28.573-59.285-59.285H246V325.285z M246,246h-59.285
			c4.353-30.494,28.582-54.902,59.285-59.285V246z M246,86.3c-42.628,2.466-82.201,20.643-112.146,51.565
			c-3.841,3.968-3.738,10.299,0.23,14.141c3.977,3.849,10.307,3.729,14.141-0.23c25.531-26.388,59.801-42.945,97.774-45.438v60.23
			c-41.681,4.594-74.838,37.749-79.432,79.433h-60.234c0.673-10.146,2.367-20.186,5.066-29.958
			c1.47-5.325-1.654-10.832-6.977-12.303c-5.325-1.469-10.831,1.655-12.302,6.978c-3.176,11.505-5.11,23.334-5.809,35.282H20.236
			c2.079-44.956,18.037-90.613,44.699-127.833C70.233,120.67,76.058,122,82,122c22.056,0,40-17.944,40-40
			c0-5.942-1.33-11.767-3.834-17.064c37.221-26.663,82.878-42.621,127.834-44.7V86.3z M491.755,246H425.7
			c-2.214-38.28-17.116-74.19-42.687-102.87l45.542-45.542C466.631,138.915,489.253,192.043,491.755,246z M406,346
			c0,11.028-8.972,20-20,20c-10.844,0-20-8.719-20-20c0-11.028,8.972-20,20-20C396.835,326,406,334.765,406,346z M405.664,245.999
			h-60.231V246c-1.867-16.94-8.463-32.834-19.147-46.143l42.56-42.56C390.675,182.161,403.501,213.06,405.664,245.999z M266,20.246
			c53.957,2.502,107.085,25.124,148.412,63.2L266,231.857V20.246z M325.284,246h-45.142l31.898-31.898
			C319.097,223.485,323.628,234.397,325.284,246z M266,265.9h59.285c-4.353,30.494-28.582,55.002-59.285,59.385V265.9z M266,345.433
			c41.682-4.595,74.838-37.85,79.433-79.533h60.222c-0.481,7.24-1.47,14.543-2.981,21.609c-1.458,6.781-3.409,13.475-5.803,20.006
			C393.361,306.523,389.71,306,386,306c-32.635,0-51.576,37.208-32.226,63.656c-24.714,21.326-55.286,33.867-87.774,36.007V345.433z
			 M266,491.762v-66.064c38.514-2.235,74.714-17.344,103.509-43.249C374.649,384.783,380.232,386,386,386c22.056,0,40-17.944,40-40
			c0-10.74-4.25-20.791-11.641-28.189c3.315-8.478,5.961-17.226,7.87-26.109c1.807-8.444,2.96-17.154,3.468-25.802h66.066
			C486.458,386.086,386.186,486.458,266,491.762z"/>
	</g>
</g>
</svg>
