<?xml version="1.0" encoding="iso-8859-1"?>
<svg version="1.1" id="Capa_1" xmlns="http://www.w3.org/2000/svg" x="0px"
     y="0px"
     viewBox="0 0 512 512" style="enable-background:new 0 0 512 512;" xml:space="preserve">
<path style="fill:#79DEC5;" d="M256,10c-89.33,0-150.202,51.896-151.25,52.47c-5.281,5.281-36.99,36.99-42.29,42.29
	C30.83,145.41,10,200.51,10,256c0,132.55,113.45,246,246,246s246-113.45,246-246C502,123.444,388.564,10,256,10z"/>
    <path style="fill:#FFD87D;" d="M428.71,83.29C422.141,89.859,264.322,247.678,256,256c0-30.517,0-218.104,0-246
	C322.28,10,383.78,38.36,428.71,83.29z"/>
<g>
	<path style="fill:#D6EDFF;" d="M416,346c0,16.57-13.43,30-30,30c-16.466,0-30-13.325-30-30c0-16.57,13.43-30,30-30
		C402.45,316,416,329.335,416,346z"/>
        <path style="fill:#D6EDFF;" d="M312.54,199.46L256,256v-80c-44.105,0-80,35.879-80,80c0,44.105,35.879,80,80,80
		c44.105,0,80-35.879,80-80C336,233.94,327.03,213.94,312.54,199.46z"/>
        <path style="fill:#D6EDFF;" d="M126,316c16.57,0,30,13.43,30,30c0,16.658-13.518,30-30,30c-16.57,0-30-13.43-30-30
		C96,329.342,109.544,316,126,316z"/>
        <path style="fill:#D6EDFF;" d="M112,82c0,16.57-13.43,30-30,30c-16.422,0-30-13.323-30-30c0-16.57,13.43-30,30-30
		C98.673,52,112,65.573,112,82z"/>
</g>
    <path d="M126,176c0-5.52-4.48-10-10-10s-10,4.48-10,10s4.48,10,10,10S126,181.52,126,176z"/>
    <path d="M256,0c-52.704,0-107.128,17.979-150.659,49.536C98.61,44.686,90.475,42,82,42c-22.056,0-40,17.944-40,40
	c0,8.48,2.688,16.62,7.534,23.344C17.979,148.875,0,203.298,0,256c0,137.929,117.719,256,256,256c137.98,0,256-117.801,256-256
	C512,118.279,394.505,0,256,0z M425.7,246c-2.214-38.28-17.116-74.19-42.687-102.87l45.542-45.542
	c38.076,41.327,60.698,94.455,63.2,148.412H425.7z M366,346c0-11.028,8.972-20,20-20c10.835,0,20,8.765,20,20
	c0,11.028-8.972,20-20,20C375.156,366,366,357.281,366,346z M402.674,287.509c-1.458,6.781-3.409,13.475-5.803,20.006
	C393.361,306.523,389.71,306,386,306c-32.635,0-51.576,37.208-32.226,63.656c-24.714,21.326-55.286,33.867-87.774,36.007v-60.23
	c41.682-4.595,74.838-37.85,79.433-79.533h60.222C405.174,273.14,404.185,280.443,402.674,287.509z M104.422,203.74
	c-5.325-1.469-10.831,1.655-12.302,6.978c-3.176,11.505-5.11,23.334-5.809,35.282H20.236c2.079-44.956,18.037-90.613,44.699-127.833
	C70.233,120.67,76.058,122,82,122c22.056,0,40-17.944,40-40c0-5.942-1.33-11.767-3.834-17.064
	c37.221-26.663,82.878-42.621,127.834-44.7V86.3c-42.628,2.466-82.201,20.643-112.146,51.565c-3.841,3.968-3.738,10.299,0.23,14.141
	c3.977,3.849,10.307,3.729,14.141-0.23c25.531-26.388,59.801-42.945,97.774-45.438v60.23c-41.681,4.594-74.838,37.749-79.432,79.433
	h-60.234c0.673-10.146,2.367-20.186,5.066-29.958C112.869,210.718,109.745,205.211,104.422,203.74z M312.04,214.102
	c7.057,9.383,11.588,20.295,13.244,31.898h-45.142L312.04,214.102z M186.715,246c4.353-30.494,28.582-54.902,59.285-59.285V246
	H186.715z M246,266v59.285c-30.477-4.351-54.901-28.573-59.285-59.285H246z M266,265.9h59.285
	c-4.353,30.494-28.582,55.002-59.285,59.385V265.9z M126,326c11.028,0,20,8.972,20,20c0,11.303-9.181,20-20,20
	c-11.028,0-20-8.972-20-20C106,334.739,115.192,326,126,326z M126,306c-3.71,0-7.361,0.523-10.871,1.515
	c-2.394-6.531-4.344-13.223-5.801-19.997c-1.513-7.072-2.502-14.277-2.983-21.519h60.222c4.594,41.681,37.749,74.838,79.432,79.433
	v60.23c-32.488-2.14-63.059-14.681-87.773-36.006C163.199,362.859,166,354.565,166,346C166,323.944,148.056,306,126,306z
	 M345.433,246c-1.867-16.94-8.463-32.834-19.147-46.143l42.56-42.56c21.829,24.864,34.655,55.763,36.818,88.702h-60.231V246z
	 M414.412,83.446L266,231.857V20.246C319.957,22.748,373.085,45.37,414.412,83.446z M82,62c11.157,0,20,9.124,20,20
	c0,11.028-8.972,20-20,20c-10.914,0-20-8.882-20-20C62,70.972,70.972,62,82,62z M20.238,266h66.066
	c0.507,8.649,1.661,17.26,3.47,25.712c1.907,8.875,4.552,17.621,7.868,26.099C90.25,325.209,86,335.26,86,346
	c0,22.056,17.944,40,40,40c5.767,0,11.349-1.217,16.49-3.551c28.795,25.906,64.996,41.015,103.51,43.25v66.064
	C125.814,486.458,25.542,386.186,20.238,266z M266,491.762v-66.064c38.514-2.235,74.714-17.344,103.509-43.249
	C374.649,384.783,380.232,386,386,386c22.056,0,40-17.944,40-40c0-10.74-4.25-20.791-11.641-28.189
	c3.315-8.478,5.961-17.226,7.87-26.109c1.807-8.444,2.96-17.154,3.468-25.802h66.066C486.458,386.086,386.186,486.458,266,491.762z"
    />
</svg>
