<?xml version="1.0" encoding="iso-8859-1"?>
<svg height="512pt" viewBox="0 -8 512 512" width="512pt" xmlns="http://www.w3.org/2000/svg">
    <path d="m192.375 423.828125h80.15625v64.125h-80.15625zm0 0" fill="#95a8b8"/>
    <path d="m192.375 423.828125h80.15625v16.03125h-80.15625zm0 0" fill="#5b788c"/>
    <path d="m448.875 423.828125h-432.84375c-4.425781 0-8.015625-3.589844-8.015625-8.015625v-304.59375c0-4.429688 3.589844-8.015625 8.015625-8.015625h432.84375c4.429688 0 8.015625 3.585937 8.015625 8.015625v304.59375c0 4.425781-3.585937 8.015625-8.015625 8.015625zm0 0"
          fill="#8ae0ff"/>
    <path d="m32.0625 103.203125v320.625h-16.03125c-4.429688 0-8.015625-3.585937-8.015625-8.015625v-304.59375c0-4.429688 3.585937-8.015625 8.015625-8.015625zm0 0"
          fill="#2ac3f2"/>
    <path d="m456.890625 375.734375v40.078125c0 4.429688-3.585937 8.015625-8.015625 8.015625h-432.84375c-4.429688 0-8.015625-3.585937-8.015625-8.015625v-40.078125zm0 0"
          fill="#95a8b8"/>
    <path d="m32.0625 375.734375v48.09375h-16.03125c-4.429688 0-8.015625-3.585937-8.015625-8.015625v-40.078125zm0 0"
          fill="#5b788c"/>
    <path d="m192.375 336.15625h16.03125v15.03125h-16.03125zm0 0" fill="#fff"/>
    <path d="m224.4375 336.15625h16.03125v15.03125h-16.03125zm0 0" fill="#fff"/>
    <path d="m256.5 336.15625h16.03125v15.03125h-16.03125zm0 0" fill="#fff"/>
    <path d="m120.234375 239.46875c0 8.851562-7.175781 16.03125-16.03125 16.03125-8.851563 0-16.03125-7.179688-16.03125-16.03125 0-8.855469 7.179687-16.03125 16.03125-16.03125 8.855469 0 16.03125 7.175781 16.03125 16.03125zm0 0"
          fill="#fff"/>
    <path d="m184.359375 279.546875c0 8.851563-7.175781 16.03125-16.03125 16.03125-8.851563 0-16.03125-7.179687-16.03125-16.03125 0-8.855469 7.179687-16.03125 16.03125-16.03125 8.855469 0 16.03125 7.175781 16.03125 16.03125zm0 0"
          fill="#fff"/>
    <path d="m248.484375 239.46875c0 8.851562-7.175781 16.03125-16.03125 16.03125-8.851563 0-16.03125-7.179688-16.03125-16.03125 0-8.855469 7.179687-16.03125 16.03125-16.03125 8.855469 0 16.03125 7.175781 16.03125 16.03125zm0 0"
          fill="#fff"/>
    <path d="m312.609375 199.390625c0 8.851563-7.175781 16.03125-16.03125 16.03125-8.851563 0-16.03125-7.179687-16.03125-16.03125 0-8.855469 7.179687-16.03125 16.03125-16.03125 8.855469 0 16.03125 7.175781 16.03125 16.03125zm0 0"
          fill="#fff"/>
    <path d="m376.734375 263.515625c0 8.851563-7.175781 16.03125-16.03125 16.03125-8.851563 0-16.03125-7.179687-16.03125-16.03125 0-8.855469 7.179687-16.03125 16.03125-16.03125 8.855469 0 16.03125 7.175781 16.03125 16.03125zm0 0"
          fill="#fff"/>
    <path d="m472.921875 103.203125c0 35.414063-28.707031 64.125-64.125 64.125-35.414063 0-64.125-28.710937-64.125-64.125 0-35.417969 28.710937-64.125 64.125-64.125 35.417969 0 64.125 28.707031 64.125 64.125zm0 0"
          fill="#95a8b8"/>
    <g fill="#5b788c">
        <path d="m432.84375 103.203125c0 13.277344-10.765625 24.046875-24.046875 24.046875-13.277344 0-24.046875-10.769531-24.046875-24.046875 0-13.28125 10.769531-24.046875 24.046875-24.046875 13.28125 0 24.046875 10.765625 24.046875 24.046875zm0 0"/>
        <path d="m392.765625 39.078125v-32.0625h32.0625v32.0625"/>
        <path d="m424.828125 167.328125v32.0625h-32.0625v-32.0625"/>
        <path d="m472.921875 87.171875h32.0625v32.0625h-32.0625"/>
        <path d="m344.671875 119.234375h-32.0625v-32.0625h32.0625"/>
        <path d="m465.476562 137.210938 22.671876 22.667968-22.671876 22.671875-22.671874-22.671875"/>
        <path d="m352.117188 69.195312-22.667969-22.671874 22.667969-22.671876 22.671874 22.671876"/>
        <path d="m442.804688 46.523438 22.671874-22.671876 22.671876 22.671876-22.671876 22.671874"/>
        <path d="m374.789062 159.878906-22.671874 22.671875-22.667969-22.671875 22.667969-22.667968"/>
    </g>
    <path d="m448.875 368.71875h-433.84375v-257.5c0-.277344.722656 0 1 0h272.53125v-15.03125h-272.53125c-8.5625 0-16.03125 6.464844-16.03125 15.03125v304.59375c0 8.5625 7.46875 16.03125 16.03125 16.03125h168.328125v49.09375h-32.0625v15.03125h160.3125v-15.03125h-33.0625v-49.09375h169.328125c8.566406 0 15.03125-7.46875 15.03125-16.03125v-208.40625h-15.03125zm-184.359375 112.21875h-65.125v-49.09375h65.125zm184.359375-64.125h-432.84375c-.277344 0-1-.722656-1-1v-32.0625h433.84375v32.0625c0 .277344.277344 1 0 1zm0 0"/>
    <path d="m111.21875 319.625v-57.847656c10.019531-3.144532 16.03125-11.953125 16.03125-22.308594s-6.011719-19.167969-16.03125-22.3125v-57.84375h-15.03125v57.84375c-9.015625 3.144531-16.03125 11.957031-16.03125 22.3125s7.015625 19.164062 16.03125 22.308594v57.847656zm-7.015625-88.675781c4.695313 0 8.515625 3.824219 8.515625 8.519531s-3.820312 8.515625-8.515625 8.515625-8.515625-3.820313-8.515625-8.515625 3.820312-8.519531 8.515625-8.519531zm0 0"/>
    <path d="m175.34375 319.625v-17.769531c10.019531-3.144531 16.03125-11.953125 16.03125-22.308594s-6.011719-19.167969-16.03125-22.308594v-97.925781h-15.03125v97.925781c-9.015625 3.140625-16.03125 11.953125-16.03125 22.308594s7.015625 19.164063 16.03125 22.308594v17.769531zm-7.015625-48.59375c4.695313 0 8.515625 3.820312 8.515625 8.515625s-3.820312 8.515625-8.515625 8.515625-8.515625-3.820312-8.515625-8.515625 3.820312-8.515625 8.515625-8.515625zm0 0"/>
    <path d="m239.46875 319.625v-57.847656c10.019531-3.144532 16.03125-11.953125 16.03125-22.308594s-6.011719-19.167969-16.03125-22.3125v-57.84375h-15.03125v57.84375c-9.015625 3.144531-16.03125 11.957031-16.03125 22.3125s7.015625 19.164062 16.03125 22.308594v57.847656zm-7.015625-88.675781c4.695313 0 8.515625 3.824219 8.515625 8.519531s-3.820312 8.515625-8.515625 8.515625-8.515625-3.820313-8.515625-8.515625 3.820312-8.519531 8.515625-8.519531zm0 0"/>
    <path d="m272.53125 199.390625c0 10.355469 7.015625 19.164063 16.03125 22.308594v97.925781h15.03125v-97.925781c10.019531-3.144531 16.03125-11.953125 16.03125-22.308594s-6.011719-19.167969-16.03125-22.3125v-17.765625h-15.03125v17.765625c-9.015625 3.144531-16.03125 11.957031-16.03125 22.3125zm24.046875 8.515625c-4.695313 0-8.515625-3.820312-8.515625-8.515625 0-4.699219 3.820312-8.519531 8.515625-8.519531s8.519531 3.820312 8.519531 8.519531c0 4.695313-3.824218 8.515625-8.519531 8.515625zm0 0"/>
    <path d="m352.6875 207.40625v33.800781c-9.015625 3.140625-16.03125 11.953125-16.03125 22.308594s7.015625 19.164063 16.03125 22.308594v33.800781h15.03125v-33.800781c10.019531-3.144531 16.03125-11.953125 16.03125-22.308594s-6.011719-19.167969-16.03125-22.308594v-33.800781zm8.015625 64.625c-4.695313 0-8.515625-3.820312-8.515625-8.515625s3.820312-8.519531 8.515625-8.519531 8.519531 3.824218 8.519531 8.519531-3.824218 8.515625-8.519531 8.515625zm0 0"/>
    <path d="m408.796875 71.640625c-17.402344 0-31.558594 14.15625-31.558594 31.5625 0 17.402344 14.15625 31.558594 31.558594 31.558594 17.40625 0 31.5625-14.15625 31.5625-31.558594 0-17.40625-14.15625-31.5625-31.5625-31.5625zm0 48.09375c-9.113281 0-16.53125-7.417969-16.53125-16.53125 0-9.117187 7.417969-16.535156 16.53125-16.535156 9.117187 0 16.535156 7.417969 16.535156 16.535156 0 9.113281-7.417969 16.53125-16.535156 16.53125zm0 0"/>
    <path d="m512 127.25v-47.09375h-35.554688c-.914062-3.003906-1.960937-5.421875-3.160156-7.890625l25.492188-25.617187-33.300782-33.363282-25.742187 25.460938c-2.46875-1.199219-4.886719-2.277344-7.890625-3.191406v-35.554688h-47.09375v35.554688c-2.003906.914062-4.917969 1.960937-7.386719 3.160156l-25.367187-25.492188-33.238282 33.300782 25.523438 25.742187c-1.199219 2.46875-2.214844 4.886719-3.128906 7.890625h-36.558594v47.09375h36.558594c.914062 2.003906 1.960937 4.917969 3.160156 7.386719l-25.492188 25.367187 33.300782 33.238282 25.242187-25.523438c2.46875 1.199219 5.382813 2.214844 7.386719 3.128906v36.558594h47.09375v-36.558594c3.003906-.914062 5.421875-1.960937 7.890625-3.160156l25.617187 25.492188 33.363282-33.300782-25.460938-25.242187c1.199219-2.46875 2.277344-5.382813 3.191406-7.386719zm-15.03125-32.0625v17.03125h-17.054688c.332032-3.003906.523438-5.632812.523438-8.515625s-.191406-6.511719-.523438-8.515625zm-88.171875 64.625c-31.214844 0-56.609375-25.394531-56.609375-56.609375s25.394531-56.613281 56.609375-56.613281 56.613281 25.398437 56.613281 56.613281-25.398437 56.609375-56.613281 56.609375zm56.679687-125.335938 12.046876 12.046876-12.441407 12.4375c-3.523437-4.476563-7.570312-8.519532-12.042969-12.042969zm-65.695312-19.445312h17.03125v17.054688c-2.003906-.332032-5.632812-.523438-8.515625-.523438s-5.511719.191406-8.515625.523438zm-59.707031 31.492188 12.042969-12.046876 12.441406 12.441407c-4.476563 3.523437-8.519532 7.570312-12.046875 12.042969zm-20.449219 65.695312v-17.03125h18.058594c-.332032 2.003906-.523438 5.632812-.523438 8.515625s.191406 5.511719.523438 8.515625zm32.496094 59.707031-12.046875-12.046875 12.441406-12.4375c3.523437 4.476563 7.566406 8.519532 12.042969 12.046875zm64.691406 20.449219h-17.03125v-18.058594c3.003906.332032 5.632812.523438 8.515625.523438s6.511719-.191406 8.515625-.523438zm60.710938-32.496094-12.046876 12.046875-12.4375-12.441406c4.476563-3.523437 8.519532-7.566406 12.046876-12.042969zm0 0"/>
</svg>