<?xml version='1.0' encoding='iso-8859-1'?>
<svg version="1.1" xmlns="http://www.w3.org/2000/svg" viewBox="0 0 470.001 470.001"
     enable-background="new 0 0 470.001 470.001">
    <g>
        <path d="m137.287,303.294c-1.929,0.493-3.582,1.734-4.596,3.448-1.014,1.713-1.304,3.76-0.808,5.688l15.815,61.41c0.872,3.385 3.918,5.632 7.258,5.632 0.619,0 1.249-0.077 1.876-0.239 4.011-1.032 6.425-5.122 5.393-9.133l-13.942-54.137 79.217-20.278v76.816c0,4.143 3.358,7.5 7.5,7.5s7.5-3.357 7.5-7.5v-76.816l79.217,20.278-13.942,54.137c-1.033,4.011 1.381,8.1 5.393,9.133 4.008,1.034 8.1-1.381 9.134-5.393l15.815-61.41c0.497-1.928 0.206-3.975-0.808-5.688-1.014-1.714-2.667-2.955-4.596-3.448l-90.213-23.093v-24.654c0-0.036 0.005-0.071 0.005-0.106s-0.005-0.071-0.005-0.106v-210.563c38.345,31.593 60.854,78.766 60.854,128.899v74.27h-38.348c-4.142,0-7.5,3.357-7.5,7.5s3.358,7.5 7.5,7.5h65.848c4.142,0 7.5-3.357 7.5-7.5s-3.358-7.5-7.5-7.5h-12.5v-74.27c0-58.671-28.288-113.615-75.854-147.81v-18.361c0-4.143-3.358-7.5-7.5-7.5s-7.5,3.357-7.5,7.5v240.44h-88.343c-4.142,0-7.5,3.357-7.5,7.5s3.358,7.5 7.5,7.5h88.343v17.26l-90.213,23.094z"/>
        <path d="m7.5,410.001c14.17,0 27.804-5.631 37.928-15.386 10.123,9.756 23.744,15.386 37.894,15.386 14.186,0 27.828-5.627 37.955-15.379 10.102,9.751 23.725,15.379 37.903,15.379 14.375,0 27.787-5.511 37.932-15.366 10.101,9.743 23.719,15.366 37.891,15.366 14.16,0 27.784-5.622 37.906-15.366 10.123,9.855 23.528,15.366 37.915,15.366 14.169,0 27.803-5.631 37.927-15.386 10.124,9.755 23.757,15.386 37.928,15.386 14.178,0 27.8-5.627 37.902-15.378 10.124,9.75 23.754,15.378 37.919,15.378 4.142,0 7.5-3.357 7.5-7.5s-3.358-7.5-7.5-7.5c-12.674,0-24.3-5.896-31.896-16.174-1.414-1.914-3.652-3.043-6.032-3.043-2.389,0.002-4.628,1.136-6.04,3.054-7.45,10.121-19.358,16.163-31.854,16.163-12.489,0-24.412-6.046-31.896-16.174-1.414-1.914-3.652-3.043-6.032-3.043s-4.618,1.129-6.032,3.043c-7.484,10.127-19.408,16.174-31.896,16.174-12.65,0-24.264-5.896-31.863-16.175-1.415-1.913-3.653-3.042-6.032-3.042-2.379,0-4.617,1.129-6.031,3.043-7.484,10.127-19.408,16.174-31.896,16.174-12.497,0-24.405-6.042-31.855-16.163-1.411-1.916-3.646-3.049-6.025-3.054-2.389,0-4.623,1.124-6.038,3.03-7.633,10.287-19.262,16.187-31.904,16.187-12.496,0-24.405-6.042-31.854-16.163-1.412-1.918-3.651-3.052-6.033-3.054-2.386,0-4.625,1.129-6.039,3.043-7.483,10.128-19.42,16.174-31.932,16.174-12.464,0-24.375-6.047-31.864-16.176-1.415-1.913-3.652-3.041-6.032-3.041s-4.617,1.13-6.031,3.043c-7.595,10.278-19.22,16.174-31.895,16.174-4.142,0-7.5,3.357-7.5,7.5s3.36,7.5 7.502,7.5z"/>
        <path d="m462.5,455.001c-12.674,0-24.3-5.896-31.896-16.174-1.414-1.914-3.652-3.043-6.032-3.043-2.389,0.002-4.628,1.136-6.04,3.054-7.45,10.121-19.358,16.163-31.854,16.163-12.489,0-24.412-6.046-31.896-16.174-1.414-1.914-3.652-3.043-6.032-3.043s-4.618,1.129-6.032,3.043c-7.484,10.127-19.408,16.174-31.896,16.174-12.65,0-24.264-5.896-31.863-16.175-1.415-1.913-3.653-3.042-6.032-3.042-2.379,0-4.617,1.129-6.031,3.043-7.484,10.127-19.408,16.174-31.896,16.174-12.497,0-24.405-6.042-31.855-16.163-1.411-1.916-3.646-3.049-6.025-3.054-2.389,0-4.623,1.124-6.038,3.03-7.633,10.287-19.262,16.187-31.904,16.187-12.496,0-24.405-6.042-31.854-16.163-1.412-1.918-3.651-3.052-6.033-3.054-2.386,0-4.625,1.129-6.039,3.043-7.483,10.128-19.42,16.174-31.932,16.174-12.464,0-24.375-6.047-31.864-16.176-1.415-1.913-3.652-3.041-6.032-3.041s-4.617,1.13-6.031,3.043c-7.595,10.278-19.22,16.174-31.895,16.174-4.142,0-7.5,3.357-7.5,7.5s3.358,7.5 7.5,7.5c14.17,0 27.804-5.631 37.928-15.386 10.123,9.756 23.744,15.386 37.894,15.386 14.186,0 27.828-5.627 37.955-15.379 10.102,9.751 23.725,15.379 37.903,15.379 14.375,0 27.787-5.511 37.932-15.366 10.101,9.743 23.719,15.366 37.891,15.366 14.16,0 27.784-5.622 37.906-15.366 10.123,9.855 23.528,15.366 37.915,15.366 14.169,0 27.803-5.631 37.927-15.386 10.124,9.755 23.757,15.386 37.928,15.386 14.178,0 27.8-5.627 37.902-15.378 10.124,9.75 23.754,15.378 37.919,15.378 4.142,0 7.5-3.357 7.5-7.5s-3.355-7.5-7.498-7.5z"/>
    </g>
</svg>
