<?xml version="1.0" encoding="iso-8859-1"?>
<svg version="1.1" id="Capa_1" xmlns="http://www.w3.org/2000/svg" x="0px"
     y="0px"
     viewBox="0 0 512.003 512.003" style="enable-background:new 0 0 512.003 512.003;" xml:space="preserve">
<g>
	<g>
		<path d="M417.436,447.579c-5.104-0.766-10.202-1.579-15.153-2.417c-4.089-0.694-7.956,2.06-8.647,6.143
			c-0.691,4.084,2.059,7.955,6.143,8.646c5.043,0.854,10.235,1.683,15.432,2.462c0.377,0.057,0.752,0.084,1.122,0.084
			c3.65,0,6.85-2.669,7.408-6.388C424.355,452.013,421.532,448.193,417.436,447.579z"/>
	</g>
</g>
<g>
	<g>
		<path d="M505.466,399.462c-49.281-6.396-109.745-26.183-161.742-52.932c-56.672-29.153-97.859-63.163-115.974-95.763
			c-11.824-21.277-13.507-41.532-5.004-60.201c5.417-11.893,15.322-20.358,29.443-25.16c7.763-2.64,14.788-3.427,18.336-3.663
			c0.659,0.932,1.313,1.868,1.948,2.82c6.153,9.23,14.913,14.185,24.686,14.185c2.22,0,4.493-0.256,6.799-0.775
			c14.553-3.277,26.699-16.503,28.88-31.448c2.274-15.583-6.315-30.074-23.567-39.756c-1.91-1.072-3.836-2.089-5.767-3.079
			c-1.291-6.327-6.82-26.586-26.533-40.559c-19.14-13.566-45.416-17.025-78.099-10.273c-44.203,9.127-87.824,35.04-133.354,79.22
			c-2.973,2.885-3.044,7.633-0.16,10.605c1.471,1.516,3.426,2.277,5.383,2.277c1.882,0,3.766-0.704,5.222-2.117
			c43.421-42.133,84.617-66.763,125.941-75.296c28.324-5.85,50.595-3.264,66.195,7.683c8.694,6.101,13.863,13.917,16.886,20.345
			c-2.815-1.026-5.639-1.965-8.466-2.81c-3.972-1.192-8.147,1.068-9.334,5.037c-1.187,3.969,1.069,8.147,5.038,9.334
			c10.016,2.994,20.01,7.271,29.706,12.713c11.877,6.666,17.433,15.142,16.065,24.51c-1.276,8.742-8.89,17.08-17.333,18.981
			c-6.333,1.426-11.618-0.96-15.709-7.097c-14.046-21.069-33.478-37.946-54.716-47.521c-5.125-2.311-10.289-4.171-15.465-5.589
			c8.81-1.305,17.884-1.827,27.153-1.314c4.137,0.241,7.674-2.937,7.904-7.072c0.23-4.135-2.937-7.675-7.073-7.904
			c-40.991-2.287-84.77,13.254-126.584,44.908c-26.275,19.891-43.909,40.041-49.348,46.575
			c-10.789,2.822-22.049,6.878-33.282,12.207c6.035-7.84,13.367-16.833,21.892-26.327c2.767-3.082,2.512-7.824-0.57-10.591
			c-3.082-2.769-7.824-2.513-10.591,0.569c-27.06,30.135-42.23,54.868-43.154,56.387c-1.541,2.497-1.53,5.779,0.287,8.313
			c2.414,3.365,7.1,4.137,10.466,1.722c20.224-14.508,44.176-25.07,67.444-29.741c14.588-2.929,34.957-4.192,44.352,1.888
			c6.24,4.038,8.63,9.811,6.236,15.065c-3.227,7.084-14.419,11.946-32.15,6.835c-18.226-5.251-34.479-5.222-48.31,0.089
			c-12.438,4.776-22.232,13.653-28.322,25.674c-6.06,11.96-7.934,26.089-5.277,39.783c2.396,12.35,8.359,23.356,16.981,31.535
			c-3.367,6.114-6.051,12.96-7.898,20.586c-5.145,21.243-0.936,44.636,12.172,67.648c9.7,17.03,20.826,27.896,21.295,28.35
			c1.457,1.411,3.338,2.113,5.217,2.113c1.959,0,3.917-0.764,5.388-2.281c2.882-2.976,2.807-7.724-0.168-10.605
			c-0.397-0.386-39.658-39.027-29.326-81.693c5.021-20.733,17.377-35.495,36.725-43.876c16.201-7.019,36.81-8.934,56.541-5.259
			c23.642,4.405,41.054,16.273,39.64,27.019c-0.363,2.764-1.384,4.688-3.12,5.885c-2.206,1.522-5.668,1.922-9.259,1.072
			c-0.22-0.052-0.44-0.09-0.659-0.122c-2.638-3.584-6.04-6.828-10.186-9.592c-3.445-2.298-8.103-1.367-10.4,2.08
			c-2.298,3.446-1.367,8.103,2.08,10.4c9.331,6.221,10.448,13.659,9.742,18.805c-0.971,7.071-6.061,13.635-12.103,15.605
			c-4.678,1.524-9.18,0.088-13.379-4.271c-16.615-17.242-37.12-24.752-53.51-19.599c-10.864,3.415-18.125,11.843-19.919,23.123
			c-0.651,4.091,2.138,7.935,6.229,8.586c4.084,0.65,7.935-2.138,8.585-6.229c1.128-7.093,5.845-9.99,9.604-11.171
			c13.077-4.109,28.757,5.887,38.211,15.697c5.975,6.2,13.203,9.449,20.63,9.449c2.724,0,5.476-0.438,8.201-1.326
			c7.729-2.521,14.279-8.35,18.316-15.768c6.979,7.438,18.994,18.645,37.625,31.232c29.553,19.967,82.456,47.593,166.659,65.815
			c0.535,0.116,1.068,0.172,1.594,0.172c3.455,0,6.563-2.401,7.323-5.915c0.876-4.049-1.695-8.041-5.744-8.917
			c-81.188-17.571-132.074-43.922-160.465-62.933c-30.509-20.43-42.244-36.962-42.476-37.294c-0.083-0.12-0.175-0.23-0.263-0.344
			c-0.034-0.711-0.092-1.417-0.172-2.119c4.531-0.303,8.767-1.685,12.254-4.091c5.277-3.639,8.554-9.267,9.476-16.276
			c1.38-10.489-3.922-20.762-14.929-28.923c-9.217-6.835-22.298-12.09-36.834-14.799c-33.136-6.172-71.454,0.905-94.014,27.217
			c-12.427-13.292-15.656-34.914-7.002-51.993c4.673-9.225,19.79-29.457,59.098-18.128c26.322,7.583,44.056-2.085,49.954-15.031
			c5.53-12.142,0.813-25.755-11.738-33.877c-8.831-5.714-23.381-7.866-40.721-6.229c8.362-8.588,20.093-19.624,34.429-30.447
			c10.563-7.974,23.43-16.456,37.982-23.689c0.044-0.016,0.089-0.027,0.133-0.044c19.228-7.425,40.125-6.511,60.432,2.646
			c12.816,5.778,24.918,14.628,35.291,25.66c-15.153,2.808-38.838,11.197-50.269,36.293c-10.584,23.239-8.719,48.037,5.543,73.704
			c41.924,75.447,185.901,142.918,288.897,156.283c0.328,0.043,0.653,0.063,0.975,0.063c3.712,0,6.938-2.756,7.428-6.536
			C512.471,403.757,509.573,399.995,505.466,399.462z"/>
	</g>
</g>
<g>
	<g>
		<path d="M190.143,251.118c-1.188-2.944-2.271-5.906-3.217-8.803c-1.286-3.937-5.522-6.088-9.458-4.8
			c-3.938,1.285-6.087,5.52-4.801,9.457c1.051,3.219,2.25,6.502,3.565,9.76c1.179,2.922,3.989,4.695,6.958,4.695
			c0.935,0,1.885-0.176,2.805-0.547C189.836,259.329,191.693,254.959,190.143,251.118z"/>
	</g>
</g>
<g>
	<g>
		<path d="M214.121,136.169c-2.316-3.434-6.979-4.339-10.412-2.022c-1.653,1.115-40.444,27.937-37.098,82.149
			c0.246,3.978,3.547,7.038,7.479,7.038c0.156,0,0.312-0.005,0.469-0.015c4.134-0.255,7.279-3.813,7.024-7.947
			c-2.803-45.396,29.135-67.846,30.535-68.805C215.536,144.247,216.434,139.595,214.121,136.169z"/>
	</g>
</g>
<g>
	<g>
		<path d="M172.491,435.17c-4.592-2.137-9.123-4.444-13.466-6.858c-3.62-2.012-8.187-0.707-10.199,2.912
			c-2.012,3.621-0.708,8.188,2.913,10.199c4.655,2.587,9.507,5.059,14.422,7.347c1.024,0.477,2.101,0.702,3.16,0.702
			c2.826,0,5.533-1.605,6.804-4.337C177.874,441.38,176.247,436.918,172.491,435.17z"/>
	</g>
</g>
<g>
	<g>
		<path d="M132.969,411.026c-25.625-20.183-36.068-39.501-36.171-39.693c-1.93-3.655-6.455-5.06-10.118-3.138
			c-3.667,1.926-5.08,6.46-3.154,10.127c0.47,0.896,11.834,22.178,40.162,44.487c1.375,1.084,3.011,1.608,4.636,1.608
			c2.219,0,4.417-0.98,5.897-2.859C136.784,418.304,136.223,413.588,132.969,411.026z"/>
	</g>
</g>
</svg>
