<?xml version="1.0" encoding="UTF-8" standalone="no"?>
<svg
   xmlns:dc="http://purl.org/dc/elements/1.1/"
   xmlns:cc="http://creativecommons.org/ns#"
   xmlns:rdf="http://www.w3.org/1999/02/22-rdf-syntax-ns#"
   xmlns:svg="http://www.w3.org/2000/svg"
   xmlns="http://www.w3.org/2000/svg"
   xmlns:sodipodi="http://sodipodi.sourceforge.net/DTD/sodipodi-0.dtd"
   xmlns:inkscape="http://www.inkscape.org/namespaces/inkscape"
   viewBox="0 0 158.42281 188.99206"
   height="188.99207"
   width="158.42281"
   xml:space="preserve"
   id="svg2"
   version="1.1"
   sodipodi:docname="bareboat-necessities-logo.svg"
   inkscape:version="0.92.2 5c3e80d, 2017-08-06"><sodipodi:namedview
     pagecolor="#ffffff"
     bordercolor="#666666"
     borderopacity="1"
     objecttolerance="10"
     gridtolerance="10"
     guidetolerance="10"
     inkscape:pageopacity="0"
     inkscape:pageshadow="2"
     inkscape:window-width="1920"
     inkscape:window-height="1036"
     id="bareboat-necessities"
     showgrid="false"
     inkscape:zoom="1.212"
     inkscape:cx="157.55738"
     inkscape:cy="119.17624"
     inkscape:window-x="3"
     inkscape:window-y="0"
     inkscape:window-maximized="0"
     inkscape:current-layer="svg2" /><metadata
     id="metadata8"><rdf:RDF><cc:Work
         rdf:about=""><dc:format>image/svg+xml</dc:format><dc:type
           rdf:resource="http://purl.org/dc/dcmitype/StillImage" /><dc:title></dc:title></cc:Work></rdf:RDF></metadata><defs
     id="defs6"><clipPath
       id="clipPath28"
       clipPathUnits="userSpaceOnUse"><path
         id="path26"
         d="M 0,500 H 500 V 0 H 0 Z"
         inkscape:connector-curvature="0" /></clipPath><clipPath
       id="clipPath68"
       clipPathUnits="userSpaceOnUse"><path
         id="path66"
         d="M 0,500 H 500 V 0 H 0 Z"
         inkscape:connector-curvature="0" /></clipPath><clipPath
       id="clipPath108"
       clipPathUnits="userSpaceOnUse"><path
         id="path106"
         d="M 0,500 H 500 V 0 H 0 Z"
         inkscape:connector-curvature="0" /></clipPath><clipPath
       id="clipPath148"
       clipPathUnits="userSpaceOnUse"><path
         id="path146"
         d="M 0,500 H 500 V 0 H 0 Z"
         inkscape:connector-curvature="0" /></clipPath><clipPath
       id="clipPath188"
       clipPathUnits="userSpaceOnUse"><path
         id="path186"
         d="M 0,500 H 500 V 0 H 0 Z"
         inkscape:connector-curvature="0" /></clipPath></defs><g
     transform="matrix(1.3333333,0,0,-1.3333333,-133.97009,281.66399)"
     id="g10"><g
       id="g102"><g
         clip-path="url(#clipPath108)"
         id="g104"><g
           transform="translate(161.0337,200.1182)"
           id="g110"><path
             id="path112"
             style="fill:#febd29;fill-opacity:1;fill-rule:nonzero;stroke:none"
             d="m 0,0 c 0,0 7.705,-24.039 -9.759,-60.758 0,0 37.423,9.316 54.774,3.163 0,0 -10.035,46.67 -45.015,57.595"
             inkscape:connector-curvature="0" /></g><g
           transform="translate(157.2051,211.248)"
           id="g114"><path
             id="path116"
             style="fill:#febd29;fill-opacity:1;fill-rule:nonzero;stroke:none"
             d="m 0,0 c 0,0 -23.363,-48.003 -17.346,-76.43 0,0 -23.696,2.724 -34.346,-4.044 0,0 19.327,58.097 51.692,80.474"
             inkscape:connector-curvature="0" /></g><g
           transform="translate(180.3569,137.0811)"
           id="g118"><path
             id="path120"
             style="fill:#003154;fill-opacity:1;fill-rule:nonzero;stroke:none"
             d="m 0,0 c -6.183,1.61 -12.851,0.719 -19.152,0.354 -3.931,-0.226 -7.822,-0.621 -11.693,-1.191 -0.03,3.075 -0.173,6.156 -0.091,9.189 0.191,7.046 0.749,14.045 1.665,21.054 1.829,13.991 5.015,27.589 10.226,41.035 0.289,0.746 -1.06,1.283 -1.406,0.518 -5.957,-13.21 -10.783,-27.049 -13.484,-40.947 -1.343,-6.916 -2.196,-13.95 -2.548,-20.945 -0.18,-3.575 -0.417,-7.265 -0.244,-10.917 -0.505,-0.098 -1.01,-0.195 -1.516,-0.301 -1.423,-0.297 -1.052,-2.451 0.336,-2.477 6.526,-0.128 13.015,0.069 19.538,0.404 C -12.287,-3.911 -5.889,-4.328 0,-2.576 1.239,-2.207 1.302,-0.34 0,0"
             inkscape:connector-curvature="0" /></g><g
           transform="translate(213.7651,130.1152)"
           id="g122"><path
             id="path124"
             style="fill:#1380c5;fill-opacity:1;fill-rule:nonzero;stroke:none"
             d="m 0,0 c -3.596,-8.376 -15.875,-9.048 -23.595,-9.686 -11.168,-0.923 -22.314,0.178 -33.374,1.722 -10.028,1.401 -20.005,3.588 -30.081,4.584 -8.882,0.878 -17.98,0.462 -25.656,-4.541 -1.321,-0.86 -0.168,-2.84 1.235,-2.113 9.982,5.167 21.459,2.605 31.945,0.659 11.036,-2.048 22.035,-4.293 33.215,-5.421 10.702,-1.08 22.197,-1.591 32.727,1.026 C -6.42,-11.989 0.218,-8.467 2.373,-1 2.769,0.372 0.592,1.38 0,0"
             inkscape:connector-curvature="0" /></g><g
           transform="translate(213.7651,120.6846)"
           id="g126"><path
             id="path128"
             style="fill:#1380c5;fill-opacity:1;fill-rule:nonzero;stroke:none"
             d="m 0,0 c -3.596,-8.376 -15.875,-9.048 -23.595,-9.686 -11.168,-0.923 -22.314,0.178 -33.374,1.722 -10.028,1.401 -20.005,3.588 -30.081,4.584 -8.882,0.878 -17.98,0.462 -25.656,-4.541 -1.321,-0.86 -0.168,-2.84 1.235,-2.113 9.982,5.167 21.459,2.605 31.945,0.659 11.036,-2.048 22.035,-4.293 33.215,-5.421 10.702,-1.08 22.197,-1.591 32.727,1.026 C -6.42,-11.989 0.218,-8.467 2.373,-1 2.769,0.372 0.592,1.38 0,0"
             inkscape:connector-curvature="0" /></g></g></g><text
       id="text132"
       style="font-variant:normal;font-weight:900;font-stretch:normal;font-size:21.21389961px;font-family:'Helvetica';writing-mode:lr-tb;fill:#000000;fill-opacity:1;fill-rule:nonzero;stroke:none"
       transform="matrix(1,0,0,-1,100.938,79.418)"><tspan
         id="tspan130"
         y="0"
         x="0 14 29 45 59 73 89 104">BAREBOAT</tspan></text>
<text
       id="text140"
       style="font-variant:normal;font-weight:900;font-stretch:normal;font-size:8.04139996px;font-family:'Helvetica';writing-mode:lr-tb;fill:#000000;fill-opacity:1;fill-rule:nonzero;stroke:none"
       transform="scale(1,-1)"
       x="118.43647"
       y="-69.617813"><tspan
         id="tspan138"
         y="-69.617813"
         x="118.43647 126.43647 134.43648 142.43648 150.43648 158.43648 166.43648 171.43648 179.43648 185.43648 193.43648">NECESSITIES</tspan></text>
</g></svg>
