<?xml version="1.0" encoding="utf-8"?>
<svg class="diagram" xmlns="http://www.w3.org/2000/svg" version="1.1" height="544" width="896"
     style="margin:0 auto 0 auto;">
    <style>
        svg.diagram {
        display:block;
        font-family:Menlo,Consolas,monospace;
        font-size:13.08692265257565px;
        text-align:center;
        stroke-linecap:round;
        stroke-width:2px;
        page-break-inside:avoid;
        stroke:#000;
        fill:#000
        }
        svg.diagram .opendot {
        fill:#fff
        }
        svg.diagram .shadeddot {
        fill:#CCC
        }
        svg.diagram .dotteddot {
        stroke:#000;
        stroke-dasharray:4;
        fill:none
        }
        svg.diagram text {
        stroke:none
        }
    </style>
    <g transform="translate(8,16 )">
        <path d="M 16,48 L 16,416 " style="fill:none;"/>
        <path d="M 48,48 L 48,384 " style="fill:none;"/>
        <path d="M 64,352 L 64,384 " style="fill:none;"/>
        <path d="M 80,384 L 80,400 " style="fill:none;"/>
        <path d="M 96,352 L 96,384 " style="fill:none;"/>
        <path d="M 120,352 L 120,384 " style="fill:none;"/>
        <path d="M 144,384 L 144,392 " style="fill:none;"/>
        <path d="M 144,408 L 144,416 " style="fill:none;"/>
        <path d="M 168,352 L 168,384 " style="fill:none;"/>
        <path d="M 192,80 L 192,112 " style="fill:none;"/>
        <path d="M 192,160 L 192,192 " style="fill:none;"/>
        <path d="M 192,240 L 192,272 " style="fill:none;"/>
        <path d="M 192,320 L 192,352 " style="fill:none;"/>
        <path d="M 208,48 L 208,80 " style="fill:none;"/>
        <path d="M 208,112 L 208,320 " style="fill:none;"/>
        <path d="M 208,352 L 208,384 " style="fill:none;"/>
        <path d="M 240,240 L 240,272 " style="fill:none;"/>
        <path d="M 288,112 L 288,176 " style="fill:none;"/>
        <path d="M 320,112 L 320,160 " style="fill:none;"/>
        <path d="M 344,240 L 344,256 " style="fill:none;"/>
        <path d="M 352,320 L 352,328 " style="fill:none;"/>
        <path d="M 352,344 L 352,400 " style="fill:none;"/>
        <path d="M 368,208 L 368,224 " style="fill:none;"/>
        <path d="M 392,240 L 392,256 " style="fill:none;"/>
        <path d="M 408,368 L 408,400 " style="fill:none;"/>
        <path d="M 416,112 L 416,160 " style="fill:none;"/>
        <path d="M 416,224 L 416,272 " style="fill:none;"/>
        <path d="M 432,304 L 432,320 " style="fill:none;"/>
        <path d="M 456,80 L 456,240 " style="fill:none;"/>
        <path d="M 456,288 L 456,320 " style="fill:none;"/>
        <path d="M 496,96 L 496,224 " style="fill:none;"/>
        <path d="M 496,272 L 496,288 " style="fill:none;"/>
        <path d="M 552,288 L 552,320 " style="fill:none;"/>
        <path d="M 568,368 L 568,400 " style="fill:none;"/>
        <path d="M 576,304 L 576,336 " style="fill:none;"/>
        <path d="M 600,320 L 600,384 " style="fill:none;"/>
        <path d="M 704,256 L 704,304 " style="fill:none;"/>
        <path d="M 712,416 L 712,464 " style="fill:none;"/>
        <path d="M 736,256 L 736,320 " style="fill:none;"/>
        <path d="M 744,400 L 744,448 " style="fill:none;"/>
        <path d="M 776,256 L 776,464 " style="fill:none;"/>
        <path d="M 792,96 L 792,224 " style="fill:none;"/>
        <path d="M 832,80 L 832,240 " style="fill:none;"/>
        <path d="M 880,48 L 880,416 " style="fill:none;"/>
        <path d="M 32,32 L 864,32 " style="fill:none;"/>
        <path d="M 48,48 L 208,48 " style="fill:none;"/>
        <path d="M 472,64 L 816,64 " style="fill:none;"/>
        <path d="M 192,80 L 208,80 " style="fill:none;"/>
        <path d="M 208,96 L 272,96 " style="fill:none;"/>
        <path d="M 336,96 L 400,96 " style="fill:none;"/>
        <path d="M 496,96 L 792,96 " style="fill:none;"/>
        <path d="M 192,112 L 208,112 " style="fill:none;"/>
        <path d="M 344,112 L 392,112 " style="fill:none;"/>
        <path d="M 344,144 L 392,144 " style="fill:none;"/>
        <path d="M 192,160 L 208,160 " style="fill:none;"/>
        <path d="M 336,176 L 400,176 " style="fill:none;"/>
        <path d="M 192,192 L 208,192 " style="fill:none;"/>
        <path d="M 304,192 L 352,192 " style="fill:none;"/>
        <path d="M 360,224 L 376,224 " style="fill:none;"/>
        <path d="M 496,224 L 792,224 " style="fill:none;"/>
        <path d="M 192,240 L 240,240 " style="fill:none;"/>
        <path d="M 472,256 L 816,256 " style="fill:none;"/>
        <path d="M 192,272 L 240,272 " style="fill:none;"/>
        <path d="M 360,272 L 376,272 " style="fill:none;"/>
        <path d="M 416,272 L 496,272 " style="fill:none;"/>
        <path d="M 456,288 L 488,288 " style="fill:none;"/>
        <path d="M 504,288 L 552,288 " style="fill:none;"/>
        <path d="M 432,304 L 448,304 " style="fill:none;"/>
        <path d="M 576,304 L 704,304 " style="fill:none;"/>
        <path d="M 192,320 L 208,320 " style="fill:none;"/>
        <path d="M 352,320 L 432,320 " style="fill:none;"/>
        <path d="M 456,320 L 552,320 " style="fill:none;"/>
        <path d="M 600,320 L 736,320 " style="fill:none;"/>
        <path d="M 208,336 L 576,336 " style="fill:none;"/>
        <path d="M 64,352 L 96,352 " style="fill:none;"/>
        <path d="M 120,352 L 168,352 " style="fill:none;"/>
        <path d="M 192,352 L 208,352 " style="fill:none;"/>
        <path d="M 408,368 L 568,368 " style="fill:none;"/>
        <path d="M 48,384 L 72,384 " style="fill:none;"/>
        <path d="M 88,384 L 136,384 " style="fill:none;"/>
        <path d="M 152,384 L 208,384 " style="fill:none;"/>
        <path d="M 360,384 L 408,384 " style="fill:none;"/>
        <path d="M 568,384 L 592,384 " style="fill:none;"/>
        <path d="M 608,384 L 664,384 " style="fill:none;"/>
        <path d="M 680,384 L 728,384 " style="fill:none;"/>
        <path d="M 80,400 L 352,400 " style="fill:none;"/>
        <path d="M 408,400 L 568,400 " style="fill:none;"/>
        <path d="M 144,416 L 712,416 " style="fill:none;"/>
        <path d="M 32,432 L 688,432 " style="fill:none;"/>
        <path d="M 800,432 L 864,432 " style="fill:none;"/>
        <path d="M 392,176 L 416,224 " style="fill:none;"/>
        <path d="M 32,32 C 15.2,32 16,48 16,48 " style="fill:none;"/>
        <path d="M 864,32 C 880.8,32 880,48 880,48 " style="fill:none;"/>
        <path d="M 472,64 C 455.2,64 456,80 456,80 " style="fill:none;"/>
        <path d="M 816,64 C 832.8,64 832,80 832,80 " style="fill:none;"/>
        <path d="M 272,96 C 288.8,96 288,112 288,112 " style="fill:none;"/>
        <path d="M 336,96 C 319.2,96 320,112 320,112 " style="fill:none;"/>
        <path d="M 400,96 C 416.8,96 416,112 416,112 " style="fill:none;"/>
        <path d="M 344,112 C 327.2,112 328,128 328,128 " style="fill:none;"/>
        <path d="M 392,112 C 408.8,112 408,128 408,128 " style="fill:none;"/>
        <path d="M 344,144 C 327.2,144 328,128 328,128 " style="fill:none;"/>
        <path d="M 392,144 C 408.8,144 408,128 408,128 " style="fill:none;"/>
        <path d="M 336,176 C 319.2,176 320,160 320,160 " style="fill:none;"/>
        <path d="M 400,176 C 416.8,176 416,160 416,160 " style="fill:none;"/>
        <path d="M 304,192 C 287.2,192 288,176 288,176 " style="fill:none;"/>
        <path d="M 352,192 C 368.8,192 368,208 368,208 " style="fill:none;"/>
        <path d="M 360,224 C 343.2,224 344,240 344,240 " style="fill:none;"/>
        <path d="M 376,224 C 392.8,224 392,240 392,240 " style="fill:none;"/>
        <path d="M 472,256 C 455.2,256 456,240 456,240 " style="fill:none;"/>
        <path d="M 816,256 C 832.8,256 832,240 832,240 " style="fill:none;"/>
        <path d="M 360,272 C 343.2,272 344,256 344,256 " style="fill:none;"/>
        <path d="M 376,272 C 392.8,272 392,256 392,256 " style="fill:none;"/>
        <path d="M 728,384 C 744.8,384 744,400 744,400 " style="fill:none;"/>
        <path d="M 32,432 C 15.2,432 16,416 16,416 " style="fill:none;"/>
        <path d="M 864,432 C 880.8,432 880,416 880,416 " style="fill:none;"/>
        <polygon points="784,464 772,458.4 772,469.6 " style="stroke:none" transform="rotate(90,776,464 )"/>
        <polygon points="752,448 740,442.4 740,453.6 " style="stroke:none" transform="rotate(90,744,448 )"/>
        <polygon points="720,464 708,458.4 708,469.6 " style="stroke:none" transform="rotate(90,712,464 )"/>
        <path d="M 352,344  C 358,344 358,328 352,328 " style="fill:none;"/>
        <polygon points="216,336 204,330.4 204,341.6 " style="stroke:none" transform="rotate(180,208,336 )"/>
        <polygon points="216,96 204,90.4 204,101.6 " style="stroke:none" transform="rotate(180,208,96 )"/>
        <rect x="196" y="328" width="8" height="16" stroke="none" fill="rgb(0,0,0)"/>
        <rect x="196" y="248" width="8" height="16" stroke="none" fill="rgb(0,0,0)"/>
        <rect x="196" y="168" width="8" height="16" stroke="none" fill="rgb(0,0,0)"/>
        <rect x="196" y="88" width="8" height="16" stroke="none" fill="rgb(0,0,0)"/>
        <path d="M 144,408  C 150,408 150,392 144,392 " style="fill:none;"/>
        <polygon points="152,384 140,378.4 140,389.6 " style="stroke:none" transform="rotate(270,144,384 )"/>
        <polygon points="88,384 76,378.4 76,389.6 " style="stroke:none" transform="rotate(270,80,384 )"/>
        <circle cx="352" cy="384" r="6" class="closeddot"/>
        <circle cx="456" cy="304" r="6" class="opendot"/>
        <circle cx="496" cy="288" r="6" class="opendot"/>
        <circle cx="600" cy="384" r="6" class="closeddot"/>
        <g transform="translate(0,0)">
            <text text-anchor="middle" x="232" y="52">A</text>
            <text text-anchor="middle" x="240" y="52">c</text>
            <text text-anchor="middle" x="248" y="52">c</text>
            <text text-anchor="middle" x="256" y="52">u</text>
            <text text-anchor="middle" x="264" y="52">R</text>
            <text text-anchor="middle" x="272" y="52">i</text>
            <text text-anchor="middle" x="280" y="52">t</text>
            <text text-anchor="middle" x="288" y="52">e</text>
            <text text-anchor="middle" x="304" y="52">0</text>
            <text text-anchor="middle" x="312" y="52">2</text>
            <text text-anchor="middle" x="320" y="52">0</text>
            <text text-anchor="middle" x="328" y="52">2</text>
            <text text-anchor="middle" x="336" y="52">0</text>
            <text text-anchor="middle" x="352" y="52">L</text>
            <text text-anchor="middle" x="360" y="52">i</text>
            <text text-anchor="middle" x="368" y="52">g</text>
            <text text-anchor="middle" x="376" y="52">h</text>
            <text text-anchor="middle" x="384" y="52">t</text>
            <text text-anchor="middle" x="392" y="52">n</text>
            <text text-anchor="middle" x="400" y="52">i</text>
            <text text-anchor="middle" x="408" y="52">n</text>
            <text text-anchor="middle" x="416" y="52">g</text>
            <text text-anchor="middle" x="432" y="52">E</text>
            <text text-anchor="middle" x="440" y="52">M</text>
            <text text-anchor="middle" x="448" y="52">P</text>
            <text text-anchor="middle" x="512" y="52">N</text>
            <text text-anchor="middle" x="520" y="52">a</text>
            <text text-anchor="middle" x="528" y="52">v</text>
            <text text-anchor="middle" x="536" y="52">P</text>
            <text text-anchor="middle" x="544" y="52">o</text>
            <text text-anchor="middle" x="552" y="52">d</text>
            <text text-anchor="middle" x="568" y="52">h</text>
            <text text-anchor="middle" x="576" y="52">o</text>
            <text text-anchor="middle" x="584" y="52">u</text>
            <text text-anchor="middle" x="592" y="52">s</text>
            <text text-anchor="middle" x="600" y="52">i</text>
            <text text-anchor="middle" x="608" y="52">n</text>
            <text text-anchor="middle" x="616" y="52">g</text>
            <text text-anchor="middle" x="632" y="52">(</text>
            <text text-anchor="middle" x="640" y="52">E</text>
            <text text-anchor="middle" x="648" y="52">x</text>
            <text text-anchor="middle" x="656" y="52">:</text>
            <text text-anchor="middle" x="672" y="52">N</text>
            <text text-anchor="middle" x="680" y="52">a</text>
            <text text-anchor="middle" x="688" y="52">v</text>
            <text text-anchor="middle" x="696" y="52">P</text>
            <text text-anchor="middle" x="704" y="52">o</text>
            <text text-anchor="middle" x="712" y="52">d</text>
            <text text-anchor="middle" x="728" y="52">G</text>
            <text text-anchor="middle" x="736" y="52">P</text>
            <text text-anchor="middle" x="744" y="52">2</text>
            <text text-anchor="middle" x="752" y="52">3</text>
            <text text-anchor="middle" x="760" y="52">0</text>
            <text text-anchor="middle" x="768" y="52">0</text>
            <text text-anchor="middle" x="776" y="52">)</text>
            <text text-anchor="middle" x="304" y="68">S</text>
            <text text-anchor="middle" x="312" y="68">e</text>
            <text text-anchor="middle" x="320" y="68">n</text>
            <text text-anchor="middle" x="328" y="68">s</text>
            <text text-anchor="middle" x="336" y="68">o</text>
            <text text-anchor="middle" x="344" y="68">r</text>
            <text text-anchor="middle" x="352" y="68">,</text>
            <text text-anchor="middle" x="368" y="68">D</text>
            <text text-anchor="middle" x="376" y="68">i</text>
            <text text-anchor="middle" x="384" y="68">s</text>
            <text text-anchor="middle" x="392" y="68">p</text>
            <text text-anchor="middle" x="400" y="68">l</text>
            <text text-anchor="middle" x="408" y="68">a</text>
            <text text-anchor="middle" x="416" y="68">y</text>
            <text text-anchor="middle" x="432" y="68">&amp;</text>
            <text text-anchor="middle" x="64" y="84">4</text>
            <text text-anchor="middle" x="72" y="84">-</text>
            <text text-anchor="middle" x="80" y="84">P</text>
            <text text-anchor="middle" x="88" y="84">o</text>
            <text text-anchor="middle" x="96" y="84">r</text>
            <text text-anchor="middle" x="104" y="84">t</text>
            <text text-anchor="middle" x="328" y="84">A</text>
            <text text-anchor="middle" x="336" y="84">l</text>
            <text text-anchor="middle" x="344" y="84">a</text>
            <text text-anchor="middle" x="352" y="84">r</text>
            <text text-anchor="middle" x="360" y="84">m</text>
            <text text-anchor="middle" x="376" y="84">1</text>
            <text text-anchor="middle" x="384" y="84">.</text>
            <text text-anchor="middle" x="392" y="84">5</text>
            <text text-anchor="middle" x="400" y="84">v</text>
            <text text-anchor="middle" x="64" y="100">P</text>
            <text text-anchor="middle" x="72" y="100">o</text>
            <text text-anchor="middle" x="80" y="100">w</text>
            <text text-anchor="middle" x="88" y="100">e</text>
            <text text-anchor="middle" x="96" y="100">r</text>
            <text text-anchor="middle" x="104" y="100">e</text>
            <text text-anchor="middle" x="112" y="100">d</text>
            <text text-anchor="middle" x="176" y="100">▀</text>
            <text text-anchor="middle" x="816" y="100">▀</text>
            <text text-anchor="middle" x="64" y="116">U</text>
            <text text-anchor="middle" x="72" y="116">S</text>
            <text text-anchor="middle" x="80" y="116">B</text>
            <text text-anchor="middle" x="96" y="116">3</text>
            <text text-anchor="middle" x="104" y="116">.</text>
            <text text-anchor="middle" x="112" y="116">0</text>
            <text text-anchor="middle" x="528" y="116">A</text>
            <text text-anchor="middle" x="536" y="116">r</text>
            <text text-anchor="middle" x="544" y="116">g</text>
            <text text-anchor="middle" x="552" y="116">o</text>
            <text text-anchor="middle" x="560" y="116">n</text>
            <text text-anchor="middle" x="568" y="116">a</text>
            <text text-anchor="middle" x="576" y="116">u</text>
            <text text-anchor="middle" x="584" y="116">t</text>
            <text text-anchor="middle" x="600" y="116">M</text>
            <text text-anchor="middle" x="608" y="116">7</text>
            <text text-anchor="middle" x="616" y="116">-</text>
            <text text-anchor="middle" x="624" y="116">G</text>
            <text text-anchor="middle" x="632" y="116">E</text>
            <text text-anchor="middle" x="640" y="116">N</text>
            <text text-anchor="middle" x="648" y="116">2</text>
            <text text-anchor="middle" x="664" y="116">t</text>
            <text text-anchor="middle" x="672" y="116">o</text>
            <text text-anchor="middle" x="680" y="116">u</text>
            <text text-anchor="middle" x="688" y="116">c</text>
            <text text-anchor="middle" x="696" y="116">h</text>
            <text text-anchor="middle" x="712" y="116">d</text>
            <text text-anchor="middle" x="720" y="116">i</text>
            <text text-anchor="middle" x="728" y="116">s</text>
            <text text-anchor="middle" x="736" y="116">p</text>
            <text text-anchor="middle" x="744" y="116">l</text>
            <text text-anchor="middle" x="752" y="116">a</text>
            <text text-anchor="middle" x="760" y="116">y</text>
            <text text-anchor="middle" x="80" y="132">H</text>
            <text text-anchor="middle" x="88" y="132">u</text>
            <text text-anchor="middle" x="96" y="132">b</text>
            <text text-anchor="middle" x="528" y="132">7</text>
            <text text-anchor="middle" x="536" y="132">"</text>
            <text text-anchor="middle" x="552" y="132">d</text>
            <text text-anchor="middle" x="560" y="132">i</text>
            <text text-anchor="middle" x="568" y="132">a</text>
            <text text-anchor="middle" x="576" y="132">g</text>
            <text text-anchor="middle" x="584" y="132">,</text>
            <text text-anchor="middle" x="600" y="132">8</text>
            <text text-anchor="middle" x="608" y="132">0</text>
            <text text-anchor="middle" x="616" y="132">0</text>
            <text text-anchor="middle" x="624" y="132">x</text>
            <text text-anchor="middle" x="632" y="132">4</text>
            <text text-anchor="middle" x="640" y="132">8</text>
            <text text-anchor="middle" x="648" y="132">0</text>
            <text text-anchor="middle" x="664" y="132">r</text>
            <text text-anchor="middle" x="672" y="132">e</text>
            <text text-anchor="middle" x="680" y="132">s</text>
            <text text-anchor="middle" x="688" y="132">,</text>
            <text text-anchor="middle" x="704" y="132">1</text>
            <text text-anchor="middle" x="712" y="132">0</text>
            <text text-anchor="middle" x="720" y="132">0</text>
            <text text-anchor="middle" x="728" y="132">0</text>
            <text text-anchor="middle" x="744" y="132">N</text>
            <text text-anchor="middle" x="752" y="132">i</text>
            <text text-anchor="middle" x="760" y="132">t</text>
            <text text-anchor="middle" x="80" y="148">5</text>
            <text text-anchor="middle" x="88" y="148">v</text>
            <text text-anchor="middle" x="544" y="148">I</text>
            <text text-anchor="middle" x="552" y="148">P</text>
            <text text-anchor="middle" x="560" y="148">7</text>
            <text text-anchor="middle" x="568" y="148">X</text>
            <text text-anchor="middle" x="576" y="148">,</text>
            <text text-anchor="middle" x="592" y="148">H</text>
            <text text-anchor="middle" x="600" y="148">D</text>
            <text text-anchor="middle" x="608" y="148">M</text>
            <text text-anchor="middle" x="616" y="148">I</text>
            <text text-anchor="middle" x="624" y="148">,</text>
            <text text-anchor="middle" x="640" y="148">U</text>
            <text text-anchor="middle" x="648" y="148">S</text>
            <text text-anchor="middle" x="656" y="148">B</text>
            <text text-anchor="middle" x="664" y="148">,</text>
            <text text-anchor="middle" x="680" y="148">R</text>
            <text text-anchor="middle" x="688" y="148">C</text>
            <text text-anchor="middle" x="696" y="148">A</text>
            <text text-anchor="middle" x="704" y="148">,</text>
            <text text-anchor="middle" x="720" y="148">1</text>
            <text text-anchor="middle" x="728" y="148">2</text>
            <text text-anchor="middle" x="736" y="148">v</text>
            <text text-anchor="middle" x="336" y="164">▀</text>
            <text text-anchor="middle" x="392" y="164">◯</text>
            <text text-anchor="middle" x="552" y="164">C</text>
            <text text-anchor="middle" x="560" y="164">a</text>
            <text text-anchor="middle" x="568" y="164">p</text>
            <text text-anchor="middle" x="576" y="164">a</text>
            <text text-anchor="middle" x="584" y="164">c</text>
            <text text-anchor="middle" x="592" y="164">i</text>
            <text text-anchor="middle" x="600" y="164">t</text>
            <text text-anchor="middle" x="608" y="164">i</text>
            <text text-anchor="middle" x="616" y="164">v</text>
            <text text-anchor="middle" x="624" y="164">e</text>
            <text text-anchor="middle" x="640" y="164">M</text>
            <text text-anchor="middle" x="648" y="164">u</text>
            <text text-anchor="middle" x="656" y="164">l</text>
            <text text-anchor="middle" x="664" y="164">t</text>
            <text text-anchor="middle" x="672" y="164">i</text>
            <text text-anchor="middle" x="680" y="164">-</text>
            <text text-anchor="middle" x="688" y="164">T</text>
            <text text-anchor="middle" x="696" y="164">o</text>
            <text text-anchor="middle" x="704" y="164">u</text>
            <text text-anchor="middle" x="712" y="164">c</text>
            <text text-anchor="middle" x="720" y="164">h</text>
            <text text-anchor="middle" x="176" y="180">▀</text>
            <text text-anchor="middle" x="216" y="212">2</text>
            <text text-anchor="middle" x="224" y="212">.</text>
            <text text-anchor="middle" x="232" y="212">4</text>
            <text text-anchor="middle" x="240" y="212">G</text>
            <text text-anchor="middle" x="248" y="212">H</text>
            <text text-anchor="middle" x="256" y="212">z</text>
            <text text-anchor="middle" x="272" y="212">A</text>
            <text text-anchor="middle" x="280" y="212">i</text>
            <text text-anchor="middle" x="288" y="212">r</text>
            <text text-anchor="middle" x="296" y="212">M</text>
            <text text-anchor="middle" x="304" y="212">o</text>
            <text text-anchor="middle" x="312" y="212">u</text>
            <text text-anchor="middle" x="320" y="212">s</text>
            <text text-anchor="middle" x="328" y="212">e</text>
            <text text-anchor="middle" x="216" y="228">R</text>
            <text text-anchor="middle" x="224" y="228">e</text>
            <text text-anchor="middle" x="232" y="228">c</text>
            <text text-anchor="middle" x="240" y="228">e</text>
            <text text-anchor="middle" x="248" y="228">i</text>
            <text text-anchor="middle" x="256" y="228">v</text>
            <text text-anchor="middle" x="264" y="228">e</text>
            <text text-anchor="middle" x="272" y="228">r</text>
            <text text-anchor="middle" x="360" y="244">▃</text>
            <text text-anchor="middle" x="368" y="244">▃</text>
            <text text-anchor="middle" x="376" y="244">▃</text>
            <text text-anchor="middle" x="728" y="244">1</text>
            <text text-anchor="middle" x="736" y="244">2</text>
            <text text-anchor="middle" x="744" y="244">v</text>
            <text text-anchor="middle" x="176" y="260">▀</text>
            <text text-anchor="middle" x="424" y="260">1</text>
            <text text-anchor="middle" x="432" y="260">.</text>
            <text text-anchor="middle" x="440" y="260">5</text>
            <text text-anchor="middle" x="448" y="260">v</text>
            <text text-anchor="middle" x="672" y="276">U</text>
            <text text-anchor="middle" x="680" y="276">S</text>
            <text text-anchor="middle" x="688" y="276">B</text>
            <text text-anchor="middle" x="784" y="276">H</text>
            <text text-anchor="middle" x="792" y="276">D</text>
            <text text-anchor="middle" x="800" y="276">M</text>
            <text text-anchor="middle" x="808" y="276">I</text>
            <text text-anchor="middle" x="312" y="292">U</text>
            <text text-anchor="middle" x="320" y="292">S</text>
            <text text-anchor="middle" x="328" y="292">B</text>
            <text text-anchor="middle" x="344" y="292">P</text>
            <text text-anchor="middle" x="352" y="292">a</text>
            <text text-anchor="middle" x="360" y="292">n</text>
            <text text-anchor="middle" x="368" y="292">e</text>
            <text text-anchor="middle" x="376" y="292">l</text>
            <text text-anchor="middle" x="392" y="292">M</text>
            <text text-anchor="middle" x="400" y="292">o</text>
            <text text-anchor="middle" x="408" y="292">u</text>
            <text text-anchor="middle" x="416" y="292">n</text>
            <text text-anchor="middle" x="424" y="292">t</text>
            <text text-anchor="middle" x="312" y="308">w</text>
            <text text-anchor="middle" x="328" y="308">S</text>
            <text text-anchor="middle" x="336" y="308">c</text>
            <text text-anchor="middle" x="344" y="308">r</text>
            <text text-anchor="middle" x="352" y="308">e</text>
            <text text-anchor="middle" x="360" y="308">w</text>
            <text text-anchor="middle" x="368" y="308">-</text>
            <text text-anchor="middle" x="376" y="308">o</text>
            <text text-anchor="middle" x="384" y="308">n</text>
            <text text-anchor="middle" x="400" y="308">c</text>
            <text text-anchor="middle" x="408" y="308">a</text>
            <text text-anchor="middle" x="416" y="308">p</text>
            <text text-anchor="middle" x="472" y="308">5</text>
            <text text-anchor="middle" x="480" y="308">v</text>
            <text text-anchor="middle" x="496" y="308">t</text>
            <text text-anchor="middle" x="504" y="308">o</text>
            <text text-anchor="middle" x="520" y="308">1</text>
            <text text-anchor="middle" x="528" y="308">.</text>
            <text text-anchor="middle" x="536" y="308">5</text>
            <text text-anchor="middle" x="544" y="308">v</text>
            <text text-anchor="middle" x="176" y="340">▀</text>
            <text text-anchor="middle" x="608" y="340">1</text>
            <text text-anchor="middle" x="616" y="340">2</text>
            <text text-anchor="middle" x="624" y="340">v</text>
            <text text-anchor="middle" x="80" y="372">◎</text>
            <text text-anchor="middle" x="144" y="372">▇</text>
            <text text-anchor="middle" x="368" y="372">5</text>
            <text text-anchor="middle" x="376" y="372">v</text>
            <text text-anchor="middle" x="656" y="372">f</text>
            <text text-anchor="middle" x="664" y="372">u</text>
            <text text-anchor="middle" x="672" y="372">s</text>
            <text text-anchor="middle" x="680" y="372">e</text>
            <text text-anchor="middle" x="432" y="388">1</text>
            <text text-anchor="middle" x="440" y="388">2</text>
            <text text-anchor="middle" x="448" y="388">v</text>
            <text text-anchor="middle" x="464" y="388">t</text>
            <text text-anchor="middle" x="472" y="388">o</text>
            <text text-anchor="middle" x="488" y="388">5</text>
            <text text-anchor="middle" x="496" y="388">v</text>
            <text text-anchor="middle" x="512" y="388">B</text>
            <text text-anchor="middle" x="520" y="388">E</text>
            <text text-anchor="middle" x="528" y="388">C</text>
            <text text-anchor="middle" x="672" y="388">⏛</text>
            <text text-anchor="middle" x="656" y="452">U</text>
            <text text-anchor="middle" x="664" y="452">S</text>
            <text text-anchor="middle" x="672" y="452">B</text>
            <text text-anchor="middle" x="688" y="452">3</text>
            <text text-anchor="middle" x="696" y="452">.</text>
            <text text-anchor="middle" x="704" y="452">0</text>
            <text text-anchor="middle" x="784" y="452">H</text>
            <text text-anchor="middle" x="792" y="452">D</text>
            <text text-anchor="middle" x="800" y="452">M</text>
            <text text-anchor="middle" x="808" y="452">I</text>
            <text text-anchor="middle" x="736" y="468">1</text>
            <text text-anchor="middle" x="744" y="468">2</text>
            <text text-anchor="middle" x="752" y="468">v</text>
            <text text-anchor="middle" x="680" y="484">t</text>
            <text text-anchor="middle" x="688" y="484">o</text>
            <text text-anchor="middle" x="704" y="484">b</text>
            <text text-anchor="middle" x="712" y="484">e</text>
            <text text-anchor="middle" x="720" y="484">l</text>
            <text text-anchor="middle" x="728" y="484">o</text>
            <text text-anchor="middle" x="736" y="484">w</text>
            <text text-anchor="middle" x="752" y="484">d</text>
            <text text-anchor="middle" x="760" y="484">e</text>
            <text text-anchor="middle" x="768" y="484">c</text>
            <text text-anchor="middle" x="776" y="484">k</text>
            <text text-anchor="middle" x="792" y="484">c</text>
            <text text-anchor="middle" x="800" y="484">o</text>
            <text text-anchor="middle" x="808" y="484">m</text>
            <text text-anchor="middle" x="816" y="484">p</text>
            <text text-anchor="middle" x="824" y="484">u</text>
            <text text-anchor="middle" x="832" y="484">t</text>
            <text text-anchor="middle" x="840" y="484">e</text>
            <text text-anchor="middle" x="848" y="484">r</text>
            <text text-anchor="middle" x="112" y="500">A</text>
            <text text-anchor="middle" x="120" y="500">d</text>
            <text text-anchor="middle" x="128" y="500">d</text>
            <text text-anchor="middle" x="136" y="500">i</text>
            <text text-anchor="middle" x="144" y="500">t</text>
            <text text-anchor="middle" x="152" y="500">i</text>
            <text text-anchor="middle" x="160" y="500">o</text>
            <text text-anchor="middle" x="168" y="500">n</text>
            <text text-anchor="middle" x="176" y="500">a</text>
            <text text-anchor="middle" x="184" y="500">l</text>
            <text text-anchor="middle" x="200" y="500">A</text>
            <text text-anchor="middle" x="208" y="500">i</text>
            <text text-anchor="middle" x="216" y="500">r</text>
            <text text-anchor="middle" x="224" y="500">M</text>
            <text text-anchor="middle" x="232" y="500">o</text>
            <text text-anchor="middle" x="240" y="500">u</text>
            <text text-anchor="middle" x="248" y="500">s</text>
            <text text-anchor="middle" x="256" y="500">e</text>
            <text text-anchor="middle" x="272" y="500">p</text>
            <text text-anchor="middle" x="280" y="500">a</text>
            <text text-anchor="middle" x="288" y="500">i</text>
            <text text-anchor="middle" x="296" y="500">r</text>
            <text text-anchor="middle" x="304" y="500">e</text>
            <text text-anchor="middle" x="312" y="500">d</text>
            <text text-anchor="middle" x="328" y="500">t</text>
            <text text-anchor="middle" x="336" y="500">o</text>
            <text text-anchor="middle" x="352" y="500">2</text>
            <text text-anchor="middle" x="360" y="500">.</text>
            <text text-anchor="middle" x="368" y="500">4</text>
            <text text-anchor="middle" x="376" y="500">G</text>
            <text text-anchor="middle" x="384" y="500">H</text>
            <text text-anchor="middle" x="392" y="500">z</text>
            <text text-anchor="middle" x="408" y="500">r</text>
            <text text-anchor="middle" x="416" y="500">e</text>
            <text text-anchor="middle" x="424" y="500">c</text>
            <text text-anchor="middle" x="432" y="500">e</text>
            <text text-anchor="middle" x="440" y="500">i</text>
            <text text-anchor="middle" x="448" y="500">v</text>
            <text text-anchor="middle" x="456" y="500">e</text>
            <text text-anchor="middle" x="464" y="500">r</text>
            <text text-anchor="middle" x="112" y="516">(</text>
            <text text-anchor="middle" x="120" y="516">E</text>
            <text text-anchor="middle" x="128" y="516">x</text>
            <text text-anchor="middle" x="136" y="516">:</text>
            <text text-anchor="middle" x="152" y="516">H</text>
            <text text-anchor="middle" x="160" y="516">1</text>
            <text text-anchor="middle" x="168" y="516">8</text>
            <text text-anchor="middle" x="176" y="516">+</text>
            <text text-anchor="middle" x="192" y="516">m</text>
            <text text-anchor="middle" x="200" y="516">i</text>
            <text text-anchor="middle" x="208" y="516">n</text>
            <text text-anchor="middle" x="216" y="516">i</text>
            <text text-anchor="middle" x="232" y="516">w</text>
            <text text-anchor="middle" x="240" y="516">i</text>
            <text text-anchor="middle" x="248" y="516">r</text>
            <text text-anchor="middle" x="256" y="516">e</text>
            <text text-anchor="middle" x="264" y="516">l</text>
            <text text-anchor="middle" x="272" y="516">e</text>
            <text text-anchor="middle" x="280" y="516">s</text>
            <text text-anchor="middle" x="288" y="516">s</text>
            <text text-anchor="middle" x="304" y="516">t</text>
            <text text-anchor="middle" x="312" y="516">o</text>
            <text text-anchor="middle" x="320" y="516">u</text>
            <text text-anchor="middle" x="328" y="516">c</text>
            <text text-anchor="middle" x="336" y="516">h</text>
            <text text-anchor="middle" x="344" y="516">p</text>
            <text text-anchor="middle" x="352" y="516">a</text>
            <text text-anchor="middle" x="360" y="516">d</text>
            <text text-anchor="middle" x="376" y="516">&amp;</text>
            <text text-anchor="middle" x="392" y="516">k</text>
            <text text-anchor="middle" x="400" y="516">e</text>
            <text text-anchor="middle" x="408" y="516">y</text>
            <text text-anchor="middle" x="416" y="516">b</text>
            <text text-anchor="middle" x="424" y="516">o</text>
            <text text-anchor="middle" x="432" y="516">a</text>
            <text text-anchor="middle" x="440" y="516">r</text>
            <text text-anchor="middle" x="448" y="516">d</text>
            <text text-anchor="middle" x="456" y="516">)</text>
        </g>
    </g>
</svg>