<?xml version="1.0" encoding="UTF-8" standalone="no"?><svg xmlns="http://www.w3.org/2000/svg" xmlns:xlink="http://www.w3.org/1999/xlink" contentScriptType="application/ecmascript" contentStyleType="text/css" height="669.75px" preserveAspectRatio="none" style="width:1171px;height:669px;" version="1.1" viewBox="0 0 1171 669" width="1171.5px" zoomAndPan="magnify"><defs><filter height="300%" id="f1ps9dmtm07ym9" width="300%" x="-1" y="-1"><feGaussianBlur result="blurOut" stdDeviation="1.5"/><feColorMatrix in="blurOut" result="blurOut2" type="matrix" values="0 0 0 0 0 0 0 0 0 0 0 0 0 0 0 0 0 0 .4 0"/><feOffset dx="3.0" dy="3.0" in="blurOut2" result="blurOut3"/><feBlend in="SourceGraphic" in2="blurOut3" mode="normal"/></filter></defs><g><!--MD5=[f50827fad462c3f51a79aa3f1564e3ff]
entity Skipper--><ellipse cx="563.625" cy="14.6233" fill="#FEFECE" filter="url(#f1ps9dmtm07ym9)" rx="6" ry="6" style="stroke:#A80036;stroke-width:1.125;"/><path d="M563.625,20.6233 L563.625,40.8733 M553.875,26.6233 L573.375,26.6233 M563.625,40.8733 L553.875,52.1233 M563.625,40.8733 L573.375,52.1233 " fill="none" filter="url(#f1ps9dmtm07ym9)" style="stroke:#A80036;stroke-width:1.125;"/><text fill="#000000" font-family="sans-serif" font-size="10.5" lengthAdjust="spacing" textLength="36" x="545.625" y="67.1482">Skipper</text><!--MD5=[56bb6c3bc4df8cdefb957cc5b3ef3a7e]
entity RPI--><polygon fill="#FEFECE" filter="url(#f1ps9dmtm07ym9)" points="528.75,289.4983,536.25,281.9983,640.5,281.9983,640.5,369.0335,633,376.5335,528.75,376.5335,528.75,289.4983" style="stroke:#000000;stroke-width:1.125;"/><line style="stroke:#000000;stroke-width:1.125;" x1="633" x2="640.5" y1="289.4983" y2="281.9983"/><line style="stroke:#000000;stroke-width:1.125;" x1="528.75" x2="633" y1="289.4983" y2="289.4983"/><line style="stroke:#000000;stroke-width:1.125;" x1="633" x2="633" y1="289.4983" y2="376.5335"/><text fill="#000000" font-family="sans-serif" font-size="10.5" font-weight="bold" lengthAdjust="spacing" textLength="69.75" x="540" y="307.8982">Rpi4, BBN OS</text><line style="stroke:#000000;stroke-width:0.75;" x1="528.75" x2="633" y1="310.2053" y2="310.2053"/><line style="stroke:#000000;stroke-width:0.75;" x1="633" x2="640.5" y1="310.2053" y2="302.7053"/><text fill="#000000" font-family="sans-serif" font-size="10.5" lengthAdjust="spacing" textLength="49.5" x="540" y="324.1052">Local WiFi</text><text fill="#000000" font-family="sans-serif" font-size="10.5" lengthAdjust="spacing" textLength="81.75" x="540" y="337.3123">CanBus Interface</text><text fill="#000000" font-family="sans-serif" font-size="10.5" lengthAdjust="spacing" textLength="57" x="540" y="350.5193">Sound Card</text><text fill="#000000" font-family="sans-serif" font-size="10.5" lengthAdjust="spacing" textLength="21" x="540" y="363.7263">SSD</text><!--MD5=[cd1d357e028b96f42ee72ab526715f53]
entity GPS--><rect fill="#FEFECE" filter="url(#f1ps9dmtm07ym9)" height="28.207" style="stroke:#000000;stroke-width:1.125;" width="60" x="597.375" y="463.8733"/><text fill="#000000" font-family="sans-serif" font-size="10.5" lengthAdjust="spacing" textLength="45" x="604.875" y="482.2732">GPS USB</text><!--MD5=[ae8265c62b5fdfc486198cf91618d43d]
entity IMU--><rect fill="#FEFECE" filter="url(#f1ps9dmtm07ym9)" height="47.4141" style="stroke:#000000;stroke-width:1.125;" width="114.75" x="387.75" y="305.6233"/><text fill="#000000" font-family="sans-serif" font-size="10.5" lengthAdjust="spacing" textLength="17.25" x="395.25" y="324.0232">IMU</text><line style="stroke:#000000;stroke-width:0.75;" x1="388.5" x2="501.75" y1="326.3303" y2="326.3303"/><text fill="#000000" font-family="sans-serif" font-size="10.5" lengthAdjust="spacing" textLength="99.75" x="395.25" y="340.2302">compass, gyro, accel</text><!--MD5=[b17a41457b887f0466e22bd7e05c4601]
entity NMEA_2000--><rect fill="#FEFECE" filter="url(#f1ps9dmtm07ym9)" height="73.8281" style="stroke:#000000;stroke-width:1.125;" width="94.5" x="171.375" y="441.3733"/><text fill="#000000" font-family="sans-serif" font-size="10.5" font-weight="bold" lengthAdjust="spacing" textLength="78" x="178.875" y="459.7732">NMEA2000 Bus</text><line style="stroke:#000000;stroke-width:0.75;" x1="172.125" x2="265.125" y1="462.0803" y2="462.0803"/><text fill="#000000" font-family="sans-serif" font-size="10.5" lengthAdjust="spacing" textLength="75.75" x="178.875" y="475.9802">engine sensors,</text><text fill="#000000" font-family="sans-serif" font-size="10.5" lengthAdjust="spacing" textLength="79.5" x="178.875" y="489.1873">fishfinder, sonar,</text><text fill="#000000" font-family="sans-serif" font-size="10.5" lengthAdjust="spacing" textLength="14.25" x="178.875" y="502.3943">etc</text><!--MD5=[6eed89ef60fd1dd7e5ad5481c6afc096]
entity NMEA_Mux--><polygon fill="#FEFECE" filter="url(#f1ps9dmtm07ym9)" points="716.25,458.2483,723.75,450.7483,847.5,450.7483,847.5,498.1624,840,505.6624,716.25,505.6624,716.25,458.2483" style="stroke:#000000;stroke-width:1.125;"/><line style="stroke:#000000;stroke-width:1.125;" x1="840" x2="847.5" y1="458.2483" y2="450.7483"/><line style="stroke:#000000;stroke-width:1.125;" x1="716.25" x2="840" y1="458.2483" y2="458.2483"/><line style="stroke:#000000;stroke-width:1.125;" x1="840" x2="840" y1="458.2483" y2="505.6624"/><text fill="#000000" font-family="sans-serif" font-size="10.5" lengthAdjust="spacing" textLength="81.75" x="727.5" y="476.6482">NMEA Multiplexer</text><line style="stroke:#000000;stroke-width:0.75;" x1="716.25" x2="840" y1="478.9553" y2="478.9553"/><line style="stroke:#000000;stroke-width:0.75;" x1="840" x2="847.5" y1="478.9553" y2="471.4553"/><text fill="#000000" font-family="sans-serif" font-size="10.5" lengthAdjust="spacing" textLength="101.25" x="727.5" y="492.8552">bidirectional Seatalk1</text><!--MD5=[1eaf4d2f8be208adf81d4b0ad8be7432]
entity NMEA_0183--><rect fill="#FEFECE" filter="url(#f1ps9dmtm07ym9)" height="73.8281" style="stroke:#000000;stroke-width:1.125;" width="126" x="718.875" y="583.4983"/><text fill="#000000" font-family="sans-serif" font-size="10.5" font-weight="bold" lengthAdjust="spacing" textLength="103.5" x="726.375" y="601.8982">NMEA 0183 Devices</text><line style="stroke:#000000;stroke-width:0.75;" x1="719.625" x2="844.125" y1="604.2053" y2="604.2053"/><text fill="#000000" font-family="sans-serif" font-size="10.5" lengthAdjust="spacing" textLength="111" x="726.375" y="618.1052">AIS transducer/receiver</text><text fill="#000000" font-family="sans-serif" font-size="10.5" lengthAdjust="spacing" textLength="96" x="726.375" y="631.3123">GPS, VHF, compass</text><text fill="#000000" font-family="sans-serif" font-size="10.5" lengthAdjust="spacing" textLength="95.25" x="726.375" y="644.5193">Wind, Depth, Speed</text><!--MD5=[31e3ec59327e273962ce661ad70afaa5]
entity AP--><rect fill="#FEFECE" filter="url(#f1ps9dmtm07ym9)" height="28.207" style="stroke:#000000;stroke-width:1.125;" width="56.25" x="871.5" y="605.9983"/><text fill="#000000" font-family="sans-serif" font-size="10.5" lengthAdjust="spacing" textLength="41.25" x="879" y="624.3982">Autopilot</text><!--MD5=[547615c2c8915297a73af811d5dbf318]
entity Eth_Hub--><polygon fill="#FEFECE" filter="url(#f1ps9dmtm07ym9)" points="931.5,208.4983,939,200.9983,1023.75,200.9983,1023.75,229.2053,1016.25,236.7053,931.5,236.7053,931.5,208.4983" style="stroke:#000000;stroke-width:1.125;"/><line style="stroke:#000000;stroke-width:1.125;" x1="1016.25" x2="1023.75" y1="208.4983" y2="200.9983"/><line style="stroke:#000000;stroke-width:1.125;" x1="931.5" x2="1016.25" y1="208.4983" y2="208.4983"/><line style="stroke:#000000;stroke-width:1.125;" x1="1016.25" x2="1016.25" y1="208.4983" y2="236.7053"/><text fill="#000000" font-family="sans-serif" font-size="10.5" lengthAdjust="spacing" textLength="62.25" x="942.75" y="226.8982">Ethernet Hub</text><!--MD5=[7968f28c13df0538bc57173754511f0e]
entity USB_Hub--><polygon fill="#FEFECE" filter="url(#f1ps9dmtm07ym9)" points="959.625,467.6233,967.125,460.1233,1031.625,460.1233,1031.625,488.3303,1024.125,495.8303,959.625,495.8303,959.625,467.6233" style="stroke:#000000;stroke-width:1.125;"/><line style="stroke:#000000;stroke-width:1.125;" x1="1024.125" x2="1031.625" y1="467.6233" y2="460.1233"/><line style="stroke:#000000;stroke-width:1.125;" x1="959.625" x2="1024.125" y1="467.6233" y2="467.6233"/><line style="stroke:#000000;stroke-width:1.125;" x1="1024.125" x2="1024.125" y1="467.6233" y2="495.8303"/><text fill="#000000" font-family="sans-serif" font-size="10.5" lengthAdjust="spacing" textLength="42" x="970.875" y="486.0232">USB Hub</text><!--MD5=[953a8c67cfe21abaf9bf45dad8506ca8]
entity Router--><polygon fill="#FEFECE" filter="url(#f1ps9dmtm07ym9)" points="1050,208.4983,1057.5,200.9983,1158.75,200.9983,1158.75,229.2053,1151.25,236.7053,1050,236.7053,1050,208.4983" style="stroke:#000000;stroke-width:1.125;"/><line style="stroke:#000000;stroke-width:1.125;" x1="1151.25" x2="1158.75" y1="208.4983" y2="200.9983"/><line style="stroke:#000000;stroke-width:1.125;" x1="1050" x2="1151.25" y1="208.4983" y2="208.4983"/><line style="stroke:#000000;stroke-width:1.125;" x1="1151.25" x2="1151.25" y1="208.4983" y2="236.7053"/><text fill="#000000" font-family="sans-serif" font-size="10.5" lengthAdjust="spacing" textLength="78.75" x="1061.25" y="226.8982">LTE/WiFi Router</text><!--MD5=[4c7a5f0f4d710d941c4df063500e34ba]
entity Dish_Router--><rect fill="#FEFECE" filter="url(#f1ps9dmtm07ym9)" height="41.4141" style="stroke:#000000;stroke-width:1.125;" width="92.25" x="972" y="114.7483"/><text fill="#000000" font-family="sans-serif" font-size="10.5" lengthAdjust="spacing" textLength="77.25" x="979.5" y="133.1482">StarLink Router,</text><text fill="#000000" font-family="sans-serif" font-size="10.5" lengthAdjust="spacing" textLength="21" x="979.5" y="146.3552">Dish</text><!--MD5=[af2495f9a90a9f78578178908d6e69bd]
entity Radar--><polygon fill="#FEFECE" filter="url(#f1ps9dmtm07ym9)" points="1009.5,318.7483,1017,311.2483,1068.75,311.2483,1068.75,339.4553,1061.25,346.9553,1009.5,346.9553,1009.5,318.7483" style="stroke:#000000;stroke-width:1.125;"/><line style="stroke:#000000;stroke-width:1.125;" x1="1061.25" x2="1068.75" y1="318.7483" y2="311.2483"/><line style="stroke:#000000;stroke-width:1.125;" x1="1009.5" x2="1061.25" y1="318.7483" y2="318.7483"/><line style="stroke:#000000;stroke-width:1.125;" x1="1061.25" x2="1061.25" y1="318.7483" y2="346.9553"/><text fill="#000000" font-family="sans-serif" font-size="10.5" lengthAdjust="spacing" textLength="29.25" x="1020.75" y="337.1482">Radar</text><!--MD5=[330778c508571bc43f7e5523a03ca602]
entity Touchscreen--><polygon fill="#FEFECE" filter="url(#f1ps9dmtm07ym9)" points="187.5,208.4983,195,200.9983,317.25,200.9983,317.25,229.2053,309.75,236.7053,187.5,236.7053,187.5,208.4983" style="stroke:#000000;stroke-width:1.125;"/><line style="stroke:#000000;stroke-width:1.125;" x1="309.75" x2="317.25" y1="208.4983" y2="200.9983"/><line style="stroke:#000000;stroke-width:1.125;" x1="187.5" x2="309.75" y1="208.4983" y2="208.4983"/><line style="stroke:#000000;stroke-width:1.125;" x1="309.75" x2="309.75" y1="208.4983" y2="236.7053"/><text fill="#000000" font-family="sans-serif" font-size="10.5" font-weight="bold" lengthAdjust="spacing" textLength="99.75" x="198.75" y="226.8982">HDMI Touchscreen</text><!--MD5=[4c50005c0fadedfb0a14f6d1969de37e]
entity Speakers--><rect fill="#FEFECE" filter="url(#f1ps9dmtm07ym9)" height="28.207" style="stroke:#000000;stroke-width:1.125;" width="60" x="602.625" y="204.7483"/><text fill="#000000" font-family="sans-serif" font-size="10.5" lengthAdjust="spacing" textLength="45" x="610.125" y="223.1482">Speakers</text><!--MD5=[1b76df3a4bd008a21abb34082ebb9919]
entity Cameras--><rect fill="#FEFECE" filter="url(#f1ps9dmtm07ym9)" height="28.207" style="stroke:#000000;stroke-width:1.125;" width="57.75" x="630" y="121.1233"/><text fill="#000000" font-family="sans-serif" font-size="10.5" lengthAdjust="spacing" textLength="42.75" x="637.5" y="139.5232">Cameras</text><!--MD5=[d92e9b93d5ce4574427d5f042afd2321]
entity SDR--><polygon fill="#FEFECE" filter="url(#f1ps9dmtm07ym9)" points="954.375,609.7483,961.875,602.2483,1036.875,602.2483,1036.875,630.4553,1029.375,637.9553,954.375,637.9553,954.375,609.7483" style="stroke:#000000;stroke-width:1.125;"/><line style="stroke:#000000;stroke-width:1.125;" x1="1029.375" x2="1036.875" y1="609.7483" y2="602.2483"/><line style="stroke:#000000;stroke-width:1.125;" x1="954.375" x2="1029.375" y1="609.7483" y2="609.7483"/><line style="stroke:#000000;stroke-width:1.125;" x1="1029.375" x2="1029.375" y1="609.7483" y2="637.9553"/><text fill="#000000" font-family="sans-serif" font-size="10.5" lengthAdjust="spacing" textLength="52.5" x="965.625" y="628.1482">SDR Radio</text><!--MD5=[6ba27cb6ab6c98fb8258247a8e3f62be]
entity SSB--><polygon fill="#FEFECE" filter="url(#f1ps9dmtm07ym9)" points="495.375,208.4983,502.875,200.9983,576.375,200.9983,576.375,229.2053,568.875,236.7053,495.375,236.7053,495.375,208.4983" style="stroke:#000000;stroke-width:1.125;"/><line style="stroke:#000000;stroke-width:1.125;" x1="568.875" x2="576.375" y1="208.4983" y2="200.9983"/><line style="stroke:#000000;stroke-width:1.125;" x1="495.375" x2="568.875" y1="208.4983" y2="208.4983"/><line style="stroke:#000000;stroke-width:1.125;" x1="568.875" x2="568.875" y1="208.4983" y2="236.7053"/><text fill="#000000" font-family="sans-serif" font-size="10.5" lengthAdjust="spacing" textLength="51" x="506.625" y="226.8982">SSB Radio</text><!--MD5=[dd29c4e1cef6fbff2e61a9551f8f2bf2]
entity WiFi_Local--><path d="M351.1576,207.2166 C353.889,202.4445 357.1871,202.4705 360.8245,206.1845 C363.3887,200.7549 367.7308,200.7143 371.1393,205.3163 C373.1002,200.3043 376.2142,199.849 380.1995,203.0954 C384.2787,198.2166 388.8344,199.2057 391.2761,204.8234 C395.6595,201.1622 398.7605,202.2708 401.0844,207.1803 C403.4796,202.6703 407.9863,203.1127 410.3726,207.1898 C417.8107,208.2525 420.696,212.5598 416.0682,219.2981 C419.6525,225.1249 418.8206,230.9167 410.6967,231.6533 C408.3712,236.8564 405.5716,238.2494 401.1358,233.7282 C398.647,238.562 394.3863,239.829 390.3969,235.4838 C388.2365,239.8768 385.2301,241.6244 381.3378,237.2792 C377.0924,242.3468 372.2885,241.6492 369.9813,235.3438 C365.5205,238.5104 362.6017,238.1134 360.7834,232.5573 C356.9865,236.8942 352.9358,237.2996 350.4432,231.2578 C343.3468,229.4743 342.4635,225.9323 346.7029,220.2848 C341.3507,214.662 343.9929,208.5726 351.1576,207.2166 " fill="#FEFECE" filter="url(#f1ps9dmtm07ym9)" style="stroke:#000000;stroke-width:1.125;"/><text fill="#000000" font-family="sans-serif" font-size="10.5" lengthAdjust="spacing" textLength="49.5" x="355.125" y="223.1482">Local WiFi</text><!--MD5=[82bbb9a7a666b856fa28a649fd3171aa]
entity Iridium--><rect fill="#FEFECE" filter="url(#f1ps9dmtm07ym9)" height="28.207" style="stroke:#000000;stroke-width:1.125;" width="79.5" x="714.375" y="121.1233"/><text fill="#000000" font-family="sans-serif" font-size="10.5" lengthAdjust="spacing" textLength="64.5" x="721.875" y="139.5232">Iridium Phone</text><!--MD5=[8f0c441f12fb738c5e80b28ccd1b0a87]
entity Other_Sensors--><rect fill="#FEFECE" filter="url(#f1ps9dmtm07ym9)" height="113.4492" style="stroke:#000000;stroke-width:1.125;" width="145.5" x="292.125" y="421.4983"/><text fill="#000000" font-family="sans-serif" font-size="10.5" lengthAdjust="spacing" textLength="72" x="299.625" y="439.8982">Other_Sensors</text><line style="stroke:#000000;stroke-width:0.75;" x1="292.875" x2="436.875" y1="442.2053" y2="442.2053"/><text fill="#000000" font-family="sans-serif" font-size="10.5" lengthAdjust="spacing" textLength="73.5" x="299.625" y="456.1052">IoT, 1w, i2c, etc</text><text fill="#000000" font-family="sans-serif" font-size="10.5" lengthAdjust="spacing" textLength="130.5" x="299.625" y="469.3123">battery/chargers monitoring</text><text fill="#000000" font-family="sans-serif" font-size="10.5" lengthAdjust="spacing" textLength="49.5" x="299.625" y="482.5193">fluid levels</text><text fill="#000000" font-family="sans-serif" font-size="10.5" lengthAdjust="spacing" textLength="120" x="299.625" y="495.7263">env temp/pressure/humid</text><text fill="#000000" font-family="sans-serif" font-size="10.5" lengthAdjust="spacing" textLength="123" x="299.625" y="508.9334">dangerous gases sensors</text><text fill="#000000" font-family="sans-serif" font-size="10.5" lengthAdjust="spacing" textLength="108.75" x="299.625" y="522.1404">lightning strike sensors</text><!--MD5=[869fbf9b9ca9ac4bdf61f7068ab1ff9c]
entity Remote_Desktop--><rect fill="#FEFECE" filter="url(#f1ps9dmtm07ym9)" height="28.207" style="stroke:#000000;stroke-width:1.125;" width="125.25" x="820.5" y="121.1233"/><text fill="#000000" font-family="sans-serif" font-size="10.5" lengthAdjust="spacing" textLength="110.25" x="828" y="139.5232">Remote Desktop (VNC)</text><!--MD5=[0313ddc4f8ed0f4991a51edae0b1647c]
entity AC--><polygon fill="#FEFECE" filter="url(#f1ps9dmtm07ym9)" points="258.375,603.3733,265.875,595.8733,319.875,595.8733,319.875,637.2874,312.375,644.7874,258.375,644.7874,258.375,603.3733" style="stroke:#000000;stroke-width:1.125;"/><line style="stroke:#000000;stroke-width:1.125;" x1="312.375" x2="319.875" y1="603.3733" y2="595.8733"/><line style="stroke:#000000;stroke-width:1.125;" x1="258.375" x2="312.375" y1="603.3733" y2="603.3733"/><line style="stroke:#000000;stroke-width:1.125;" x1="312.375" x2="312.375" y1="603.3733" y2="644.7874"/><text fill="#000000" font-family="sans-serif" font-size="10.5" lengthAdjust="spacing" textLength="17.25" x="269.625" y="621.7732">A/C</text><text fill="#000000" font-family="sans-serif" font-size="10.5" lengthAdjust="spacing" textLength="31.5" x="269.625" y="634.9802">Heater</text><!--MD5=[cec077422889c5d3cb551e1217c37df7]
entity Pumps--><polygon fill="#FEFECE" filter="url(#f1ps9dmtm07ym9)" points="346.5,587.2483,354,579.7483,435.75,579.7483,435.75,653.5764,428.25,661.0764,346.5,661.0764,346.5,587.2483" style="stroke:#000000;stroke-width:1.125;"/><line style="stroke:#000000;stroke-width:1.125;" x1="428.25" x2="435.75" y1="587.2483" y2="579.7483"/><line style="stroke:#000000;stroke-width:1.125;" x1="346.5" x2="428.25" y1="587.2483" y2="587.2483"/><line style="stroke:#000000;stroke-width:1.125;" x1="428.25" x2="428.25" y1="587.2483" y2="661.0764"/><text fill="#000000" font-family="sans-serif" font-size="10.5" lengthAdjust="spacing" textLength="32.25" x="357.75" y="605.6482">Pumps</text><line style="stroke:#000000;stroke-width:0.75;" x1="346.5" x2="428.25" y1="607.9553" y2="607.9553"/><line style="stroke:#000000;stroke-width:0.75;" x1="428.25" x2="435.75" y1="607.9553" y2="600.4553"/><text fill="#000000" font-family="sans-serif" font-size="10.5" lengthAdjust="spacing" textLength="23.25" x="357.75" y="621.8552">Bilge</text><text fill="#000000" font-family="sans-serif" font-size="10.5" lengthAdjust="spacing" textLength="59.25" x="357.75" y="635.0623">Fresh Water</text><text fill="#000000" font-family="sans-serif" font-size="10.5" lengthAdjust="spacing" textLength="57" x="357.75" y="648.2693">Black Water</text><!--MD5=[c74dee767baeeec0e713c54a8a4634dc]
entity Fridge--><polygon fill="#FEFECE" filter="url(#f1ps9dmtm07ym9)" points="12,609.7483,19.5,602.2483,72.75,602.2483,72.75,630.4553,65.25,637.9553,12,637.9553,12,609.7483" style="stroke:#000000;stroke-width:1.125;"/><line style="stroke:#000000;stroke-width:1.125;" x1="65.25" x2="72.75" y1="609.7483" y2="602.2483"/><line style="stroke:#000000;stroke-width:1.125;" x1="12" x2="65.25" y1="609.7483" y2="609.7483"/><line style="stroke:#000000;stroke-width:1.125;" x1="65.25" x2="65.25" y1="609.7483" y2="637.9553"/><text fill="#000000" font-family="sans-serif" font-size="10.5" lengthAdjust="spacing" textLength="30.75" x="23.25" y="628.1482">Fridge</text><!--MD5=[0b2190a355246a80d89d74c5c2c53ceb]
entity Lights_Fans--><rect fill="#FEFECE" filter="url(#f1ps9dmtm07ym9)" height="81.0352" style="stroke:#000000;stroke-width:1.125;" width="132.75" x="99" y="579.7483"/><text fill="#000000" font-family="sans-serif" font-size="10.5" lengthAdjust="spacing" textLength="99" x="106.5" y="598.1482">Lights: (Nav, Anchor,</text><text fill="#000000" font-family="sans-serif" font-size="10.5" lengthAdjust="spacing" textLength="105" x="106.5" y="611.3552">Running, Mast, Cabin,</text><text fill="#000000" font-family="sans-serif" font-size="10.5" lengthAdjust="spacing" textLength="117.75" x="106.5" y="624.5623">Underwater, Search, etc)</text><text fill="#000000" font-family="sans-serif" font-size="10.5" lengthAdjust="spacing" textLength="24" x="106.5" y="637.7693">Fans</text><text fill="#000000" font-family="sans-serif" font-size="10.5" lengthAdjust="spacing" textLength="93.75" x="106.5" y="650.9763">Bilge/Engine Blower</text><!--MD5=[593e445c9278762cb4ef7b840df82fac]
entity Keyboard_Mouse--><rect fill="#FEFECE" filter="url(#f1ps9dmtm07ym9)" height="41.4141" style="stroke:#000000;stroke-width:1.125;" width="60.75" x="435.75" y="114.7483"/><text fill="#000000" font-family="sans-serif" font-size="10.5" lengthAdjust="spacing" textLength="45.75" x="443.25" y="133.1482">Keyboard</text><text fill="#000000" font-family="sans-serif" font-size="10.5" lengthAdjust="spacing" textLength="31.5" x="443.25" y="146.3552">Mouse</text><!--MD5=[6068ed0baf2edbbb46a7f906664363da]
entity Weather--><rect fill="#FEFECE" filter="url(#f1ps9dmtm07ym9)" height="54.6211" style="stroke:#000000;stroke-width:1.125;" width="72.75" x="1063.5" y="592.8733"/><text fill="#000000" font-family="sans-serif" font-size="10.5" lengthAdjust="spacing" textLength="35.25" x="1071" y="611.2732">NavTex</text><text fill="#000000" font-family="sans-serif" font-size="10.5" lengthAdjust="spacing" textLength="57.75" x="1071" y="624.4802">WeatherFax</text><text fill="#000000" font-family="sans-serif" font-size="10.5" lengthAdjust="spacing" textLength="50.25" x="1071" y="637.6873">Barograph</text><!--MD5=[0df37b53dbcc900899e095c990e30b8f]
entity SiriusXM--><rect fill="#FEFECE" filter="url(#f1ps9dmtm07ym9)" height="28.207" style="stroke:#000000;stroke-width:1.125;" width="90.75" x="173.25" y="314.9983"/><text fill="#000000" font-family="sans-serif" font-size="10.5" lengthAdjust="spacing" textLength="75.75" x="180.75" y="333.3982">SiriusXM Marine</text><!--MD5=[d59b03f458f75ee04d94168ba7ec459b]
entity SmartPhone--><rect fill="#FEFECE" filter="url(#f1ps9dmtm07ym9)" height="41.4141" style="stroke:#000000;stroke-width:1.125;" width="78.75" x="330.75" y="114.7483"/><text fill="#000000" font-family="sans-serif" font-size="10.5" lengthAdjust="spacing" textLength="63.75" x="338.25" y="133.1482">SmartPhones</text><text fill="#000000" font-family="sans-serif" font-size="10.5" lengthAdjust="spacing" textLength="35.25" x="338.25" y="146.3552">Tablets</text><!--MD5=[13e88d8e4422c8d855b54f0d2bc171be]
entity NAS--><path d="M849,296.6233 C849,289.1233 916.125,289.1233 916.125,289.1233 C916.125,289.1233 983.25,289.1233 983.25,296.6233 L983.25,362.2014 C983.25,369.7014 916.125,369.7014 916.125,369.7014 C916.125,369.7014 849,369.7014 849,362.2014 L849,296.6233 " fill="#FEFECE" filter="url(#f1ps9dmtm07ym9)" style="stroke:#000000;stroke-width:1.125;"/><path d="M849,296.6233 C849,304.1233 916.125,304.1233 916.125,304.1233 C916.125,304.1233 983.25,304.1233 983.25,296.6233 " fill="none" style="stroke:#000000;stroke-width:1.125;"/><text fill="#000000" font-family="sans-serif" font-size="10.5" lengthAdjust="spacing" textLength="20.25" x="856.5" y="318.0232">NAS</text><path d="M849,316.5803 C849,324.0803 916.125,324.0803 916.125,324.0803 C916.125,324.0803 983.25,324.0803 983.25,316.5803 " fill="none" style="stroke:#000000;stroke-width:0.75;"/><text fill="#000000" font-family="sans-serif" font-size="10.5" lengthAdjust="spacing" textLength="74.25" x="856.5" y="334.2302">Audio/Video Lib</text><text fill="#000000" font-family="sans-serif" font-size="10.5" lengthAdjust="spacing" textLength="119.25" x="856.5" y="347.4373">Charts, Backups, Tracks,</text><text fill="#000000" font-family="sans-serif" font-size="10.5" lengthAdjust="spacing" textLength="102" x="856.5" y="360.6443">Time Series Data, etc</text><!--MD5=[ee9653e0a8f11fcc17536c9839054b2a]
entity Winches--><polygon fill="#FEFECE" filter="url(#f1ps9dmtm07ym9)" points="462.375,596.6233,469.875,589.1233,571.875,589.1233,571.875,643.7444,564.375,651.2444,462.375,651.2444,462.375,596.6233" style="stroke:#000000;stroke-width:1.125;"/><line style="stroke:#000000;stroke-width:1.125;" x1="564.375" x2="571.875" y1="596.6233" y2="589.1233"/><line style="stroke:#000000;stroke-width:1.125;" x1="462.375" x2="564.375" y1="596.6233" y2="596.6233"/><line style="stroke:#000000;stroke-width:1.125;" x1="564.375" x2="564.375" y1="596.6233" y2="651.2444"/><text fill="#000000" font-family="sans-serif" font-size="10.5" lengthAdjust="spacing" textLength="79.5" x="473.625" y="615.0232">Anchor Windlass</text><text fill="#000000" font-family="sans-serif" font-size="10.5" lengthAdjust="spacing" textLength="72.75" x="473.625" y="628.2302">Power Winches</text><text fill="#000000" font-family="sans-serif" font-size="10.5" lengthAdjust="spacing" textLength="63" x="473.625" y="641.4373">Bow Thruster</text><!--MD5=[48e79d9335dd0cd53682a5a492aea5d9]
entity Cloud_Internet--><path d="M911.37,14.9541 C913.3593,9.9999 916.488,9.5325 920.3845,12.8841 C922.7436,6.86 925.9102,6.3585 930.2808,11.0215 C932.8684,6.0405 937.6885,4.9621 940.88,10.4076 C943.8199,4.5 948.5284,4.6685 952.1456,9.7107 C954.8845,5.8281 959.2676,5.8353 961.3777,10.3981 C965.039,7.0284 969.3227,7.0647 971.1852,12.4201 C974.2201,8.0303 978.4136,7.8565 981.5272,12.3283 C986.0741,6.9662 989.4632,8.062 992.4265,13.873 C997.7368,16.5818 997.5361,20.1161 993.0333,23.4468 C997.4799,24.909 997.3418,27.3848 994.9006,30.6361 C999.5037,32.8941 1001.0238,36.2481 996.5822,40.1113 C999.4579,43.2044 998.8378,46.1103 994.6027,47.2246 C997.5846,50.323 997.7017,53.2156 993.5588,55.4047 C997.5291,58.726 997.1444,61.4612 992.6245,63.8424 C989.5001,68.677 986.4678,70.0958 982.1858,65.0676 C979.3107,69.7086 975.123,70.2089 972.3537,64.9624 C969.6673,71.0583 964.531,70.1524 961.3522,65.4647 C959.1775,70.1089 954.0888,71.407 950.7532,66.794 C946.9814,71.2818 943.9987,70.3537 941.5774,65.4714 C938.0542,70.9702 934.8873,70.5021 931.2552,65.5794 C928.1124,70.5031 924.4194,69.7351 921.2029,65.6618 C916.5913,70.436 912.5956,70.5029 909.7714,63.8706 C906.115,61.6061 905.8013,58.1779 909.6098,55.7646 C905.2476,53.4234 905.175,50.5302 909.1932,47.7532 C904.8151,45.2295 905.237,41.9979 908.8303,39.1383 C905.4768,36.2381 905.1462,33.4069 909.332,30.9698 C905.4002,27.8643 906.0604,24.6342 910.6964,22.9945 C906.7252,19.8859 907.4817,17.4043 911.37,14.9541 " fill="#FEFECE" filter="url(#f1ps9dmtm07ym9)" style="stroke:#000000;stroke-width:1.125;"/><text fill="#000000" font-family="sans-serif" font-size="10.5" font-weight="bold" lengthAdjust="spacing" textLength="42" x="915" y="29.6482">Internet</text><text fill="#000000" font-family="sans-serif" font-size="10.5" lengthAdjust="spacing" textLength="68.25" x="915" y="42.8552">Cloud Storage</text><text fill="#000000" font-family="sans-serif" font-size="10.5" lengthAdjust="spacing" textLength="71.25" x="915" y="56.0623">Cloud Services</text><!--MD5=[f38da3986c5ca1dec060c2524b9ccddc]
entity Lora--><path d="M605.4937,596.334 C607.0226,592.3117 609.4161,591.8051 612.6445,594.5338 C614.386,590.5766 618.3439,589.9396 621.3197,593.0102 C623.5755,589.5285 627.0706,590.1258 628.9777,593.4051 C631.4292,587.8667 634.6522,588.3996 638.6113,591.7759 C640.2174,587.3829 642.8773,586.9595 646.0625,590.2431 C649.8212,587.009 652.3698,588.0647 654.4345,592.1743 C657.6789,588.5184 660.0274,589.7466 662.1708,593.348 C664.3827,589.9652 668.3155,589.7817 670.2823,593.6231 C673.6136,589.8015 676.7329,590.8112 678.4482,595.2254 C681.5696,590.469 685.2055,590.7953 688.0862,595.4714 C692.6675,597.4679 692.5852,601.4314 688.9405,604.2301 C693.1601,606.409 693.87,609.4045 689.8815,612.5156 C695.2627,613.9303 695.3684,617.628 692.2514,621.328 C696.2147,624.7676 694.4657,628.621 690.2203,630.1763 C693.6619,633.1064 693.3397,636.1072 689.1117,637.9425 C692.7674,641.4031 692.2575,644.7599 687.3874,646.5033 C684.9134,649.6414 682.1831,649.7564 679.6838,646.534 C677.0001,650.2136 673.8738,650.5957 671.5587,646.1648 C669.2683,651.2145 666.4228,651.5229 662.7773,647.4724 C660.4622,650.7904 657.5935,651.3439 655.1822,647.5756 C652.621,651.249 649.4993,651.3922 646.6148,647.9657 C643.6284,650.9637 640.7254,650.4763 638.6358,646.8805 C636.0085,650.3242 632.118,651.0651 629.9021,646.4353 C627.3892,649.9379 624.2146,650.8023 621.7858,646.3495 C619.2434,649.9671 616.6262,650.335 613.4549,647.1158 C610.0086,650.1419 606.8751,649.9693 605.0779,645.3167 C601.17,643.7213 599.8232,640.3252 603.7067,637.3831 C599.2376,634.8638 599.1232,631.9624 603.4977,629.2168 C599.5647,626.3477 599.8117,623.9874 603.7176,621.3371 C599.7189,618.0614 600.3931,615.0172 604.6123,612.5812 C600.9487,610.1371 601.2591,606.7599 604.8357,604.5163 C601.5984,601.5867 601.2748,598.664 605.4937,596.334 " fill="#FEFECE" filter="url(#f1ps9dmtm07ym9)" style="stroke:#000000;stroke-width:1.125;"/><text fill="#000000" font-family="sans-serif" font-size="10.5" lengthAdjust="spacing" textLength="45" x="609.375" y="611.2732">LoraWAN</text><text fill="#000000" font-family="sans-serif" font-size="10.5" lengthAdjust="spacing" textLength="70.5" x="609.375" y="624.4802">Asset Tracking</text><text fill="#000000" font-family="sans-serif" font-size="10.5" lengthAdjust="spacing" textLength="72" x="609.375" y="637.6873">Dinghy Locator</text><!--MD5=[3ff5d2fb9a8117c537632aae671cabcb]
entity Esp32--><rect fill="#FEFECE" filter="url(#f1ps9dmtm07ym9)" height="41.4141" style="stroke:#000000;stroke-width:1.125;" width="57" x="514.125" y="457.4983"/><text fill="#000000" font-family="sans-serif" font-size="10.5" lengthAdjust="spacing" textLength="42" x="521.625" y="475.8982">m5stack,</text><text fill="#000000" font-family="sans-serif" font-size="10.5" lengthAdjust="spacing" textLength="36" x="521.625" y="489.1052">arduino</text><!--MD5=[5d3c09c67791d820f6e58e35ac1308e3]
link RPI to GPS--><path codeLine="191" d="M598.155,376.6258 C606.9075,406.8208 617.7075,444.0433 623.4075,463.7083 " fill="none" id="RPI-GPS" style="stroke:#A80036;stroke-width:0.75;"/><!--MD5=[c6d492c1e608e21002a1e79a049df954]
link IMU to RPI--><path codeLine="192" d="M502.6125,329.2483 C511.2675,329.2483 519.915,329.2483 528.5625,329.2483 " fill="none" id="IMU-RPI" style="stroke:#A80036;stroke-width:0.75;"/><!--MD5=[a860cb1a85174d4976dae9c4f32e49f8]
link RPI to NMEA_2000--><path codeLine="193" d="M528.6075,370.3558 C524.3175,372.6283 519.9675,374.7133 515.625,376.4983 C416.475,417.2908 374.28,373.0633 278.625,421.4983 C268.7175,426.5158 259.2825,433.6633 250.9425,441.1708 " fill="none" id="RPI-NMEA_2000" style="stroke:#A80036;stroke-width:0.75;"/><!--MD5=[f75ecebad45d24d2cfeff8c08b96d55d]
link RPI to NMEA_Mux--><path codeLine="194" d="M640.62,371.8333 C674.4525,397.1083 716.565,428.5783 745.965,450.5458 " fill="none" id="RPI-NMEA_Mux" style="stroke:#A80036;stroke-width:0.75;"/><!--MD5=[3577f1ad49970e59a1e1697b6041c28e]
link Eth_Hub to RPI--><path codeLine="195" d="M931.3875,232.5433 C858.9525,252.5908 718.9425,291.3283 640.8075,312.9508 " fill="none" id="Eth_Hub-RPI" style="stroke:#A80036;stroke-width:0.75;"/><!--MD5=[1d20bbed48bf86b90ee5f13bc892e6f4]
link RPI to USB_Hub--><path codeLine="196" d="M640.545,347.2333 C696.5925,364.8058 785.16,393.4183 860.625,421.4983 C894.5025,434.1058 932.49,449.9908 959.52,461.6008 " fill="none" id="RPI-USB_Hub" style="stroke:#A80036;stroke-width:0.75;"/><!--MD5=[920310a45a910abea0e78fc3f928b9c7]
link Touchscreen to RPI--><path codeLine="197" d="M317.4525,234.5233 C392.3925,251.6308 506.445,277.9783 515.625,281.9983 C519.99,283.9108 524.3775,286.1008 528.7125,288.4708 " fill="none" id="Touchscreen-RPI" style="stroke:#A80036;stroke-width:0.75;"/><!--MD5=[e542bf0be54ca915b2a2c465769198ce]
link Cameras to RPI--><path codeLine="198" d="M665.7675,149.7058 C674.865,169.5808 688.365,207.4483 676.125,236.9983 C668.43,255.5758 654.93,272.3458 640.6275,286.3033 " fill="none" id="Cameras-RPI" style="stroke:#A80036;stroke-width:0.75;"/><!--MD5=[738bdf1011746a1c073c591ef970d801]
reverse link Speakers to RPI--><path codeLine="199" d="M625.05,236.9083 C619.695,249.0508 612.2325,265.9408 605.1825,281.9233 " fill="none" id="Speakers-backto-RPI" style="stroke:#A80036;stroke-width:0.75;"/><polygon fill="#A80036" points="626.64,233.3008,621.1787,238.2744,625.1319,236.7342,626.6721,240.6874,626.64,233.3008" style="stroke:#A80036;stroke-width:0.75;"/><!--MD5=[9d6d2f6c2f4d2fc3bb3ff0dee1317c54]
link SSB to RPI--><path codeLine="200" d="M543.705,237.2233 C549.1425,249.3508 556.6575,266.1133 563.7675,281.9683 " fill="none" id="SSB-RPI" style="stroke:#A80036;stroke-width:0.75;"/><!--MD5=[ba43404d2398351bd02a197b89c6dc04]
link Iridium to RPI--><path codeLine="201" d="M748.4925,149.8783 C739.695,170.3083 721.2525,209.2408 697.875,236.9983 C681.345,256.6183 660.12,275.0683 640.5225,290.1883 " fill="none" id="Iridium-RPI" style="stroke:#A80036;stroke-width:0.75;"/><!--MD5=[72d1981d7f6e9ae87e7ce2d696ef1c70]
link RPI to Other_Sensors--><path codeLine="202" d="M528.525,367.8283 C524.16,370.7608 519.825,373.6783 515.625,376.4983 C490.2675,393.5308 462.48,412.1308 437.7525,428.6758 " fill="none" id="RPI-Other_Sensors" style="stroke:#A80036;stroke-width:0.75;"/><!--MD5=[e6b62623cb5cffca99b55a6fc459f471]
link RPI to Esp32--><path codeLine="203" d="M571.335,376.6258 C563.5725,403.8658 554.175,436.8358 548.3025,457.4608 " fill="none" id="RPI-Esp32" style="stroke:#A80036;stroke-width:0.75;"/><!--MD5=[abd7622213c1ceda57fd7e6c8ce2488a]
link WiFi_Local to RPI--><path codeLine="204" d="M416.1075,234.4558 C443.9175,246.1933 482.955,263.6608 515.625,281.9983 C519.9075,284.4058 524.2725,286.9858 528.615,289.6633 " fill="none" id="WiFi_Local-RPI" style="stroke:#A80036;stroke-width:0.75;"/><!--MD5=[9befc12befc76c6c24a0e27f7270b253]
link Keyboard_Mouse to RPI--><path codeLine="205" d="M465.5775,156.1483 C465.825,177.4558 468.69,211.5508 482.625,236.9983 C493.7625,257.3458 511.215,275.4658 528.5475,290.1058 " fill="none" id="Keyboard_Mouse-RPI" style="stroke:#A80036;stroke-width:0.75;"/><!--MD5=[a15dace8b9997a4e161f7e6bb21c3756]
link SmartPhone to WiFi_Local--><path codeLine="207" d="M372.4875,156.0058 C374.1075,169.6783 376.245,187.6633 377.805,200.7808 " fill="none" id="SmartPhone-WiFi_Local" style="stroke:#A80036;stroke-width:0.75;"/><!--MD5=[a6a6198443ed7f46598e3abcaaf7a198]
link SiriusXM to NMEA_2000--><path codeLine="209" d="M218.625,343.5958 C218.625,365.6158 218.625,409.7833 218.625,441.3433 " fill="none" id="SiriusXM-NMEA_2000" style="stroke:#A80036;stroke-width:0.75;"/><!--MD5=[f06790075d9412e28e90e4ac15acc0e3]
link Eth_Hub to Router--><path codeLine="211" d="M1023.915,218.9983 C1032.51,218.9983 1041.0975,218.9983 1049.6925,218.9983 " fill="none" id="Eth_Hub-Router" style="stroke:#A80036;stroke-width:0.75;"/><!--MD5=[4e13fc5b7ed4d5c8bb5a843a2b474eca]
link Eth_Hub to Radar--><path codeLine="212" d="M987.5025,237.2233 C998.985,257.5183 1017.8025,290.7958 1029.27,311.0683 " fill="none" id="Eth_Hub-Radar" style="stroke:#A80036;stroke-width:0.75;"/><!--MD5=[0ff0ce0d78f63490cbe2abe10619b3e8]
link Eth_Hub to NAS--><path codeLine="213" d="M967.7475,237.2233 C959.865,251.1508 948.5325,271.1983 938.4825,288.9583 " fill="none" id="Eth_Hub-NAS" style="stroke:#A80036;stroke-width:0.75;"/><!--MD5=[fdba92f7cd499ccd998d05999f71f6ae]
link Dish_Router to Eth_Hub--><path codeLine="214" d="M1008.3225,156.0058 C1001.58,169.6783 992.7075,187.6633 986.2425,200.7808 " fill="none" id="Dish_Router-Eth_Hub" style="stroke:#A80036;stroke-width:0.75;"/><!--MD5=[fbe332a3304dc4c8c3dfaece74a779f6]
link USB_Hub to SDR--><path codeLine="216" d="M995.625,496.4008 C995.625,523.4908 995.625,575.2333 995.625,602.1958 " fill="none" id="USB_Hub-SDR" style="stroke:#A80036;stroke-width:0.75;"/><!--MD5=[4ba09ff32a53e36c5fb85e6eec1de587]
link USB_Hub to Weather--><path codeLine="217" d="M1008.615,496.4008 C1026.5775,520.6258 1059.135,564.5458 1080.12,592.8433 " fill="none" id="USB_Hub-Weather" style="stroke:#A80036;stroke-width:0.75;"/><!--MD5=[2a0b371ec03d2c21e471fa956f48a495]
link Other_Sensors to AC--><path codeLine="219" d="M334.7175,534.8533 C323.3325,555.9958 310.9725,578.9383 301.995,595.6033 " fill="none" id="Other_Sensors-AC" style="stroke:#A80036;stroke-width:0.75;"/><!--MD5=[cbb222f50bcb791e9720287055fe13dd]
link Other_Sensors to Fridge--><path codeLine="220" d="M291.945,528.4858 C287.5125,530.7508 283.0575,532.8658 278.625,534.7483 C197.67,569.1733 163.7025,538.7458 85.875,579.7483 C75.195,585.3733 65.115,594.2608 57.36,602.2033 " fill="none" id="Other_Sensors-Fridge" style="stroke:#A80036;stroke-width:0.75;"/><!--MD5=[bde99af21072dc4abd6c3e9790e945d2]
link Other_Sensors to Lights_Fans--><path codeLine="221" d="M292.005,530.2408 C268.8525,546.5608 243.615,564.3508 221.805,579.7258 " fill="none" id="Other_Sensors-Lights_Fans" style="stroke:#A80036;stroke-width:0.75;"/><!--MD5=[9816221c84b92aca30c282d28f000dea]
link Other_Sensors to Pumps--><path codeLine="222" d="M375.3225,534.8533 C378.1275,549.8683 381.0975,565.7908 383.7,579.7258 " fill="none" id="Other_Sensors-Pumps" style="stroke:#A80036;stroke-width:0.75;"/><!--MD5=[f4051e061112c5a67383a685ff83d16a]
link NMEA_Mux to NMEA_0183--><path codeLine="224" d="M781.875,505.6558 C781.875,527.6458 781.875,559.0108 781.875,583.2508 " fill="none" id="NMEA_Mux-NMEA_0183" style="stroke:#A80036;stroke-width:0.75;"/><!--MD5=[993848724ee1e0bda2efd2c10d093eb0]
link NMEA_Mux to AP--><path codeLine="225" d="M804.3,505.6558 C829.2525,535.4608 868.62,582.4633 888.0225,605.6383 " fill="none" id="NMEA_Mux-AP" style="stroke:#A80036;stroke-width:0.75;"/><!--MD5=[4c412d33c9dd3373fedf634d2cfe895b]
link Esp32 to Lora--><path codeLine="227" d="M557.3475,499.0183 C574.545,522.5608 603.1875,561.7633 623.115,589.0333 " fill="none" id="Esp32-Lora" style="stroke:#A80036;stroke-width:0.75;"/><!--MD5=[3a78a92175d5b8f917843889fc4ac663]
link Esp32 to Winches--><path codeLine="228" d="M538.9725,499.0183 C534.705,522.5608 527.595,561.7633 522.6525,589.0333 " fill="none" id="Esp32-Winches" style="stroke:#A80036;stroke-width:0.75;"/><!--MD5=[090045518a7210d3fe050bd4b1b61143]
link Cloud_Internet to Dish_Router--><path codeLine="230" d="M972.165,69.7708 C982.5825,84.4708 994.7925,101.7058 1004.01,114.7108 " fill="none" id="Cloud_Internet-Dish_Router" style="stroke:#A80036;stroke-width:0.75;"/><!--MD5=[0417bd4aebf7681efb342db5775863ca]
link Cloud_Internet to Router--><path codeLine="231" d="M997.665,56.7058 C1024.7475,68.9758 1057.2975,88.0408 1077.375,114.7483 C1096.74,140.5033 1102.26,178.8883 1103.805,200.9533 " fill="none" id="Cloud_Internet-Router" style="stroke:#A80036;stroke-width:0.75;"/><!--MD5=[6d4697dd1a4fa0e14865453f969898e5]
link Cloud_Internet to Iridium--><path codeLine="232" d="M903.555,62.1883 C865.635,80.5708 813.6,105.7933 782.0025,121.1083 " fill="none" id="Cloud_Internet-Iridium" style="stroke:#A80036;stroke-width:0.75;"/><!--MD5=[f7b1ed679f3dcc8891234d56821c2a8b]
link Cloud_Internet to Remote_Desktop--><path codeLine="233" d="M929.085,69.7708 C916.89,86.9758 902.2425,107.6458 892.815,120.9508 " fill="none" id="Cloud_Internet-Remote_Desktop" style="stroke:#A80036;stroke-width:0.75;"/><!--MD5=[f7c22a6020875df2ba44dffafefaebb5]
link Skipper to Touchscreen--><path codeLine="235" d="M545.6175,40.6483 C502.1325,44.5483 389.655,59.6683 317.625,114.7483 C287.925,137.4583 268.2225,177.8608 258.81,200.8933 " fill="none" id="Skipper-Touchscreen" style="stroke:#A80036;stroke-width:0.75;"/><!--MD5=[180a6a48d329b5088bf365124668f177]
link Skipper to Speakers--><path codeLine="236" d="M575.4075,69.9208 C590.61,109.3333 616.41,176.2183 627.4125,204.7258 " fill="none" id="Skipper-Speakers" style="stroke:#A80036;stroke-width:0.75;"/><!--MD5=[b5f99795dccb66293530d697261f575d]
link Skipper to Cameras--><path codeLine="237" d="M581.7675,57.5158 C600.225,75.9733 628.425,104.1733 645.12,120.8683 " fill="none" id="Skipper-Cameras" style="stroke:#A80036;stroke-width:0.75;"/><!--MD5=[4d7243369b38bcf5d3d8f8df86a5cab3]
link Skipper to Iridium--><path codeLine="238" d="M581.8875,48.5083 C615.6,65.3608 687.7425,101.4358 727.1175,121.1233 " fill="none" id="Skipper-Iridium" style="stroke:#A80036;stroke-width:0.75;"/><!--MD5=[c0261e63bc2c3c7d09c0762b33b29a4a]
link Skipper to SSB--><path codeLine="239" d="M558.885,69.9208 C553.035,107.6383 543.2775,170.5108 538.575,200.8333 " fill="none" id="Skipper-SSB" style="stroke:#A80036;stroke-width:0.75;"/><!--MD5=[7055ac5873383501a6665c2abfcc17ee]
link Skipper to SmartPhone--><path codeLine="240" d="M545.4225,48.3358 C514.515,63.5458 451.11,94.7608 409.6275,115.1758 " fill="none" id="Skipper-SmartPhone" style="stroke:#A80036;stroke-width:0.75;"/><!--MD5=[9e619f9f7e27f8b7daf8036513ac83ac]
link Skipper to Keyboard_Mouse--><path codeLine="241" d="M545.5125,57.0658 C528.7725,73.4233 503.925,97.6933 486.495,114.7183 " fill="none" id="Skipper-Keyboard_Mouse" style="stroke:#A80036;stroke-width:0.75;"/><!--MD5=[791020c57217bb146034c35bb978d496]
link Skipper to Remote_Desktop--><path codeLine="242" d="M581.715,44.7658 C630.5625,59.3308 766.215,99.7708 837.705,121.0858 " fill="none" id="Skipper-Remote_Desktop" style="stroke:#A80036;stroke-width:0.75;"/><!--MD5=[f5a9e880afa2173b15f22ba4ca74493d]
@startuml

actor Skipper [
 Skipper
]

node RPI [
 <b>Rpi4, BBN OS
 - - - -
 Local WiFi
 CanBus Interface
 Sound Card
 SSD
]

rectangle GPS [
 GPS USB
]

rectangle IMU [
 IMU
 - - - -
 compass, gyro, accel
]

rectangle NMEA_2000 [
 <b>NMEA2000 Bus
 - - - -
 engine sensors,
 fishfinder, sonar,
 etc
]

node NMEA_Mux [
 NMEA Multiplexer
 - - - -
 bidirectional Seatalk1
]

rectangle NMEA_0183 [
 <b>NMEA 0183 Devices
 - - - -
 AIS transducer/receiver
 GPS, VHF, compass
 Wind, Depth, Speed
]

rectangle AP [
 Autopilot
]

node Eth_Hub [
 Ethernet Hub
]

node USB_Hub [
 USB Hub
]

node Router [
 LTE/WiFi Router
]

rectangle Dish_Router [
 StarLink Router,
 Dish
]

node Radar [
 Radar
]

node Touchscreen [
 <b>HDMI Touchscreen
]

rectangle Speakers [
 Speakers
]

rectangle Cameras [
 Cameras
]

node SDR [
 SDR Radio
]

node SSB [
 SSB Radio
]

cloud WiFi_Local [
 Local WiFi
]

rectangle Iridium [
 Iridium Phone
]

rectangle Other_Sensors [
 Other_Sensors
 - - - -
 IoT, 1w, i2c, etc
 battery/chargers monitoring
 fluid levels
 env temp/pressure/humid
 dangerous gases sensors
 lightning strike sensors
]

rectangle Remote_Desktop [
 Remote Desktop (VNC)
]

node AC [
 A/C
 Heater
]

node Pumps [
 Pumps
 - - - -
 Bilge
 Fresh Water
 Black Water
]

node Fridge [
 Fridge
]

rectangle Lights_Fans [
 Lights: (Nav, Anchor,
 Running, Mast, Cabin,
 Underwater, Search, etc)
 Fans
 Bilge/Engine Blower
]

rectangle Keyboard_Mouse [
 Keyboard
 Mouse
]

rectangle Weather [
 NavTex
 WeatherFax
 Barograph
]

rectangle SiriusXM [
 SiriusXM Marine
]

rectangle SmartPhone [
 SmartPhones
 Tablets
]

database NAS [
 NAS
 - - - -
 Audio/Video Lib
 Charts, Backups, Tracks,
 Time Series Data, etc
]

node Winches [
 Anchor Windlass
 Power Winches
 Bow Thruster
]

cloud Cloud_Internet [
 <b>Internet
 Cloud Storage
 Cloud Services
]

cloud Lora [
 LoraWAN
 Asset Tracking
 Dinghy Locator
]

rectangle Esp32 [
 m5stack,
 arduino
]

RPI - - GPS
RPI -l- IMU
RPI - - NMEA_2000
RPI - - NMEA_Mux
RPI -u- Eth_Hub
RPI - - USB_Hub
RPI -u- Touchscreen
RPI -u- Cameras
RPI -u-> Speakers
RPI -u- SSB
RPI -u- Iridium
RPI - - Other_Sensors
RPI -d- Esp32
RPI -u- WiFi_Local
RPI -u- Keyboard_Mouse

SmartPhone - - WiFi_Local

SiriusXM - - NMEA_2000

Eth_Hub -r- Router
Eth_Hub - - Radar
Eth_Hub - - NAS
Eth_Hub -u- Dish_Router

USB_Hub - - SDR
USB_Hub - - Weather

Other_Sensors - - AC
Other_Sensors - - Fridge
Other_Sensors - - Lights_Fans
Other_Sensors - - Pumps

NMEA_Mux - - NMEA_0183
NMEA_Mux - - AP

Esp32 - - Lora
Esp32 - - Winches

Cloud_Internet - - Dish_Router
Cloud_Internet - - Router
Cloud_Internet - - Iridium
Cloud_Internet - - Remote_Desktop

Skipper - - Touchscreen
Skipper - - Speakers
Skipper - - Cameras
Skipper - - Iridium
Skipper - - SSB
Skipper - - SmartPhone
Skipper - - Keyboard_Mouse
Skipper - - Remote_Desktop

@enduml

PlantUML version 1.2021.00(Sun Jan 10 05:25:05 EST 2021)
(GPL source distribution)
Java Runtime: OpenJDK Runtime Environment
JVM: OpenJDK 64-Bit Server VM
Default Encoding: Cp1252
Language: en
Country: US
--></g></svg>