<?xml version="1.0" encoding="UTF-8" standalone="no"?><svg xmlns="http://www.w3.org/2000/svg" xmlns:xlink="http://www.w3.org/1999/xlink" contentScriptType="application/ecmascript" contentStyleType="text/css" height="424px" preserveAspectRatio="none" style="width:577px;height:424px;" version="1.1" viewBox="0 0 577 424" width="577.5px" zoomAndPan="magnify"><defs><filter height="300%" id="f7iang5gzwbzv" width="300%" x="-1" y="-1"><feGaussianBlur result="blurOut" stdDeviation="1.0"/><feColorMatrix in="blurOut" result="blurOut2" type="matrix" values="0 0 0 0 0 0 0 0 0 0 0 0 0 0 0 0 0 0 .4 0"/><feOffset dx="2.0" dy="2.0" in="blurOut2" result="blurOut3"/><feBlend in="SourceGraphic" in2="blurOut3" mode="normal"/></filter></defs><g><!--MD5=[f50827fad462c3f51a79aa3f1564e3ff]
entity Skipper--><ellipse cx="178" cy="9.7489" fill="#FEFECE" filter="url(#f7iang5gzwbzv)" rx="4" ry="4" style="stroke:#A80036;stroke-width:0.75;"/><path d="M178,13.7489 L178,27.2489 M171.5,17.7489 L184.5,17.7489 M178,27.2489 L171.5,34.7489 M178,27.2489 L184.5,34.7489 " fill="none" filter="url(#f7iang5gzwbzv)" style="stroke:#A80036;stroke-width:0.75;"/><text fill="#000000" font-family="sans-serif" font-size="7" lengthAdjust="spacing" textLength="24" x="166" y="44.7655">Skipper</text><!--MD5=[56bb6c3bc4df8cdefb957cc5b3ef3a7e]
entity RPI--><polygon fill="#FEFECE" filter="url(#f7iang5gzwbzv)" points="228.25,192.9989,233.25,187.9989,302.75,187.9989,302.75,246.0223,297.75,251.0223,228.25,251.0223,228.25,192.9989" style="stroke:#000000;stroke-width:0.75;"/><line style="stroke:#000000;stroke-width:0.75;" x1="297.75" x2="302.75" y1="192.9989" y2="187.9989"/><line style="stroke:#000000;stroke-width:0.75;" x1="228.25" x2="297.75" y1="192.9989" y2="192.9989"/><line style="stroke:#000000;stroke-width:0.75;" x1="297.75" x2="297.75" y1="192.9989" y2="251.0223"/><text fill="#000000" font-family="sans-serif" font-size="7" font-weight="bold" lengthAdjust="spacing" textLength="46.5" x="235.75" y="205.2655">Rpi4, BBN OS</text><line style="stroke:#000000;stroke-width:0.5;" x1="228.25" x2="297.75" y1="206.8036" y2="206.8036"/><line style="stroke:#000000;stroke-width:0.5;" x1="297.75" x2="302.75" y1="206.8036" y2="201.8036"/><text fill="#000000" font-family="sans-serif" font-size="7" lengthAdjust="spacing" textLength="33" x="235.75" y="216.0702">Local WiFi</text><text fill="#000000" font-family="sans-serif" font-size="7" lengthAdjust="spacing" textLength="54.5" x="235.75" y="224.8748">CanBus Interface</text><text fill="#000000" font-family="sans-serif" font-size="7" lengthAdjust="spacing" textLength="38" x="235.75" y="233.6795">Sound Card</text><text fill="#000000" font-family="sans-serif" font-size="7" lengthAdjust="spacing" textLength="14" x="235.75" y="242.4842">SSD</text><!--MD5=[cd1d357e028b96f42ee72ab526715f53]
entity GPS--><rect fill="#FEFECE" filter="url(#f7iang5gzwbzv)" height="18.8047" style="stroke:#000000;stroke-width:0.75;" width="40" x="107" y="300.4989"/><text fill="#000000" font-family="sans-serif" font-size="7" lengthAdjust="spacing" textLength="30" x="112" y="312.7655">GPS USB</text><!--MD5=[ae8265c62b5fdfc486198cf91618d43d]
entity IMU--><rect fill="#FEFECE" filter="url(#f7iang5gzwbzv)" height="31.6094" style="stroke:#000000;stroke-width:0.75;" width="76.5" x="134.25" y="203.7489"/><text fill="#000000" font-family="sans-serif" font-size="7" lengthAdjust="spacing" textLength="11.5" x="139.25" y="216.0155">IMU</text><line style="stroke:#000000;stroke-width:0.5;" x1="134.75" x2="210.25" y1="217.5536" y2="217.5536"/><text fill="#000000" font-family="sans-serif" font-size="7" lengthAdjust="spacing" textLength="66.5" x="139.25" y="226.8202">compass, gyro, accel</text><!--MD5=[b17a41457b887f0466e22bd7e05c4601]
entity NMEA_2000--><rect fill="#FEFECE" filter="url(#f7iang5gzwbzv)" height="49.2188" style="stroke:#000000;stroke-width:0.75;" width="63" x="26.5" y="285.4989"/><text fill="#000000" font-family="sans-serif" font-size="7" font-weight="bold" lengthAdjust="spacing" textLength="52" x="31.5" y="297.7655">NMEA2000 Bus</text><line style="stroke:#000000;stroke-width:0.5;" x1="27" x2="89" y1="299.3036" y2="299.3036"/><text fill="#000000" font-family="sans-serif" font-size="7" lengthAdjust="spacing" textLength="50.5" x="31.5" y="308.5702">engine sensors,</text><text fill="#000000" font-family="sans-serif" font-size="7" lengthAdjust="spacing" textLength="53" x="31.5" y="317.3748">fishfinder, sonar,</text><text fill="#000000" font-family="sans-serif" font-size="7" lengthAdjust="spacing" textLength="9.5" x="31.5" y="326.1795">etc</text><!--MD5=[6eed89ef60fd1dd7e5ad5481c6afc096]
entity NMEA_Mux--><polygon fill="#FEFECE" filter="url(#f7iang5gzwbzv)" points="164.75,296.7489,169.75,291.7489,252.25,291.7489,252.25,323.3582,247.25,328.3582,164.75,328.3582,164.75,296.7489" style="stroke:#000000;stroke-width:0.75;"/><line style="stroke:#000000;stroke-width:0.75;" x1="247.25" x2="252.25" y1="296.7489" y2="291.7489"/><line style="stroke:#000000;stroke-width:0.75;" x1="164.75" x2="247.25" y1="296.7489" y2="296.7489"/><line style="stroke:#000000;stroke-width:0.75;" x1="247.25" x2="247.25" y1="296.7489" y2="328.3582"/><text fill="#000000" font-family="sans-serif" font-size="7" lengthAdjust="spacing" textLength="54.5" x="172.25" y="309.0155">NMEA Multiplexer</text><line style="stroke:#000000;stroke-width:0.5;" x1="164.75" x2="247.25" y1="310.5536" y2="310.5536"/><line style="stroke:#000000;stroke-width:0.5;" x1="247.25" x2="252.25" y1="310.5536" y2="305.5536"/><text fill="#000000" font-family="sans-serif" font-size="7" lengthAdjust="spacing" textLength="67.5" x="172.25" y="319.8202">bidirectional Seatalk1</text><!--MD5=[1eaf4d2f8be208adf81d4b0ad8be7432]
entity NMEA_0183--><rect fill="#FEFECE" filter="url(#f7iang5gzwbzv)" height="49.2188" style="stroke:#000000;stroke-width:0.75;" width="84" x="145" y="368.9989"/><text fill="#000000" font-family="sans-serif" font-size="7" font-weight="bold" lengthAdjust="spacing" textLength="69" x="150" y="381.2655">NMEA 0183 Devices</text><line style="stroke:#000000;stroke-width:0.5;" x1="145.5" x2="228.5" y1="382.8036" y2="382.8036"/><text fill="#000000" font-family="sans-serif" font-size="7" lengthAdjust="spacing" textLength="74" x="150" y="392.0702">AIS transducer/receiver</text><text fill="#000000" font-family="sans-serif" font-size="7" lengthAdjust="spacing" textLength="64" x="150" y="400.8748">GPS, VHF, compass</text><text fill="#000000" font-family="sans-serif" font-size="7" lengthAdjust="spacing" textLength="63.5" x="150" y="409.6795">Wind, Depth, Speed</text><!--MD5=[31e3ec59327e273962ce661ad70afaa5]
entity AP--><rect fill="#FEFECE" filter="url(#f7iang5gzwbzv)" height="18.8047" style="stroke:#000000;stroke-width:0.75;" width="37.5" x="89.75" y="383.9989"/><text fill="#000000" font-family="sans-serif" font-size="7" lengthAdjust="spacing" textLength="27.5" x="94.75" y="396.2655">Autopilot</text><!--MD5=[547615c2c8915297a73af811d5dbf318]
entity Eth_Hub--><polygon fill="#FEFECE" filter="url(#f7iang5gzwbzv)" points="395.25,138.9989,400.25,133.9989,456.75,133.9989,456.75,152.8036,451.75,157.8036,395.25,157.8036,395.25,138.9989" style="stroke:#000000;stroke-width:0.75;"/><line style="stroke:#000000;stroke-width:0.75;" x1="451.75" x2="456.75" y1="138.9989" y2="133.9989"/><line style="stroke:#000000;stroke-width:0.75;" x1="395.25" x2="451.75" y1="138.9989" y2="138.9989"/><line style="stroke:#000000;stroke-width:0.75;" x1="451.75" x2="451.75" y1="138.9989" y2="157.8036"/><text fill="#000000" font-family="sans-serif" font-size="7" lengthAdjust="spacing" textLength="41.5" x="402.75" y="151.2655">Ethernet Hub</text><!--MD5=[7968f28c13df0538bc57173754511f0e]
entity USB_Hub--><polygon fill="#FEFECE" filter="url(#f7iang5gzwbzv)" points="270,302.9989,275,297.9989,318,297.9989,318,316.8036,313,321.8036,270,321.8036,270,302.9989" style="stroke:#000000;stroke-width:0.75;"/><line style="stroke:#000000;stroke-width:0.75;" x1="313" x2="318" y1="302.9989" y2="297.9989"/><line style="stroke:#000000;stroke-width:0.75;" x1="270" x2="313" y1="302.9989" y2="302.9989"/><line style="stroke:#000000;stroke-width:0.75;" x1="313" x2="313" y1="302.9989" y2="321.8036"/><text fill="#000000" font-family="sans-serif" font-size="7" lengthAdjust="spacing" textLength="28" x="277.5" y="315.2655">USB Hub</text><!--MD5=[953a8c67cfe21abaf9bf45dad8506ca8]
entity Router--><polygon fill="#FEFECE" filter="url(#f7iang5gzwbzv)" points="474.25,138.9989,479.25,133.9989,546.75,133.9989,546.75,152.8036,541.75,157.8036,474.25,157.8036,474.25,138.9989" style="stroke:#000000;stroke-width:0.75;"/><line style="stroke:#000000;stroke-width:0.75;" x1="541.75" x2="546.75" y1="138.9989" y2="133.9989"/><line style="stroke:#000000;stroke-width:0.75;" x1="474.25" x2="541.75" y1="138.9989" y2="138.9989"/><line style="stroke:#000000;stroke-width:0.75;" x1="541.75" x2="541.75" y1="138.9989" y2="157.8036"/><text fill="#000000" font-family="sans-serif" font-size="7" lengthAdjust="spacing" textLength="52.5" x="481.75" y="151.2655">LTE/WiFi Router</text><!--MD5=[4c7a5f0f4d710d941c4df063500e34ba]
entity Dish_Router--><rect fill="#FEFECE" filter="url(#f7iang5gzwbzv)" height="27.6094" style="stroke:#000000;stroke-width:0.75;" width="61.5" x="422.25" y="76.4989"/><text fill="#000000" font-family="sans-serif" font-size="7" lengthAdjust="spacing" textLength="51.5" x="427.25" y="88.7655">StarLink Router,</text><text fill="#000000" font-family="sans-serif" font-size="7" lengthAdjust="spacing" textLength="14" x="427.25" y="97.5702">Dish</text><!--MD5=[af2495f9a90a9f78578178908d6e69bd]
entity Radar--><polygon fill="#FEFECE" filter="url(#f7iang5gzwbzv)" points="467.75,212.4989,472.75,207.4989,507.25,207.4989,507.25,226.3036,502.25,231.3036,467.75,231.3036,467.75,212.4989" style="stroke:#000000;stroke-width:0.75;"/><line style="stroke:#000000;stroke-width:0.75;" x1="502.25" x2="507.25" y1="212.4989" y2="207.4989"/><line style="stroke:#000000;stroke-width:0.75;" x1="467.75" x2="502.25" y1="212.4989" y2="212.4989"/><line style="stroke:#000000;stroke-width:0.75;" x1="502.25" x2="502.25" y1="212.4989" y2="231.3036"/><text fill="#000000" font-family="sans-serif" font-size="7" lengthAdjust="spacing" textLength="19.5" x="475.25" y="224.7655">Radar</text><!--MD5=[330778c508571bc43f7e5523a03ca602]
entity Touchscreen--><polygon fill="#FEFECE" filter="url(#f7iang5gzwbzv)" points="117.25,138.9989,122.25,133.9989,203.75,133.9989,203.75,152.8036,198.75,157.8036,117.25,157.8036,117.25,138.9989" style="stroke:#000000;stroke-width:0.75;"/><line style="stroke:#000000;stroke-width:0.75;" x1="198.75" x2="203.75" y1="138.9989" y2="133.9989"/><line style="stroke:#000000;stroke-width:0.75;" x1="117.25" x2="198.75" y1="138.9989" y2="138.9989"/><line style="stroke:#000000;stroke-width:0.75;" x1="198.75" x2="198.75" y1="138.9989" y2="157.8036"/><text fill="#000000" font-family="sans-serif" font-size="7" font-weight="bold" lengthAdjust="spacing" textLength="66.5" x="124.75" y="151.2655">HDMI Touchscreen</text><!--MD5=[4c50005c0fadedfb0a14f6d1969de37e]
entity Speakers--><rect fill="#FEFECE" filter="url(#f7iang5gzwbzv)" height="18.8047" style="stroke:#000000;stroke-width:0.75;" width="40" x="3.5" y="136.4989"/><text fill="#000000" font-family="sans-serif" font-size="7" lengthAdjust="spacing" textLength="30" x="8.5" y="148.7655">Speakers</text><!--MD5=[1b76df3a4bd008a21abb34082ebb9919]
entity Cameras--><rect fill="#FEFECE" filter="url(#f7iang5gzwbzv)" height="18.8047" style="stroke:#000000;stroke-width:0.75;" width="38.5" x="61.25" y="136.4989"/><text fill="#000000" font-family="sans-serif" font-size="7" lengthAdjust="spacing" textLength="28.5" x="66.25" y="148.7655">Cameras</text><!--MD5=[d92e9b93d5ce4574427d5f042afd2321]
entity SDR--><polygon fill="#FEFECE" filter="url(#f7iang5gzwbzv)" points="313,386.4989,318,381.4989,368,381.4989,368,400.3036,363,405.3036,313,405.3036,313,386.4989" style="stroke:#000000;stroke-width:0.75;"/><line style="stroke:#000000;stroke-width:0.75;" x1="363" x2="368" y1="386.4989" y2="381.4989"/><line style="stroke:#000000;stroke-width:0.75;" x1="313" x2="363" y1="386.4989" y2="386.4989"/><line style="stroke:#000000;stroke-width:0.75;" x1="363" x2="363" y1="386.4989" y2="405.3036"/><text fill="#000000" font-family="sans-serif" font-size="7" lengthAdjust="spacing" textLength="35" x="320.5" y="398.7655">SDR Radio</text><!--MD5=[6ba27cb6ab6c98fb8258247a8e3f62be]
entity SSB--><polygon fill="#FEFECE" filter="url(#f7iang5gzwbzv)" points="280,83.2489,285,78.2489,334,78.2489,334,97.0536,329,102.0536,280,102.0536,280,83.2489" style="stroke:#000000;stroke-width:0.75;"/><line style="stroke:#000000;stroke-width:0.75;" x1="329" x2="334" y1="83.2489" y2="78.2489"/><line style="stroke:#000000;stroke-width:0.75;" x1="280" x2="329" y1="83.2489" y2="83.2489"/><line style="stroke:#000000;stroke-width:0.75;" x1="329" x2="329" y1="83.2489" y2="102.0536"/><text fill="#000000" font-family="sans-serif" font-size="7" lengthAdjust="spacing" textLength="34" x="287.5" y="95.5155">SSB Radio</text><!--MD5=[dd29c4e1cef6fbff2e61a9551f8f2bf2]
entity WiFi_Local--><path d="M226.3551,138.1444 C228.176,134.963 230.3747,134.9804 232.7997,137.4563 C234.5092,133.8366 237.4038,133.8096 239.6762,136.8775 C240.9834,133.5362 243.0595,133.2327 245.7163,135.3969 C248.4358,132.1444 251.473,132.8038 253.1008,136.5489 C256.023,134.1081 258.0904,134.8472 259.6396,138.1202 C261.2364,135.1136 264.2409,135.4084 265.8318,138.1265 C270.7905,138.835 272.714,141.7065 269.6288,146.1988 C272.0183,150.0833 271.4637,153.9445 266.0478,154.4356 C264.4975,157.9043 262.6311,158.8329 259.6739,155.8188 C258.0146,159.0413 255.1742,159.886 252.5146,156.9892 C251.0743,159.9179 249.0701,161.0829 246.4752,158.1861 C243.6449,161.5645 240.4423,161.0995 238.9042,156.8959 C235.9303,159.0069 233.9845,158.7422 232.7723,155.0382 C230.241,157.9295 227.5405,158.1997 225.8788,154.1719 C221.1479,152.9828 220.559,150.6215 223.3853,146.8565 C219.8171,143.108 221.5786,139.0484 226.3551,138.1444 " fill="#FEFECE" filter="url(#f7iang5gzwbzv)" style="stroke:#000000;stroke-width:0.75;"/><text fill="#000000" font-family="sans-serif" font-size="7" lengthAdjust="spacing" textLength="33" x="229" y="148.7655">Local WiFi</text><!--MD5=[82bbb9a7a666b856fa28a649fd3171aa]
entity Iridium--><rect fill="#FEFECE" filter="url(#f7iang5gzwbzv)" height="18.8047" style="stroke:#000000;stroke-width:0.75;" width="53" x="351.5" y="80.7489"/><text fill="#000000" font-family="sans-serif" font-size="7" lengthAdjust="spacing" textLength="43" x="356.5" y="93.0155">Iridium Phone</text><!--MD5=[8f0c441f12fb738c5e80b28ccd1b0a87]
entity Other_Sensors--><rect fill="#FEFECE" filter="url(#f7iang5gzwbzv)" height="58.0234" style="stroke:#000000;stroke-width:0.75;" width="97" x="357.5" y="280.9989"/><text fill="#000000" font-family="sans-serif" font-size="7" lengthAdjust="spacing" textLength="48" x="362.5" y="293.2655">Other_Sensors</text><line style="stroke:#000000;stroke-width:0.5;" x1="358" x2="454" y1="294.8036" y2="294.8036"/><text fill="#000000" font-family="sans-serif" font-size="7" lengthAdjust="spacing" textLength="49" x="362.5" y="304.0702">IoT, 1w, i2c, etc</text><text fill="#000000" font-family="sans-serif" font-size="7" lengthAdjust="spacing" textLength="87" x="362.5" y="312.8748">battery/chargers monitoring</text><text fill="#000000" font-family="sans-serif" font-size="7" lengthAdjust="spacing" textLength="33" x="362.5" y="321.6795">fluid levels</text><text fill="#000000" font-family="sans-serif" font-size="7" lengthAdjust="spacing" textLength="80" x="362.5" y="330.4842">env temp/pressure/humid</text><!--MD5=[0313ddc4f8ed0f4991a51edae0b1647c]
entity AC--><polygon fill="#FEFECE" filter="url(#f7iang5gzwbzv)" points="490.75,386.4989,495.75,381.4989,522.25,381.4989,522.25,400.3036,517.25,405.3036,490.75,405.3036,490.75,386.4989" style="stroke:#000000;stroke-width:0.75;"/><line style="stroke:#000000;stroke-width:0.75;" x1="517.25" x2="522.25" y1="386.4989" y2="381.4989"/><line style="stroke:#000000;stroke-width:0.75;" x1="490.75" x2="517.25" y1="386.4989" y2="386.4989"/><line style="stroke:#000000;stroke-width:0.75;" x1="517.25" x2="517.25" y1="386.4989" y2="405.3036"/><text fill="#000000" font-family="sans-serif" font-size="7" lengthAdjust="spacing" textLength="11.5" x="498.25" y="398.7655">A/C</text><!--MD5=[c74dee767baeeec0e713c54a8a4634dc]
entity Fridge--><polygon fill="#FEFECE" filter="url(#f7iang5gzwbzv)" points="385.75,386.4989,390.75,381.4989,426.25,381.4989,426.25,400.3036,421.25,405.3036,385.75,405.3036,385.75,386.4989" style="stroke:#000000;stroke-width:0.75;"/><line style="stroke:#000000;stroke-width:0.75;" x1="421.25" x2="426.25" y1="386.4989" y2="381.4989"/><line style="stroke:#000000;stroke-width:0.75;" x1="385.75" x2="421.25" y1="386.4989" y2="386.4989"/><line style="stroke:#000000;stroke-width:0.75;" x1="421.25" x2="421.25" y1="386.4989" y2="405.3036"/><text fill="#000000" font-family="sans-serif" font-size="7" lengthAdjust="spacing" textLength="20.5" x="393.25" y="398.7655">Fridge</text><!--MD5=[de3c8540a01c1d55fb4517020c4cf4a8]
entity Lights--><rect fill="#FEFECE" filter="url(#f7iang5gzwbzv)" height="18.8047" style="stroke:#000000;stroke-width:0.75;" width="29" x="444" y="383.9989"/><text fill="#000000" font-family="sans-serif" font-size="7" lengthAdjust="spacing" textLength="19" x="449" y="396.2655">Lights</text><!--MD5=[593e445c9278762cb4ef7b840df82fac]
entity Keyboard_Mouse--><rect fill="#FEFECE" filter="url(#f7iang5gzwbzv)" height="27.6094" style="stroke:#000000;stroke-width:0.75;" width="40.5" x="221.75" y="76.4989"/><text fill="#000000" font-family="sans-serif" font-size="7" lengthAdjust="spacing" textLength="30.5" x="226.75" y="88.7655">Keyboard</text><text fill="#000000" font-family="sans-serif" font-size="7" lengthAdjust="spacing" textLength="21" x="226.75" y="97.5702">Mouse</text><!--MD5=[6068ed0baf2edbbb46a7f906664363da]
entity Weather--><rect fill="#FEFECE" filter="url(#f7iang5gzwbzv)" height="36.4141" style="stroke:#000000;stroke-width:0.75;" width="48.5" x="246.75" y="375.2489"/><text fill="#000000" font-family="sans-serif" font-size="7" lengthAdjust="spacing" textLength="23.5" x="251.75" y="387.5155">NavTex</text><text fill="#000000" font-family="sans-serif" font-size="7" lengthAdjust="spacing" textLength="38.5" x="251.75" y="396.3202">WeatherFax</text><text fill="#000000" font-family="sans-serif" font-size="7" lengthAdjust="spacing" textLength="33.5" x="251.75" y="405.1248">Barograph</text><!--MD5=[0df37b53dbcc900899e095c990e30b8f]
entity SiriusXM--><rect fill="#FEFECE" filter="url(#f7iang5gzwbzv)" height="18.8047" style="stroke:#000000;stroke-width:0.75;" width="60.5" x="27.75" y="209.9989"/><text fill="#000000" font-family="sans-serif" font-size="7" lengthAdjust="spacing" textLength="50.5" x="32.75" y="222.2655">SiriusXM Marine</text><!--MD5=[d59b03f458f75ee04d94168ba7ec459b]
entity SmartPhone--><rect fill="#FEFECE" filter="url(#f7iang5gzwbzv)" height="27.6094" style="stroke:#000000;stroke-width:0.75;" width="52.5" x="151.75" y="76.4989"/><text fill="#000000" font-family="sans-serif" font-size="7" lengthAdjust="spacing" textLength="42.5" x="156.75" y="88.7655">SmartPhones</text><text fill="#000000" font-family="sans-serif" font-size="7" lengthAdjust="spacing" textLength="23.5" x="156.75" y="97.5702">Tablets</text><!--MD5=[13e88d8e4422c8d855b54f0d2bc171be]
entity NAS--><path d="M360.75,197.7489 C360.75,192.7489 405.5,192.7489 405.5,192.7489 C405.5,192.7489 450.25,192.7489 450.25,197.7489 L450.25,241.4676 C450.25,246.4676 405.5,246.4676 405.5,246.4676 C405.5,246.4676 360.75,246.4676 360.75,241.4676 L360.75,197.7489 " fill="#FEFECE" filter="url(#f7iang5gzwbzv)" style="stroke:#000000;stroke-width:0.75;"/><path d="M360.75,197.7489 C360.75,202.7489 405.5,202.7489 405.5,202.7489 C405.5,202.7489 450.25,202.7489 450.25,197.7489 " fill="none" style="stroke:#000000;stroke-width:0.75;"/><text fill="#000000" font-family="sans-serif" font-size="7" lengthAdjust="spacing" textLength="13.5" x="365.75" y="212.0155">NAS</text><path d="M360.75,211.0536 C360.75,216.0536 405.5,216.0536 405.5,216.0536 C405.5,216.0536 450.25,216.0536 450.25,211.0536 " fill="none" style="stroke:#000000;stroke-width:0.5;"/><text fill="#000000" font-family="sans-serif" font-size="7" lengthAdjust="spacing" textLength="49.5" x="365.75" y="222.8202">Audio/Video Lib</text><text fill="#000000" font-family="sans-serif" font-size="7" lengthAdjust="spacing" textLength="79.5" x="365.75" y="231.6248">Charts, Backups, Tracks,</text><text fill="#000000" font-family="sans-serif" font-size="7" lengthAdjust="spacing" textLength="68" x="365.75" y="240.4295">Time Series Data, etc</text><!--MD5=[48e79d9335dd0cd53682a5a492aea5d9]
entity Cloud_Internet--><path d="M426.83,9.9694 C428.1562,6.6666 430.242,6.355 432.8396,8.5894 C434.4124,4.5733 436.5235,4.239 439.4372,7.3477 C441.1623,4.027 444.3756,3.308 446.5033,6.9384 C448.4633,3 451.6023,3.1123 454.0138,6.4738 C455.8397,3.8854 458.7617,3.8902 460.1684,6.932 C462.6093,4.6856 465.4651,4.7098 466.7068,8.28 C468.7301,5.3536 471.5257,5.2377 473.6014,8.2188 C476.6327,4.6441 478.8921,5.3747 480.8677,9.2487 C484.4079,11.0545 484.2741,13.4107 481.2722,15.6312 C484.2366,16.606 484.1445,18.2565 482.5171,20.424 C485.5858,21.9294 486.5992,24.1654 483.6382,26.7409 C485.5552,28.8029 485.1418,30.7402 482.3185,31.4831 C484.3064,33.5487 484.3845,35.4771 481.6225,36.9365 C484.2694,39.1507 484.0129,40.9741 480.9997,42.5616 C478.9168,45.7847 476.8952,46.7305 474.0405,43.3784 C472.1238,46.4724 469.332,46.8059 467.4858,43.3083 C465.6948,47.3722 462.2707,46.7683 460.1515,43.6432 C458.7017,46.7392 455.3092,47.6047 453.0854,44.5293 C450.5709,47.5212 448.5824,46.9024 446.9683,43.6476 C444.6195,47.3135 442.5082,47.0014 440.0868,43.7196 C437.9916,47.0021 435.5296,46.4901 433.3852,43.7746 C430.3109,46.9573 427.6471,47.0019 425.7643,42.5804 C423.3266,41.0708 423.1176,38.7853 425.6565,37.1764 C422.7484,35.6156 422.7,33.6868 425.3788,31.8355 C422.4601,30.153 422.7413,27.9986 425.1368,26.0922 C422.9012,24.1587 422.6808,22.2713 425.4713,20.6465 C422.8502,18.5762 423.2903,16.4228 426.3809,15.3296 C423.7335,13.2572 424.2378,11.6028 426.83,9.9694 " fill="#FEFECE" filter="url(#f7iang5gzwbzv)" style="stroke:#000000;stroke-width:0.75;"/><text fill="#000000" font-family="sans-serif" font-size="7" font-weight="bold" lengthAdjust="spacing" textLength="28" x="429.25" y="19.7655">Internet</text><text fill="#000000" font-family="sans-serif" font-size="7" lengthAdjust="spacing" textLength="45.5" x="429.25" y="28.5702">Cloud Storage</text><text fill="#000000" font-family="sans-serif" font-size="7" lengthAdjust="spacing" textLength="47.5" x="429.25" y="37.3748">Cloud Services</text><!--MD5=[f38da3986c5ca1dec060c2524b9ccddc]
entity Lora--><path d="M532.2221,302.1967 C534.2263,298.9488 536.1982,298.7998 538.4583,301.9471 C539.5205,298.8696 542.1195,298.5348 544.3883,300.5391 C545.4551,297.6585 548.0902,297.0759 550.0942,299.5382 C552.5666,296.5134 554.5351,297.595 556.1933,300.3913 C559.2508,297.5912 561.2896,298.4164 562.9393,301.9022 C564.9085,299.3823 567.3013,299.5572 568.9334,302.2871 C573.5703,304.3636 574.2218,307.0085 570.9655,310.9388 C574.4414,314.8434 573.1594,317.1819 568.7564,318.9003 C567.1288,322.1736 564.5455,321.6626 562.7825,319.0375 C560.7212,322.4147 558.5644,322.2445 556.3174,319.2252 C554.5174,322.5214 552.0371,322.5847 550.1705,319.2872 C547.9651,321.1669 546.339,320.8742 544.895,318.3708 C542.827,321.8689 539.8598,321.3472 538.1428,318.0234 C536.8467,320.536 534.172,320.6506 532.5196,318.4485 C527.903,316.9928 527.9072,313.0416 531.1901,310.2974 C528.0995,307.6631 527.6693,303.8572 532.2221,302.1967 " fill="#FEFECE" filter="url(#f7iang5gzwbzv)" style="stroke:#000000;stroke-width:0.75;"/><text fill="#000000" font-family="sans-serif" font-size="7" lengthAdjust="spacing" textLength="30" x="535" y="312.7655">LoraWAN</text><!--MD5=[3ff5d2fb9a8117c537632aae671cabcb]
entity Esp32--><rect fill="#FEFECE" filter="url(#f7iang5gzwbzv)" height="27.6094" style="stroke:#000000;stroke-width:0.75;" width="38" x="472" y="296.2489"/><text fill="#000000" font-family="sans-serif" font-size="7" lengthAdjust="spacing" textLength="28" x="477" y="308.5155">m5stack/</text><text fill="#000000" font-family="sans-serif" font-size="7" lengthAdjust="spacing" textLength="24" x="477" y="317.3202">arduino</text><!--MD5=[5d3c09c67791d820f6e58e35ac1308e3]
link RPI to GPS--><path codeLine="164" d="M228.14,245.8489 C225.25,247.6439 222.345,249.3789 219.5,250.9989 C192.37,266.4339 181.6,263.1439 156,280.9989 C148.01,286.5739 140.205,294.4189 134.71,300.4689 " fill="none" id="RPI-GPS" style="stroke:#A80036;stroke-width:0.5;"/><!--MD5=[c6d492c1e608e21002a1e79a049df954]
link IMU to RPI--><path codeLine="165" d="M210.825,219.4989 C216.595,219.4989 222.36,219.4989 228.125,219.4989 " fill="none" id="IMU-RPI" style="stroke:#A80036;stroke-width:0.5;"/><!--MD5=[a860cb1a85174d4976dae9c4f32e49f8]
link RPI to NMEA_2000--><path codeLine="166" d="M228.21,246.6539 C225.325,248.2389 222.405,249.7089 219.5,250.9989 C168.655,273.5539 148.545,257.7839 98,280.9989 C95.21,282.2789 92.415,283.7639 89.67,285.3689 " fill="none" id="RPI-NMEA_2000" style="stroke:#A80036;stroke-width:0.5;"/><!--MD5=[f75ecebad45d24d2cfeff8c08b96d55d]
link RPI to NMEA_Mux--><path codeLine="167" d="M245.725,251.0489 C237.075,264.6339 227.24,280.0739 219.85,291.6789 " fill="none" id="RPI-NMEA_Mux" style="stroke:#A80036;stroke-width:0.5;"/><!--MD5=[3577f1ad49970e59a1e1697b6041c28e]
link Eth_Hub to RPI--><path codeLine="168" d="M400.39,158.0689 C374.06,169.9589 332.785,188.6039 302.825,202.1389 " fill="none" id="Eth_Hub-RPI" style="stroke:#A80036;stroke-width:0.5;"/><!--MD5=[1d20bbed48bf86b90ee5f13bc892e6f4]
link RPI to USB_Hub--><path codeLine="169" d="M275.39,251.0489 C280.535,267.2089 286.515,285.9989 290.28,297.8189 " fill="none" id="RPI-USB_Hub" style="stroke:#A80036;stroke-width:0.5;"/><!--MD5=[920310a45a910abea0e78fc3f928b9c7]
link Touchscreen to RPI--><path codeLine="170" d="M177.37,158.1489 C191.05,167.5939 210.845,181.2589 228.21,193.2489 " fill="none" id="Touchscreen-RPI" style="stroke:#A80036;stroke-width:0.5;"/><!--MD5=[e542bf0be54ca915b2a2c465769198ce]
link Cameras to RPI--><path codeLine="171" d="M99.81,154.7989 C102.7,155.9339 105.665,157.0389 108.5,157.9989 C156.9,174.4039 173.015,166.7639 219.5,187.9989 C222.39,189.3189 225.3,190.8139 228.175,192.4189 " fill="none" id="Cameras-RPI" style="stroke:#A80036;stroke-width:0.5;"/><!--MD5=[738bdf1011746a1c073c591ef970d801]
reverse link Speakers to RPI--><path codeLine="172" d="M45.97,155.9139 C48.155,156.6789 50.36,157.3889 52.5,157.9989 C125.025,178.6689 149.62,159.6539 219.5,187.9989 C222.4,189.1739 225.305,190.5539 228.17,192.0589 " fill="none" id="Speakers-backto-RPI" style="stroke:#A80036;stroke-width:0.5;"/><polygon fill="#A80036" points="43.605,155.0689,47.1689,158.4672,45.959,155.9106,48.5157,154.7008,43.605,155.0689" style="stroke:#A80036;stroke-width:0.5;"/><!--MD5=[9d6d2f6c2f4d2fc3bb3ff0dee1317c54]
link SSB to RPI--><path codeLine="173" d="M305.37,102.3689 C303.29,115.9389 299.195,138.9439 293,157.9989 C289.765,167.9439 285.41,178.4339 281.115,187.8589 " fill="none" id="SSB-RPI" style="stroke:#A80036;stroke-width:0.5;"/><!--MD5=[ba43404d2398351bd02a197b89c6dc04]
link Iridium to RPI--><path codeLine="174" d="M370.09,99.7689 C354.285,117.7839 318.15,158.9789 292.8,187.8789 " fill="none" id="Iridium-RPI" style="stroke:#A80036;stroke-width:0.5;"/><!--MD5=[72d1981d7f6e9ae87e7ce2d696ef1c70]
link RPI to Other_Sensors--><path codeLine="175" d="M302.785,243.7489 C320.71,255.1689 342.34,268.9439 361.155,280.9339 " fill="none" id="RPI-Other_Sensors" style="stroke:#A80036;stroke-width:0.5;"/><!--MD5=[e6b62623cb5cffca99b55a6fc459f471]
link RPI to Esp32--><path codeLine="176" d="M302.955,234.1739 C318.095,239.7039 335.785,245.9239 352,250.9989 C400.975,266.3339 419.3,254.9189 463.5,280.9989 C470.075,284.8789 476.115,290.7489 480.855,296.1589 " fill="none" id="RPI-Esp32" style="stroke:#A80036;stroke-width:0.5;"/><!--MD5=[abd7622213c1ceda57fd7e6c8ce2488a]
link WiFi_Local to RPI--><path codeLine="177" d="M248.715,158.1489 C250.945,166.2339 254.025,177.4089 256.945,187.9789 " fill="none" id="WiFi_Local-RPI" style="stroke:#A80036;stroke-width:0.5;"/><!--MD5=[9befc12befc76c6c24a0e27f7270b253]
link Keyboard_Mouse to RPI--><path codeLine="178" d="M257.58,104.0739 C265.48,111.8839 274.285,122.4639 278.5,133.9989 C284.805,151.2439 282.05,171.5389 277.485,187.9739 " fill="none" id="Keyboard_Mouse-RPI" style="stroke:#A80036;stroke-width:0.5;"/><!--MD5=[a15dace8b9997a4e161f7e6bb21c3756]
link SmartPhone to WiFi_Local--><path codeLine="180" d="M194.34,104.0039 C205.575,113.1189 220.36,125.1089 231.145,133.8539 " fill="none" id="SmartPhone-WiFi_Local" style="stroke:#A80036;stroke-width:0.5;"/><!--MD5=[a6a6198443ed7f46598e3abcaaf7a198]
link SiriusXM to NMEA_2000--><path codeLine="182" d="M58,229.0739 C58,242.1839 58,266.8839 58,285.4689 " fill="none" id="SiriusXM-NMEA_2000" style="stroke:#A80036;stroke-width:0.5;"/><!--MD5=[f06790075d9412e28e90e4ac15acc0e3]
link Eth_Hub to Router--><path codeLine="184" d="M456.86,145.9989 C462.59,145.9989 468.315,145.9989 474.045,145.9989 " fill="none" id="Eth_Hub-Router" style="stroke:#A80036;stroke-width:0.5;"/><!--MD5=[4e13fc5b7ed4d5c8bb5a843a2b474eca]
link Eth_Hub to Radar--><path codeLine="185" d="M435.88,158.1489 C447.36,171.6789 466.175,193.8639 477.645,207.3789 " fill="none" id="Eth_Hub-Radar" style="stroke:#A80036;stroke-width:0.5;"/><!--MD5=[0ff0ce0d78f63490cbe2abe10619b3e8]
link Eth_Hub to NAS--><path codeLine="186" d="M422.705,158.1489 C420.08,167.4339 416.3,180.7989 412.955,192.6389 " fill="none" id="Eth_Hub-NAS" style="stroke:#A80036;stroke-width:0.5;"/><!--MD5=[fdba92f7cd499ccd998d05999f71f6ae]
link Dish_Router to Eth_Hub--><path codeLine="187" d="M446.465,104.0039 C441.97,113.1189 436.055,125.1089 431.745,133.8539 " fill="none" id="Dish_Router-Eth_Hub" style="stroke:#A80036;stroke-width:0.5;"/><!--MD5=[fbe332a3304dc4c8c3dfaece74a779f6]
link USB_Hub to SDR--><path codeLine="189" d="M300.565,322.1439 C309.425,337.8689 325.125,365.7189 333.97,381.4139 " fill="none" id="USB_Hub-SDR" style="stroke:#A80036;stroke-width:0.5;"/><!--MD5=[4ba09ff32a53e36c5fb85e6eec1de587]
link USB_Hub to Weather--><path codeLine="190" d="M290.755,322.1439 C286.9,335.9589 280.44,359.1339 275.96,375.1989 " fill="none" id="USB_Hub-Weather" style="stroke:#A80036;stroke-width:0.5;"/><!--MD5=[2a0b371ec03d2c21e471fa956f48a495]
link Other_Sensors to AC--><path codeLine="192" d="M444.985,339.0939 C457.085,348.3439 470.315,358.8389 482,368.9989 C486.495,372.9039 491.215,377.4239 495.3,381.4739 " fill="none" id="Other_Sensors-AC" style="stroke:#A80036;stroke-width:0.5;"/><!--MD5=[cbb222f50bcb791e9720287055fe13dd]
link Other_Sensors to Fridge--><path codeLine="193" d="M406,339.1239 C406,353.6439 406,370.4739 406,381.4039 " fill="none" id="Other_Sensors-Fridge" style="stroke:#A80036;stroke-width:0.5;"/><!--MD5=[34fb354fd358eec4f50dfb68a8befd0d]
link Other_Sensors to Lights--><path codeLine="194" d="M424.215,339.1239 C434.165,354.7589 445.82,373.0739 452.66,383.8189 " fill="none" id="Other_Sensors-Lights" style="stroke:#A80036;stroke-width:0.5;"/><!--MD5=[f4051e061112c5a67383a685ff83d16a]
link NMEA_Mux to NMEA_0183--><path codeLine="196" d="M203.835,328.3989 C200.745,340.2489 196.66,355.9289 193.29,368.8689 " fill="none" id="NMEA_Mux-NMEA_0183" style="stroke:#A80036;stroke-width:0.5;"/><!--MD5=[993848724ee1e0bda2efd2c10d093eb0]
link NMEA_Mux to AP--><path codeLine="197" d="M185.945,328.3289 C171.545,339.8039 152.54,355.1189 136,368.9989 C130.225,373.8489 123.875,379.3739 118.735,383.8989 " fill="none" id="NMEA_Mux-AP" style="stroke:#A80036;stroke-width:0.5;"/><!--MD5=[4c412d33c9dd3373fedf634d2cfe895b]
link Esp32 to Lora--><path codeLine="199" d="M510.13,309.9989 C515.89,309.9989 521.655,309.9989 527.415,309.9989 " fill="none" id="Esp32-Lora" style="stroke:#A80036;stroke-width:0.5;"/><!--MD5=[090045518a7210d3fe050bd4b1b61143]
link Cloud_Internet to Dish_Router--><path codeLine="201" d="M453,46.5139 C453,56.3139 453,67.8039 453,76.4739 " fill="none" id="Cloud_Internet-Dish_Router" style="stroke:#A80036;stroke-width:0.5;"/><!--MD5=[0417bd4aebf7681efb342db5775863ca]
link Cloud_Internet to Router--><path codeLine="202" d="M472.2,46.6939 C479.455,55.3389 487.22,65.8639 492.5,76.4989 C501.855,95.3489 506.725,119.5939 508.94,133.7539 " fill="none" id="Cloud_Internet-Router" style="stroke:#A80036;stroke-width:0.5;"/><!--MD5=[6d4697dd1a4fa0e14865453f969898e5]
link Cloud_Internet to Iridium--><path codeLine="203" d="M429.065,46.5139 C415.515,57.9839 399.24,71.7639 388.765,80.6339 " fill="none" id="Cloud_Internet-Iridium" style="stroke:#A80036;stroke-width:0.5;"/><!--MD5=[f7c22a6020875df2ba44dffafefaebb5]
link Skipper to Touchscreen--><path codeLine="205" d="M165.875,38.8989 C157.65,48.4039 147.49,62.1989 143,76.4989 C136.745,96.4239 146.375,120.1139 153.645,133.9139 " fill="none" id="Skipper-Touchscreen" style="stroke:#A80036;stroke-width:0.5;"/><!--MD5=[180a6a48d329b5088bf365124668f177]
link Skipper to Speakers--><path codeLine="206" d="M165.83,35.2389 C152.355,45.2239 130.015,61.8739 111,76.4989 C83.395,97.7289 51.35,123.2189 34.76,136.4789 " fill="none" id="Skipper-Speakers" style="stroke:#A80036;stroke-width:0.5;"/><!--MD5=[b5f99795dccb66293530d697261f575d]
link Skipper to Cameras--><path codeLine="207" d="M165.85,41.1089 C145.38,66.1489 104.62,115.9989 87.91,136.4389 " fill="none" id="Skipper-Cameras" style="stroke:#A80036;stroke-width:0.5;"/><!--MD5=[4d7243369b38bcf5d3d8f8df86a5cab3]
link Skipper to Iridium--><path codeLine="208" d="M190.095,29.6339 C217.495,37.3689 286.32,57.1639 343,76.4989 C346.815,77.7989 350.83,79.2489 354.735,80.6939 " fill="none" id="Skipper-Iridium" style="stroke:#A80036;stroke-width:0.5;"/><!--MD5=[c0261e63bc2c3c7d09c0762b33b29a4a]
link Skipper to SSB--><path codeLine="209" d="M190.135,32.2239 C211.46,42.7189 256,64.6439 283.515,78.1889 " fill="none" id="Skipper-SSB" style="stroke:#A80036;stroke-width:0.5;"/><!--MD5=[7055ac5873383501a6665c2abfcc17ee]
link Skipper to SmartPhone--><path codeLine="210" d="M178,46.5139 C178,56.3139 178,67.8039 178,76.4739 " fill="none" id="Skipper-SmartPhone" style="stroke:#A80036;stroke-width:0.5;"/><!--MD5=[9e619f9f7e27f8b7daf8036513ac83ac]
link Skipper to Keyboard_Mouse--><path codeLine="211" d="M190.04,38.1939 C200.975,49.0439 217.085,65.0289 228.465,76.3189 " fill="none" id="Skipper-Keyboard_Mouse" style="stroke:#A80036;stroke-width:0.5;"/><!--MD5=[80d83166d970702cdfa0a0038913cfec]
@startuml

actor Skipper [
 Skipper
]

node RPI [
 <b>Rpi4, BBN OS
 - - - -
 Local WiFi
 CanBus Interface
 Sound Card
 SSD
]

rectangle GPS [
 GPS USB
]

rectangle IMU [
 IMU
 - - - -
 compass, gyro, accel
]

rectangle NMEA_2000 [
 <b>NMEA2000 Bus
 - - - -
 engine sensors,
 fishfinder, sonar,
 etc
]

node NMEA_Mux [
 NMEA Multiplexer
 - - - -
 bidirectional Seatalk1
]

rectangle NMEA_0183 [
 <b>NMEA 0183 Devices
 - - - -
 AIS transducer/receiver
 GPS, VHF, compass
 Wind, Depth, Speed
]

rectangle AP [
 Autopilot
]

node Eth_Hub [
 Ethernet Hub
]

node USB_Hub [
 USB Hub
]

node Router [
 LTE/WiFi Router
]

rectangle Dish_Router [
 StarLink Router,
 Dish
]

node Radar [
 Radar
]

node Touchscreen [
 <b>HDMI Touchscreen
]

rectangle Speakers [
 Speakers
]

rectangle Cameras [
 Cameras
]

node SDR [
 SDR Radio
]

node SSB [
 SSB Radio
]

cloud WiFi_Local [
 Local WiFi
]

rectangle Iridium [
 Iridium Phone
]

rectangle Other_Sensors [
 Other_Sensors
 - - - -
 IoT, 1w, i2c, etc
 battery/chargers monitoring
 fluid levels
 env temp/pressure/humid
]

node AC [
 A/C
]

node Fridge [
 Fridge
]

rectangle Lights [
 Lights
]

rectangle Keyboard_Mouse [
 Keyboard
 Mouse
]

rectangle Weather [
 NavTex
 WeatherFax
 Barograph
]

rectangle SiriusXM [
 SiriusXM Marine
]

rectangle SmartPhone [
 SmartPhones
 Tablets
]

database NAS [
 NAS
 - - - -
 Audio/Video Lib
 Charts, Backups, Tracks,
 Time Series Data, etc
]

cloud Cloud_Internet [
 <b>Internet
 Cloud Storage
 Cloud Services
]

cloud Lora [
 LoraWAN
]

rectangle Esp32 [
 m5stack/
 arduino
]

RPI - - GPS
RPI -l- IMU
RPI - - NMEA_2000
RPI - - NMEA_Mux
RPI -u- Eth_Hub
RPI - - USB_Hub
RPI -u- Touchscreen
RPI -u- Cameras
RPI -u-> Speakers
RPI -u- SSB
RPI -u- Iridium
RPI - - Other_Sensors
RPI -d- Esp32
RPI -u- WiFi_Local
RPI -u- Keyboard_Mouse

SmartPhone - - WiFi_Local

SiriusXM - - NMEA_2000

Eth_Hub -r- Router
Eth_Hub - - Radar
Eth_Hub - - NAS
Eth_Hub -u- Dish_Router

USB_Hub - - SDR
USB_Hub - - Weather

Other_Sensors - - AC
Other_Sensors - - Fridge
Other_Sensors - - Lights

NMEA_Mux - - NMEA_0183
NMEA_Mux - - AP

Lora -l- Esp32

Cloud_Internet - - Dish_Router
Cloud_Internet - - Router
Cloud_Internet - - Iridium

Skipper - - Touchscreen
Skipper - - Speakers
Skipper - - Cameras
Skipper - - Iridium
Skipper - - SSB
Skipper - - SmartPhone
Skipper - - Keyboard_Mouse

@enduml

PlantUML version 1.2021.00(Sun Jan 10 05:25:05 EST 2021)
(GPL source distribution)
Java Runtime: OpenJDK Runtime Environment
JVM: OpenJDK 64-Bit Server VM
Default Encoding: Cp1252
Language: en
Country: US
--></g></svg>