<?xml version="1.0" encoding="UTF-8" standalone="no"?><svg xmlns="http://www.w3.org/2000/svg" xmlns:xlink="http://www.w3.org/1999/xlink" contentScriptType="application/ecmascript" contentStyleType="text/css" height="444px" preserveAspectRatio="none" style="width:758px;height:444px;" version="1.1" viewBox="0 0 758 444" width="758px" zoomAndPan="magnify"><defs><filter height="300%" id="f3tjtm26rew3c" width="300%" x="-1" y="-1"><feGaussianBlur result="blurOut" stdDeviation="1.0"/><feColorMatrix in="blurOut" result="blurOut2" type="matrix" values="0 0 0 0 0 0 0 0 0 0 0 0 0 0 0 0 0 0 .4 0"/><feOffset dx="2.0" dy="2.0" in="blurOut2" result="blurOut3"/><feBlend in="SourceGraphic" in2="blurOut3" mode="normal"/></filter></defs><g><!--MD5=[f50827fad462c3f51a79aa3f1564e3ff]
entity Skipper--><ellipse cx="352.75" cy="9.7489" fill="#FEFECE" filter="url(#f3tjtm26rew3c)" rx="4" ry="4" style="stroke:#A80036;stroke-width:0.75;"/><path d="M352.75,13.7489 L352.75,27.2489 M346.25,17.7489 L359.25,17.7489 M352.75,27.2489 L346.25,34.7489 M352.75,27.2489 L359.25,34.7489 " fill="none" filter="url(#f3tjtm26rew3c)" style="stroke:#A80036;stroke-width:0.75;"/><text fill="#000000" font-family="sans-serif" font-size="7" lengthAdjust="spacing" textLength="24" x="340.75" y="44.7655">Skipper</text><!--MD5=[56bb6c3bc4df8cdefb957cc5b3ef3a7e]
entity RPI--><polygon fill="#FEFECE" filter="url(#f3tjtm26rew3c)" points="329.5,192.9989,334.5,187.9989,404,187.9989,404,246.0223,399,251.0223,329.5,251.0223,329.5,192.9989" style="stroke:#000000;stroke-width:0.75;"/><line style="stroke:#000000;stroke-width:0.75;" x1="399" x2="404" y1="192.9989" y2="187.9989"/><line style="stroke:#000000;stroke-width:0.75;" x1="329.5" x2="399" y1="192.9989" y2="192.9989"/><line style="stroke:#000000;stroke-width:0.75;" x1="399" x2="399" y1="192.9989" y2="251.0223"/><text fill="#000000" font-family="sans-serif" font-size="7" font-weight="bold" lengthAdjust="spacing" textLength="46.5" x="337" y="205.2655">Rpi4, BBN OS</text><line style="stroke:#000000;stroke-width:0.5;" x1="329.5" x2="399" y1="206.8036" y2="206.8036"/><line style="stroke:#000000;stroke-width:0.5;" x1="399" x2="404" y1="206.8036" y2="201.8036"/><text fill="#000000" font-family="sans-serif" font-size="7" lengthAdjust="spacing" textLength="33" x="337" y="216.0702">Local WiFi</text><text fill="#000000" font-family="sans-serif" font-size="7" lengthAdjust="spacing" textLength="54.5" x="337" y="224.8748">CanBus Interface</text><text fill="#000000" font-family="sans-serif" font-size="7" lengthAdjust="spacing" textLength="38" x="337" y="233.6795">Sound Card</text><text fill="#000000" font-family="sans-serif" font-size="7" lengthAdjust="spacing" textLength="14" x="337" y="242.4842">SSD</text><!--MD5=[cd1d357e028b96f42ee72ab526715f53]
entity GPS--><rect fill="#FEFECE" filter="url(#f3tjtm26rew3c)" height="18.8047" style="stroke:#000000;stroke-width:0.75;" width="40" x="375.25" y="309.2489"/><text fill="#000000" font-family="sans-serif" font-size="7" lengthAdjust="spacing" textLength="30" x="380.25" y="321.5155">GPS USB</text><!--MD5=[ae8265c62b5fdfc486198cf91618d43d]
entity IMU--><rect fill="#FEFECE" filter="url(#f3tjtm26rew3c)" height="31.6094" style="stroke:#000000;stroke-width:0.75;" width="76.5" x="235.5" y="203.7489"/><text fill="#000000" font-family="sans-serif" font-size="7" lengthAdjust="spacing" textLength="11.5" x="240.5" y="216.0155">IMU</text><line style="stroke:#000000;stroke-width:0.5;" x1="236" x2="311.5" y1="217.5536" y2="217.5536"/><text fill="#000000" font-family="sans-serif" font-size="7" lengthAdjust="spacing" textLength="66.5" x="240.5" y="226.8202">compass, gyro, accel</text><!--MD5=[b17a41457b887f0466e22bd7e05c4601]
entity NMEA_2000--><rect fill="#FEFECE" filter="url(#f3tjtm26rew3c)" height="49.2188" style="stroke:#000000;stroke-width:0.75;" width="63" x="91.25" y="294.2489"/><text fill="#000000" font-family="sans-serif" font-size="7" font-weight="bold" lengthAdjust="spacing" textLength="52" x="96.25" y="306.5155">NMEA2000 Bus</text><line style="stroke:#000000;stroke-width:0.5;" x1="91.75" x2="153.75" y1="308.0536" y2="308.0536"/><text fill="#000000" font-family="sans-serif" font-size="7" lengthAdjust="spacing" textLength="50.5" x="96.25" y="317.3202">engine sensors,</text><text fill="#000000" font-family="sans-serif" font-size="7" lengthAdjust="spacing" textLength="53" x="96.25" y="326.1248">fishfinder, sonar,</text><text fill="#000000" font-family="sans-serif" font-size="7" lengthAdjust="spacing" textLength="9.5" x="96.25" y="334.9295">etc</text><!--MD5=[6eed89ef60fd1dd7e5ad5481c6afc096]
entity NMEA_Mux--><polygon fill="#FEFECE" filter="url(#f3tjtm26rew3c)" points="443.5,305.4989,448.5,300.4989,531,300.4989,531,332.1082,526,337.1082,443.5,337.1082,443.5,305.4989" style="stroke:#000000;stroke-width:0.75;"/><line style="stroke:#000000;stroke-width:0.75;" x1="526" x2="531" y1="305.4989" y2="300.4989"/><line style="stroke:#000000;stroke-width:0.75;" x1="443.5" x2="526" y1="305.4989" y2="305.4989"/><line style="stroke:#000000;stroke-width:0.75;" x1="526" x2="526" y1="305.4989" y2="337.1082"/><text fill="#000000" font-family="sans-serif" font-size="7" lengthAdjust="spacing" textLength="54.5" x="451" y="317.7655">NMEA Multiplexer</text><line style="stroke:#000000;stroke-width:0.5;" x1="443.5" x2="526" y1="319.3036" y2="319.3036"/><line style="stroke:#000000;stroke-width:0.5;" x1="526" x2="531" y1="319.3036" y2="314.3036"/><text fill="#000000" font-family="sans-serif" font-size="7" lengthAdjust="spacing" textLength="67.5" x="451" y="328.5702">bidirectional Seatalk1</text><!--MD5=[1eaf4d2f8be208adf81d4b0ad8be7432]
entity NMEA_0183--><rect fill="#FEFECE" filter="url(#f3tjtm26rew3c)" height="49.2188" style="stroke:#000000;stroke-width:0.75;" width="84" x="445.25" y="388.9989"/><text fill="#000000" font-family="sans-serif" font-size="7" font-weight="bold" lengthAdjust="spacing" textLength="69" x="450.25" y="401.2655">NMEA 0183 Devices</text><line style="stroke:#000000;stroke-width:0.5;" x1="445.75" x2="528.75" y1="402.8036" y2="402.8036"/><text fill="#000000" font-family="sans-serif" font-size="7" lengthAdjust="spacing" textLength="74" x="450.25" y="412.0702">AIS transducer/receiver</text><text fill="#000000" font-family="sans-serif" font-size="7" lengthAdjust="spacing" textLength="64" x="450.25" y="420.8748">GPS, VHF, compass</text><text fill="#000000" font-family="sans-serif" font-size="7" lengthAdjust="spacing" textLength="63.5" x="450.25" y="429.6795">Wind, Depth, Speed</text><!--MD5=[31e3ec59327e273962ce661ad70afaa5]
entity AP--><rect fill="#FEFECE" filter="url(#f3tjtm26rew3c)" height="18.8047" style="stroke:#000000;stroke-width:0.75;" width="37.5" x="547" y="403.9989"/><text fill="#000000" font-family="sans-serif" font-size="7" lengthAdjust="spacing" textLength="27.5" x="552" y="416.2655">Autopilot</text><!--MD5=[547615c2c8915297a73af811d5dbf318]
entity Eth_Hub--><polygon fill="#FEFECE" filter="url(#f3tjtm26rew3c)" points="598,138.9989,603,133.9989,659.5,133.9989,659.5,152.8036,654.5,157.8036,598,157.8036,598,138.9989" style="stroke:#000000;stroke-width:0.75;"/><line style="stroke:#000000;stroke-width:0.75;" x1="654.5" x2="659.5" y1="138.9989" y2="133.9989"/><line style="stroke:#000000;stroke-width:0.75;" x1="598" x2="654.5" y1="138.9989" y2="138.9989"/><line style="stroke:#000000;stroke-width:0.75;" x1="654.5" x2="654.5" y1="138.9989" y2="157.8036"/><text fill="#000000" font-family="sans-serif" font-size="7" lengthAdjust="spacing" textLength="41.5" x="605.5" y="151.2655">Ethernet Hub</text><!--MD5=[7968f28c13df0538bc57173754511f0e]
entity USB_Hub--><polygon fill="#FEFECE" filter="url(#f3tjtm26rew3c)" points="605.75,311.7489,610.75,306.7489,653.75,306.7489,653.75,325.5536,648.75,330.5536,605.75,330.5536,605.75,311.7489" style="stroke:#000000;stroke-width:0.75;"/><line style="stroke:#000000;stroke-width:0.75;" x1="648.75" x2="653.75" y1="311.7489" y2="306.7489"/><line style="stroke:#000000;stroke-width:0.75;" x1="605.75" x2="648.75" y1="311.7489" y2="311.7489"/><line style="stroke:#000000;stroke-width:0.75;" x1="648.75" x2="648.75" y1="311.7489" y2="330.5536"/><text fill="#000000" font-family="sans-serif" font-size="7" lengthAdjust="spacing" textLength="28" x="613.25" y="324.0155">USB Hub</text><!--MD5=[953a8c67cfe21abaf9bf45dad8506ca8]
entity Router--><polygon fill="#FEFECE" filter="url(#f3tjtm26rew3c)" points="677,138.9989,682,133.9989,749.5,133.9989,749.5,152.8036,744.5,157.8036,677,157.8036,677,138.9989" style="stroke:#000000;stroke-width:0.75;"/><line style="stroke:#000000;stroke-width:0.75;" x1="744.5" x2="749.5" y1="138.9989" y2="133.9989"/><line style="stroke:#000000;stroke-width:0.75;" x1="677" x2="744.5" y1="138.9989" y2="138.9989"/><line style="stroke:#000000;stroke-width:0.75;" x1="744.5" x2="744.5" y1="138.9989" y2="157.8036"/><text fill="#000000" font-family="sans-serif" font-size="7" lengthAdjust="spacing" textLength="52.5" x="684.5" y="151.2655">LTE/WiFi Router</text><!--MD5=[4c7a5f0f4d710d941c4df063500e34ba]
entity Dish_Router--><rect fill="#FEFECE" filter="url(#f3tjtm26rew3c)" height="27.6094" style="stroke:#000000;stroke-width:0.75;" width="61.5" x="625" y="76.4989"/><text fill="#000000" font-family="sans-serif" font-size="7" lengthAdjust="spacing" textLength="51.5" x="630" y="88.7655">StarLink Router,</text><text fill="#000000" font-family="sans-serif" font-size="7" lengthAdjust="spacing" textLength="14" x="630" y="97.5702">Dish</text><!--MD5=[af2495f9a90a9f78578178908d6e69bd]
entity Radar--><polygon fill="#FEFECE" filter="url(#f3tjtm26rew3c)" points="650,212.4989,655,207.4989,689.5,207.4989,689.5,226.3036,684.5,231.3036,650,231.3036,650,212.4989" style="stroke:#000000;stroke-width:0.75;"/><line style="stroke:#000000;stroke-width:0.75;" x1="684.5" x2="689.5" y1="212.4989" y2="207.4989"/><line style="stroke:#000000;stroke-width:0.75;" x1="650" x2="684.5" y1="212.4989" y2="212.4989"/><line style="stroke:#000000;stroke-width:0.75;" x1="684.5" x2="684.5" y1="212.4989" y2="231.3036"/><text fill="#000000" font-family="sans-serif" font-size="7" lengthAdjust="spacing" textLength="19.5" x="657.5" y="224.7655">Radar</text><!--MD5=[330778c508571bc43f7e5523a03ca602]
entity Touchscreen--><polygon fill="#FEFECE" filter="url(#f3tjtm26rew3c)" points="102,138.9989,107,133.9989,188.5,133.9989,188.5,152.8036,183.5,157.8036,102,157.8036,102,138.9989" style="stroke:#000000;stroke-width:0.75;"/><line style="stroke:#000000;stroke-width:0.75;" x1="183.5" x2="188.5" y1="138.9989" y2="133.9989"/><line style="stroke:#000000;stroke-width:0.75;" x1="102" x2="183.5" y1="138.9989" y2="138.9989"/><line style="stroke:#000000;stroke-width:0.75;" x1="183.5" x2="183.5" y1="138.9989" y2="157.8036"/><text fill="#000000" font-family="sans-serif" font-size="7" font-weight="bold" lengthAdjust="spacing" textLength="66.5" x="109.5" y="151.2655">HDMI Touchscreen</text><!--MD5=[4c50005c0fadedfb0a14f6d1969de37e]
entity Speakers--><rect fill="#FEFECE" filter="url(#f3tjtm26rew3c)" height="18.8047" style="stroke:#000000;stroke-width:0.75;" width="40" x="378.75" y="136.4989"/><text fill="#000000" font-family="sans-serif" font-size="7" lengthAdjust="spacing" textLength="30" x="383.75" y="148.7655">Speakers</text><!--MD5=[1b76df3a4bd008a21abb34082ebb9919]
entity Cameras--><rect fill="#FEFECE" filter="url(#f3tjtm26rew3c)" height="18.8047" style="stroke:#000000;stroke-width:0.75;" width="38.5" x="397" y="80.7489"/><text fill="#000000" font-family="sans-serif" font-size="7" lengthAdjust="spacing" textLength="28.5" x="402" y="93.0155">Cameras</text><!--MD5=[d92e9b93d5ce4574427d5f042afd2321]
entity SDR--><polygon fill="#FEFECE" filter="url(#f3tjtm26rew3c)" points="602.25,406.4989,607.25,401.4989,657.25,401.4989,657.25,420.3036,652.25,425.3036,602.25,425.3036,602.25,406.4989" style="stroke:#000000;stroke-width:0.75;"/><line style="stroke:#000000;stroke-width:0.75;" x1="652.25" x2="657.25" y1="406.4989" y2="401.4989"/><line style="stroke:#000000;stroke-width:0.75;" x1="602.25" x2="652.25" y1="406.4989" y2="406.4989"/><line style="stroke:#000000;stroke-width:0.75;" x1="652.25" x2="652.25" y1="406.4989" y2="425.3036"/><text fill="#000000" font-family="sans-serif" font-size="7" lengthAdjust="spacing" textLength="35" x="609.75" y="418.7655">SDR Radio</text><!--MD5=[6ba27cb6ab6c98fb8258247a8e3f62be]
entity SSB--><polygon fill="#FEFECE" filter="url(#f3tjtm26rew3c)" points="307.25,138.9989,312.25,133.9989,361.25,133.9989,361.25,152.8036,356.25,157.8036,307.25,157.8036,307.25,138.9989" style="stroke:#000000;stroke-width:0.75;"/><line style="stroke:#000000;stroke-width:0.75;" x1="356.25" x2="361.25" y1="138.9989" y2="133.9989"/><line style="stroke:#000000;stroke-width:0.75;" x1="307.25" x2="356.25" y1="138.9989" y2="138.9989"/><line style="stroke:#000000;stroke-width:0.75;" x1="356.25" x2="356.25" y1="138.9989" y2="157.8036"/><text fill="#000000" font-family="sans-serif" font-size="7" lengthAdjust="spacing" textLength="34" x="314.75" y="151.2655">SSB Radio</text><!--MD5=[dd29c4e1cef6fbff2e61a9551f8f2bf2]
entity WiFi_Local--><path d="M211.1051,138.1444 C212.926,134.963 215.1247,134.9804 217.5497,137.4563 C219.2592,133.8366 222.1538,133.8096 224.4262,136.8775 C225.7334,133.5362 227.8095,133.2327 230.4663,135.3969 C233.1858,132.1444 236.223,132.8038 237.8508,136.5489 C240.773,134.1081 242.8404,134.8472 244.3896,138.1202 C245.9864,135.1136 248.9909,135.4084 250.5818,138.1265 C255.5405,138.835 257.464,141.7065 254.3788,146.1988 C256.7683,150.0833 256.2137,153.9445 250.7978,154.4356 C249.2475,157.9043 247.3811,158.8329 244.4239,155.8188 C242.7646,159.0413 239.9242,159.886 237.2646,156.9892 C235.8243,159.9179 233.8201,161.0829 231.2252,158.1861 C228.3949,161.5645 225.1923,161.0995 223.6542,156.8959 C220.6803,159.0069 218.7345,158.7422 217.5223,155.0382 C214.991,157.9295 212.2905,158.1997 210.6288,154.1719 C205.8979,152.9828 205.309,150.6215 208.1353,146.8565 C204.5671,143.108 206.3286,139.0484 211.1051,138.1444 " fill="#FEFECE" filter="url(#f3tjtm26rew3c)" style="stroke:#000000;stroke-width:0.75;"/><text fill="#000000" font-family="sans-serif" font-size="7" lengthAdjust="spacing" textLength="33" x="213.75" y="148.7655">Local WiFi</text><!--MD5=[82bbb9a7a666b856fa28a649fd3171aa]
entity Iridium--><rect fill="#FEFECE" filter="url(#f3tjtm26rew3c)" height="18.8047" style="stroke:#000000;stroke-width:0.75;" width="53" x="453.25" y="80.7489"/><text fill="#000000" font-family="sans-serif" font-size="7" lengthAdjust="spacing" textLength="43" x="458.25" y="93.0155">Iridium Phone</text><!--MD5=[8f0c441f12fb738c5e80b28ccd1b0a87]
entity Other_Sensors--><rect fill="#FEFECE" filter="url(#f3tjtm26rew3c)" height="75.6328" style="stroke:#000000;stroke-width:0.75;" width="97" x="171.75" y="280.9989"/><text fill="#000000" font-family="sans-serif" font-size="7" lengthAdjust="spacing" textLength="48" x="176.75" y="293.2655">Other_Sensors</text><line style="stroke:#000000;stroke-width:0.5;" x1="172.25" x2="268.25" y1="294.8036" y2="294.8036"/><text fill="#000000" font-family="sans-serif" font-size="7" lengthAdjust="spacing" textLength="49" x="176.75" y="304.0702">IoT, 1w, i2c, etc</text><text fill="#000000" font-family="sans-serif" font-size="7" lengthAdjust="spacing" textLength="87" x="176.75" y="312.8748">battery/chargers monitoring</text><text fill="#000000" font-family="sans-serif" font-size="7" lengthAdjust="spacing" textLength="33" x="176.75" y="321.6795">fluid levels</text><text fill="#000000" font-family="sans-serif" font-size="7" lengthAdjust="spacing" textLength="80" x="176.75" y="330.4842">env temp/pressure/humid</text><text fill="#000000" font-family="sans-serif" font-size="7" lengthAdjust="spacing" textLength="82" x="176.75" y="339.2889">dangerous gases sensors</text><text fill="#000000" font-family="sans-serif" font-size="7" lengthAdjust="spacing" textLength="72.5" x="176.75" y="348.0936">lightning strike sensors</text><!--MD5=[869fbf9b9ca9ac4bdf61f7068ab1ff9c]
entity Remote_Desktop--><rect fill="#FEFECE" filter="url(#f3tjtm26rew3c)" height="18.8047" style="stroke:#000000;stroke-width:0.75;" width="83.5" x="524" y="80.7489"/><text fill="#000000" font-family="sans-serif" font-size="7" lengthAdjust="spacing" textLength="73.5" x="529" y="93.0155">Remote Desktop (VNC)</text><!--MD5=[0313ddc4f8ed0f4991a51edae0b1647c]
entity AC--><polygon fill="#FEFECE" filter="url(#f3tjtm26rew3c)" points="156.25,402.2489,161.25,397.2489,197.25,397.2489,197.25,424.8582,192.25,429.8582,156.25,429.8582,156.25,402.2489" style="stroke:#000000;stroke-width:0.75;"/><line style="stroke:#000000;stroke-width:0.75;" x1="192.25" x2="197.25" y1="402.2489" y2="397.2489"/><line style="stroke:#000000;stroke-width:0.75;" x1="156.25" x2="192.25" y1="402.2489" y2="402.2489"/><line style="stroke:#000000;stroke-width:0.75;" x1="192.25" x2="192.25" y1="402.2489" y2="429.8582"/><text fill="#000000" font-family="sans-serif" font-size="7" lengthAdjust="spacing" textLength="11.5" x="163.75" y="414.5155">A/C</text><text fill="#000000" font-family="sans-serif" font-size="7" lengthAdjust="spacing" textLength="21" x="163.75" y="423.3202">Heater</text><!--MD5=[cec077422889c5d3cb551e1217c37df7]
entity Pumps--><polygon fill="#FEFECE" filter="url(#f3tjtm26rew3c)" points="215,391.4989,220,386.4989,274.5,386.4989,274.5,435.7176,269.5,440.7176,215,440.7176,215,391.4989" style="stroke:#000000;stroke-width:0.75;"/><line style="stroke:#000000;stroke-width:0.75;" x1="269.5" x2="274.5" y1="391.4989" y2="386.4989"/><line style="stroke:#000000;stroke-width:0.75;" x1="215" x2="269.5" y1="391.4989" y2="391.4989"/><line style="stroke:#000000;stroke-width:0.75;" x1="269.5" x2="269.5" y1="391.4989" y2="440.7176"/><text fill="#000000" font-family="sans-serif" font-size="7" lengthAdjust="spacing" textLength="21.5" x="222.5" y="403.7655">Pumps</text><line style="stroke:#000000;stroke-width:0.5;" x1="215" x2="269.5" y1="405.3036" y2="405.3036"/><line style="stroke:#000000;stroke-width:0.5;" x1="269.5" x2="274.5" y1="405.3036" y2="400.3036"/><text fill="#000000" font-family="sans-serif" font-size="7" lengthAdjust="spacing" textLength="15.5" x="222.5" y="414.5702">Bilge</text><text fill="#000000" font-family="sans-serif" font-size="7" lengthAdjust="spacing" textLength="39.5" x="222.5" y="423.3748">Fresh Water</text><text fill="#000000" font-family="sans-serif" font-size="7" lengthAdjust="spacing" textLength="38" x="222.5" y="432.1795">Black Water</text><!--MD5=[c74dee767baeeec0e713c54a8a4634dc]
entity Fridge--><polygon fill="#FEFECE" filter="url(#f3tjtm26rew3c)" points="8,406.4989,13,401.4989,48.5,401.4989,48.5,420.3036,43.5,425.3036,8,425.3036,8,406.4989" style="stroke:#000000;stroke-width:0.75;"/><line style="stroke:#000000;stroke-width:0.75;" x1="43.5" x2="48.5" y1="406.4989" y2="401.4989"/><line style="stroke:#000000;stroke-width:0.75;" x1="8" x2="43.5" y1="406.4989" y2="406.4989"/><line style="stroke:#000000;stroke-width:0.75;" x1="43.5" x2="43.5" y1="406.4989" y2="425.3036"/><text fill="#000000" font-family="sans-serif" font-size="7" lengthAdjust="spacing" textLength="20.5" x="15.5" y="418.7655">Fridge</text><!--MD5=[0b2190a355246a80d89d74c5c2c53ceb]
entity Lights_Fans--><rect fill="#FEFECE" filter="url(#f3tjtm26rew3c)" height="36.4141" style="stroke:#000000;stroke-width:0.75;" width="72.5" x="66" y="395.2489"/><text fill="#000000" font-family="sans-serif" font-size="7" lengthAdjust="spacing" textLength="21" x="71" y="407.5155">Lights,</text><text fill="#000000" font-family="sans-serif" font-size="7" lengthAdjust="spacing" textLength="16" x="71" y="416.3202">Fans</text><text fill="#000000" font-family="sans-serif" font-size="7" lengthAdjust="spacing" textLength="62.5" x="71" y="425.1248">Bilge/Engine Blower</text><!--MD5=[593e445c9278762cb4ef7b840df82fac]
entity Keyboard_Mouse--><rect fill="#FEFECE" filter="url(#f3tjtm26rew3c)" height="27.6094" style="stroke:#000000;stroke-width:0.75;" width="40.5" x="267.5" y="76.4989"/><text fill="#000000" font-family="sans-serif" font-size="7" lengthAdjust="spacing" textLength="30.5" x="272.5" y="88.7655">Keyboard</text><text fill="#000000" font-family="sans-serif" font-size="7" lengthAdjust="spacing" textLength="21" x="272.5" y="97.5702">Mouse</text><!--MD5=[6068ed0baf2edbbb46a7f906664363da]
entity Weather--><rect fill="#FEFECE" filter="url(#f3tjtm26rew3c)" height="36.4141" style="stroke:#000000;stroke-width:0.75;" width="48.5" x="675" y="395.2489"/><text fill="#000000" font-family="sans-serif" font-size="7" lengthAdjust="spacing" textLength="23.5" x="680" y="407.5155">NavTex</text><text fill="#000000" font-family="sans-serif" font-size="7" lengthAdjust="spacing" textLength="38.5" x="680" y="416.3202">WeatherFax</text><text fill="#000000" font-family="sans-serif" font-size="7" lengthAdjust="spacing" textLength="33.5" x="680" y="425.1248">Barograph</text><!--MD5=[0df37b53dbcc900899e095c990e30b8f]
entity SiriusXM--><rect fill="#FEFECE" filter="url(#f3tjtm26rew3c)" height="18.8047" style="stroke:#000000;stroke-width:0.75;" width="60.5" x="92.5" y="209.9989"/><text fill="#000000" font-family="sans-serif" font-size="7" lengthAdjust="spacing" textLength="50.5" x="97.5" y="222.2655">SiriusXM Marine</text><!--MD5=[d59b03f458f75ee04d94168ba7ec459b]
entity SmartPhone--><rect fill="#FEFECE" filter="url(#f3tjtm26rew3c)" height="27.6094" style="stroke:#000000;stroke-width:0.75;" width="52.5" x="197.5" y="76.4989"/><text fill="#000000" font-family="sans-serif" font-size="7" lengthAdjust="spacing" textLength="42.5" x="202.5" y="88.7655">SmartPhones</text><text fill="#000000" font-family="sans-serif" font-size="7" lengthAdjust="spacing" textLength="23.5" x="202.5" y="97.5702">Tablets</text><!--MD5=[13e88d8e4422c8d855b54f0d2bc171be]
entity NAS--><path d="M543,197.7489 C543,192.7489 587.75,192.7489 587.75,192.7489 C587.75,192.7489 632.5,192.7489 632.5,197.7489 L632.5,241.4676 C632.5,246.4676 587.75,246.4676 587.75,246.4676 C587.75,246.4676 543,246.4676 543,241.4676 L543,197.7489 " fill="#FEFECE" filter="url(#f3tjtm26rew3c)" style="stroke:#000000;stroke-width:0.75;"/><path d="M543,197.7489 C543,202.7489 587.75,202.7489 587.75,202.7489 C587.75,202.7489 632.5,202.7489 632.5,197.7489 " fill="none" style="stroke:#000000;stroke-width:0.75;"/><text fill="#000000" font-family="sans-serif" font-size="7" lengthAdjust="spacing" textLength="13.5" x="548" y="212.0155">NAS</text><path d="M543,211.0536 C543,216.0536 587.75,216.0536 587.75,216.0536 C587.75,216.0536 632.5,216.0536 632.5,211.0536 " fill="none" style="stroke:#000000;stroke-width:0.5;"/><text fill="#000000" font-family="sans-serif" font-size="7" lengthAdjust="spacing" textLength="49.5" x="548" y="222.8202">Audio/Video Lib</text><text fill="#000000" font-family="sans-serif" font-size="7" lengthAdjust="spacing" textLength="79.5" x="548" y="231.6248">Charts, Backups, Tracks,</text><text fill="#000000" font-family="sans-serif" font-size="7" lengthAdjust="spacing" textLength="68" x="548" y="240.4295">Time Series Data, etc</text><!--MD5=[ee9653e0a8f11fcc17536c9839054b2a]
entity Winches--><polygon fill="#FEFECE" filter="url(#f3tjtm26rew3c)" points="292.25,397.7489,297.25,392.7489,365.25,392.7489,365.25,429.1629,360.25,434.1629,292.25,434.1629,292.25,397.7489" style="stroke:#000000;stroke-width:0.75;"/><line style="stroke:#000000;stroke-width:0.75;" x1="360.25" x2="365.25" y1="397.7489" y2="392.7489"/><line style="stroke:#000000;stroke-width:0.75;" x1="292.25" x2="360.25" y1="397.7489" y2="397.7489"/><line style="stroke:#000000;stroke-width:0.75;" x1="360.25" x2="360.25" y1="397.7489" y2="434.1629"/><text fill="#000000" font-family="sans-serif" font-size="7" lengthAdjust="spacing" textLength="53" x="299.75" y="410.0155">Anchor Windlass</text><text fill="#000000" font-family="sans-serif" font-size="7" lengthAdjust="spacing" textLength="48.5" x="299.75" y="418.8202">Power Winches</text><text fill="#000000" font-family="sans-serif" font-size="7" lengthAdjust="spacing" textLength="42" x="299.75" y="427.6248">Bow Thruster</text><!--MD5=[48e79d9335dd0cd53682a5a492aea5d9]
entity Cloud_Internet--><path d="M584.58,9.9694 C585.9062,6.6666 587.992,6.355 590.5896,8.5894 C592.1624,4.5733 594.2735,4.239 597.1872,7.3477 C598.9123,4.027 602.1256,3.308 604.2533,6.9384 C606.2133,3 609.3523,3.1123 611.7638,6.4738 C613.5897,3.8854 616.5117,3.8902 617.9184,6.932 C620.3593,4.6856 623.2151,4.7098 624.4568,8.28 C626.4801,5.3536 629.2757,5.2377 631.3514,8.2188 C634.3827,4.6441 636.6421,5.3747 638.6177,9.2487 C642.1579,11.0545 642.0241,13.4107 639.0222,15.6312 C641.9866,16.606 641.8945,18.2565 640.2671,20.424 C643.3358,21.9294 644.3492,24.1654 641.3882,26.7409 C643.3052,28.8029 642.8918,30.7402 640.0685,31.4831 C642.0564,33.5487 642.1345,35.4771 639.3725,36.9365 C642.0194,39.1507 641.7629,40.9741 638.7497,42.5616 C636.6668,45.7847 634.6452,46.7305 631.7905,43.3784 C629.8738,46.4724 627.082,46.8059 625.2358,43.3083 C623.4448,47.3722 620.0207,46.7683 617.9015,43.6432 C616.4517,46.7392 613.0592,47.6047 610.8354,44.5293 C608.3209,47.5212 606.3324,46.9024 604.7183,43.6476 C602.3695,47.3135 600.2582,47.0014 597.8368,43.7196 C595.7416,47.0021 593.2796,46.4901 591.1352,43.7746 C588.0609,46.9573 585.3971,47.0019 583.5143,42.5804 C581.0766,41.0708 580.8676,38.7853 583.4065,37.1764 C580.4984,35.6156 580.45,33.6868 583.1288,31.8355 C580.2101,30.153 580.4913,27.9986 582.8868,26.0922 C580.6512,24.1587 580.4308,22.2713 583.2213,20.6465 C580.6002,18.5762 581.0403,16.4228 584.1309,15.3296 C581.4835,13.2572 581.9878,11.6028 584.58,9.9694 " fill="#FEFECE" filter="url(#f3tjtm26rew3c)" style="stroke:#000000;stroke-width:0.75;"/><text fill="#000000" font-family="sans-serif" font-size="7" font-weight="bold" lengthAdjust="spacing" textLength="28" x="587" y="19.7655">Internet</text><text fill="#000000" font-family="sans-serif" font-size="7" lengthAdjust="spacing" textLength="45.5" x="587" y="28.5702">Cloud Storage</text><text fill="#000000" font-family="sans-serif" font-size="7" lengthAdjust="spacing" textLength="47.5" x="587" y="37.3748">Cloud Services</text><!--MD5=[f38da3986c5ca1dec060c2524b9ccddc]
entity Lora--><path d="M387.4721,405.6967 C389.4763,402.4488 391.4482,402.2998 393.7083,405.4471 C394.7705,402.3696 397.3695,402.0348 399.6383,404.0391 C400.7051,401.1585 403.3402,400.5759 405.3442,403.0382 C407.8166,400.0134 409.7851,401.095 411.4433,403.8913 C414.5008,401.0912 416.5396,401.9164 418.1893,405.4022 C420.1585,402.8823 422.5513,403.0572 424.1834,405.7871 C428.8203,407.8636 429.4718,410.5085 426.2155,414.4388 C429.6914,418.3434 428.4094,420.6819 424.0064,422.4003 C422.3788,425.6736 419.7955,425.1626 418.0325,422.5375 C415.9712,425.9147 413.8144,425.7445 411.5674,422.7252 C409.7674,426.0214 407.2871,426.0847 405.4205,422.7872 C403.2151,424.6669 401.589,424.3742 400.145,421.8708 C398.077,425.3689 395.1098,424.8472 393.3928,421.5234 C392.0967,424.036 389.422,424.1506 387.7696,421.9485 C383.153,420.4928 383.1572,416.5416 386.4401,413.7974 C383.3495,411.1631 382.9193,407.3572 387.4721,405.6967 " fill="#FEFECE" filter="url(#f3tjtm26rew3c)" style="stroke:#000000;stroke-width:0.75;"/><text fill="#000000" font-family="sans-serif" font-size="7" lengthAdjust="spacing" textLength="30" x="390.25" y="416.2655">LoraWAN</text><!--MD5=[3ff5d2fb9a8117c537632aae671cabcb]
entity Esp32--><rect fill="#FEFECE" filter="url(#f3tjtm26rew3c)" height="27.6094" style="stroke:#000000;stroke-width:0.75;" width="38" x="319.75" y="304.9989"/><text fill="#000000" font-family="sans-serif" font-size="7" lengthAdjust="spacing" textLength="28" x="324.75" y="317.2655">m5stack,</text><text fill="#000000" font-family="sans-serif" font-size="7" lengthAdjust="spacing" textLength="24" x="324.75" y="326.0702">arduino</text><!--MD5=[5d3c09c67791d820f6e58e35ac1308e3]
link RPI to GPS--><path codeLine="187" d="M375.77,251.0839 C381.605,271.2139 388.805,296.0289 392.605,309.1389 " fill="none" id="RPI-GPS" style="stroke:#A80036;stroke-width:0.5;"/><!--MD5=[c6d492c1e608e21002a1e79a049df954]
link IMU to RPI--><path codeLine="188" d="M312.075,219.4989 C317.845,219.4989 323.61,219.4989 329.375,219.4989 " fill="none" id="IMU-RPI" style="stroke:#A80036;stroke-width:0.5;"/><!--MD5=[a860cb1a85174d4976dae9c4f32e49f8]
link RPI to NMEA_2000--><path codeLine="189" d="M329.405,246.9039 C326.545,248.4189 323.645,249.8089 320.75,250.9989 C254.65,278.1939 226.52,248.7089 162.75,280.9989 C156.145,284.3439 149.855,289.1089 144.295,294.1139 " fill="none" id="RPI-NMEA_2000" style="stroke:#A80036;stroke-width:0.5;"/><!--MD5=[f75ecebad45d24d2cfeff8c08b96d55d]
link RPI to NMEA_Mux--><path codeLine="190" d="M404.05,250.4139 C424.165,266.8139 448.29,286.4839 465.37,300.4089 " fill="none" id="RPI-NMEA_Mux" style="stroke:#A80036;stroke-width:0.5;"/><!--MD5=[3577f1ad49970e59a1e1697b6041c28e]
link Eth_Hub to RPI--><path codeLine="191" d="M597.925,155.0289 C549.635,168.3939 456.295,194.2189 404.205,208.6339 " fill="none" id="Eth_Hub-RPI" style="stroke:#A80036;stroke-width:0.5;"/><!--MD5=[1d20bbed48bf86b90ee5f13bc892e6f4]
link RPI to USB_Hub--><path codeLine="192" d="M404.08,232.5189 C439.26,244.4689 493.355,263.2339 539.75,280.9989 C562.255,289.6139 587.59,300.1839 605.635,307.8589 " fill="none" id="RPI-USB_Hub" style="stroke:#A80036;stroke-width:0.5;"/><!--MD5=[920310a45a910abea0e78fc3f928b9c7]
link Touchscreen to RPI--><path codeLine="193" d="M188.635,156.3489 C238.595,167.7539 314.63,185.3189 320.75,187.9989 C323.66,189.2739 326.585,190.7339 329.475,192.3139 " fill="none" id="Touchscreen-RPI" style="stroke:#A80036;stroke-width:0.5;"/><!--MD5=[e542bf0be54ca915b2a2c465769198ce]
link Cameras to RPI--><path codeLine="194" d="M420.845,99.8039 C426.91,113.0539 435.91,138.2989 427.75,157.9989 C422.62,170.3839 413.62,181.5639 404.085,190.8689 " fill="none" id="Cameras-RPI" style="stroke:#A80036;stroke-width:0.5;"/><!--MD5=[738bdf1011746a1c073c591ef970d801]
reverse link Speakers to RPI--><path codeLine="195" d="M393.7,157.9389 C390.13,166.0339 385.155,177.2939 380.455,187.9489 " fill="none" id="Speakers-backto-RPI" style="stroke:#A80036;stroke-width:0.5;"/><polygon fill="#A80036" points="394.76,155.5339,391.1191,158.8496,393.7546,157.8228,394.7814,160.4583,394.76,155.5339" style="stroke:#A80036;stroke-width:0.5;"/><!--MD5=[9d6d2f6c2f4d2fc3bb3ff0dee1317c54]
link SSB to RPI--><path codeLine="196" d="M339.47,158.1489 C343.095,166.2339 348.105,177.4089 352.845,187.9789 " fill="none" id="SSB-RPI" style="stroke:#A80036;stroke-width:0.5;"/><!--MD5=[ba43404d2398351bd02a197b89c6dc04]
link Iridium to RPI--><path codeLine="197" d="M475.995,99.9189 C470.13,113.5389 457.835,139.4939 442.25,157.9989 C431.23,171.0789 417.08,183.3789 404.015,193.4589 " fill="none" id="Iridium-RPI" style="stroke:#A80036;stroke-width:0.5;"/><!--MD5=[72d1981d7f6e9ae87e7ce2d696ef1c70]
link RPI to Other_Sensors--><path codeLine="198" d="M329.35,245.2189 C326.44,247.1739 323.55,249.1189 320.75,250.9989 C303.845,262.3539 285.32,274.7539 268.835,285.7839 " fill="none" id="RPI-Other_Sensors" style="stroke:#A80036;stroke-width:0.5;"/><!--MD5=[e6b62623cb5cffca99b55a6fc459f471]
link RPI to Esp32--><path codeLine="199" d="M357.89,251.0839 C352.715,269.2439 346.45,291.2239 342.535,304.9739 " fill="none" id="RPI-Esp32" style="stroke:#A80036;stroke-width:0.5;"/><!--MD5=[abd7622213c1ceda57fd7e6c8ce2488a]
link WiFi_Local to RPI--><path codeLine="200" d="M254.405,156.3039 C272.945,164.1289 298.97,175.7739 320.75,187.9989 C323.605,189.6039 326.515,191.3239 329.41,193.1089 " fill="none" id="WiFi_Local-RPI" style="stroke:#A80036;stroke-width:0.5;"/><!--MD5=[9befc12befc76c6c24a0e27f7270b253]
link Keyboard_Mouse to RPI--><path codeLine="201" d="M287.385,104.0989 C287.55,118.3039 289.46,141.0339 298.75,157.9989 C306.175,171.5639 317.81,183.6439 329.365,193.4039 " fill="none" id="Keyboard_Mouse-RPI" style="stroke:#A80036;stroke-width:0.5;"/><!--MD5=[a15dace8b9997a4e161f7e6bb21c3756]
link SmartPhone to WiFi_Local--><path codeLine="203" d="M225.325,104.0039 C226.405,113.1189 227.83,125.1089 228.87,133.8539 " fill="none" id="SmartPhone-WiFi_Local" style="stroke:#A80036;stroke-width:0.5;"/><!--MD5=[a6a6198443ed7f46598e3abcaaf7a198]
link SiriusXM to NMEA_2000--><path codeLine="205" d="M122.75,229.0639 C122.75,243.7439 122.75,273.1889 122.75,294.2289 " fill="none" id="SiriusXM-NMEA_2000" style="stroke:#A80036;stroke-width:0.5;"/><!--MD5=[f06790075d9412e28e90e4ac15acc0e3]
link Eth_Hub to Router--><path codeLine="207" d="M659.61,145.9989 C665.34,145.9989 671.065,145.9989 676.795,145.9989 " fill="none" id="Eth_Hub-Router" style="stroke:#A80036;stroke-width:0.5;"/><!--MD5=[4e13fc5b7ed4d5c8bb5a843a2b474eca]
link Eth_Hub to Radar--><path codeLine="208" d="M635.335,158.1489 C642.99,171.6789 655.535,193.8639 663.18,207.3789 " fill="none" id="Eth_Hub-Radar" style="stroke:#A80036;stroke-width:0.5;"/><!--MD5=[0ff0ce0d78f63490cbe2abe10619b3e8]
link Eth_Hub to NAS--><path codeLine="209" d="M622.165,158.1489 C616.91,167.4339 609.355,180.7989 602.655,192.6389 " fill="none" id="Eth_Hub-NAS" style="stroke:#A80036;stroke-width:0.5;"/><!--MD5=[fdba92f7cd499ccd998d05999f71f6ae]
link Dish_Router to Eth_Hub--><path codeLine="210" d="M649.215,104.0039 C644.72,113.1189 638.805,125.1089 634.495,133.8539 " fill="none" id="Dish_Router-Eth_Hub" style="stroke:#A80036;stroke-width:0.5;"/><!--MD5=[fbe332a3304dc4c8c3dfaece74a779f6]
link USB_Hub to SDR--><path codeLine="212" d="M629.75,330.9339 C629.75,348.9939 629.75,383.4889 629.75,401.4639 " fill="none" id="USB_Hub-SDR" style="stroke:#A80036;stroke-width:0.5;"/><!--MD5=[4ba09ff32a53e36c5fb85e6eec1de587]
link USB_Hub to Weather--><path codeLine="213" d="M638.41,330.9339 C650.385,347.0839 672.09,376.3639 686.08,395.2289 " fill="none" id="USB_Hub-Weather" style="stroke:#A80036;stroke-width:0.5;"/><!--MD5=[2a0b371ec03d2c21e471fa956f48a495]
link Other_Sensors to AC--><path codeLine="215" d="M202.935,356.5689 C196.395,370.6639 189.295,385.9589 184.14,397.0689 " fill="none" id="Other_Sensors-AC" style="stroke:#A80036;stroke-width:0.5;"/><!--MD5=[cbb222f50bcb791e9720287055fe13dd]
link Other_Sensors to Fridge--><path codeLine="216" d="M171.715,352.0739 C168.73,353.6589 165.73,355.1489 162.75,356.4989 C118.36,376.6389 99.825,362.7539 57.25,386.4989 C50.28,390.3839 43.625,396.2539 38.45,401.4839 " fill="none" id="Other_Sensors-Fridge" style="stroke:#A80036;stroke-width:0.5;"/><!--MD5=[bde99af21072dc4abd6c3e9790e945d2]
link Other_Sensors to Lights_Fans--><path codeLine="217" d="M173.275,356.5689 C156.5,369.8989 138.37,384.2989 124.63,395.2189 " fill="none" id="Other_Sensors-Lights_Fans" style="stroke:#A80036;stroke-width:0.5;"/><!--MD5=[9816221c84b92aca30c282d28f000dea]
link Other_Sensors to Pumps--><path codeLine="218" d="M230.005,356.5689 C232.62,366.5789 235.395,377.1939 237.82,386.4839 " fill="none" id="Other_Sensors-Pumps" style="stroke:#A80036;stroke-width:0.5;"/><!--MD5=[f4051e061112c5a67383a685ff83d16a]
link NMEA_Mux to NMEA_0183--><path codeLine="220" d="M487.25,337.1039 C487.25,351.7639 487.25,372.6739 487.25,388.8339 " fill="none" id="NMEA_Mux-NMEA_0183" style="stroke:#A80036;stroke-width:0.5;"/><!--MD5=[993848724ee1e0bda2efd2c10d093eb0]
link NMEA_Mux to AP--><path codeLine="221" d="M502.2,337.1039 C518.835,356.9739 545.08,388.3089 558.015,403.7589 " fill="none" id="NMEA_Mux-AP" style="stroke:#A80036;stroke-width:0.5;"/><!--MD5=[4c412d33c9dd3373fedf634d2cfe895b]
link Esp32 to Lora--><path codeLine="223" d="M348.28,332.6789 C361.35,351.1089 384.63,383.9289 397,401.3639 " fill="none" id="Esp32-Lora" style="stroke:#A80036;stroke-width:0.5;"/><!--MD5=[3a78a92175d5b8f917843889fc4ac663]
link Esp32 to Winches--><path codeLine="224" d="M337.315,332.6789 C335.645,348.3739 332.855,374.5089 330.915,392.6889 " fill="none" id="Esp32-Winches" style="stroke:#A80036;stroke-width:0.5;"/><!--MD5=[090045518a7210d3fe050bd4b1b61143]
link Cloud_Internet to Dish_Router--><path codeLine="226" d="M625.11,46.5139 C632.055,56.3139 640.195,67.8039 646.34,76.4739 " fill="none" id="Cloud_Internet-Dish_Router" style="stroke:#A80036;stroke-width:0.5;"/><!--MD5=[0417bd4aebf7681efb342db5775863ca]
link Cloud_Internet to Router--><path codeLine="227" d="M642.11,37.8039 C660.165,45.9839 681.865,58.6939 695.25,76.4989 C708.16,93.6689 711.84,119.2589 712.87,133.9689 " fill="none" id="Cloud_Internet-Router" style="stroke:#A80036;stroke-width:0.5;"/><!--MD5=[6d4697dd1a4fa0e14865453f969898e5]
link Cloud_Internet to Iridium--><path codeLine="228" d="M579.37,41.4589 C554.09,53.7139 519.4,70.5289 498.335,80.7389 " fill="none" id="Cloud_Internet-Iridium" style="stroke:#A80036;stroke-width:0.5;"/><!--MD5=[f7b1ed679f3dcc8891234d56821c2a8b]
link Cloud_Internet to Remote_Desktop--><path codeLine="229" d="M596.39,46.5139 C588.26,57.9839 578.495,71.7639 572.21,80.6339 " fill="none" id="Cloud_Internet-Remote_Desktop" style="stroke:#A80036;stroke-width:0.5;"/><!--MD5=[f7c22a6020875df2ba44dffafefaebb5]
link Skipper to Touchscreen--><path codeLine="231" d="M340.745,27.0989 C311.755,29.6989 236.77,39.7789 188.75,76.4989 C168.95,91.6389 155.815,118.5739 149.54,133.9289 " fill="none" id="Skipper-Touchscreen" style="stroke:#A80036;stroke-width:0.5;"/><!--MD5=[180a6a48d329b5088bf365124668f177]
link Skipper to Speakers--><path codeLine="232" d="M360.605,46.6139 C370.74,72.8889 387.94,117.4789 395.275,136.4839 " fill="none" id="Skipper-Speakers" style="stroke:#A80036;stroke-width:0.5;"/><!--MD5=[b5f99795dccb66293530d697261f575d]
link Skipper to Cameras--><path codeLine="233" d="M364.845,38.3439 C377.15,50.6489 395.95,69.4489 407.08,80.5789 " fill="none" id="Skipper-Cameras" style="stroke:#A80036;stroke-width:0.5;"/><!--MD5=[4d7243369b38bcf5d3d8f8df86a5cab3]
link Skipper to Iridium--><path codeLine="234" d="M364.925,32.3389 C387.4,43.5739 435.495,67.6239 461.745,80.7489 " fill="none" id="Skipper-Iridium" style="stroke:#A80036;stroke-width:0.5;"/><!--MD5=[c0261e63bc2c3c7d09c0762b33b29a4a]
link Skipper to SSB--><path codeLine="235" d="M349.59,46.6139 C345.69,71.7589 339.185,113.6739 336.05,133.8889 " fill="none" id="Skipper-SSB" style="stroke:#A80036;stroke-width:0.5;"/><!--MD5=[7055ac5873383501a6665c2abfcc17ee]
link Skipper to SmartPhone--><path codeLine="236" d="M340.615,32.2239 C320.01,42.3639 277.74,63.1739 250.085,76.7839 " fill="none" id="Skipper-SmartPhone" style="stroke:#A80036;stroke-width:0.5;"/><!--MD5=[9e619f9f7e27f8b7daf8036513ac83ac]
link Skipper to Keyboard_Mouse--><path codeLine="237" d="M340.675,38.0439 C329.515,48.9489 312.95,65.1289 301.33,76.4789 " fill="none" id="Skipper-Keyboard_Mouse" style="stroke:#A80036;stroke-width:0.5;"/><!--MD5=[791020c57217bb146034c35bb978d496]
link Skipper to Remote_Desktop--><path codeLine="238" d="M364.81,29.8439 C397.375,39.5539 487.81,66.5139 535.47,80.7239 " fill="none" id="Skipper-Remote_Desktop" style="stroke:#A80036;stroke-width:0.5;"/><!--MD5=[0ac8b3b7f5f9793d4ce12c32f2693c5f]
@startuml

actor Skipper [
 Skipper
]

node RPI [
 <b>Rpi4, BBN OS
 - - - -
 Local WiFi
 CanBus Interface
 Sound Card
 SSD
]

rectangle GPS [
 GPS USB
]

rectangle IMU [
 IMU
 - - - -
 compass, gyro, accel
]

rectangle NMEA_2000 [
 <b>NMEA2000 Bus
 - - - -
 engine sensors,
 fishfinder, sonar,
 etc
]

node NMEA_Mux [
 NMEA Multiplexer
 - - - -
 bidirectional Seatalk1
]

rectangle NMEA_0183 [
 <b>NMEA 0183 Devices
 - - - -
 AIS transducer/receiver
 GPS, VHF, compass
 Wind, Depth, Speed
]

rectangle AP [
 Autopilot
]

node Eth_Hub [
 Ethernet Hub
]

node USB_Hub [
 USB Hub
]

node Router [
 LTE/WiFi Router
]

rectangle Dish_Router [
 StarLink Router,
 Dish
]

node Radar [
 Radar
]

node Touchscreen [
 <b>HDMI Touchscreen
]

rectangle Speakers [
 Speakers
]

rectangle Cameras [
 Cameras
]

node SDR [
 SDR Radio
]

node SSB [
 SSB Radio
]

cloud WiFi_Local [
 Local WiFi
]

rectangle Iridium [
 Iridium Phone
]

rectangle Other_Sensors [
 Other_Sensors
 - - - -
 IoT, 1w, i2c, etc
 battery/chargers monitoring
 fluid levels
 env temp/pressure/humid
 dangerous gases sensors
 lightning strike sensors
]

rectangle Remote_Desktop [
 Remote Desktop (VNC)
]

node AC [
 A/C
 Heater
]

node Pumps [
 Pumps
 - - - -
 Bilge
 Fresh Water
 Black Water
]

node Fridge [
 Fridge
]

rectangle Lights_Fans [
 Lights,
 Fans
 Bilge/Engine Blower
]

rectangle Keyboard_Mouse [
 Keyboard
 Mouse
]

rectangle Weather [
 NavTex
 WeatherFax
 Barograph
]

rectangle SiriusXM [
 SiriusXM Marine
]

rectangle SmartPhone [
 SmartPhones
 Tablets
]

database NAS [
 NAS
 - - - -
 Audio/Video Lib
 Charts, Backups, Tracks,
 Time Series Data, etc
]

node Winches [
 Anchor Windlass
 Power Winches
 Bow Thruster
]

cloud Cloud_Internet [
 <b>Internet
 Cloud Storage
 Cloud Services
]

cloud Lora [
 LoraWAN
]

rectangle Esp32 [
 m5stack,
 arduino
]

RPI - - GPS
RPI -l- IMU
RPI - - NMEA_2000
RPI - - NMEA_Mux
RPI -u- Eth_Hub
RPI - - USB_Hub
RPI -u- Touchscreen
RPI -u- Cameras
RPI -u-> Speakers
RPI -u- SSB
RPI -u- Iridium
RPI - - Other_Sensors
RPI -d- Esp32
RPI -u- WiFi_Local
RPI -u- Keyboard_Mouse

SmartPhone - - WiFi_Local

SiriusXM - - NMEA_2000

Eth_Hub -r- Router
Eth_Hub - - Radar
Eth_Hub - - NAS
Eth_Hub -u- Dish_Router

USB_Hub - - SDR
USB_Hub - - Weather

Other_Sensors - - AC
Other_Sensors - - Fridge
Other_Sensors - - Lights_Fans
Other_Sensors - - Pumps

NMEA_Mux - - NMEA_0183
NMEA_Mux - - AP

Esp32 - - Lora
Esp32 - - Winches

Cloud_Internet - - Dish_Router
Cloud_Internet - - Router
Cloud_Internet - - Iridium
Cloud_Internet - - Remote_Desktop

Skipper - - Touchscreen
Skipper - - Speakers
Skipper - - Cameras
Skipper - - Iridium
Skipper - - SSB
Skipper - - SmartPhone
Skipper - - Keyboard_Mouse
Skipper - - Remote_Desktop

@enduml

PlantUML version 1.2021.00(Sun Jan 10 05:25:05 EST 2021)
(GPL source distribution)
Java Runtime: OpenJDK Runtime Environment
JVM: OpenJDK 64-Bit Server VM
Default Encoding: Cp1252
Language: en
Country: US
--></g></svg>