<?xml version="1.0" encoding="UTF-8" standalone="no"?><svg xmlns="http://www.w3.org/2000/svg" xmlns:xlink="http://www.w3.org/1999/xlink" contentScriptType="application/ecmascript" contentStyleType="text/css" height="444px" preserveAspectRatio="none" style="width:765px;height:444px;" version="1.1" viewBox="0 0 765 444" width="765px" zoomAndPan="magnify"><defs><filter height="300%" id="fka4pqn75juqe" width="300%" x="-1" y="-1"><feGaussianBlur result="blurOut" stdDeviation="1.0"/><feColorMatrix in="blurOut" result="blurOut2" type="matrix" values="0 0 0 0 0 0 0 0 0 0 0 0 0 0 0 0 0 0 .4 0"/><feOffset dx="2.0" dy="2.0" in="blurOut2" result="blurOut3"/><feBlend in="SourceGraphic" in2="blurOut3" mode="normal"/></filter></defs><g><!--MD5=[f50827fad462c3f51a79aa3f1564e3ff]
entity Skipper--><ellipse cx="359.75" cy="9.7489" fill="#FEFECE" filter="url(#fka4pqn75juqe)" rx="4" ry="4" style="stroke:#A80036;stroke-width:0.75;"/><path d="M359.75,13.7489 L359.75,27.2489 M353.25,17.7489 L366.25,17.7489 M359.75,27.2489 L353.25,34.7489 M359.75,27.2489 L366.25,34.7489 " fill="none" filter="url(#fka4pqn75juqe)" style="stroke:#A80036;stroke-width:0.75;"/><text fill="#000000" font-family="sans-serif" font-size="7" lengthAdjust="spacing" textLength="24" x="347.75" y="44.7655">Skipper</text><!--MD5=[56bb6c3bc4df8cdefb957cc5b3ef3a7e]
entity RPI--><polygon fill="#FEFECE" filter="url(#fka4pqn75juqe)" points="336.5,192.9989,341.5,187.9989,411,187.9989,411,246.0223,406,251.0223,336.5,251.0223,336.5,192.9989" style="stroke:#000000;stroke-width:0.75;"/><line style="stroke:#000000;stroke-width:0.75;" x1="406" x2="411" y1="192.9989" y2="187.9989"/><line style="stroke:#000000;stroke-width:0.75;" x1="336.5" x2="406" y1="192.9989" y2="192.9989"/><line style="stroke:#000000;stroke-width:0.75;" x1="406" x2="406" y1="192.9989" y2="251.0223"/><text fill="#000000" font-family="sans-serif" font-size="7" font-weight="bold" lengthAdjust="spacing" textLength="46.5" x="344" y="205.2655">Rpi4, BBN OS</text><line style="stroke:#000000;stroke-width:0.5;" x1="336.5" x2="406" y1="206.8036" y2="206.8036"/><line style="stroke:#000000;stroke-width:0.5;" x1="406" x2="411" y1="206.8036" y2="201.8036"/><text fill="#000000" font-family="sans-serif" font-size="7" lengthAdjust="spacing" textLength="33" x="344" y="216.0702">Local WiFi</text><text fill="#000000" font-family="sans-serif" font-size="7" lengthAdjust="spacing" textLength="54.5" x="344" y="224.8748">CanBus Interface</text><text fill="#000000" font-family="sans-serif" font-size="7" lengthAdjust="spacing" textLength="38" x="344" y="233.6795">Sound Card</text><text fill="#000000" font-family="sans-serif" font-size="7" lengthAdjust="spacing" textLength="14" x="344" y="242.4842">SSD</text><!--MD5=[cd1d357e028b96f42ee72ab526715f53]
entity GPS--><rect fill="#FEFECE" filter="url(#fka4pqn75juqe)" height="18.8047" style="stroke:#000000;stroke-width:0.75;" width="40" x="382.25" y="309.2489"/><text fill="#000000" font-family="sans-serif" font-size="7" lengthAdjust="spacing" textLength="30" x="387.25" y="321.5155">GPS USB</text><!--MD5=[ae8265c62b5fdfc486198cf91618d43d]
entity IMU--><rect fill="#FEFECE" filter="url(#fka4pqn75juqe)" height="31.6094" style="stroke:#000000;stroke-width:0.75;" width="76.5" x="242.5" y="203.7489"/><text fill="#000000" font-family="sans-serif" font-size="7" lengthAdjust="spacing" textLength="11.5" x="247.5" y="216.0155">IMU</text><line style="stroke:#000000;stroke-width:0.5;" x1="243" x2="318.5" y1="217.5536" y2="217.5536"/><text fill="#000000" font-family="sans-serif" font-size="7" lengthAdjust="spacing" textLength="66.5" x="247.5" y="226.8202">compass, gyro, accel</text><!--MD5=[b17a41457b887f0466e22bd7e05c4601]
entity NMEA_2000--><rect fill="#FEFECE" filter="url(#fka4pqn75juqe)" height="49.2188" style="stroke:#000000;stroke-width:0.75;" width="63" x="98.25" y="294.2489"/><text fill="#000000" font-family="sans-serif" font-size="7" font-weight="bold" lengthAdjust="spacing" textLength="52" x="103.25" y="306.5155">NMEA2000 Bus</text><line style="stroke:#000000;stroke-width:0.5;" x1="98.75" x2="160.75" y1="308.0536" y2="308.0536"/><text fill="#000000" font-family="sans-serif" font-size="7" lengthAdjust="spacing" textLength="50.5" x="103.25" y="317.3202">engine sensors,</text><text fill="#000000" font-family="sans-serif" font-size="7" lengthAdjust="spacing" textLength="53" x="103.25" y="326.1248">fishfinder, sonar,</text><text fill="#000000" font-family="sans-serif" font-size="7" lengthAdjust="spacing" textLength="9.5" x="103.25" y="334.9295">etc</text><!--MD5=[6eed89ef60fd1dd7e5ad5481c6afc096]
entity NMEA_Mux--><polygon fill="#FEFECE" filter="url(#fka4pqn75juqe)" points="461.5,305.4989,466.5,300.4989,549,300.4989,549,332.1082,544,337.1082,461.5,337.1082,461.5,305.4989" style="stroke:#000000;stroke-width:0.75;"/><line style="stroke:#000000;stroke-width:0.75;" x1="544" x2="549" y1="305.4989" y2="300.4989"/><line style="stroke:#000000;stroke-width:0.75;" x1="461.5" x2="544" y1="305.4989" y2="305.4989"/><line style="stroke:#000000;stroke-width:0.75;" x1="544" x2="544" y1="305.4989" y2="337.1082"/><text fill="#000000" font-family="sans-serif" font-size="7" lengthAdjust="spacing" textLength="54.5" x="469" y="317.7655">NMEA Multiplexer</text><line style="stroke:#000000;stroke-width:0.5;" x1="461.5" x2="544" y1="319.3036" y2="319.3036"/><line style="stroke:#000000;stroke-width:0.5;" x1="544" x2="549" y1="319.3036" y2="314.3036"/><text fill="#000000" font-family="sans-serif" font-size="7" lengthAdjust="spacing" textLength="67.5" x="469" y="328.5702">bidirectional Seatalk1</text><!--MD5=[1eaf4d2f8be208adf81d4b0ad8be7432]
entity NMEA_0183--><rect fill="#FEFECE" filter="url(#fka4pqn75juqe)" height="49.2188" style="stroke:#000000;stroke-width:0.75;" width="84" x="463.25" y="388.9989"/><text fill="#000000" font-family="sans-serif" font-size="7" font-weight="bold" lengthAdjust="spacing" textLength="69" x="468.25" y="401.2655">NMEA 0183 Devices</text><line style="stroke:#000000;stroke-width:0.5;" x1="463.75" x2="546.75" y1="402.8036" y2="402.8036"/><text fill="#000000" font-family="sans-serif" font-size="7" lengthAdjust="spacing" textLength="74" x="468.25" y="412.0702">AIS transducer/receiver</text><text fill="#000000" font-family="sans-serif" font-size="7" lengthAdjust="spacing" textLength="64" x="468.25" y="420.8748">GPS, VHF, compass</text><text fill="#000000" font-family="sans-serif" font-size="7" lengthAdjust="spacing" textLength="63.5" x="468.25" y="429.6795">Wind, Depth, Speed</text><!--MD5=[31e3ec59327e273962ce661ad70afaa5]
entity AP--><rect fill="#FEFECE" filter="url(#fka4pqn75juqe)" height="18.8047" style="stroke:#000000;stroke-width:0.75;" width="37.5" x="565" y="403.9989"/><text fill="#000000" font-family="sans-serif" font-size="7" lengthAdjust="spacing" textLength="27.5" x="570" y="416.2655">Autopilot</text><!--MD5=[547615c2c8915297a73af811d5dbf318]
entity Eth_Hub--><polygon fill="#FEFECE" filter="url(#fka4pqn75juqe)" points="605,138.9989,610,133.9989,666.5,133.9989,666.5,152.8036,661.5,157.8036,605,157.8036,605,138.9989" style="stroke:#000000;stroke-width:0.75;"/><line style="stroke:#000000;stroke-width:0.75;" x1="661.5" x2="666.5" y1="138.9989" y2="133.9989"/><line style="stroke:#000000;stroke-width:0.75;" x1="605" x2="661.5" y1="138.9989" y2="138.9989"/><line style="stroke:#000000;stroke-width:0.75;" x1="661.5" x2="661.5" y1="138.9989" y2="157.8036"/><text fill="#000000" font-family="sans-serif" font-size="7" lengthAdjust="spacing" textLength="41.5" x="612.5" y="151.2655">Ethernet Hub</text><!--MD5=[7968f28c13df0538bc57173754511f0e]
entity USB_Hub--><polygon fill="#FEFECE" filter="url(#fka4pqn75juqe)" points="623.75,311.7489,628.75,306.7489,671.75,306.7489,671.75,325.5536,666.75,330.5536,623.75,330.5536,623.75,311.7489" style="stroke:#000000;stroke-width:0.75;"/><line style="stroke:#000000;stroke-width:0.75;" x1="666.75" x2="671.75" y1="311.7489" y2="306.7489"/><line style="stroke:#000000;stroke-width:0.75;" x1="623.75" x2="666.75" y1="311.7489" y2="311.7489"/><line style="stroke:#000000;stroke-width:0.75;" x1="666.75" x2="666.75" y1="311.7489" y2="330.5536"/><text fill="#000000" font-family="sans-serif" font-size="7" lengthAdjust="spacing" textLength="28" x="631.25" y="324.0155">USB Hub</text><!--MD5=[953a8c67cfe21abaf9bf45dad8506ca8]
entity Router--><polygon fill="#FEFECE" filter="url(#fka4pqn75juqe)" points="684,138.9989,689,133.9989,756.5,133.9989,756.5,152.8036,751.5,157.8036,684,157.8036,684,138.9989" style="stroke:#000000;stroke-width:0.75;"/><line style="stroke:#000000;stroke-width:0.75;" x1="751.5" x2="756.5" y1="138.9989" y2="133.9989"/><line style="stroke:#000000;stroke-width:0.75;" x1="684" x2="751.5" y1="138.9989" y2="138.9989"/><line style="stroke:#000000;stroke-width:0.75;" x1="751.5" x2="751.5" y1="138.9989" y2="157.8036"/><text fill="#000000" font-family="sans-serif" font-size="7" lengthAdjust="spacing" textLength="52.5" x="691.5" y="151.2655">LTE/WiFi Router</text><!--MD5=[4c7a5f0f4d710d941c4df063500e34ba]
entity Dish_Router--><rect fill="#FEFECE" filter="url(#fka4pqn75juqe)" height="27.6094" style="stroke:#000000;stroke-width:0.75;" width="61.5" x="632" y="76.4989"/><text fill="#000000" font-family="sans-serif" font-size="7" lengthAdjust="spacing" textLength="51.5" x="637" y="88.7655">StarLink Router,</text><text fill="#000000" font-family="sans-serif" font-size="7" lengthAdjust="spacing" textLength="14" x="637" y="97.5702">Dish</text><!--MD5=[af2495f9a90a9f78578178908d6e69bd]
entity Radar--><polygon fill="#FEFECE" filter="url(#fka4pqn75juqe)" points="657,212.4989,662,207.4989,696.5,207.4989,696.5,226.3036,691.5,231.3036,657,231.3036,657,212.4989" style="stroke:#000000;stroke-width:0.75;"/><line style="stroke:#000000;stroke-width:0.75;" x1="691.5" x2="696.5" y1="212.4989" y2="207.4989"/><line style="stroke:#000000;stroke-width:0.75;" x1="657" x2="691.5" y1="212.4989" y2="212.4989"/><line style="stroke:#000000;stroke-width:0.75;" x1="691.5" x2="691.5" y1="212.4989" y2="231.3036"/><text fill="#000000" font-family="sans-serif" font-size="7" lengthAdjust="spacing" textLength="19.5" x="664.5" y="224.7655">Radar</text><!--MD5=[330778c508571bc43f7e5523a03ca602]
entity Touchscreen--><polygon fill="#FEFECE" filter="url(#fka4pqn75juqe)" points="109,138.9989,114,133.9989,195.5,133.9989,195.5,152.8036,190.5,157.8036,109,157.8036,109,138.9989" style="stroke:#000000;stroke-width:0.75;"/><line style="stroke:#000000;stroke-width:0.75;" x1="190.5" x2="195.5" y1="138.9989" y2="133.9989"/><line style="stroke:#000000;stroke-width:0.75;" x1="109" x2="190.5" y1="138.9989" y2="138.9989"/><line style="stroke:#000000;stroke-width:0.75;" x1="190.5" x2="190.5" y1="138.9989" y2="157.8036"/><text fill="#000000" font-family="sans-serif" font-size="7" font-weight="bold" lengthAdjust="spacing" textLength="66.5" x="116.5" y="151.2655">HDMI Touchscreen</text><!--MD5=[4c50005c0fadedfb0a14f6d1969de37e]
entity Speakers--><rect fill="#FEFECE" filter="url(#fka4pqn75juqe)" height="18.8047" style="stroke:#000000;stroke-width:0.75;" width="40" x="385.75" y="136.4989"/><text fill="#000000" font-family="sans-serif" font-size="7" lengthAdjust="spacing" textLength="30" x="390.75" y="148.7655">Speakers</text><!--MD5=[1b76df3a4bd008a21abb34082ebb9919]
entity Cameras--><rect fill="#FEFECE" filter="url(#fka4pqn75juqe)" height="18.8047" style="stroke:#000000;stroke-width:0.75;" width="38.5" x="404" y="80.7489"/><text fill="#000000" font-family="sans-serif" font-size="7" lengthAdjust="spacing" textLength="28.5" x="409" y="93.0155">Cameras</text><!--MD5=[d92e9b93d5ce4574427d5f042afd2321]
entity SDR--><polygon fill="#FEFECE" filter="url(#fka4pqn75juqe)" points="620.25,406.4989,625.25,401.4989,675.25,401.4989,675.25,420.3036,670.25,425.3036,620.25,425.3036,620.25,406.4989" style="stroke:#000000;stroke-width:0.75;"/><line style="stroke:#000000;stroke-width:0.75;" x1="670.25" x2="675.25" y1="406.4989" y2="401.4989"/><line style="stroke:#000000;stroke-width:0.75;" x1="620.25" x2="670.25" y1="406.4989" y2="406.4989"/><line style="stroke:#000000;stroke-width:0.75;" x1="670.25" x2="670.25" y1="406.4989" y2="425.3036"/><text fill="#000000" font-family="sans-serif" font-size="7" lengthAdjust="spacing" textLength="35" x="627.75" y="418.7655">SDR Radio</text><!--MD5=[6ba27cb6ab6c98fb8258247a8e3f62be]
entity SSB--><polygon fill="#FEFECE" filter="url(#fka4pqn75juqe)" points="314.25,138.9989,319.25,133.9989,368.25,133.9989,368.25,152.8036,363.25,157.8036,314.25,157.8036,314.25,138.9989" style="stroke:#000000;stroke-width:0.75;"/><line style="stroke:#000000;stroke-width:0.75;" x1="363.25" x2="368.25" y1="138.9989" y2="133.9989"/><line style="stroke:#000000;stroke-width:0.75;" x1="314.25" x2="363.25" y1="138.9989" y2="138.9989"/><line style="stroke:#000000;stroke-width:0.75;" x1="363.25" x2="363.25" y1="138.9989" y2="157.8036"/><text fill="#000000" font-family="sans-serif" font-size="7" lengthAdjust="spacing" textLength="34" x="321.75" y="151.2655">SSB Radio</text><!--MD5=[dd29c4e1cef6fbff2e61a9551f8f2bf2]
entity WiFi_Local--><path d="M218.1051,138.1444 C219.926,134.963 222.1247,134.9804 224.5497,137.4563 C226.2592,133.8366 229.1538,133.8096 231.4262,136.8775 C232.7334,133.5362 234.8095,133.2327 237.4663,135.3969 C240.1858,132.1444 243.223,132.8038 244.8508,136.5489 C247.773,134.1081 249.8404,134.8472 251.3896,138.1202 C252.9864,135.1136 255.9909,135.4084 257.5818,138.1265 C262.5405,138.835 264.464,141.7065 261.3788,146.1988 C263.7683,150.0833 263.2137,153.9445 257.7978,154.4356 C256.2475,157.9043 254.3811,158.8329 251.4239,155.8188 C249.7646,159.0413 246.9242,159.886 244.2646,156.9892 C242.8243,159.9179 240.8201,161.0829 238.2252,158.1861 C235.3949,161.5645 232.1923,161.0995 230.6542,156.8959 C227.6803,159.0069 225.7345,158.7422 224.5223,155.0382 C221.991,157.9295 219.2905,158.1997 217.6288,154.1719 C212.8979,152.9828 212.309,150.6215 215.1353,146.8565 C211.5671,143.108 213.3286,139.0484 218.1051,138.1444 " fill="#FEFECE" filter="url(#fka4pqn75juqe)" style="stroke:#000000;stroke-width:0.75;"/><text fill="#000000" font-family="sans-serif" font-size="7" lengthAdjust="spacing" textLength="33" x="220.75" y="148.7655">Local WiFi</text><!--MD5=[82bbb9a7a666b856fa28a649fd3171aa]
entity Iridium--><rect fill="#FEFECE" filter="url(#fka4pqn75juqe)" height="18.8047" style="stroke:#000000;stroke-width:0.75;" width="53" x="460.25" y="80.7489"/><text fill="#000000" font-family="sans-serif" font-size="7" lengthAdjust="spacing" textLength="43" x="465.25" y="93.0155">Iridium Phone</text><!--MD5=[8f0c441f12fb738c5e80b28ccd1b0a87]
entity Other_Sensors--><rect fill="#FEFECE" filter="url(#fka4pqn75juqe)" height="75.6328" style="stroke:#000000;stroke-width:0.75;" width="97" x="178.75" y="280.9989"/><text fill="#000000" font-family="sans-serif" font-size="7" lengthAdjust="spacing" textLength="48" x="183.75" y="293.2655">Other_Sensors</text><line style="stroke:#000000;stroke-width:0.5;" x1="179.25" x2="275.25" y1="294.8036" y2="294.8036"/><text fill="#000000" font-family="sans-serif" font-size="7" lengthAdjust="spacing" textLength="49" x="183.75" y="304.0702">IoT, 1w, i2c, etc</text><text fill="#000000" font-family="sans-serif" font-size="7" lengthAdjust="spacing" textLength="87" x="183.75" y="312.8748">battery/chargers monitoring</text><text fill="#000000" font-family="sans-serif" font-size="7" lengthAdjust="spacing" textLength="33" x="183.75" y="321.6795">fluid levels</text><text fill="#000000" font-family="sans-serif" font-size="7" lengthAdjust="spacing" textLength="80" x="183.75" y="330.4842">env temp/pressure/humid</text><text fill="#000000" font-family="sans-serif" font-size="7" lengthAdjust="spacing" textLength="82" x="183.75" y="339.2889">dangerous gases sensors</text><text fill="#000000" font-family="sans-serif" font-size="7" lengthAdjust="spacing" textLength="72.5" x="183.75" y="348.0936">lightning strike sensors</text><!--MD5=[869fbf9b9ca9ac4bdf61f7068ab1ff9c]
entity Remote_Desktop--><rect fill="#FEFECE" filter="url(#fka4pqn75juqe)" height="18.8047" style="stroke:#000000;stroke-width:0.75;" width="83.5" x="531" y="80.7489"/><text fill="#000000" font-family="sans-serif" font-size="7" lengthAdjust="spacing" textLength="73.5" x="536" y="93.0155">Remote Desktop (VNC)</text><!--MD5=[0313ddc4f8ed0f4991a51edae0b1647c]
entity AC--><polygon fill="#FEFECE" filter="url(#fka4pqn75juqe)" points="156.25,402.2489,161.25,397.2489,197.25,397.2489,197.25,424.8582,192.25,429.8582,156.25,429.8582,156.25,402.2489" style="stroke:#000000;stroke-width:0.75;"/><line style="stroke:#000000;stroke-width:0.75;" x1="192.25" x2="197.25" y1="402.2489" y2="397.2489"/><line style="stroke:#000000;stroke-width:0.75;" x1="156.25" x2="192.25" y1="402.2489" y2="402.2489"/><line style="stroke:#000000;stroke-width:0.75;" x1="192.25" x2="192.25" y1="402.2489" y2="429.8582"/><text fill="#000000" font-family="sans-serif" font-size="7" lengthAdjust="spacing" textLength="11.5" x="163.75" y="414.5155">A/C</text><text fill="#000000" font-family="sans-serif" font-size="7" lengthAdjust="spacing" textLength="21" x="163.75" y="423.3202">Heater</text><!--MD5=[cec077422889c5d3cb551e1217c37df7]
entity Pumps--><polygon fill="#FEFECE" filter="url(#fka4pqn75juqe)" points="215,391.4989,220,386.4989,274.5,386.4989,274.5,435.7176,269.5,440.7176,215,440.7176,215,391.4989" style="stroke:#000000;stroke-width:0.75;"/><line style="stroke:#000000;stroke-width:0.75;" x1="269.5" x2="274.5" y1="391.4989" y2="386.4989"/><line style="stroke:#000000;stroke-width:0.75;" x1="215" x2="269.5" y1="391.4989" y2="391.4989"/><line style="stroke:#000000;stroke-width:0.75;" x1="269.5" x2="269.5" y1="391.4989" y2="440.7176"/><text fill="#000000" font-family="sans-serif" font-size="7" lengthAdjust="spacing" textLength="21.5" x="222.5" y="403.7655">Pumps</text><line style="stroke:#000000;stroke-width:0.5;" x1="215" x2="269.5" y1="405.3036" y2="405.3036"/><line style="stroke:#000000;stroke-width:0.5;" x1="269.5" x2="274.5" y1="405.3036" y2="400.3036"/><text fill="#000000" font-family="sans-serif" font-size="7" lengthAdjust="spacing" textLength="15.5" x="222.5" y="414.5702">Bilge</text><text fill="#000000" font-family="sans-serif" font-size="7" lengthAdjust="spacing" textLength="39.5" x="222.5" y="423.3748">Fresh Water</text><text fill="#000000" font-family="sans-serif" font-size="7" lengthAdjust="spacing" textLength="38" x="222.5" y="432.1795">Black Water</text><!--MD5=[c74dee767baeeec0e713c54a8a4634dc]
entity Fridge--><polygon fill="#FEFECE" filter="url(#fka4pqn75juqe)" points="8,406.4989,13,401.4989,48.5,401.4989,48.5,420.3036,43.5,425.3036,8,425.3036,8,406.4989" style="stroke:#000000;stroke-width:0.75;"/><line style="stroke:#000000;stroke-width:0.75;" x1="43.5" x2="48.5" y1="406.4989" y2="401.4989"/><line style="stroke:#000000;stroke-width:0.75;" x1="8" x2="43.5" y1="406.4989" y2="406.4989"/><line style="stroke:#000000;stroke-width:0.75;" x1="43.5" x2="43.5" y1="406.4989" y2="425.3036"/><text fill="#000000" font-family="sans-serif" font-size="7" lengthAdjust="spacing" textLength="20.5" x="15.5" y="418.7655">Fridge</text><!--MD5=[0b2190a355246a80d89d74c5c2c53ceb]
entity Lights_Fans--><rect fill="#FEFECE" filter="url(#fka4pqn75juqe)" height="36.4141" style="stroke:#000000;stroke-width:0.75;" width="72.5" x="66" y="395.2489"/><text fill="#000000" font-family="sans-serif" font-size="7" lengthAdjust="spacing" textLength="21" x="71" y="407.5155">Lights,</text><text fill="#000000" font-family="sans-serif" font-size="7" lengthAdjust="spacing" textLength="16" x="71" y="416.3202">Fans</text><text fill="#000000" font-family="sans-serif" font-size="7" lengthAdjust="spacing" textLength="62.5" x="71" y="425.1248">Bilge/Engine Blower</text><!--MD5=[593e445c9278762cb4ef7b840df82fac]
entity Keyboard_Mouse--><rect fill="#FEFECE" filter="url(#fka4pqn75juqe)" height="27.6094" style="stroke:#000000;stroke-width:0.75;" width="40.5" x="274.5" y="76.4989"/><text fill="#000000" font-family="sans-serif" font-size="7" lengthAdjust="spacing" textLength="30.5" x="279.5" y="88.7655">Keyboard</text><text fill="#000000" font-family="sans-serif" font-size="7" lengthAdjust="spacing" textLength="21" x="279.5" y="97.5702">Mouse</text><!--MD5=[6068ed0baf2edbbb46a7f906664363da]
entity Weather--><rect fill="#FEFECE" filter="url(#fka4pqn75juqe)" height="36.4141" style="stroke:#000000;stroke-width:0.75;" width="48.5" x="693" y="395.2489"/><text fill="#000000" font-family="sans-serif" font-size="7" lengthAdjust="spacing" textLength="23.5" x="698" y="407.5155">NavTex</text><text fill="#000000" font-family="sans-serif" font-size="7" lengthAdjust="spacing" textLength="38.5" x="698" y="416.3202">WeatherFax</text><text fill="#000000" font-family="sans-serif" font-size="7" lengthAdjust="spacing" textLength="33.5" x="698" y="425.1248">Barograph</text><!--MD5=[0df37b53dbcc900899e095c990e30b8f]
entity SiriusXM--><rect fill="#FEFECE" filter="url(#fka4pqn75juqe)" height="18.8047" style="stroke:#000000;stroke-width:0.75;" width="60.5" x="99.5" y="209.9989"/><text fill="#000000" font-family="sans-serif" font-size="7" lengthAdjust="spacing" textLength="50.5" x="104.5" y="222.2655">SiriusXM Marine</text><!--MD5=[d59b03f458f75ee04d94168ba7ec459b]
entity SmartPhone--><rect fill="#FEFECE" filter="url(#fka4pqn75juqe)" height="27.6094" style="stroke:#000000;stroke-width:0.75;" width="52.5" x="204.5" y="76.4989"/><text fill="#000000" font-family="sans-serif" font-size="7" lengthAdjust="spacing" textLength="42.5" x="209.5" y="88.7655">SmartPhones</text><text fill="#000000" font-family="sans-serif" font-size="7" lengthAdjust="spacing" textLength="23.5" x="209.5" y="97.5702">Tablets</text><!--MD5=[13e88d8e4422c8d855b54f0d2bc171be]
entity NAS--><path d="M550,197.7489 C550,192.7489 594.75,192.7489 594.75,192.7489 C594.75,192.7489 639.5,192.7489 639.5,197.7489 L639.5,241.4676 C639.5,246.4676 594.75,246.4676 594.75,246.4676 C594.75,246.4676 550,246.4676 550,241.4676 L550,197.7489 " fill="#FEFECE" filter="url(#fka4pqn75juqe)" style="stroke:#000000;stroke-width:0.75;"/><path d="M550,197.7489 C550,202.7489 594.75,202.7489 594.75,202.7489 C594.75,202.7489 639.5,202.7489 639.5,197.7489 " fill="none" style="stroke:#000000;stroke-width:0.75;"/><text fill="#000000" font-family="sans-serif" font-size="7" lengthAdjust="spacing" textLength="13.5" x="555" y="212.0155">NAS</text><path d="M550,211.0536 C550,216.0536 594.75,216.0536 594.75,216.0536 C594.75,216.0536 639.5,216.0536 639.5,211.0536 " fill="none" style="stroke:#000000;stroke-width:0.5;"/><text fill="#000000" font-family="sans-serif" font-size="7" lengthAdjust="spacing" textLength="49.5" x="555" y="222.8202">Audio/Video Lib</text><text fill="#000000" font-family="sans-serif" font-size="7" lengthAdjust="spacing" textLength="79.5" x="555" y="231.6248">Charts, Backups, Tracks,</text><text fill="#000000" font-family="sans-serif" font-size="7" lengthAdjust="spacing" textLength="68" x="555" y="240.4295">Time Series Data, etc</text><!--MD5=[ee9653e0a8f11fcc17536c9839054b2a]
entity Winches--><polygon fill="#FEFECE" filter="url(#fka4pqn75juqe)" points="292.25,397.7489,297.25,392.7489,365.25,392.7489,365.25,429.1629,360.25,434.1629,292.25,434.1629,292.25,397.7489" style="stroke:#000000;stroke-width:0.75;"/><line style="stroke:#000000;stroke-width:0.75;" x1="360.25" x2="365.25" y1="397.7489" y2="392.7489"/><line style="stroke:#000000;stroke-width:0.75;" x1="292.25" x2="360.25" y1="397.7489" y2="397.7489"/><line style="stroke:#000000;stroke-width:0.75;" x1="360.25" x2="360.25" y1="397.7489" y2="434.1629"/><text fill="#000000" font-family="sans-serif" font-size="7" lengthAdjust="spacing" textLength="53" x="299.75" y="410.0155">Anchor Windlass</text><text fill="#000000" font-family="sans-serif" font-size="7" lengthAdjust="spacing" textLength="48.5" x="299.75" y="418.8202">Power Winches</text><text fill="#000000" font-family="sans-serif" font-size="7" lengthAdjust="spacing" textLength="42" x="299.75" y="427.6248">Bow Thruster</text><!--MD5=[48e79d9335dd0cd53682a5a492aea5d9]
entity Cloud_Internet--><path d="M591.58,9.9694 C592.9062,6.6666 594.992,6.355 597.5896,8.5894 C599.1624,4.5733 601.2735,4.239 604.1872,7.3477 C605.9123,4.027 609.1256,3.308 611.2533,6.9384 C613.2133,3 616.3523,3.1123 618.7638,6.4738 C620.5897,3.8854 623.5117,3.8902 624.9184,6.932 C627.3593,4.6856 630.2151,4.7098 631.4568,8.28 C633.4801,5.3536 636.2757,5.2377 638.3514,8.2188 C641.3827,4.6441 643.6421,5.3747 645.6177,9.2487 C649.1579,11.0545 649.0241,13.4107 646.0222,15.6312 C648.9866,16.606 648.8945,18.2565 647.2671,20.424 C650.3358,21.9294 651.3492,24.1654 648.3882,26.7409 C650.3052,28.8029 649.8918,30.7402 647.0685,31.4831 C649.0564,33.5487 649.1345,35.4771 646.3725,36.9365 C649.0194,39.1507 648.7629,40.9741 645.7497,42.5616 C643.6668,45.7847 641.6452,46.7305 638.7905,43.3784 C636.8738,46.4724 634.082,46.8059 632.2358,43.3083 C630.4448,47.3722 627.0207,46.7683 624.9015,43.6432 C623.4517,46.7392 620.0592,47.6047 617.8354,44.5293 C615.3209,47.5212 613.3324,46.9024 611.7183,43.6476 C609.3695,47.3135 607.2582,47.0014 604.8368,43.7196 C602.7416,47.0021 600.2796,46.4901 598.1352,43.7746 C595.0609,46.9573 592.3971,47.0019 590.5143,42.5804 C588.0766,41.0708 587.8676,38.7853 590.4065,37.1764 C587.4984,35.6156 587.45,33.6868 590.1288,31.8355 C587.2101,30.153 587.4913,27.9986 589.8868,26.0922 C587.6512,24.1587 587.4308,22.2713 590.2213,20.6465 C587.6002,18.5762 588.0403,16.4228 591.1309,15.3296 C588.4835,13.2572 588.9878,11.6028 591.58,9.9694 " fill="#FEFECE" filter="url(#fka4pqn75juqe)" style="stroke:#000000;stroke-width:0.75;"/><text fill="#000000" font-family="sans-serif" font-size="7" font-weight="bold" lengthAdjust="spacing" textLength="28" x="594" y="19.7655">Internet</text><text fill="#000000" font-family="sans-serif" font-size="7" lengthAdjust="spacing" textLength="45.5" x="594" y="28.5702">Cloud Storage</text><text fill="#000000" font-family="sans-serif" font-size="7" lengthAdjust="spacing" textLength="47.5" x="594" y="37.3748">Cloud Services</text><!--MD5=[f38da3986c5ca1dec060c2524b9ccddc]
entity Lora--><path d="M387.6625,397.556 C388.6817,394.8745 390.2774,394.5367 392.4297,396.3559 C393.5907,393.7177 396.2293,393.293 398.2131,395.3401 C399.717,393.019 402.0471,393.4172 403.3185,395.6034 C404.9528,391.9111 407.1015,392.2664 409.7408,394.5172 C410.8116,391.5886 412.5849,391.3063 414.7084,393.4954 C417.2142,391.3393 418.9132,392.0431 420.2897,394.7829 C422.4526,392.3456 424.0182,393.1644 425.4472,395.5653 C426.9218,393.3101 429.5437,393.1878 430.8549,395.7488 C433.0757,393.201 435.1552,393.8741 436.2988,396.8169 C438.3798,393.646 440.8037,393.8635 442.7242,396.9809 C445.7783,398.3119 445.7235,400.9543 443.2936,402.8201 C446.1067,404.2727 446.58,406.2697 443.921,408.3438 C447.5084,409.2868 447.5789,411.752 445.5009,414.2187 C448.1431,416.5117 446.9772,419.0807 444.1468,420.1175 C446.4412,422.0709 446.2265,424.0715 443.4078,425.295 C445.8449,427.6021 445.505,429.8399 442.2583,431.0022 C440.6089,433.0943 438.7888,433.1709 437.1225,431.0227 C435.3334,433.4758 433.2492,433.7305 431.7058,430.7765 C430.1789,434.143 428.2818,434.3486 425.8515,431.6483 C424.3081,433.8603 422.3957,434.2292 420.7881,431.7171 C419.0807,434.166 416.9995,434.2614 415.0765,431.9772 C413.0856,433.9758 411.1503,433.6508 409.7572,431.2537 C408.0056,433.5495 405.412,434.0434 403.9347,430.9569 C402.2595,433.2919 400.143,433.8682 398.5239,430.8996 C396.829,433.3114 395.0841,433.5567 392.9699,431.4105 C390.6724,433.4279 388.5834,433.3129 387.3853,430.2112 C384.78,429.1475 383.8821,426.8835 386.4711,424.9221 C383.4917,423.2425 383.4154,421.3083 386.3318,419.4779 C383.7098,417.5651 383.8744,415.9916 386.4784,414.2247 C383.8126,412.0409 384.2621,410.0115 387.0749,408.3875 C384.6324,406.7581 384.8394,404.5066 387.2238,403.0109 C385.0656,401.0578 384.8499,399.1093 387.6625,397.556 " fill="#FEFECE" filter="url(#fka4pqn75juqe)" style="stroke:#000000;stroke-width:0.75;"/><text fill="#000000" font-family="sans-serif" font-size="7" lengthAdjust="spacing" textLength="30" x="390.25" y="407.5155">LoraWAN</text><text fill="#000000" font-family="sans-serif" font-size="7" lengthAdjust="spacing" textLength="47" x="390.25" y="416.3202">Asset Tracking</text><text fill="#000000" font-family="sans-serif" font-size="7" lengthAdjust="spacing" textLength="48" x="390.25" y="425.1248">Dinghy Locator</text><!--MD5=[3ff5d2fb9a8117c537632aae671cabcb]
entity Esp32--><rect fill="#FEFECE" filter="url(#fka4pqn75juqe)" height="27.6094" style="stroke:#000000;stroke-width:0.75;" width="38" x="326.75" y="304.9989"/><text fill="#000000" font-family="sans-serif" font-size="7" lengthAdjust="spacing" textLength="28" x="331.75" y="317.2655">m5stack,</text><text fill="#000000" font-family="sans-serif" font-size="7" lengthAdjust="spacing" textLength="24" x="331.75" y="326.0702">arduino</text><!--MD5=[5d3c09c67791d820f6e58e35ac1308e3]
link RPI to GPS--><path codeLine="189" d="M382.77,251.0839 C388.605,271.2139 395.805,296.0289 399.605,309.1389 " fill="none" id="RPI-GPS" style="stroke:#A80036;stroke-width:0.5;"/><!--MD5=[c6d492c1e608e21002a1e79a049df954]
link IMU to RPI--><path codeLine="190" d="M319.075,219.4989 C324.845,219.4989 330.61,219.4989 336.375,219.4989 " fill="none" id="IMU-RPI" style="stroke:#A80036;stroke-width:0.5;"/><!--MD5=[a860cb1a85174d4976dae9c4f32e49f8]
link RPI to NMEA_2000--><path codeLine="191" d="M336.405,246.9039 C333.545,248.4189 330.645,249.8089 327.75,250.9989 C261.65,278.1939 233.52,248.7089 169.75,280.9989 C163.145,284.3439 156.855,289.1089 151.295,294.1139 " fill="none" id="RPI-NMEA_2000" style="stroke:#A80036;stroke-width:0.5;"/><!--MD5=[f75ecebad45d24d2cfeff8c08b96d55d]
link RPI to NMEA_Mux--><path codeLine="192" d="M411.08,247.8889 C433.635,264.7389 461.71,285.7189 481.31,300.3639 " fill="none" id="RPI-NMEA_Mux" style="stroke:#A80036;stroke-width:0.5;"/><!--MD5=[3577f1ad49970e59a1e1697b6041c28e]
link Eth_Hub to RPI--><path codeLine="193" d="M604.925,155.0289 C556.635,168.3939 463.295,194.2189 411.205,208.6339 " fill="none" id="Eth_Hub-RPI" style="stroke:#A80036;stroke-width:0.5;"/><!--MD5=[1d20bbed48bf86b90ee5f13bc892e6f4]
link RPI to USB_Hub--><path codeLine="194" d="M411.03,231.4889 C448.395,243.2039 507.44,262.2789 557.75,280.9989 C580.335,289.4039 605.66,299.9939 623.68,307.7339 " fill="none" id="RPI-USB_Hub" style="stroke:#A80036;stroke-width:0.5;"/><!--MD5=[920310a45a910abea0e78fc3f928b9c7]
link Touchscreen to RPI--><path codeLine="195" d="M195.635,156.3489 C245.595,167.7539 321.63,185.3189 327.75,187.9989 C330.66,189.2739 333.585,190.7339 336.475,192.3139 " fill="none" id="Touchscreen-RPI" style="stroke:#A80036;stroke-width:0.5;"/><!--MD5=[e542bf0be54ca915b2a2c465769198ce]
link Cameras to RPI--><path codeLine="196" d="M427.845,99.8039 C433.91,113.0539 442.91,138.2989 434.75,157.9989 C429.62,170.3839 420.62,181.5639 411.085,190.8689 " fill="none" id="Cameras-RPI" style="stroke:#A80036;stroke-width:0.5;"/><!--MD5=[738bdf1011746a1c073c591ef970d801]
reverse link Speakers to RPI--><path codeLine="197" d="M400.7,157.9389 C397.13,166.0339 392.155,177.2939 387.455,187.9489 " fill="none" id="Speakers-backto-RPI" style="stroke:#A80036;stroke-width:0.5;"/><polygon fill="#A80036" points="401.76,155.5339,398.1191,158.8496,400.7546,157.8228,401.7814,160.4583,401.76,155.5339" style="stroke:#A80036;stroke-width:0.5;"/><!--MD5=[9d6d2f6c2f4d2fc3bb3ff0dee1317c54]
link SSB to RPI--><path codeLine="198" d="M346.47,158.1489 C350.095,166.2339 355.105,177.4089 359.845,187.9789 " fill="none" id="SSB-RPI" style="stroke:#A80036;stroke-width:0.5;"/><!--MD5=[ba43404d2398351bd02a197b89c6dc04]
link Iridium to RPI--><path codeLine="199" d="M482.995,99.9189 C477.13,113.5389 464.835,139.4939 449.25,157.9989 C438.23,171.0789 424.08,183.3789 411.015,193.4589 " fill="none" id="Iridium-RPI" style="stroke:#A80036;stroke-width:0.5;"/><!--MD5=[72d1981d7f6e9ae87e7ce2d696ef1c70]
link RPI to Other_Sensors--><path codeLine="200" d="M336.35,245.2189 C333.44,247.1739 330.55,249.1189 327.75,250.9989 C310.845,262.3539 292.32,274.7539 275.835,285.7839 " fill="none" id="RPI-Other_Sensors" style="stroke:#A80036;stroke-width:0.5;"/><!--MD5=[e6b62623cb5cffca99b55a6fc459f471]
link RPI to Esp32--><path codeLine="201" d="M364.89,251.0839 C359.715,269.2439 353.45,291.2239 349.535,304.9739 " fill="none" id="RPI-Esp32" style="stroke:#A80036;stroke-width:0.5;"/><!--MD5=[abd7622213c1ceda57fd7e6c8ce2488a]
link WiFi_Local to RPI--><path codeLine="202" d="M261.405,156.3039 C279.945,164.1289 305.97,175.7739 327.75,187.9989 C330.605,189.6039 333.515,191.3239 336.41,193.1089 " fill="none" id="WiFi_Local-RPI" style="stroke:#A80036;stroke-width:0.5;"/><!--MD5=[9befc12befc76c6c24a0e27f7270b253]
link Keyboard_Mouse to RPI--><path codeLine="203" d="M294.385,104.0989 C294.55,118.3039 296.46,141.0339 305.75,157.9989 C313.175,171.5639 324.81,183.6439 336.365,193.4039 " fill="none" id="Keyboard_Mouse-RPI" style="stroke:#A80036;stroke-width:0.5;"/><!--MD5=[a15dace8b9997a4e161f7e6bb21c3756]
link SmartPhone to WiFi_Local--><path codeLine="205" d="M232.325,104.0039 C233.405,113.1189 234.83,125.1089 235.87,133.8539 " fill="none" id="SmartPhone-WiFi_Local" style="stroke:#A80036;stroke-width:0.5;"/><!--MD5=[a6a6198443ed7f46598e3abcaaf7a198]
link SiriusXM to NMEA_2000--><path codeLine="207" d="M129.75,229.0639 C129.75,243.7439 129.75,273.1889 129.75,294.2289 " fill="none" id="SiriusXM-NMEA_2000" style="stroke:#A80036;stroke-width:0.5;"/><!--MD5=[f06790075d9412e28e90e4ac15acc0e3]
link Eth_Hub to Router--><path codeLine="209" d="M666.61,145.9989 C672.34,145.9989 678.065,145.9989 683.795,145.9989 " fill="none" id="Eth_Hub-Router" style="stroke:#A80036;stroke-width:0.5;"/><!--MD5=[4e13fc5b7ed4d5c8bb5a843a2b474eca]
link Eth_Hub to Radar--><path codeLine="210" d="M642.335,158.1489 C649.99,171.6789 662.535,193.8639 670.18,207.3789 " fill="none" id="Eth_Hub-Radar" style="stroke:#A80036;stroke-width:0.5;"/><!--MD5=[0ff0ce0d78f63490cbe2abe10619b3e8]
link Eth_Hub to NAS--><path codeLine="211" d="M629.165,158.1489 C623.91,167.4339 616.355,180.7989 609.655,192.6389 " fill="none" id="Eth_Hub-NAS" style="stroke:#A80036;stroke-width:0.5;"/><!--MD5=[fdba92f7cd499ccd998d05999f71f6ae]
link Dish_Router to Eth_Hub--><path codeLine="212" d="M656.215,104.0039 C651.72,113.1189 645.805,125.1089 641.495,133.8539 " fill="none" id="Dish_Router-Eth_Hub" style="stroke:#A80036;stroke-width:0.5;"/><!--MD5=[fbe332a3304dc4c8c3dfaece74a779f6]
link USB_Hub to SDR--><path codeLine="214" d="M647.75,330.9339 C647.75,348.9939 647.75,383.4889 647.75,401.4639 " fill="none" id="USB_Hub-SDR" style="stroke:#A80036;stroke-width:0.5;"/><!--MD5=[4ba09ff32a53e36c5fb85e6eec1de587]
link USB_Hub to Weather--><path codeLine="215" d="M656.41,330.9339 C668.385,347.0839 690.09,376.3639 704.08,395.2289 " fill="none" id="USB_Hub-Weather" style="stroke:#A80036;stroke-width:0.5;"/><!--MD5=[2a0b371ec03d2c21e471fa956f48a495]
link Other_Sensors to AC--><path codeLine="217" d="M207.145,356.5689 C199.555,370.6639 191.315,385.9589 185.33,397.0689 " fill="none" id="Other_Sensors-AC" style="stroke:#A80036;stroke-width:0.5;"/><!--MD5=[cbb222f50bcb791e9720287055fe13dd]
link Other_Sensors to Fridge--><path codeLine="218" d="M178.745,352.1289 C175.75,353.6989 172.74,355.1739 169.75,356.4989 C122.45,377.4939 102.65,361.6689 57.25,386.4989 C50.25,390.3289 43.59,396.1939 38.425,401.4339 " fill="none" id="Other_Sensors-Fridge" style="stroke:#A80036;stroke-width:0.5;"/><!--MD5=[bde99af21072dc4abd6c3e9790e945d2]
link Other_Sensors to Lights_Fans--><path codeLine="219" d="M178.745,355.6289 C160.625,369.2189 140.855,384.0439 125.95,395.2239 " fill="none" id="Other_Sensors-Lights_Fans" style="stroke:#A80036;stroke-width:0.5;"/><!--MD5=[9816221c84b92aca30c282d28f000dea]
link Other_Sensors to Pumps--><path codeLine="220" d="M234.215,356.5689 C236.085,366.5789 238.065,377.1939 239.8,386.4839 " fill="none" id="Other_Sensors-Pumps" style="stroke:#A80036;stroke-width:0.5;"/><!--MD5=[f4051e061112c5a67383a685ff83d16a]
link NMEA_Mux to NMEA_0183--><path codeLine="222" d="M505.25,337.1039 C505.25,351.7639 505.25,372.6739 505.25,388.8339 " fill="none" id="NMEA_Mux-NMEA_0183" style="stroke:#A80036;stroke-width:0.5;"/><!--MD5=[993848724ee1e0bda2efd2c10d093eb0]
link NMEA_Mux to AP--><path codeLine="223" d="M520.2,337.1039 C536.835,356.9739 563.08,388.3089 576.015,403.7589 " fill="none" id="NMEA_Mux-AP" style="stroke:#A80036;stroke-width:0.5;"/><!--MD5=[4c412d33c9dd3373fedf634d2cfe895b]
link Esp32 to Lora--><path codeLine="225" d="M355.565,332.6789 C367.03,348.3739 386.125,374.5089 399.41,392.6889 " fill="none" id="Esp32-Lora" style="stroke:#A80036;stroke-width:0.5;"/><!--MD5=[3a78a92175d5b8f917843889fc4ac663]
link Esp32 to Winches--><path codeLine="226" d="M343.315,332.6789 C340.47,348.3739 335.73,374.5089 332.435,392.6889 " fill="none" id="Esp32-Winches" style="stroke:#A80036;stroke-width:0.5;"/><!--MD5=[090045518a7210d3fe050bd4b1b61143]
link Cloud_Internet to Dish_Router--><path codeLine="228" d="M632.11,46.5139 C639.055,56.3139 647.195,67.8039 653.34,76.4739 " fill="none" id="Cloud_Internet-Dish_Router" style="stroke:#A80036;stroke-width:0.5;"/><!--MD5=[0417bd4aebf7681efb342db5775863ca]
link Cloud_Internet to Router--><path codeLine="229" d="M649.11,37.8039 C667.165,45.9839 688.865,58.6939 702.25,76.4989 C715.16,93.6689 718.84,119.2589 719.87,133.9689 " fill="none" id="Cloud_Internet-Router" style="stroke:#A80036;stroke-width:0.5;"/><!--MD5=[6d4697dd1a4fa0e14865453f969898e5]
link Cloud_Internet to Iridium--><path codeLine="230" d="M586.37,41.4589 C561.09,53.7139 526.4,70.5289 505.335,80.7389 " fill="none" id="Cloud_Internet-Iridium" style="stroke:#A80036;stroke-width:0.5;"/><!--MD5=[f7b1ed679f3dcc8891234d56821c2a8b]
link Cloud_Internet to Remote_Desktop--><path codeLine="231" d="M603.39,46.5139 C595.26,57.9839 585.495,71.7639 579.21,80.6339 " fill="none" id="Cloud_Internet-Remote_Desktop" style="stroke:#A80036;stroke-width:0.5;"/><!--MD5=[f7c22a6020875df2ba44dffafefaebb5]
link Skipper to Touchscreen--><path codeLine="233" d="M347.745,27.0989 C318.755,29.6989 243.77,39.7789 195.75,76.4989 C175.95,91.6389 162.815,118.5739 156.54,133.9289 " fill="none" id="Skipper-Touchscreen" style="stroke:#A80036;stroke-width:0.5;"/><!--MD5=[180a6a48d329b5088bf365124668f177]
link Skipper to Speakers--><path codeLine="234" d="M367.605,46.6139 C377.74,72.8889 394.94,117.4789 402.275,136.4839 " fill="none" id="Skipper-Speakers" style="stroke:#A80036;stroke-width:0.5;"/><!--MD5=[b5f99795dccb66293530d697261f575d]
link Skipper to Cameras--><path codeLine="235" d="M371.845,38.3439 C384.15,50.6489 402.95,69.4489 414.08,80.5789 " fill="none" id="Skipper-Cameras" style="stroke:#A80036;stroke-width:0.5;"/><!--MD5=[4d7243369b38bcf5d3d8f8df86a5cab3]
link Skipper to Iridium--><path codeLine="236" d="M371.925,32.3389 C394.4,43.5739 442.495,67.6239 468.745,80.7489 " fill="none" id="Skipper-Iridium" style="stroke:#A80036;stroke-width:0.5;"/><!--MD5=[c0261e63bc2c3c7d09c0762b33b29a4a]
link Skipper to SSB--><path codeLine="237" d="M356.59,46.6139 C352.69,71.7589 346.185,113.6739 343.05,133.8889 " fill="none" id="Skipper-SSB" style="stroke:#A80036;stroke-width:0.5;"/><!--MD5=[7055ac5873383501a6665c2abfcc17ee]
link Skipper to SmartPhone--><path codeLine="238" d="M347.615,32.2239 C327.01,42.3639 284.74,63.1739 257.085,76.7839 " fill="none" id="Skipper-SmartPhone" style="stroke:#A80036;stroke-width:0.5;"/><!--MD5=[9e619f9f7e27f8b7daf8036513ac83ac]
link Skipper to Keyboard_Mouse--><path codeLine="239" d="M347.675,38.0439 C336.515,48.9489 319.95,65.1289 308.33,76.4789 " fill="none" id="Skipper-Keyboard_Mouse" style="stroke:#A80036;stroke-width:0.5;"/><!--MD5=[791020c57217bb146034c35bb978d496]
link Skipper to Remote_Desktop--><path codeLine="240" d="M371.81,29.8439 C404.375,39.5539 494.81,66.5139 542.47,80.7239 " fill="none" id="Skipper-Remote_Desktop" style="stroke:#A80036;stroke-width:0.5;"/><!--MD5=[5f1acef2c628ebbbdc5deb73e7ebf1c6]
@startuml

actor Skipper [
 Skipper
]

node RPI [
 <b>Rpi4, BBN OS
 - - - -
 Local WiFi
 CanBus Interface
 Sound Card
 SSD
]

rectangle GPS [
 GPS USB
]

rectangle IMU [
 IMU
 - - - -
 compass, gyro, accel
]

rectangle NMEA_2000 [
 <b>NMEA2000 Bus
 - - - -
 engine sensors,
 fishfinder, sonar,
 etc
]

node NMEA_Mux [
 NMEA Multiplexer
 - - - -
 bidirectional Seatalk1
]

rectangle NMEA_0183 [
 <b>NMEA 0183 Devices
 - - - -
 AIS transducer/receiver
 GPS, VHF, compass
 Wind, Depth, Speed
]

rectangle AP [
 Autopilot
]

node Eth_Hub [
 Ethernet Hub
]

node USB_Hub [
 USB Hub
]

node Router [
 LTE/WiFi Router
]

rectangle Dish_Router [
 StarLink Router,
 Dish
]

node Radar [
 Radar
]

node Touchscreen [
 <b>HDMI Touchscreen
]

rectangle Speakers [
 Speakers
]

rectangle Cameras [
 Cameras
]

node SDR [
 SDR Radio
]

node SSB [
 SSB Radio
]

cloud WiFi_Local [
 Local WiFi
]

rectangle Iridium [
 Iridium Phone
]

rectangle Other_Sensors [
 Other_Sensors
 - - - -
 IoT, 1w, i2c, etc
 battery/chargers monitoring
 fluid levels
 env temp/pressure/humid
 dangerous gases sensors
 lightning strike sensors
]

rectangle Remote_Desktop [
 Remote Desktop (VNC)
]

node AC [
 A/C
 Heater
]

node Pumps [
 Pumps
 - - - -
 Bilge
 Fresh Water
 Black Water
]

node Fridge [
 Fridge
]

rectangle Lights_Fans [
 Lights,
 Fans
 Bilge/Engine Blower
]

rectangle Keyboard_Mouse [
 Keyboard
 Mouse
]

rectangle Weather [
 NavTex
 WeatherFax
 Barograph
]

rectangle SiriusXM [
 SiriusXM Marine
]

rectangle SmartPhone [
 SmartPhones
 Tablets
]

database NAS [
 NAS
 - - - -
 Audio/Video Lib
 Charts, Backups, Tracks,
 Time Series Data, etc
]

node Winches [
 Anchor Windlass
 Power Winches
 Bow Thruster
]

cloud Cloud_Internet [
 <b>Internet
 Cloud Storage
 Cloud Services
]

cloud Lora [
 LoraWAN
 Asset Tracking
 Dinghy Locator
]

rectangle Esp32 [
 m5stack,
 arduino
]

RPI - - GPS
RPI -l- IMU
RPI - - NMEA_2000
RPI - - NMEA_Mux
RPI -u- Eth_Hub
RPI - - USB_Hub
RPI -u- Touchscreen
RPI -u- Cameras
RPI -u-> Speakers
RPI -u- SSB
RPI -u- Iridium
RPI - - Other_Sensors
RPI -d- Esp32
RPI -u- WiFi_Local
RPI -u- Keyboard_Mouse

SmartPhone - - WiFi_Local

SiriusXM - - NMEA_2000

Eth_Hub -r- Router
Eth_Hub - - Radar
Eth_Hub - - NAS
Eth_Hub -u- Dish_Router

USB_Hub - - SDR
USB_Hub - - Weather

Other_Sensors - - AC
Other_Sensors - - Fridge
Other_Sensors - - Lights_Fans
Other_Sensors - - Pumps

NMEA_Mux - - NMEA_0183
NMEA_Mux - - AP

Esp32 - - Lora
Esp32 - - Winches

Cloud_Internet - - Dish_Router
Cloud_Internet - - Router
Cloud_Internet - - Iridium
Cloud_Internet - - Remote_Desktop

Skipper - - Touchscreen
Skipper - - Speakers
Skipper - - Cameras
Skipper - - Iridium
Skipper - - SSB
Skipper - - SmartPhone
Skipper - - Keyboard_Mouse
Skipper - - Remote_Desktop

@enduml

PlantUML version 1.2021.00(Sun Jan 10 05:25:05 EST 2021)
(GPL source distribution)
Java Runtime: OpenJDK Runtime Environment
JVM: OpenJDK 64-Bit Server VM
Default Encoding: Cp1252
Language: en
Country: US
--></g></svg>