<?xml version="1.0" encoding="UTF-8" standalone="no"?><svg xmlns="http://www.w3.org/2000/svg" xmlns:xlink="http://www.w3.org/1999/xlink" contentScriptType="application/ecmascript" contentStyleType="text/css" height="708.75px" preserveAspectRatio="none" style="width:1094px;height:708px;" version="1.1" viewBox="0 0 1094 708" width="1094.25px" zoomAndPan="magnify"><defs><filter height="300%" id="fq71dlesmpf1j" width="300%" x="-1" y="-1"><feGaussianBlur result="blurOut" stdDeviation="1.5"/><feColorMatrix in="blurOut" result="blurOut2" type="matrix" values="0 0 0 0 0 0 0 0 0 0 0 0 0 0 0 0 0 0 .4 0"/><feOffset dx="3.0" dy="3.0" in="blurOut2" result="blurOut3"/><feBlend in="SourceGraphic" in2="blurOut3" mode="normal"/></filter></defs><g><!--MD5=[f50827fad462c3f51a79aa3f1564e3ff]
entity Skipper--><ellipse cx="355.5" cy="14.6233" fill="#FEFECE" filter="url(#fq71dlesmpf1j)" rx="6" ry="6" style="stroke:#A80036;stroke-width:1.125;"/><path d="M355.5,20.6233 L355.5,40.8733 M345.75,26.6233 L365.25,26.6233 M355.5,40.8733 L345.75,52.1233 M355.5,40.8733 L365.25,52.1233 " fill="none" filter="url(#fq71dlesmpf1j)" style="stroke:#A80036;stroke-width:1.125;"/><text fill="#000000" font-family="sans-serif" font-size="10.5" lengthAdjust="spacing" textLength="36" x="337.5" y="67.1482">Skipper</text><!--MD5=[56bb6c3bc4df8cdefb957cc5b3ef3a7e]
entity RPI--><polygon fill="#FEFECE" filter="url(#fq71dlesmpf1j)" points="347.625,302.2483,355.125,294.7483,459.375,294.7483,459.375,381.7835,451.875,389.2835,347.625,389.2835,347.625,302.2483" style="stroke:#000000;stroke-width:1.125;"/><line style="stroke:#000000;stroke-width:1.125;" x1="451.875" x2="459.375" y1="302.2483" y2="294.7483"/><line style="stroke:#000000;stroke-width:1.125;" x1="347.625" x2="451.875" y1="302.2483" y2="302.2483"/><line style="stroke:#000000;stroke-width:1.125;" x1="451.875" x2="451.875" y1="302.2483" y2="389.2835"/><text fill="#000000" font-family="sans-serif" font-size="10.5" font-weight="bold" lengthAdjust="spacing" textLength="69.75" x="358.875" y="320.6482">Rpi4, BBN OS</text><line style="stroke:#000000;stroke-width:0.75;" x1="347.625" x2="451.875" y1="322.9553" y2="322.9553"/><line style="stroke:#000000;stroke-width:0.75;" x1="451.875" x2="459.375" y1="322.9553" y2="315.4553"/><text fill="#000000" font-family="sans-serif" font-size="10.5" lengthAdjust="spacing" textLength="49.5" x="358.875" y="336.8552">Local WiFi</text><text fill="#000000" font-family="sans-serif" font-size="10.5" lengthAdjust="spacing" textLength="81.75" x="358.875" y="350.0623">CanBus Interface</text><text fill="#000000" font-family="sans-serif" font-size="10.5" lengthAdjust="spacing" textLength="57" x="358.875" y="363.2693">Sound Card</text><text fill="#000000" font-family="sans-serif" font-size="10.5" lengthAdjust="spacing" textLength="21" x="358.875" y="376.4763">SSD</text><!--MD5=[cd1d357e028b96f42ee72ab526715f53]
entity GPS--><rect fill="#FEFECE" filter="url(#fq71dlesmpf1j)" height="28.207" style="stroke:#000000;stroke-width:1.125;" width="60" x="231" y="496.1233"/><text fill="#000000" font-family="sans-serif" font-size="10.5" lengthAdjust="spacing" textLength="45" x="238.5" y="514.5232">GPS USB</text><!--MD5=[ae8265c62b5fdfc486198cf91618d43d]
entity IMU--><rect fill="#FEFECE" filter="url(#fq71dlesmpf1j)" height="47.4141" style="stroke:#000000;stroke-width:1.125;" width="114.75" x="206.625" y="318.3733"/><text fill="#000000" font-family="sans-serif" font-size="10.5" lengthAdjust="spacing" textLength="17.25" x="214.125" y="336.7732">IMU</text><line style="stroke:#000000;stroke-width:0.75;" x1="207.375" x2="320.625" y1="339.0803" y2="339.0803"/><text fill="#000000" font-family="sans-serif" font-size="10.5" lengthAdjust="spacing" textLength="99.75" x="214.125" y="352.9802">compass, gyro, accel</text><!--MD5=[b17a41457b887f0466e22bd7e05c4601]
entity NMEA_2000--><rect fill="#FEFECE" filter="url(#fq71dlesmpf1j)" height="73.8281" style="stroke:#000000;stroke-width:1.125;" width="94.5" x="12" y="473.6233"/><text fill="#000000" font-family="sans-serif" font-size="10.5" font-weight="bold" lengthAdjust="spacing" textLength="78" x="19.5" y="492.0232">NMEA2000 Bus</text><line style="stroke:#000000;stroke-width:0.75;" x1="12.75" x2="105.75" y1="494.3303" y2="494.3303"/><text fill="#000000" font-family="sans-serif" font-size="10.5" lengthAdjust="spacing" textLength="75.75" x="19.5" y="508.2302">engine sensors,</text><text fill="#000000" font-family="sans-serif" font-size="10.5" lengthAdjust="spacing" textLength="79.5" x="19.5" y="521.4373">fishfinder, sonar,</text><text fill="#000000" font-family="sans-serif" font-size="10.5" lengthAdjust="spacing" textLength="14.25" x="19.5" y="534.6443">etc</text><!--MD5=[6eed89ef60fd1dd7e5ad5481c6afc096]
entity NMEA_Mux--><polygon fill="#FEFECE" filter="url(#fq71dlesmpf1j)" points="617.625,490.4983,625.125,482.9983,748.875,482.9983,748.875,530.4124,741.375,537.9124,617.625,537.9124,617.625,490.4983" style="stroke:#000000;stroke-width:1.125;"/><line style="stroke:#000000;stroke-width:1.125;" x1="741.375" x2="748.875" y1="490.4983" y2="482.9983"/><line style="stroke:#000000;stroke-width:1.125;" x1="617.625" x2="741.375" y1="490.4983" y2="490.4983"/><line style="stroke:#000000;stroke-width:1.125;" x1="741.375" x2="741.375" y1="490.4983" y2="537.9124"/><text fill="#000000" font-family="sans-serif" font-size="10.5" lengthAdjust="spacing" textLength="81.75" x="628.875" y="508.8982">NMEA Multiplexer</text><line style="stroke:#000000;stroke-width:0.75;" x1="617.625" x2="741.375" y1="511.2053" y2="511.2053"/><line style="stroke:#000000;stroke-width:0.75;" x1="741.375" x2="748.875" y1="511.2053" y2="503.7053"/><text fill="#000000" font-family="sans-serif" font-size="10.5" lengthAdjust="spacing" textLength="101.25" x="628.875" y="525.1052">bidirectional Seatalk1</text><!--MD5=[1eaf4d2f8be208adf81d4b0ad8be7432]
entity NMEA_0183--><rect fill="#FEFECE" filter="url(#fq71dlesmpf1j)" height="73.8281" style="stroke:#000000;stroke-width:1.125;" width="126" x="620.25" y="622.4983"/><text fill="#000000" font-family="sans-serif" font-size="10.5" font-weight="bold" lengthAdjust="spacing" textLength="103.5" x="627.75" y="640.8982">NMEA 0183 Devices</text><line style="stroke:#000000;stroke-width:0.75;" x1="621" x2="745.5" y1="643.2053" y2="643.2053"/><text fill="#000000" font-family="sans-serif" font-size="10.5" lengthAdjust="spacing" textLength="111" x="627.75" y="657.1052">AIS transducer/receiver</text><text fill="#000000" font-family="sans-serif" font-size="10.5" lengthAdjust="spacing" textLength="96" x="627.75" y="670.3123">GPS, VHF, compass</text><text fill="#000000" font-family="sans-serif" font-size="10.5" lengthAdjust="spacing" textLength="95.25" x="627.75" y="683.5193">Wind, Depth, Speed</text><!--MD5=[31e3ec59327e273962ce661ad70afaa5]
entity AP--><rect fill="#FEFECE" filter="url(#fq71dlesmpf1j)" height="28.207" style="stroke:#000000;stroke-width:1.125;" width="56.25" x="772.875" y="644.9983"/><text fill="#000000" font-family="sans-serif" font-size="10.5" lengthAdjust="spacing" textLength="41.25" x="780.375" y="663.3982">Autopilot</text><!--MD5=[547615c2c8915297a73af811d5dbf318]
entity Eth_Hub--><polygon fill="#FEFECE" filter="url(#fq71dlesmpf1j)" points="778.875,208.4983,786.375,200.9983,871.125,200.9983,871.125,229.2053,863.625,236.7053,778.875,236.7053,778.875,208.4983" style="stroke:#000000;stroke-width:1.125;"/><line style="stroke:#000000;stroke-width:1.125;" x1="863.625" x2="871.125" y1="208.4983" y2="200.9983"/><line style="stroke:#000000;stroke-width:1.125;" x1="778.875" x2="863.625" y1="208.4983" y2="208.4983"/><line style="stroke:#000000;stroke-width:1.125;" x1="863.625" x2="863.625" y1="208.4983" y2="236.7053"/><text fill="#000000" font-family="sans-serif" font-size="10.5" lengthAdjust="spacing" textLength="62.25" x="790.125" y="226.8982">Ethernet Hub</text><!--MD5=[7968f28c13df0538bc57173754511f0e]
entity USB_Hub--><polygon fill="#FEFECE" filter="url(#fq71dlesmpf1j)" points="132.75,499.8733,140.25,492.3733,204.75,492.3733,204.75,520.5803,197.25,528.0803,132.75,528.0803,132.75,499.8733" style="stroke:#000000;stroke-width:1.125;"/><line style="stroke:#000000;stroke-width:1.125;" x1="197.25" x2="204.75" y1="499.8733" y2="492.3733"/><line style="stroke:#000000;stroke-width:1.125;" x1="132.75" x2="197.25" y1="499.8733" y2="499.8733"/><line style="stroke:#000000;stroke-width:1.125;" x1="197.25" x2="197.25" y1="499.8733" y2="528.0803"/><text fill="#000000" font-family="sans-serif" font-size="10.5" lengthAdjust="spacing" textLength="42" x="144" y="518.2732">USB Hub</text><!--MD5=[953a8c67cfe21abaf9bf45dad8506ca8]
entity Router--><polygon fill="#FEFECE" filter="url(#fq71dlesmpf1j)" points="897.375,208.4983,904.875,200.9983,1006.125,200.9983,1006.125,229.2053,998.625,236.7053,897.375,236.7053,897.375,208.4983" style="stroke:#000000;stroke-width:1.125;"/><line style="stroke:#000000;stroke-width:1.125;" x1="998.625" x2="1006.125" y1="208.4983" y2="200.9983"/><line style="stroke:#000000;stroke-width:1.125;" x1="897.375" x2="998.625" y1="208.4983" y2="208.4983"/><line style="stroke:#000000;stroke-width:1.125;" x1="998.625" x2="998.625" y1="208.4983" y2="236.7053"/><text fill="#000000" font-family="sans-serif" font-size="10.5" lengthAdjust="spacing" textLength="78.75" x="908.625" y="226.8982">LTE/WiFi Router</text><!--MD5=[4c7a5f0f4d710d941c4df063500e34ba]
entity Dish_Router--><rect fill="#FEFECE" filter="url(#fq71dlesmpf1j)" height="41.4141" style="stroke:#000000;stroke-width:1.125;" width="92.25" x="819.375" y="114.7483"/><text fill="#000000" font-family="sans-serif" font-size="10.5" lengthAdjust="spacing" textLength="77.25" x="826.875" y="133.1482">StarLink Router,</text><text fill="#000000" font-family="sans-serif" font-size="10.5" lengthAdjust="spacing" textLength="21" x="826.875" y="146.3552">Dish</text><!--MD5=[af2495f9a90a9f78578178908d6e69bd]
entity Radar--><polygon fill="#FEFECE" filter="url(#fq71dlesmpf1j)" points="856.875,331.4983,864.375,323.9983,916.125,323.9983,916.125,352.2053,908.625,359.7053,856.875,359.7053,856.875,331.4983" style="stroke:#000000;stroke-width:1.125;"/><line style="stroke:#000000;stroke-width:1.125;" x1="908.625" x2="916.125" y1="331.4983" y2="323.9983"/><line style="stroke:#000000;stroke-width:1.125;" x1="856.875" x2="908.625" y1="331.4983" y2="331.4983"/><line style="stroke:#000000;stroke-width:1.125;" x1="908.625" x2="908.625" y1="331.4983" y2="359.7053"/><text fill="#000000" font-family="sans-serif" font-size="10.5" lengthAdjust="spacing" textLength="29.25" x="868.125" y="349.8982">Radar</text><!--MD5=[330778c508571bc43f7e5523a03ca602]
entity Touchscreen--><polygon fill="#FEFECE" filter="url(#fq71dlesmpf1j)" points="211.125,208.4983,218.625,200.9983,340.875,200.9983,340.875,229.2053,333.375,236.7053,211.125,236.7053,211.125,208.4983" style="stroke:#000000;stroke-width:1.125;"/><line style="stroke:#000000;stroke-width:1.125;" x1="333.375" x2="340.875" y1="208.4983" y2="200.9983"/><line style="stroke:#000000;stroke-width:1.125;" x1="211.125" x2="333.375" y1="208.4983" y2="208.4983"/><line style="stroke:#000000;stroke-width:1.125;" x1="333.375" x2="333.375" y1="208.4983" y2="236.7053"/><text fill="#000000" font-family="sans-serif" font-size="10.5" font-weight="bold" lengthAdjust="spacing" textLength="99.75" x="222.375" y="226.8982">HDMI Touchscreen</text><!--MD5=[4c50005c0fadedfb0a14f6d1969de37e]
entity Speakers--><rect fill="#FEFECE" filter="url(#fq71dlesmpf1j)" height="28.207" style="stroke:#000000;stroke-width:1.125;" width="60" x="40.5" y="204.7483"/><text fill="#000000" font-family="sans-serif" font-size="10.5" lengthAdjust="spacing" textLength="45" x="48" y="223.1482">Speakers</text><!--MD5=[cf5c42a4fc4011dea04a3daf6c677d92]
entity Mic--><rect fill="#FEFECE" filter="url(#fq71dlesmpf1j)" height="28.207" style="stroke:#000000;stroke-width:1.125;" width="70.5" x="5.25" y="121.1233"/><text fill="#000000" font-family="sans-serif" font-size="10.5" lengthAdjust="spacing" textLength="55.5" x="12.75" y="139.5232">Microphone</text><!--MD5=[1b76df3a4bd008a21abb34082ebb9919]
entity Cameras--><rect fill="#FEFECE" filter="url(#fq71dlesmpf1j)" height="28.207" style="stroke:#000000;stroke-width:1.125;" width="57.75" x="127.125" y="204.7483"/><text fill="#000000" font-family="sans-serif" font-size="10.5" lengthAdjust="spacing" textLength="42.75" x="134.625" y="223.1482">Cameras</text><!--MD5=[d92e9b93d5ce4574427d5f042afd2321]
entity SDR--><polygon fill="#FEFECE" filter="url(#fq71dlesmpf1j)" points="23.25,648.7483,30.75,641.2483,105.75,641.2483,105.75,669.4553,98.25,676.9553,23.25,676.9553,23.25,648.7483" style="stroke:#000000;stroke-width:1.125;"/><line style="stroke:#000000;stroke-width:1.125;" x1="98.25" x2="105.75" y1="648.7483" y2="641.2483"/><line style="stroke:#000000;stroke-width:1.125;" x1="23.25" x2="98.25" y1="648.7483" y2="648.7483"/><line style="stroke:#000000;stroke-width:1.125;" x1="98.25" x2="98.25" y1="648.7483" y2="676.9553"/><text fill="#000000" font-family="sans-serif" font-size="10.5" lengthAdjust="spacing" textLength="52.5" x="34.5" y="667.1482">SDR Radio</text><!--MD5=[6ba27cb6ab6c98fb8258247a8e3f62be]
entity SSB--><polygon fill="#FEFECE" filter="url(#fq71dlesmpf1j)" points="519,208.4983,526.5,200.9983,600,200.9983,600,229.2053,592.5,236.7053,519,236.7053,519,208.4983" style="stroke:#000000;stroke-width:1.125;"/><line style="stroke:#000000;stroke-width:1.125;" x1="592.5" x2="600" y1="208.4983" y2="200.9983"/><line style="stroke:#000000;stroke-width:1.125;" x1="519" x2="592.5" y1="208.4983" y2="208.4983"/><line style="stroke:#000000;stroke-width:1.125;" x1="592.5" x2="592.5" y1="208.4983" y2="236.7053"/><text fill="#000000" font-family="sans-serif" font-size="10.5" lengthAdjust="spacing" textLength="51" x="530.25" y="226.8982">SSB Radio</text><!--MD5=[dd29c4e1cef6fbff2e61a9551f8f2bf2]
entity WiFi_Local--><path d="M374.7826,207.2166 C377.514,202.4445 380.8121,202.4705 384.4495,206.1845 C387.0137,200.7549 391.3558,200.7143 394.7643,205.3163 C396.7252,200.3043 399.8392,199.849 403.8245,203.0954 C407.9037,198.2166 412.4594,199.2057 414.9011,204.8234 C419.2845,201.1622 422.3855,202.2708 424.7094,207.1803 C427.1046,202.6703 431.6113,203.1127 433.9976,207.1898 C441.4357,208.2525 444.321,212.5598 439.6932,219.2981 C443.2775,225.1249 442.4456,230.9167 434.3217,231.6533 C431.9962,236.8564 429.1966,238.2494 424.7608,233.7282 C422.272,238.562 418.0113,239.829 414.0219,235.4838 C411.8615,239.8768 408.8551,241.6244 404.9628,237.2792 C400.7174,242.3468 395.9135,241.6492 393.6063,235.3438 C389.1455,238.5104 386.2267,238.1134 384.4084,232.5573 C380.6115,236.8942 376.5608,237.2996 374.0682,231.2578 C366.9718,229.4743 366.0885,225.9323 370.3279,220.2848 C364.9757,214.662 367.6179,208.5726 374.7826,207.2166 " fill="#FEFECE" filter="url(#fq71dlesmpf1j)" style="stroke:#000000;stroke-width:1.125;"/><text fill="#000000" font-family="sans-serif" font-size="10.5" lengthAdjust="spacing" textLength="49.5" x="378.75" y="223.1482">Local WiFi</text><!--MD5=[82bbb9a7a666b856fa28a649fd3171aa]
entity Iridium--><rect fill="#FEFECE" filter="url(#fq71dlesmpf1j)" height="28.207" style="stroke:#000000;stroke-width:1.125;" width="79.5" x="561.75" y="121.1233"/><text fill="#000000" font-family="sans-serif" font-size="10.5" lengthAdjust="spacing" textLength="64.5" x="569.25" y="139.5232">Iridium Phone</text><!--MD5=[8f0c441f12fb738c5e80b28ccd1b0a87]
entity Other_Sensors--><rect fill="#FEFECE" filter="url(#fq71dlesmpf1j)" height="126.6563" style="stroke:#000000;stroke-width:1.125;" width="172.5" x="317.25" y="446.9983"/><text fill="#000000" font-family="sans-serif" font-size="10.5" lengthAdjust="spacing" textLength="72" x="324.75" y="465.3982">Other_Sensors</text><line style="stroke:#000000;stroke-width:0.75;" x1="318" x2="489" y1="467.7053" y2="467.7053"/><text fill="#000000" font-family="sans-serif" font-size="10.5" lengthAdjust="spacing" textLength="73.5" x="324.75" y="481.6052">IoT, 1w, i2c, etc</text><text fill="#000000" font-family="sans-serif" font-size="10.5" lengthAdjust="spacing" textLength="93.75" x="324.75" y="494.8123">batteries monitoring</text><text fill="#000000" font-family="sans-serif" font-size="10.5" lengthAdjust="spacing" textLength="157.5" x="324.75" y="508.0193">chargers (wind, solar, diesel gen)</text><text fill="#000000" font-family="sans-serif" font-size="10.5" lengthAdjust="spacing" textLength="49.5" x="324.75" y="521.2263">fluid levels</text><text fill="#000000" font-family="sans-serif" font-size="10.5" lengthAdjust="spacing" textLength="120" x="324.75" y="534.4334">env temp/pressure/humid</text><text fill="#000000" font-family="sans-serif" font-size="10.5" lengthAdjust="spacing" textLength="123" x="324.75" y="547.6404">dangerous gases sensors</text><text fill="#000000" font-family="sans-serif" font-size="10.5" lengthAdjust="spacing" textLength="108.75" x="324.75" y="560.8474">lightning strike sensors</text><!--MD5=[869fbf9b9ca9ac4bdf61f7068ab1ff9c]
entity Remote_Desktop--><rect fill="#FEFECE" filter="url(#fq71dlesmpf1j)" height="28.207" style="stroke:#000000;stroke-width:1.125;" width="125.25" x="667.875" y="121.1233"/><text fill="#000000" font-family="sans-serif" font-size="10.5" lengthAdjust="spacing" textLength="110.25" x="675.375" y="139.5232">Remote Desktop (VNC)</text><!--MD5=[0313ddc4f8ed0f4991a51edae0b1647c]
entity AC--><polygon fill="#FEFECE" filter="url(#fq71dlesmpf1j)" points="516,493.4983,523.5,485.9983,577.5,485.9983,577.5,527.4124,570,534.9124,516,534.9124,516,493.4983" style="stroke:#000000;stroke-width:1.125;"/><line style="stroke:#000000;stroke-width:1.125;" x1="570" x2="577.5" y1="493.4983" y2="485.9983"/><line style="stroke:#000000;stroke-width:1.125;" x1="516" x2="570" y1="493.4983" y2="493.4983"/><line style="stroke:#000000;stroke-width:1.125;" x1="570" x2="570" y1="493.4983" y2="534.9124"/><text fill="#000000" font-family="sans-serif" font-size="10.5" lengthAdjust="spacing" textLength="17.25" x="527.25" y="511.8982">A/C</text><text fill="#000000" font-family="sans-serif" font-size="10.5" lengthAdjust="spacing" textLength="31.5" x="527.25" y="525.1052">Heater</text><!--MD5=[cec077422889c5d3cb551e1217c37df7]
entity Pumps--><polygon fill="#FEFECE" filter="url(#fq71dlesmpf1j)" points="231.375,626.2483,238.875,618.7483,320.625,618.7483,320.625,692.5764,313.125,700.0764,231.375,700.0764,231.375,626.2483" style="stroke:#000000;stroke-width:1.125;"/><line style="stroke:#000000;stroke-width:1.125;" x1="313.125" x2="320.625" y1="626.2483" y2="618.7483"/><line style="stroke:#000000;stroke-width:1.125;" x1="231.375" x2="313.125" y1="626.2483" y2="626.2483"/><line style="stroke:#000000;stroke-width:1.125;" x1="313.125" x2="313.125" y1="626.2483" y2="700.0764"/><text fill="#000000" font-family="sans-serif" font-size="10.5" lengthAdjust="spacing" textLength="32.25" x="242.625" y="644.6482">Pumps</text><line style="stroke:#000000;stroke-width:0.75;" x1="231.375" x2="313.125" y1="646.9553" y2="646.9553"/><line style="stroke:#000000;stroke-width:0.75;" x1="313.125" x2="320.625" y1="646.9553" y2="639.4553"/><text fill="#000000" font-family="sans-serif" font-size="10.5" lengthAdjust="spacing" textLength="23.25" x="242.625" y="660.8552">Bilge</text><text fill="#000000" font-family="sans-serif" font-size="10.5" lengthAdjust="spacing" textLength="59.25" x="242.625" y="674.0623">Fresh Water</text><text fill="#000000" font-family="sans-serif" font-size="10.5" lengthAdjust="spacing" textLength="57" x="242.625" y="687.2693">Black Water</text><!--MD5=[c74dee767baeeec0e713c54a8a4634dc]
entity Fridge--><polygon fill="#FEFECE" filter="url(#fq71dlesmpf1j)" points="346.875,635.6233,354.375,628.1233,434.625,628.1233,434.625,682.7444,427.125,690.2444,346.875,690.2444,346.875,635.6233" style="stroke:#000000;stroke-width:1.125;"/><line style="stroke:#000000;stroke-width:1.125;" x1="427.125" x2="434.625" y1="635.6233" y2="628.1233"/><line style="stroke:#000000;stroke-width:1.125;" x1="346.875" x2="427.125" y1="635.6233" y2="635.6233"/><line style="stroke:#000000;stroke-width:1.125;" x1="427.125" x2="427.125" y1="635.6233" y2="690.2444"/><text fill="#000000" font-family="sans-serif" font-size="10.5" lengthAdjust="spacing" textLength="30.75" x="358.125" y="654.0232">Fridge</text><text fill="#000000" font-family="sans-serif" font-size="10.5" lengthAdjust="spacing" textLength="57.75" x="358.125" y="667.2302">Watermaker</text><text fill="#000000" font-family="sans-serif" font-size="10.5" lengthAdjust="spacing" textLength="39.75" x="358.125" y="680.4373">Live well</text><!--MD5=[0b2190a355246a80d89d74c5c2c53ceb]
entity Lights_Fans--><rect fill="#FEFECE" filter="url(#fq71dlesmpf1j)" height="81.0352" style="stroke:#000000;stroke-width:1.125;" width="132.75" x="460.875" y="618.7483"/><text fill="#000000" font-family="sans-serif" font-size="10.5" lengthAdjust="spacing" textLength="99" x="468.375" y="637.1482">Lights: (Nav, Anchor,</text><text fill="#000000" font-family="sans-serif" font-size="10.5" lengthAdjust="spacing" textLength="105" x="468.375" y="650.3552">Running, Mast, Cabin,</text><text fill="#000000" font-family="sans-serif" font-size="10.5" lengthAdjust="spacing" textLength="117.75" x="468.375" y="663.5623">Underwater, Search, etc)</text><text fill="#000000" font-family="sans-serif" font-size="10.5" lengthAdjust="spacing" textLength="24" x="468.375" y="676.7693">Fans</text><text fill="#000000" font-family="sans-serif" font-size="10.5" lengthAdjust="spacing" textLength="93.75" x="468.375" y="689.9763">Bilge/Engine Blower</text><!--MD5=[593e445c9278762cb4ef7b840df82fac]
entity Keyboard_Mouse--><rect fill="#FEFECE" filter="url(#fq71dlesmpf1j)" height="41.4141" style="stroke:#000000;stroke-width:1.125;" width="60.75" x="421.125" y="114.7483"/><text fill="#000000" font-family="sans-serif" font-size="10.5" lengthAdjust="spacing" textLength="45.75" x="428.625" y="133.1482">Keyboard</text><text fill="#000000" font-family="sans-serif" font-size="10.5" lengthAdjust="spacing" textLength="31.5" x="428.625" y="146.3552">Mouse</text><!--MD5=[6068ed0baf2edbbb46a7f906664363da]
entity Weather--><rect fill="#FEFECE" filter="url(#fq71dlesmpf1j)" height="54.6211" style="stroke:#000000;stroke-width:1.125;" width="72.75" x="132.375" y="631.8733"/><text fill="#000000" font-family="sans-serif" font-size="10.5" lengthAdjust="spacing" textLength="35.25" x="139.875" y="650.2732">NavTex</text><text fill="#000000" font-family="sans-serif" font-size="10.5" lengthAdjust="spacing" textLength="57.75" x="139.875" y="663.4802">WeatherFax</text><text fill="#000000" font-family="sans-serif" font-size="10.5" lengthAdjust="spacing" textLength="50.25" x="139.875" y="676.6873">Barograph</text><!--MD5=[0df37b53dbcc900899e095c990e30b8f]
entity SiriusXM--><rect fill="#FEFECE" filter="url(#fq71dlesmpf1j)" height="28.207" style="stroke:#000000;stroke-width:1.125;" width="90.75" x="13.875" y="327.7483"/><text fill="#000000" font-family="sans-serif" font-size="10.5" lengthAdjust="spacing" textLength="75.75" x="21.375" y="346.1482">SiriusXM Marine</text><!--MD5=[d59b03f458f75ee04d94168ba7ec459b]
entity SmartPhone--><rect fill="#FEFECE" filter="url(#fq71dlesmpf1j)" height="41.4141" style="stroke:#000000;stroke-width:1.125;" width="78.75" x="316.125" y="114.7483"/><text fill="#000000" font-family="sans-serif" font-size="10.5" lengthAdjust="spacing" textLength="63.75" x="323.625" y="133.1482">SmartPhones</text><text fill="#000000" font-family="sans-serif" font-size="10.5" lengthAdjust="spacing" textLength="35.25" x="323.625" y="146.3552">Tablets</text><!--MD5=[13e88d8e4422c8d855b54f0d2bc171be]
entity NAS--><path d="M696.375,289.4983 C696.375,281.9983 763.5,281.9983 763.5,281.9983 C763.5,281.9983 830.625,281.9983 830.625,289.4983 L830.625,394.6975 C830.625,402.1975 763.5,402.1975 763.5,402.1975 C763.5,402.1975 696.375,402.1975 696.375,394.6975 L696.375,289.4983 " fill="#FEFECE" filter="url(#fq71dlesmpf1j)" style="stroke:#000000;stroke-width:1.125;"/><path d="M696.375,289.4983 C696.375,296.9983 763.5,296.9983 763.5,296.9983 C763.5,296.9983 830.625,296.9983 830.625,289.4983 " fill="none" style="stroke:#000000;stroke-width:1.125;"/><text fill="#000000" font-family="sans-serif" font-size="10.5" lengthAdjust="spacing" textLength="20.25" x="703.875" y="310.8982">NAS</text><path d="M696.375,309.4553 C696.375,316.9553 763.5,316.9553 763.5,316.9553 C763.5,316.9553 830.625,316.9553 830.625,309.4553 " fill="none" style="stroke:#000000;stroke-width:0.75;"/><text fill="#000000" font-family="sans-serif" font-size="10.5" lengthAdjust="spacing" textLength="74.25" x="703.875" y="327.1052">Audio/Video Lib</text><text fill="#000000" font-family="sans-serif" font-size="10.5" lengthAdjust="spacing" textLength="119.25" x="703.875" y="340.3123">Charts, Backups, Tracks,</text><text fill="#000000" font-family="sans-serif" font-size="10.5" lengthAdjust="spacing" textLength="56.25" x="703.875" y="353.5193">Docs, Logs,</text><text fill="#000000" font-family="sans-serif" font-size="10.5" lengthAdjust="spacing" textLength="113.25" x="703.875" y="366.7263">Crew Docs, Float Plans,</text><text fill="#000000" font-family="sans-serif" font-size="10.5" lengthAdjust="spacing" textLength="110.25" x="703.875" y="379.9334">Inventory, Provisioning,</text><text fill="#000000" font-family="sans-serif" font-size="10.5" lengthAdjust="spacing" textLength="102" x="703.875" y="393.1404">Time Series Data, etc</text><!--MD5=[ee9653e0a8f11fcc17536c9839054b2a]
entity Winches--><polygon fill="#FEFECE" filter="url(#fq71dlesmpf1j)" points="855.75,635.6233,863.25,628.1233,965.25,628.1233,965.25,682.7444,957.75,690.2444,855.75,690.2444,855.75,635.6233" style="stroke:#000000;stroke-width:1.125;"/><line style="stroke:#000000;stroke-width:1.125;" x1="957.75" x2="965.25" y1="635.6233" y2="628.1233"/><line style="stroke:#000000;stroke-width:1.125;" x1="855.75" x2="957.75" y1="635.6233" y2="635.6233"/><line style="stroke:#000000;stroke-width:1.125;" x1="957.75" x2="957.75" y1="635.6233" y2="690.2444"/><text fill="#000000" font-family="sans-serif" font-size="10.5" lengthAdjust="spacing" textLength="79.5" x="867" y="654.0232">Anchor Windlass</text><text fill="#000000" font-family="sans-serif" font-size="10.5" lengthAdjust="spacing" textLength="72.75" x="867" y="667.2302">Power Winches</text><text fill="#000000" font-family="sans-serif" font-size="10.5" lengthAdjust="spacing" textLength="63" x="867" y="680.4373">Bow Thruster</text><!--MD5=[48e79d9335dd0cd53682a5a492aea5d9]
entity Cloud_Internet--><path d="M758.745,14.9541 C760.7343,9.9999 763.863,9.5325 767.7595,12.8841 C770.1186,6.86 773.2852,6.3585 777.6558,11.0215 C780.2434,6.0405 785.0635,4.9621 788.255,10.4076 C791.1949,4.5 795.9034,4.6685 799.5206,9.7107 C802.2595,5.8281 806.6426,5.8353 808.7527,10.3981 C812.414,7.0284 816.6977,7.0647 818.5602,12.4201 C821.5951,8.0303 825.7886,7.8565 828.9022,12.3283 C833.4491,6.9662 836.8382,8.062 839.8015,13.873 C845.1118,16.5818 844.9111,20.1161 840.4083,23.4468 C844.8549,24.909 844.7168,27.3848 842.2756,30.6361 C846.8787,32.8941 848.3988,36.2481 843.9572,40.1113 C846.8329,43.2044 846.2128,46.1103 841.9777,47.2246 C844.9596,50.323 845.0767,53.2156 840.9338,55.4047 C844.9041,58.726 844.5194,61.4612 839.9995,63.8424 C836.8751,68.677 833.8428,70.0958 829.5608,65.0676 C826.6857,69.7086 822.498,70.2089 819.7287,64.9624 C817.0423,71.0583 811.906,70.1524 808.7272,65.4647 C806.5525,70.1089 801.4638,71.407 798.1282,66.794 C794.3564,71.2818 791.3737,70.3537 788.9524,65.4714 C785.4292,70.9702 782.2623,70.5021 778.6302,65.5794 C775.4874,70.5031 771.7944,69.7351 768.5779,65.6618 C763.9663,70.436 759.9706,70.5029 757.1464,63.8706 C753.49,61.6061 753.1763,58.1779 756.9848,55.7646 C752.6226,53.4234 752.55,50.5302 756.5682,47.7532 C752.1901,45.2295 752.612,41.9979 756.2053,39.1383 C752.8518,36.2381 752.5212,33.4069 756.707,30.9698 C752.7752,27.8643 753.4354,24.6342 758.0714,22.9945 C754.1002,19.8859 754.8567,17.4043 758.745,14.9541 " fill="#FEFECE" filter="url(#fq71dlesmpf1j)" style="stroke:#000000;stroke-width:1.125;"/><text fill="#000000" font-family="sans-serif" font-size="10.5" font-weight="bold" lengthAdjust="spacing" textLength="42" x="762.375" y="29.6482">Internet</text><text fill="#000000" font-family="sans-serif" font-size="10.5" lengthAdjust="spacing" textLength="68.25" x="762.375" y="42.8552">Cloud Storage</text><text fill="#000000" font-family="sans-serif" font-size="10.5" lengthAdjust="spacing" textLength="71.25" x="762.375" y="56.0623">Cloud Services</text><!--MD5=[f38da3986c5ca1dec060c2524b9ccddc]
entity Lora--><path d="M998.8687,635.334 C1000.3976,631.3117 1002.7911,630.8051 1006.0195,633.5338 C1007.761,629.5766 1011.7189,628.9396 1014.6947,632.0102 C1016.9505,628.5285 1020.4456,629.1258 1022.3527,632.4051 C1024.8042,626.8667 1028.0272,627.3996 1031.9863,630.7759 C1033.5924,626.3829 1036.2523,625.9595 1039.4375,629.2431 C1043.1962,626.009 1045.7448,627.0647 1047.8095,631.1743 C1051.0539,627.5184 1053.4024,628.7466 1055.5458,632.348 C1057.7577,628.9652 1061.6905,628.7817 1063.6573,632.6231 C1066.9886,628.8015 1070.1079,629.8112 1071.8232,634.2254 C1074.9446,629.469 1078.5805,629.7953 1081.4612,634.4714 C1086.0425,636.4679 1085.9602,640.4314 1082.3155,643.2301 C1086.5351,645.409 1087.245,648.4045 1083.2565,651.5156 C1088.6377,652.9303 1088.7434,656.628 1085.6264,660.328 C1089.5897,663.7676 1087.8407,667.621 1083.5953,669.1763 C1087.0369,672.1064 1086.7147,675.1072 1082.4867,676.9425 C1086.1424,680.4031 1085.6325,683.7599 1080.7624,685.5033 C1078.2884,688.6414 1075.5581,688.7564 1073.0588,685.534 C1070.3751,689.2136 1067.2488,689.5957 1064.9337,685.1648 C1062.6433,690.2145 1059.7978,690.5229 1056.1523,686.4724 C1053.8372,689.7904 1050.9685,690.3439 1048.5572,686.5756 C1045.996,690.249 1042.8743,690.3922 1039.9898,686.9657 C1037.0034,689.9637 1034.1004,689.4763 1032.0108,685.8805 C1029.3835,689.3242 1025.493,690.0651 1023.2771,685.4353 C1020.7642,688.9379 1017.5896,689.8023 1015.1608,685.3495 C1012.6184,688.9671 1010.0012,689.335 1006.8299,686.1158 C1003.3836,689.1419 1000.2501,688.9693 998.4529,684.3167 C994.545,682.7213 993.1982,679.3252 997.0817,676.3831 C992.6126,673.8638 992.4982,670.9624 996.8727,668.2168 C992.9397,665.3477 993.1867,662.9874 997.0926,660.3371 C993.0939,657.0614 993.7681,654.0172 997.9873,651.5812 C994.3237,649.1371 994.6341,645.7599 998.2107,643.5163 C994.9734,640.5867 994.6498,637.664 998.8687,635.334 " fill="#FEFECE" filter="url(#fq71dlesmpf1j)" style="stroke:#000000;stroke-width:1.125;"/><text fill="#000000" font-family="sans-serif" font-size="10.5" lengthAdjust="spacing" textLength="45" x="1002.75" y="650.2732">LoraWAN</text><text fill="#000000" font-family="sans-serif" font-size="10.5" lengthAdjust="spacing" textLength="70.5" x="1002.75" y="663.4802">Asset Tracking</text><text fill="#000000" font-family="sans-serif" font-size="10.5" lengthAdjust="spacing" textLength="72" x="1002.75" y="676.6873">Dinghy Locator</text><!--MD5=[3ff5d2fb9a8117c537632aae671cabcb]
entity Esp32--><rect fill="#FEFECE" filter="url(#fq71dlesmpf1j)" height="41.4141" style="stroke:#000000;stroke-width:1.125;" width="57" x="882" y="489.7483"/><text fill="#000000" font-family="sans-serif" font-size="10.5" lengthAdjust="spacing" textLength="42" x="889.5" y="508.1482">m5stack,</text><text fill="#000000" font-family="sans-serif" font-size="10.5" lengthAdjust="spacing" textLength="36" x="889.5" y="521.3552">arduino</text><!--MD5=[c6d492c1e608e21002a1e79a049df954]
link IMU to RPI--><path codeLine="201" d="M321.4875,341.9983 C330.1425,341.9983 338.79,341.9983 347.4375,341.9983 " fill="none" id="IMU-RPI" style="stroke:#A80036;stroke-width:0.75;"/><!--MD5=[a860cb1a85174d4976dae9c4f32e49f8]
link RPI to NMEA_2000--><path codeLine="202" d="M355.125,389.3233 C348.5325,394.1233 341.58,398.5108 334.5,401.9983 C246.8325,445.1983 204.72,399.5908 119.25,446.9983 C107.265,453.6433 96.225,463.4758 86.9625,473.3983 " fill="none" id="RPI-NMEA_2000" style="stroke:#A80036;stroke-width:0.75;"/><!--MD5=[f75ecebad45d24d2cfeff8c08b96d55d]
link RPI to NMEA_Mux--><path codeLine="203" d="M459.42,372.1558 C497.0925,392.3683 547.6275,420.2908 591,446.9983 C609.3,458.2633 629.07,471.5308 645.6,482.9533 " fill="none" id="RPI-NMEA_Mux" style="stroke:#A80036;stroke-width:0.75;"/><!--MD5=[3577f1ad49970e59a1e1697b6041c28e]
link Eth_Hub to RPI--><path codeLine="204" d="M778.6875,233.0983 C700.7325,255.5683 543.6225,300.8608 459.5625,325.0858 " fill="none" id="Eth_Hub-RPI" style="stroke:#A80036;stroke-width:0.75;"/><!--MD5=[1d20bbed48bf86b90ee5f13bc892e6f4]
link RPI to USB_Hub--><path codeLine="205" d="M353.1675,389.2783 C347.0925,393.8833 340.8,398.2333 334.5,401.9983 C286.665,430.5658 262.245,413.8033 217.5,446.9983 C201.015,459.2308 187.2,478.4383 178.5375,492.3583 " fill="none" id="RPI-USB_Hub" style="stroke:#A80036;stroke-width:0.75;"/><!--MD5=[920310a45a910abea0e78fc3f928b9c7]
link Touchscreen to RPI--><path codeLine="206" d="M294.27,237.1558 C309.9675,252.1183 333.345,274.3933 354.45,294.5083 " fill="none" id="Touchscreen-RPI" style="stroke:#A80036;stroke-width:0.75;"/><!--MD5=[e542bf0be54ca915b2a2c465769198ce]
link Cameras to RPI--><path codeLine="207" d="M185.04,231.9883 C189.3675,233.7208 193.785,235.4383 198,236.9983 C257.9175,259.1458 278.8725,250.5958 334.5,281.9983 C341.0325,285.6883 347.5125,290.0458 353.745,294.6958 " fill="none" id="Cameras-RPI" style="stroke:#A80036;stroke-width:0.75;"/><!--MD5=[738bdf1011746a1c073c591ef970d801]
reverse link Speakers to RPI--><path codeLine="208" d="M104.2275,233.7883 C107.505,234.9508 110.7975,236.0458 114,236.9983 C209.8575,265.5433 244.6725,238.0033 334.5,281.9983 C341.5875,285.4708 348.54,289.8433 355.14,294.6433 " fill="none" id="Speakers-backto-RPI" style="stroke:#A80036;stroke-width:0.75;"/><polygon fill="#A80036" points="100.68,232.5058,106.0071,237.6229,104.2064,233.7813,108.0479,231.9806,100.68,232.5058" style="stroke:#A80036;stroke-width:0.75;"/><!--MD5=[e8f921cc9d34d3902ba4bcef1d5bd4c3]
link Mic to RPI--><path codeLine="209" d="M32.85,149.7358 C22.0125,171.0508 5.7375,212.3983 27,236.9983 C72.1575,289.2508 271.65,253.3708 334.5,281.9983 C341.9025,285.3658 349.1175,289.7833 355.92,294.6808 " fill="none" id="Mic-RPI" style="stroke:#A80036;stroke-width:0.75;"/><!--MD5=[9d6d2f6c2f4d2fc3bb3ff0dee1317c54]
link SSB to RPI--><path codeLine="210" d="M537.15,237.1558 C516.93,252.9058 486.3,276.7633 459.465,297.6658 " fill="none" id="SSB-RPI" style="stroke:#A80036;stroke-width:0.75;"/><!--MD5=[ba43404d2398351bd02a197b89c6dc04]
link Iridium to RPI--><path codeLine="211" d="M608.1675,149.6983 C617.2125,170.2408 630.4125,209.7208 613.5,236.9983 C580.095,290.8783 509.6025,317.7883 459.5175,330.5983 " fill="none" id="Iridium-RPI" style="stroke:#A80036;stroke-width:0.75;"/><!--MD5=[72d1981d7f6e9ae87e7ce2d696ef1c70]
link RPI to Other_Sensors--><path codeLine="212" d="M403.5,389.4508 C403.5,407.1958 403.5,427.7083 403.5,446.7058 " fill="none" id="RPI-Other_Sensors" style="stroke:#A80036;stroke-width:0.75;"/><!--MD5=[e6b62623cb5cffca99b55a6fc459f471]
link RPI to Esp32--><path codeLine="213" d="M459.4125,356.8483 C530.49,375.2683 656.6325,409.6033 762,446.9983 C804.45,462.0658 852.24,482.9533 881.865,496.3783 " fill="none" id="RPI-Esp32" style="stroke:#A80036;stroke-width:0.75;"/><!--MD5=[abd7622213c1ceda57fd7e6c8ce2488a]
link WiFi_Local to RPI--><path codeLine="214" d="M403.5,237.1558 C403.5,252.1183 403.5,274.3933 403.5,294.5083 " fill="none" id="WiFi_Local-RPI" style="stroke:#A80036;stroke-width:0.75;"/><!--MD5=[9befc12befc76c6c24a0e27f7270b253]
link Keyboard_Mouse to RPI--><path codeLine="215" d="M454.53,156.1258 C457.005,176.6833 459.2025,209.4883 453,236.9983 C448.5525,256.7383 439.905,277.1308 431.07,294.5833 " fill="none" id="Keyboard_Mouse-RPI" style="stroke:#A80036;stroke-width:0.75;"/><!--MD5=[a15dace8b9997a4e161f7e6bb21c3756]
link SmartPhone to WiFi_Local--><path codeLine="217" d="M367.1175,156.0058 C375.1125,169.6783 385.62,187.6633 393.2925,200.7808 " fill="none" id="SmartPhone-WiFi_Local" style="stroke:#A80036;stroke-width:0.75;"/><!--MD5=[a6a6198443ed7f46598e3abcaaf7a198]
link SiriusXM to NMEA_2000--><path codeLine="219" d="M59.25,356.4058 C59.25,381.7033 59.25,436.6183 59.25,473.3608 " fill="none" id="SiriusXM-NMEA_2000" style="stroke:#A80036;stroke-width:0.75;"/><!--MD5=[f06790075d9412e28e90e4ac15acc0e3]
link Eth_Hub to Router--><path codeLine="221" d="M871.29,218.9983 C879.885,218.9983 888.4725,218.9983 897.0675,218.9983 " fill="none" id="Eth_Hub-Router" style="stroke:#A80036;stroke-width:0.75;"/><!--MD5=[4e13fc5b7ed4d5c8bb5a843a2b474eca]
link Eth_Hub to Radar--><path codeLine="222" d="M833.8125,237.1558 C845.505,260.2558 866.025,300.7933 877.7025,323.8708 " fill="none" id="Eth_Hub-Radar" style="stroke:#A80036;stroke-width:0.75;"/><!--MD5=[0ff0ce0d78f63490cbe2abe10619b3e8]
link Eth_Hub to NAS--><path codeLine="223" d="M816.1875,237.1558 C810.18,249.0358 801.8325,265.5208 793.5525,281.8783 " fill="none" id="Eth_Hub-NAS" style="stroke:#A80036;stroke-width:0.75;"/><!--MD5=[fdba92f7cd499ccd998d05999f71f6ae]
link Dish_Router to Eth_Hub--><path codeLine="224" d="M855.6975,156.0058 C848.955,169.6783 840.0825,187.6633 833.6175,200.7808 " fill="none" id="Dish_Router-Eth_Hub" style="stroke:#A80036;stroke-width:0.75;"/><!--MD5=[fbe332a3304dc4c8c3dfaece74a779f6]
link USB_Hub to SDR--><path codeLine="226" d="M156.3825,528.6058 C136.32,556.9708 96.9075,612.6883 76.8525,641.0383 " fill="none" id="USB_Hub-SDR" style="stroke:#A80036;stroke-width:0.75;"/><!--MD5=[4ba09ff32a53e36c5fb85e6eec1de587]
link USB_Hub to Weather--><path codeLine="227" d="M168.75,528.6058 C168.75,554.1508 168.75,601.8733 168.75,631.8208 " fill="none" id="USB_Hub-Weather" style="stroke:#A80036;stroke-width:0.75;"/><!--MD5=[bc87505a24fe564b5b4878ca4cf904ff]
link USB_Hub to GPS--><path codeLine="228" d="M204.7875,510.3733 C213.495,510.3733 222.2025,510.3733 230.9175,510.3733 " fill="none" id="USB_Hub-GPS" style="stroke:#A80036;stroke-width:0.75;"/><!--MD5=[2a0b371ec03d2c21e471fa956f48a495]
link Other_Sensors to AC--><path codeLine="230" d="M489.9525,510.3733 C498.6075,510.3733 507.2625,510.3733 515.91,510.3733 " fill="none" id="Other_Sensors-AC" style="stroke:#A80036;stroke-width:0.75;"/><!--MD5=[cbb222f50bcb791e9720287055fe13dd]
link Other_Sensors to Fridge--><path codeLine="231" d="M398.0775,573.8383 C396.4575,592.5583 394.7475,612.2533 393.3975,627.9283 " fill="none" id="Other_Sensors-Fridge" style="stroke:#A80036;stroke-width:0.75;"/><!--MD5=[bde99af21072dc4abd6c3e9790e945d2]
link Other_Sensors to Lights_Fans--><path codeLine="232" d="M456.1575,573.8383 C468.9225,589.0333 482.22,604.8733 493.815,618.6808 " fill="none" id="Other_Sensors-Lights_Fans" style="stroke:#A80036;stroke-width:0.75;"/><!--MD5=[9816221c84b92aca30c282d28f000dea]
link Other_Sensors to Pumps--><path codeLine="233" d="M349.245,573.8383 C336.0975,589.0333 322.395,604.8733 310.4475,618.6808 " fill="none" id="Other_Sensors-Pumps" style="stroke:#A80036;stroke-width:0.75;"/><!--MD5=[f4051e061112c5a67383a685ff83d16a]
link NMEA_Mux to NMEA_0183--><path codeLine="235" d="M683.25,537.8083 C683.25,561.4483 683.25,596.1658 683.25,622.3033 " fill="none" id="NMEA_Mux-NMEA_0183" style="stroke:#A80036;stroke-width:0.75;"/><!--MD5=[993848724ee1e0bda2efd2c10d093eb0]
link NMEA_Mux to AP--><path codeLine="236" d="M704.5725,537.8083 C729.7575,569.3308 770.6775,620.5408 790.1025,644.8558 " fill="none" id="NMEA_Mux-AP" style="stroke:#A80036;stroke-width:0.75;"/><!--MD5=[4c412d33c9dd3373fedf634d2cfe895b]
link Esp32 to Lora--><path codeLine="238" d="M927.795,530.9983 C949.47,555.9058 986.835,598.8433 1012.155,627.9433 " fill="none" id="Esp32-Lora" style="stroke:#A80036;stroke-width:0.75;"/><!--MD5=[3a78a92175d5b8f917843889fc4ac663]
link Esp32 to Winches--><path codeLine="239" d="M910.5,530.9983 C910.5,555.9058 910.5,598.8433 910.5,627.9433 " fill="none" id="Esp32-Winches" style="stroke:#A80036;stroke-width:0.75;"/><!--MD5=[090045518a7210d3fe050bd4b1b61143]
link Cloud_Internet to Dish_Router--><path codeLine="241" d="M819.54,69.7708 C829.9575,84.4708 842.1675,101.7058 851.385,114.7108 " fill="none" id="Cloud_Internet-Dish_Router" style="stroke:#A80036;stroke-width:0.75;"/><!--MD5=[0417bd4aebf7681efb342db5775863ca]
link Cloud_Internet to Router--><path codeLine="242" d="M845.04,56.7058 C872.1225,68.9758 904.6725,88.0408 924.75,114.7483 C944.115,140.5033 949.635,178.8883 951.18,200.9533 " fill="none" id="Cloud_Internet-Router" style="stroke:#A80036;stroke-width:0.75;"/><!--MD5=[6d4697dd1a4fa0e14865453f969898e5]
link Cloud_Internet to Iridium--><path codeLine="243" d="M750.93,62.1883 C713.01,80.5708 660.975,105.7933 629.3775,121.1083 " fill="none" id="Cloud_Internet-Iridium" style="stroke:#A80036;stroke-width:0.75;"/><!--MD5=[f7b1ed679f3dcc8891234d56821c2a8b]
link Cloud_Internet to Remote_Desktop--><path codeLine="244" d="M776.46,69.7708 C764.265,86.9758 749.6175,107.6458 740.19,120.9508 " fill="none" id="Cloud_Internet-Remote_Desktop" style="stroke:#A80036;stroke-width:0.75;"/><!--MD5=[f7c22a6020875df2ba44dffafefaebb5]
link Skipper to Touchscreen--><path codeLine="246" d="M337.44,60.8683 C326.115,75.3058 312.0075,95.1958 303,114.7483 C289.785,143.4208 282.2175,179.6533 278.6175,200.7658 " fill="none" id="Skipper-Touchscreen" style="stroke:#A80036;stroke-width:0.75;"/><!--MD5=[180a6a48d329b5088bf365124668f177]
link Skipper to Speakers--><path codeLine="247" d="M337.5,48.7258 C311.325,62.4808 261.4125,89.2933 220.5,114.7483 C171.8775,145.0033 117.0225,184.2133 89.0625,204.5908 " fill="none" id="Skipper-Speakers" style="stroke:#A80036;stroke-width:0.75;"/><!--MD5=[18622fb937e9a958838b56c5905cf190]
link Skipper to Mic--><path codeLine="248" d="M337.4325,44.8333 C286.8375,60.1333 143.085,103.6033 75.9075,123.9133 " fill="none" id="Skipper-Mic" style="stroke:#A80036;stroke-width:0.75;"/><!--MD5=[b5f99795dccb66293530d697261f575d]
link Skipper to Cameras--><path codeLine="249" d="M337.4475,55.5658 C298.5,90.4783 207.225,172.3183 171.105,204.7033 " fill="none" id="Skipper-Cameras" style="stroke:#A80036;stroke-width:0.75;"/><!--MD5=[4d7243369b38bcf5d3d8f8df86a5cab3]
link Skipper to Iridium--><path codeLine="250" d="M373.59,46.3783 C414.255,62.1208 513.48,100.5433 566.595,121.1083 " fill="none" id="Skipper-Iridium" style="stroke:#A80036;stroke-width:0.75;"/><!--MD5=[c0261e63bc2c3c7d09c0762b33b29a4a]
link Skipper to SSB--><path codeLine="251" d="M373.635,45.6733 C402.1725,56.2933 458.0925,80.0608 495,114.7483 C521.8425,139.9783 541.995,178.7233 552.15,200.9608 " fill="none" id="Skipper-SSB" style="stroke:#A80036;stroke-width:0.75;"/><!--MD5=[7055ac5873383501a6665c2abfcc17ee]
link Skipper to SmartPhone--><path codeLine="252" d="M355.5,69.7708 C355.5,84.4708 355.5,101.7058 355.5,114.7108 " fill="none" id="Skipper-SmartPhone" style="stroke:#A80036;stroke-width:0.75;"/><!--MD5=[9e619f9f7e27f8b7daf8036513ac83ac]
link Skipper to Keyboard_Mouse--><path codeLine="253" d="M373.56,57.2908 C389.9625,73.5658 414.1275,97.5433 431.1975,114.4783 " fill="none" id="Skipper-Keyboard_Mouse" style="stroke:#A80036;stroke-width:0.75;"/><!--MD5=[791020c57217bb146034c35bb978d496]
link Skipper to Remote_Desktop--><path codeLine="254" d="M373.7325,43.8958 C420.4725,55.5133 548.3775,87.3958 654.75,114.7483 C662.6475,116.7808 671.01,118.9483 679.1775,121.0858 " fill="none" id="Skipper-Remote_Desktop" style="stroke:#A80036;stroke-width:0.75;"/><!--MD5=[1ef34c64bcdc8bec167c051a117c1295]
@startuml

actor Skipper [
 Skipper
]

node RPI [
 <b>Rpi4, BBN OS
 - - - -
 Local WiFi
 CanBus Interface
 Sound Card
 SSD
]

rectangle GPS [
 GPS USB
]

rectangle IMU [
 IMU
 - - - -
 compass, gyro, accel
]

rectangle NMEA_2000 [
 <b>NMEA2000 Bus
 - - - -
 engine sensors,
 fishfinder, sonar,
 etc
]

node NMEA_Mux [
 NMEA Multiplexer
 - - - -
 bidirectional Seatalk1
]

rectangle NMEA_0183 [
 <b>NMEA 0183 Devices
 - - - -
 AIS transducer/receiver
 GPS, VHF, compass
 Wind, Depth, Speed
]

rectangle AP [
 Autopilot
]

node Eth_Hub [
 Ethernet Hub
]

node USB_Hub [
 USB Hub
]

node Router [
 LTE/WiFi Router
]

rectangle Dish_Router [
 StarLink Router,
 Dish
]

node Radar [
 Radar
]

node Touchscreen [
 <b>HDMI Touchscreen
]

rectangle Speakers [
 Speakers
]

rectangle Mic [
 Microphone
]

rectangle Cameras [
 Cameras
]

node SDR [
 SDR Radio
]

node SSB [
 SSB Radio
]

cloud WiFi_Local [
 Local WiFi
]

rectangle Iridium [
 Iridium Phone
]

rectangle Other_Sensors [
 Other_Sensors
 - - - -
 IoT, 1w, i2c, etc
 batteries monitoring
 chargers (wind, solar, diesel gen)
 fluid levels
 env temp/pressure/humid
 dangerous gases sensors
 lightning strike sensors
]

rectangle Remote_Desktop [
 Remote Desktop (VNC)
]

node AC [
 A/C
 Heater
]

node Pumps [
 Pumps
 - - - -
 Bilge
 Fresh Water
 Black Water
]

node Fridge [
 Fridge
 Watermaker
 Live well
]

rectangle Lights_Fans [
 Lights: (Nav, Anchor,
 Running, Mast, Cabin,
 Underwater, Search, etc)
 Fans
 Bilge/Engine Blower
]

rectangle Keyboard_Mouse [
 Keyboard
 Mouse
]

rectangle Weather [
 NavTex
 WeatherFax
 Barograph
]

rectangle SiriusXM [
 SiriusXM Marine
]

rectangle SmartPhone [
 SmartPhones
 Tablets
]

database NAS [
 NAS
 - - - -
 Audio/Video Lib
 Charts, Backups, Tracks,
 Docs, Logs,
 Crew Docs, Float Plans,
 Inventory, Provisioning,
 Time Series Data, etc
]

node Winches [
 Anchor Windlass
 Power Winches
 Bow Thruster
]

cloud Cloud_Internet [
 <b>Internet
 Cloud Storage
 Cloud Services
]

cloud Lora [
 LoraWAN
 Asset Tracking
 Dinghy Locator
]

rectangle Esp32 [
 m5stack,
 arduino
]

RPI -l- IMU
RPI - - NMEA_2000
RPI - - NMEA_Mux
RPI -u- Eth_Hub
RPI - - USB_Hub
RPI -u- Touchscreen
RPI -u- Cameras
RPI -u-> Speakers
RPI -u- Mic
RPI -u- SSB
RPI -u- Iridium
RPI - - Other_Sensors
RPI -d- Esp32
RPI -u- WiFi_Local
RPI -u- Keyboard_Mouse

SmartPhone - - WiFi_Local

SiriusXM - - NMEA_2000

Eth_Hub -r- Router
Eth_Hub - - Radar
Eth_Hub - - NAS
Eth_Hub -u- Dish_Router

USB_Hub - - SDR
USB_Hub - - Weather
USB_Hub -r- GPS

Other_Sensors -r- AC
Other_Sensors - - Fridge
Other_Sensors - - Lights_Fans
Other_Sensors - - Pumps

NMEA_Mux - - NMEA_0183
NMEA_Mux - - AP

Esp32 - - Lora
Esp32 - - Winches

Cloud_Internet - - Dish_Router
Cloud_Internet - - Router
Cloud_Internet - - Iridium
Cloud_Internet - - Remote_Desktop

Skipper - - Touchscreen
Skipper - - Speakers
Skipper - - Mic
Skipper - - Cameras
Skipper - - Iridium
Skipper - - SSB
Skipper - - SmartPhone
Skipper - - Keyboard_Mouse
Skipper - - Remote_Desktop

@enduml

PlantUML version 1.2021.00(Sun Jan 10 05:25:05 EST 2021)
(GPL source distribution)
Java Runtime: OpenJDK Runtime Environment
JVM: OpenJDK 64-Bit Server VM
Default Encoding: Cp1252
Language: en
Country: US
--></g></svg>