<?xml version="1.0" encoding="UTF-8" standalone="no"?><svg xmlns="http://www.w3.org/2000/svg" xmlns:xlink="http://www.w3.org/1999/xlink" contentScriptType="application/ecmascript" contentStyleType="text/css" height="759.75px" preserveAspectRatio="none" style="width:1124px;height:759px;" version="1.1" viewBox="0 0 1124 759" width="1124.25px" zoomAndPan="magnify"><defs><filter height="300%" id="f19whcx82pq8t3" width="300%" x="-1" y="-1"><feGaussianBlur result="blurOut" stdDeviation="1.5"/><feColorMatrix in="blurOut" result="blurOut2" type="matrix" values="0 0 0 0 0 0 0 0 0 0 0 0 0 0 0 0 0 0 .4 0"/><feOffset dx="3.0" dy="3.0" in="blurOut2" result="blurOut3"/><feBlend in="SourceGraphic" in2="blurOut3" mode="normal"/></filter></defs><g><!--MD5=[f50827fad462c3f51a79aa3f1564e3ff]
entity Skipper--><ellipse cx="413.25" cy="14.6233" fill="#FEFECE" filter="url(#f19whcx82pq8t3)" rx="6" ry="6" style="stroke:#A80036;stroke-width:1.125;"/><path d="M413.25,20.6233 L413.25,40.8733 M403.5,26.6233 L423,26.6233 M413.25,40.8733 L403.5,52.1233 M413.25,40.8733 L423,52.1233 " fill="none" filter="url(#f19whcx82pq8t3)" style="stroke:#A80036;stroke-width:1.125;"/><text fill="#000000" font-family="sans-serif" font-size="10.5" lengthAdjust="spacing" textLength="36" x="395.25" y="67.1482">Skipper</text><!--MD5=[56bb6c3bc4df8cdefb957cc5b3ef3a7e]
entity RPI--><polygon fill="#98FB98" filter="url(#f19whcx82pq8t3)" points="346.875,353.2483,354.375,345.7483,458.625,345.7483,458.625,432.7835,451.125,440.2835,346.875,440.2835,346.875,353.2483" style="stroke:#000000;stroke-width:1.125;"/><line style="stroke:#000000;stroke-width:1.125;" x1="451.125" x2="458.625" y1="353.2483" y2="345.7483"/><line style="stroke:#000000;stroke-width:1.125;" x1="346.875" x2="451.125" y1="353.2483" y2="353.2483"/><line style="stroke:#000000;stroke-width:1.125;" x1="451.125" x2="451.125" y1="353.2483" y2="440.2835"/><text fill="#000000" font-family="sans-serif" font-size="10.5" font-weight="bold" lengthAdjust="spacing" textLength="69.75" x="358.125" y="371.6482">Rpi4, BBN OS</text><line style="stroke:#000000;stroke-width:0.75;" x1="346.875" x2="451.125" y1="373.9553" y2="373.9553"/><line style="stroke:#000000;stroke-width:0.75;" x1="451.125" x2="458.625" y1="373.9553" y2="366.4553"/><text fill="#000000" font-family="sans-serif" font-size="10.5" lengthAdjust="spacing" textLength="49.5" x="358.125" y="387.8552">Local WiFi</text><text fill="#000000" font-family="sans-serif" font-size="10.5" lengthAdjust="spacing" textLength="81.75" x="358.125" y="401.0623">CanBus Interface</text><text fill="#000000" font-family="sans-serif" font-size="10.5" lengthAdjust="spacing" textLength="57" x="358.125" y="414.2693">Sound Card</text><text fill="#000000" font-family="sans-serif" font-size="10.5" lengthAdjust="spacing" textLength="21" x="358.125" y="427.4763">SSD</text><!--MD5=[cd1d357e028b96f42ee72ab526715f53]
entity GPS--><rect fill="#FEFECE" filter="url(#f19whcx82pq8t3)" height="28.207" style="stroke:#000000;stroke-width:1.125;" width="60" x="367.5" y="547.1233"/><text fill="#000000" font-family="sans-serif" font-size="10.5" lengthAdjust="spacing" textLength="45" x="375" y="565.5232">GPS USB</text><!--MD5=[ae8265c62b5fdfc486198cf91618d43d]
entity IMU--><rect fill="#FEFECE" filter="url(#f19whcx82pq8t3)" height="47.4141" style="stroke:#000000;stroke-width:1.125;" width="114.75" x="205.875" y="369.3733"/><text fill="#000000" font-family="sans-serif" font-size="10.5" lengthAdjust="spacing" textLength="17.25" x="213.375" y="387.7732">IMU</text><line style="stroke:#000000;stroke-width:0.75;" x1="206.625" x2="319.875" y1="390.0803" y2="390.0803"/><text fill="#000000" font-family="sans-serif" font-size="10.5" lengthAdjust="spacing" textLength="99.75" x="213.375" y="403.9802">compass, gyro, accel</text><!--MD5=[b17a41457b887f0466e22bd7e05c4601]
entity NMEA_2000--><rect fill="#FEFECE" filter="url(#f19whcx82pq8t3)" height="73.8281" style="stroke:#000000;stroke-width:1.125;" width="94.5" x="42" y="524.6233"/><text fill="#000000" font-family="sans-serif" font-size="10.5" font-weight="bold" lengthAdjust="spacing" textLength="78" x="49.5" y="543.0232">NMEA2000 Bus</text><line style="stroke:#000000;stroke-width:0.75;" x1="42.75" x2="135.75" y1="545.3303" y2="545.3303"/><text fill="#000000" font-family="sans-serif" font-size="10.5" lengthAdjust="spacing" textLength="75.75" x="49.5" y="559.2302">engine sensors,</text><text fill="#000000" font-family="sans-serif" font-size="10.5" lengthAdjust="spacing" textLength="79.5" x="49.5" y="572.4373">fishfinder, sonar,</text><text fill="#000000" font-family="sans-serif" font-size="10.5" lengthAdjust="spacing" textLength="14.25" x="49.5" y="585.6443">etc</text><!--MD5=[6eed89ef60fd1dd7e5ad5481c6afc096]
entity NMEA_Mux--><polygon fill="#FEFECE" filter="url(#f19whcx82pq8t3)" points="892.875,541.4983,900.375,533.9983,1024.125,533.9983,1024.125,581.4124,1016.625,588.9124,892.875,588.9124,892.875,541.4983" style="stroke:#000000;stroke-width:1.125;"/><line style="stroke:#000000;stroke-width:1.125;" x1="1016.625" x2="1024.125" y1="541.4983" y2="533.9983"/><line style="stroke:#000000;stroke-width:1.125;" x1="892.875" x2="1016.625" y1="541.4983" y2="541.4983"/><line style="stroke:#000000;stroke-width:1.125;" x1="1016.625" x2="1016.625" y1="541.4983" y2="588.9124"/><text fill="#000000" font-family="sans-serif" font-size="10.5" lengthAdjust="spacing" textLength="81.75" x="904.125" y="559.8982">NMEA Multiplexer</text><line style="stroke:#000000;stroke-width:0.75;" x1="892.875" x2="1016.625" y1="562.2053" y2="562.2053"/><line style="stroke:#000000;stroke-width:0.75;" x1="1016.625" x2="1024.125" y1="562.2053" y2="554.7053"/><text fill="#000000" font-family="sans-serif" font-size="10.5" lengthAdjust="spacing" textLength="101.25" x="904.125" y="576.1052">bidirectional Seatalk1</text><!--MD5=[ddada9cd7021283f3e70010119e05df8]
entity NMEA_Eth_Mux--><polygon fill="#FEFECE" filter="url(#f19whcx82pq8t3)" points="718.125,382.4983,725.625,374.9983,873.375,374.9983,873.375,403.2053,865.875,410.7053,718.125,410.7053,718.125,382.4983" style="stroke:#000000;stroke-width:1.125;"/><line style="stroke:#000000;stroke-width:1.125;" x1="865.875" x2="873.375" y1="382.4983" y2="374.9983"/><line style="stroke:#000000;stroke-width:1.125;" x1="718.125" x2="865.875" y1="382.4983" y2="382.4983"/><line style="stroke:#000000;stroke-width:1.125;" x1="865.875" x2="865.875" y1="382.4983" y2="410.7053"/><text fill="#000000" font-family="sans-serif" font-size="10.5" lengthAdjust="spacing" textLength="125.25" x="729.375" y="400.8982">NMEA Ethernet Multiplexer</text><!--MD5=[1eaf4d2f8be208adf81d4b0ad8be7432]
entity NMEA_0183--><rect fill="#FEFECE" filter="url(#f19whcx82pq8t3)" height="73.8281" style="stroke:#000000;stroke-width:1.125;" width="126" x="740.25" y="524.6233"/><text fill="#000000" font-family="sans-serif" font-size="10.5" font-weight="bold" lengthAdjust="spacing" textLength="103.5" x="747.75" y="543.0232">NMEA 0183 Devices</text><line style="stroke:#000000;stroke-width:0.75;" x1="741" x2="865.5" y1="545.3303" y2="545.3303"/><text fill="#000000" font-family="sans-serif" font-size="10.5" lengthAdjust="spacing" textLength="111" x="747.75" y="559.2302">AIS transducer/receiver</text><text fill="#000000" font-family="sans-serif" font-size="10.5" lengthAdjust="spacing" textLength="96" x="747.75" y="572.4373">GPS, VHF, compass</text><text fill="#000000" font-family="sans-serif" font-size="10.5" lengthAdjust="spacing" textLength="95.25" x="747.75" y="585.6443">Wind, Depth, Speed</text><!--MD5=[31e3ec59327e273962ce661ad70afaa5]
entity AP--><rect fill="#FEFECE" filter="url(#f19whcx82pq8t3)" height="28.207" style="stroke:#000000;stroke-width:1.125;" width="56.25" x="930.375" y="695.9983"/><text fill="#000000" font-family="sans-serif" font-size="10.5" lengthAdjust="spacing" textLength="41.25" x="937.875" y="714.3982">Autopilot</text><!--MD5=[547615c2c8915297a73af811d5dbf318]
entity Eth_Hub--><polygon fill="#FEFECE" filter="url(#f19whcx82pq8t3)" points="856.125,233.9983,863.625,226.4983,948.375,226.4983,948.375,254.7053,940.875,262.2053,856.125,262.2053,856.125,233.9983" style="stroke:#000000;stroke-width:1.125;"/><line style="stroke:#000000;stroke-width:1.125;" x1="940.875" x2="948.375" y1="233.9983" y2="226.4983"/><line style="stroke:#000000;stroke-width:1.125;" x1="856.125" x2="940.875" y1="233.9983" y2="233.9983"/><line style="stroke:#000000;stroke-width:1.125;" x1="940.875" x2="940.875" y1="233.9983" y2="262.2053"/><text fill="#000000" font-family="sans-serif" font-size="10.5" lengthAdjust="spacing" textLength="62.25" x="867.375" y="252.3982">Ethernet Hub</text><!--MD5=[7968f28c13df0538bc57173754511f0e]
entity USB_Hub--><polygon fill="#FEFECE" filter="url(#f19whcx82pq8t3)" points="269.25,550.8733,276.75,543.3733,341.25,543.3733,341.25,571.5803,333.75,579.0803,269.25,579.0803,269.25,550.8733" style="stroke:#000000;stroke-width:1.125;"/><line style="stroke:#000000;stroke-width:1.125;" x1="333.75" x2="341.25" y1="550.8733" y2="543.3733"/><line style="stroke:#000000;stroke-width:1.125;" x1="269.25" x2="333.75" y1="550.8733" y2="550.8733"/><line style="stroke:#000000;stroke-width:1.125;" x1="333.75" x2="333.75" y1="550.8733" y2="579.0803"/><text fill="#000000" font-family="sans-serif" font-size="10.5" lengthAdjust="spacing" textLength="42" x="280.5" y="569.2732">USB Hub</text><!--MD5=[953a8c67cfe21abaf9bf45dad8506ca8]
entity Router--><polygon fill="#FEFECE" filter="url(#f19whcx82pq8t3)" points="974.625,233.9983,982.125,226.4983,1083.375,226.4983,1083.375,254.7053,1075.875,262.2053,974.625,262.2053,974.625,233.9983" style="stroke:#000000;stroke-width:1.125;"/><line style="stroke:#000000;stroke-width:1.125;" x1="1075.875" x2="1083.375" y1="233.9983" y2="226.4983"/><line style="stroke:#000000;stroke-width:1.125;" x1="974.625" x2="1075.875" y1="233.9983" y2="233.9983"/><line style="stroke:#000000;stroke-width:1.125;" x1="1075.875" x2="1075.875" y1="233.9983" y2="262.2053"/><text fill="#000000" font-family="sans-serif" font-size="10.5" lengthAdjust="spacing" textLength="78.75" x="985.875" y="252.3982">LTE/WiFi Router</text><!--MD5=[4c7a5f0f4d710d941c4df063500e34ba]
entity Dish_Router--><rect fill="#FEFECE" filter="url(#f19whcx82pq8t3)" height="41.4141" style="stroke:#000000;stroke-width:1.125;" width="92.25" x="869.625" y="114.7483"/><text fill="#000000" font-family="sans-serif" font-size="10.5" lengthAdjust="spacing" textLength="77.25" x="877.125" y="133.1482">StarLink Router,</text><text fill="#000000" font-family="sans-serif" font-size="10.5" lengthAdjust="spacing" textLength="21" x="877.125" y="146.3552">Dish</text><!--MD5=[af2495f9a90a9f78578178908d6e69bd]
entity Radar--><polygon fill="#FEFECE" filter="url(#f19whcx82pq8t3)" points="899.625,382.4983,907.125,374.9983,958.875,374.9983,958.875,403.2053,951.375,410.7053,899.625,410.7053,899.625,382.4983" style="stroke:#000000;stroke-width:1.125;"/><line style="stroke:#000000;stroke-width:1.125;" x1="951.375" x2="958.875" y1="382.4983" y2="374.9983"/><line style="stroke:#000000;stroke-width:1.125;" x1="899.625" x2="951.375" y1="382.4983" y2="382.4983"/><line style="stroke:#000000;stroke-width:1.125;" x1="951.375" x2="951.375" y1="382.4983" y2="410.7053"/><text fill="#000000" font-family="sans-serif" font-size="10.5" lengthAdjust="spacing" textLength="29.25" x="910.875" y="400.8982">Radar</text><!--MD5=[330778c508571bc43f7e5523a03ca602]
entity Touchscreen--><polygon fill="#FEFECE" filter="url(#f19whcx82pq8t3)" points="351.375,233.9983,358.875,226.4983,481.125,226.4983,481.125,254.7053,473.625,262.2053,351.375,262.2053,351.375,233.9983" style="stroke:#000000;stroke-width:1.125;"/><line style="stroke:#000000;stroke-width:1.125;" x1="473.625" x2="481.125" y1="233.9983" y2="226.4983"/><line style="stroke:#000000;stroke-width:1.125;" x1="351.375" x2="473.625" y1="233.9983" y2="233.9983"/><line style="stroke:#000000;stroke-width:1.125;" x1="473.625" x2="473.625" y1="233.9983" y2="262.2053"/><text fill="#000000" font-family="sans-serif" font-size="10.5" font-weight="bold" lengthAdjust="spacing" textLength="99.75" x="362.625" y="252.3982">HDMI Touchscreen</text><!--MD5=[4c50005c0fadedfb0a14f6d1969de37e]
entity Speakers--><rect fill="#FEFECE" filter="url(#f19whcx82pq8t3)" height="28.207" style="stroke:#000000;stroke-width:1.125;" width="60" x="148.5" y="230.2483"/><text fill="#000000" font-family="sans-serif" font-size="10.5" lengthAdjust="spacing" textLength="45" x="156" y="248.6482">Speakers</text><!--MD5=[cf5c42a4fc4011dea04a3daf6c677d92]
entity Mic--><rect fill="#FEFECE" filter="url(#f19whcx82pq8t3)" height="28.207" style="stroke:#000000;stroke-width:1.125;" width="70.5" x="180" y="121.1233"/><text fill="#000000" font-family="sans-serif" font-size="10.5" lengthAdjust="spacing" textLength="55.5" x="187.5" y="139.5232">Microphone</text><!--MD5=[1b76df3a4bd008a21abb34082ebb9919]
entity Cameras--><rect fill="#FEFECE" filter="url(#f19whcx82pq8t3)" height="87.0352" style="stroke:#000000;stroke-width:1.125;" width="90" x="234.75" y="200.9983"/><text fill="#000000" font-family="sans-serif" font-size="10.5" lengthAdjust="spacing" textLength="42.75" x="242.25" y="219.3982">Cameras</text><line style="stroke:#000000;stroke-width:0.75;" x1="235.5" x2="324" y1="221.7053" y2="221.7053"/><text fill="#000000" font-family="sans-serif" font-size="10.5" lengthAdjust="spacing" textLength="75" x="242.25" y="235.6052">WebCam, Mast,</text><text fill="#000000" font-family="sans-serif" font-size="10.5" lengthAdjust="spacing" textLength="60" x="242.25" y="248.8123">Night (FLIR),</text><text fill="#000000" font-family="sans-serif" font-size="10.5" lengthAdjust="spacing" textLength="70.5" x="242.25" y="262.0193">low light vision,</text><text fill="#000000" font-family="sans-serif" font-size="10.5" lengthAdjust="spacing" textLength="72" x="242.25" y="275.2263">IP, docking, etc</text><!--MD5=[d92e9b93d5ce4574427d5f042afd2321]
entity SDR--><polygon fill="#FEFECE" filter="url(#f19whcx82pq8t3)" points="368.25,699.7483,375.75,692.2483,450.75,692.2483,450.75,720.4553,443.25,727.9553,368.25,727.9553,368.25,699.7483" style="stroke:#000000;stroke-width:1.125;"/><line style="stroke:#000000;stroke-width:1.125;" x1="443.25" x2="450.75" y1="699.7483" y2="692.2483"/><line style="stroke:#000000;stroke-width:1.125;" x1="368.25" x2="443.25" y1="699.7483" y2="699.7483"/><line style="stroke:#000000;stroke-width:1.125;" x1="443.25" x2="443.25" y1="699.7483" y2="727.9553"/><text fill="#000000" font-family="sans-serif" font-size="10.5" lengthAdjust="spacing" textLength="52.5" x="379.5" y="718.1482">SDR Radio</text><!--MD5=[6ba27cb6ab6c98fb8258247a8e3f62be]
entity SSB--><polygon fill="#FEFECE" filter="url(#f19whcx82pq8t3)" points="53.25,124.8733,60.75,117.3733,134.25,117.3733,134.25,145.5803,126.75,153.0803,53.25,153.0803,53.25,124.8733" style="stroke:#000000;stroke-width:1.125;"/><line style="stroke:#000000;stroke-width:1.125;" x1="126.75" x2="134.25" y1="124.8733" y2="117.3733"/><line style="stroke:#000000;stroke-width:1.125;" x1="53.25" x2="126.75" y1="124.8733" y2="124.8733"/><line style="stroke:#000000;stroke-width:1.125;" x1="126.75" x2="126.75" y1="124.8733" y2="153.0803"/><text fill="#000000" font-family="sans-serif" font-size="10.5" lengthAdjust="spacing" textLength="51" x="64.5" y="143.2732">SSB Radio</text><!--MD5=[dd29c4e1cef6fbff2e61a9551f8f2bf2]
entity WiFi_Local--><path d="M515.0326,232.7166 C517.764,227.9445 521.0621,227.9705 524.6995,231.6845 C527.2637,226.2549 531.6058,226.2143 535.0143,230.8163 C536.9752,225.8043 540.0892,225.349 544.0745,228.5954 C548.1537,223.7166 552.7094,224.7057 555.1511,230.3234 C559.5345,226.6622 562.6355,227.7708 564.9594,232.6803 C567.3546,228.1703 571.8613,228.6127 574.2476,232.6898 C581.6857,233.7525 584.571,238.0598 579.9432,244.7981 C583.5275,250.6249 582.6956,256.4167 574.5717,257.1533 C572.2462,262.3564 569.4466,263.7494 565.0108,259.2282 C562.522,264.062 558.2613,265.329 554.2719,260.9838 C552.1115,265.3768 549.1051,267.1244 545.2128,262.7792 C540.9674,267.8468 536.1635,267.1492 533.8563,260.8438 C529.3955,264.0104 526.4767,263.6134 524.6584,258.0573 C520.8615,262.3942 516.8108,262.7996 514.3182,256.7578 C507.2218,254.9743 506.3385,251.4323 510.5779,245.7848 C505.2257,240.162 507.8679,234.0726 515.0326,232.7166 " fill="#FEFECE" filter="url(#f19whcx82pq8t3)" style="stroke:#000000;stroke-width:1.125;"/><text fill="#000000" font-family="sans-serif" font-size="10.5" lengthAdjust="spacing" textLength="49.5" x="519" y="248.6482">Local WiFi</text><!--MD5=[82bbb9a7a666b856fa28a649fd3171aa]
entity Iridium--><rect fill="#FEFECE" filter="url(#f19whcx82pq8t3)" height="28.207" style="stroke:#000000;stroke-width:1.125;" width="79.5" x="612" y="121.1233"/><text fill="#000000" font-family="sans-serif" font-size="10.5" lengthAdjust="spacing" textLength="64.5" x="619.5" y="139.5232">Iridium Phone</text><!--MD5=[8f0c441f12fb738c5e80b28ccd1b0a87]
entity Other_Sensors--><rect fill="#FEFECE" filter="url(#f19whcx82pq8t3)" height="126.6563" style="stroke:#000000;stroke-width:1.125;" width="172.5" x="453.75" y="497.9983"/><text fill="#000000" font-family="sans-serif" font-size="10.5" lengthAdjust="spacing" textLength="72" x="461.25" y="516.3982">Other_Sensors</text><line style="stroke:#000000;stroke-width:0.75;" x1="454.5" x2="625.5" y1="518.7053" y2="518.7053"/><text fill="#000000" font-family="sans-serif" font-size="10.5" lengthAdjust="spacing" textLength="73.5" x="461.25" y="532.6052">IoT, 1w, i2c, etc</text><text fill="#000000" font-family="sans-serif" font-size="10.5" lengthAdjust="spacing" textLength="93.75" x="461.25" y="545.8123">batteries monitoring</text><text fill="#000000" font-family="sans-serif" font-size="10.5" lengthAdjust="spacing" textLength="157.5" x="461.25" y="559.0193">chargers (wind, solar, diesel gen)</text><text fill="#000000" font-family="sans-serif" font-size="10.5" lengthAdjust="spacing" textLength="49.5" x="461.25" y="572.2263">fluid levels</text><text fill="#000000" font-family="sans-serif" font-size="10.5" lengthAdjust="spacing" textLength="120" x="461.25" y="585.4334">env temp/pressure/humid</text><text fill="#000000" font-family="sans-serif" font-size="10.5" lengthAdjust="spacing" textLength="123" x="461.25" y="598.6404">dangerous gases sensors</text><text fill="#000000" font-family="sans-serif" font-size="10.5" lengthAdjust="spacing" textLength="108.75" x="461.25" y="611.8474">lightning strike sensors</text><!--MD5=[869fbf9b9ca9ac4bdf61f7068ab1ff9c]
entity Remote_Desktop--><rect fill="#FEFECE" filter="url(#f19whcx82pq8t3)" height="28.207" style="stroke:#000000;stroke-width:1.125;" width="125.25" x="718.125" y="121.1233"/><text fill="#000000" font-family="sans-serif" font-size="10.5" lengthAdjust="spacing" textLength="110.25" x="725.625" y="139.5232">Remote Desktop (VNC)</text><!--MD5=[0313ddc4f8ed0f4991a51edae0b1647c]
entity AC--><polygon fill="#FEFECE" filter="url(#f19whcx82pq8t3)" points="652.5,544.4983,660,536.9983,714,536.9983,714,578.4124,706.5,585.9124,652.5,585.9124,652.5,544.4983" style="stroke:#000000;stroke-width:1.125;"/><line style="stroke:#000000;stroke-width:1.125;" x1="706.5" x2="714" y1="544.4983" y2="536.9983"/><line style="stroke:#000000;stroke-width:1.125;" x1="652.5" x2="706.5" y1="544.4983" y2="544.4983"/><line style="stroke:#000000;stroke-width:1.125;" x1="706.5" x2="706.5" y1="544.4983" y2="585.9124"/><text fill="#000000" font-family="sans-serif" font-size="10.5" lengthAdjust="spacing" textLength="17.25" x="663.75" y="562.8982">A/C</text><text fill="#000000" font-family="sans-serif" font-size="10.5" lengthAdjust="spacing" textLength="31.5" x="663.75" y="576.1052">Heater</text><!--MD5=[cec077422889c5d3cb551e1217c37df7]
entity Pumps--><polygon fill="#FEFECE" filter="url(#f19whcx82pq8t3)" points="750.375,677.2483,757.875,669.7483,839.625,669.7483,839.625,743.5764,832.125,751.0764,750.375,751.0764,750.375,677.2483" style="stroke:#000000;stroke-width:1.125;"/><line style="stroke:#000000;stroke-width:1.125;" x1="832.125" x2="839.625" y1="677.2483" y2="669.7483"/><line style="stroke:#000000;stroke-width:1.125;" x1="750.375" x2="832.125" y1="677.2483" y2="677.2483"/><line style="stroke:#000000;stroke-width:1.125;" x1="832.125" x2="832.125" y1="677.2483" y2="751.0764"/><text fill="#000000" font-family="sans-serif" font-size="10.5" lengthAdjust="spacing" textLength="32.25" x="761.625" y="695.6482">Pumps</text><line style="stroke:#000000;stroke-width:0.75;" x1="750.375" x2="832.125" y1="697.9553" y2="697.9553"/><line style="stroke:#000000;stroke-width:0.75;" x1="832.125" x2="839.625" y1="697.9553" y2="690.4553"/><text fill="#000000" font-family="sans-serif" font-size="10.5" lengthAdjust="spacing" textLength="23.25" x="761.625" y="711.8552">Bilge</text><text fill="#000000" font-family="sans-serif" font-size="10.5" lengthAdjust="spacing" textLength="59.25" x="761.625" y="725.0623">Fresh Water</text><text fill="#000000" font-family="sans-serif" font-size="10.5" lengthAdjust="spacing" textLength="57" x="761.625" y="738.2693">Black Water</text><!--MD5=[c74dee767baeeec0e713c54a8a4634dc]
entity Fridge--><polygon fill="#FEFECE" filter="url(#f19whcx82pq8t3)" points="477.375,686.6233,484.875,679.1233,565.125,679.1233,565.125,733.7444,557.625,741.2444,477.375,741.2444,477.375,686.6233" style="stroke:#000000;stroke-width:1.125;"/><line style="stroke:#000000;stroke-width:1.125;" x1="557.625" x2="565.125" y1="686.6233" y2="679.1233"/><line style="stroke:#000000;stroke-width:1.125;" x1="477.375" x2="557.625" y1="686.6233" y2="686.6233"/><line style="stroke:#000000;stroke-width:1.125;" x1="557.625" x2="557.625" y1="686.6233" y2="741.2444"/><text fill="#000000" font-family="sans-serif" font-size="10.5" lengthAdjust="spacing" textLength="30.75" x="488.625" y="705.0232">Fridge</text><text fill="#000000" font-family="sans-serif" font-size="10.5" lengthAdjust="spacing" textLength="57.75" x="488.625" y="718.2302">Watermaker</text><text fill="#000000" font-family="sans-serif" font-size="10.5" lengthAdjust="spacing" textLength="39.75" x="488.625" y="731.4373">Live well</text><!--MD5=[0b2190a355246a80d89d74c5c2c53ceb]
entity Lights_Fans--><rect fill="#FEFECE" filter="url(#f19whcx82pq8t3)" height="81.0352" style="stroke:#000000;stroke-width:1.125;" width="132.75" x="591.375" y="669.7483"/><text fill="#000000" font-family="sans-serif" font-size="10.5" lengthAdjust="spacing" textLength="99" x="598.875" y="688.1482">Lights: (Nav, Anchor,</text><text fill="#000000" font-family="sans-serif" font-size="10.5" lengthAdjust="spacing" textLength="105" x="598.875" y="701.3552">Running, Mast, Cabin,</text><text fill="#000000" font-family="sans-serif" font-size="10.5" lengthAdjust="spacing" textLength="117.75" x="598.875" y="714.5623">Underwater, Search, etc)</text><text fill="#000000" font-family="sans-serif" font-size="10.5" lengthAdjust="spacing" textLength="24" x="598.875" y="727.7693">Fans</text><text fill="#000000" font-family="sans-serif" font-size="10.5" lengthAdjust="spacing" textLength="93.75" x="598.875" y="740.9763">Bilge/Engine Blower</text><!--MD5=[593e445c9278762cb4ef7b840df82fac]
entity Keyboard_Mouse--><rect fill="#FEFECE" filter="url(#f19whcx82pq8t3)" height="41.4141" style="stroke:#000000;stroke-width:1.125;" width="60.75" x="606.375" y="223.8733"/><text fill="#000000" font-family="sans-serif" font-size="10.5" lengthAdjust="spacing" textLength="45.75" x="613.875" y="242.2732">Keyboard</text><text fill="#000000" font-family="sans-serif" font-size="10.5" lengthAdjust="spacing" textLength="31.5" x="613.875" y="255.4802">Mouse</text><!--MD5=[6068ed0baf2edbbb46a7f906664363da]
entity Weather--><rect fill="#FEFECE" filter="url(#f19whcx82pq8t3)" height="54.6211" style="stroke:#000000;stroke-width:1.125;" width="72.75" x="268.875" y="682.8733"/><text fill="#000000" font-family="sans-serif" font-size="10.5" lengthAdjust="spacing" textLength="35.25" x="276.375" y="701.2732">NavTex</text><text fill="#000000" font-family="sans-serif" font-size="10.5" lengthAdjust="spacing" textLength="57.75" x="276.375" y="714.4802">WeatherFax</text><text fill="#000000" font-family="sans-serif" font-size="10.5" lengthAdjust="spacing" textLength="50.25" x="276.375" y="727.6873">Barograph</text><!--MD5=[0df37b53dbcc900899e095c990e30b8f]
entity SiriusXM--><rect fill="#FEFECE" filter="url(#f19whcx82pq8t3)" height="28.207" style="stroke:#000000;stroke-width:1.125;" width="90.75" x="43.875" y="378.7483"/><text fill="#000000" font-family="sans-serif" font-size="10.5" lengthAdjust="spacing" textLength="75.75" x="51.375" y="397.1482">SiriusXM Marine</text><!--MD5=[d59b03f458f75ee04d94168ba7ec459b]
entity SmartPhone--><rect fill="#FEFECE" filter="url(#f19whcx82pq8t3)" height="41.4141" style="stroke:#000000;stroke-width:1.125;" width="78.75" x="453.375" y="114.7483"/><text fill="#000000" font-family="sans-serif" font-size="10.5" lengthAdjust="spacing" textLength="63.75" x="460.875" y="133.1482">SmartPhones</text><text fill="#000000" font-family="sans-serif" font-size="10.5" lengthAdjust="spacing" textLength="35.25" x="460.875" y="146.3552">Tablets</text><!--MD5=[13e88d8e4422c8d855b54f0d2bc171be]
entity NAS--><path d="M985.125,340.4983 C985.125,332.9983 1052.25,332.9983 1052.25,332.9983 C1052.25,332.9983 1119.375,332.9983 1119.375,340.4983 L1119.375,445.6975 C1119.375,453.1975 1052.25,453.1975 1052.25,453.1975 C1052.25,453.1975 985.125,453.1975 985.125,445.6975 L985.125,340.4983 " fill="#FEFECE" filter="url(#f19whcx82pq8t3)" style="stroke:#000000;stroke-width:1.125;"/><path d="M985.125,340.4983 C985.125,347.9983 1052.25,347.9983 1052.25,347.9983 C1052.25,347.9983 1119.375,347.9983 1119.375,340.4983 " fill="none" style="stroke:#000000;stroke-width:1.125;"/><text fill="#000000" font-family="sans-serif" font-size="10.5" lengthAdjust="spacing" textLength="20.25" x="992.625" y="361.8982">NAS</text><path d="M985.125,360.4553 C985.125,367.9553 1052.25,367.9553 1052.25,367.9553 C1052.25,367.9553 1119.375,367.9553 1119.375,360.4553 " fill="none" style="stroke:#000000;stroke-width:0.75;"/><text fill="#000000" font-family="sans-serif" font-size="10.5" lengthAdjust="spacing" textLength="74.25" x="992.625" y="378.1052">Audio/Video Lib</text><text fill="#000000" font-family="sans-serif" font-size="10.5" lengthAdjust="spacing" textLength="119.25" x="992.625" y="391.3123">Charts, Backups, Tracks,</text><text fill="#000000" font-family="sans-serif" font-size="10.5" lengthAdjust="spacing" textLength="56.25" x="992.625" y="404.5193">Docs, Logs,</text><text fill="#000000" font-family="sans-serif" font-size="10.5" lengthAdjust="spacing" textLength="113.25" x="992.625" y="417.7263">Crew Docs, Float Plans,</text><text fill="#000000" font-family="sans-serif" font-size="10.5" lengthAdjust="spacing" textLength="110.25" x="992.625" y="430.9334">Inventory, Provisioning,</text><text fill="#000000" font-family="sans-serif" font-size="10.5" lengthAdjust="spacing" textLength="102" x="992.625" y="444.1404">Time Series Data, etc</text><!--MD5=[ee9653e0a8f11fcc17536c9839054b2a]
entity Winches--><polygon fill="#FEFECE" filter="url(#f19whcx82pq8t3)" points="12,686.6233,19.5,679.1233,121.5,679.1233,121.5,733.7444,114,741.2444,12,741.2444,12,686.6233" style="stroke:#000000;stroke-width:1.125;"/><line style="stroke:#000000;stroke-width:1.125;" x1="114" x2="121.5" y1="686.6233" y2="679.1233"/><line style="stroke:#000000;stroke-width:1.125;" x1="12" x2="114" y1="686.6233" y2="686.6233"/><line style="stroke:#000000;stroke-width:1.125;" x1="114" x2="114" y1="686.6233" y2="741.2444"/><text fill="#000000" font-family="sans-serif" font-size="10.5" lengthAdjust="spacing" textLength="79.5" x="23.25" y="705.0232">Anchor Windlass</text><text fill="#000000" font-family="sans-serif" font-size="10.5" lengthAdjust="spacing" textLength="72.75" x="23.25" y="718.2302">Power Winches</text><text fill="#000000" font-family="sans-serif" font-size="10.5" lengthAdjust="spacing" textLength="63" x="23.25" y="731.4373">Bow Thruster</text><!--MD5=[48e79d9335dd0cd53682a5a492aea5d9]
entity Cloud_Internet--><path d="M808.995,14.9541 C810.9843,9.9999 814.113,9.5325 818.0095,12.8841 C820.3686,6.86 823.5352,6.3585 827.9058,11.0215 C830.4934,6.0405 835.3135,4.9621 838.505,10.4076 C841.4449,4.5 846.1534,4.6685 849.7706,9.7107 C852.5095,5.8281 856.8926,5.8353 859.0027,10.3981 C862.664,7.0284 866.9477,7.0647 868.8102,12.4201 C871.8451,8.0303 876.0386,7.8565 879.1522,12.3283 C883.6991,6.9662 887.0882,8.062 890.0515,13.873 C895.3618,16.5818 895.1611,20.1161 890.6583,23.4468 C895.1049,24.909 894.9668,27.3848 892.5256,30.6361 C897.1287,32.8941 898.6488,36.2481 894.2072,40.1113 C897.0829,43.2044 896.4628,46.1103 892.2277,47.2246 C895.2096,50.323 895.3267,53.2156 891.1838,55.4047 C895.1541,58.726 894.7694,61.4612 890.2495,63.8424 C887.1251,68.677 884.0928,70.0958 879.8108,65.0676 C876.9357,69.7086 872.748,70.2089 869.9787,64.9624 C867.2923,71.0583 862.156,70.1524 858.9772,65.4647 C856.8025,70.1089 851.7138,71.407 848.3782,66.794 C844.6064,71.2818 841.6237,70.3537 839.2024,65.4714 C835.6792,70.9702 832.5123,70.5021 828.8802,65.5794 C825.7374,70.5031 822.0444,69.7351 818.8279,65.6618 C814.2163,70.436 810.2206,70.5029 807.3964,63.8706 C803.74,61.6061 803.4263,58.1779 807.2348,55.7646 C802.8726,53.4234 802.8,50.5302 806.8182,47.7532 C802.4401,45.2295 802.862,41.9979 806.4553,39.1383 C803.1018,36.2381 802.7712,33.4069 806.957,30.9698 C803.0252,27.8643 803.6854,24.6342 808.3214,22.9945 C804.3502,19.8859 805.1067,17.4043 808.995,14.9541 " fill="#FEFECE" filter="url(#f19whcx82pq8t3)" style="stroke:#000000;stroke-width:1.125;"/><text fill="#000000" font-family="sans-serif" font-size="10.5" font-weight="bold" lengthAdjust="spacing" textLength="42" x="812.625" y="29.6482">Internet</text><text fill="#000000" font-family="sans-serif" font-size="10.5" lengthAdjust="spacing" textLength="68.25" x="812.625" y="42.8552">Cloud Storage</text><text fill="#000000" font-family="sans-serif" font-size="10.5" lengthAdjust="spacing" textLength="71.25" x="812.625" y="56.0623">Cloud Services</text><!--MD5=[f38da3986c5ca1dec060c2524b9ccddc]
entity Lora--><path d="M155.1187,686.334 C156.6476,682.3117 159.0411,681.8051 162.2695,684.5338 C164.011,680.5766 167.9689,679.9396 170.9447,683.0102 C173.2005,679.5285 176.6956,680.1258 178.6027,683.4051 C181.0542,677.8667 184.2772,678.3996 188.2363,681.7759 C189.8424,677.3829 192.5023,676.9595 195.6875,680.2431 C199.4462,677.009 201.9948,678.0647 204.0595,682.1743 C207.3039,678.5184 209.6524,679.7466 211.7958,683.348 C214.0077,679.9652 217.9405,679.7817 219.9073,683.6231 C223.2386,679.8015 226.3579,680.8112 228.0732,685.2254 C231.1946,680.469 234.8305,680.7953 237.7112,685.4714 C242.2925,687.4679 242.2102,691.4314 238.5655,694.2301 C242.7851,696.409 243.495,699.4045 239.5065,702.5156 C244.8877,703.9303 244.9934,707.628 241.8764,711.328 C245.8397,714.7676 244.0907,718.621 239.8453,720.1763 C243.2869,723.1064 242.9647,726.1072 238.7367,727.9425 C242.3924,731.4031 241.8825,734.7599 237.0124,736.5033 C234.5384,739.6414 231.8081,739.7564 229.3088,736.534 C226.6251,740.2136 223.4988,740.5957 221.1837,736.1648 C218.8933,741.2145 216.0478,741.5229 212.4023,737.4724 C210.0872,740.7904 207.2185,741.3439 204.8072,737.5756 C202.246,741.249 199.1243,741.3922 196.2398,737.9657 C193.2534,740.9637 190.3504,740.4763 188.2608,736.8805 C185.6335,740.3242 181.743,741.0651 179.5271,736.4353 C177.0142,739.9379 173.8396,740.8023 171.4108,736.3495 C168.8684,739.9671 166.2512,740.335 163.0799,737.1158 C159.6336,740.1419 156.5001,739.9693 154.7029,735.3167 C150.795,733.7213 149.4482,730.3252 153.3317,727.3831 C148.8626,724.8638 148.7482,721.9624 153.1227,719.2168 C149.1897,716.3477 149.4367,713.9874 153.3426,711.3371 C149.3439,708.0614 150.0181,705.0172 154.2373,702.5812 C150.5737,700.1371 150.8841,696.7599 154.4607,694.5163 C151.2234,691.5867 150.8998,688.664 155.1187,686.334 " fill="#FEFECE" filter="url(#f19whcx82pq8t3)" style="stroke:#000000;stroke-width:1.125;"/><text fill="#000000" font-family="sans-serif" font-size="10.5" lengthAdjust="spacing" textLength="45" x="159" y="701.2732">LoraWAN</text><text fill="#000000" font-family="sans-serif" font-size="10.5" lengthAdjust="spacing" textLength="70.5" x="159" y="714.4802">Asset Tracking</text><text fill="#000000" font-family="sans-serif" font-size="10.5" lengthAdjust="spacing" textLength="72" x="159" y="727.6873">Dinghy Locator</text><!--MD5=[3ff5d2fb9a8117c537632aae671cabcb]
entity Esp32--><rect fill="#FEFECE" filter="url(#f19whcx82pq8t3)" height="41.4141" style="stroke:#000000;stroke-width:1.125;" width="57" x="176.25" y="540.7483"/><text fill="#000000" font-family="sans-serif" font-size="10.5" lengthAdjust="spacing" textLength="42" x="183.75" y="559.1482">m5stack,</text><text fill="#000000" font-family="sans-serif" font-size="10.5" lengthAdjust="spacing" textLength="36" x="183.75" y="572.3552">arduino</text><!--MD5=[c6d492c1e608e21002a1e79a049df954]
link IMU to RPI--><path codeLine="210" d="M320.7375,392.9983 C329.3925,392.9983 338.04,392.9983 346.6875,392.9983 " fill="none" id="IMU-RPI" style="stroke:#A80036;stroke-width:0.75;"/><!--MD5=[a860cb1a85174d4976dae9c4f32e49f8]
link RPI to NMEA_2000--><path codeLine="211" d="M353.805,440.2633 C347.355,445.0108 340.5975,449.4058 333.75,452.9983 C264.165,489.5233 232.4025,461.6008 162.75,497.9983 C149.3775,504.9883 136.32,514.7983 125.0175,524.5933 " fill="none" id="RPI-NMEA_2000" style="stroke:#A80036;stroke-width:0.75;"/><!--MD5=[f75ecebad45d24d2cfeff8c08b96d55d]
link RPI to NMEA_Mux--><path codeLine="212" d="M458.8275,404.5183 C576.5625,427.3408 841.8,479.9683 879.75,497.9983 C898.68,506.9908 917.1675,521.3158 931.47,533.9983 " fill="none" id="RPI-NMEA_Mux" style="stroke:#A80036;stroke-width:0.75;"/><!--MD5=[3577f1ad49970e59a1e1697b6041c28e]
link Eth_Hub to RPI--><path codeLine="213" d="M855.93,258.8833 C763.845,285.9808 558.105,346.5283 458.67,375.7933 " fill="none" id="Eth_Hub-RPI" style="stroke:#A80036;stroke-width:0.75;"/><!--MD5=[1d20bbed48bf86b90ee5f13bc892e6f4]
link RPI to USB_Hub--><path codeLine="214" d="M375.4575,440.4508 C355.4625,474.6808 329.445,519.2158 315.3675,543.3133 " fill="none" id="RPI-USB_Hub" style="stroke:#A80036;stroke-width:0.75;"/><!--MD5=[920310a45a910abea0e78fc3f928b9c7]
link Touchscreen to RPI--><path codeLine="215" d="M414.645,262.6858 C412.785,282.9958 409.6275,317.3533 407.0325,345.5908 " fill="none" id="Touchscreen-RPI" style="stroke:#A80036;stroke-width:0.75;"/><!--MD5=[e542bf0be54ca915b2a2c465769198ce]
link Cameras to RPI--><path codeLine="216" d="M315.66,288.1633 C330.7575,306.2158 348.3675,327.2608 363.7875,345.6808 " fill="none" id="Cameras-RPI" style="stroke:#A80036;stroke-width:0.75;"/><!--MD5=[738bdf1011746a1c073c591ef970d801]
reverse link Speakers to RPI--><path codeLine="217" d="M192.045,261.7258 C199.8675,270.4333 210.3075,280.7833 221.25,287.9983 C266.205,317.6458 287.7,305.0833 333.75,332.9983 C339.96,336.7633 346.17,341.0908 352.17,345.6508 " fill="none" id="Speakers-backto-RPI" style="stroke:#A80036;stroke-width:0.75;"/><polygon fill="#A80036" points="189.495,258.8383,191.7239,265.8807,191.981,261.6458,196.2159,261.903,189.495,258.8383" style="stroke:#A80036;stroke-width:0.75;"/><!--MD5=[e8f921cc9d34d3902ba4bcef1d5bd4c3]
link Mic to RPI--><path codeLine="218" d="M188.0025,149.7208 C169.29,160.7158 145.92,178.1233 135,200.9983 C118.3425,235.8883 110.865,257.7883 135,287.9983 C191.5275,358.7608 252.84,292.2958 333.75,332.9983 C340.7325,336.5083 347.595,340.8808 354.12,345.6433 " fill="none" id="Mic-RPI" style="stroke:#A80036;stroke-width:0.75;"/><!--MD5=[9d6d2f6c2f4d2fc3bb3ff0dee1317c54]
link SSB to RPI--><path codeLine="219" d="M90.2625,153.5833 C85.095,184.9333 79.4325,250.9408 114,287.9983 C182.0025,360.8983 244.23,289.1158 333.75,332.9983 C340.8375,336.4708 347.79,340.8508 354.39,345.6433 " fill="none" id="SSB-RPI" style="stroke:#A80036;stroke-width:0.75;"/><!--MD5=[ba43404d2398351bd02a197b89c6dc04]
link Iridium to RPI--><path codeLine="220" d="M660.39,149.6833 C677.2425,178.0333 710.34,244.5508 680.25,287.9983 C630.435,359.9233 524.4075,382.2958 458.7975,389.2108 " fill="none" id="Iridium-RPI" style="stroke:#A80036;stroke-width:0.75;"/><!--MD5=[72d1981d7f6e9ae87e7ce2d696ef1c70]
link RPI to Other_Sensors--><path codeLine="221" d="M441.165,440.4508 C455.7525,458.1958 472.6275,478.7083 488.25,497.7058 " fill="none" id="RPI-Other_Sensors" style="stroke:#A80036;stroke-width:0.75;"/><!--MD5=[e6b62623cb5cffca99b55a6fc459f471]
link RPI to Esp32--><path codeLine="222" d="M350.445,440.3908 C344.9175,444.7933 339.2925,449.0758 333.75,452.9983 C301.095,476.1358 286.2225,472.0558 255.75,497.9983 C241.125,510.4483 227.5425,527.5108 218.085,540.6808 " fill="none" id="RPI-Esp32" style="stroke:#A80036;stroke-width:0.75;"/><!--MD5=[abd7622213c1ceda57fd7e6c8ce2488a]
link WiFi_Local to RPI--><path codeLine="223" d="M527.025,262.6858 C507.5475,282.9958 474.585,317.3533 447.5025,345.5908 " fill="none" id="WiFi_Local-RPI" style="stroke:#A80036;stroke-width:0.75;"/><!--MD5=[9befc12befc76c6c24a0e27f7270b253]
link Keyboard_Mouse to RPI--><path codeLine="224" d="M618.7275,265.1908 C611.265,272.8258 602.265,281.3083 593.25,287.9983 C550.95,319.4083 498.06,347.5933 458.7525,366.7108 " fill="none" id="Keyboard_Mouse-RPI" style="stroke:#A80036;stroke-width:0.75;"/><!--MD5=[a15dace8b9997a4e161f7e6bb21c3756]
link SmartPhone to WiFi_Local--><path codeLine="226" d="M502.2225,156.1108 C511.785,176.2933 526.41,207.1558 535.5075,226.3558 " fill="none" id="SmartPhone-WiFi_Local" style="stroke:#A80036;stroke-width:0.75;"/><!--MD5=[a6a6198443ed7f46598e3abcaaf7a198]
link SiriusXM to NMEA_2000--><path codeLine="228" d="M89.25,407.4058 C89.25,432.7033 89.25,487.6183 89.25,524.3608 " fill="none" id="SiriusXM-NMEA_2000" style="stroke:#A80036;stroke-width:0.75;"/><!--MD5=[1d44c55da3101301759fbe3aab8761da]
link NMEA_2000 to NMEA_2000--><path codeLine="229" d="M136.6125,533.5558 C151.2525,534.1183 162.75,543.3883 162.75,561.3733 C162.75,579.3583 151.2525,588.6283 136.6125,589.1908 " fill="none" id="NMEA_2000-NMEA_2000" style="stroke:#A80036;stroke-width:0.75;"/><!--MD5=[f06790075d9412e28e90e4ac15acc0e3]
link Eth_Hub to Router--><path codeLine="231" d="M948.54,244.4983 C957.135,244.4983 965.7225,244.4983 974.3175,244.4983 " fill="none" id="Eth_Hub-Router" style="stroke:#A80036;stroke-width:0.75;"/><!--MD5=[4e13fc5b7ed4d5c8bb5a843a2b474eca]
link Eth_Hub to Radar--><path codeLine="232" d="M905.4525,262.6858 C910.65,290.9833 920.8575,346.5508 926.0475,374.8333 " fill="none" id="Eth_Hub-Radar" style="stroke:#A80036;stroke-width:0.75;"/><!--MD5=[0ff0ce0d78f63490cbe2abe10619b3e8]
link Eth_Hub to NAS--><path codeLine="233" d="M920.0475,262.6858 C937.74,280.0258 965.895,307.6183 991.68,332.8858 " fill="none" id="Eth_Hub-NAS" style="stroke:#A80036;stroke-width:0.75;"/><!--MD5=[259f080a67dae40cff9a98e2c44be4e9]
link Eth_Hub to NMEA_Eth_Mux--><path codeLine="234" d="M889.6125,262.6858 C869.115,290.9833 828.855,346.5508 808.365,374.8333 " fill="none" id="Eth_Hub-NMEA_Eth_Mux" style="stroke:#A80036;stroke-width:0.75;"/><!--MD5=[fdba92f7cd499ccd998d05999f71f6ae]
link Dish_Router to Eth_Hub--><path codeLine="235" d="M913.245,156.1108 C910.71,176.2933 906.84,207.1558 904.4325,226.3558 " fill="none" id="Dish_Router-Eth_Hub" style="stroke:#A80036;stroke-width:0.75;"/><!--MD5=[fbe332a3304dc4c8c3dfaece74a779f6]
link USB_Hub to SDR--><path codeLine="237" d="M317.6175,579.6058 C337.68,607.9708 377.0925,663.6883 397.1475,692.0383 " fill="none" id="USB_Hub-SDR" style="stroke:#A80036;stroke-width:0.75;"/><!--MD5=[4ba09ff32a53e36c5fb85e6eec1de587]
link USB_Hub to Weather--><path codeLine="238" d="M305.25,579.6058 C305.25,605.1508 305.25,652.8733 305.25,682.8208 " fill="none" id="USB_Hub-Weather" style="stroke:#A80036;stroke-width:0.75;"/><!--MD5=[bc87505a24fe564b5b4878ca4cf904ff]
link USB_Hub to GPS--><path codeLine="239" d="M341.2875,561.3733 C349.995,561.3733 358.7025,561.3733 367.4175,561.3733 " fill="none" id="USB_Hub-GPS" style="stroke:#A80036;stroke-width:0.75;"/><!--MD5=[2a0b371ec03d2c21e471fa956f48a495]
link Other_Sensors to AC--><path codeLine="241" d="M626.4525,561.3733 C635.1075,561.3733 643.7625,561.3733 652.41,561.3733 " fill="none" id="Other_Sensors-AC" style="stroke:#A80036;stroke-width:0.75;"/><!--MD5=[cbb222f50bcb791e9720287055fe13dd]
link Other_Sensors to Fridge--><path codeLine="242" d="M532.02,624.8383 C529.6425,643.5583 527.13,663.2533 525.1425,678.9283 " fill="none" id="Other_Sensors-Fridge" style="stroke:#A80036;stroke-width:0.75;"/><!--MD5=[bde99af21072dc4abd6c3e9790e945d2]
link Other_Sensors to Lights_Fans--><path codeLine="243" d="M590.1075,624.8383 C602.25,640.0333 614.9025,655.8733 625.935,669.6808 " fill="none" id="Other_Sensors-Lights_Fans" style="stroke:#A80036;stroke-width:0.75;"/><!--MD5=[9816221c84b92aca30c282d28f000dea]
link Other_Sensors to Pumps--><path codeLine="244" d="M626.3775,617.2858 C630.87,619.8583 635.3475,622.3633 639.75,624.7483 C681.7125,647.4808 695.775,646.1308 737.25,669.7483 C741.48,672.1558 745.8,674.7808 750.075,677.5033 " fill="none" id="Other_Sensors-Pumps" style="stroke:#A80036;stroke-width:0.75;"/><!--MD5=[8fae6815bbbf7683f8ebe54c0ddd87fc]
link NMEA_0183 to NMEA_Mux--><path codeLine="246" d="M866.3175,561.3733 C875.085,561.3733 883.845,561.3733 892.605,561.3733 " fill="none" id="NMEA_0183-NMEA_Mux" style="stroke:#A80036;stroke-width:0.75;"/><!--MD5=[33c6fedd815fb747892f9271a960cf0a]
link NMEA_Eth_Mux to NMEA_0183--><path codeLine="247" d="M796.5375,411.2908 C797.7375,437.9833 800.0475,489.3883 801.6225,524.3458 " fill="none" id="NMEA_Eth_Mux-NMEA_0183" style="stroke:#A80036;stroke-width:0.75;"/><!--MD5=[993848724ee1e0bda2efd2c10d093eb0]
link NMEA_Mux to AP--><path codeLine="248" d="M958.5,588.8083 C958.5,620.3308 958.5,671.5408 958.5,695.8558 " fill="none" id="NMEA_Mux-AP" style="stroke:#A80036;stroke-width:0.75;"/><!--MD5=[4c412d33c9dd3373fedf634d2cfe895b]
link Esp32 to Lora--><path codeLine="250" d="M203.4375,581.9983 C201.7875,606.9058 198.945,649.8433 197.025,678.9433 " fill="none" id="Esp32-Lora" style="stroke:#A80036;stroke-width:0.75;"/><!--MD5=[3a78a92175d5b8f917843889fc4ac663]
link Esp32 to Winches--><path codeLine="251" d="M193.1025,582.2458 C185.2725,595.0108 174.3075,611.5483 162.75,624.7483 C145.6125,644.3158 124.0875,663.7033 105.765,678.9808 " fill="none" id="Esp32-Winches" style="stroke:#A80036;stroke-width:0.75;"/><!--MD5=[090045518a7210d3fe050bd4b1b61143]
link Cloud_Internet to Dish_Router--><path codeLine="253" d="M869.79,69.7708 C880.2075,84.4708 892.4175,101.7058 901.635,114.7108 " fill="none" id="Cloud_Internet-Dish_Router" style="stroke:#A80036;stroke-width:0.75;"/><!--MD5=[0417bd4aebf7681efb342db5775863ca]
link Cloud_Internet to Router--><path codeLine="254" d="M895.1925,58.3633 C921.57,71.0233 953.4225,89.9158 975,114.7483 C1004.145,148.2883 1019.2125,199.7983 1025.4375,226.4458 " fill="none" id="Cloud_Internet-Router" style="stroke:#A80036;stroke-width:0.75;"/><!--MD5=[6d4697dd1a4fa0e14865453f969898e5]
link Cloud_Internet to Iridium--><path codeLine="255" d="M801.18,62.1883 C763.26,80.5708 711.225,105.7933 679.6275,121.1083 " fill="none" id="Cloud_Internet-Iridium" style="stroke:#A80036;stroke-width:0.75;"/><!--MD5=[f7b1ed679f3dcc8891234d56821c2a8b]
link Cloud_Internet to Remote_Desktop--><path codeLine="256" d="M826.71,69.7708 C814.515,86.9758 799.8675,107.6458 790.44,120.9508 " fill="none" id="Cloud_Internet-Remote_Desktop" style="stroke:#A80036;stroke-width:0.75;"/><!--MD5=[f7c22a6020875df2ba44dffafefaebb5]
link Skipper to Touchscreen--><path codeLine="258" d="M413.6925,69.7483 C414.3375,113.2258 415.485,191.7733 415.995,226.4758 " fill="none" id="Skipper-Touchscreen" style="stroke:#A80036;stroke-width:0.75;"/><!--MD5=[180a6a48d329b5088bf365124668f177]
link Skipper to Speakers--><path codeLine="259" d="M395.0775,53.8033 C360.4725,81.4783 283.0425,144.2833 221.25,200.9983 C210.9675,210.4408 199.83,221.6083 191.4975,230.1658 " fill="none" id="Skipper-Speakers" style="stroke:#A80036;stroke-width:0.75;"/><!--MD5=[18622fb937e9a958838b56c5905cf190]
link Skipper to Mic--><path codeLine="260" d="M394.98,48.1633 C360.3225,64.8358 284.8275,101.1508 243.5625,121.0033 " fill="none" id="Skipper-Mic" style="stroke:#A80036;stroke-width:0.75;"/><!--MD5=[b5f99795dccb66293530d697261f575d]
link Skipper to Cameras--><path codeLine="261" d="M395.2425,66.9358 C372.7575,101.3683 334.035,160.6483 307.68,200.9908 " fill="none" id="Skipper-Cameras" style="stroke:#A80036;stroke-width:0.75;"/><!--MD5=[4d7243369b38bcf5d3d8f8df86a5cab3]
link Skipper to Iridium--><path codeLine="262" d="M431.37,46.6108 C471.1575,62.5033 566.6775,100.6483 617.9175,121.1083 " fill="none" id="Skipper-Iridium" style="stroke:#A80036;stroke-width:0.75;"/><!--MD5=[c0261e63bc2c3c7d09c0762b33b29a4a]
link Skipper to SSB--><path codeLine="263" d="M395.16,44.7658 C345.195,59.6608 204.3825,101.6383 134.3475,122.5183 " fill="none" id="Skipper-SSB" style="stroke:#A80036;stroke-width:0.75;"/><!--MD5=[7055ac5873383501a6665c2abfcc17ee]
link Skipper to SmartPhone--><path codeLine="264" d="M431.2875,60.9883 C444.7575,77.1208 463.0275,99.0058 476.1375,114.7183 " fill="none" id="Skipper-SmartPhone" style="stroke:#A80036;stroke-width:0.75;"/><!--MD5=[9e619f9f7e27f8b7daf8036513ac83ac]
link Skipper to Keyboard_Mouse--><path codeLine="265" d="M431.265,46.6333 C458.2425,58.1383 509.76,82.5808 545.25,114.7483 C581.2575,147.3883 611.2125,196.5583 626.2725,223.7983 " fill="none" id="Skipper-Keyboard_Mouse" style="stroke:#A80036;stroke-width:0.75;"/><!--MD5=[791020c57217bb146034c35bb978d496]
link Skipper to Remote_Desktop--><path codeLine="266" d="M431.3475,44.0233 C477.1725,55.8058 601.47,87.7933 705,114.7483 C712.83,116.7883 721.11,118.9483 729.21,121.0708 " fill="none" id="Skipper-Remote_Desktop" style="stroke:#A80036;stroke-width:0.75;"/><!--MD5=[855184756f55900ba2a38e06ad588cff]
@startuml

actor Skipper [
 Skipper
]

node RPI #palegreen [
 <b>Rpi4, BBN OS
 - - - -
 Local WiFi
 CanBus Interface
 Sound Card
 SSD
]

rectangle GPS [
 GPS USB
]

rectangle IMU [
 IMU
 - - - -
 compass, gyro, accel
]

rectangle NMEA_2000 [
 <b>NMEA2000 Bus
 - - - -
 engine sensors,
 fishfinder, sonar,
 etc
]

node NMEA_Mux [
 NMEA Multiplexer
 - - - -
 bidirectional Seatalk1
]

node NMEA_Eth_Mux [
 NMEA Ethernet Multiplexer
]

rectangle NMEA_0183 [
 <b>NMEA 0183 Devices
 - - - -
 AIS transducer/receiver
 GPS, VHF, compass
 Wind, Depth, Speed
]

rectangle AP [
 Autopilot
]

node Eth_Hub [
 Ethernet Hub
]

node USB_Hub [
 USB Hub
]

node Router [
 LTE/WiFi Router
]

rectangle Dish_Router [
 StarLink Router,
 Dish
]

node Radar [
 Radar
]

node Touchscreen [
 <b>HDMI Touchscreen
]

rectangle Speakers [
 Speakers
]

rectangle Mic [
 Microphone
]

rectangle Cameras [
 Cameras
 - - - -
 WebCam, Mast,
 Night (FLIR),
 low light vision,
 IP, docking, etc
]

node SDR [
 SDR Radio
]

node SSB [
 SSB Radio
]

cloud WiFi_Local [
 Local WiFi
]

rectangle Iridium [
 Iridium Phone
]

rectangle Other_Sensors [
 Other_Sensors
 - - - -
 IoT, 1w, i2c, etc
 batteries monitoring
 chargers (wind, solar, diesel gen)
 fluid levels
 env temp/pressure/humid
 dangerous gases sensors
 lightning strike sensors
]

rectangle Remote_Desktop [
 Remote Desktop (VNC)
]

node AC [
 A/C
 Heater
]

node Pumps [
 Pumps
 - - - -
 Bilge
 Fresh Water
 Black Water
]

node Fridge [
 Fridge
 Watermaker
 Live well
]

rectangle Lights_Fans [
 Lights: (Nav, Anchor,
 Running, Mast, Cabin,
 Underwater, Search, etc)
 Fans
 Bilge/Engine Blower
]

rectangle Keyboard_Mouse [
 Keyboard
 Mouse
]

rectangle Weather [
 NavTex
 WeatherFax
 Barograph
]

rectangle SiriusXM [
 SiriusXM Marine
]

rectangle SmartPhone [
 SmartPhones
 Tablets
]

database NAS [
 NAS
 - - - -
 Audio/Video Lib
 Charts, Backups, Tracks,
 Docs, Logs,
 Crew Docs, Float Plans,
 Inventory, Provisioning,
 Time Series Data, etc
]

node Winches [
 Anchor Windlass
 Power Winches
 Bow Thruster
]

cloud Cloud_Internet [
 <b>Internet
 Cloud Storage
 Cloud Services
]

cloud Lora [
 LoraWAN
 Asset Tracking
 Dinghy Locator
]

rectangle Esp32 [
 m5stack,
 arduino
]

RPI -l- IMU
RPI - - NMEA_2000
RPI - - NMEA_Mux
RPI -u- Eth_Hub
RPI - - USB_Hub
RPI -u- Touchscreen
RPI -u- Cameras
RPI -u-> Speakers
RPI -u- Mic
RPI -u- SSB
RPI -u- Iridium
RPI - - Other_Sensors
RPI -d- Esp32
RPI -u- WiFi_Local
RPI -u- Keyboard_Mouse

SmartPhone - - WiFi_Local

SiriusXM - - NMEA_2000
NMEA_2000 - - NMEA_2000

Eth_Hub -r- Router
Eth_Hub - - Radar
Eth_Hub - - NAS
Eth_Hub - - NMEA_Eth_Mux
Eth_Hub -u- Dish_Router

USB_Hub - - SDR
USB_Hub - - Weather
USB_Hub -r- GPS

Other_Sensors -r- AC
Other_Sensors - - Fridge
Other_Sensors - - Lights_Fans
Other_Sensors - - Pumps

NMEA_Mux -l- NMEA_0183
NMEA_Eth_Mux - - NMEA_0183
NMEA_Mux - - AP

Esp32 - - Lora
Esp32 - - Winches

Cloud_Internet - - Dish_Router
Cloud_Internet - - Router
Cloud_Internet - - Iridium
Cloud_Internet - - Remote_Desktop

Skipper - - Touchscreen
Skipper - - Speakers
Skipper - - Mic
Skipper - - Cameras
Skipper - - Iridium
Skipper - - SSB
Skipper - - SmartPhone
Skipper - - Keyboard_Mouse
Skipper - - Remote_Desktop

@enduml

PlantUML version 1.2021.00(Sun Jan 10 05:25:05 EST 2021)
(GPL source distribution)
Java Runtime: OpenJDK Runtime Environment
JVM: OpenJDK 64-Bit Server VM
Default Encoding: Cp1252
Language: en
Country: US
--></g></svg>