<?xml version="1.0" encoding="UTF-8" standalone="no"?><svg xmlns="http://www.w3.org/2000/svg" xmlns:xlink="http://www.w3.org/1999/xlink" contentScriptType="application/ecmascript" contentStyleType="text/css" height="424px" preserveAspectRatio="none" style="width:529px;height:424px;" version="1.1" viewBox="0 0 529 424" width="529px" zoomAndPan="magnify"><defs><filter height="300%" id="fjlcub3wosel7" width="300%" x="-1" y="-1"><feGaussianBlur result="blurOut" stdDeviation="1.0"/><feColorMatrix in="blurOut" result="blurOut2" type="matrix" values="0 0 0 0 0 0 0 0 0 0 0 0 0 0 0 0 0 0 .4 0"/><feOffset dx="2.0" dy="2.0" in="blurOut2" result="blurOut3"/><feBlend in="SourceGraphic" in2="blurOut3" mode="normal"/></filter></defs><g><!--MD5=[f50827fad462c3f51a79aa3f1564e3ff]
entity Skipper--><ellipse cx="197.5" cy="9.7489" fill="#FEFECE" filter="url(#fjlcub3wosel7)" rx="4" ry="4" style="stroke:#A80036;stroke-width:0.75;"/><path d="M197.5,13.7489 L197.5,27.2489 M191,17.7489 L204,17.7489 M197.5,27.2489 L191,34.7489 M197.5,27.2489 L204,34.7489 " fill="none" filter="url(#fjlcub3wosel7)" style="stroke:#A80036;stroke-width:0.75;"/><text fill="#000000" font-family="sans-serif" font-size="7" lengthAdjust="spacing" textLength="24" x="185.5" y="44.7655">Skipper</text><!--MD5=[56bb6c3bc4df8cdefb957cc5b3ef3a7e]
entity RPI--><polygon fill="#FEFECE" filter="url(#fjlcub3wosel7)" points="191.25,192.9989,196.25,187.9989,265.75,187.9989,265.75,246.0223,260.75,251.0223,191.25,251.0223,191.25,192.9989" style="stroke:#000000;stroke-width:0.75;"/><line style="stroke:#000000;stroke-width:0.75;" x1="260.75" x2="265.75" y1="192.9989" y2="187.9989"/><line style="stroke:#000000;stroke-width:0.75;" x1="191.25" x2="260.75" y1="192.9989" y2="192.9989"/><line style="stroke:#000000;stroke-width:0.75;" x1="260.75" x2="260.75" y1="192.9989" y2="251.0223"/><text fill="#000000" font-family="sans-serif" font-size="7" font-weight="bold" lengthAdjust="spacing" textLength="46.5" x="198.75" y="205.2655">Rpi4, BBN OS</text><line style="stroke:#000000;stroke-width:0.5;" x1="191.25" x2="260.75" y1="206.8036" y2="206.8036"/><line style="stroke:#000000;stroke-width:0.5;" x1="260.75" x2="265.75" y1="206.8036" y2="201.8036"/><text fill="#000000" font-family="sans-serif" font-size="7" lengthAdjust="spacing" textLength="33" x="198.75" y="216.0702">Local WiFi</text><text fill="#000000" font-family="sans-serif" font-size="7" lengthAdjust="spacing" textLength="54.5" x="198.75" y="224.8748">CanBus Interface</text><text fill="#000000" font-family="sans-serif" font-size="7" lengthAdjust="spacing" textLength="38" x="198.75" y="233.6795">Sound Card</text><text fill="#000000" font-family="sans-serif" font-size="7" lengthAdjust="spacing" textLength="14" x="198.75" y="242.4842">SSD</text><!--MD5=[cd1d357e028b96f42ee72ab526715f53]
entity GPS--><rect fill="#FEFECE" filter="url(#fjlcub3wosel7)" height="18.8047" style="stroke:#000000;stroke-width:0.75;" width="40" x="3.5" y="300.4989"/><text fill="#000000" font-family="sans-serif" font-size="7" lengthAdjust="spacing" textLength="30" x="8.5" y="312.7655">GPS USB</text><!--MD5=[ae8265c62b5fdfc486198cf91618d43d]
entity IMU--><rect fill="#FEFECE" filter="url(#fjlcub3wosel7)" height="31.6094" style="stroke:#000000;stroke-width:0.75;" width="76.5" x="97.25" y="203.7489"/><text fill="#000000" font-family="sans-serif" font-size="7" lengthAdjust="spacing" textLength="11.5" x="102.25" y="216.0155">IMU</text><line style="stroke:#000000;stroke-width:0.5;" x1="97.75" x2="173.25" y1="217.5536" y2="217.5536"/><text fill="#000000" font-family="sans-serif" font-size="7" lengthAdjust="spacing" textLength="66.5" x="102.25" y="226.8202">compass, gyro, accel</text><!--MD5=[b17a41457b887f0466e22bd7e05c4601]
entity NMEA_2000--><rect fill="#FEFECE" filter="url(#fjlcub3wosel7)" height="49.2188" style="stroke:#000000;stroke-width:0.75;" width="63" x="61" y="285.4989"/><text fill="#000000" font-family="sans-serif" font-size="7" font-weight="bold" lengthAdjust="spacing" textLength="52" x="66" y="297.7655">NMEA2000 Bus</text><line style="stroke:#000000;stroke-width:0.5;" x1="61.5" x2="123.5" y1="299.3036" y2="299.3036"/><text fill="#000000" font-family="sans-serif" font-size="7" lengthAdjust="spacing" textLength="50.5" x="66" y="308.5702">engine sensors,</text><text fill="#000000" font-family="sans-serif" font-size="7" lengthAdjust="spacing" textLength="53" x="66" y="317.3748">fishfinder, sonar,</text><text fill="#000000" font-family="sans-serif" font-size="7" lengthAdjust="spacing" textLength="9.5" x="66" y="326.1795">etc</text><!--MD5=[6eed89ef60fd1dd7e5ad5481c6afc096]
entity NMEA_Mux--><polygon fill="#FEFECE" filter="url(#fjlcub3wosel7)" points="141.75,296.7489,146.75,291.7489,229.25,291.7489,229.25,323.3582,224.25,328.3582,141.75,328.3582,141.75,296.7489" style="stroke:#000000;stroke-width:0.75;"/><line style="stroke:#000000;stroke-width:0.75;" x1="224.25" x2="229.25" y1="296.7489" y2="291.7489"/><line style="stroke:#000000;stroke-width:0.75;" x1="141.75" x2="224.25" y1="296.7489" y2="296.7489"/><line style="stroke:#000000;stroke-width:0.75;" x1="224.25" x2="224.25" y1="296.7489" y2="328.3582"/><text fill="#000000" font-family="sans-serif" font-size="7" lengthAdjust="spacing" textLength="54.5" x="149.25" y="309.0155">NMEA Multiplexer</text><line style="stroke:#000000;stroke-width:0.5;" x1="141.75" x2="224.25" y1="310.5536" y2="310.5536"/><line style="stroke:#000000;stroke-width:0.5;" x1="224.25" x2="229.25" y1="310.5536" y2="305.5536"/><text fill="#000000" font-family="sans-serif" font-size="7" lengthAdjust="spacing" textLength="67.5" x="149.25" y="319.8202">bidirectional Seatalk1</text><!--MD5=[1eaf4d2f8be208adf81d4b0ad8be7432]
entity NMEA_0183--><rect fill="#FEFECE" filter="url(#fjlcub3wosel7)" height="49.2188" style="stroke:#000000;stroke-width:0.75;" width="84" x="143.5" y="368.9989"/><text fill="#000000" font-family="sans-serif" font-size="7" font-weight="bold" lengthAdjust="spacing" textLength="69" x="148.5" y="381.2655">NMEA 0183 Devices</text><line style="stroke:#000000;stroke-width:0.5;" x1="144" x2="227" y1="382.8036" y2="382.8036"/><text fill="#000000" font-family="sans-serif" font-size="7" lengthAdjust="spacing" textLength="74" x="148.5" y="392.0702">AIS transducer/receiver</text><text fill="#000000" font-family="sans-serif" font-size="7" lengthAdjust="spacing" textLength="64" x="148.5" y="400.8748">GPS, VHF, compass</text><text fill="#000000" font-family="sans-serif" font-size="7" lengthAdjust="spacing" textLength="63.5" x="148.5" y="409.6795">Wind, Depth, Speed</text><!--MD5=[31e3ec59327e273962ce661ad70afaa5]
entity AP--><rect fill="#FEFECE" filter="url(#fjlcub3wosel7)" height="18.8047" style="stroke:#000000;stroke-width:0.75;" width="37.5" x="88.25" y="383.9989"/><text fill="#000000" font-family="sans-serif" font-size="7" lengthAdjust="spacing" textLength="27.5" x="93.25" y="396.2655">Autopilot</text><!--MD5=[547615c2c8915297a73af811d5dbf318]
entity Eth_Hub--><polygon fill="#FEFECE" filter="url(#fjlcub3wosel7)" points="348.25,138.9989,353.25,133.9989,409.75,133.9989,409.75,152.8036,404.75,157.8036,348.25,157.8036,348.25,138.9989" style="stroke:#000000;stroke-width:0.75;"/><line style="stroke:#000000;stroke-width:0.75;" x1="404.75" x2="409.75" y1="138.9989" y2="133.9989"/><line style="stroke:#000000;stroke-width:0.75;" x1="348.25" x2="404.75" y1="138.9989" y2="138.9989"/><line style="stroke:#000000;stroke-width:0.75;" x1="404.75" x2="404.75" y1="138.9989" y2="157.8036"/><text fill="#000000" font-family="sans-serif" font-size="7" lengthAdjust="spacing" textLength="41.5" x="355.75" y="151.2655">Ethernet Hub</text><!--MD5=[7968f28c13df0538bc57173754511f0e]
entity USB_Hub--><polygon fill="#FEFECE" filter="url(#fjlcub3wosel7)" points="247,302.9989,252,297.9989,295,297.9989,295,316.8036,290,321.8036,247,321.8036,247,302.9989" style="stroke:#000000;stroke-width:0.75;"/><line style="stroke:#000000;stroke-width:0.75;" x1="290" x2="295" y1="302.9989" y2="297.9989"/><line style="stroke:#000000;stroke-width:0.75;" x1="247" x2="290" y1="302.9989" y2="302.9989"/><line style="stroke:#000000;stroke-width:0.75;" x1="290" x2="290" y1="302.9989" y2="321.8036"/><text fill="#000000" font-family="sans-serif" font-size="7" lengthAdjust="spacing" textLength="28" x="254.5" y="315.2655">USB Hub</text><!--MD5=[953a8c67cfe21abaf9bf45dad8506ca8]
entity Router--><polygon fill="#FEFECE" filter="url(#fjlcub3wosel7)" points="427.25,138.9989,432.25,133.9989,499.75,133.9989,499.75,152.8036,494.75,157.8036,427.25,157.8036,427.25,138.9989" style="stroke:#000000;stroke-width:0.75;"/><line style="stroke:#000000;stroke-width:0.75;" x1="494.75" x2="499.75" y1="138.9989" y2="133.9989"/><line style="stroke:#000000;stroke-width:0.75;" x1="427.25" x2="494.75" y1="138.9989" y2="138.9989"/><line style="stroke:#000000;stroke-width:0.75;" x1="494.75" x2="494.75" y1="138.9989" y2="157.8036"/><text fill="#000000" font-family="sans-serif" font-size="7" lengthAdjust="spacing" textLength="52.5" x="434.75" y="151.2655">LTE/WiFi Router</text><!--MD5=[4c7a5f0f4d710d941c4df063500e34ba]
entity Dish_Router--><rect fill="#FEFECE" filter="url(#fjlcub3wosel7)" height="27.6094" style="stroke:#000000;stroke-width:0.75;" width="61.5" x="373.75" y="76.4989"/><text fill="#000000" font-family="sans-serif" font-size="7" lengthAdjust="spacing" textLength="51.5" x="378.75" y="88.7655">StarLink Router,</text><text fill="#000000" font-family="sans-serif" font-size="7" lengthAdjust="spacing" textLength="14" x="378.75" y="97.5702">Dish</text><!--MD5=[af2495f9a90a9f78578178908d6e69bd]
entity Radar--><polygon fill="#FEFECE" filter="url(#fjlcub3wosel7)" points="321.25,212.4989,326.25,207.4989,360.75,207.4989,360.75,226.3036,355.75,231.3036,321.25,231.3036,321.25,212.4989" style="stroke:#000000;stroke-width:0.75;"/><line style="stroke:#000000;stroke-width:0.75;" x1="355.75" x2="360.75" y1="212.4989" y2="207.4989"/><line style="stroke:#000000;stroke-width:0.75;" x1="321.25" x2="355.75" y1="212.4989" y2="212.4989"/><line style="stroke:#000000;stroke-width:0.75;" x1="355.75" x2="355.75" y1="212.4989" y2="231.3036"/><text fill="#000000" font-family="sans-serif" font-size="7" lengthAdjust="spacing" textLength="19.5" x="328.75" y="224.7655">Radar</text><!--MD5=[330778c508571bc43f7e5523a03ca602]
entity Touchscreen--><polygon fill="#FEFECE" filter="url(#fjlcub3wosel7)" points="35.25,83.2489,40.25,78.2489,121.75,78.2489,121.75,97.0536,116.75,102.0536,35.25,102.0536,35.25,83.2489" style="stroke:#000000;stroke-width:0.75;"/><line style="stroke:#000000;stroke-width:0.75;" x1="116.75" x2="121.75" y1="83.2489" y2="78.2489"/><line style="stroke:#000000;stroke-width:0.75;" x1="35.25" x2="116.75" y1="83.2489" y2="83.2489"/><line style="stroke:#000000;stroke-width:0.75;" x1="116.75" x2="116.75" y1="83.2489" y2="102.0536"/><text fill="#000000" font-family="sans-serif" font-size="7" font-weight="bold" lengthAdjust="spacing" textLength="66.5" x="42.75" y="95.5155">HDMI Touchscreen</text><!--MD5=[4c50005c0fadedfb0a14f6d1969de37e]
entity Speakers--><rect fill="#FEFECE" filter="url(#fjlcub3wosel7)" height="18.8047" style="stroke:#000000;stroke-width:0.75;" width="40" x="255" y="136.4989"/><text fill="#000000" font-family="sans-serif" font-size="7" lengthAdjust="spacing" textLength="30" x="260" y="148.7655">Speakers</text><!--MD5=[1b76df3a4bd008a21abb34082ebb9919]
entity Cameras--><rect fill="#FEFECE" filter="url(#fjlcub3wosel7)" height="18.8047" style="stroke:#000000;stroke-width:0.75;" width="38.5" x="19.25" y="136.4989"/><text fill="#000000" font-family="sans-serif" font-size="7" lengthAdjust="spacing" textLength="28.5" x="24.25" y="148.7655">Cameras</text><!--MD5=[d92e9b93d5ce4574427d5f042afd2321]
entity SDR--><polygon fill="#FEFECE" filter="url(#fjlcub3wosel7)" points="311.5,386.4989,316.5,381.4989,366.5,381.4989,366.5,400.3036,361.5,405.3036,311.5,405.3036,311.5,386.4989" style="stroke:#000000;stroke-width:0.75;"/><line style="stroke:#000000;stroke-width:0.75;" x1="361.5" x2="366.5" y1="386.4989" y2="381.4989"/><line style="stroke:#000000;stroke-width:0.75;" x1="311.5" x2="361.5" y1="386.4989" y2="386.4989"/><line style="stroke:#000000;stroke-width:0.75;" x1="361.5" x2="361.5" y1="386.4989" y2="405.3036"/><text fill="#000000" font-family="sans-serif" font-size="7" lengthAdjust="spacing" textLength="35" x="319" y="398.7655">SDR Radio</text><!--MD5=[6ba27cb6ab6c98fb8258247a8e3f62be]
entity SSB--><polygon fill="#FEFECE" filter="url(#fjlcub3wosel7)" points="312.5,302.9989,317.5,297.9989,366.5,297.9989,366.5,316.8036,361.5,321.8036,312.5,321.8036,312.5,302.9989" style="stroke:#000000;stroke-width:0.75;"/><line style="stroke:#000000;stroke-width:0.75;" x1="361.5" x2="366.5" y1="302.9989" y2="297.9989"/><line style="stroke:#000000;stroke-width:0.75;" x1="312.5" x2="361.5" y1="302.9989" y2="302.9989"/><line style="stroke:#000000;stroke-width:0.75;" x1="361.5" x2="361.5" y1="302.9989" y2="321.8036"/><text fill="#000000" font-family="sans-serif" font-size="7" lengthAdjust="spacing" textLength="34" x="320" y="315.2655">SSB Radio</text><!--MD5=[dd29c4e1cef6fbff2e61a9551f8f2bf2]
entity WiFi_Local--><path d="M152.3551,138.1444 C154.176,134.963 156.3747,134.9804 158.7997,137.4563 C160.5092,133.8366 163.4038,133.8096 165.6762,136.8775 C166.9834,133.5362 169.0595,133.2327 171.7163,135.3969 C174.4358,132.1444 177.473,132.8038 179.1008,136.5489 C182.023,134.1081 184.0904,134.8472 185.6396,138.1202 C187.2364,135.1136 190.2409,135.4084 191.8318,138.1265 C196.7905,138.835 198.714,141.7065 195.6288,146.1988 C198.0183,150.0833 197.4637,153.9445 192.0478,154.4356 C190.4975,157.9043 188.6311,158.8329 185.6739,155.8188 C184.0146,159.0413 181.1742,159.886 178.5146,156.9892 C177.0743,159.9179 175.0701,161.0829 172.4752,158.1861 C169.6449,161.5645 166.4423,161.0995 164.9042,156.8959 C161.9303,159.0069 159.9845,158.7422 158.7723,155.0382 C156.241,157.9295 153.5405,158.1997 151.8788,154.1719 C147.1479,152.9828 146.559,150.6215 149.3853,146.8565 C145.8171,143.108 147.5786,139.0484 152.3551,138.1444 " fill="#FEFECE" filter="url(#fjlcub3wosel7)" style="stroke:#000000;stroke-width:0.75;"/><text fill="#000000" font-family="sans-serif" font-size="7" lengthAdjust="spacing" textLength="33" x="155" y="148.7655">Local WiFi</text><!--MD5=[82bbb9a7a666b856fa28a649fd3171aa]
entity Iridium--><rect fill="#FEFECE" filter="url(#fjlcub3wosel7)" height="18.8047" style="stroke:#000000;stroke-width:0.75;" width="53" x="303" y="80.7489"/><text fill="#000000" font-family="sans-serif" font-size="7" lengthAdjust="spacing" textLength="43" x="308" y="93.0155">Iridium Phone</text><!--MD5=[8f0c441f12fb738c5e80b28ccd1b0a87]
entity Other_Sensors--><rect fill="#FEFECE" filter="url(#fjlcub3wosel7)" height="58.0234" style="stroke:#000000;stroke-width:0.75;" width="97" x="396" y="280.9989"/><text fill="#000000" font-family="sans-serif" font-size="7" lengthAdjust="spacing" textLength="48" x="401" y="293.2655">Other_Sensors</text><line style="stroke:#000000;stroke-width:0.5;" x1="396.5" x2="492.5" y1="294.8036" y2="294.8036"/><text fill="#000000" font-family="sans-serif" font-size="7" lengthAdjust="spacing" textLength="49" x="401" y="304.0702">IoT, 1w, i2c, etc</text><text fill="#000000" font-family="sans-serif" font-size="7" lengthAdjust="spacing" textLength="87" x="401" y="312.8748">battery/chargers monitoring</text><text fill="#000000" font-family="sans-serif" font-size="7" lengthAdjust="spacing" textLength="33" x="401" y="321.6795">fluid levels</text><text fill="#000000" font-family="sans-serif" font-size="7" lengthAdjust="spacing" textLength="80" x="401" y="330.4842">env temp/pressure/humid</text><!--MD5=[0313ddc4f8ed0f4991a51edae0b1647c]
entity AC--><polygon fill="#FEFECE" filter="url(#fjlcub3wosel7)" points="489.25,386.4989,494.25,381.4989,520.75,381.4989,520.75,400.3036,515.75,405.3036,489.25,405.3036,489.25,386.4989" style="stroke:#000000;stroke-width:0.75;"/><line style="stroke:#000000;stroke-width:0.75;" x1="515.75" x2="520.75" y1="386.4989" y2="381.4989"/><line style="stroke:#000000;stroke-width:0.75;" x1="489.25" x2="515.75" y1="386.4989" y2="386.4989"/><line style="stroke:#000000;stroke-width:0.75;" x1="515.75" x2="515.75" y1="386.4989" y2="405.3036"/><text fill="#000000" font-family="sans-serif" font-size="7" lengthAdjust="spacing" textLength="11.5" x="496.75" y="398.7655">A/C</text><!--MD5=[c74dee767baeeec0e713c54a8a4634dc]
entity Fridge--><polygon fill="#FEFECE" filter="url(#fjlcub3wosel7)" points="384.25,386.4989,389.25,381.4989,424.75,381.4989,424.75,400.3036,419.75,405.3036,384.25,405.3036,384.25,386.4989" style="stroke:#000000;stroke-width:0.75;"/><line style="stroke:#000000;stroke-width:0.75;" x1="419.75" x2="424.75" y1="386.4989" y2="381.4989"/><line style="stroke:#000000;stroke-width:0.75;" x1="384.25" x2="419.75" y1="386.4989" y2="386.4989"/><line style="stroke:#000000;stroke-width:0.75;" x1="419.75" x2="419.75" y1="386.4989" y2="405.3036"/><text fill="#000000" font-family="sans-serif" font-size="7" lengthAdjust="spacing" textLength="20.5" x="391.75" y="398.7655">Fridge</text><!--MD5=[de3c8540a01c1d55fb4517020c4cf4a8]
entity Lights--><rect fill="#FEFECE" filter="url(#fjlcub3wosel7)" height="18.8047" style="stroke:#000000;stroke-width:0.75;" width="29" x="442.5" y="383.9989"/><text fill="#000000" font-family="sans-serif" font-size="7" lengthAdjust="spacing" textLength="19" x="447.5" y="396.2655">Lights</text><!--MD5=[593e445c9278762cb4ef7b840df82fac]
entity Keyboard_Mouse--><rect fill="#FEFECE" filter="url(#fjlcub3wosel7)" height="27.6094" style="stroke:#000000;stroke-width:0.75;" width="40.5" x="209.25" y="76.4989"/><text fill="#000000" font-family="sans-serif" font-size="7" lengthAdjust="spacing" textLength="30.5" x="214.25" y="88.7655">Keyboard</text><text fill="#000000" font-family="sans-serif" font-size="7" lengthAdjust="spacing" textLength="21" x="214.25" y="97.5702">Mouse</text><!--MD5=[6068ed0baf2edbbb46a7f906664363da]
entity Weather--><rect fill="#FEFECE" filter="url(#fjlcub3wosel7)" height="36.4141" style="stroke:#000000;stroke-width:0.75;" width="48.5" x="245.25" y="375.2489"/><text fill="#000000" font-family="sans-serif" font-size="7" lengthAdjust="spacing" textLength="23.5" x="250.25" y="387.5155">NavTex</text><text fill="#000000" font-family="sans-serif" font-size="7" lengthAdjust="spacing" textLength="38.5" x="250.25" y="396.3202">WeatherFax</text><text fill="#000000" font-family="sans-serif" font-size="7" lengthAdjust="spacing" textLength="33.5" x="250.25" y="405.1248">Barograph</text><!--MD5=[d59b03f458f75ee04d94168ba7ec459b]
entity SmartPhone--><rect fill="#FEFECE" filter="url(#fjlcub3wosel7)" height="27.6094" style="stroke:#000000;stroke-width:0.75;" width="52.5" x="139.25" y="76.4989"/><text fill="#000000" font-family="sans-serif" font-size="7" lengthAdjust="spacing" textLength="42.5" x="144.25" y="88.7655">SmartPhones</text><text fill="#000000" font-family="sans-serif" font-size="7" lengthAdjust="spacing" textLength="23.5" x="144.25" y="97.5702">Tablets</text><!--MD5=[13e88d8e4422c8d855b54f0d2bc171be]
entity NAS--><path d="M378.25,197.7489 C378.25,192.7489 423,192.7489 423,192.7489 C423,192.7489 467.75,192.7489 467.75,197.7489 L467.75,241.4676 C467.75,246.4676 423,246.4676 423,246.4676 C423,246.4676 378.25,246.4676 378.25,241.4676 L378.25,197.7489 " fill="#FEFECE" filter="url(#fjlcub3wosel7)" style="stroke:#000000;stroke-width:0.75;"/><path d="M378.25,197.7489 C378.25,202.7489 423,202.7489 423,202.7489 C423,202.7489 467.75,202.7489 467.75,197.7489 " fill="none" style="stroke:#000000;stroke-width:0.75;"/><text fill="#000000" font-family="sans-serif" font-size="7" lengthAdjust="spacing" textLength="13.5" x="383.25" y="212.0155">NAS</text><path d="M378.25,211.0536 C378.25,216.0536 423,216.0536 423,216.0536 C423,216.0536 467.75,216.0536 467.75,211.0536 " fill="none" style="stroke:#000000;stroke-width:0.5;"/><text fill="#000000" font-family="sans-serif" font-size="7" lengthAdjust="spacing" textLength="49.5" x="383.25" y="222.8202">Audio/Video Lib</text><text fill="#000000" font-family="sans-serif" font-size="7" lengthAdjust="spacing" textLength="79.5" x="383.25" y="231.6248">Charts, Backups, Tracks,</text><text fill="#000000" font-family="sans-serif" font-size="7" lengthAdjust="spacing" textLength="68" x="383.25" y="240.4295">Time Series Data, etc</text><!--MD5=[48e79d9335dd0cd53682a5a492aea5d9]
entity Cloud_Internet--><path d="M378.33,9.9694 C379.6562,6.6666 381.742,6.355 384.3396,8.5894 C385.9124,4.5733 388.0235,4.239 390.9372,7.3477 C392.6623,4.027 395.8756,3.308 398.0033,6.9384 C399.9633,3 403.1023,3.1123 405.5138,6.4738 C407.3397,3.8854 410.2617,3.8902 411.6684,6.932 C414.1093,4.6856 416.9651,4.7098 418.2068,8.28 C420.2301,5.3536 423.0257,5.2377 425.1014,8.2188 C428.1327,4.6441 430.3921,5.3747 432.3677,9.2487 C435.9079,11.0545 435.7741,13.4107 432.7722,15.6312 C435.7366,16.606 435.6445,18.2565 434.0171,20.424 C437.0858,21.9294 438.0992,24.1654 435.1382,26.7409 C437.0552,28.8029 436.6418,30.7402 433.8185,31.4831 C435.8064,33.5487 435.8845,35.4771 433.1225,36.9365 C435.7694,39.1507 435.5129,40.9741 432.4997,42.5616 C430.4168,45.7847 428.3952,46.7305 425.5405,43.3784 C423.6238,46.4724 420.832,46.8059 418.9858,43.3083 C417.1948,47.3722 413.7707,46.7683 411.6515,43.6432 C410.2017,46.7392 406.8092,47.6047 404.5854,44.5293 C402.0709,47.5212 400.0824,46.9024 398.4683,43.6476 C396.1195,47.3135 394.0082,47.0014 391.5868,43.7196 C389.4916,47.0021 387.0296,46.4901 384.8852,43.7746 C381.8109,46.9573 379.1471,47.0019 377.2643,42.5804 C374.8266,41.0708 374.6176,38.7853 377.1565,37.1764 C374.2484,35.6156 374.2,33.6868 376.8788,31.8355 C373.9601,30.153 374.2413,27.9986 376.6368,26.0922 C374.4012,24.1587 374.1808,22.2713 376.9713,20.6465 C374.3502,18.5762 374.7903,16.4228 377.8809,15.3296 C375.2335,13.2572 375.7378,11.6028 378.33,9.9694 " fill="#FEFECE" filter="url(#fjlcub3wosel7)" style="stroke:#000000;stroke-width:0.75;"/><text fill="#000000" font-family="sans-serif" font-size="7" font-weight="bold" lengthAdjust="spacing" textLength="28" x="380.75" y="19.7655">Internet</text><text fill="#000000" font-family="sans-serif" font-size="7" lengthAdjust="spacing" textLength="45.5" x="380.75" y="28.5702">Cloud Storage</text><text fill="#000000" font-family="sans-serif" font-size="7" lengthAdjust="spacing" textLength="47.5" x="380.75" y="37.3748">Cloud Services</text><!--MD5=[5d3c09c67791d820f6e58e35ac1308e3]
link RPI to GPS--><path codeLine="151" d="M191.23,246.7039 C188.345,248.2789 185.415,249.7339 182.5,250.9989 C127.905,274.6939 104.065,252.1689 52,280.9989 C43.305,285.8139 35.49,294.0539 30.25,300.4389 " fill="none" id="RPI-GPS" style="stroke:#A80036;stroke-width:0.5;"/><!--MD5=[c6d492c1e608e21002a1e79a049df954]
link IMU to RPI--><path codeLine="152" d="M173.825,219.4989 C179.595,219.4989 185.36,219.4989 191.125,219.4989 " fill="none" id="IMU-RPI" style="stroke:#A80036;stroke-width:0.5;"/><!--MD5=[a860cb1a85174d4976dae9c4f32e49f8]
link RPI to NMEA_2000--><path codeLine="153" d="M191.195,245.3589 C188.265,247.2839 185.34,249.1839 182.5,250.9989 C160.825,264.8589 154.53,266.9239 133,280.9989 C130.12,282.8789 127.155,284.8689 124.195,286.8889 " fill="none" id="RPI-NMEA_2000" style="stroke:#A80036;stroke-width:0.5;"/><!--MD5=[f75ecebad45d24d2cfeff8c08b96d55d]
link RPI to NMEA_Mux--><path codeLine="154" d="M213.58,251.0489 C207.055,264.6339 199.635,280.0739 194.065,291.6789 " fill="none" id="RPI-NMEA_Mux" style="stroke:#A80036;stroke-width:0.5;"/><!--MD5=[3577f1ad49970e59a1e1697b6041c28e]
link Eth_Hub to RPI--><path codeLine="155" d="M354.985,158.0689 C330.96,169.6389 293.665,187.6089 265.79,201.0339 " fill="none" id="Eth_Hub-RPI" style="stroke:#A80036;stroke-width:0.5;"/><!--MD5=[1d20bbed48bf86b90ee5f13bc892e6f4]
link RPI to USB_Hub--><path codeLine="156" d="M243.245,251.0489 C250.915,267.2089 259.84,285.9989 265.455,297.8189 " fill="none" id="RPI-USB_Hub" style="stroke:#A80036;stroke-width:0.5;"/><!--MD5=[920310a45a910abea0e78fc3f928b9c7]
link Touchscreen to RPI--><path codeLine="157" d="M87.49,102.4889 C98.595,116.5739 118.485,140.4789 138.5,157.9989 C139.755,159.0989 167.025,177.5539 191.22,193.8789 " fill="none" id="Touchscreen-RPI" style="stroke:#A80036;stroke-width:0.5;"/><!--MD5=[e542bf0be54ca915b2a2c465769198ce]
link Cameras to RPI--><path codeLine="158" d="M57.875,151.7189 C94.465,161.6339 171.08,182.6689 182.5,187.9989 C185.38,189.3439 188.28,190.8539 191.15,192.4739 " fill="none" id="Cameras-RPI" style="stroke:#A80036;stroke-width:0.5;"/><!--MD5=[738bdf1011746a1c073c591ef970d801]
reverse link Speakers to RPI--><path codeLine="159" d="M267.795,157.7289 C262.595,165.8389 255.305,177.2039 248.415,187.9489 " fill="none" id="Speakers-backto-RPI" style="stroke:#A80036;stroke-width:0.5;"/><polygon fill="#A80036" points="269.205,155.5339,265.0958,158.2476,267.8582,157.6401,268.4657,160.4025,269.205,155.5339" style="stroke:#A80036;stroke-width:0.5;"/><!--MD5=[ab5071ef499ee29c8d7cddb49b6853c9]
link RPI to SSB--><path codeLine="160" d="M265.77,250.0489 C286.175,266.5039 310.28,285.9389 325.23,297.9939 " fill="none" id="RPI-SSB" style="stroke:#A80036;stroke-width:0.5;"/><!--MD5=[ba43404d2398351bd02a197b89c6dc04]
link Iridium to RPI--><path codeLine="161" d="M327.63,99.9689 C324.515,113.6539 317.255,139.6939 304,157.9989 C293.72,172.1939 279.33,184.9189 265.87,195.0339 " fill="none" id="Iridium-RPI" style="stroke:#A80036;stroke-width:0.5;"/><!--MD5=[72d1981d7f6e9ae87e7ce2d696ef1c70]
link RPI to Other_Sensors--><path codeLine="162" d="M265.88,235.4889 C301.86,250.3939 356.465,273.0239 395.83,289.3339 " fill="none" id="RPI-Other_Sensors" style="stroke:#A80036;stroke-width:0.5;"/><!--MD5=[abd7622213c1ceda57fd7e6c8ce2488a]
link WiFi_Local to RPI--><path codeLine="163" d="M180.66,158.1489 C187.015,166.2339 195.805,177.4089 204.115,187.9789 " fill="none" id="WiFi_Local-RPI" style="stroke:#A80036;stroke-width:0.5;"/><!--MD5=[9befc12befc76c6c24a0e27f7270b253]
link Keyboard_Mouse to RPI--><path codeLine="164" d="M229.395,104.2339 C229.24,123.9439 228.95,161.1839 228.74,187.8989 " fill="none" id="Keyboard_Mouse-RPI" style="stroke:#A80036;stroke-width:0.5;"/><!--MD5=[a15dace8b9997a4e161f7e6bb21c3756]
link SmartPhone to WiFi_Local--><path codeLine="166" d="M166.95,104.0039 C167.95,113.1189 169.265,125.1089 170.225,133.8539 " fill="none" id="SmartPhone-WiFi_Local" style="stroke:#A80036;stroke-width:0.5;"/><!--MD5=[f06790075d9412e28e90e4ac15acc0e3]
link Eth_Hub to Router--><path codeLine="168" d="M409.86,145.9989 C415.59,145.9989 421.315,145.9989 427.045,145.9989 " fill="none" id="Eth_Hub-Router" style="stroke:#A80036;stroke-width:0.5;"/><!--MD5=[4e13fc5b7ed4d5c8bb5a843a2b474eca]
link Eth_Hub to Radar--><path codeLine="169" d="M372.895,158.1489 C365.805,171.6789 354.175,193.8639 347.09,207.3789 " fill="none" id="Eth_Hub-Radar" style="stroke:#A80036;stroke-width:0.5;"/><!--MD5=[0ff0ce0d78f63490cbe2abe10619b3e8]
link Eth_Hub to NAS--><path codeLine="170" d="M386.07,158.1489 C391.705,167.4339 399.815,180.7989 407,192.6389 " fill="none" id="Eth_Hub-NAS" style="stroke:#A80036;stroke-width:0.5;"/><!--MD5=[fdba92f7cd499ccd998d05999f71f6ae]
link Dish_Router to Eth_Hub--><path codeLine="171" d="M398.325,104.0039 C394.08,113.1189 388.495,125.1089 384.425,133.8539 " fill="none" id="Dish_Router-Eth_Hub" style="stroke:#A80036;stroke-width:0.5;"/><!--MD5=[fbe332a3304dc4c8c3dfaece74a779f6]
link USB_Hub to SDR--><path codeLine="173" d="M280.6,322.1439 C293.56,337.8689 316.515,365.7189 329.45,381.4139 " fill="none" id="USB_Hub-SDR" style="stroke:#A80036;stroke-width:0.5;"/><!--MD5=[4ba09ff32a53e36c5fb85e6eec1de587]
link USB_Hub to Weather--><path codeLine="174" d="M270.79,322.1439 C270.535,335.9589 270.115,359.1339 269.825,375.1989 " fill="none" id="USB_Hub-Weather" style="stroke:#A80036;stroke-width:0.5;"/><!--MD5=[2a0b371ec03d2c21e471fa956f48a495]
link Other_Sensors to AC--><path codeLine="176" d="M465.49,339.1239 C476.14,353.6439 488.48,370.4739 496.5,381.4039 " fill="none" id="Other_Sensors-AC" style="stroke:#A80036;stroke-width:0.5;"/><!--MD5=[cbb222f50bcb791e9720287055fe13dd]
link Other_Sensors to Fridge--><path codeLine="177" d="M430.62,339.1239 C423.58,353.6439 415.42,370.4739 410.12,381.4039 " fill="none" id="Other_Sensors-Fridge" style="stroke:#A80036;stroke-width:0.5;"/><!--MD5=[34fb354fd358eec4f50dfb68a8befd0d]
link Other_Sensors to Lights--><path codeLine="178" d="M448.835,339.1239 C451.205,354.7589 453.98,373.0739 455.61,383.8189 " fill="none" id="Other_Sensors-Lights" style="stroke:#A80036;stroke-width:0.5;"/><!--MD5=[f4051e061112c5a67383a685ff83d16a]
link NMEA_Mux to NMEA_0183--><path codeLine="180" d="M185.5,328.3989 C185.5,340.2489 185.5,355.9289 185.5,368.8689 " fill="none" id="NMEA_Mux-NMEA_0183" style="stroke:#A80036;stroke-width:0.5;"/><!--MD5=[993848724ee1e0bda2efd2c10d093eb0]
link NMEA_Mux to AP--><path codeLine="181" d="M168.465,328.3989 C152.235,345.4589 128.44,370.4689 115.745,383.8089 " fill="none" id="NMEA_Mux-AP" style="stroke:#A80036;stroke-width:0.5;"/><!--MD5=[090045518a7210d3fe050bd4b1b61143]
link Cloud_Internet to Dish_Router--><path codeLine="183" d="M404.5,46.5139 C404.5,56.3139 404.5,67.8039 404.5,76.4739 " fill="none" id="Cloud_Internet-Dish_Router" style="stroke:#A80036;stroke-width:0.5;"/><!--MD5=[0417bd4aebf7681efb342db5775863ca]
link Cloud_Internet to Router--><path codeLine="184" d="M423.39,46.5039 C430.685,55.2039 438.565,65.8189 444,76.4989 C453.6,95.3589 459.05,119.5989 461.625,133.7539 " fill="none" id="Cloud_Internet-Router" style="stroke:#A80036;stroke-width:0.5;"/><!--MD5=[6d4697dd1a4fa0e14865453f969898e5]
link Cloud_Internet to Iridium--><path codeLine="185" d="M380.565,46.5139 C367.015,57.9839 350.74,71.7639 340.265,80.6339 " fill="none" id="Cloud_Internet-Iridium" style="stroke:#A80036;stroke-width:0.5;"/><!--MD5=[f7c22a6020875df2ba44dffafefaebb5]
link Skipper to Touchscreen--><path codeLine="187" d="M185.435,32.6889 C165.465,43.3439 125.255,64.7989 100.235,78.1489 " fill="none" id="Skipper-Touchscreen" style="stroke:#A80036;stroke-width:0.5;"/><!--MD5=[180a6a48d329b5088bf365124668f177]
link Skipper to Speakers--><path codeLine="188" d="M209.59,32.8989 C223.57,41.2339 246.22,56.8289 258.5,76.4989 C270.375,95.5139 273.705,122.3639 274.635,136.3039 " fill="none" id="Skipper-Speakers" style="stroke:#A80036;stroke-width:0.5;"/><!--MD5=[b5f99795dccb66293530d697261f575d]
link Skipper to Cameras--><path codeLine="189" d="M185.445,27.9189 C149.79,33.1339 46.085,50.3339 26.5,76.4989 C13.095,94.4089 25.16,122.2189 33.005,136.4439 " fill="none" id="Skipper-Cameras" style="stroke:#A80036;stroke-width:0.5;"/><!--MD5=[4d7243369b38bcf5d3d8f8df86a5cab3]
link Skipper to Iridium--><path codeLine="190" d="M209.68,32.1089 C232.785,43.2239 283.115,67.4339 310.625,80.6689 " fill="none" id="Skipper-Iridium" style="stroke:#A80036;stroke-width:0.5;"/><!--MD5=[7055ac5873383501a6665c2abfcc17ee]
link Skipper to SmartPhone--><path codeLine="191" d="M187.285,46.5139 C182.35,56.3139 176.56,67.8039 172.19,76.4739 " fill="none" id="Skipper-SmartPhone" style="stroke:#A80036;stroke-width:0.5;"/><!--MD5=[9e619f9f7e27f8b7daf8036513ac83ac]
link Skipper to Keyboard_Mouse--><path codeLine="192" d="M207.715,46.5139 C212.65,56.3139 218.44,67.8039 222.81,76.4739 " fill="none" id="Skipper-Keyboard_Mouse" style="stroke:#A80036;stroke-width:0.5;"/><!--MD5=[76e0e0f059124ff715de3ecfc291145e]
@startuml

actor Skipper [
 Skipper
]

node RPI [
 <b>Rpi4, BBN OS
 - - - -
 Local WiFi
 CanBus Interface
 Sound Card
 SSD
]

rectangle GPS [
 GPS USB
]

rectangle IMU [
 IMU
 - - - -
 compass, gyro, accel
]

rectangle NMEA_2000 [
 <b>NMEA2000 Bus
 - - - -
 engine sensors,
 fishfinder, sonar,
 etc
]

node NMEA_Mux [
 NMEA Multiplexer
 - - - -
 bidirectional Seatalk1
]

rectangle NMEA_0183 [
 <b>NMEA 0183 Devices
 - - - -
 AIS transducer/receiver
 GPS, VHF, compass
 Wind, Depth, Speed
]

rectangle AP [
 Autopilot
]

node Eth_Hub [
 Ethernet Hub
]

node USB_Hub [
 USB Hub
]

node Router [
 LTE/WiFi Router
]

rectangle Dish_Router [
 StarLink Router,
 Dish
]

node Radar [
 Radar
]

node Touchscreen [
 <b>HDMI Touchscreen
]

rectangle Speakers [
 Speakers
]

rectangle Cameras [
 Cameras
]

node SDR [
 SDR Radio
]

node SSB [
 SSB Radio
]

cloud WiFi_Local [
 Local WiFi
]

rectangle Iridium [
 Iridium Phone
]

rectangle Other_Sensors [
 Other_Sensors
 - - - -
 IoT, 1w, i2c, etc
 battery/chargers monitoring
 fluid levels
 env temp/pressure/humid
]

node AC [
 A/C
]

node Fridge [
 Fridge
]

rectangle Lights [
 Lights
]

rectangle Keyboard_Mouse [
 Keyboard
 Mouse
]

rectangle Weather [
 NavTex
 WeatherFax
 Barograph
]

rectangle SmartPhone [
 SmartPhones
 Tablets
]

database NAS [
 NAS
 - - - -
 Audio/Video Lib
 Charts, Backups, Tracks,
 Time Series Data, etc
]

cloud Cloud_Internet [
 <b>Internet
 Cloud Storage
 Cloud Services
]

RPI - - GPS
RPI -l- IMU
RPI - - NMEA_2000
RPI - - NMEA_Mux
RPI -u- Eth_Hub
RPI - - USB_Hub
RPI -u- Touchscreen
RPI -u- Cameras
RPI -u-> Speakers
RPI - - SSB
RPI -u- Iridium
RPI - - Other_Sensors
RPI -u- WiFi_Local
RPI -u- Keyboard_Mouse

SmartPhone - - WiFi_Local

Eth_Hub -r- Router
Eth_Hub - - Radar
Eth_Hub - - NAS
Eth_Hub -u- Dish_Router

USB_Hub - - SDR
USB_Hub - - Weather

Other_Sensors - - AC
Other_Sensors - - Fridge
Other_Sensors - - Lights

NMEA_Mux - - NMEA_0183
NMEA_Mux - - AP

Cloud_Internet - - Dish_Router
Cloud_Internet - - Router
Cloud_Internet - - Iridium

Skipper - - Touchscreen
Skipper - - Speakers
Skipper - - Cameras
Skipper - - Iridium
Skipper - - SmartPhone
Skipper - - Keyboard_Mouse

@enduml

PlantUML version 1.2021.00(Sun Jan 10 05:25:05 EST 2021)
(GPL source distribution)
Java Runtime: OpenJDK Runtime Environment
JVM: OpenJDK 64-Bit Server VM
Default Encoding: Cp1252
Language: en
Country: US
--></g></svg>