<?xml version="1.0" encoding="UTF-8" standalone="no"?><svg xmlns="http://www.w3.org/2000/svg" xmlns:xlink="http://www.w3.org/1999/xlink" contentScriptType="application/ecmascript" contentStyleType="text/css" height="424px" preserveAspectRatio="none" style="width:574px;height:424px;" version="1.1" viewBox="0 0 574 424" width="574px" zoomAndPan="magnify"><defs><filter height="300%" id="f1kg9nifkrzviu" width="300%" x="-1" y="-1"><feGaussianBlur result="blurOut" stdDeviation="1.0"/><feColorMatrix in="blurOut" result="blurOut2" type="matrix" values="0 0 0 0 0 0 0 0 0 0 0 0 0 0 0 0 0 0 .4 0"/><feOffset dx="2.0" dy="2.0" in="blurOut2" result="blurOut3"/><feBlend in="SourceGraphic" in2="blurOut3" mode="normal"/></filter></defs><g><!--MD5=[f50827fad462c3f51a79aa3f1564e3ff]
entity Skipper--><ellipse cx="224.5" cy="9.7489" fill="#FEFECE" filter="url(#f1kg9nifkrzviu)" rx="4" ry="4" style="stroke:#A80036;stroke-width:0.75;"/><path d="M224.5,13.7489 L224.5,27.2489 M218,17.7489 L231,17.7489 M224.5,27.2489 L218,34.7489 M224.5,27.2489 L231,34.7489 " fill="none" filter="url(#f1kg9nifkrzviu)" style="stroke:#A80036;stroke-width:0.75;"/><text fill="#000000" font-family="sans-serif" font-size="7" lengthAdjust="spacing" textLength="24" x="212.5" y="44.7655">Skipper</text><!--MD5=[56bb6c3bc4df8cdefb957cc5b3ef3a7e]
entity RPI--><polygon fill="#FEFECE" filter="url(#f1kg9nifkrzviu)" points="231.75,192.9989,236.75,187.9989,306.25,187.9989,306.25,246.0223,301.25,251.0223,231.75,251.0223,231.75,192.9989" style="stroke:#000000;stroke-width:0.75;"/><line style="stroke:#000000;stroke-width:0.75;" x1="301.25" x2="306.25" y1="192.9989" y2="187.9989"/><line style="stroke:#000000;stroke-width:0.75;" x1="231.75" x2="301.25" y1="192.9989" y2="192.9989"/><line style="stroke:#000000;stroke-width:0.75;" x1="301.25" x2="301.25" y1="192.9989" y2="251.0223"/><text fill="#000000" font-family="sans-serif" font-size="7" font-weight="bold" lengthAdjust="spacing" textLength="46.5" x="239.25" y="205.2655">Rpi4, BBN OS</text><line style="stroke:#000000;stroke-width:0.5;" x1="231.75" x2="301.25" y1="206.8036" y2="206.8036"/><line style="stroke:#000000;stroke-width:0.5;" x1="301.25" x2="306.25" y1="206.8036" y2="201.8036"/><text fill="#000000" font-family="sans-serif" font-size="7" lengthAdjust="spacing" textLength="33" x="239.25" y="216.0702">Local WiFi</text><text fill="#000000" font-family="sans-serif" font-size="7" lengthAdjust="spacing" textLength="54.5" x="239.25" y="224.8748">CanBus Interface</text><text fill="#000000" font-family="sans-serif" font-size="7" lengthAdjust="spacing" textLength="38" x="239.25" y="233.6795">Sound Card</text><text fill="#000000" font-family="sans-serif" font-size="7" lengthAdjust="spacing" textLength="14" x="239.25" y="242.4842">SSD</text><!--MD5=[cd1d357e028b96f42ee72ab526715f53]
entity GPS--><rect fill="#FEFECE" filter="url(#f1kg9nifkrzviu)" height="18.8047" style="stroke:#000000;stroke-width:0.75;" width="40" x="3.5" y="300.4989"/><text fill="#000000" font-family="sans-serif" font-size="7" lengthAdjust="spacing" textLength="30" x="8.5" y="312.7655">GPS USB</text><!--MD5=[ae8265c62b5fdfc486198cf91618d43d]
entity IMU--><rect fill="#FEFECE" filter="url(#f1kg9nifkrzviu)" height="31.6094" style="stroke:#000000;stroke-width:0.75;" width="76.5" x="137.75" y="203.7489"/><text fill="#000000" font-family="sans-serif" font-size="7" lengthAdjust="spacing" textLength="11.5" x="142.75" y="216.0155">IMU</text><line style="stroke:#000000;stroke-width:0.5;" x1="138.25" x2="213.75" y1="217.5536" y2="217.5536"/><text fill="#000000" font-family="sans-serif" font-size="7" lengthAdjust="spacing" textLength="66.5" x="142.75" y="226.8202">compass, gyro, accel</text><!--MD5=[b17a41457b887f0466e22bd7e05c4601]
entity NMEA_2000--><rect fill="#FEFECE" filter="url(#f1kg9nifkrzviu)" height="40.4141" style="stroke:#000000;stroke-width:0.75;" width="61" x="61" y="289.7489"/><text fill="#000000" font-family="sans-serif" font-size="7" lengthAdjust="spacing" textLength="49" x="66" y="302.0155">NMEA2000 Bus</text><line style="stroke:#000000;stroke-width:0.5;" x1="61.5" x2="121.5" y1="303.5536" y2="303.5536"/><text fill="#000000" font-family="sans-serif" font-size="7" lengthAdjust="spacing" textLength="50.5" x="66" y="312.8202">engine sensors,</text><text fill="#000000" font-family="sans-serif" font-size="7" lengthAdjust="spacing" textLength="51" x="66" y="321.6248">fishfinder, sonar</text><!--MD5=[6eed89ef60fd1dd7e5ad5481c6afc096]
entity NMEA_Mux--><polygon fill="#FEFECE" filter="url(#f1kg9nifkrzviu)" points="139.75,296.7489,144.75,291.7489,227.25,291.7489,227.25,323.3582,222.25,328.3582,139.75,328.3582,139.75,296.7489" style="stroke:#000000;stroke-width:0.75;"/><line style="stroke:#000000;stroke-width:0.75;" x1="222.25" x2="227.25" y1="296.7489" y2="291.7489"/><line style="stroke:#000000;stroke-width:0.75;" x1="139.75" x2="222.25" y1="296.7489" y2="296.7489"/><line style="stroke:#000000;stroke-width:0.75;" x1="222.25" x2="222.25" y1="296.7489" y2="328.3582"/><text fill="#000000" font-family="sans-serif" font-size="7" lengthAdjust="spacing" textLength="54.5" x="147.25" y="309.0155">NMEA Multiplexer</text><line style="stroke:#000000;stroke-width:0.5;" x1="139.75" x2="222.25" y1="310.5536" y2="310.5536"/><line style="stroke:#000000;stroke-width:0.5;" x1="222.25" x2="227.25" y1="310.5536" y2="305.5536"/><text fill="#000000" font-family="sans-serif" font-size="7" lengthAdjust="spacing" textLength="67.5" x="147.25" y="319.8202">bidirectional Seatalk1</text><!--MD5=[1eaf4d2f8be208adf81d4b0ad8be7432]
entity NMEA_0183--><rect fill="#FEFECE" filter="url(#f1kg9nifkrzviu)" height="49.2188" style="stroke:#000000;stroke-width:0.75;" width="84" x="73.5" y="368.9989"/><text fill="#000000" font-family="sans-serif" font-size="7" lengthAdjust="spacing" textLength="64" x="78.5" y="381.2655">NMEA 0183 Devices</text><line style="stroke:#000000;stroke-width:0.5;" x1="74" x2="157" y1="382.8036" y2="382.8036"/><text fill="#000000" font-family="sans-serif" font-size="7" lengthAdjust="spacing" textLength="74" x="78.5" y="392.0702">AIS transducer/receiver</text><text fill="#000000" font-family="sans-serif" font-size="7" lengthAdjust="spacing" textLength="64" x="78.5" y="400.8748">GPS, VHF, compass</text><text fill="#000000" font-family="sans-serif" font-size="7" lengthAdjust="spacing" textLength="63.5" x="78.5" y="409.6795">Wind, Depth, Speed</text><!--MD5=[31e3ec59327e273962ce661ad70afaa5]
entity AP--><rect fill="#FEFECE" filter="url(#f1kg9nifkrzviu)" height="18.8047" style="stroke:#000000;stroke-width:0.75;" width="37.5" x="175.25" y="383.9989"/><text fill="#000000" font-family="sans-serif" font-size="7" lengthAdjust="spacing" textLength="27.5" x="180.25" y="396.2655">Autopilot</text><!--MD5=[547615c2c8915297a73af811d5dbf318]
entity Eth_Hub--><polygon fill="#FEFECE" filter="url(#f1kg9nifkrzviu)" points="391.75,138.9989,396.75,133.9989,453.25,133.9989,453.25,152.8036,448.25,157.8036,391.75,157.8036,391.75,138.9989" style="stroke:#000000;stroke-width:0.75;"/><line style="stroke:#000000;stroke-width:0.75;" x1="448.25" x2="453.25" y1="138.9989" y2="133.9989"/><line style="stroke:#000000;stroke-width:0.75;" x1="391.75" x2="448.25" y1="138.9989" y2="138.9989"/><line style="stroke:#000000;stroke-width:0.75;" x1="448.25" x2="448.25" y1="138.9989" y2="157.8036"/><text fill="#000000" font-family="sans-serif" font-size="7" lengthAdjust="spacing" textLength="41.5" x="399.25" y="151.2655">Ethernet Hub</text><!--MD5=[7968f28c13df0538bc57173754511f0e]
entity USB_Hub--><polygon fill="#FEFECE" filter="url(#f1kg9nifkrzviu)" points="245,302.9989,250,297.9989,293,297.9989,293,316.8036,288,321.8036,245,321.8036,245,302.9989" style="stroke:#000000;stroke-width:0.75;"/><line style="stroke:#000000;stroke-width:0.75;" x1="288" x2="293" y1="302.9989" y2="297.9989"/><line style="stroke:#000000;stroke-width:0.75;" x1="245" x2="288" y1="302.9989" y2="302.9989"/><line style="stroke:#000000;stroke-width:0.75;" x1="288" x2="288" y1="302.9989" y2="321.8036"/><text fill="#000000" font-family="sans-serif" font-size="7" lengthAdjust="spacing" textLength="28" x="252.5" y="315.2655">USB Hub</text><!--MD5=[953a8c67cfe21abaf9bf45dad8506ca8]
entity Router--><polygon fill="#FEFECE" filter="url(#f1kg9nifkrzviu)" points="470.75,138.9989,475.75,133.9989,543.25,133.9989,543.25,152.8036,538.25,157.8036,470.75,157.8036,470.75,138.9989" style="stroke:#000000;stroke-width:0.75;"/><line style="stroke:#000000;stroke-width:0.75;" x1="538.25" x2="543.25" y1="138.9989" y2="133.9989"/><line style="stroke:#000000;stroke-width:0.75;" x1="470.75" x2="538.25" y1="138.9989" y2="138.9989"/><line style="stroke:#000000;stroke-width:0.75;" x1="538.25" x2="538.25" y1="138.9989" y2="157.8036"/><text fill="#000000" font-family="sans-serif" font-size="7" lengthAdjust="spacing" textLength="52.5" x="478.25" y="151.2655">LTE/WiFi Router</text><!--MD5=[4c7a5f0f4d710d941c4df063500e34ba]
entity Dish_Router--><rect fill="#FEFECE" filter="url(#f1kg9nifkrzviu)" height="27.6094" style="stroke:#000000;stroke-width:0.75;" width="61.5" x="418.75" y="76.4989"/><text fill="#000000" font-family="sans-serif" font-size="7" lengthAdjust="spacing" textLength="51.5" x="423.75" y="88.7655">StarLink Router,</text><text fill="#000000" font-family="sans-serif" font-size="7" lengthAdjust="spacing" textLength="14" x="423.75" y="97.5702">Dish</text><!--MD5=[af2495f9a90a9f78578178908d6e69bd]
entity Radar--><polygon fill="#FEFECE" filter="url(#f1kg9nifkrzviu)" points="361.75,212.4989,366.75,207.4989,401.25,207.4989,401.25,226.3036,396.25,231.3036,361.75,231.3036,361.75,212.4989" style="stroke:#000000;stroke-width:0.75;"/><line style="stroke:#000000;stroke-width:0.75;" x1="396.25" x2="401.25" y1="212.4989" y2="207.4989"/><line style="stroke:#000000;stroke-width:0.75;" x1="361.75" x2="396.25" y1="212.4989" y2="212.4989"/><line style="stroke:#000000;stroke-width:0.75;" x1="396.25" x2="396.25" y1="212.4989" y2="231.3036"/><text fill="#000000" font-family="sans-serif" font-size="7" lengthAdjust="spacing" textLength="19.5" x="369.25" y="224.7655">Radar</text><!--MD5=[330778c508571bc43f7e5523a03ca602]
entity Touchscreen--><polygon fill="#FEFECE" filter="url(#f1kg9nifkrzviu)" points="251,83.2489,256,78.2489,331,78.2489,331,97.0536,326,102.0536,251,102.0536,251,83.2489" style="stroke:#000000;stroke-width:0.75;"/><line style="stroke:#000000;stroke-width:0.75;" x1="326" x2="331" y1="83.2489" y2="78.2489"/><line style="stroke:#000000;stroke-width:0.75;" x1="251" x2="326" y1="83.2489" y2="83.2489"/><line style="stroke:#000000;stroke-width:0.75;" x1="326" x2="326" y1="83.2489" y2="102.0536"/><text fill="#000000" font-family="sans-serif" font-size="7" lengthAdjust="spacing" textLength="60" x="258.5" y="95.5155">HDMI Touchscreen</text><!--MD5=[4c50005c0fadedfb0a14f6d1969de37e]
entity Speakers--><rect fill="#FEFECE" filter="url(#f1kg9nifkrzviu)" height="18.8047" style="stroke:#000000;stroke-width:0.75;" width="40" x="169" y="136.4989"/><text fill="#000000" font-family="sans-serif" font-size="7" lengthAdjust="spacing" textLength="30" x="174" y="148.7655">Speakers</text><!--MD5=[1b76df3a4bd008a21abb34082ebb9919]
entity Cameras--><rect fill="#FEFECE" filter="url(#f1kg9nifkrzviu)" height="18.8047" style="stroke:#000000;stroke-width:0.75;" width="38.5" x="226.75" y="136.4989"/><text fill="#000000" font-family="sans-serif" font-size="7" lengthAdjust="spacing" textLength="28.5" x="231.75" y="148.7655">Cameras</text><!--MD5=[d92e9b93d5ce4574427d5f042afd2321]
entity SDR--><polygon fill="#FEFECE" filter="url(#f1kg9nifkrzviu)" points="236,386.4989,241,381.4989,291,381.4989,291,400.3036,286,405.3036,236,405.3036,236,386.4989" style="stroke:#000000;stroke-width:0.75;"/><line style="stroke:#000000;stroke-width:0.75;" x1="286" x2="291" y1="386.4989" y2="381.4989"/><line style="stroke:#000000;stroke-width:0.75;" x1="236" x2="286" y1="386.4989" y2="386.4989"/><line style="stroke:#000000;stroke-width:0.75;" x1="286" x2="286" y1="386.4989" y2="405.3036"/><text fill="#000000" font-family="sans-serif" font-size="7" lengthAdjust="spacing" textLength="35" x="243.5" y="398.7655">SDR Radio</text><!--MD5=[6ba27cb6ab6c98fb8258247a8e3f62be]
entity SSB--><polygon fill="#FEFECE" filter="url(#f1kg9nifkrzviu)" points="310.5,302.9989,315.5,297.9989,364.5,297.9989,364.5,316.8036,359.5,321.8036,310.5,321.8036,310.5,302.9989" style="stroke:#000000;stroke-width:0.75;"/><line style="stroke:#000000;stroke-width:0.75;" x1="359.5" x2="364.5" y1="302.9989" y2="297.9989"/><line style="stroke:#000000;stroke-width:0.75;" x1="310.5" x2="359.5" y1="302.9989" y2="302.9989"/><line style="stroke:#000000;stroke-width:0.75;" x1="359.5" x2="359.5" y1="302.9989" y2="321.8036"/><text fill="#000000" font-family="sans-serif" font-size="7" lengthAdjust="spacing" textLength="34" x="318" y="315.2655">SSB Radio</text><!--MD5=[dd29c4e1cef6fbff2e61a9551f8f2bf2]
entity WiFi_Local--><path d="M327.3551,138.1444 C329.176,134.963 331.3747,134.9804 333.7997,137.4563 C335.5092,133.8366 338.4038,133.8096 340.6762,136.8775 C341.9834,133.5362 344.0595,133.2327 346.7163,135.3969 C349.4358,132.1444 352.473,132.8038 354.1008,136.5489 C357.023,134.1081 359.0904,134.8472 360.6396,138.1202 C362.2364,135.1136 365.2409,135.4084 366.8318,138.1265 C371.7905,138.835 373.714,141.7065 370.6288,146.1988 C373.0183,150.0833 372.4637,153.9445 367.0478,154.4356 C365.4975,157.9043 363.6311,158.8329 360.6739,155.8188 C359.0146,159.0413 356.1742,159.886 353.5146,156.9892 C352.0743,159.9179 350.0701,161.0829 347.4752,158.1861 C344.6449,161.5645 341.4423,161.0995 339.9042,156.8959 C336.9303,159.0069 334.9845,158.7422 333.7723,155.0382 C331.241,157.9295 328.5405,158.1997 326.8788,154.1719 C322.1479,152.9828 321.559,150.6215 324.3853,146.8565 C320.8171,143.108 322.5786,139.0484 327.3551,138.1444 " fill="#FEFECE" filter="url(#f1kg9nifkrzviu)" style="stroke:#000000;stroke-width:0.75;"/><text fill="#000000" font-family="sans-serif" font-size="7" lengthAdjust="spacing" textLength="33" x="330" y="148.7655">Local WiFi</text><!--MD5=[82bbb9a7a666b856fa28a649fd3171aa]
entity Iridium--><rect fill="#FEFECE" filter="url(#f1kg9nifkrzviu)" height="18.8047" style="stroke:#000000;stroke-width:0.75;" width="53" x="382" y="300.4989"/><text fill="#000000" font-family="sans-serif" font-size="7" lengthAdjust="spacing" textLength="43" x="387" y="312.7655">Iridium Phone</text><!--MD5=[8f0c441f12fb738c5e80b28ccd1b0a87]
entity Other_Sensors--><rect fill="#FEFECE" filter="url(#f1kg9nifkrzviu)" height="58.0234" style="stroke:#000000;stroke-width:0.75;" width="97" x="452.5" y="280.9989"/><text fill="#000000" font-family="sans-serif" font-size="7" lengthAdjust="spacing" textLength="48" x="457.5" y="293.2655">Other_Sensors</text><line style="stroke:#000000;stroke-width:0.5;" x1="453" x2="549" y1="294.8036" y2="294.8036"/><text fill="#000000" font-family="sans-serif" font-size="7" lengthAdjust="spacing" textLength="49" x="457.5" y="304.0702">IoT, 1w, i2c, etc</text><text fill="#000000" font-family="sans-serif" font-size="7" lengthAdjust="spacing" textLength="87" x="457.5" y="312.8748">battery/chargers monitoring</text><text fill="#000000" font-family="sans-serif" font-size="7" lengthAdjust="spacing" textLength="33" x="457.5" y="321.6795">fluid levels</text><text fill="#000000" font-family="sans-serif" font-size="7" lengthAdjust="spacing" textLength="80" x="457.5" y="330.4842">env temp/pressure/humid</text><!--MD5=[0313ddc4f8ed0f4991a51edae0b1647c]
entity AC--><polygon fill="#FEFECE" filter="url(#f1kg9nifkrzviu)" points="431.75,386.4989,436.75,381.4989,463.25,381.4989,463.25,400.3036,458.25,405.3036,431.75,405.3036,431.75,386.4989" style="stroke:#000000;stroke-width:0.75;"/><line style="stroke:#000000;stroke-width:0.75;" x1="458.25" x2="463.25" y1="386.4989" y2="381.4989"/><line style="stroke:#000000;stroke-width:0.75;" x1="431.75" x2="458.25" y1="386.4989" y2="386.4989"/><line style="stroke:#000000;stroke-width:0.75;" x1="458.25" x2="458.25" y1="386.4989" y2="405.3036"/><text fill="#000000" font-family="sans-serif" font-size="7" lengthAdjust="spacing" textLength="11.5" x="439.25" y="398.7655">A/C</text><!--MD5=[c74dee767baeeec0e713c54a8a4634dc]
entity Fridge--><polygon fill="#FEFECE" filter="url(#f1kg9nifkrzviu)" points="480.75,386.4989,485.75,381.4989,521.25,381.4989,521.25,400.3036,516.25,405.3036,480.75,405.3036,480.75,386.4989" style="stroke:#000000;stroke-width:0.75;"/><line style="stroke:#000000;stroke-width:0.75;" x1="516.25" x2="521.25" y1="386.4989" y2="381.4989"/><line style="stroke:#000000;stroke-width:0.75;" x1="480.75" x2="516.25" y1="386.4989" y2="386.4989"/><line style="stroke:#000000;stroke-width:0.75;" x1="516.25" x2="516.25" y1="386.4989" y2="405.3036"/><text fill="#000000" font-family="sans-serif" font-size="7" lengthAdjust="spacing" textLength="20.5" x="488.25" y="398.7655">Fridge</text><!--MD5=[de3c8540a01c1d55fb4517020c4cf4a8]
entity Lights--><rect fill="#FEFECE" filter="url(#f1kg9nifkrzviu)" height="18.8047" style="stroke:#000000;stroke-width:0.75;" width="29" x="539" y="383.9989"/><text fill="#000000" font-family="sans-serif" font-size="7" lengthAdjust="spacing" textLength="19" x="544" y="396.2655">Lights</text><!--MD5=[593e445c9278762cb4ef7b840df82fac]
entity Keyboard_Mouse--><rect fill="#FEFECE" filter="url(#f1kg9nifkrzviu)" height="27.6094" style="stroke:#000000;stroke-width:0.75;" width="40.5" x="121.75" y="76.4989"/><text fill="#000000" font-family="sans-serif" font-size="7" lengthAdjust="spacing" textLength="30.5" x="126.75" y="88.7655">Keyboard</text><text fill="#000000" font-family="sans-serif" font-size="7" lengthAdjust="spacing" textLength="21" x="126.75" y="97.5702">Mouse</text><!--MD5=[6068ed0baf2edbbb46a7f906664363da]
entity Weather--><rect fill="#FEFECE" filter="url(#f1kg9nifkrzviu)" height="36.4141" style="stroke:#000000;stroke-width:0.75;" width="48.5" x="308.75" y="375.2489"/><text fill="#000000" font-family="sans-serif" font-size="7" lengthAdjust="spacing" textLength="23.5" x="313.75" y="387.5155">NavTex</text><text fill="#000000" font-family="sans-serif" font-size="7" lengthAdjust="spacing" textLength="38.5" x="313.75" y="396.3202">WeatherFax</text><text fill="#000000" font-family="sans-serif" font-size="7" lengthAdjust="spacing" textLength="33.5" x="313.75" y="405.1248">Barograph</text><!--MD5=[d59b03f458f75ee04d94168ba7ec459b]
entity SmartPhone--><rect fill="#FEFECE" filter="url(#f1kg9nifkrzviu)" height="27.6094" style="stroke:#000000;stroke-width:0.75;" width="52.5" x="348.75" y="76.4989"/><text fill="#000000" font-family="sans-serif" font-size="7" lengthAdjust="spacing" textLength="42.5" x="353.75" y="88.7655">SmartPhones</text><text fill="#000000" font-family="sans-serif" font-size="7" lengthAdjust="spacing" textLength="23.5" x="353.75" y="97.5702">Tablets</text><!--MD5=[13e88d8e4422c8d855b54f0d2bc171be]
entity NAS--><path d="M418.75,197.7489 C418.75,192.7489 463.5,192.7489 463.5,192.7489 C463.5,192.7489 508.25,192.7489 508.25,197.7489 L508.25,241.4676 C508.25,246.4676 463.5,246.4676 463.5,246.4676 C463.5,246.4676 418.75,246.4676 418.75,241.4676 L418.75,197.7489 " fill="#FEFECE" filter="url(#f1kg9nifkrzviu)" style="stroke:#000000;stroke-width:0.75;"/><path d="M418.75,197.7489 C418.75,202.7489 463.5,202.7489 463.5,202.7489 C463.5,202.7489 508.25,202.7489 508.25,197.7489 " fill="none" style="stroke:#000000;stroke-width:0.75;"/><text fill="#000000" font-family="sans-serif" font-size="7" lengthAdjust="spacing" textLength="13.5" x="423.75" y="212.0155">NAS</text><path d="M418.75,211.0536 C418.75,216.0536 463.5,216.0536 463.5,216.0536 C463.5,216.0536 508.25,216.0536 508.25,211.0536 " fill="none" style="stroke:#000000;stroke-width:0.5;"/><text fill="#000000" font-family="sans-serif" font-size="7" lengthAdjust="spacing" textLength="49.5" x="423.75" y="222.8202">Audio/Video Lib</text><text fill="#000000" font-family="sans-serif" font-size="7" lengthAdjust="spacing" textLength="79.5" x="423.75" y="231.6248">Charts, Backups, Tracks,</text><text fill="#000000" font-family="sans-serif" font-size="7" lengthAdjust="spacing" textLength="68" x="423.75" y="240.4295">Time Series Data, etc</text><!--MD5=[48e79d9335dd0cd53682a5a492aea5d9]
entity Cloud_Internet--><path d="M451.83,9.9694 C453.1562,6.6666 455.242,6.355 457.8396,8.5894 C459.4124,4.5733 461.5235,4.239 464.4372,7.3477 C466.1623,4.027 469.3756,3.308 471.5033,6.9384 C473.4633,3 476.6023,3.1123 479.0138,6.4738 C480.8397,3.8854 483.7617,3.8902 485.1684,6.932 C487.6093,4.6856 490.4651,4.7098 491.7068,8.28 C493.7301,5.3536 496.5257,5.2377 498.6014,8.2188 C501.6327,4.6441 503.8921,5.3747 505.8677,9.2487 C509.4079,11.0545 509.2741,13.4107 506.2722,15.6312 C509.2366,16.606 509.1445,18.2565 507.5171,20.424 C510.5858,21.9294 511.5992,24.1654 508.6382,26.7409 C510.5552,28.8029 510.1418,30.7402 507.3185,31.4831 C509.3064,33.5487 509.3845,35.4771 506.6225,36.9365 C509.2694,39.1507 509.0129,40.9741 505.9997,42.5616 C503.9168,45.7847 501.8952,46.7305 499.0405,43.3784 C497.1238,46.4724 494.332,46.8059 492.4858,43.3083 C490.6948,47.3722 487.2707,46.7683 485.1515,43.6432 C483.7017,46.7392 480.3092,47.6047 478.0854,44.5293 C475.5709,47.5212 473.5824,46.9024 471.9683,43.6476 C469.6195,47.3135 467.5082,47.0014 465.0868,43.7196 C462.9916,47.0021 460.5296,46.4901 458.3852,43.7746 C455.3109,46.9573 452.6471,47.0019 450.7643,42.5804 C448.3266,41.0708 448.1176,38.7853 450.6565,37.1764 C447.7484,35.6156 447.7,33.6868 450.3788,31.8355 C447.4601,30.153 447.7413,27.9986 450.1368,26.0922 C447.9012,24.1587 447.6808,22.2713 450.4713,20.6465 C447.8502,18.5762 448.2903,16.4228 451.3809,15.3296 C448.7335,13.2572 449.2378,11.6028 451.83,9.9694 " fill="#FEFECE" filter="url(#f1kg9nifkrzviu)" style="stroke:#000000;stroke-width:0.75;"/><text fill="#000000" font-family="sans-serif" font-size="7" lengthAdjust="spacing" textLength="24" x="454.25" y="19.7655">Internet</text><text fill="#000000" font-family="sans-serif" font-size="7" lengthAdjust="spacing" textLength="45.5" x="454.25" y="28.5702">Cloud Storage</text><text fill="#000000" font-family="sans-serif" font-size="7" lengthAdjust="spacing" textLength="47.5" x="454.25" y="37.3748">Cloud Services</text><!--MD5=[5d3c09c67791d820f6e58e35ac1308e3]
link RPI to GPS--><path codeLine="150" d="M231.675,246.9489 C228.81,248.4539 225.905,249.8289 223,250.9989 C151.44,279.8589 120.46,245.3989 52,280.9989 C43.12,285.6139 35.27,293.9689 30.065,300.4389 " fill="none" id="RPI-GPS" style="stroke:#A80036;stroke-width:0.5;"/><!--MD5=[c6d492c1e608e21002a1e79a049df954]
link IMU to RPI--><path codeLine="151" d="M214.325,219.4989 C220.095,219.4989 225.86,219.4989 231.625,219.4989 " fill="none" id="IMU-RPI" style="stroke:#A80036;stroke-width:0.5;"/><!--MD5=[a860cb1a85174d4976dae9c4f32e49f8]
link RPI to NMEA_2000--><path codeLine="152" d="M231.725,246.3389 C228.825,248.0089 225.9,249.5839 223,250.9989 C184.35,269.8639 169.34,261.5189 131,280.9989 C126.1,283.4889 121.14,286.5539 116.47,289.7339 " fill="none" id="RPI-NMEA_2000" style="stroke:#A80036;stroke-width:0.5;"/><!--MD5=[f75ecebad45d24d2cfeff8c08b96d55d]
link RPI to NMEA_Mux--><path codeLine="153" d="M239.335,251.0489 C226.36,264.6339 211.61,280.0739 200.525,291.6789 " fill="none" id="RPI-NMEA_Mux" style="stroke:#A80036;stroke-width:0.5;"/><!--MD5=[3577f1ad49970e59a1e1697b6041c28e]
link Eth_Hub to RPI--><path codeLine="154" d="M398.01,158.0689 C373.29,169.7389 334.805,187.9189 306.295,201.3839 " fill="none" id="Eth_Hub-RPI" style="stroke:#A80036;stroke-width:0.5;"/><!--MD5=[1d20bbed48bf86b90ee5f13bc892e6f4]
link RPI to USB_Hub--><path codeLine="155" d="M269,251.0489 C269,267.2089 269,285.9989 269,297.8189 " fill="none" id="RPI-USB_Hub" style="stroke:#A80036;stroke-width:0.5;"/><!--MD5=[920310a45a910abea0e78fc3f928b9c7]
link Touchscreen to RPI--><path codeLine="156" d="M289.01,102.3589 C285.725,121.5039 279.065,160.3239 274.33,187.9139 " fill="none" id="Touchscreen-RPI" style="stroke:#A80036;stroke-width:0.5;"/><!--MD5=[e542bf0be54ca915b2a2c465769198ce]
link Cameras to RPI--><path codeLine="157" d="M248.865,155.5339 C251.455,163.6939 255.42,176.1939 259.15,187.9489 " fill="none" id="Cameras-RPI" style="stroke:#A80036;stroke-width:0.5;"/><!--MD5=[738bdf1011746a1c073c591ef970d801]
reverse link Speakers to RPI--><path codeLine="158" d="M200.94,157.3189 C209.91,165.4489 222.68,177.0189 234.735,187.9489 " fill="none" id="Speakers-backto-RPI" style="stroke:#A80036;stroke-width:0.5;"/><polygon fill="#A80036" points="198.97,155.5339,200.9674,160.035,200.8247,157.2102,203.6495,157.0676,198.97,155.5339" style="stroke:#A80036;stroke-width:0.5;"/><!--MD5=[ab5071ef499ee29c8d7cddb49b6853c9]
link RPI to SSB--><path codeLine="159" d="M292.765,251.0489 C305.13,267.2089 319.515,285.9989 328.56,297.8189 " fill="none" id="RPI-SSB" style="stroke:#A80036;stroke-width:0.5;"/><!--MD5=[0ec458dcf7866475fbac446bd271d523]
link RPI to Iridium--><path codeLine="160" d="M306.39,240.1789 C326.56,251.4989 351.63,266.2689 373,280.9989 C381.785,287.0539 391.175,294.6489 398.095,300.4739 " fill="none" id="RPI-Iridium" style="stroke:#A80036;stroke-width:0.5;"/><!--MD5=[72d1981d7f6e9ae87e7ce2d696ef1c70]
link RPI to Other_Sensors--><path codeLine="161" d="M306.33,234.0789 C320.855,239.4789 337.67,245.6289 353,250.9989 C392.995,265.0039 404.31,264.8839 443.5,280.9989 C446.435,282.2089 449.43,283.4989 452.435,284.8389 " fill="none" id="RPI-Other_Sensors" style="stroke:#A80036;stroke-width:0.5;"/><!--MD5=[abd7622213c1ceda57fd7e6c8ce2488a]
link WiFi_Local to RPI--><path codeLine="162" d="M334.05,158.1489 C325.405,166.2339 313.455,177.4089 302.155,187.9789 " fill="none" id="WiFi_Local-RPI" style="stroke:#A80036;stroke-width:0.5;"/><!--MD5=[9befc12befc76c6c24a0e27f7270b253]
link Keyboard_Mouse to RPI--><path codeLine="163" d="M142.35,104.1239 C143.41,118.8789 147.17,142.5739 160,157.9989 C179.835,181.8389 196.065,172.6239 223,187.9989 C225.845,189.6239 228.745,191.3589 231.635,193.1539 " fill="none" id="Keyboard_Mouse-RPI" style="stroke:#A80036;stroke-width:0.5;"/><!--MD5=[a15dace8b9997a4e161f7e6bb21c3756]
link SmartPhone to WiFi_Local--><path codeLine="165" d="M368.1,104.0039 C363.355,113.1189 357.115,125.1089 352.56,133.8539 " fill="none" id="SmartPhone-WiFi_Local" style="stroke:#A80036;stroke-width:0.5;"/><!--MD5=[f06790075d9412e28e90e4ac15acc0e3]
link Eth_Hub to Router--><path codeLine="167" d="M453.36,145.9989 C459.09,145.9989 464.815,145.9989 470.545,145.9989 " fill="none" id="Eth_Hub-Router" style="stroke:#A80036;stroke-width:0.5;"/><!--MD5=[4e13fc5b7ed4d5c8bb5a843a2b474eca]
link Eth_Hub to Radar--><path codeLine="168" d="M415.915,158.1489 C408.26,171.6789 395.715,193.8639 388.07,207.3789 " fill="none" id="Eth_Hub-Radar" style="stroke:#A80036;stroke-width:0.5;"/><!--MD5=[0ff0ce0d78f63490cbe2abe10619b3e8]
link Eth_Hub to NAS--><path codeLine="169" d="M429.085,158.1489 C434.34,167.4339 441.895,180.7989 448.595,192.6389 " fill="none" id="Eth_Hub-NAS" style="stroke:#A80036;stroke-width:0.5;"/><!--MD5=[fdba92f7cd499ccd998d05999f71f6ae]
link Dish_Router to Eth_Hub--><path codeLine="170" d="M442.965,104.0039 C438.47,113.1189 432.555,125.1089 428.245,133.8539 " fill="none" id="Dish_Router-Eth_Hub" style="stroke:#A80036;stroke-width:0.5;"/><!--MD5=[fbe332a3304dc4c8c3dfaece74a779f6]
link USB_Hub to SDR--><path codeLine="172" d="M268.225,322.1439 C267.175,337.8689 265.32,365.7189 264.27,381.4139 " fill="none" id="USB_Hub-SDR" style="stroke:#A80036;stroke-width:0.5;"/><!--MD5=[4ba09ff32a53e36c5fb85e6eec1de587]
link USB_Hub to Weather--><path codeLine="173" d="M278.035,322.1439 C288.75,335.9589 306.73,359.1339 319.19,375.1989 " fill="none" id="USB_Hub-Weather" style="stroke:#A80036;stroke-width:0.5;"/><!--MD5=[2a0b371ec03d2c21e471fa956f48a495]
link Other_Sensors to AC--><path codeLine="175" d="M482.44,339.1239 C473.02,353.6439 462.11,370.4739 455.02,381.4039 " fill="none" id="Other_Sensors-AC" style="stroke:#A80036;stroke-width:0.5;"/><!--MD5=[cbb222f50bcb791e9720287055fe13dd]
link Other_Sensors to Fridge--><path codeLine="176" d="M501,339.1239 C501,353.6439 501,370.4739 501,381.4039 " fill="none" id="Other_Sensors-Fridge" style="stroke:#A80036;stroke-width:0.5;"/><!--MD5=[34fb354fd358eec4f50dfb68a8befd0d]
link Other_Sensors to Lights--><path codeLine="177" d="M519.215,339.1239 C529.165,354.7589 540.82,373.0739 547.66,383.8189 " fill="none" id="Other_Sensors-Lights" style="stroke:#A80036;stroke-width:0.5;"/><!--MD5=[f4051e061112c5a67383a685ff83d16a]
link NMEA_Mux to NMEA_0183--><path codeLine="179" d="M168.745,328.3989 C158.98,340.2489 146.055,355.9289 135.385,368.8689 " fill="none" id="NMEA_Mux-NMEA_0183" style="stroke:#A80036;stroke-width:0.5;"/><!--MD5=[993848724ee1e0bda2efd2c10d093eb0]
link NMEA_Mux to AP--><path codeLine="180" d="M185.78,328.3989 C187.95,345.4589 191.13,370.4689 192.83,383.8089 " fill="none" id="NMEA_Mux-AP" style="stroke:#A80036;stroke-width:0.5;"/><!--MD5=[090045518a7210d3fe050bd4b1b61143]
link Cloud_Internet to Dish_Router--><path codeLine="182" d="M468.905,46.5139 C464.505,56.3139 459.35,67.8039 455.46,76.4739 " fill="none" id="Cloud_Internet-Dish_Router" style="stroke:#A80036;stroke-width:0.5;"/><!--MD5=[0417bd4aebf7681efb342db5775863ca]
link Cloud_Internet to Router--><path codeLine="183" d="M482.95,46.6139 C489.065,71.7589 499.26,113.6739 504.175,133.8889 " fill="none" id="Cloud_Internet-Router" style="stroke:#A80036;stroke-width:0.5;"/><!--MD5=[f7c22a6020875df2ba44dffafefaebb5]
link Skipper to Touchscreen--><path codeLine="185" d="M236.545,37.7489 C248.52,49.1839 266.8,66.6389 278.82,78.1189 " fill="none" id="Skipper-Touchscreen" style="stroke:#A80036;stroke-width:0.5;"/><!--MD5=[180a6a48d329b5088bf365124668f177]
link Skipper to Speakers--><path codeLine="186" d="M218.44,46.6139 C210.615,72.8889 197.34,117.4789 191.685,136.4839 " fill="none" id="Skipper-Speakers" style="stroke:#A80036;stroke-width:0.5;"/><!--MD5=[b5f99795dccb66293530d697261f575d]
link Skipper to Cameras--><path codeLine="187" d="M228.17,46.6139 C232.91,72.8889 240.95,117.4789 244.375,136.4839 " fill="none" id="Skipper-Cameras" style="stroke:#A80036;stroke-width:0.5;"/><!--MD5=[7055ac5873383501a6665c2abfcc17ee]
link Skipper to SmartPhone--><path codeLine="188" d="M236.56,31.3389 C260.765,41.5489 315.75,64.7489 348.675,78.6439 " fill="none" id="Skipper-SmartPhone" style="stroke:#A80036;stroke-width:0.5;"/><!--MD5=[9e619f9f7e27f8b7daf8036513ac83ac]
link Skipper to Keyboard_Mouse--><path codeLine="189" d="M212.325,35.6189 C198.3,46.4189 175.14,64.2439 159.255,76.4689 " fill="none" id="Skipper-Keyboard_Mouse" style="stroke:#A80036;stroke-width:0.5;"/><!--MD5=[609ab4ce346a7cac77a8e6da861be117]
@startuml

actor Skipper [
 Skipper
]

node RPI [
 <b>Rpi4, BBN OS
 - - - -
 Local WiFi
 CanBus Interface
 Sound Card
 SSD
]

rectangle GPS [
 GPS USB
]

rectangle IMU [
 IMU
 - - - -
 compass, gyro, accel
]

rectangle NMEA_2000 [
 NMEA2000 Bus
 - - - -
 engine sensors,
 fishfinder, sonar
]

node NMEA_Mux [
 NMEA Multiplexer
 - - - -
 bidirectional Seatalk1
]

rectangle NMEA_0183 [
 NMEA 0183 Devices
 - - - -
 AIS transducer/receiver
 GPS, VHF, compass
 Wind, Depth, Speed
]

rectangle AP [
 Autopilot
]

node Eth_Hub [
 Ethernet Hub
]

node USB_Hub [
 USB Hub
]

node Router [
 LTE/WiFi Router
]

rectangle Dish_Router [
 StarLink Router,
 Dish
]

node Radar [
 Radar
]

node Touchscreen [
 HDMI Touchscreen
]

rectangle Speakers [
 Speakers
]

rectangle Cameras [
 Cameras
]

node SDR [
 SDR Radio
]

node SSB [
 SSB Radio
]

cloud WiFi_Local [
 Local WiFi
]

rectangle Iridium [
 Iridium Phone
]

rectangle Other_Sensors [
 Other_Sensors
 - - - -
 IoT, 1w, i2c, etc
 battery/chargers monitoring
 fluid levels
 env temp/pressure/humid
]

node AC [
 A/C
]

node Fridge [
 Fridge
]

rectangle Lights [
 Lights
]

rectangle Keyboard_Mouse [
 Keyboard
 Mouse
]

rectangle Weather [
 NavTex
 WeatherFax
 Barograph
]

rectangle SmartPhone [
 SmartPhones
 Tablets
]

database NAS [
 NAS
 - - - -
 Audio/Video Lib
 Charts, Backups, Tracks,
 Time Series Data, etc
]

cloud Cloud_Internet [
 Internet
 Cloud Storage
 Cloud Services
]

RPI - - GPS
RPI -l- IMU
RPI - - NMEA_2000
RPI - - NMEA_Mux
RPI -u- Eth_Hub
RPI - - USB_Hub
RPI -u- Touchscreen
RPI -u- Cameras
RPI -u-> Speakers
RPI - - SSB
RPI - - Iridium
RPI - - Other_Sensors
RPI -u- WiFi_Local
RPI -u- Keyboard_Mouse

SmartPhone - - WiFi_Local

Eth_Hub -r- Router
Eth_Hub - - Radar
Eth_Hub - - NAS
Eth_Hub -u- Dish_Router

USB_Hub - - SDR
USB_Hub - - Weather

Other_Sensors - - AC
Other_Sensors - - Fridge
Other_Sensors - - Lights

NMEA_Mux - - NMEA_0183
NMEA_Mux - - AP

Cloud_Internet - - Dish_Router
Cloud_Internet - - Router

Skipper - - Touchscreen
Skipper - - Speakers
Skipper - - Cameras
Skipper - - SmartPhone
Skipper - - Keyboard_Mouse

@enduml

PlantUML version 1.2021.00(Sun Jan 10 05:25:05 EST 2021)
(GPL source distribution)
Java Runtime: OpenJDK Runtime Environment
JVM: OpenJDK 64-Bit Server VM
Default Encoding: Cp1252
Language: en
Country: US
--></g></svg>