<?xml version="1.0" encoding="UTF-8" standalone="no"?><svg xmlns="http://www.w3.org/2000/svg" xmlns:xlink="http://www.w3.org/1999/xlink" contentScriptType="application/ecmascript" contentStyleType="text/css" height="669.75px" preserveAspectRatio="none" style="width:1198px;height:669px;" version="1.1" viewBox="0 0 1198 669" width="1198.5px" zoomAndPan="magnify"><defs><filter height="300%" id="fei5lve0pcn70" width="300%" x="-1" y="-1"><feGaussianBlur result="blurOut" stdDeviation="1.5"/><feColorMatrix in="blurOut" result="blurOut2" type="matrix" values="0 0 0 0 0 0 0 0 0 0 0 0 0 0 0 0 0 0 .4 0"/><feOffset dx="3.0" dy="3.0" in="blurOut2" result="blurOut3"/><feBlend in="SourceGraphic" in2="blurOut3" mode="normal"/></filter></defs><g><!--MD5=[f50827fad462c3f51a79aa3f1564e3ff]
entity Skipper--><ellipse cx="590.625" cy="14.6233" fill="#FEFECE" filter="url(#fei5lve0pcn70)" rx="6" ry="6" style="stroke:#A80036;stroke-width:1.125;"/><path d="M590.625,20.6233 L590.625,40.8733 M580.875,26.6233 L600.375,26.6233 M590.625,40.8733 L580.875,52.1233 M590.625,40.8733 L600.375,52.1233 " fill="none" filter="url(#fei5lve0pcn70)" style="stroke:#A80036;stroke-width:1.125;"/><text fill="#000000" font-family="sans-serif" font-size="10.5" lengthAdjust="spacing" textLength="36" x="572.625" y="67.1482">Skipper</text><!--MD5=[56bb6c3bc4df8cdefb957cc5b3ef3a7e]
entity RPI--><polygon fill="#FEFECE" filter="url(#fei5lve0pcn70)" points="555.75,289.4983,563.25,281.9983,667.5,281.9983,667.5,369.0335,660,376.5335,555.75,376.5335,555.75,289.4983" style="stroke:#000000;stroke-width:1.125;"/><line style="stroke:#000000;stroke-width:1.125;" x1="660" x2="667.5" y1="289.4983" y2="281.9983"/><line style="stroke:#000000;stroke-width:1.125;" x1="555.75" x2="660" y1="289.4983" y2="289.4983"/><line style="stroke:#000000;stroke-width:1.125;" x1="660" x2="660" y1="289.4983" y2="376.5335"/><text fill="#000000" font-family="sans-serif" font-size="10.5" font-weight="bold" lengthAdjust="spacing" textLength="69.75" x="567" y="307.8982">Rpi4, BBN OS</text><line style="stroke:#000000;stroke-width:0.75;" x1="555.75" x2="660" y1="310.2053" y2="310.2053"/><line style="stroke:#000000;stroke-width:0.75;" x1="660" x2="667.5" y1="310.2053" y2="302.7053"/><text fill="#000000" font-family="sans-serif" font-size="10.5" lengthAdjust="spacing" textLength="49.5" x="567" y="324.1052">Local WiFi</text><text fill="#000000" font-family="sans-serif" font-size="10.5" lengthAdjust="spacing" textLength="81.75" x="567" y="337.3123">CanBus Interface</text><text fill="#000000" font-family="sans-serif" font-size="10.5" lengthAdjust="spacing" textLength="57" x="567" y="350.5193">Sound Card</text><text fill="#000000" font-family="sans-serif" font-size="10.5" lengthAdjust="spacing" textLength="21" x="567" y="363.7263">SSD</text><!--MD5=[cd1d357e028b96f42ee72ab526715f53]
entity GPS--><rect fill="#FEFECE" filter="url(#fei5lve0pcn70)" height="28.207" style="stroke:#000000;stroke-width:1.125;" width="60" x="624.375" y="463.8733"/><text fill="#000000" font-family="sans-serif" font-size="10.5" lengthAdjust="spacing" textLength="45" x="631.875" y="482.2732">GPS USB</text><!--MD5=[ae8265c62b5fdfc486198cf91618d43d]
entity IMU--><rect fill="#FEFECE" filter="url(#fei5lve0pcn70)" height="47.4141" style="stroke:#000000;stroke-width:1.125;" width="114.75" x="414.75" y="305.6233"/><text fill="#000000" font-family="sans-serif" font-size="10.5" lengthAdjust="spacing" textLength="17.25" x="422.25" y="324.0232">IMU</text><line style="stroke:#000000;stroke-width:0.75;" x1="415.5" x2="528.75" y1="326.3303" y2="326.3303"/><text fill="#000000" font-family="sans-serif" font-size="10.5" lengthAdjust="spacing" textLength="99.75" x="422.25" y="340.2302">compass, gyro, accel</text><!--MD5=[b17a41457b887f0466e22bd7e05c4601]
entity NMEA_2000--><rect fill="#FEFECE" filter="url(#fei5lve0pcn70)" height="73.8281" style="stroke:#000000;stroke-width:1.125;" width="94.5" x="198.375" y="441.3733"/><text fill="#000000" font-family="sans-serif" font-size="10.5" font-weight="bold" lengthAdjust="spacing" textLength="78" x="205.875" y="459.7732">NMEA2000 Bus</text><line style="stroke:#000000;stroke-width:0.75;" x1="199.125" x2="292.125" y1="462.0803" y2="462.0803"/><text fill="#000000" font-family="sans-serif" font-size="10.5" lengthAdjust="spacing" textLength="75.75" x="205.875" y="475.9802">engine sensors,</text><text fill="#000000" font-family="sans-serif" font-size="10.5" lengthAdjust="spacing" textLength="79.5" x="205.875" y="489.1873">fishfinder, sonar,</text><text fill="#000000" font-family="sans-serif" font-size="10.5" lengthAdjust="spacing" textLength="14.25" x="205.875" y="502.3943">etc</text><!--MD5=[6eed89ef60fd1dd7e5ad5481c6afc096]
entity NMEA_Mux--><polygon fill="#FEFECE" filter="url(#fei5lve0pcn70)" points="743.25,458.2483,750.75,450.7483,874.5,450.7483,874.5,498.1624,867,505.6624,743.25,505.6624,743.25,458.2483" style="stroke:#000000;stroke-width:1.125;"/><line style="stroke:#000000;stroke-width:1.125;" x1="867" x2="874.5" y1="458.2483" y2="450.7483"/><line style="stroke:#000000;stroke-width:1.125;" x1="743.25" x2="867" y1="458.2483" y2="458.2483"/><line style="stroke:#000000;stroke-width:1.125;" x1="867" x2="867" y1="458.2483" y2="505.6624"/><text fill="#000000" font-family="sans-serif" font-size="10.5" lengthAdjust="spacing" textLength="81.75" x="754.5" y="476.6482">NMEA Multiplexer</text><line style="stroke:#000000;stroke-width:0.75;" x1="743.25" x2="867" y1="478.9553" y2="478.9553"/><line style="stroke:#000000;stroke-width:0.75;" x1="867" x2="874.5" y1="478.9553" y2="471.4553"/><text fill="#000000" font-family="sans-serif" font-size="10.5" lengthAdjust="spacing" textLength="101.25" x="754.5" y="492.8552">bidirectional Seatalk1</text><!--MD5=[1eaf4d2f8be208adf81d4b0ad8be7432]
entity NMEA_0183--><rect fill="#FEFECE" filter="url(#fei5lve0pcn70)" height="73.8281" style="stroke:#000000;stroke-width:1.125;" width="126" x="745.875" y="583.4983"/><text fill="#000000" font-family="sans-serif" font-size="10.5" font-weight="bold" lengthAdjust="spacing" textLength="103.5" x="753.375" y="601.8982">NMEA 0183 Devices</text><line style="stroke:#000000;stroke-width:0.75;" x1="746.625" x2="871.125" y1="604.2053" y2="604.2053"/><text fill="#000000" font-family="sans-serif" font-size="10.5" lengthAdjust="spacing" textLength="111" x="753.375" y="618.1052">AIS transducer/receiver</text><text fill="#000000" font-family="sans-serif" font-size="10.5" lengthAdjust="spacing" textLength="96" x="753.375" y="631.3123">GPS, VHF, compass</text><text fill="#000000" font-family="sans-serif" font-size="10.5" lengthAdjust="spacing" textLength="95.25" x="753.375" y="644.5193">Wind, Depth, Speed</text><!--MD5=[31e3ec59327e273962ce661ad70afaa5]
entity AP--><rect fill="#FEFECE" filter="url(#fei5lve0pcn70)" height="28.207" style="stroke:#000000;stroke-width:1.125;" width="56.25" x="898.5" y="605.9983"/><text fill="#000000" font-family="sans-serif" font-size="10.5" lengthAdjust="spacing" textLength="41.25" x="906" y="624.3982">Autopilot</text><!--MD5=[547615c2c8915297a73af811d5dbf318]
entity Eth_Hub--><polygon fill="#FEFECE" filter="url(#fei5lve0pcn70)" points="958.5,208.4983,966,200.9983,1050.75,200.9983,1050.75,229.2053,1043.25,236.7053,958.5,236.7053,958.5,208.4983" style="stroke:#000000;stroke-width:1.125;"/><line style="stroke:#000000;stroke-width:1.125;" x1="1043.25" x2="1050.75" y1="208.4983" y2="200.9983"/><line style="stroke:#000000;stroke-width:1.125;" x1="958.5" x2="1043.25" y1="208.4983" y2="208.4983"/><line style="stroke:#000000;stroke-width:1.125;" x1="1043.25" x2="1043.25" y1="208.4983" y2="236.7053"/><text fill="#000000" font-family="sans-serif" font-size="10.5" lengthAdjust="spacing" textLength="62.25" x="969.75" y="226.8982">Ethernet Hub</text><!--MD5=[7968f28c13df0538bc57173754511f0e]
entity USB_Hub--><polygon fill="#FEFECE" filter="url(#fei5lve0pcn70)" points="986.625,467.6233,994.125,460.1233,1058.625,460.1233,1058.625,488.3303,1051.125,495.8303,986.625,495.8303,986.625,467.6233" style="stroke:#000000;stroke-width:1.125;"/><line style="stroke:#000000;stroke-width:1.125;" x1="1051.125" x2="1058.625" y1="467.6233" y2="460.1233"/><line style="stroke:#000000;stroke-width:1.125;" x1="986.625" x2="1051.125" y1="467.6233" y2="467.6233"/><line style="stroke:#000000;stroke-width:1.125;" x1="1051.125" x2="1051.125" y1="467.6233" y2="495.8303"/><text fill="#000000" font-family="sans-serif" font-size="10.5" lengthAdjust="spacing" textLength="42" x="997.875" y="486.0232">USB Hub</text><!--MD5=[953a8c67cfe21abaf9bf45dad8506ca8]
entity Router--><polygon fill="#FEFECE" filter="url(#fei5lve0pcn70)" points="1077,208.4983,1084.5,200.9983,1185.75,200.9983,1185.75,229.2053,1178.25,236.7053,1077,236.7053,1077,208.4983" style="stroke:#000000;stroke-width:1.125;"/><line style="stroke:#000000;stroke-width:1.125;" x1="1178.25" x2="1185.75" y1="208.4983" y2="200.9983"/><line style="stroke:#000000;stroke-width:1.125;" x1="1077" x2="1178.25" y1="208.4983" y2="208.4983"/><line style="stroke:#000000;stroke-width:1.125;" x1="1178.25" x2="1178.25" y1="208.4983" y2="236.7053"/><text fill="#000000" font-family="sans-serif" font-size="10.5" lengthAdjust="spacing" textLength="78.75" x="1088.25" y="226.8982">LTE/WiFi Router</text><!--MD5=[4c7a5f0f4d710d941c4df063500e34ba]
entity Dish_Router--><rect fill="#FEFECE" filter="url(#fei5lve0pcn70)" height="41.4141" style="stroke:#000000;stroke-width:1.125;" width="92.25" x="999" y="114.7483"/><text fill="#000000" font-family="sans-serif" font-size="10.5" lengthAdjust="spacing" textLength="77.25" x="1006.5" y="133.1482">StarLink Router,</text><text fill="#000000" font-family="sans-serif" font-size="10.5" lengthAdjust="spacing" textLength="21" x="1006.5" y="146.3552">Dish</text><!--MD5=[af2495f9a90a9f78578178908d6e69bd]
entity Radar--><polygon fill="#FEFECE" filter="url(#fei5lve0pcn70)" points="1036.5,318.7483,1044,311.2483,1095.75,311.2483,1095.75,339.4553,1088.25,346.9553,1036.5,346.9553,1036.5,318.7483" style="stroke:#000000;stroke-width:1.125;"/><line style="stroke:#000000;stroke-width:1.125;" x1="1088.25" x2="1095.75" y1="318.7483" y2="311.2483"/><line style="stroke:#000000;stroke-width:1.125;" x1="1036.5" x2="1088.25" y1="318.7483" y2="318.7483"/><line style="stroke:#000000;stroke-width:1.125;" x1="1088.25" x2="1088.25" y1="318.7483" y2="346.9553"/><text fill="#000000" font-family="sans-serif" font-size="10.5" lengthAdjust="spacing" textLength="29.25" x="1047.75" y="337.1482">Radar</text><!--MD5=[330778c508571bc43f7e5523a03ca602]
entity Touchscreen--><polygon fill="#FEFECE" filter="url(#fei5lve0pcn70)" points="214.5,208.4983,222,200.9983,344.25,200.9983,344.25,229.2053,336.75,236.7053,214.5,236.7053,214.5,208.4983" style="stroke:#000000;stroke-width:1.125;"/><line style="stroke:#000000;stroke-width:1.125;" x1="336.75" x2="344.25" y1="208.4983" y2="200.9983"/><line style="stroke:#000000;stroke-width:1.125;" x1="214.5" x2="336.75" y1="208.4983" y2="208.4983"/><line style="stroke:#000000;stroke-width:1.125;" x1="336.75" x2="336.75" y1="208.4983" y2="236.7053"/><text fill="#000000" font-family="sans-serif" font-size="10.5" font-weight="bold" lengthAdjust="spacing" textLength="99.75" x="225.75" y="226.8982">HDMI Touchscreen</text><!--MD5=[4c50005c0fadedfb0a14f6d1969de37e]
entity Speakers--><rect fill="#FEFECE" filter="url(#fei5lve0pcn70)" height="28.207" style="stroke:#000000;stroke-width:1.125;" width="60" x="629.625" y="204.7483"/><text fill="#000000" font-family="sans-serif" font-size="10.5" lengthAdjust="spacing" textLength="45" x="637.125" y="223.1482">Speakers</text><!--MD5=[1b76df3a4bd008a21abb34082ebb9919]
entity Cameras--><rect fill="#FEFECE" filter="url(#fei5lve0pcn70)" height="28.207" style="stroke:#000000;stroke-width:1.125;" width="57.75" x="657" y="121.1233"/><text fill="#000000" font-family="sans-serif" font-size="10.5" lengthAdjust="spacing" textLength="42.75" x="664.5" y="139.5232">Cameras</text><!--MD5=[d92e9b93d5ce4574427d5f042afd2321]
entity SDR--><polygon fill="#FEFECE" filter="url(#fei5lve0pcn70)" points="981.375,609.7483,988.875,602.2483,1063.875,602.2483,1063.875,630.4553,1056.375,637.9553,981.375,637.9553,981.375,609.7483" style="stroke:#000000;stroke-width:1.125;"/><line style="stroke:#000000;stroke-width:1.125;" x1="1056.375" x2="1063.875" y1="609.7483" y2="602.2483"/><line style="stroke:#000000;stroke-width:1.125;" x1="981.375" x2="1056.375" y1="609.7483" y2="609.7483"/><line style="stroke:#000000;stroke-width:1.125;" x1="1056.375" x2="1056.375" y1="609.7483" y2="637.9553"/><text fill="#000000" font-family="sans-serif" font-size="10.5" lengthAdjust="spacing" textLength="52.5" x="992.625" y="628.1482">SDR Radio</text><!--MD5=[6ba27cb6ab6c98fb8258247a8e3f62be]
entity SSB--><polygon fill="#FEFECE" filter="url(#fei5lve0pcn70)" points="522.375,208.4983,529.875,200.9983,603.375,200.9983,603.375,229.2053,595.875,236.7053,522.375,236.7053,522.375,208.4983" style="stroke:#000000;stroke-width:1.125;"/><line style="stroke:#000000;stroke-width:1.125;" x1="595.875" x2="603.375" y1="208.4983" y2="200.9983"/><line style="stroke:#000000;stroke-width:1.125;" x1="522.375" x2="595.875" y1="208.4983" y2="208.4983"/><line style="stroke:#000000;stroke-width:1.125;" x1="595.875" x2="595.875" y1="208.4983" y2="236.7053"/><text fill="#000000" font-family="sans-serif" font-size="10.5" lengthAdjust="spacing" textLength="51" x="533.625" y="226.8982">SSB Radio</text><!--MD5=[dd29c4e1cef6fbff2e61a9551f8f2bf2]
entity WiFi_Local--><path d="M378.1576,207.2166 C380.889,202.4445 384.1871,202.4705 387.8245,206.1845 C390.3887,200.7549 394.7308,200.7143 398.1393,205.3163 C400.1002,200.3043 403.2142,199.849 407.1995,203.0954 C411.2787,198.2166 415.8344,199.2057 418.2761,204.8234 C422.6595,201.1622 425.7605,202.2708 428.0844,207.1803 C430.4796,202.6703 434.9863,203.1127 437.3726,207.1898 C444.8107,208.2525 447.696,212.5598 443.0682,219.2981 C446.6525,225.1249 445.8206,230.9167 437.6967,231.6533 C435.3712,236.8564 432.5716,238.2494 428.1358,233.7282 C425.647,238.562 421.3863,239.829 417.3969,235.4838 C415.2365,239.8768 412.2301,241.6244 408.3378,237.2792 C404.0924,242.3468 399.2885,241.6492 396.9813,235.3438 C392.5205,238.5104 389.6017,238.1134 387.7834,232.5573 C383.9865,236.8942 379.9358,237.2996 377.4432,231.2578 C370.3468,229.4743 369.4635,225.9323 373.7029,220.2848 C368.3507,214.662 370.9929,208.5726 378.1576,207.2166 " fill="#FEFECE" filter="url(#fei5lve0pcn70)" style="stroke:#000000;stroke-width:1.125;"/><text fill="#000000" font-family="sans-serif" font-size="10.5" lengthAdjust="spacing" textLength="49.5" x="382.125" y="223.1482">Local WiFi</text><!--MD5=[82bbb9a7a666b856fa28a649fd3171aa]
entity Iridium--><rect fill="#FEFECE" filter="url(#fei5lve0pcn70)" height="28.207" style="stroke:#000000;stroke-width:1.125;" width="79.5" x="741.375" y="121.1233"/><text fill="#000000" font-family="sans-serif" font-size="10.5" lengthAdjust="spacing" textLength="64.5" x="748.875" y="139.5232">Iridium Phone</text><!--MD5=[8f0c441f12fb738c5e80b28ccd1b0a87]
entity Other_Sensors--><rect fill="#FEFECE" filter="url(#fei5lve0pcn70)" height="113.4492" style="stroke:#000000;stroke-width:1.125;" width="145.5" x="319.125" y="421.4983"/><text fill="#000000" font-family="sans-serif" font-size="10.5" lengthAdjust="spacing" textLength="72" x="326.625" y="439.8982">Other_Sensors</text><line style="stroke:#000000;stroke-width:0.75;" x1="319.875" x2="463.875" y1="442.2053" y2="442.2053"/><text fill="#000000" font-family="sans-serif" font-size="10.5" lengthAdjust="spacing" textLength="73.5" x="326.625" y="456.1052">IoT, 1w, i2c, etc</text><text fill="#000000" font-family="sans-serif" font-size="10.5" lengthAdjust="spacing" textLength="130.5" x="326.625" y="469.3123">battery/chargers monitoring</text><text fill="#000000" font-family="sans-serif" font-size="10.5" lengthAdjust="spacing" textLength="49.5" x="326.625" y="482.5193">fluid levels</text><text fill="#000000" font-family="sans-serif" font-size="10.5" lengthAdjust="spacing" textLength="120" x="326.625" y="495.7263">env temp/pressure/humid</text><text fill="#000000" font-family="sans-serif" font-size="10.5" lengthAdjust="spacing" textLength="123" x="326.625" y="508.9334">dangerous gases sensors</text><text fill="#000000" font-family="sans-serif" font-size="10.5" lengthAdjust="spacing" textLength="108.75" x="326.625" y="522.1404">lightning strike sensors</text><!--MD5=[869fbf9b9ca9ac4bdf61f7068ab1ff9c]
entity Remote_Desktop--><rect fill="#FEFECE" filter="url(#fei5lve0pcn70)" height="28.207" style="stroke:#000000;stroke-width:1.125;" width="125.25" x="847.5" y="121.1233"/><text fill="#000000" font-family="sans-serif" font-size="10.5" lengthAdjust="spacing" textLength="110.25" x="855" y="139.5232">Remote Desktop (VNC)</text><!--MD5=[0313ddc4f8ed0f4991a51edae0b1647c]
entity AC--><polygon fill="#FEFECE" filter="url(#fei5lve0pcn70)" points="285.375,603.3733,292.875,595.8733,346.875,595.8733,346.875,637.2874,339.375,644.7874,285.375,644.7874,285.375,603.3733" style="stroke:#000000;stroke-width:1.125;"/><line style="stroke:#000000;stroke-width:1.125;" x1="339.375" x2="346.875" y1="603.3733" y2="595.8733"/><line style="stroke:#000000;stroke-width:1.125;" x1="285.375" x2="339.375" y1="603.3733" y2="603.3733"/><line style="stroke:#000000;stroke-width:1.125;" x1="339.375" x2="339.375" y1="603.3733" y2="644.7874"/><text fill="#000000" font-family="sans-serif" font-size="10.5" lengthAdjust="spacing" textLength="17.25" x="296.625" y="621.7732">A/C</text><text fill="#000000" font-family="sans-serif" font-size="10.5" lengthAdjust="spacing" textLength="31.5" x="296.625" y="634.9802">Heater</text><!--MD5=[cec077422889c5d3cb551e1217c37df7]
entity Pumps--><polygon fill="#FEFECE" filter="url(#fei5lve0pcn70)" points="373.5,587.2483,381,579.7483,462.75,579.7483,462.75,653.5764,455.25,661.0764,373.5,661.0764,373.5,587.2483" style="stroke:#000000;stroke-width:1.125;"/><line style="stroke:#000000;stroke-width:1.125;" x1="455.25" x2="462.75" y1="587.2483" y2="579.7483"/><line style="stroke:#000000;stroke-width:1.125;" x1="373.5" x2="455.25" y1="587.2483" y2="587.2483"/><line style="stroke:#000000;stroke-width:1.125;" x1="455.25" x2="455.25" y1="587.2483" y2="661.0764"/><text fill="#000000" font-family="sans-serif" font-size="10.5" lengthAdjust="spacing" textLength="32.25" x="384.75" y="605.6482">Pumps</text><line style="stroke:#000000;stroke-width:0.75;" x1="373.5" x2="455.25" y1="607.9553" y2="607.9553"/><line style="stroke:#000000;stroke-width:0.75;" x1="455.25" x2="462.75" y1="607.9553" y2="600.4553"/><text fill="#000000" font-family="sans-serif" font-size="10.5" lengthAdjust="spacing" textLength="23.25" x="384.75" y="621.8552">Bilge</text><text fill="#000000" font-family="sans-serif" font-size="10.5" lengthAdjust="spacing" textLength="59.25" x="384.75" y="635.0623">Fresh Water</text><text fill="#000000" font-family="sans-serif" font-size="10.5" lengthAdjust="spacing" textLength="57" x="384.75" y="648.2693">Black Water</text><!--MD5=[c74dee767baeeec0e713c54a8a4634dc]
entity Fridge--><polygon fill="#FEFECE" filter="url(#fei5lve0pcn70)" points="12,596.6233,19.5,589.1233,99.75,589.1233,99.75,643.7444,92.25,651.2444,12,651.2444,12,596.6233" style="stroke:#000000;stroke-width:1.125;"/><line style="stroke:#000000;stroke-width:1.125;" x1="92.25" x2="99.75" y1="596.6233" y2="589.1233"/><line style="stroke:#000000;stroke-width:1.125;" x1="12" x2="92.25" y1="596.6233" y2="596.6233"/><line style="stroke:#000000;stroke-width:1.125;" x1="92.25" x2="92.25" y1="596.6233" y2="651.2444"/><text fill="#000000" font-family="sans-serif" font-size="10.5" lengthAdjust="spacing" textLength="30.75" x="23.25" y="615.0232">Fridge</text><text fill="#000000" font-family="sans-serif" font-size="10.5" lengthAdjust="spacing" textLength="57.75" x="23.25" y="628.2302">Watermaker</text><text fill="#000000" font-family="sans-serif" font-size="10.5" lengthAdjust="spacing" textLength="39.75" x="23.25" y="641.4373">Live well</text><!--MD5=[0b2190a355246a80d89d74c5c2c53ceb]
entity Lights_Fans--><rect fill="#FEFECE" filter="url(#fei5lve0pcn70)" height="81.0352" style="stroke:#000000;stroke-width:1.125;" width="132.75" x="126" y="579.7483"/><text fill="#000000" font-family="sans-serif" font-size="10.5" lengthAdjust="spacing" textLength="99" x="133.5" y="598.1482">Lights: (Nav, Anchor,</text><text fill="#000000" font-family="sans-serif" font-size="10.5" lengthAdjust="spacing" textLength="105" x="133.5" y="611.3552">Running, Mast, Cabin,</text><text fill="#000000" font-family="sans-serif" font-size="10.5" lengthAdjust="spacing" textLength="117.75" x="133.5" y="624.5623">Underwater, Search, etc)</text><text fill="#000000" font-family="sans-serif" font-size="10.5" lengthAdjust="spacing" textLength="24" x="133.5" y="637.7693">Fans</text><text fill="#000000" font-family="sans-serif" font-size="10.5" lengthAdjust="spacing" textLength="93.75" x="133.5" y="650.9763">Bilge/Engine Blower</text><!--MD5=[593e445c9278762cb4ef7b840df82fac]
entity Keyboard_Mouse--><rect fill="#FEFECE" filter="url(#fei5lve0pcn70)" height="41.4141" style="stroke:#000000;stroke-width:1.125;" width="60.75" x="462.75" y="114.7483"/><text fill="#000000" font-family="sans-serif" font-size="10.5" lengthAdjust="spacing" textLength="45.75" x="470.25" y="133.1482">Keyboard</text><text fill="#000000" font-family="sans-serif" font-size="10.5" lengthAdjust="spacing" textLength="31.5" x="470.25" y="146.3552">Mouse</text><!--MD5=[6068ed0baf2edbbb46a7f906664363da]
entity Weather--><rect fill="#FEFECE" filter="url(#fei5lve0pcn70)" height="54.6211" style="stroke:#000000;stroke-width:1.125;" width="72.75" x="1090.5" y="592.8733"/><text fill="#000000" font-family="sans-serif" font-size="10.5" lengthAdjust="spacing" textLength="35.25" x="1098" y="611.2732">NavTex</text><text fill="#000000" font-family="sans-serif" font-size="10.5" lengthAdjust="spacing" textLength="57.75" x="1098" y="624.4802">WeatherFax</text><text fill="#000000" font-family="sans-serif" font-size="10.5" lengthAdjust="spacing" textLength="50.25" x="1098" y="637.6873">Barograph</text><!--MD5=[0df37b53dbcc900899e095c990e30b8f]
entity SiriusXM--><rect fill="#FEFECE" filter="url(#fei5lve0pcn70)" height="28.207" style="stroke:#000000;stroke-width:1.125;" width="90.75" x="200.25" y="314.9983"/><text fill="#000000" font-family="sans-serif" font-size="10.5" lengthAdjust="spacing" textLength="75.75" x="207.75" y="333.3982">SiriusXM Marine</text><!--MD5=[d59b03f458f75ee04d94168ba7ec459b]
entity SmartPhone--><rect fill="#FEFECE" filter="url(#fei5lve0pcn70)" height="41.4141" style="stroke:#000000;stroke-width:1.125;" width="78.75" x="357.75" y="114.7483"/><text fill="#000000" font-family="sans-serif" font-size="10.5" lengthAdjust="spacing" textLength="63.75" x="365.25" y="133.1482">SmartPhones</text><text fill="#000000" font-family="sans-serif" font-size="10.5" lengthAdjust="spacing" textLength="35.25" x="365.25" y="146.3552">Tablets</text><!--MD5=[13e88d8e4422c8d855b54f0d2bc171be]
entity NAS--><path d="M876,296.6233 C876,289.1233 943.125,289.1233 943.125,289.1233 C943.125,289.1233 1010.25,289.1233 1010.25,296.6233 L1010.25,362.2014 C1010.25,369.7014 943.125,369.7014 943.125,369.7014 C943.125,369.7014 876,369.7014 876,362.2014 L876,296.6233 " fill="#FEFECE" filter="url(#fei5lve0pcn70)" style="stroke:#000000;stroke-width:1.125;"/><path d="M876,296.6233 C876,304.1233 943.125,304.1233 943.125,304.1233 C943.125,304.1233 1010.25,304.1233 1010.25,296.6233 " fill="none" style="stroke:#000000;stroke-width:1.125;"/><text fill="#000000" font-family="sans-serif" font-size="10.5" lengthAdjust="spacing" textLength="20.25" x="883.5" y="318.0232">NAS</text><path d="M876,316.5803 C876,324.0803 943.125,324.0803 943.125,324.0803 C943.125,324.0803 1010.25,324.0803 1010.25,316.5803 " fill="none" style="stroke:#000000;stroke-width:0.75;"/><text fill="#000000" font-family="sans-serif" font-size="10.5" lengthAdjust="spacing" textLength="74.25" x="883.5" y="334.2302">Audio/Video Lib</text><text fill="#000000" font-family="sans-serif" font-size="10.5" lengthAdjust="spacing" textLength="119.25" x="883.5" y="347.4373">Charts, Backups, Tracks,</text><text fill="#000000" font-family="sans-serif" font-size="10.5" lengthAdjust="spacing" textLength="102" x="883.5" y="360.6443">Time Series Data, etc</text><!--MD5=[ee9653e0a8f11fcc17536c9839054b2a]
entity Winches--><polygon fill="#FEFECE" filter="url(#fei5lve0pcn70)" points="489.375,596.6233,496.875,589.1233,598.875,589.1233,598.875,643.7444,591.375,651.2444,489.375,651.2444,489.375,596.6233" style="stroke:#000000;stroke-width:1.125;"/><line style="stroke:#000000;stroke-width:1.125;" x1="591.375" x2="598.875" y1="596.6233" y2="589.1233"/><line style="stroke:#000000;stroke-width:1.125;" x1="489.375" x2="591.375" y1="596.6233" y2="596.6233"/><line style="stroke:#000000;stroke-width:1.125;" x1="591.375" x2="591.375" y1="596.6233" y2="651.2444"/><text fill="#000000" font-family="sans-serif" font-size="10.5" lengthAdjust="spacing" textLength="79.5" x="500.625" y="615.0232">Anchor Windlass</text><text fill="#000000" font-family="sans-serif" font-size="10.5" lengthAdjust="spacing" textLength="72.75" x="500.625" y="628.2302">Power Winches</text><text fill="#000000" font-family="sans-serif" font-size="10.5" lengthAdjust="spacing" textLength="63" x="500.625" y="641.4373">Bow Thruster</text><!--MD5=[48e79d9335dd0cd53682a5a492aea5d9]
entity Cloud_Internet--><path d="M938.37,14.9541 C940.3593,9.9999 943.488,9.5325 947.3845,12.8841 C949.7436,6.86 952.9102,6.3585 957.2808,11.0215 C959.8684,6.0405 964.6885,4.9621 967.88,10.4076 C970.8199,4.5 975.5284,4.6685 979.1456,9.7107 C981.8845,5.8281 986.2676,5.8353 988.3777,10.3981 C992.039,7.0284 996.3227,7.0647 998.1852,12.4201 C1001.2201,8.0303 1005.4136,7.8565 1008.5272,12.3283 C1013.0741,6.9662 1016.4632,8.062 1019.4265,13.873 C1024.7368,16.5818 1024.5361,20.1161 1020.0333,23.4468 C1024.4799,24.909 1024.3418,27.3848 1021.9006,30.6361 C1026.5037,32.8941 1028.0238,36.2481 1023.5822,40.1113 C1026.4579,43.2044 1025.8378,46.1103 1021.6027,47.2246 C1024.5846,50.323 1024.7017,53.2156 1020.5588,55.4047 C1024.5291,58.726 1024.1444,61.4612 1019.6245,63.8424 C1016.5001,68.677 1013.4678,70.0958 1009.1858,65.0676 C1006.3107,69.7086 1002.123,70.2089 999.3537,64.9624 C996.6673,71.0583 991.531,70.1524 988.3522,65.4647 C986.1775,70.1089 981.0888,71.407 977.7532,66.794 C973.9814,71.2818 970.9987,70.3537 968.5774,65.4714 C965.0542,70.9702 961.8873,70.5021 958.2552,65.5794 C955.1124,70.5031 951.4194,69.7351 948.2029,65.6618 C943.5913,70.436 939.5956,70.5029 936.7714,63.8706 C933.115,61.6061 932.8013,58.1779 936.6098,55.7646 C932.2476,53.4234 932.175,50.5302 936.1932,47.7532 C931.8151,45.2295 932.237,41.9979 935.8303,39.1383 C932.4768,36.2381 932.1462,33.4069 936.332,30.9698 C932.4002,27.8643 933.0604,24.6342 937.6964,22.9945 C933.7252,19.8859 934.4817,17.4043 938.37,14.9541 " fill="#FEFECE" filter="url(#fei5lve0pcn70)" style="stroke:#000000;stroke-width:1.125;"/><text fill="#000000" font-family="sans-serif" font-size="10.5" font-weight="bold" lengthAdjust="spacing" textLength="42" x="942" y="29.6482">Internet</text><text fill="#000000" font-family="sans-serif" font-size="10.5" lengthAdjust="spacing" textLength="68.25" x="942" y="42.8552">Cloud Storage</text><text fill="#000000" font-family="sans-serif" font-size="10.5" lengthAdjust="spacing" textLength="71.25" x="942" y="56.0623">Cloud Services</text><!--MD5=[f38da3986c5ca1dec060c2524b9ccddc]
entity Lora--><path d="M632.4937,596.334 C634.0226,592.3117 636.4161,591.8051 639.6445,594.5338 C641.386,590.5766 645.3439,589.9396 648.3197,593.0102 C650.5755,589.5285 654.0706,590.1258 655.9777,593.4051 C658.4292,587.8667 661.6522,588.3996 665.6113,591.7759 C667.2174,587.3829 669.8773,586.9595 673.0625,590.2431 C676.8212,587.009 679.3698,588.0647 681.4345,592.1743 C684.6789,588.5184 687.0274,589.7466 689.1708,593.348 C691.3827,589.9652 695.3155,589.7817 697.2823,593.6231 C700.6136,589.8015 703.7329,590.8112 705.4482,595.2254 C708.5696,590.469 712.2055,590.7953 715.0862,595.4714 C719.6675,597.4679 719.5852,601.4314 715.9405,604.2301 C720.1601,606.409 720.87,609.4045 716.8815,612.5156 C722.2627,613.9303 722.3684,617.628 719.2514,621.328 C723.2147,624.7676 721.4657,628.621 717.2203,630.1763 C720.6619,633.1064 720.3397,636.1072 716.1117,637.9425 C719.7674,641.4031 719.2575,644.7599 714.3874,646.5033 C711.9134,649.6414 709.1831,649.7564 706.6838,646.534 C704.0001,650.2136 700.8738,650.5957 698.5587,646.1648 C696.2683,651.2145 693.4228,651.5229 689.7773,647.4724 C687.4622,650.7904 684.5935,651.3439 682.1822,647.5756 C679.621,651.249 676.4993,651.3922 673.6148,647.9657 C670.6284,650.9637 667.7254,650.4763 665.6358,646.8805 C663.0085,650.3242 659.118,651.0651 656.9021,646.4353 C654.3892,649.9379 651.2146,650.8023 648.7858,646.3495 C646.2434,649.9671 643.6262,650.335 640.4549,647.1158 C637.0086,650.1419 633.8751,649.9693 632.0779,645.3167 C628.17,643.7213 626.8232,640.3252 630.7067,637.3831 C626.2376,634.8638 626.1232,631.9624 630.4977,629.2168 C626.5647,626.3477 626.8117,623.9874 630.7176,621.3371 C626.7189,618.0614 627.3931,615.0172 631.6123,612.5812 C627.9487,610.1371 628.2591,606.7599 631.8357,604.5163 C628.5984,601.5867 628.2748,598.664 632.4937,596.334 " fill="#FEFECE" filter="url(#fei5lve0pcn70)" style="stroke:#000000;stroke-width:1.125;"/><text fill="#000000" font-family="sans-serif" font-size="10.5" lengthAdjust="spacing" textLength="45" x="636.375" y="611.2732">LoraWAN</text><text fill="#000000" font-family="sans-serif" font-size="10.5" lengthAdjust="spacing" textLength="70.5" x="636.375" y="624.4802">Asset Tracking</text><text fill="#000000" font-family="sans-serif" font-size="10.5" lengthAdjust="spacing" textLength="72" x="636.375" y="637.6873">Dinghy Locator</text><!--MD5=[3ff5d2fb9a8117c537632aae671cabcb]
entity Esp32--><rect fill="#FEFECE" filter="url(#fei5lve0pcn70)" height="41.4141" style="stroke:#000000;stroke-width:1.125;" width="57" x="541.125" y="457.4983"/><text fill="#000000" font-family="sans-serif" font-size="10.5" lengthAdjust="spacing" textLength="42" x="548.625" y="475.8982">m5stack,</text><text fill="#000000" font-family="sans-serif" font-size="10.5" lengthAdjust="spacing" textLength="36" x="548.625" y="489.1052">arduino</text><!--MD5=[5d3c09c67791d820f6e58e35ac1308e3]
link RPI to GPS--><path codeLine="193" d="M625.155,376.6258 C633.9075,406.8208 644.7075,444.0433 650.4075,463.7083 " fill="none" id="RPI-GPS" style="stroke:#A80036;stroke-width:0.75;"/><!--MD5=[c6d492c1e608e21002a1e79a049df954]
link IMU to RPI--><path codeLine="194" d="M529.6125,329.2483 C538.2675,329.2483 546.915,329.2483 555.5625,329.2483 " fill="none" id="IMU-RPI" style="stroke:#A80036;stroke-width:0.75;"/><!--MD5=[a860cb1a85174d4976dae9c4f32e49f8]
link RPI to NMEA_2000--><path codeLine="195" d="M555.6075,370.3558 C551.3175,372.6283 546.9675,374.7133 542.625,376.4983 C443.475,417.2908 401.28,373.0633 305.625,421.4983 C295.7175,426.5158 286.2825,433.6633 277.9425,441.1708 " fill="none" id="RPI-NMEA_2000" style="stroke:#A80036;stroke-width:0.75;"/><!--MD5=[f75ecebad45d24d2cfeff8c08b96d55d]
link RPI to NMEA_Mux--><path codeLine="196" d="M667.62,371.8333 C701.4525,397.1083 743.565,428.5783 772.965,450.5458 " fill="none" id="RPI-NMEA_Mux" style="stroke:#A80036;stroke-width:0.75;"/><!--MD5=[3577f1ad49970e59a1e1697b6041c28e]
link Eth_Hub to RPI--><path codeLine="197" d="M958.3875,232.5433 C885.9525,252.5908 745.9425,291.3283 667.8075,312.9508 " fill="none" id="Eth_Hub-RPI" style="stroke:#A80036;stroke-width:0.75;"/><!--MD5=[1d20bbed48bf86b90ee5f13bc892e6f4]
link RPI to USB_Hub--><path codeLine="198" d="M667.545,347.2333 C723.5925,364.8058 812.16,393.4183 887.625,421.4983 C921.5025,434.1058 959.49,449.9908 986.52,461.6008 " fill="none" id="RPI-USB_Hub" style="stroke:#A80036;stroke-width:0.75;"/><!--MD5=[920310a45a910abea0e78fc3f928b9c7]
link Touchscreen to RPI--><path codeLine="199" d="M344.4525,234.5233 C419.3925,251.6308 533.445,277.9783 542.625,281.9983 C546.99,283.9108 551.3775,286.1008 555.7125,288.4708 " fill="none" id="Touchscreen-RPI" style="stroke:#A80036;stroke-width:0.75;"/><!--MD5=[e542bf0be54ca915b2a2c465769198ce]
link Cameras to RPI--><path codeLine="200" d="M692.7675,149.7058 C701.865,169.5808 715.365,207.4483 703.125,236.9983 C695.43,255.5758 681.93,272.3458 667.6275,286.3033 " fill="none" id="Cameras-RPI" style="stroke:#A80036;stroke-width:0.75;"/><!--MD5=[738bdf1011746a1c073c591ef970d801]
reverse link Speakers to RPI--><path codeLine="201" d="M652.05,236.9083 C646.695,249.0508 639.2325,265.9408 632.1825,281.9233 " fill="none" id="Speakers-backto-RPI" style="stroke:#A80036;stroke-width:0.75;"/><polygon fill="#A80036" points="653.64,233.3008,648.1787,238.2744,652.1319,236.7342,653.6721,240.6874,653.64,233.3008" style="stroke:#A80036;stroke-width:0.75;"/><!--MD5=[9d6d2f6c2f4d2fc3bb3ff0dee1317c54]
link SSB to RPI--><path codeLine="202" d="M570.705,237.2233 C576.1425,249.3508 583.6575,266.1133 590.7675,281.9683 " fill="none" id="SSB-RPI" style="stroke:#A80036;stroke-width:0.75;"/><!--MD5=[ba43404d2398351bd02a197b89c6dc04]
link Iridium to RPI--><path codeLine="203" d="M775.4925,149.8783 C766.695,170.3083 748.2525,209.2408 724.875,236.9983 C708.345,256.6183 687.12,275.0683 667.5225,290.1883 " fill="none" id="Iridium-RPI" style="stroke:#A80036;stroke-width:0.75;"/><!--MD5=[72d1981d7f6e9ae87e7ce2d696ef1c70]
link RPI to Other_Sensors--><path codeLine="204" d="M555.525,367.8283 C551.16,370.7608 546.825,373.6783 542.625,376.4983 C517.2675,393.5308 489.48,412.1308 464.7525,428.6758 " fill="none" id="RPI-Other_Sensors" style="stroke:#A80036;stroke-width:0.75;"/><!--MD5=[e6b62623cb5cffca99b55a6fc459f471]
link RPI to Esp32--><path codeLine="205" d="M598.335,376.6258 C590.5725,403.8658 581.175,436.8358 575.3025,457.4608 " fill="none" id="RPI-Esp32" style="stroke:#A80036;stroke-width:0.75;"/><!--MD5=[abd7622213c1ceda57fd7e6c8ce2488a]
link WiFi_Local to RPI--><path codeLine="206" d="M443.1075,234.4558 C470.9175,246.1933 509.955,263.6608 542.625,281.9983 C546.9075,284.4058 551.2725,286.9858 555.615,289.6633 " fill="none" id="WiFi_Local-RPI" style="stroke:#A80036;stroke-width:0.75;"/><!--MD5=[9befc12befc76c6c24a0e27f7270b253]
link Keyboard_Mouse to RPI--><path codeLine="207" d="M492.5775,156.1483 C492.825,177.4558 495.69,211.5508 509.625,236.9983 C520.7625,257.3458 538.215,275.4658 555.5475,290.1058 " fill="none" id="Keyboard_Mouse-RPI" style="stroke:#A80036;stroke-width:0.75;"/><!--MD5=[a15dace8b9997a4e161f7e6bb21c3756]
link SmartPhone to WiFi_Local--><path codeLine="209" d="M399.4875,156.0058 C401.1075,169.6783 403.245,187.6633 404.805,200.7808 " fill="none" id="SmartPhone-WiFi_Local" style="stroke:#A80036;stroke-width:0.75;"/><!--MD5=[a6a6198443ed7f46598e3abcaaf7a198]
link SiriusXM to NMEA_2000--><path codeLine="211" d="M245.625,343.5958 C245.625,365.6158 245.625,409.7833 245.625,441.3433 " fill="none" id="SiriusXM-NMEA_2000" style="stroke:#A80036;stroke-width:0.75;"/><!--MD5=[f06790075d9412e28e90e4ac15acc0e3]
link Eth_Hub to Router--><path codeLine="213" d="M1050.915,218.9983 C1059.51,218.9983 1068.0975,218.9983 1076.6925,218.9983 " fill="none" id="Eth_Hub-Router" style="stroke:#A80036;stroke-width:0.75;"/><!--MD5=[4e13fc5b7ed4d5c8bb5a843a2b474eca]
link Eth_Hub to Radar--><path codeLine="214" d="M1014.5025,237.2233 C1025.985,257.5183 1044.8025,290.7958 1056.27,311.0683 " fill="none" id="Eth_Hub-Radar" style="stroke:#A80036;stroke-width:0.75;"/><!--MD5=[0ff0ce0d78f63490cbe2abe10619b3e8]
link Eth_Hub to NAS--><path codeLine="215" d="M994.7475,237.2233 C986.865,251.1508 975.5325,271.1983 965.4825,288.9583 " fill="none" id="Eth_Hub-NAS" style="stroke:#A80036;stroke-width:0.75;"/><!--MD5=[fdba92f7cd499ccd998d05999f71f6ae]
link Dish_Router to Eth_Hub--><path codeLine="216" d="M1035.3225,156.0058 C1028.58,169.6783 1019.7075,187.6633 1013.2425,200.7808 " fill="none" id="Dish_Router-Eth_Hub" style="stroke:#A80036;stroke-width:0.75;"/><!--MD5=[fbe332a3304dc4c8c3dfaece74a779f6]
link USB_Hub to SDR--><path codeLine="218" d="M1022.625,496.4008 C1022.625,523.4908 1022.625,575.2333 1022.625,602.1958 " fill="none" id="USB_Hub-SDR" style="stroke:#A80036;stroke-width:0.75;"/><!--MD5=[4ba09ff32a53e36c5fb85e6eec1de587]
link USB_Hub to Weather--><path codeLine="219" d="M1035.615,496.4008 C1053.5775,520.6258 1086.135,564.5458 1107.12,592.8433 " fill="none" id="USB_Hub-Weather" style="stroke:#A80036;stroke-width:0.75;"/><!--MD5=[2a0b371ec03d2c21e471fa956f48a495]
link Other_Sensors to AC--><path codeLine="221" d="M361.7175,534.8533 C350.3325,555.9958 337.9725,578.9383 328.995,595.6033 " fill="none" id="Other_Sensors-AC" style="stroke:#A80036;stroke-width:0.75;"/><!--MD5=[cbb222f50bcb791e9720287055fe13dd]
link Other_Sensors to Fridge--><path codeLine="222" d="M318.945,528.4858 C314.5125,530.7508 310.0575,532.8658 305.625,534.7483 C224.67,569.1733 193.23,543.9433 112.875,579.7483 C107.0325,582.3508 101.1675,585.5758 95.5425,589.0633 " fill="none" id="Other_Sensors-Fridge" style="stroke:#A80036;stroke-width:0.75;"/><!--MD5=[bde99af21072dc4abd6c3e9790e945d2]
link Other_Sensors to Lights_Fans--><path codeLine="223" d="M319.005,530.2408 C295.8525,546.5608 270.615,564.3508 248.805,579.7258 " fill="none" id="Other_Sensors-Lights_Fans" style="stroke:#A80036;stroke-width:0.75;"/><!--MD5=[9816221c84b92aca30c282d28f000dea]
link Other_Sensors to Pumps--><path codeLine="224" d="M402.3225,534.8533 C405.1275,549.8683 408.0975,565.7908 410.7,579.7258 " fill="none" id="Other_Sensors-Pumps" style="stroke:#A80036;stroke-width:0.75;"/><!--MD5=[f4051e061112c5a67383a685ff83d16a]
link NMEA_Mux to NMEA_0183--><path codeLine="226" d="M808.875,505.6558 C808.875,527.6458 808.875,559.0108 808.875,583.2508 " fill="none" id="NMEA_Mux-NMEA_0183" style="stroke:#A80036;stroke-width:0.75;"/><!--MD5=[993848724ee1e0bda2efd2c10d093eb0]
link NMEA_Mux to AP--><path codeLine="227" d="M831.3,505.6558 C856.2525,535.4608 895.62,582.4633 915.0225,605.6383 " fill="none" id="NMEA_Mux-AP" style="stroke:#A80036;stroke-width:0.75;"/><!--MD5=[4c412d33c9dd3373fedf634d2cfe895b]
link Esp32 to Lora--><path codeLine="229" d="M584.3475,499.0183 C601.545,522.5608 630.1875,561.7633 650.115,589.0333 " fill="none" id="Esp32-Lora" style="stroke:#A80036;stroke-width:0.75;"/><!--MD5=[3a78a92175d5b8f917843889fc4ac663]
link Esp32 to Winches--><path codeLine="230" d="M565.9725,499.0183 C561.705,522.5608 554.595,561.7633 549.6525,589.0333 " fill="none" id="Esp32-Winches" style="stroke:#A80036;stroke-width:0.75;"/><!--MD5=[090045518a7210d3fe050bd4b1b61143]
link Cloud_Internet to Dish_Router--><path codeLine="232" d="M999.165,69.7708 C1009.5825,84.4708 1021.7925,101.7058 1031.01,114.7108 " fill="none" id="Cloud_Internet-Dish_Router" style="stroke:#A80036;stroke-width:0.75;"/><!--MD5=[0417bd4aebf7681efb342db5775863ca]
link Cloud_Internet to Router--><path codeLine="233" d="M1024.665,56.7058 C1051.7475,68.9758 1084.2975,88.0408 1104.375,114.7483 C1123.74,140.5033 1129.26,178.8883 1130.805,200.9533 " fill="none" id="Cloud_Internet-Router" style="stroke:#A80036;stroke-width:0.75;"/><!--MD5=[6d4697dd1a4fa0e14865453f969898e5]
link Cloud_Internet to Iridium--><path codeLine="234" d="M930.555,62.1883 C892.635,80.5708 840.6,105.7933 809.0025,121.1083 " fill="none" id="Cloud_Internet-Iridium" style="stroke:#A80036;stroke-width:0.75;"/><!--MD5=[f7b1ed679f3dcc8891234d56821c2a8b]
link Cloud_Internet to Remote_Desktop--><path codeLine="235" d="M956.085,69.7708 C943.89,86.9758 929.2425,107.6458 919.815,120.9508 " fill="none" id="Cloud_Internet-Remote_Desktop" style="stroke:#A80036;stroke-width:0.75;"/><!--MD5=[f7c22a6020875df2ba44dffafefaebb5]
link Skipper to Touchscreen--><path codeLine="237" d="M572.6175,40.6483 C529.1325,44.5483 416.655,59.6683 344.625,114.7483 C314.925,137.4583 295.2225,177.8608 285.81,200.8933 " fill="none" id="Skipper-Touchscreen" style="stroke:#A80036;stroke-width:0.75;"/><!--MD5=[180a6a48d329b5088bf365124668f177]
link Skipper to Speakers--><path codeLine="238" d="M602.4075,69.9208 C617.61,109.3333 643.41,176.2183 654.4125,204.7258 " fill="none" id="Skipper-Speakers" style="stroke:#A80036;stroke-width:0.75;"/><!--MD5=[b5f99795dccb66293530d697261f575d]
link Skipper to Cameras--><path codeLine="239" d="M608.7675,57.5158 C627.225,75.9733 655.425,104.1733 672.12,120.8683 " fill="none" id="Skipper-Cameras" style="stroke:#A80036;stroke-width:0.75;"/><!--MD5=[4d7243369b38bcf5d3d8f8df86a5cab3]
link Skipper to Iridium--><path codeLine="240" d="M608.8875,48.5083 C642.6,65.3608 714.7425,101.4358 754.1175,121.1233 " fill="none" id="Skipper-Iridium" style="stroke:#A80036;stroke-width:0.75;"/><!--MD5=[c0261e63bc2c3c7d09c0762b33b29a4a]
link Skipper to SSB--><path codeLine="241" d="M585.885,69.9208 C580.035,107.6383 570.2775,170.5108 565.575,200.8333 " fill="none" id="Skipper-SSB" style="stroke:#A80036;stroke-width:0.75;"/><!--MD5=[7055ac5873383501a6665c2abfcc17ee]
link Skipper to SmartPhone--><path codeLine="242" d="M572.4225,48.3358 C541.515,63.5458 478.11,94.7608 436.6275,115.1758 " fill="none" id="Skipper-SmartPhone" style="stroke:#A80036;stroke-width:0.75;"/><!--MD5=[9e619f9f7e27f8b7daf8036513ac83ac]
link Skipper to Keyboard_Mouse--><path codeLine="243" d="M572.5125,57.0658 C555.7725,73.4233 530.925,97.6933 513.495,114.7183 " fill="none" id="Skipper-Keyboard_Mouse" style="stroke:#A80036;stroke-width:0.75;"/><!--MD5=[791020c57217bb146034c35bb978d496]
link Skipper to Remote_Desktop--><path codeLine="244" d="M608.715,44.7658 C657.5625,59.3308 793.215,99.7708 864.705,121.0858 " fill="none" id="Skipper-Remote_Desktop" style="stroke:#A80036;stroke-width:0.75;"/><!--MD5=[787668ca1bb68ec9b2d81894386e7002]
@startuml

actor Skipper [
 Skipper
]

node RPI [
 <b>Rpi4, BBN OS
 - - - -
 Local WiFi
 CanBus Interface
 Sound Card
 SSD
]

rectangle GPS [
 GPS USB
]

rectangle IMU [
 IMU
 - - - -
 compass, gyro, accel
]

rectangle NMEA_2000 [
 <b>NMEA2000 Bus
 - - - -
 engine sensors,
 fishfinder, sonar,
 etc
]

node NMEA_Mux [
 NMEA Multiplexer
 - - - -
 bidirectional Seatalk1
]

rectangle NMEA_0183 [
 <b>NMEA 0183 Devices
 - - - -
 AIS transducer/receiver
 GPS, VHF, compass
 Wind, Depth, Speed
]

rectangle AP [
 Autopilot
]

node Eth_Hub [
 Ethernet Hub
]

node USB_Hub [
 USB Hub
]

node Router [
 LTE/WiFi Router
]

rectangle Dish_Router [
 StarLink Router,
 Dish
]

node Radar [
 Radar
]

node Touchscreen [
 <b>HDMI Touchscreen
]

rectangle Speakers [
 Speakers
]

rectangle Cameras [
 Cameras
]

node SDR [
 SDR Radio
]

node SSB [
 SSB Radio
]

cloud WiFi_Local [
 Local WiFi
]

rectangle Iridium [
 Iridium Phone
]

rectangle Other_Sensors [
 Other_Sensors
 - - - -
 IoT, 1w, i2c, etc
 battery/chargers monitoring
 fluid levels
 env temp/pressure/humid
 dangerous gases sensors
 lightning strike sensors
]

rectangle Remote_Desktop [
 Remote Desktop (VNC)
]

node AC [
 A/C
 Heater
]

node Pumps [
 Pumps
 - - - -
 Bilge
 Fresh Water
 Black Water
]

node Fridge [
 Fridge
 Watermaker
 Live well
]

rectangle Lights_Fans [
 Lights: (Nav, Anchor,
 Running, Mast, Cabin,
 Underwater, Search, etc)
 Fans
 Bilge/Engine Blower
]

rectangle Keyboard_Mouse [
 Keyboard
 Mouse
]

rectangle Weather [
 NavTex
 WeatherFax
 Barograph
]

rectangle SiriusXM [
 SiriusXM Marine
]

rectangle SmartPhone [
 SmartPhones
 Tablets
]

database NAS [
 NAS
 - - - -
 Audio/Video Lib
 Charts, Backups, Tracks,
 Time Series Data, etc
]

node Winches [
 Anchor Windlass
 Power Winches
 Bow Thruster
]

cloud Cloud_Internet [
 <b>Internet
 Cloud Storage
 Cloud Services
]

cloud Lora [
 LoraWAN
 Asset Tracking
 Dinghy Locator
]

rectangle Esp32 [
 m5stack,
 arduino
]

RPI - - GPS
RPI -l- IMU
RPI - - NMEA_2000
RPI - - NMEA_Mux
RPI -u- Eth_Hub
RPI - - USB_Hub
RPI -u- Touchscreen
RPI -u- Cameras
RPI -u-> Speakers
RPI -u- SSB
RPI -u- Iridium
RPI - - Other_Sensors
RPI -d- Esp32
RPI -u- WiFi_Local
RPI -u- Keyboard_Mouse

SmartPhone - - WiFi_Local

SiriusXM - - NMEA_2000

Eth_Hub -r- Router
Eth_Hub - - Radar
Eth_Hub - - NAS
Eth_Hub -u- Dish_Router

USB_Hub - - SDR
USB_Hub - - Weather

Other_Sensors - - AC
Other_Sensors - - Fridge
Other_Sensors - - Lights_Fans
Other_Sensors - - Pumps

NMEA_Mux - - NMEA_0183
NMEA_Mux - - AP

Esp32 - - Lora
Esp32 - - Winches

Cloud_Internet - - Dish_Router
Cloud_Internet - - Router
Cloud_Internet - - Iridium
Cloud_Internet - - Remote_Desktop

Skipper - - Touchscreen
Skipper - - Speakers
Skipper - - Cameras
Skipper - - Iridium
Skipper - - SSB
Skipper - - SmartPhone
Skipper - - Keyboard_Mouse
Skipper - - Remote_Desktop

@enduml

PlantUML version 1.2021.00(Sun Jan 10 05:25:05 EST 2021)
(GPL source distribution)
Java Runtime: OpenJDK Runtime Environment
JVM: OpenJDK 64-Bit Server VM
Default Encoding: Cp1252
Language: en
Country: US
--></g></svg>