<?xml version="1.0" encoding="UTF-8" standalone="no"?><svg xmlns="http://www.w3.org/2000/svg" xmlns:xlink="http://www.w3.org/1999/xlink" contentScriptType="application/ecmascript" contentStyleType="text/css" height="708.75px" preserveAspectRatio="none" style="width:1201px;height:708px;" version="1.1" viewBox="0 0 1201 708" width="1201.5px" zoomAndPan="magnify"><defs><filter height="300%" id="f1g0w111xke5g8" width="300%" x="-1" y="-1"><feGaussianBlur result="blurOut" stdDeviation="1.5"/><feColorMatrix in="blurOut" result="blurOut2" type="matrix" values="0 0 0 0 0 0 0 0 0 0 0 0 0 0 0 0 0 0 .4 0"/><feOffset dx="3.0" dy="3.0" in="blurOut2" result="blurOut3"/><feBlend in="SourceGraphic" in2="blurOut3" mode="normal"/></filter></defs><g><!--MD5=[f50827fad462c3f51a79aa3f1564e3ff]
entity Skipper--><ellipse cx="593.625" cy="14.6233" fill="#FEFECE" filter="url(#f1g0w111xke5g8)" rx="6" ry="6" style="stroke:#A80036;stroke-width:1.125;"/><path d="M593.625,20.6233 L593.625,40.8733 M583.875,26.6233 L603.375,26.6233 M593.625,40.8733 L583.875,52.1233 M593.625,40.8733 L603.375,52.1233 " fill="none" filter="url(#f1g0w111xke5g8)" style="stroke:#A80036;stroke-width:1.125;"/><text fill="#000000" font-family="sans-serif" font-size="10.5" lengthAdjust="spacing" textLength="36" x="575.625" y="67.1482">Skipper</text><!--MD5=[56bb6c3bc4df8cdefb957cc5b3ef3a7e]
entity RPI--><polygon fill="#FEFECE" filter="url(#f1g0w111xke5g8)" points="558.75,302.2483,566.25,294.7483,670.5,294.7483,670.5,381.7835,663,389.2835,558.75,389.2835,558.75,302.2483" style="stroke:#000000;stroke-width:1.125;"/><line style="stroke:#000000;stroke-width:1.125;" x1="663" x2="670.5" y1="302.2483" y2="294.7483"/><line style="stroke:#000000;stroke-width:1.125;" x1="558.75" x2="663" y1="302.2483" y2="302.2483"/><line style="stroke:#000000;stroke-width:1.125;" x1="663" x2="663" y1="302.2483" y2="389.2835"/><text fill="#000000" font-family="sans-serif" font-size="10.5" font-weight="bold" lengthAdjust="spacing" textLength="69.75" x="570" y="320.6482">Rpi4, BBN OS</text><line style="stroke:#000000;stroke-width:0.75;" x1="558.75" x2="663" y1="322.9553" y2="322.9553"/><line style="stroke:#000000;stroke-width:0.75;" x1="663" x2="670.5" y1="322.9553" y2="315.4553"/><text fill="#000000" font-family="sans-serif" font-size="10.5" lengthAdjust="spacing" textLength="49.5" x="570" y="336.8552">Local WiFi</text><text fill="#000000" font-family="sans-serif" font-size="10.5" lengthAdjust="spacing" textLength="81.75" x="570" y="350.0623">CanBus Interface</text><text fill="#000000" font-family="sans-serif" font-size="10.5" lengthAdjust="spacing" textLength="57" x="570" y="363.2693">Sound Card</text><text fill="#000000" font-family="sans-serif" font-size="10.5" lengthAdjust="spacing" textLength="21" x="570" y="376.4763">SSD</text><!--MD5=[cd1d357e028b96f42ee72ab526715f53]
entity GPS--><rect fill="#FEFECE" filter="url(#f1g0w111xke5g8)" height="28.207" style="stroke:#000000;stroke-width:1.125;" width="60" x="627.375" y="496.1233"/><text fill="#000000" font-family="sans-serif" font-size="10.5" lengthAdjust="spacing" textLength="45" x="634.875" y="514.5232">GPS USB</text><!--MD5=[ae8265c62b5fdfc486198cf91618d43d]
entity IMU--><rect fill="#FEFECE" filter="url(#f1g0w111xke5g8)" height="47.4141" style="stroke:#000000;stroke-width:1.125;" width="114.75" x="417.75" y="318.3733"/><text fill="#000000" font-family="sans-serif" font-size="10.5" lengthAdjust="spacing" textLength="17.25" x="425.25" y="336.7732">IMU</text><line style="stroke:#000000;stroke-width:0.75;" x1="418.5" x2="531.75" y1="339.0803" y2="339.0803"/><text fill="#000000" font-family="sans-serif" font-size="10.5" lengthAdjust="spacing" textLength="99.75" x="425.25" y="352.9802">compass, gyro, accel</text><!--MD5=[b17a41457b887f0466e22bd7e05c4601]
entity NMEA_2000--><rect fill="#FEFECE" filter="url(#f1g0w111xke5g8)" height="73.8281" style="stroke:#000000;stroke-width:1.125;" width="94.5" x="181.125" y="473.6233"/><text fill="#000000" font-family="sans-serif" font-size="10.5" font-weight="bold" lengthAdjust="spacing" textLength="78" x="188.625" y="492.0232">NMEA2000 Bus</text><line style="stroke:#000000;stroke-width:0.75;" x1="181.875" x2="274.875" y1="494.3303" y2="494.3303"/><text fill="#000000" font-family="sans-serif" font-size="10.5" lengthAdjust="spacing" textLength="75.75" x="188.625" y="508.2302">engine sensors,</text><text fill="#000000" font-family="sans-serif" font-size="10.5" lengthAdjust="spacing" textLength="79.5" x="188.625" y="521.4373">fishfinder, sonar,</text><text fill="#000000" font-family="sans-serif" font-size="10.5" lengthAdjust="spacing" textLength="14.25" x="188.625" y="534.6443">etc</text><!--MD5=[6eed89ef60fd1dd7e5ad5481c6afc096]
entity NMEA_Mux--><polygon fill="#FEFECE" filter="url(#f1g0w111xke5g8)" points="743.25,490.4983,750.75,482.9983,874.5,482.9983,874.5,530.4124,867,537.9124,743.25,537.9124,743.25,490.4983" style="stroke:#000000;stroke-width:1.125;"/><line style="stroke:#000000;stroke-width:1.125;" x1="867" x2="874.5" y1="490.4983" y2="482.9983"/><line style="stroke:#000000;stroke-width:1.125;" x1="743.25" x2="867" y1="490.4983" y2="490.4983"/><line style="stroke:#000000;stroke-width:1.125;" x1="867" x2="867" y1="490.4983" y2="537.9124"/><text fill="#000000" font-family="sans-serif" font-size="10.5" lengthAdjust="spacing" textLength="81.75" x="754.5" y="508.8982">NMEA Multiplexer</text><line style="stroke:#000000;stroke-width:0.75;" x1="743.25" x2="867" y1="511.2053" y2="511.2053"/><line style="stroke:#000000;stroke-width:0.75;" x1="867" x2="874.5" y1="511.2053" y2="503.7053"/><text fill="#000000" font-family="sans-serif" font-size="10.5" lengthAdjust="spacing" textLength="101.25" x="754.5" y="525.1052">bidirectional Seatalk1</text><!--MD5=[1eaf4d2f8be208adf81d4b0ad8be7432]
entity NMEA_0183--><rect fill="#FEFECE" filter="url(#f1g0w111xke5g8)" height="73.8281" style="stroke:#000000;stroke-width:1.125;" width="126" x="745.875" y="622.4983"/><text fill="#000000" font-family="sans-serif" font-size="10.5" font-weight="bold" lengthAdjust="spacing" textLength="103.5" x="753.375" y="640.8982">NMEA 0183 Devices</text><line style="stroke:#000000;stroke-width:0.75;" x1="746.625" x2="871.125" y1="643.2053" y2="643.2053"/><text fill="#000000" font-family="sans-serif" font-size="10.5" lengthAdjust="spacing" textLength="111" x="753.375" y="657.1052">AIS transducer/receiver</text><text fill="#000000" font-family="sans-serif" font-size="10.5" lengthAdjust="spacing" textLength="96" x="753.375" y="670.3123">GPS, VHF, compass</text><text fill="#000000" font-family="sans-serif" font-size="10.5" lengthAdjust="spacing" textLength="95.25" x="753.375" y="683.5193">Wind, Depth, Speed</text><!--MD5=[31e3ec59327e273962ce661ad70afaa5]
entity AP--><rect fill="#FEFECE" filter="url(#f1g0w111xke5g8)" height="28.207" style="stroke:#000000;stroke-width:1.125;" width="56.25" x="898.5" y="644.9983"/><text fill="#000000" font-family="sans-serif" font-size="10.5" lengthAdjust="spacing" textLength="41.25" x="906" y="663.3982">Autopilot</text><!--MD5=[547615c2c8915297a73af811d5dbf318]
entity Eth_Hub--><polygon fill="#FEFECE" filter="url(#f1g0w111xke5g8)" points="961.5,208.4983,969,200.9983,1053.75,200.9983,1053.75,229.2053,1046.25,236.7053,961.5,236.7053,961.5,208.4983" style="stroke:#000000;stroke-width:1.125;"/><line style="stroke:#000000;stroke-width:1.125;" x1="1046.25" x2="1053.75" y1="208.4983" y2="200.9983"/><line style="stroke:#000000;stroke-width:1.125;" x1="961.5" x2="1046.25" y1="208.4983" y2="208.4983"/><line style="stroke:#000000;stroke-width:1.125;" x1="1046.25" x2="1046.25" y1="208.4983" y2="236.7053"/><text fill="#000000" font-family="sans-serif" font-size="10.5" lengthAdjust="spacing" textLength="62.25" x="972.75" y="226.8982">Ethernet Hub</text><!--MD5=[7968f28c13df0538bc57173754511f0e]
entity USB_Hub--><polygon fill="#FEFECE" filter="url(#f1g0w111xke5g8)" points="986.625,499.8733,994.125,492.3733,1058.625,492.3733,1058.625,520.5803,1051.125,528.0803,986.625,528.0803,986.625,499.8733" style="stroke:#000000;stroke-width:1.125;"/><line style="stroke:#000000;stroke-width:1.125;" x1="1051.125" x2="1058.625" y1="499.8733" y2="492.3733"/><line style="stroke:#000000;stroke-width:1.125;" x1="986.625" x2="1051.125" y1="499.8733" y2="499.8733"/><line style="stroke:#000000;stroke-width:1.125;" x1="1051.125" x2="1051.125" y1="499.8733" y2="528.0803"/><text fill="#000000" font-family="sans-serif" font-size="10.5" lengthAdjust="spacing" textLength="42" x="997.875" y="518.2732">USB Hub</text><!--MD5=[953a8c67cfe21abaf9bf45dad8506ca8]
entity Router--><polygon fill="#FEFECE" filter="url(#f1g0w111xke5g8)" points="1080,208.4983,1087.5,200.9983,1188.75,200.9983,1188.75,229.2053,1181.25,236.7053,1080,236.7053,1080,208.4983" style="stroke:#000000;stroke-width:1.125;"/><line style="stroke:#000000;stroke-width:1.125;" x1="1181.25" x2="1188.75" y1="208.4983" y2="200.9983"/><line style="stroke:#000000;stroke-width:1.125;" x1="1080" x2="1181.25" y1="208.4983" y2="208.4983"/><line style="stroke:#000000;stroke-width:1.125;" x1="1181.25" x2="1181.25" y1="208.4983" y2="236.7053"/><text fill="#000000" font-family="sans-serif" font-size="10.5" lengthAdjust="spacing" textLength="78.75" x="1091.25" y="226.8982">LTE/WiFi Router</text><!--MD5=[4c7a5f0f4d710d941c4df063500e34ba]
entity Dish_Router--><rect fill="#FEFECE" filter="url(#f1g0w111xke5g8)" height="41.4141" style="stroke:#000000;stroke-width:1.125;" width="92.25" x="1002" y="114.7483"/><text fill="#000000" font-family="sans-serif" font-size="10.5" lengthAdjust="spacing" textLength="77.25" x="1009.5" y="133.1482">StarLink Router,</text><text fill="#000000" font-family="sans-serif" font-size="10.5" lengthAdjust="spacing" textLength="21" x="1009.5" y="146.3552">Dish</text><!--MD5=[af2495f9a90a9f78578178908d6e69bd]
entity Radar--><polygon fill="#FEFECE" filter="url(#f1g0w111xke5g8)" points="1039.5,331.4983,1047,323.9983,1098.75,323.9983,1098.75,352.2053,1091.25,359.7053,1039.5,359.7053,1039.5,331.4983" style="stroke:#000000;stroke-width:1.125;"/><line style="stroke:#000000;stroke-width:1.125;" x1="1091.25" x2="1098.75" y1="331.4983" y2="323.9983"/><line style="stroke:#000000;stroke-width:1.125;" x1="1039.5" x2="1091.25" y1="331.4983" y2="331.4983"/><line style="stroke:#000000;stroke-width:1.125;" x1="1091.25" x2="1091.25" y1="331.4983" y2="359.7053"/><text fill="#000000" font-family="sans-serif" font-size="10.5" lengthAdjust="spacing" textLength="29.25" x="1050.75" y="349.8982">Radar</text><!--MD5=[330778c508571bc43f7e5523a03ca602]
entity Touchscreen--><polygon fill="#FEFECE" filter="url(#f1g0w111xke5g8)" points="217.5,208.4983,225,200.9983,347.25,200.9983,347.25,229.2053,339.75,236.7053,217.5,236.7053,217.5,208.4983" style="stroke:#000000;stroke-width:1.125;"/><line style="stroke:#000000;stroke-width:1.125;" x1="339.75" x2="347.25" y1="208.4983" y2="200.9983"/><line style="stroke:#000000;stroke-width:1.125;" x1="217.5" x2="339.75" y1="208.4983" y2="208.4983"/><line style="stroke:#000000;stroke-width:1.125;" x1="339.75" x2="339.75" y1="208.4983" y2="236.7053"/><text fill="#000000" font-family="sans-serif" font-size="10.5" font-weight="bold" lengthAdjust="spacing" textLength="99.75" x="228.75" y="226.8982">HDMI Touchscreen</text><!--MD5=[4c50005c0fadedfb0a14f6d1969de37e]
entity Speakers--><rect fill="#FEFECE" filter="url(#f1g0w111xke5g8)" height="28.207" style="stroke:#000000;stroke-width:1.125;" width="60" x="632.625" y="204.7483"/><text fill="#000000" font-family="sans-serif" font-size="10.5" lengthAdjust="spacing" textLength="45" x="640.125" y="223.1482">Speakers</text><!--MD5=[1b76df3a4bd008a21abb34082ebb9919]
entity Cameras--><rect fill="#FEFECE" filter="url(#f1g0w111xke5g8)" height="28.207" style="stroke:#000000;stroke-width:1.125;" width="57.75" x="660" y="121.1233"/><text fill="#000000" font-family="sans-serif" font-size="10.5" lengthAdjust="spacing" textLength="42.75" x="667.5" y="139.5232">Cameras</text><!--MD5=[d92e9b93d5ce4574427d5f042afd2321]
entity SDR--><polygon fill="#FEFECE" filter="url(#f1g0w111xke5g8)" points="981.375,648.7483,988.875,641.2483,1063.875,641.2483,1063.875,669.4553,1056.375,676.9553,981.375,676.9553,981.375,648.7483" style="stroke:#000000;stroke-width:1.125;"/><line style="stroke:#000000;stroke-width:1.125;" x1="1056.375" x2="1063.875" y1="648.7483" y2="641.2483"/><line style="stroke:#000000;stroke-width:1.125;" x1="981.375" x2="1056.375" y1="648.7483" y2="648.7483"/><line style="stroke:#000000;stroke-width:1.125;" x1="1056.375" x2="1056.375" y1="648.7483" y2="676.9553"/><text fill="#000000" font-family="sans-serif" font-size="10.5" lengthAdjust="spacing" textLength="52.5" x="992.625" y="667.1482">SDR Radio</text><!--MD5=[6ba27cb6ab6c98fb8258247a8e3f62be]
entity SSB--><polygon fill="#FEFECE" filter="url(#f1g0w111xke5g8)" points="525.375,208.4983,532.875,200.9983,606.375,200.9983,606.375,229.2053,598.875,236.7053,525.375,236.7053,525.375,208.4983" style="stroke:#000000;stroke-width:1.125;"/><line style="stroke:#000000;stroke-width:1.125;" x1="598.875" x2="606.375" y1="208.4983" y2="200.9983"/><line style="stroke:#000000;stroke-width:1.125;" x1="525.375" x2="598.875" y1="208.4983" y2="208.4983"/><line style="stroke:#000000;stroke-width:1.125;" x1="598.875" x2="598.875" y1="208.4983" y2="236.7053"/><text fill="#000000" font-family="sans-serif" font-size="10.5" lengthAdjust="spacing" textLength="51" x="536.625" y="226.8982">SSB Radio</text><!--MD5=[dd29c4e1cef6fbff2e61a9551f8f2bf2]
entity WiFi_Local--><path d="M381.1576,207.2166 C383.889,202.4445 387.1871,202.4705 390.8245,206.1845 C393.3887,200.7549 397.7308,200.7143 401.1393,205.3163 C403.1002,200.3043 406.2142,199.849 410.1995,203.0954 C414.2787,198.2166 418.8344,199.2057 421.2761,204.8234 C425.6595,201.1622 428.7605,202.2708 431.0844,207.1803 C433.4796,202.6703 437.9863,203.1127 440.3726,207.1898 C447.8107,208.2525 450.696,212.5598 446.0682,219.2981 C449.6525,225.1249 448.8206,230.9167 440.6967,231.6533 C438.3712,236.8564 435.5716,238.2494 431.1358,233.7282 C428.647,238.562 424.3863,239.829 420.3969,235.4838 C418.2365,239.8768 415.2301,241.6244 411.3378,237.2792 C407.0924,242.3468 402.2885,241.6492 399.9813,235.3438 C395.5205,238.5104 392.6017,238.1134 390.7834,232.5573 C386.9865,236.8942 382.9358,237.2996 380.4432,231.2578 C373.3468,229.4743 372.4635,225.9323 376.7029,220.2848 C371.3507,214.662 373.9929,208.5726 381.1576,207.2166 " fill="#FEFECE" filter="url(#f1g0w111xke5g8)" style="stroke:#000000;stroke-width:1.125;"/><text fill="#000000" font-family="sans-serif" font-size="10.5" lengthAdjust="spacing" textLength="49.5" x="385.125" y="223.1482">Local WiFi</text><!--MD5=[82bbb9a7a666b856fa28a649fd3171aa]
entity Iridium--><rect fill="#FEFECE" filter="url(#f1g0w111xke5g8)" height="28.207" style="stroke:#000000;stroke-width:1.125;" width="79.5" x="744.375" y="121.1233"/><text fill="#000000" font-family="sans-serif" font-size="10.5" lengthAdjust="spacing" textLength="64.5" x="751.875" y="139.5232">Iridium Phone</text><!--MD5=[8f0c441f12fb738c5e80b28ccd1b0a87]
entity Other_Sensors--><rect fill="#FEFECE" filter="url(#f1g0w111xke5g8)" height="126.6563" style="stroke:#000000;stroke-width:1.125;" width="172.5" x="301.875" y="446.9983"/><text fill="#000000" font-family="sans-serif" font-size="10.5" lengthAdjust="spacing" textLength="72" x="309.375" y="465.3982">Other_Sensors</text><line style="stroke:#000000;stroke-width:0.75;" x1="302.625" x2="473.625" y1="467.7053" y2="467.7053"/><text fill="#000000" font-family="sans-serif" font-size="10.5" lengthAdjust="spacing" textLength="73.5" x="309.375" y="481.6052">IoT, 1w, i2c, etc</text><text fill="#000000" font-family="sans-serif" font-size="10.5" lengthAdjust="spacing" textLength="93.75" x="309.375" y="494.8123">batteries monitoring</text><text fill="#000000" font-family="sans-serif" font-size="10.5" lengthAdjust="spacing" textLength="157.5" x="309.375" y="508.0193">chargers (wind, solar, diesel gen)</text><text fill="#000000" font-family="sans-serif" font-size="10.5" lengthAdjust="spacing" textLength="49.5" x="309.375" y="521.2263">fluid levels</text><text fill="#000000" font-family="sans-serif" font-size="10.5" lengthAdjust="spacing" textLength="120" x="309.375" y="534.4334">env temp/pressure/humid</text><text fill="#000000" font-family="sans-serif" font-size="10.5" lengthAdjust="spacing" textLength="123" x="309.375" y="547.6404">dangerous gases sensors</text><text fill="#000000" font-family="sans-serif" font-size="10.5" lengthAdjust="spacing" textLength="108.75" x="309.375" y="560.8474">lightning strike sensors</text><!--MD5=[869fbf9b9ca9ac4bdf61f7068ab1ff9c]
entity Remote_Desktop--><rect fill="#FEFECE" filter="url(#f1g0w111xke5g8)" height="28.207" style="stroke:#000000;stroke-width:1.125;" width="125.25" x="850.5" y="121.1233"/><text fill="#000000" font-family="sans-serif" font-size="10.5" lengthAdjust="spacing" textLength="110.25" x="858" y="139.5232">Remote Desktop (VNC)</text><!--MD5=[0313ddc4f8ed0f4991a51edae0b1647c]
entity AC--><polygon fill="#FEFECE" filter="url(#f1g0w111xke5g8)" points="285.375,642.3733,292.875,634.8733,346.875,634.8733,346.875,676.2874,339.375,683.7874,285.375,683.7874,285.375,642.3733" style="stroke:#000000;stroke-width:1.125;"/><line style="stroke:#000000;stroke-width:1.125;" x1="339.375" x2="346.875" y1="642.3733" y2="634.8733"/><line style="stroke:#000000;stroke-width:1.125;" x1="285.375" x2="339.375" y1="642.3733" y2="642.3733"/><line style="stroke:#000000;stroke-width:1.125;" x1="339.375" x2="339.375" y1="642.3733" y2="683.7874"/><text fill="#000000" font-family="sans-serif" font-size="10.5" lengthAdjust="spacing" textLength="17.25" x="296.625" y="660.7732">A/C</text><text fill="#000000" font-family="sans-serif" font-size="10.5" lengthAdjust="spacing" textLength="31.5" x="296.625" y="673.9802">Heater</text><!--MD5=[cec077422889c5d3cb551e1217c37df7]
entity Pumps--><polygon fill="#FEFECE" filter="url(#f1g0w111xke5g8)" points="373.5,626.2483,381,618.7483,462.75,618.7483,462.75,692.5764,455.25,700.0764,373.5,700.0764,373.5,626.2483" style="stroke:#000000;stroke-width:1.125;"/><line style="stroke:#000000;stroke-width:1.125;" x1="455.25" x2="462.75" y1="626.2483" y2="618.7483"/><line style="stroke:#000000;stroke-width:1.125;" x1="373.5" x2="455.25" y1="626.2483" y2="626.2483"/><line style="stroke:#000000;stroke-width:1.125;" x1="455.25" x2="455.25" y1="626.2483" y2="700.0764"/><text fill="#000000" font-family="sans-serif" font-size="10.5" lengthAdjust="spacing" textLength="32.25" x="384.75" y="644.6482">Pumps</text><line style="stroke:#000000;stroke-width:0.75;" x1="373.5" x2="455.25" y1="646.9553" y2="646.9553"/><line style="stroke:#000000;stroke-width:0.75;" x1="455.25" x2="462.75" y1="646.9553" y2="639.4553"/><text fill="#000000" font-family="sans-serif" font-size="10.5" lengthAdjust="spacing" textLength="23.25" x="384.75" y="660.8552">Bilge</text><text fill="#000000" font-family="sans-serif" font-size="10.5" lengthAdjust="spacing" textLength="59.25" x="384.75" y="674.0623">Fresh Water</text><text fill="#000000" font-family="sans-serif" font-size="10.5" lengthAdjust="spacing" textLength="57" x="384.75" y="687.2693">Black Water</text><!--MD5=[c74dee767baeeec0e713c54a8a4634dc]
entity Fridge--><polygon fill="#FEFECE" filter="url(#f1g0w111xke5g8)" points="12,635.6233,19.5,628.1233,99.75,628.1233,99.75,682.7444,92.25,690.2444,12,690.2444,12,635.6233" style="stroke:#000000;stroke-width:1.125;"/><line style="stroke:#000000;stroke-width:1.125;" x1="92.25" x2="99.75" y1="635.6233" y2="628.1233"/><line style="stroke:#000000;stroke-width:1.125;" x1="12" x2="92.25" y1="635.6233" y2="635.6233"/><line style="stroke:#000000;stroke-width:1.125;" x1="92.25" x2="92.25" y1="635.6233" y2="690.2444"/><text fill="#000000" font-family="sans-serif" font-size="10.5" lengthAdjust="spacing" textLength="30.75" x="23.25" y="654.0232">Fridge</text><text fill="#000000" font-family="sans-serif" font-size="10.5" lengthAdjust="spacing" textLength="57.75" x="23.25" y="667.2302">Watermaker</text><text fill="#000000" font-family="sans-serif" font-size="10.5" lengthAdjust="spacing" textLength="39.75" x="23.25" y="680.4373">Live well</text><!--MD5=[0b2190a355246a80d89d74c5c2c53ceb]
entity Lights_Fans--><rect fill="#FEFECE" filter="url(#f1g0w111xke5g8)" height="81.0352" style="stroke:#000000;stroke-width:1.125;" width="132.75" x="126" y="618.7483"/><text fill="#000000" font-family="sans-serif" font-size="10.5" lengthAdjust="spacing" textLength="99" x="133.5" y="637.1482">Lights: (Nav, Anchor,</text><text fill="#000000" font-family="sans-serif" font-size="10.5" lengthAdjust="spacing" textLength="105" x="133.5" y="650.3552">Running, Mast, Cabin,</text><text fill="#000000" font-family="sans-serif" font-size="10.5" lengthAdjust="spacing" textLength="117.75" x="133.5" y="663.5623">Underwater, Search, etc)</text><text fill="#000000" font-family="sans-serif" font-size="10.5" lengthAdjust="spacing" textLength="24" x="133.5" y="676.7693">Fans</text><text fill="#000000" font-family="sans-serif" font-size="10.5" lengthAdjust="spacing" textLength="93.75" x="133.5" y="689.9763">Bilge/Engine Blower</text><!--MD5=[593e445c9278762cb4ef7b840df82fac]
entity Keyboard_Mouse--><rect fill="#FEFECE" filter="url(#f1g0w111xke5g8)" height="41.4141" style="stroke:#000000;stroke-width:1.125;" width="60.75" x="465.75" y="114.7483"/><text fill="#000000" font-family="sans-serif" font-size="10.5" lengthAdjust="spacing" textLength="45.75" x="473.25" y="133.1482">Keyboard</text><text fill="#000000" font-family="sans-serif" font-size="10.5" lengthAdjust="spacing" textLength="31.5" x="473.25" y="146.3552">Mouse</text><!--MD5=[6068ed0baf2edbbb46a7f906664363da]
entity Weather--><rect fill="#FEFECE" filter="url(#f1g0w111xke5g8)" height="54.6211" style="stroke:#000000;stroke-width:1.125;" width="72.75" x="1090.5" y="631.8733"/><text fill="#000000" font-family="sans-serif" font-size="10.5" lengthAdjust="spacing" textLength="35.25" x="1098" y="650.2732">NavTex</text><text fill="#000000" font-family="sans-serif" font-size="10.5" lengthAdjust="spacing" textLength="57.75" x="1098" y="663.4802">WeatherFax</text><text fill="#000000" font-family="sans-serif" font-size="10.5" lengthAdjust="spacing" textLength="50.25" x="1098" y="676.6873">Barograph</text><!--MD5=[0df37b53dbcc900899e095c990e30b8f]
entity SiriusXM--><rect fill="#FEFECE" filter="url(#f1g0w111xke5g8)" height="28.207" style="stroke:#000000;stroke-width:1.125;" width="90.75" x="183" y="327.7483"/><text fill="#000000" font-family="sans-serif" font-size="10.5" lengthAdjust="spacing" textLength="75.75" x="190.5" y="346.1482">SiriusXM Marine</text><!--MD5=[d59b03f458f75ee04d94168ba7ec459b]
entity SmartPhone--><rect fill="#FEFECE" filter="url(#f1g0w111xke5g8)" height="41.4141" style="stroke:#000000;stroke-width:1.125;" width="78.75" x="360.75" y="114.7483"/><text fill="#000000" font-family="sans-serif" font-size="10.5" lengthAdjust="spacing" textLength="63.75" x="368.25" y="133.1482">SmartPhones</text><text fill="#000000" font-family="sans-serif" font-size="10.5" lengthAdjust="spacing" textLength="35.25" x="368.25" y="146.3552">Tablets</text><!--MD5=[13e88d8e4422c8d855b54f0d2bc171be]
entity NAS--><path d="M879,289.4983 C879,281.9983 946.125,281.9983 946.125,281.9983 C946.125,281.9983 1013.25,281.9983 1013.25,289.4983 L1013.25,394.6975 C1013.25,402.1975 946.125,402.1975 946.125,402.1975 C946.125,402.1975 879,402.1975 879,394.6975 L879,289.4983 " fill="#FEFECE" filter="url(#f1g0w111xke5g8)" style="stroke:#000000;stroke-width:1.125;"/><path d="M879,289.4983 C879,296.9983 946.125,296.9983 946.125,296.9983 C946.125,296.9983 1013.25,296.9983 1013.25,289.4983 " fill="none" style="stroke:#000000;stroke-width:1.125;"/><text fill="#000000" font-family="sans-serif" font-size="10.5" lengthAdjust="spacing" textLength="20.25" x="886.5" y="310.8982">NAS</text><path d="M879,309.4553 C879,316.9553 946.125,316.9553 946.125,316.9553 C946.125,316.9553 1013.25,316.9553 1013.25,309.4553 " fill="none" style="stroke:#000000;stroke-width:0.75;"/><text fill="#000000" font-family="sans-serif" font-size="10.5" lengthAdjust="spacing" textLength="74.25" x="886.5" y="327.1052">Audio/Video Lib</text><text fill="#000000" font-family="sans-serif" font-size="10.5" lengthAdjust="spacing" textLength="119.25" x="886.5" y="340.3123">Charts, Backups, Tracks,</text><text fill="#000000" font-family="sans-serif" font-size="10.5" lengthAdjust="spacing" textLength="56.25" x="886.5" y="353.5193">Docs, Logs,</text><text fill="#000000" font-family="sans-serif" font-size="10.5" lengthAdjust="spacing" textLength="113.25" x="886.5" y="366.7263">Crew Docs, Float Plans,</text><text fill="#000000" font-family="sans-serif" font-size="10.5" lengthAdjust="spacing" textLength="110.25" x="886.5" y="379.9334">Inventory, Provisioning,</text><text fill="#000000" font-family="sans-serif" font-size="10.5" lengthAdjust="spacing" textLength="102" x="886.5" y="393.1404">Time Series Data, etc</text><!--MD5=[ee9653e0a8f11fcc17536c9839054b2a]
entity Winches--><polygon fill="#FEFECE" filter="url(#f1g0w111xke5g8)" points="489.375,635.6233,496.875,628.1233,598.875,628.1233,598.875,682.7444,591.375,690.2444,489.375,690.2444,489.375,635.6233" style="stroke:#000000;stroke-width:1.125;"/><line style="stroke:#000000;stroke-width:1.125;" x1="591.375" x2="598.875" y1="635.6233" y2="628.1233"/><line style="stroke:#000000;stroke-width:1.125;" x1="489.375" x2="591.375" y1="635.6233" y2="635.6233"/><line style="stroke:#000000;stroke-width:1.125;" x1="591.375" x2="591.375" y1="635.6233" y2="690.2444"/><text fill="#000000" font-family="sans-serif" font-size="10.5" lengthAdjust="spacing" textLength="79.5" x="500.625" y="654.0232">Anchor Windlass</text><text fill="#000000" font-family="sans-serif" font-size="10.5" lengthAdjust="spacing" textLength="72.75" x="500.625" y="667.2302">Power Winches</text><text fill="#000000" font-family="sans-serif" font-size="10.5" lengthAdjust="spacing" textLength="63" x="500.625" y="680.4373">Bow Thruster</text><!--MD5=[48e79d9335dd0cd53682a5a492aea5d9]
entity Cloud_Internet--><path d="M941.37,14.9541 C943.3593,9.9999 946.488,9.5325 950.3845,12.8841 C952.7436,6.86 955.9102,6.3585 960.2808,11.0215 C962.8684,6.0405 967.6885,4.9621 970.88,10.4076 C973.8199,4.5 978.5284,4.6685 982.1456,9.7107 C984.8845,5.8281 989.2676,5.8353 991.3777,10.3981 C995.039,7.0284 999.3227,7.0647 1001.1852,12.4201 C1004.2201,8.0303 1008.4136,7.8565 1011.5272,12.3283 C1016.0741,6.9662 1019.4632,8.062 1022.4265,13.873 C1027.7368,16.5818 1027.5361,20.1161 1023.0333,23.4468 C1027.4799,24.909 1027.3418,27.3848 1024.9006,30.6361 C1029.5037,32.8941 1031.0238,36.2481 1026.5822,40.1113 C1029.4579,43.2044 1028.8378,46.1103 1024.6027,47.2246 C1027.5846,50.323 1027.7017,53.2156 1023.5588,55.4047 C1027.5291,58.726 1027.1444,61.4612 1022.6245,63.8424 C1019.5001,68.677 1016.4678,70.0958 1012.1858,65.0676 C1009.3107,69.7086 1005.123,70.2089 1002.3537,64.9624 C999.6673,71.0583 994.531,70.1524 991.3522,65.4647 C989.1775,70.1089 984.0888,71.407 980.7532,66.794 C976.9814,71.2818 973.9987,70.3537 971.5774,65.4714 C968.0542,70.9702 964.8873,70.5021 961.2552,65.5794 C958.1124,70.5031 954.4194,69.7351 951.2029,65.6618 C946.5913,70.436 942.5956,70.5029 939.7714,63.8706 C936.115,61.6061 935.8013,58.1779 939.6098,55.7646 C935.2476,53.4234 935.175,50.5302 939.1932,47.7532 C934.8151,45.2295 935.237,41.9979 938.8303,39.1383 C935.4768,36.2381 935.1462,33.4069 939.332,30.9698 C935.4002,27.8643 936.0604,24.6342 940.6964,22.9945 C936.7252,19.8859 937.4817,17.4043 941.37,14.9541 " fill="#FEFECE" filter="url(#f1g0w111xke5g8)" style="stroke:#000000;stroke-width:1.125;"/><text fill="#000000" font-family="sans-serif" font-size="10.5" font-weight="bold" lengthAdjust="spacing" textLength="42" x="945" y="29.6482">Internet</text><text fill="#000000" font-family="sans-serif" font-size="10.5" lengthAdjust="spacing" textLength="68.25" x="945" y="42.8552">Cloud Storage</text><text fill="#000000" font-family="sans-serif" font-size="10.5" lengthAdjust="spacing" textLength="71.25" x="945" y="56.0623">Cloud Services</text><!--MD5=[f38da3986c5ca1dec060c2524b9ccddc]
entity Lora--><path d="M632.4937,635.334 C634.0226,631.3117 636.4161,630.8051 639.6445,633.5338 C641.386,629.5766 645.3439,628.9396 648.3197,632.0102 C650.5755,628.5285 654.0706,629.1258 655.9777,632.4051 C658.4292,626.8667 661.6522,627.3996 665.6113,630.7759 C667.2174,626.3829 669.8773,625.9595 673.0625,629.2431 C676.8212,626.009 679.3698,627.0647 681.4345,631.1743 C684.6789,627.5184 687.0274,628.7466 689.1708,632.348 C691.3827,628.9652 695.3155,628.7817 697.2823,632.6231 C700.6136,628.8015 703.7329,629.8112 705.4482,634.2254 C708.5696,629.469 712.2055,629.7953 715.0862,634.4714 C719.6675,636.4679 719.5852,640.4314 715.9405,643.2301 C720.1601,645.409 720.87,648.4045 716.8815,651.5156 C722.2627,652.9303 722.3684,656.628 719.2514,660.328 C723.2147,663.7676 721.4657,667.621 717.2203,669.1763 C720.6619,672.1064 720.3397,675.1072 716.1117,676.9425 C719.7674,680.4031 719.2575,683.7599 714.3874,685.5033 C711.9134,688.6414 709.1831,688.7564 706.6838,685.534 C704.0001,689.2136 700.8738,689.5957 698.5587,685.1648 C696.2683,690.2145 693.4228,690.5229 689.7773,686.4724 C687.4622,689.7904 684.5935,690.3439 682.1822,686.5756 C679.621,690.249 676.4993,690.3922 673.6148,686.9657 C670.6284,689.9637 667.7254,689.4763 665.6358,685.8805 C663.0085,689.3242 659.118,690.0651 656.9021,685.4353 C654.3892,688.9379 651.2146,689.8023 648.7858,685.3495 C646.2434,688.9671 643.6262,689.335 640.4549,686.1158 C637.0086,689.1419 633.8751,688.9693 632.0779,684.3167 C628.17,682.7213 626.8232,679.3252 630.7067,676.3831 C626.2376,673.8638 626.1232,670.9624 630.4977,668.2168 C626.5647,665.3477 626.8117,662.9874 630.7176,660.3371 C626.7189,657.0614 627.3931,654.0172 631.6123,651.5812 C627.9487,649.1371 628.2591,645.7599 631.8357,643.5163 C628.5984,640.5867 628.2748,637.664 632.4937,635.334 " fill="#FEFECE" filter="url(#f1g0w111xke5g8)" style="stroke:#000000;stroke-width:1.125;"/><text fill="#000000" font-family="sans-serif" font-size="10.5" lengthAdjust="spacing" textLength="45" x="636.375" y="650.2732">LoraWAN</text><text fill="#000000" font-family="sans-serif" font-size="10.5" lengthAdjust="spacing" textLength="70.5" x="636.375" y="663.4802">Asset Tracking</text><text fill="#000000" font-family="sans-serif" font-size="10.5" lengthAdjust="spacing" textLength="72" x="636.375" y="676.6873">Dinghy Locator</text><!--MD5=[3ff5d2fb9a8117c537632aae671cabcb]
entity Esp32--><rect fill="#FEFECE" filter="url(#f1g0w111xke5g8)" height="41.4141" style="stroke:#000000;stroke-width:1.125;" width="57" x="544.125" y="489.7483"/><text fill="#000000" font-family="sans-serif" font-size="10.5" lengthAdjust="spacing" textLength="42" x="551.625" y="508.1482">m5stack,</text><text fill="#000000" font-family="sans-serif" font-size="10.5" lengthAdjust="spacing" textLength="36" x="551.625" y="521.3552">arduino</text><!--MD5=[5d3c09c67791d820f6e58e35ac1308e3]
link RPI to GPS--><path codeLine="197" d="M626.5875,389.4508 C635.8275,425.5183 648,473.0158 653.8875,495.9958 " fill="none" id="RPI-GPS" style="stroke:#A80036;stroke-width:0.75;"/><!--MD5=[c6d492c1e608e21002a1e79a049df954]
link IMU to RPI--><path codeLine="198" d="M532.6125,341.9983 C541.2675,341.9983 549.915,341.9983 558.5625,341.9983 " fill="none" id="IMU-RPI" style="stroke:#A80036;stroke-width:0.75;"/><!--MD5=[a860cb1a85174d4976dae9c4f32e49f8]
link RPI to NMEA_2000--><path codeLine="199" d="M566.76,389.2633 C560.025,394.1383 552.9075,398.5558 545.625,401.9983 C440.6775,451.5808 390.7875,392.3758 288.375,446.9983 C276.15,453.5158 264.9675,463.4383 255.6525,473.4733 " fill="none" id="RPI-NMEA_2000" style="stroke:#A80036;stroke-width:0.75;"/><!--MD5=[f75ecebad45d24d2cfeff8c08b96d55d]
link RPI to NMEA_Mux--><path codeLine="200" d="M668.9925,389.4508 C704.1225,419.6308 748.575,457.8208 777.825,482.9533 " fill="none" id="RPI-NMEA_Mux" style="stroke:#A80036;stroke-width:0.75;"/><!--MD5=[3577f1ad49970e59a1e1697b6041c28e]
link Eth_Hub to RPI--><path codeLine="201" d="M961.3875,234.0433 C888.9525,256.4383 748.9425,299.7208 670.8075,323.8783 " fill="none" id="Eth_Hub-RPI" style="stroke:#A80036;stroke-width:0.75;"/><!--MD5=[1d20bbed48bf86b90ee5f13bc892e6f4]
link RPI to USB_Hub--><path codeLine="202" d="M670.7625,362.8858 C726.27,383.1058 813.4275,415.6633 887.625,446.9983 C921.78,461.4208 960.06,479.3533 987.1125,492.3283 " fill="none" id="RPI-USB_Hub" style="stroke:#A80036;stroke-width:0.75;"/><!--MD5=[920310a45a910abea0e78fc3f928b9c7]
link Touchscreen to RPI--><path codeLine="203" d="M347.5425,234.3508 C422.5575,251.2783 536.6925,277.4533 545.625,281.9983 C552.5925,285.5458 559.44,289.9333 565.965,294.7108 " fill="none" id="Touchscreen-RPI" style="stroke:#A80036;stroke-width:0.75;"/><!--MD5=[e542bf0be54ca915b2a2c465769198ce]
link Cameras to RPI--><path codeLine="204" d="M695.6625,149.9308 C704.4375,169.7758 717.3375,207.2383 706.125,236.9983 C698.1075,258.2983 683.535,278.0758 668.3475,294.5533 " fill="none" id="Cameras-RPI" style="stroke:#A80036;stroke-width:0.75;"/><!--MD5=[738bdf1011746a1c073c591ef970d801]
reverse link Speakers to RPI--><path codeLine="205" d="M655.77,237.0958 C649.845,252.0883 641.01,274.4683 633.0375,294.6358 " fill="none" id="Speakers-backto-RPI" style="stroke:#A80036;stroke-width:0.75;"/><polygon fill="#A80036" points="657.21,233.4508,651.9452,238.6319,655.8358,236.94,657.5278,240.8306,657.21,233.4508" style="stroke:#A80036;stroke-width:0.75;"/><!--MD5=[9d6d2f6c2f4d2fc3bb3ff0dee1317c54]
link SSB to RPI--><path codeLine="206" d="M572.8575,237.1558 C578.865,252.1183 587.7975,274.3933 595.8675,294.5083 " fill="none" id="SSB-RPI" style="stroke:#A80036;stroke-width:0.75;"/><!--MD5=[ba43404d2398351bd02a197b89c6dc04]
link Iridium to RPI--><path codeLine="207" d="M778.125,149.6683 C768.8475,169.8358 749.7,208.4383 727.125,236.9983 C710.61,257.8858 689.835,278.3683 670.6425,295.5658 " fill="none" id="Iridium-RPI" style="stroke:#A80036;stroke-width:0.75;"/><!--MD5=[72d1981d7f6e9ae87e7ce2d696ef1c70]
link RPI to Other_Sensors--><path codeLine="208" d="M561.615,389.2708 C556.275,393.6508 550.89,397.9633 545.625,401.9983 C523.095,419.2858 497.985,437.0683 474.555,453.0733 " fill="none" id="RPI-Other_Sensors" style="stroke:#A80036;stroke-width:0.75;"/><!--MD5=[e6b62623cb5cffca99b55a6fc459f471]
link RPI to Esp32--><path codeLine="209" d="M602.8725,389.4508 C594.57,422.4283 583.86,464.9683 577.6725,489.5833 " fill="none" id="RPI-Esp32" style="stroke:#A80036;stroke-width:0.75;"/><!--MD5=[abd7622213c1ceda57fd7e6c8ce2488a]
link WiFi_Local to RPI--><path codeLine="210" d="M446.16,233.1583 C474.3525,244.3258 513.8625,261.6508 545.625,281.9983 C551.61,285.8308 557.6175,290.1433 563.4675,294.6583 " fill="none" id="WiFi_Local-RPI" style="stroke:#A80036;stroke-width:0.75;"/><!--MD5=[9befc12befc76c6c24a0e27f7270b253]
link Keyboard_Mouse to RPI--><path codeLine="211" d="M495.9075,156.1708 C496.4475,177.3508 499.5675,211.1908 512.625,236.9983 C519.3675,250.3258 541.5675,273.5233 563.5425,294.6508 " fill="none" id="Keyboard_Mouse-RPI" style="stroke:#A80036;stroke-width:0.75;"/><!--MD5=[a15dace8b9997a4e161f7e6bb21c3756]
link SmartPhone to WiFi_Local--><path codeLine="213" d="M402.4875,156.0058 C404.1075,169.6783 406.245,187.6633 407.805,200.7808 " fill="none" id="SmartPhone-WiFi_Local" style="stroke:#A80036;stroke-width:0.75;"/><!--MD5=[a6a6198443ed7f46598e3abcaaf7a198]
link SiriusXM to NMEA_2000--><path codeLine="215" d="M228.375,356.4058 C228.375,381.7033 228.375,436.6183 228.375,473.3608 " fill="none" id="SiriusXM-NMEA_2000" style="stroke:#A80036;stroke-width:0.75;"/><!--MD5=[f06790075d9412e28e90e4ac15acc0e3]
link Eth_Hub to Router--><path codeLine="217" d="M1053.915,218.9983 C1062.51,218.9983 1071.0975,218.9983 1079.6925,218.9983 " fill="none" id="Eth_Hub-Router" style="stroke:#A80036;stroke-width:0.75;"/><!--MD5=[4e13fc5b7ed4d5c8bb5a843a2b474eca]
link Eth_Hub to Radar--><path codeLine="218" d="M1016.4375,237.1558 C1028.13,260.2558 1048.65,300.7933 1060.3275,323.8708 " fill="none" id="Eth_Hub-Radar" style="stroke:#A80036;stroke-width:0.75;"/><!--MD5=[0ff0ce0d78f63490cbe2abe10619b3e8]
link Eth_Hub to NAS--><path codeLine="219" d="M998.8125,237.1558 C992.805,249.0358 984.4575,265.5208 976.1775,281.8783 " fill="none" id="Eth_Hub-NAS" style="stroke:#A80036;stroke-width:0.75;"/><!--MD5=[fdba92f7cd499ccd998d05999f71f6ae]
link Dish_Router to Eth_Hub--><path codeLine="220" d="M1038.3225,156.0058 C1031.58,169.6783 1022.7075,187.6633 1016.2425,200.7808 " fill="none" id="Dish_Router-Eth_Hub" style="stroke:#A80036;stroke-width:0.75;"/><!--MD5=[fbe332a3304dc4c8c3dfaece74a779f6]
link USB_Hub to SDR--><path codeLine="222" d="M1022.625,528.6058 C1022.625,556.9708 1022.625,612.6883 1022.625,641.0383 " fill="none" id="USB_Hub-SDR" style="stroke:#A80036;stroke-width:0.75;"/><!--MD5=[4ba09ff32a53e36c5fb85e6eec1de587]
link USB_Hub to Weather--><path codeLine="223" d="M1034.9925,528.6058 C1053.06,554.1508 1086.8175,601.8733 1108.005,631.8208 " fill="none" id="USB_Hub-Weather" style="stroke:#A80036;stroke-width:0.75;"/><!--MD5=[2a0b371ec03d2c21e471fa956f48a495]
link Other_Sensors to AC--><path codeLine="225" d="M357.4875,573.8383 C347.0025,595.3033 335.8875,618.0433 327.8325,634.5433 " fill="none" id="Other_Sensors-AC" style="stroke:#A80036;stroke-width:0.75;"/><!--MD5=[cbb222f50bcb791e9720287055fe13dd]
link Other_Sensors to Fridge--><path codeLine="226" d="M301.665,567.5683 C297.2325,569.7733 292.7925,571.8508 288.375,573.7483 C214.395,605.5333 186.0675,585.1783 112.875,618.7483 C107.175,621.3658 101.4375,624.5533 95.91,627.9808 " fill="none" id="Other_Sensors-Fridge" style="stroke:#A80036;stroke-width:0.75;"/><!--MD5=[bde99af21072dc4abd6c3e9790e945d2]
link Other_Sensors to Lights_Fans--><path codeLine="227" d="M304.8225,573.8383 C284.64,589.0333 263.6025,604.8733 245.265,618.6808 " fill="none" id="Other_Sensors-Lights_Fans" style="stroke:#A80036;stroke-width:0.75;"/><!--MD5=[9816221c84b92aca30c282d28f000dea]
link Other_Sensors to Pumps--><path codeLine="228" d="M400.89,573.8383 C403.9875,589.0333 407.205,604.8733 410.0175,618.6808 " fill="none" id="Other_Sensors-Pumps" style="stroke:#A80036;stroke-width:0.75;"/><!--MD5=[f4051e061112c5a67383a685ff83d16a]
link NMEA_Mux to NMEA_0183--><path codeLine="230" d="M808.875,537.8083 C808.875,561.4483 808.875,596.1658 808.875,622.3033 " fill="none" id="NMEA_Mux-NMEA_0183" style="stroke:#A80036;stroke-width:0.75;"/><!--MD5=[993848724ee1e0bda2efd2c10d093eb0]
link NMEA_Mux to AP--><path codeLine="231" d="M830.1975,537.8083 C855.3825,569.3308 896.3025,620.5408 915.7275,644.8558 " fill="none" id="NMEA_Mux-AP" style="stroke:#A80036;stroke-width:0.75;"/><!--MD5=[4c412d33c9dd3373fedf634d2cfe895b]
link Esp32 to Lora--><path codeLine="233" d="M586.02,531.1708 C594.2475,543.4783 605.0175,559.5433 614.625,573.7483 C626.79,591.7408 640.4775,611.8333 651.4725,627.9358 " fill="none" id="Esp32-Lora" style="stroke:#A80036;stroke-width:0.75;"/><!--MD5=[3a78a92175d5b8f917843889fc4ac663]
link Esp32 to Winches--><path codeLine="234" d="M568.785,530.9983 C563.9625,555.9058 555.66,598.8433 550.035,627.9433 " fill="none" id="Esp32-Winches" style="stroke:#A80036;stroke-width:0.75;"/><!--MD5=[090045518a7210d3fe050bd4b1b61143]
link Cloud_Internet to Dish_Router--><path codeLine="236" d="M1002.165,69.7708 C1012.5825,84.4708 1024.7925,101.7058 1034.01,114.7108 " fill="none" id="Cloud_Internet-Dish_Router" style="stroke:#A80036;stroke-width:0.75;"/><!--MD5=[0417bd4aebf7681efb342db5775863ca]
link Cloud_Internet to Router--><path codeLine="237" d="M1027.665,56.7058 C1054.7475,68.9758 1087.2975,88.0408 1107.375,114.7483 C1126.74,140.5033 1132.26,178.8883 1133.805,200.9533 " fill="none" id="Cloud_Internet-Router" style="stroke:#A80036;stroke-width:0.75;"/><!--MD5=[6d4697dd1a4fa0e14865453f969898e5]
link Cloud_Internet to Iridium--><path codeLine="238" d="M933.555,62.1883 C895.635,80.5708 843.6,105.7933 812.0025,121.1083 " fill="none" id="Cloud_Internet-Iridium" style="stroke:#A80036;stroke-width:0.75;"/><!--MD5=[f7b1ed679f3dcc8891234d56821c2a8b]
link Cloud_Internet to Remote_Desktop--><path codeLine="239" d="M959.085,69.7708 C946.89,86.9758 932.2425,107.6458 922.815,120.9508 " fill="none" id="Cloud_Internet-Remote_Desktop" style="stroke:#A80036;stroke-width:0.75;"/><!--MD5=[f7c22a6020875df2ba44dffafefaebb5]
link Skipper to Touchscreen--><path codeLine="241" d="M575.6175,40.6483 C532.1325,44.5483 419.655,59.6683 347.625,114.7483 C317.925,137.4583 298.2225,177.8608 288.81,200.8933 " fill="none" id="Skipper-Touchscreen" style="stroke:#A80036;stroke-width:0.75;"/><!--MD5=[180a6a48d329b5088bf365124668f177]
link Skipper to Speakers--><path codeLine="242" d="M605.4075,69.9208 C620.61,109.3333 646.41,176.2183 657.4125,204.7258 " fill="none" id="Skipper-Speakers" style="stroke:#A80036;stroke-width:0.75;"/><!--MD5=[b5f99795dccb66293530d697261f575d]
link Skipper to Cameras--><path codeLine="243" d="M611.7675,57.5158 C630.225,75.9733 658.425,104.1733 675.12,120.8683 " fill="none" id="Skipper-Cameras" style="stroke:#A80036;stroke-width:0.75;"/><!--MD5=[4d7243369b38bcf5d3d8f8df86a5cab3]
link Skipper to Iridium--><path codeLine="244" d="M611.8875,48.5083 C645.6,65.3608 717.7425,101.4358 757.1175,121.1233 " fill="none" id="Skipper-Iridium" style="stroke:#A80036;stroke-width:0.75;"/><!--MD5=[c0261e63bc2c3c7d09c0762b33b29a4a]
link Skipper to SSB--><path codeLine="245" d="M588.885,69.9208 C583.035,107.6383 573.2775,170.5108 568.575,200.8333 " fill="none" id="Skipper-SSB" style="stroke:#A80036;stroke-width:0.75;"/><!--MD5=[7055ac5873383501a6665c2abfcc17ee]
link Skipper to SmartPhone--><path codeLine="246" d="M575.4225,48.3358 C544.515,63.5458 481.11,94.7608 439.6275,115.1758 " fill="none" id="Skipper-SmartPhone" style="stroke:#A80036;stroke-width:0.75;"/><!--MD5=[9e619f9f7e27f8b7daf8036513ac83ac]
link Skipper to Keyboard_Mouse--><path codeLine="247" d="M575.5125,57.0658 C558.7725,73.4233 533.925,97.6933 516.495,114.7183 " fill="none" id="Skipper-Keyboard_Mouse" style="stroke:#A80036;stroke-width:0.75;"/><!--MD5=[791020c57217bb146034c35bb978d496]
link Skipper to Remote_Desktop--><path codeLine="248" d="M611.715,44.7658 C660.5625,59.3308 796.215,99.7708 867.705,121.0858 " fill="none" id="Skipper-Remote_Desktop" style="stroke:#A80036;stroke-width:0.75;"/><!--MD5=[6bd37029598bfdac2031dd0c589e03cd]
@startuml

actor Skipper [
 Skipper
]

node RPI [
 <b>Rpi4, BBN OS
 - - - -
 Local WiFi
 CanBus Interface
 Sound Card
 SSD
]

rectangle GPS [
 GPS USB
]

rectangle IMU [
 IMU
 - - - -
 compass, gyro, accel
]

rectangle NMEA_2000 [
 <b>NMEA2000 Bus
 - - - -
 engine sensors,
 fishfinder, sonar,
 etc
]

node NMEA_Mux [
 NMEA Multiplexer
 - - - -
 bidirectional Seatalk1
]

rectangle NMEA_0183 [
 <b>NMEA 0183 Devices
 - - - -
 AIS transducer/receiver
 GPS, VHF, compass
 Wind, Depth, Speed
]

rectangle AP [
 Autopilot
]

node Eth_Hub [
 Ethernet Hub
]

node USB_Hub [
 USB Hub
]

node Router [
 LTE/WiFi Router
]

rectangle Dish_Router [
 StarLink Router,
 Dish
]

node Radar [
 Radar
]

node Touchscreen [
 <b>HDMI Touchscreen
]

rectangle Speakers [
 Speakers
]

rectangle Cameras [
 Cameras
]

node SDR [
 SDR Radio
]

node SSB [
 SSB Radio
]

cloud WiFi_Local [
 Local WiFi
]

rectangle Iridium [
 Iridium Phone
]

rectangle Other_Sensors [
 Other_Sensors
 - - - -
 IoT, 1w, i2c, etc
 batteries monitoring
 chargers (wind, solar, diesel gen)
 fluid levels
 env temp/pressure/humid
 dangerous gases sensors
 lightning strike sensors
]

rectangle Remote_Desktop [
 Remote Desktop (VNC)
]

node AC [
 A/C
 Heater
]

node Pumps [
 Pumps
 - - - -
 Bilge
 Fresh Water
 Black Water
]

node Fridge [
 Fridge
 Watermaker
 Live well
]

rectangle Lights_Fans [
 Lights: (Nav, Anchor,
 Running, Mast, Cabin,
 Underwater, Search, etc)
 Fans
 Bilge/Engine Blower
]

rectangle Keyboard_Mouse [
 Keyboard
 Mouse
]

rectangle Weather [
 NavTex
 WeatherFax
 Barograph
]

rectangle SiriusXM [
 SiriusXM Marine
]

rectangle SmartPhone [
 SmartPhones
 Tablets
]

database NAS [
 NAS
 - - - -
 Audio/Video Lib
 Charts, Backups, Tracks,
 Docs, Logs,
 Crew Docs, Float Plans,
 Inventory, Provisioning,
 Time Series Data, etc
]

node Winches [
 Anchor Windlass
 Power Winches
 Bow Thruster
]

cloud Cloud_Internet [
 <b>Internet
 Cloud Storage
 Cloud Services
]

cloud Lora [
 LoraWAN
 Asset Tracking
 Dinghy Locator
]

rectangle Esp32 [
 m5stack,
 arduino
]

RPI - - GPS
RPI -l- IMU
RPI - - NMEA_2000
RPI - - NMEA_Mux
RPI -u- Eth_Hub
RPI - - USB_Hub
RPI -u- Touchscreen
RPI -u- Cameras
RPI -u-> Speakers
RPI -u- SSB
RPI -u- Iridium
RPI - - Other_Sensors
RPI -d- Esp32
RPI -u- WiFi_Local
RPI -u- Keyboard_Mouse

SmartPhone - - WiFi_Local

SiriusXM - - NMEA_2000

Eth_Hub -r- Router
Eth_Hub - - Radar
Eth_Hub - - NAS
Eth_Hub -u- Dish_Router

USB_Hub - - SDR
USB_Hub - - Weather

Other_Sensors - - AC
Other_Sensors - - Fridge
Other_Sensors - - Lights_Fans
Other_Sensors - - Pumps

NMEA_Mux - - NMEA_0183
NMEA_Mux - - AP

Esp32 - - Lora
Esp32 - - Winches

Cloud_Internet - - Dish_Router
Cloud_Internet - - Router
Cloud_Internet - - Iridium
Cloud_Internet - - Remote_Desktop

Skipper - - Touchscreen
Skipper - - Speakers
Skipper - - Cameras
Skipper - - Iridium
Skipper - - SSB
Skipper - - SmartPhone
Skipper - - Keyboard_Mouse
Skipper - - Remote_Desktop

@enduml

PlantUML version 1.2021.00(Sun Jan 10 05:25:05 EST 2021)
(GPL source distribution)
Java Runtime: OpenJDK Runtime Environment
JVM: OpenJDK 64-Bit Server VM
Default Encoding: Cp1252
Language: en
Country: US
--></g></svg>