<?xml version="1.0" encoding="UTF-8" standalone="no"?><svg xmlns="http://www.w3.org/2000/svg" xmlns:xlink="http://www.w3.org/1999/xlink" contentScriptType="application/ecmascript" contentStyleType="text/css" height="427.5px" preserveAspectRatio="none" style="width:562px;height:427px;" version="1.1" viewBox="0 0 562 427" width="562px" zoomAndPan="magnify"><defs><filter height="300%" id="fjup42ay768br" width="300%" x="-1" y="-1"><feGaussianBlur result="blurOut" stdDeviation="1.0"/><feColorMatrix in="blurOut" result="blurOut2" type="matrix" values="0 0 0 0 0 0 0 0 0 0 0 0 0 0 0 0 0 0 .4 0"/><feOffset dx="2.0" dy="2.0" in="blurOut2" result="blurOut3"/><feBlend in="SourceGraphic" in2="blurOut3" mode="normal"/></filter></defs><g><!--MD5=[f50827fad462c3f51a79aa3f1564e3ff]
entity Skipper--><ellipse cx="226" cy="9.7489" fill="#FEFECE" filter="url(#fjup42ay768br)" rx="4" ry="4" style="stroke:#A80036;stroke-width:0.75;"/><path d="M226,13.7489 L226,27.2489 M219.5,17.7489 L232.5,17.7489 M226,27.2489 L219.5,34.7489 M226,27.2489 L232.5,34.7489 " fill="none" filter="url(#fjup42ay768br)" style="stroke:#A80036;stroke-width:0.75;"/><text fill="#000000" font-family="sans-serif" font-size="7" lengthAdjust="spacing" textLength="24" x="214" y="44.7655">Skipper</text><!--MD5=[56bb6c3bc4df8cdefb957cc5b3ef3a7e]
entity RPI--><polygon fill="#FEFECE" filter="url(#fjup42ay768br)" points="181.25,196.4989,186.25,191.4989,255.75,191.4989,255.75,249.5223,250.75,254.5223,181.25,254.5223,181.25,196.4989" style="stroke:#000000;stroke-width:0.75;"/><line style="stroke:#000000;stroke-width:0.75;" x1="250.75" x2="255.75" y1="196.4989" y2="191.4989"/><line style="stroke:#000000;stroke-width:0.75;" x1="181.25" x2="250.75" y1="196.4989" y2="196.4989"/><line style="stroke:#000000;stroke-width:0.75;" x1="250.75" x2="250.75" y1="196.4989" y2="254.5223"/><text fill="#000000" font-family="sans-serif" font-size="7" font-weight="bold" lengthAdjust="spacing" textLength="46.5" x="188.75" y="208.7655">Rpi4, BBN OS</text><line style="stroke:#000000;stroke-width:0.5;" x1="181.25" x2="250.75" y1="210.3036" y2="210.3036"/><line style="stroke:#000000;stroke-width:0.5;" x1="250.75" x2="255.75" y1="210.3036" y2="205.3036"/><text fill="#000000" font-family="sans-serif" font-size="7" lengthAdjust="spacing" textLength="33" x="188.75" y="219.5702">Local WiFi</text><text fill="#000000" font-family="sans-serif" font-size="7" lengthAdjust="spacing" textLength="54.5" x="188.75" y="228.3748">CanBus Interface</text><text fill="#000000" font-family="sans-serif" font-size="7" lengthAdjust="spacing" textLength="38" x="188.75" y="237.1795">Sound Card</text><text fill="#000000" font-family="sans-serif" font-size="7" lengthAdjust="spacing" textLength="14" x="188.75" y="245.9842">SSD</text><!--MD5=[cd1d357e028b96f42ee72ab526715f53]
entity GPS--><rect fill="#FEFECE" filter="url(#fjup42ay768br)" height="18.8047" style="stroke:#000000;stroke-width:0.75;" width="40" x="36.5" y="303.9989"/><text fill="#000000" font-family="sans-serif" font-size="7" lengthAdjust="spacing" textLength="30" x="41.5" y="316.2655">GPS USB</text><!--MD5=[ae8265c62b5fdfc486198cf91618d43d]
entity IMU--><rect fill="#FEFECE" filter="url(#fjup42ay768br)" height="31.6094" style="stroke:#000000;stroke-width:0.75;" width="76.5" x="87.25" y="207.2489"/><text fill="#000000" font-family="sans-serif" font-size="7" lengthAdjust="spacing" textLength="11.5" x="92.25" y="219.5155">IMU</text><line style="stroke:#000000;stroke-width:0.5;" x1="87.75" x2="163.25" y1="221.0536" y2="221.0536"/><text fill="#000000" font-family="sans-serif" font-size="7" lengthAdjust="spacing" textLength="66.5" x="92.25" y="230.3202">compass, gyro, accel</text><!--MD5=[b17a41457b887f0466e22bd7e05c4601]
entity NMEA_2000--><rect fill="#FEFECE" filter="url(#fjup42ay768br)" height="49.2188" style="stroke:#000000;stroke-width:0.75;" width="63" x="94" y="288.9989"/><text fill="#000000" font-family="sans-serif" font-size="7" font-weight="bold" lengthAdjust="spacing" textLength="52" x="99" y="301.2655">NMEA2000 Bus</text><line style="stroke:#000000;stroke-width:0.5;" x1="94.5" x2="156.5" y1="302.8036" y2="302.8036"/><text fill="#000000" font-family="sans-serif" font-size="7" lengthAdjust="spacing" textLength="50.5" x="99" y="312.0702">engine sensors,</text><text fill="#000000" font-family="sans-serif" font-size="7" lengthAdjust="spacing" textLength="53" x="99" y="320.8748">fishfinder, sonar,</text><text fill="#000000" font-family="sans-serif" font-size="7" lengthAdjust="spacing" textLength="9.5" x="99" y="329.6795">etc</text><!--MD5=[6eed89ef60fd1dd7e5ad5481c6afc096]
entity NMEA_Mux--><polygon fill="#FEFECE" filter="url(#fjup42ay768br)" points="174.75,300.2489,179.75,295.2489,262.25,295.2489,262.25,326.8582,257.25,331.8582,174.75,331.8582,174.75,300.2489" style="stroke:#000000;stroke-width:0.75;"/><line style="stroke:#000000;stroke-width:0.75;" x1="257.25" x2="262.25" y1="300.2489" y2="295.2489"/><line style="stroke:#000000;stroke-width:0.75;" x1="174.75" x2="257.25" y1="300.2489" y2="300.2489"/><line style="stroke:#000000;stroke-width:0.75;" x1="257.25" x2="257.25" y1="300.2489" y2="331.8582"/><text fill="#000000" font-family="sans-serif" font-size="7" lengthAdjust="spacing" textLength="54.5" x="182.25" y="312.5155">NMEA Multiplexer</text><line style="stroke:#000000;stroke-width:0.5;" x1="174.75" x2="257.25" y1="314.0536" y2="314.0536"/><line style="stroke:#000000;stroke-width:0.5;" x1="257.25" x2="262.25" y1="314.0536" y2="309.0536"/><text fill="#000000" font-family="sans-serif" font-size="7" lengthAdjust="spacing" textLength="67.5" x="182.25" y="323.3202">bidirectional Seatalk1</text><!--MD5=[1eaf4d2f8be208adf81d4b0ad8be7432]
entity NMEA_0183--><rect fill="#FEFECE" filter="url(#fjup42ay768br)" height="49.2188" style="stroke:#000000;stroke-width:0.75;" width="84" x="176.5" y="372.4989"/><text fill="#000000" font-family="sans-serif" font-size="7" font-weight="bold" lengthAdjust="spacing" textLength="69" x="181.5" y="384.7655">NMEA 0183 Devices</text><line style="stroke:#000000;stroke-width:0.5;" x1="177" x2="260" y1="386.3036" y2="386.3036"/><text fill="#000000" font-family="sans-serif" font-size="7" lengthAdjust="spacing" textLength="74" x="181.5" y="395.5702">AIS transducer/receiver</text><text fill="#000000" font-family="sans-serif" font-size="7" lengthAdjust="spacing" textLength="64" x="181.5" y="404.3748">GPS, VHF, compass</text><text fill="#000000" font-family="sans-serif" font-size="7" lengthAdjust="spacing" textLength="63.5" x="181.5" y="413.1795">Wind, Depth, Speed</text><!--MD5=[31e3ec59327e273962ce661ad70afaa5]
entity AP--><rect fill="#FEFECE" filter="url(#fjup42ay768br)" height="18.8047" style="stroke:#000000;stroke-width:0.75;" width="37.5" x="121.25" y="387.4989"/><text fill="#000000" font-family="sans-serif" font-size="7" lengthAdjust="spacing" textLength="27.5" x="126.25" y="399.7655">Autopilot</text><!--MD5=[547615c2c8915297a73af811d5dbf318]
entity Eth_Hub--><polygon fill="#FEFECE" filter="url(#fjup42ay768br)" points="394.75,140.7489,399.75,135.7489,456.25,135.7489,456.25,154.5536,451.25,159.5536,394.75,159.5536,394.75,140.7489" style="stroke:#000000;stroke-width:0.75;"/><line style="stroke:#000000;stroke-width:0.75;" x1="451.25" x2="456.25" y1="140.7489" y2="135.7489"/><line style="stroke:#000000;stroke-width:0.75;" x1="394.75" x2="451.25" y1="140.7489" y2="140.7489"/><line style="stroke:#000000;stroke-width:0.75;" x1="451.25" x2="451.25" y1="140.7489" y2="159.5536"/><text fill="#000000" font-family="sans-serif" font-size="7" lengthAdjust="spacing" textLength="41.5" x="402.25" y="153.0155">Ethernet Hub</text><!--MD5=[7968f28c13df0538bc57173754511f0e]
entity USB_Hub--><polygon fill="#FEFECE" filter="url(#fjup42ay768br)" points="280,306.4989,285,301.4989,328,301.4989,328,320.3036,323,325.3036,280,325.3036,280,306.4989" style="stroke:#000000;stroke-width:0.75;"/><line style="stroke:#000000;stroke-width:0.75;" x1="323" x2="328" y1="306.4989" y2="301.4989"/><line style="stroke:#000000;stroke-width:0.75;" x1="280" x2="323" y1="306.4989" y2="306.4989"/><line style="stroke:#000000;stroke-width:0.75;" x1="323" x2="323" y1="306.4989" y2="325.3036"/><text fill="#000000" font-family="sans-serif" font-size="7" lengthAdjust="spacing" textLength="28" x="287.5" y="318.7655">USB Hub</text><!--MD5=[953a8c67cfe21abaf9bf45dad8506ca8]
entity Router--><polygon fill="#FEFECE" filter="url(#fjup42ay768br)" points="473.75,140.7489,478.75,135.7489,546.25,135.7489,546.25,154.5536,541.25,159.5536,473.75,159.5536,473.75,140.7489" style="stroke:#000000;stroke-width:0.75;"/><line style="stroke:#000000;stroke-width:0.75;" x1="541.25" x2="546.25" y1="140.7489" y2="135.7489"/><line style="stroke:#000000;stroke-width:0.75;" x1="473.75" x2="541.25" y1="140.7489" y2="140.7489"/><line style="stroke:#000000;stroke-width:0.75;" x1="541.25" x2="541.25" y1="140.7489" y2="159.5536"/><text fill="#000000" font-family="sans-serif" font-size="7" lengthAdjust="spacing" textLength="52.5" x="481.25" y="153.0155">LTE/WiFi Router</text><!--MD5=[4c7a5f0f4d710d941c4df063500e34ba]
entity Dish_Router--><rect fill="#FEFECE" filter="url(#fjup42ay768br)" height="27.6094" style="stroke:#000000;stroke-width:0.75;" width="61.5" x="412.25" y="76.4989"/><text fill="#000000" font-family="sans-serif" font-size="7" lengthAdjust="spacing" textLength="51.5" x="417.25" y="88.7655">StarLink Router,</text><text fill="#000000" font-family="sans-serif" font-size="7" lengthAdjust="spacing" textLength="14" x="417.25" y="97.5702">Dish</text><!--MD5=[af2495f9a90a9f78578178908d6e69bd]
entity Radar--><polygon fill="#FEFECE" filter="url(#fjup42ay768br)" points="364.75,215.9989,369.75,210.9989,404.25,210.9989,404.25,229.8036,399.25,234.8036,364.75,234.8036,364.75,215.9989" style="stroke:#000000;stroke-width:0.75;"/><line style="stroke:#000000;stroke-width:0.75;" x1="399.25" x2="404.25" y1="215.9989" y2="210.9989"/><line style="stroke:#000000;stroke-width:0.75;" x1="364.75" x2="399.25" y1="215.9989" y2="215.9989"/><line style="stroke:#000000;stroke-width:0.75;" x1="399.25" x2="399.25" y1="215.9989" y2="234.8036"/><text fill="#000000" font-family="sans-serif" font-size="7" lengthAdjust="spacing" textLength="19.5" x="372.25" y="228.2655">Radar</text><!--MD5=[330778c508571bc43f7e5523a03ca602]
entity Touchscreen--><polygon fill="#FEFECE" filter="url(#fjup42ay768br)" points="95.75,83.2489,100.75,78.2489,182.25,78.2489,182.25,97.0536,177.25,102.0536,95.75,102.0536,95.75,83.2489" style="stroke:#000000;stroke-width:0.75;"/><line style="stroke:#000000;stroke-width:0.75;" x1="177.25" x2="182.25" y1="83.2489" y2="78.2489"/><line style="stroke:#000000;stroke-width:0.75;" x1="95.75" x2="177.25" y1="83.2489" y2="83.2489"/><line style="stroke:#000000;stroke-width:0.75;" x1="177.25" x2="177.25" y1="83.2489" y2="102.0536"/><text fill="#000000" font-family="sans-serif" font-size="7" font-weight="bold" lengthAdjust="spacing" textLength="66.5" x="103.25" y="95.5155">HDMI Touchscreen</text><!--MD5=[4c50005c0fadedfb0a14f6d1969de37e]
entity Speakers--><rect fill="#FEFECE" filter="url(#fjup42ay768br)" height="18.8047" style="stroke:#000000;stroke-width:0.75;" width="40" x="3.5" y="138.2489"/><text fill="#000000" font-family="sans-serif" font-size="7" lengthAdjust="spacing" textLength="30" x="8.5" y="150.5155">Speakers</text><!--MD5=[1b76df3a4bd008a21abb34082ebb9919]
entity Cameras--><rect fill="#FEFECE" filter="url(#fjup42ay768br)" height="18.8047" style="stroke:#000000;stroke-width:0.75;" width="38.5" x="39.75" y="80.7489"/><text fill="#000000" font-family="sans-serif" font-size="7" lengthAdjust="spacing" textLength="28.5" x="44.75" y="93.0155">Cameras</text><!--MD5=[d92e9b93d5ce4574427d5f042afd2321]
entity SDR--><polygon fill="#FEFECE" filter="url(#fjup42ay768br)" points="344.5,389.9989,349.5,384.9989,399.5,384.9989,399.5,403.8036,394.5,408.8036,344.5,408.8036,344.5,389.9989" style="stroke:#000000;stroke-width:0.75;"/><line style="stroke:#000000;stroke-width:0.75;" x1="394.5" x2="399.5" y1="389.9989" y2="384.9989"/><line style="stroke:#000000;stroke-width:0.75;" x1="344.5" x2="394.5" y1="389.9989" y2="389.9989"/><line style="stroke:#000000;stroke-width:0.75;" x1="394.5" x2="394.5" y1="389.9989" y2="408.8036"/><text fill="#000000" font-family="sans-serif" font-size="7" lengthAdjust="spacing" textLength="35" x="352" y="402.2655">SDR Radio</text><!--MD5=[6ba27cb6ab6c98fb8258247a8e3f62be]
entity SSB--><polygon fill="#FEFECE" filter="url(#fjup42ay768br)" points="287.5,140.7489,292.5,135.7489,341.5,135.7489,341.5,154.5536,336.5,159.5536,287.5,159.5536,287.5,140.7489" style="stroke:#000000;stroke-width:0.75;"/><line style="stroke:#000000;stroke-width:0.75;" x1="336.5" x2="341.5" y1="140.7489" y2="135.7489"/><line style="stroke:#000000;stroke-width:0.75;" x1="287.5" x2="336.5" y1="140.7489" y2="140.7489"/><line style="stroke:#000000;stroke-width:0.75;" x1="336.5" x2="336.5" y1="140.7489" y2="159.5536"/><text fill="#000000" font-family="sans-serif" font-size="7" lengthAdjust="spacing" textLength="34" x="295" y="153.0155">SSB Radio</text><!--MD5=[dd29c4e1cef6fbff2e61a9551f8f2bf2]
entity WiFi_Local--><path d="M168.3551,139.8944 C170.176,136.713 172.3747,136.7304 174.7997,139.2063 C176.5092,135.5866 179.4038,135.5596 181.6762,138.6275 C182.9834,135.2862 185.0595,134.9827 187.7163,137.1469 C190.4358,133.8944 193.473,134.5538 195.1008,138.2989 C198.023,135.8581 200.0904,136.5972 201.6396,139.8702 C203.2364,136.8636 206.2409,137.1584 207.8318,139.8765 C212.7905,140.585 214.714,143.4565 211.6288,147.9488 C214.0183,151.8333 213.4637,155.6945 208.0478,156.1856 C206.4975,159.6543 204.6311,160.5829 201.6739,157.5688 C200.0146,160.7913 197.1742,161.636 194.5146,158.7392 C193.0743,161.6679 191.0701,162.8329 188.4752,159.9361 C185.6449,163.3145 182.4423,162.8495 180.9042,158.6459 C177.9303,160.7569 175.9845,160.4922 174.7723,156.7882 C172.241,159.6795 169.5405,159.9497 167.8788,155.9219 C163.1479,154.7328 162.559,152.3715 165.3853,148.6065 C161.8171,144.858 163.5786,140.7984 168.3551,139.8944 " fill="#FEFECE" filter="url(#fjup42ay768br)" style="stroke:#000000;stroke-width:0.75;"/><text fill="#000000" font-family="sans-serif" font-size="7" lengthAdjust="spacing" textLength="33" x="171" y="150.5155">Local WiFi</text><!--MD5=[82bbb9a7a666b856fa28a649fd3171aa]
entity Iridium--><rect fill="#FEFECE" filter="url(#fjup42ay768br)" height="18.8047" style="stroke:#000000;stroke-width:0.75;" width="53" x="341.5" y="80.7489"/><text fill="#000000" font-family="sans-serif" font-size="7" lengthAdjust="spacing" textLength="43" x="346.5" y="93.0155">Iridium Phone</text><!--MD5=[8f0c441f12fb738c5e80b28ccd1b0a87]
entity Other_Sensors--><rect fill="#FEFECE" filter="url(#fjup42ay768br)" height="58.0234" style="stroke:#000000;stroke-width:0.75;" width="97" x="415" y="284.4989"/><text fill="#000000" font-family="sans-serif" font-size="7" lengthAdjust="spacing" textLength="48" x="420" y="296.7655">Other_Sensors</text><line style="stroke:#000000;stroke-width:0.5;" x1="415.5" x2="511.5" y1="298.3036" y2="298.3036"/><text fill="#000000" font-family="sans-serif" font-size="7" lengthAdjust="spacing" textLength="49" x="420" y="307.5702">IoT, 1w, i2c, etc</text><text fill="#000000" font-family="sans-serif" font-size="7" lengthAdjust="spacing" textLength="87" x="420" y="316.3748">battery/chargers monitoring</text><text fill="#000000" font-family="sans-serif" font-size="7" lengthAdjust="spacing" textLength="33" x="420" y="325.1795">fluid levels</text><text fill="#000000" font-family="sans-serif" font-size="7" lengthAdjust="spacing" textLength="80" x="420" y="333.9842">env temp/pressure/humid</text><!--MD5=[0313ddc4f8ed0f4991a51edae0b1647c]
entity AC--><polygon fill="#FEFECE" filter="url(#fjup42ay768br)" points="522.25,389.9989,527.25,384.9989,553.75,384.9989,553.75,403.8036,548.75,408.8036,522.25,408.8036,522.25,389.9989" style="stroke:#000000;stroke-width:0.75;"/><line style="stroke:#000000;stroke-width:0.75;" x1="548.75" x2="553.75" y1="389.9989" y2="384.9989"/><line style="stroke:#000000;stroke-width:0.75;" x1="522.25" x2="548.75" y1="389.9989" y2="389.9989"/><line style="stroke:#000000;stroke-width:0.75;" x1="548.75" x2="548.75" y1="389.9989" y2="408.8036"/><text fill="#000000" font-family="sans-serif" font-size="7" lengthAdjust="spacing" textLength="11.5" x="529.75" y="402.2655">A/C</text><!--MD5=[c74dee767baeeec0e713c54a8a4634dc]
entity Fridge--><polygon fill="#FEFECE" filter="url(#fjup42ay768br)" points="417.25,389.9989,422.25,384.9989,457.75,384.9989,457.75,403.8036,452.75,408.8036,417.25,408.8036,417.25,389.9989" style="stroke:#000000;stroke-width:0.75;"/><line style="stroke:#000000;stroke-width:0.75;" x1="452.75" x2="457.75" y1="389.9989" y2="384.9989"/><line style="stroke:#000000;stroke-width:0.75;" x1="417.25" x2="452.75" y1="389.9989" y2="389.9989"/><line style="stroke:#000000;stroke-width:0.75;" x1="452.75" x2="452.75" y1="389.9989" y2="408.8036"/><text fill="#000000" font-family="sans-serif" font-size="7" lengthAdjust="spacing" textLength="20.5" x="424.75" y="402.2655">Fridge</text><!--MD5=[de3c8540a01c1d55fb4517020c4cf4a8]
entity Lights--><rect fill="#FEFECE" filter="url(#fjup42ay768br)" height="18.8047" style="stroke:#000000;stroke-width:0.75;" width="29" x="475.5" y="387.4989"/><text fill="#000000" font-family="sans-serif" font-size="7" lengthAdjust="spacing" textLength="19" x="480.5" y="399.7655">Lights</text><!--MD5=[593e445c9278762cb4ef7b840df82fac]
entity Keyboard_Mouse--><rect fill="#FEFECE" filter="url(#fjup42ay768br)" height="27.6094" style="stroke:#000000;stroke-width:0.75;" width="40.5" x="229.25" y="133.9989"/><text fill="#000000" font-family="sans-serif" font-size="7" lengthAdjust="spacing" textLength="30.5" x="234.25" y="146.2655">Keyboard</text><text fill="#000000" font-family="sans-serif" font-size="7" lengthAdjust="spacing" textLength="21" x="234.25" y="155.0702">Mouse</text><!--MD5=[6068ed0baf2edbbb46a7f906664363da]
entity Weather--><rect fill="#FEFECE" filter="url(#fjup42ay768br)" height="36.4141" style="stroke:#000000;stroke-width:0.75;" width="48.5" x="278.25" y="378.7489"/><text fill="#000000" font-family="sans-serif" font-size="7" lengthAdjust="spacing" textLength="23.5" x="283.25" y="391.0155">NavTex</text><text fill="#000000" font-family="sans-serif" font-size="7" lengthAdjust="spacing" textLength="38.5" x="283.25" y="399.8202">WeatherFax</text><text fill="#000000" font-family="sans-serif" font-size="7" lengthAdjust="spacing" textLength="33.5" x="283.25" y="408.6248">Barograph</text><!--MD5=[d59b03f458f75ee04d94168ba7ec459b]
entity SmartPhone--><rect fill="#FEFECE" filter="url(#fjup42ay768br)" height="27.6094" style="stroke:#000000;stroke-width:0.75;" width="52.5" x="199.75" y="76.4989"/><text fill="#000000" font-family="sans-serif" font-size="7" lengthAdjust="spacing" textLength="42.5" x="204.75" y="88.7655">SmartPhones</text><text fill="#000000" font-family="sans-serif" font-size="7" lengthAdjust="spacing" textLength="23.5" x="204.75" y="97.5702">Tablets</text><!--MD5=[13e88d8e4422c8d855b54f0d2bc171be]
entity NAS--><path d="M421.75,201.2489 C421.75,196.2489 466.5,196.2489 466.5,196.2489 C466.5,196.2489 511.25,196.2489 511.25,201.2489 L511.25,244.9676 C511.25,249.9676 466.5,249.9676 466.5,249.9676 C466.5,249.9676 421.75,249.9676 421.75,244.9676 L421.75,201.2489 " fill="#FEFECE" filter="url(#fjup42ay768br)" style="stroke:#000000;stroke-width:0.75;"/><path d="M421.75,201.2489 C421.75,206.2489 466.5,206.2489 466.5,206.2489 C466.5,206.2489 511.25,206.2489 511.25,201.2489 " fill="none" style="stroke:#000000;stroke-width:0.75;"/><text fill="#000000" font-family="sans-serif" font-size="7" lengthAdjust="spacing" textLength="13.5" x="426.75" y="215.5155">NAS</text><path d="M421.75,214.5536 C421.75,219.5536 466.5,219.5536 466.5,219.5536 C466.5,219.5536 511.25,219.5536 511.25,214.5536 " fill="none" style="stroke:#000000;stroke-width:0.5;"/><text fill="#000000" font-family="sans-serif" font-size="7" lengthAdjust="spacing" textLength="49.5" x="426.75" y="226.3202">Audio/Video Lib</text><text fill="#000000" font-family="sans-serif" font-size="7" lengthAdjust="spacing" textLength="79.5" x="426.75" y="235.1248">Charts, Backups, Tracks,</text><text fill="#000000" font-family="sans-serif" font-size="7" lengthAdjust="spacing" textLength="68" x="426.75" y="243.9295">Time Series Data, etc</text><!--MD5=[48e79d9335dd0cd53682a5a492aea5d9]
entity Cloud_Internet--><path d="M416.83,9.9694 C418.1562,6.6666 420.242,6.355 422.8396,8.5894 C424.4124,4.5733 426.5235,4.239 429.4372,7.3477 C431.1623,4.027 434.3756,3.308 436.5033,6.9384 C438.4633,3 441.6023,3.1123 444.0138,6.4738 C445.8397,3.8854 448.7617,3.8902 450.1684,6.932 C452.6093,4.6856 455.4651,4.7098 456.7068,8.28 C458.7301,5.3536 461.5257,5.2377 463.6014,8.2188 C466.6327,4.6441 468.8921,5.3747 470.8677,9.2487 C474.4079,11.0545 474.2741,13.4107 471.2722,15.6312 C474.2366,16.606 474.1445,18.2565 472.5171,20.424 C475.5858,21.9294 476.5992,24.1654 473.6382,26.7409 C475.5552,28.8029 475.1418,30.7402 472.3185,31.4831 C474.3064,33.5487 474.3845,35.4771 471.6225,36.9365 C474.2694,39.1507 474.0129,40.9741 470.9997,42.5616 C468.9168,45.7847 466.8952,46.7305 464.0405,43.3784 C462.1238,46.4724 459.332,46.8059 457.4858,43.3083 C455.6948,47.3722 452.2707,46.7683 450.1515,43.6432 C448.7017,46.7392 445.3092,47.6047 443.0854,44.5293 C440.5709,47.5212 438.5824,46.9024 436.9683,43.6476 C434.6195,47.3135 432.5082,47.0014 430.0868,43.7196 C427.9916,47.0021 425.5296,46.4901 423.3852,43.7746 C420.3109,46.9573 417.6471,47.0019 415.7643,42.5804 C413.3266,41.0708 413.1176,38.7853 415.6565,37.1764 C412.7484,35.6156 412.7,33.6868 415.3788,31.8355 C412.4601,30.153 412.7413,27.9986 415.1368,26.0922 C412.9012,24.1587 412.6808,22.2713 415.4713,20.6465 C412.8502,18.5762 413.2903,16.4228 416.3809,15.3296 C413.7335,13.2572 414.2378,11.6028 416.83,9.9694 " fill="#FEFECE" filter="url(#fjup42ay768br)" style="stroke:#000000;stroke-width:0.75;"/><text fill="#000000" font-family="sans-serif" font-size="7" font-weight="bold" lengthAdjust="spacing" textLength="28" x="419.25" y="19.7655">Internet</text><text fill="#000000" font-family="sans-serif" font-size="7" lengthAdjust="spacing" textLength="45.5" x="419.25" y="28.5702">Cloud Storage</text><text fill="#000000" font-family="sans-serif" font-size="7" lengthAdjust="spacing" textLength="47.5" x="419.25" y="37.3748">Cloud Services</text><!--MD5=[5d3c09c67791d820f6e58e35ac1308e3]
link RPI to GPS--><path codeLine="151" d="M181.205,249.7889 C178.31,251.4689 175.39,253.0639 172.5,254.4989 C135.69,272.8089 119.88,262.7339 85,284.4989 C76.69,289.6839 68.945,297.7239 63.635,303.9389 " fill="none" id="RPI-GPS" style="stroke:#A80036;stroke-width:0.5;"/><!--MD5=[c6d492c1e608e21002a1e79a049df954]
link IMU to RPI--><path codeLine="152" d="M163.825,222.9989 C169.595,222.9989 175.36,222.9989 181.125,222.9989 " fill="none" id="IMU-RPI" style="stroke:#A80036;stroke-width:0.5;"/><!--MD5=[a860cb1a85174d4976dae9c4f32e49f8]
link RPI to NMEA_2000--><path codeLine="153" d="M186.235,254.5489 C174.535,265.8089 161.505,278.3489 150.525,288.9189 " fill="none" id="RPI-NMEA_2000" style="stroke:#A80036;stroke-width:0.5;"/><!--MD5=[f75ecebad45d24d2cfeff8c08b96d55d]
link RPI to NMEA_Mux--><path codeLine="154" d="M218.5,254.5489 C218.5,268.1339 218.5,283.5739 218.5,295.1789 " fill="none" id="RPI-NMEA_Mux" style="stroke:#A80036;stroke-width:0.5;"/><!--MD5=[3577f1ad49970e59a1e1697b6041c28e]
link Eth_Hub to RPI--><path codeLine="155" d="M394.735,159.2839 C357.735,172.5539 295.665,194.8189 255.93,209.0739 " fill="none" id="Eth_Hub-RPI" style="stroke:#A80036;stroke-width:0.5;"/><!--MD5=[1d20bbed48bf86b90ee5f13bc892e6f4]
link RPI to USB_Hub--><path codeLine="156" d="M248.165,254.5489 C263.6,270.7089 281.55,289.4989 292.845,301.3189 " fill="none" id="RPI-USB_Hub" style="stroke:#A80036;stroke-width:0.5;"/><!--MD5=[920310a45a910abea0e78fc3f928b9c7]
link Touchscreen to RPI--><path codeLine="157" d="M139.465,102.2589 C140.505,116.8939 143.83,142.5389 154.5,161.4989 C161.275,173.5389 171.195,184.6539 181.215,194.0039 " fill="none" id="Touchscreen-RPI" style="stroke:#A80036;stroke-width:0.5;"/><!--MD5=[e542bf0be54ca915b2a2c465769198ce]
link Cameras to RPI--><path codeLine="158" d="M69.23,99.8339 C84.62,113.4489 114.74,139.8539 141,161.4989 C153.95,172.1739 168.34,183.6139 181.175,193.6689 " fill="none" id="Cameras-RPI" style="stroke:#A80036;stroke-width:0.5;"/><!--MD5=[738bdf1011746a1c073c591ef970d801]
reverse link Speakers to RPI--><path codeLine="159" d="M46.145,153.9039 C81.95,162.9939 149.895,180.9189 172.5,191.4989 C175.38,192.8439 178.28,194.3589 181.15,195.9789 " fill="none" id="Speakers-backto-RPI" style="stroke:#A80036;stroke-width:0.5;"/><polygon fill="#A80036" points="43.62,153.2639,47.49,156.309,46.0432,153.8786,48.4736,152.4318,43.62,153.2639" style="stroke:#A80036;stroke-width:0.5;"/><!--MD5=[9d6d2f6c2f4d2fc3bb3ff0dee1317c54]
link SSB to RPI--><path codeLine="160" d="M299.5,159.8489 C287.795,168.9039 271.01,181.8839 255.755,193.6839 " fill="none" id="SSB-RPI" style="stroke:#A80036;stroke-width:0.5;"/><!--MD5=[ba43404d2398351bd02a197b89c6dc04]
link Iridium to RPI--><path codeLine="161" d="M368.15,99.8889 C367.905,114.5389 365.405,143.4489 350.5,161.4989 C326.55,190.5039 285.765,206.4089 255.85,214.6389 " fill="none" id="Iridium-RPI" style="stroke:#A80036;stroke-width:0.5;"/><!--MD5=[72d1981d7f6e9ae87e7ce2d696ef1c70]
link RPI to Other_Sensors--><path codeLine="162" d="M255.845,237.1389 C298.375,252.6789 368.01,278.1139 414.78,295.1989 " fill="none" id="RPI-Other_Sensors" style="stroke:#A80036;stroke-width:0.5;"/><!--MD5=[abd7622213c1ceda57fd7e6c8ce2488a]
link WiFi_Local to RPI--><path codeLine="163" d="M192.345,159.8489 C195.885,168.3339 200.865,180.2639 205.535,191.4389 " fill="none" id="WiFi_Local-RPI" style="stroke:#A80036;stroke-width:0.5;"/><!--MD5=[9befc12befc76c6c24a0e27f7270b253]
link Keyboard_Mouse to RPI--><path codeLine="164" d="M243.96,161.5239 C240.475,169.8639 235.83,180.9939 231.46,191.4589 " fill="none" id="Keyboard_Mouse-RPI" style="stroke:#A80036;stroke-width:0.5;"/><!--MD5=[a15dace8b9997a4e161f7e6bb21c3756]
link SmartPhone to WiFi_Local--><path codeLine="166" d="M216.875,104.1389 C210.34,113.7339 201.625,126.5239 195.385,135.6739 " fill="none" id="SmartPhone-WiFi_Local" style="stroke:#A80036;stroke-width:0.5;"/><!--MD5=[f06790075d9412e28e90e4ac15acc0e3]
link Eth_Hub to Router--><path codeLine="168" d="M456.36,147.7489 C462.09,147.7489 467.815,147.7489 473.545,147.7489 " fill="none" id="Eth_Hub-Router" style="stroke:#A80036;stroke-width:0.5;"/><!--MD5=[4e13fc5b7ed4d5c8bb5a843a2b474eca]
link Eth_Hub to Radar--><path codeLine="169" d="M419.095,159.8489 C411.39,173.7989 398.545,197.0639 390.86,210.9789 " fill="none" id="Eth_Hub-Radar" style="stroke:#A80036;stroke-width:0.5;"/><!--MD5=[0ff0ce0d78f63490cbe2abe10619b3e8]
link Eth_Hub to NAS--><path codeLine="170" d="M431.905,159.8489 C437.265,169.5589 445.12,183.7789 451.985,196.2189 " fill="none" id="Eth_Hub-NAS" style="stroke:#A80036;stroke-width:0.5;"/><!--MD5=[fdba92f7cd499ccd998d05999f71f6ae]
link Dish_Router to Eth_Hub--><path codeLine="171" d="M438.855,104.1389 C435.88,113.7339 431.92,126.5239 429.085,135.6739 " fill="none" id="Dish_Router-Eth_Hub" style="stroke:#A80036;stroke-width:0.5;"/><!--MD5=[fbe332a3304dc4c8c3dfaece74a779f6]
link USB_Hub to SDR--><path codeLine="173" d="M313.6,325.6439 C326.56,341.3689 349.515,369.2189 362.45,384.9139 " fill="none" id="USB_Hub-SDR" style="stroke:#A80036;stroke-width:0.5;"/><!--MD5=[4ba09ff32a53e36c5fb85e6eec1de587]
link USB_Hub to Weather--><path codeLine="174" d="M303.79,325.6439 C303.535,339.4589 303.115,362.6339 302.825,378.6989 " fill="none" id="USB_Hub-Weather" style="stroke:#A80036;stroke-width:0.5;"/><!--MD5=[2a0b371ec03d2c21e471fa956f48a495]
link Other_Sensors to AC--><path codeLine="176" d="M489.345,342.6239 C502.46,357.1439 517.66,373.9739 527.53,384.9039 " fill="none" id="Other_Sensors-AC" style="stroke:#A80036;stroke-width:0.5;"/><!--MD5=[cbb222f50bcb791e9720287055fe13dd]
link Other_Sensors to Fridge--><path codeLine="177" d="M454.48,342.6239 C449.905,357.1439 444.6,373.9739 441.155,384.9039 " fill="none" id="Other_Sensors-Fridge" style="stroke:#A80036;stroke-width:0.5;"/><!--MD5=[34fb354fd358eec4f50dfb68a8befd0d]
link Other_Sensors to Lights--><path codeLine="178" d="M472.695,342.6239 C477.715,358.2589 483.6,376.5739 487.05,387.3189 " fill="none" id="Other_Sensors-Lights" style="stroke:#A80036;stroke-width:0.5;"/><!--MD5=[f4051e061112c5a67383a685ff83d16a]
link NMEA_Mux to NMEA_0183--><path codeLine="180" d="M218.5,331.8989 C218.5,343.7489 218.5,359.4289 218.5,372.3689 " fill="none" id="NMEA_Mux-NMEA_0183" style="stroke:#A80036;stroke-width:0.5;"/><!--MD5=[993848724ee1e0bda2efd2c10d093eb0]
link NMEA_Mux to AP--><path codeLine="181" d="M201.465,331.8989 C185.235,348.9589 161.44,373.9689 148.745,387.3089 " fill="none" id="NMEA_Mux-AP" style="stroke:#A80036;stroke-width:0.5;"/><!--MD5=[090045518a7210d3fe050bd4b1b61143]
link Cloud_Internet to Dish_Router--><path codeLine="183" d="M443,46.5139 C443,56.3139 443,67.8039 443,76.4739 " fill="none" id="Cloud_Internet-Dish_Router" style="stroke:#A80036;stroke-width:0.5;"/><!--MD5=[0417bd4aebf7681efb342db5775863ca]
link Cloud_Internet to Router--><path codeLine="184" d="M461.185,46.5339 C468.455,55.3239 476.505,65.9939 482.5,76.4989 C493.7,96.1289 502.235,121.2089 506.65,135.6289 " fill="none" id="Cloud_Internet-Router" style="stroke:#A80036;stroke-width:0.5;"/><!--MD5=[6d4697dd1a4fa0e14865453f969898e5]
link Cloud_Internet to Iridium--><path codeLine="185" d="M419.065,46.5139 C405.515,57.9839 389.24,71.7639 378.765,80.6339 " fill="none" id="Cloud_Internet-Iridium" style="stroke:#A80036;stroke-width:0.5;"/><!--MD5=[f7c22a6020875df2ba44dffafefaebb5]
link Skipper to Touchscreen--><path codeLine="187" d="M213.905,35.0789 C198.495,46.3239 171.835,65.7839 154.825,78.1989 " fill="none" id="Skipper-Touchscreen" style="stroke:#A80036;stroke-width:0.5;"/><!--MD5=[180a6a48d329b5088bf365124668f177]
link Skipper to Speakers--><path codeLine="188" d="M213.95,27.5739 C175.285,32.0939 55.445,48.1839 31,76.4989 C15.99,93.8889 18.83,123.3589 21.51,138.1739 " fill="none" id="Skipper-Speakers" style="stroke:#A80036;stroke-width:0.5;"/><!--MD5=[b5f99795dccb66293530d697261f575d]
link Skipper to Cameras--><path codeLine="189" d="M213.955,30.1739 C189.665,38.1789 133.195,57.2689 87,76.4989 C83.87,77.7989 80.59,79.2639 77.415,80.7289 " fill="none" id="Skipper-Cameras" style="stroke:#A80036;stroke-width:0.5;"/><!--MD5=[4d7243369b38bcf5d3d8f8df86a5cab3]
link Skipper to Iridium--><path codeLine="190" d="M238.105,31.6639 C262.52,42.5789 317.875,67.3339 347.835,80.7289 " fill="none" id="Skipper-Iridium" style="stroke:#A80036;stroke-width:0.5;"/><!--MD5=[c0261e63bc2c3c7d09c0762b33b29a4a]
link Skipper to SSB--><path codeLine="191" d="M238.205,37.0389 C248.725,46.7239 263.925,61.6539 275,76.4989 C289.47,95.8939 302.325,121.1639 309.205,135.6589 " fill="none" id="Skipper-SSB" style="stroke:#A80036;stroke-width:0.5;"/><!--MD5=[7055ac5873383501a6665c2abfcc17ee]
link Skipper to SmartPhone--><path codeLine="192" d="M226,46.5139 C226,56.3139 226,67.8039 226,76.4739 " fill="none" id="Skipper-SmartPhone" style="stroke:#A80036;stroke-width:0.5;"/><!--MD5=[9e619f9f7e27f8b7daf8036513ac83ac]
link Skipper to Keyboard_Mouse--><path codeLine="193" d="M238.125,38.8989 C246.35,48.4039 256.51,62.1989 261,76.4989 C267.115,95.9689 260.675,119.5289 255.255,133.9489 " fill="none" id="Skipper-Keyboard_Mouse" style="stroke:#A80036;stroke-width:0.5;"/><!--MD5=[d423d8bf0ffe994a287b8ddc4c4a1613]
@startuml

actor Skipper [
 Skipper
]

node RPI [
 <b>Rpi4, BBN OS
 - - - -
 Local WiFi
 CanBus Interface
 Sound Card
 SSD
]

rectangle GPS [
 GPS USB
]

rectangle IMU [
 IMU
 - - - -
 compass, gyro, accel
]

rectangle NMEA_2000 [
 <b>NMEA2000 Bus
 - - - -
 engine sensors,
 fishfinder, sonar,
 etc
]

node NMEA_Mux [
 NMEA Multiplexer
 - - - -
 bidirectional Seatalk1
]

rectangle NMEA_0183 [
 <b>NMEA 0183 Devices
 - - - -
 AIS transducer/receiver
 GPS, VHF, compass
 Wind, Depth, Speed
]

rectangle AP [
 Autopilot
]

node Eth_Hub [
 Ethernet Hub
]

node USB_Hub [
 USB Hub
]

node Router [
 LTE/WiFi Router
]

rectangle Dish_Router [
 StarLink Router,
 Dish
]

node Radar [
 Radar
]

node Touchscreen [
 <b>HDMI Touchscreen
]

rectangle Speakers [
 Speakers
]

rectangle Cameras [
 Cameras
]

node SDR [
 SDR Radio
]

node SSB [
 SSB Radio
]

cloud WiFi_Local [
 Local WiFi
]

rectangle Iridium [
 Iridium Phone
]

rectangle Other_Sensors [
 Other_Sensors
 - - - -
 IoT, 1w, i2c, etc
 battery/chargers monitoring
 fluid levels
 env temp/pressure/humid
]

node AC [
 A/C
]

node Fridge [
 Fridge
]

rectangle Lights [
 Lights
]

rectangle Keyboard_Mouse [
 Keyboard
 Mouse
]

rectangle Weather [
 NavTex
 WeatherFax
 Barograph
]

rectangle SmartPhone [
 SmartPhones
 Tablets
]

database NAS [
 NAS
 - - - -
 Audio/Video Lib
 Charts, Backups, Tracks,
 Time Series Data, etc
]

cloud Cloud_Internet [
 <b>Internet
 Cloud Storage
 Cloud Services
]

RPI - - GPS
RPI -l- IMU
RPI - - NMEA_2000
RPI - - NMEA_Mux
RPI -u- Eth_Hub
RPI - - USB_Hub
RPI -u- Touchscreen
RPI -u- Cameras
RPI -u-> Speakers
RPI -u- SSB
RPI -u- Iridium
RPI - - Other_Sensors
RPI -u- WiFi_Local
RPI -u- Keyboard_Mouse

SmartPhone - - WiFi_Local

Eth_Hub -r- Router
Eth_Hub - - Radar
Eth_Hub - - NAS
Eth_Hub -u- Dish_Router

USB_Hub - - SDR
USB_Hub - - Weather

Other_Sensors - - AC
Other_Sensors - - Fridge
Other_Sensors - - Lights

NMEA_Mux - - NMEA_0183
NMEA_Mux - - AP

Cloud_Internet - - Dish_Router
Cloud_Internet - - Router
Cloud_Internet - - Iridium

Skipper - - Touchscreen
Skipper - - Speakers
Skipper - - Cameras
Skipper - - Iridium
Skipper - - SSB
Skipper - - SmartPhone
Skipper - - Keyboard_Mouse

@enduml

PlantUML version 1.2021.00(Sun Jan 10 05:25:05 EST 2021)
(GPL source distribution)
Java Runtime: OpenJDK Runtime Environment
JVM: OpenJDK 64-Bit Server VM
Default Encoding: Cp1252
Language: en
Country: US
--></g></svg>