<?xml version="1.0" encoding="UTF-8" standalone="no"?><svg xmlns="http://www.w3.org/2000/svg" xmlns:xlink="http://www.w3.org/1999/xlink" contentScriptType="application/ecmascript" contentStyleType="text/css" height="759.75px" preserveAspectRatio="none" style="width:1139px;height:759px;" version="1.1" viewBox="0 0 1139 759" width="1139.25px" zoomAndPan="magnify"><defs><filter height="300%" id="f1prw6xumhlc3q" width="300%" x="-1" y="-1"><feGaussianBlur result="blurOut" stdDeviation="1.5"/><feColorMatrix in="blurOut" result="blurOut2" type="matrix" values="0 0 0 0 0 0 0 0 0 0 0 0 0 0 0 0 0 0 .4 0"/><feOffset dx="3.0" dy="3.0" in="blurOut2" result="blurOut3"/><feBlend in="SourceGraphic" in2="blurOut3" mode="normal"/></filter></defs><g><!--MD5=[f50827fad462c3f51a79aa3f1564e3ff]
entity Skipper--><ellipse cx="400.17" cy="14.6233" fill="#FEFECE" filter="url(#f1prw6xumhlc3q)" rx="6" ry="6" style="stroke:#A80036;stroke-width:1.125;"/><path d="M400.17,20.6233 L400.17,40.8733 M390.42,26.6233 L409.92,26.6233 M400.17,40.8733 L390.42,52.1233 M400.17,40.8733 L409.92,52.1233 " fill="none" filter="url(#f1prw6xumhlc3q)" style="stroke:#A80036;stroke-width:1.125;"/><text fill="#000000" font-family="sans-serif" font-size="10.5" lengthAdjust="spacing" textLength="36" x="382.17" y="67.1482">Skipper</text><!--MD5=[56bb6c3bc4df8cdefb957cc5b3ef3a7e]
entity RPI--><polygon fill="#98FB98" filter="url(#f1prw6xumhlc3q)" points="392.295,353.2483,399.795,345.7483,504.045,345.7483,504.045,432.7835,496.545,440.2835,392.295,440.2835,392.295,353.2483" style="stroke:#000000;stroke-width:1.125;"/><line style="stroke:#000000;stroke-width:1.125;" x1="496.545" x2="504.045" y1="353.2483" y2="345.7483"/><line style="stroke:#000000;stroke-width:1.125;" x1="392.295" x2="496.545" y1="353.2483" y2="353.2483"/><line style="stroke:#000000;stroke-width:1.125;" x1="496.545" x2="496.545" y1="353.2483" y2="440.2835"/><text fill="#000000" font-family="sans-serif" font-size="10.5" font-weight="bold" lengthAdjust="spacing" textLength="69.75" x="403.545" y="371.6482">Rpi4, BBN OS</text><line style="stroke:#000000;stroke-width:0.75;" x1="392.295" x2="496.545" y1="373.9553" y2="373.9553"/><line style="stroke:#000000;stroke-width:0.75;" x1="496.545" x2="504.045" y1="373.9553" y2="366.4553"/><text fill="#000000" font-family="sans-serif" font-size="10.5" lengthAdjust="spacing" textLength="49.5" x="403.545" y="387.8552">Local WiFi</text><text fill="#000000" font-family="sans-serif" font-size="10.5" lengthAdjust="spacing" textLength="81.75" x="403.545" y="401.0623">CanBus Interface</text><text fill="#000000" font-family="sans-serif" font-size="10.5" lengthAdjust="spacing" textLength="57" x="403.545" y="414.2693">Sound Card</text><text fill="#000000" font-family="sans-serif" font-size="10.5" lengthAdjust="spacing" textLength="21" x="403.545" y="427.4763">SSD</text><!--MD5=[cd1d357e028b96f42ee72ab526715f53]
entity GPS--><rect fill="#FEFECE" filter="url(#f1prw6xumhlc3q)" height="28.207" style="stroke:#000000;stroke-width:1.125;" width="60" x="275.67" y="547.1233"/><text fill="#000000" font-family="sans-serif" font-size="10.5" lengthAdjust="spacing" textLength="45" x="283.17" y="565.5232">GPS USB</text><!--MD5=[ae8265c62b5fdfc486198cf91618d43d]
entity IMU--><rect fill="#FEFECE" filter="url(#f1prw6xumhlc3q)" height="47.4141" style="stroke:#000000;stroke-width:1.125;" width="114.75" x="251.295" y="369.3733"/><text fill="#000000" font-family="sans-serif" font-size="10.5" lengthAdjust="spacing" textLength="17.25" x="258.795" y="387.7732">IMU</text><line style="stroke:#000000;stroke-width:0.75;" x1="252.045" x2="365.295" y1="390.0803" y2="390.0803"/><text fill="#000000" font-family="sans-serif" font-size="10.5" lengthAdjust="spacing" textLength="99.75" x="258.795" y="403.9802">compass, gyro, accel</text><!--MD5=[b17a41457b887f0466e22bd7e05c4601]
entity NMEA_2000--><rect fill="#FEFECE" filter="url(#f1prw6xumhlc3q)" height="73.8281" style="stroke:#000000;stroke-width:1.125;" width="94.5" x="56.67" y="524.6233"/><text fill="#000000" font-family="sans-serif" font-size="10.5" font-weight="bold" lengthAdjust="spacing" textLength="78" x="64.17" y="543.0232">NMEA2000 Bus</text><line style="stroke:#000000;stroke-width:0.75;" x1="57.42" x2="150.42" y1="545.3303" y2="545.3303"/><text fill="#000000" font-family="sans-serif" font-size="10.5" lengthAdjust="spacing" textLength="75.75" x="64.17" y="559.2302">engine sensors,</text><text fill="#000000" font-family="sans-serif" font-size="10.5" lengthAdjust="spacing" textLength="79.5" x="64.17" y="572.4373">fishfinder, sonar,</text><text fill="#000000" font-family="sans-serif" font-size="10.5" lengthAdjust="spacing" textLength="14.25" x="64.17" y="585.6443">etc</text><!--MD5=[6eed89ef60fd1dd7e5ad5481c6afc096]
entity NMEA_Mux--><polygon fill="#FEFECE" filter="url(#f1prw6xumhlc3q)" points="662.295,541.4983,669.795,533.9983,793.545,533.9983,793.545,581.4124,786.045,588.9124,662.295,588.9124,662.295,541.4983" style="stroke:#000000;stroke-width:1.125;"/><line style="stroke:#000000;stroke-width:1.125;" x1="786.045" x2="793.545" y1="541.4983" y2="533.9983"/><line style="stroke:#000000;stroke-width:1.125;" x1="662.295" x2="786.045" y1="541.4983" y2="541.4983"/><line style="stroke:#000000;stroke-width:1.125;" x1="786.045" x2="786.045" y1="541.4983" y2="588.9124"/><text fill="#000000" font-family="sans-serif" font-size="10.5" lengthAdjust="spacing" textLength="81.75" x="673.545" y="559.8982">NMEA Multiplexer</text><line style="stroke:#000000;stroke-width:0.75;" x1="662.295" x2="786.045" y1="562.2053" y2="562.2053"/><line style="stroke:#000000;stroke-width:0.75;" x1="786.045" x2="793.545" y1="562.2053" y2="554.7053"/><text fill="#000000" font-family="sans-serif" font-size="10.5" lengthAdjust="spacing" textLength="101.25" x="673.545" y="576.1052">bidirectional Seatalk1</text><!--MD5=[1eaf4d2f8be208adf81d4b0ad8be7432]
entity NMEA_0183--><rect fill="#FEFECE" filter="url(#f1prw6xumhlc3q)" height="73.8281" style="stroke:#000000;stroke-width:1.125;" width="126" x="664.92" y="673.4983"/><text fill="#000000" font-family="sans-serif" font-size="10.5" font-weight="bold" lengthAdjust="spacing" textLength="103.5" x="672.42" y="691.8982">NMEA 0183 Devices</text><line style="stroke:#000000;stroke-width:0.75;" x1="665.67" x2="790.17" y1="694.2053" y2="694.2053"/><text fill="#000000" font-family="sans-serif" font-size="10.5" lengthAdjust="spacing" textLength="111" x="672.42" y="708.1052">AIS transducer/receiver</text><text fill="#000000" font-family="sans-serif" font-size="10.5" lengthAdjust="spacing" textLength="96" x="672.42" y="721.3123">GPS, VHF, compass</text><text fill="#000000" font-family="sans-serif" font-size="10.5" lengthAdjust="spacing" textLength="95.25" x="672.42" y="734.5193">Wind, Depth, Speed</text><!--MD5=[31e3ec59327e273962ce661ad70afaa5]
entity AP--><rect fill="#FEFECE" filter="url(#f1prw6xumhlc3q)" height="28.207" style="stroke:#000000;stroke-width:1.125;" width="56.25" x="817.545" y="695.9983"/><text fill="#000000" font-family="sans-serif" font-size="10.5" lengthAdjust="spacing" textLength="41.25" x="825.045" y="714.3982">Autopilot</text><!--MD5=[547615c2c8915297a73af811d5dbf318]
entity Eth_Hub--><polygon fill="#FEFECE" filter="url(#f1prw6xumhlc3q)" points="823.545,233.9983,831.045,226.4983,915.795,226.4983,915.795,254.7053,908.295,262.2053,823.545,262.2053,823.545,233.9983" style="stroke:#000000;stroke-width:1.125;"/><line style="stroke:#000000;stroke-width:1.125;" x1="908.295" x2="915.795" y1="233.9983" y2="226.4983"/><line style="stroke:#000000;stroke-width:1.125;" x1="823.545" x2="908.295" y1="233.9983" y2="233.9983"/><line style="stroke:#000000;stroke-width:1.125;" x1="908.295" x2="908.295" y1="233.9983" y2="262.2053"/><text fill="#000000" font-family="sans-serif" font-size="10.5" lengthAdjust="spacing" textLength="62.25" x="834.795" y="252.3982">Ethernet Hub</text><!--MD5=[7968f28c13df0538bc57173754511f0e]
entity USB_Hub--><polygon fill="#FEFECE" filter="url(#f1prw6xumhlc3q)" points="177.42,550.8733,184.92,543.3733,249.42,543.3733,249.42,571.5803,241.92,579.0803,177.42,579.0803,177.42,550.8733" style="stroke:#000000;stroke-width:1.125;"/><line style="stroke:#000000;stroke-width:1.125;" x1="241.92" x2="249.42" y1="550.8733" y2="543.3733"/><line style="stroke:#000000;stroke-width:1.125;" x1="177.42" x2="241.92" y1="550.8733" y2="550.8733"/><line style="stroke:#000000;stroke-width:1.125;" x1="241.92" x2="241.92" y1="550.8733" y2="579.0803"/><text fill="#000000" font-family="sans-serif" font-size="10.5" lengthAdjust="spacing" textLength="42" x="188.67" y="569.2732">USB Hub</text><!--MD5=[953a8c67cfe21abaf9bf45dad8506ca8]
entity Router--><polygon fill="#FEFECE" filter="url(#f1prw6xumhlc3q)" points="942.045,233.9983,949.545,226.4983,1050.795,226.4983,1050.795,254.7053,1043.295,262.2053,942.045,262.2053,942.045,233.9983" style="stroke:#000000;stroke-width:1.125;"/><line style="stroke:#000000;stroke-width:1.125;" x1="1043.295" x2="1050.795" y1="233.9983" y2="226.4983"/><line style="stroke:#000000;stroke-width:1.125;" x1="942.045" x2="1043.295" y1="233.9983" y2="233.9983"/><line style="stroke:#000000;stroke-width:1.125;" x1="1043.295" x2="1043.295" y1="233.9983" y2="262.2053"/><text fill="#000000" font-family="sans-serif" font-size="10.5" lengthAdjust="spacing" textLength="78.75" x="953.295" y="252.3982">LTE/WiFi Router</text><!--MD5=[4c7a5f0f4d710d941c4df063500e34ba]
entity Dish_Router--><rect fill="#FEFECE" filter="url(#f1prw6xumhlc3q)" height="41.4141" style="stroke:#000000;stroke-width:1.125;" width="92.25" x="864.045" y="114.7483"/><text fill="#000000" font-family="sans-serif" font-size="10.5" lengthAdjust="spacing" textLength="77.25" x="871.545" y="133.1482">StarLink Router,</text><text fill="#000000" font-family="sans-serif" font-size="10.5" lengthAdjust="spacing" textLength="21" x="871.545" y="146.3552">Dish</text><!--MD5=[af2495f9a90a9f78578178908d6e69bd]
entity Radar--><polygon fill="#FEFECE" filter="url(#f1prw6xumhlc3q)" points="901.545,382.4983,909.045,374.9983,960.795,374.9983,960.795,403.2053,953.295,410.7053,901.545,410.7053,901.545,382.4983" style="stroke:#000000;stroke-width:1.125;"/><line style="stroke:#000000;stroke-width:1.125;" x1="953.295" x2="960.795" y1="382.4983" y2="374.9983"/><line style="stroke:#000000;stroke-width:1.125;" x1="901.545" x2="953.295" y1="382.4983" y2="382.4983"/><line style="stroke:#000000;stroke-width:1.125;" x1="953.295" x2="953.295" y1="382.4983" y2="410.7053"/><text fill="#000000" font-family="sans-serif" font-size="10.5" lengthAdjust="spacing" textLength="29.25" x="912.795" y="400.8982">Radar</text><!--MD5=[330778c508571bc43f7e5523a03ca602]
entity Touchscreen--><polygon fill="#FEFECE" filter="url(#f1prw6xumhlc3q)" points="255.795,233.9983,263.295,226.4983,385.545,226.4983,385.545,254.7053,378.045,262.2053,255.795,262.2053,255.795,233.9983" style="stroke:#000000;stroke-width:1.125;"/><line style="stroke:#000000;stroke-width:1.125;" x1="378.045" x2="385.545" y1="233.9983" y2="226.4983"/><line style="stroke:#000000;stroke-width:1.125;" x1="255.795" x2="378.045" y1="233.9983" y2="233.9983"/><line style="stroke:#000000;stroke-width:1.125;" x1="378.045" x2="378.045" y1="233.9983" y2="262.2053"/><text fill="#000000" font-family="sans-serif" font-size="10.5" font-weight="bold" lengthAdjust="spacing" textLength="99.75" x="267.045" y="252.3982">HDMI Touchscreen</text><!--MD5=[4c50005c0fadedfb0a14f6d1969de37e]
entity Speakers--><rect fill="#FEFECE" filter="url(#f1prw6xumhlc3q)" height="28.207" style="stroke:#000000;stroke-width:1.125;" width="60" x="52.92" y="230.2483"/><text fill="#000000" font-family="sans-serif" font-size="10.5" lengthAdjust="spacing" textLength="45" x="60.42" y="248.6482">Speakers</text><!--MD5=[cf5c42a4fc4011dea04a3daf6c677d92]
entity Mic--><rect fill="#FEFECE" filter="url(#f1prw6xumhlc3q)" height="28.207" style="stroke:#000000;stroke-width:1.125;" width="70.5" x="30.42" y="121.1233"/><text fill="#000000" font-family="sans-serif" font-size="10.5" lengthAdjust="spacing" textLength="55.5" x="37.92" y="139.5232">Microphone</text><!--MD5=[1b76df3a4bd008a21abb34082ebb9919]
entity Cameras--><rect fill="#FEFECE" filter="url(#f1prw6xumhlc3q)" height="87.0352" style="stroke:#000000;stroke-width:1.125;" width="90" x="139.17" y="200.9983"/><text fill="#000000" font-family="sans-serif" font-size="10.5" lengthAdjust="spacing" textLength="42.75" x="146.67" y="219.3982">Cameras</text><line style="stroke:#000000;stroke-width:0.75;" x1="139.92" x2="228.42" y1="221.7053" y2="221.7053"/><text fill="#000000" font-family="sans-serif" font-size="10.5" lengthAdjust="spacing" textLength="75" x="146.67" y="235.6052">WebCam, Mast,</text><text fill="#000000" font-family="sans-serif" font-size="10.5" lengthAdjust="spacing" textLength="60" x="146.67" y="248.8123">Night (FLIR),</text><text fill="#000000" font-family="sans-serif" font-size="10.5" lengthAdjust="spacing" textLength="70.5" x="146.67" y="262.0193">low light vision,</text><text fill="#000000" font-family="sans-serif" font-size="10.5" lengthAdjust="spacing" textLength="72" x="146.67" y="275.2263">IP, docking, etc</text><!--MD5=[d92e9b93d5ce4574427d5f042afd2321]
entity SDR--><polygon fill="#FEFECE" filter="url(#f1prw6xumhlc3q)" points="67.92,699.7483,75.42,692.2483,150.42,692.2483,150.42,720.4553,142.92,727.9553,67.92,727.9553,67.92,699.7483" style="stroke:#000000;stroke-width:1.125;"/><line style="stroke:#000000;stroke-width:1.125;" x1="142.92" x2="150.42" y1="699.7483" y2="692.2483"/><line style="stroke:#000000;stroke-width:1.125;" x1="67.92" x2="142.92" y1="699.7483" y2="699.7483"/><line style="stroke:#000000;stroke-width:1.125;" x1="142.92" x2="142.92" y1="699.7483" y2="727.9553"/><text fill="#000000" font-family="sans-serif" font-size="10.5" lengthAdjust="spacing" textLength="52.5" x="79.17" y="718.1482">SDR Radio</text><!--MD5=[6ba27cb6ab6c98fb8258247a8e3f62be]
entity SSB--><polygon fill="#FEFECE" filter="url(#f1prw6xumhlc3q)" points="563.67,233.9983,571.17,226.4983,644.67,226.4983,644.67,254.7053,637.17,262.2053,563.67,262.2053,563.67,233.9983" style="stroke:#000000;stroke-width:1.125;"/><line style="stroke:#000000;stroke-width:1.125;" x1="637.17" x2="644.67" y1="233.9983" y2="226.4983"/><line style="stroke:#000000;stroke-width:1.125;" x1="563.67" x2="637.17" y1="233.9983" y2="233.9983"/><line style="stroke:#000000;stroke-width:1.125;" x1="637.17" x2="637.17" y1="233.9983" y2="262.2053"/><text fill="#000000" font-family="sans-serif" font-size="10.5" lengthAdjust="spacing" textLength="51" x="574.92" y="252.3982">SSB Radio</text><!--MD5=[dd29c4e1cef6fbff2e61a9551f8f2bf2]
entity WiFi_Local--><path d="M419.4526,232.7166 C422.184,227.9445 425.4821,227.9705 429.1195,231.6845 C431.6837,226.2549 436.0258,226.2143 439.4343,230.8163 C441.3952,225.8043 444.5092,225.349 448.4945,228.5954 C452.5737,223.7166 457.1294,224.7057 459.5711,230.3234 C463.9545,226.6622 467.0555,227.7708 469.3794,232.6803 C471.7746,228.1703 476.2813,228.6127 478.6676,232.6898 C486.1057,233.7525 488.991,238.0598 484.3632,244.7981 C487.9475,250.6249 487.1156,256.4167 478.9917,257.1533 C476.6662,262.3564 473.8666,263.7494 469.4308,259.2282 C466.942,264.062 462.6813,265.329 458.6919,260.9838 C456.5315,265.3768 453.5251,267.1244 449.6328,262.7792 C445.3874,267.8468 440.5835,267.1492 438.2763,260.8438 C433.8155,264.0104 430.8967,263.6134 429.0784,258.0573 C425.2815,262.3942 421.2308,262.7996 418.7382,256.7578 C411.6418,254.9743 410.7585,251.4323 414.9979,245.7848 C409.6457,240.162 412.2879,234.0726 419.4526,232.7166 " fill="#FEFECE" filter="url(#f1prw6xumhlc3q)" style="stroke:#000000;stroke-width:1.125;"/><text fill="#000000" font-family="sans-serif" font-size="10.5" lengthAdjust="spacing" textLength="49.5" x="423.42" y="248.6482">Local WiFi</text><!--MD5=[82bbb9a7a666b856fa28a649fd3171aa]
entity Iridium--><rect fill="#FEFECE" filter="url(#f1prw6xumhlc3q)" height="28.207" style="stroke:#000000;stroke-width:1.125;" width="79.5" x="606.42" y="121.1233"/><text fill="#000000" font-family="sans-serif" font-size="10.5" lengthAdjust="spacing" textLength="64.5" x="613.92" y="139.5232">Iridium Phone</text><!--MD5=[8f0c441f12fb738c5e80b28ccd1b0a87]
entity Other_Sensors--><rect fill="#FEFECE" filter="url(#f1prw6xumhlc3q)" height="126.6563" style="stroke:#000000;stroke-width:1.125;" width="172.5" x="361.92" y="497.9983"/><text fill="#000000" font-family="sans-serif" font-size="10.5" lengthAdjust="spacing" textLength="72" x="369.42" y="516.3982">Other_Sensors</text><line style="stroke:#000000;stroke-width:0.75;" x1="362.67" x2="533.67" y1="518.7053" y2="518.7053"/><text fill="#000000" font-family="sans-serif" font-size="10.5" lengthAdjust="spacing" textLength="73.5" x="369.42" y="532.6052">IoT, 1w, i2c, etc</text><text fill="#000000" font-family="sans-serif" font-size="10.5" lengthAdjust="spacing" textLength="93.75" x="369.42" y="545.8123">batteries monitoring</text><text fill="#000000" font-family="sans-serif" font-size="10.5" lengthAdjust="spacing" textLength="157.5" x="369.42" y="559.0193">chargers (wind, solar, diesel gen)</text><text fill="#000000" font-family="sans-serif" font-size="10.5" lengthAdjust="spacing" textLength="49.5" x="369.42" y="572.2263">fluid levels</text><text fill="#000000" font-family="sans-serif" font-size="10.5" lengthAdjust="spacing" textLength="120" x="369.42" y="585.4334">env temp/pressure/humid</text><text fill="#000000" font-family="sans-serif" font-size="10.5" lengthAdjust="spacing" textLength="123" x="369.42" y="598.6404">dangerous gases sensors</text><text fill="#000000" font-family="sans-serif" font-size="10.5" lengthAdjust="spacing" textLength="108.75" x="369.42" y="611.8474">lightning strike sensors</text><!--MD5=[869fbf9b9ca9ac4bdf61f7068ab1ff9c]
entity Remote_Desktop--><rect fill="#FEFECE" filter="url(#f1prw6xumhlc3q)" height="28.207" style="stroke:#000000;stroke-width:1.125;" width="125.25" x="712.545" y="121.1233"/><text fill="#000000" font-family="sans-serif" font-size="10.5" lengthAdjust="spacing" textLength="110.25" x="720.045" y="139.5232">Remote Desktop (VNC)</text><!--MD5=[0313ddc4f8ed0f4991a51edae0b1647c]
entity AC--><polygon fill="#FEFECE" filter="url(#f1prw6xumhlc3q)" points="560.67,544.4983,568.17,536.9983,622.17,536.9983,622.17,578.4124,614.67,585.9124,560.67,585.9124,560.67,544.4983" style="stroke:#000000;stroke-width:1.125;"/><line style="stroke:#000000;stroke-width:1.125;" x1="614.67" x2="622.17" y1="544.4983" y2="536.9983"/><line style="stroke:#000000;stroke-width:1.125;" x1="560.67" x2="614.67" y1="544.4983" y2="544.4983"/><line style="stroke:#000000;stroke-width:1.125;" x1="614.67" x2="614.67" y1="544.4983" y2="585.9124"/><text fill="#000000" font-family="sans-serif" font-size="10.5" lengthAdjust="spacing" textLength="17.25" x="571.92" y="562.8982">A/C</text><text fill="#000000" font-family="sans-serif" font-size="10.5" lengthAdjust="spacing" textLength="31.5" x="571.92" y="576.1052">Heater</text><!--MD5=[cec077422889c5d3cb551e1217c37df7]
entity Pumps--><polygon fill="#FEFECE" filter="url(#f1prw6xumhlc3q)" points="276.045,677.2483,283.545,669.7483,365.295,669.7483,365.295,743.5764,357.795,751.0764,276.045,751.0764,276.045,677.2483" style="stroke:#000000;stroke-width:1.125;"/><line style="stroke:#000000;stroke-width:1.125;" x1="357.795" x2="365.295" y1="677.2483" y2="669.7483"/><line style="stroke:#000000;stroke-width:1.125;" x1="276.045" x2="357.795" y1="677.2483" y2="677.2483"/><line style="stroke:#000000;stroke-width:1.125;" x1="357.795" x2="357.795" y1="677.2483" y2="751.0764"/><text fill="#000000" font-family="sans-serif" font-size="10.5" lengthAdjust="spacing" textLength="32.25" x="287.295" y="695.6482">Pumps</text><line style="stroke:#000000;stroke-width:0.75;" x1="276.045" x2="357.795" y1="697.9553" y2="697.9553"/><line style="stroke:#000000;stroke-width:0.75;" x1="357.795" x2="365.295" y1="697.9553" y2="690.4553"/><text fill="#000000" font-family="sans-serif" font-size="10.5" lengthAdjust="spacing" textLength="23.25" x="287.295" y="711.8552">Bilge</text><text fill="#000000" font-family="sans-serif" font-size="10.5" lengthAdjust="spacing" textLength="59.25" x="287.295" y="725.0623">Fresh Water</text><text fill="#000000" font-family="sans-serif" font-size="10.5" lengthAdjust="spacing" textLength="57" x="287.295" y="738.2693">Black Water</text><!--MD5=[c74dee767baeeec0e713c54a8a4634dc]
entity Fridge--><polygon fill="#FEFECE" filter="url(#f1prw6xumhlc3q)" points="391.545,686.6233,399.045,679.1233,479.295,679.1233,479.295,733.7444,471.795,741.2444,391.545,741.2444,391.545,686.6233" style="stroke:#000000;stroke-width:1.125;"/><line style="stroke:#000000;stroke-width:1.125;" x1="471.795" x2="479.295" y1="686.6233" y2="679.1233"/><line style="stroke:#000000;stroke-width:1.125;" x1="391.545" x2="471.795" y1="686.6233" y2="686.6233"/><line style="stroke:#000000;stroke-width:1.125;" x1="471.795" x2="471.795" y1="686.6233" y2="741.2444"/><text fill="#000000" font-family="sans-serif" font-size="10.5" lengthAdjust="spacing" textLength="30.75" x="402.795" y="705.0232">Fridge</text><text fill="#000000" font-family="sans-serif" font-size="10.5" lengthAdjust="spacing" textLength="57.75" x="402.795" y="718.2302">Watermaker</text><text fill="#000000" font-family="sans-serif" font-size="10.5" lengthAdjust="spacing" textLength="39.75" x="402.795" y="731.4373">Live well</text><!--MD5=[0b2190a355246a80d89d74c5c2c53ceb]
entity Lights_Fans--><rect fill="#FEFECE" filter="url(#f1prw6xumhlc3q)" height="81.0352" style="stroke:#000000;stroke-width:1.125;" width="132.75" x="505.545" y="669.7483"/><text fill="#000000" font-family="sans-serif" font-size="10.5" lengthAdjust="spacing" textLength="99" x="513.045" y="688.1482">Lights: (Nav, Anchor,</text><text fill="#000000" font-family="sans-serif" font-size="10.5" lengthAdjust="spacing" textLength="105" x="513.045" y="701.3552">Running, Mast, Cabin,</text><text fill="#000000" font-family="sans-serif" font-size="10.5" lengthAdjust="spacing" textLength="117.75" x="513.045" y="714.5623">Underwater, Search, etc)</text><text fill="#000000" font-family="sans-serif" font-size="10.5" lengthAdjust="spacing" textLength="24" x="513.045" y="727.7693">Fans</text><text fill="#000000" font-family="sans-serif" font-size="10.5" lengthAdjust="spacing" textLength="93.75" x="513.045" y="740.9763">Bilge/Engine Blower</text><!--MD5=[593e445c9278762cb4ef7b840df82fac]
entity Keyboard_Mouse--><rect fill="#FEFECE" filter="url(#f1prw6xumhlc3q)" height="41.4141" style="stroke:#000000;stroke-width:1.125;" width="60.75" x="465.795" y="114.7483"/><text fill="#000000" font-family="sans-serif" font-size="10.5" lengthAdjust="spacing" textLength="45.75" x="473.295" y="133.1482">Keyboard</text><text fill="#000000" font-family="sans-serif" font-size="10.5" lengthAdjust="spacing" textLength="31.5" x="473.295" y="146.3552">Mouse</text><!--MD5=[6068ed0baf2edbbb46a7f906664363da]
entity Weather--><rect fill="#FEFECE" filter="url(#f1prw6xumhlc3q)" height="54.6211" style="stroke:#000000;stroke-width:1.125;" width="72.75" x="177.045" y="682.8733"/><text fill="#000000" font-family="sans-serif" font-size="10.5" lengthAdjust="spacing" textLength="35.25" x="184.545" y="701.2732">NavTex</text><text fill="#000000" font-family="sans-serif" font-size="10.5" lengthAdjust="spacing" textLength="57.75" x="184.545" y="714.4802">WeatherFax</text><text fill="#000000" font-family="sans-serif" font-size="10.5" lengthAdjust="spacing" textLength="50.25" x="184.545" y="727.6873">Barograph</text><!--MD5=[0df37b53dbcc900899e095c990e30b8f]
entity SiriusXM--><rect fill="#FEFECE" filter="url(#f1prw6xumhlc3q)" height="28.207" style="stroke:#000000;stroke-width:1.125;" width="90.75" x="58.545" y="378.7483"/><text fill="#000000" font-family="sans-serif" font-size="10.5" lengthAdjust="spacing" textLength="75.75" x="66.045" y="397.1482">SiriusXM Marine</text><!--MD5=[d59b03f458f75ee04d94168ba7ec459b]
entity SmartPhone--><rect fill="#FEFECE" filter="url(#f1prw6xumhlc3q)" height="41.4141" style="stroke:#000000;stroke-width:1.125;" width="78.75" x="360.795" y="114.7483"/><text fill="#000000" font-family="sans-serif" font-size="10.5" lengthAdjust="spacing" textLength="63.75" x="368.295" y="133.1482">SmartPhones</text><text fill="#000000" font-family="sans-serif" font-size="10.5" lengthAdjust="spacing" textLength="35.25" x="368.295" y="146.3552">Tablets</text><!--MD5=[13e88d8e4422c8d855b54f0d2bc171be]
entity NAS--><path d="M741.045,340.4983 C741.045,332.9983 808.17,332.9983 808.17,332.9983 C808.17,332.9983 875.295,332.9983 875.295,340.4983 L875.295,445.6975 C875.295,453.1975 808.17,453.1975 808.17,453.1975 C808.17,453.1975 741.045,453.1975 741.045,445.6975 L741.045,340.4983 " fill="#FEFECE" filter="url(#f1prw6xumhlc3q)" style="stroke:#000000;stroke-width:1.125;"/><path d="M741.045,340.4983 C741.045,347.9983 808.17,347.9983 808.17,347.9983 C808.17,347.9983 875.295,347.9983 875.295,340.4983 " fill="none" style="stroke:#000000;stroke-width:1.125;"/><text fill="#000000" font-family="sans-serif" font-size="10.5" lengthAdjust="spacing" textLength="20.25" x="748.545" y="361.8982">NAS</text><path d="M741.045,360.4553 C741.045,367.9553 808.17,367.9553 808.17,367.9553 C808.17,367.9553 875.295,367.9553 875.295,360.4553 " fill="none" style="stroke:#000000;stroke-width:0.75;"/><text fill="#000000" font-family="sans-serif" font-size="10.5" lengthAdjust="spacing" textLength="74.25" x="748.545" y="378.1052">Audio/Video Lib</text><text fill="#000000" font-family="sans-serif" font-size="10.5" lengthAdjust="spacing" textLength="119.25" x="748.545" y="391.3123">Charts, Backups, Tracks,</text><text fill="#000000" font-family="sans-serif" font-size="10.5" lengthAdjust="spacing" textLength="56.25" x="748.545" y="404.5193">Docs, Logs,</text><text fill="#000000" font-family="sans-serif" font-size="10.5" lengthAdjust="spacing" textLength="113.25" x="748.545" y="417.7263">Crew Docs, Float Plans,</text><text fill="#000000" font-family="sans-serif" font-size="10.5" lengthAdjust="spacing" textLength="110.25" x="748.545" y="430.9334">Inventory, Provisioning,</text><text fill="#000000" font-family="sans-serif" font-size="10.5" lengthAdjust="spacing" textLength="102" x="748.545" y="444.1404">Time Series Data, etc</text><!--MD5=[ee9653e0a8f11fcc17536c9839054b2a]
entity Winches--><polygon fill="#FEFECE" filter="url(#f1prw6xumhlc3q)" points="900.42,686.6233,907.92,679.1233,1009.92,679.1233,1009.92,733.7444,1002.42,741.2444,900.42,741.2444,900.42,686.6233" style="stroke:#000000;stroke-width:1.125;"/><line style="stroke:#000000;stroke-width:1.125;" x1="1002.42" x2="1009.92" y1="686.6233" y2="679.1233"/><line style="stroke:#000000;stroke-width:1.125;" x1="900.42" x2="1002.42" y1="686.6233" y2="686.6233"/><line style="stroke:#000000;stroke-width:1.125;" x1="1002.42" x2="1002.42" y1="686.6233" y2="741.2444"/><text fill="#000000" font-family="sans-serif" font-size="10.5" lengthAdjust="spacing" textLength="79.5" x="911.67" y="705.0232">Anchor Windlass</text><text fill="#000000" font-family="sans-serif" font-size="10.5" lengthAdjust="spacing" textLength="72.75" x="911.67" y="718.2302">Power Winches</text><text fill="#000000" font-family="sans-serif" font-size="10.5" lengthAdjust="spacing" textLength="63" x="911.67" y="731.4373">Bow Thruster</text><!--MD5=[48e79d9335dd0cd53682a5a492aea5d9]
entity Cloud_Internet--><path d="M803.415,14.9541 C805.4043,9.9999 808.533,9.5325 812.4295,12.8841 C814.7886,6.86 817.9552,6.3585 822.3258,11.0215 C824.9134,6.0405 829.7335,4.9621 832.925,10.4076 C835.8649,4.5 840.5734,4.6685 844.1906,9.7107 C846.9295,5.8281 851.3126,5.8353 853.4227,10.3981 C857.084,7.0284 861.3677,7.0647 863.2302,12.4201 C866.2651,8.0303 870.4586,7.8565 873.5722,12.3283 C878.1191,6.9662 881.5082,8.062 884.4715,13.873 C889.7818,16.5818 889.5811,20.1161 885.0783,23.4468 C889.5249,24.909 889.3868,27.3848 886.9456,30.6361 C891.5487,32.8941 893.0688,36.2481 888.6272,40.1113 C891.5029,43.2044 890.8828,46.1103 886.6477,47.2246 C889.6296,50.323 889.7467,53.2156 885.6038,55.4047 C889.5741,58.726 889.1894,61.4612 884.6695,63.8424 C881.5451,68.677 878.5128,70.0958 874.2308,65.0676 C871.3557,69.7086 867.168,70.2089 864.3987,64.9624 C861.7123,71.0583 856.576,70.1524 853.3972,65.4647 C851.2225,70.1089 846.1338,71.407 842.7982,66.794 C839.0264,71.2818 836.0437,70.3537 833.6224,65.4714 C830.0992,70.9702 826.9323,70.5021 823.3002,65.5794 C820.1574,70.5031 816.4644,69.7351 813.2479,65.6618 C808.6363,70.436 804.6406,70.5029 801.8164,63.8706 C798.16,61.6061 797.8463,58.1779 801.6548,55.7646 C797.2926,53.4234 797.22,50.5302 801.2382,47.7532 C796.8601,45.2295 797.282,41.9979 800.8753,39.1383 C797.5218,36.2381 797.1912,33.4069 801.377,30.9698 C797.4452,27.8643 798.1054,24.6342 802.7414,22.9945 C798.7702,19.8859 799.5267,17.4043 803.415,14.9541 " fill="#FEFECE" filter="url(#f1prw6xumhlc3q)" style="stroke:#000000;stroke-width:1.125;"/><text fill="#000000" font-family="sans-serif" font-size="10.5" font-weight="bold" lengthAdjust="spacing" textLength="42" x="807.045" y="29.6482">Internet</text><text fill="#000000" font-family="sans-serif" font-size="10.5" lengthAdjust="spacing" textLength="68.25" x="807.045" y="42.8552">Cloud Storage</text><text fill="#000000" font-family="sans-serif" font-size="10.5" lengthAdjust="spacing" textLength="71.25" x="807.045" y="56.0623">Cloud Services</text><!--MD5=[f38da3986c5ca1dec060c2524b9ccddc]
entity Lora--><path d="M1043.5387,686.334 C1045.0676,682.3117 1047.4611,681.8051 1050.6895,684.5338 C1052.431,680.5766 1056.3889,679.9396 1059.3647,683.0102 C1061.6205,679.5285 1065.1156,680.1258 1067.0227,683.4051 C1069.4742,677.8667 1072.6972,678.3996 1076.6563,681.7759 C1078.2624,677.3829 1080.9223,676.9595 1084.1075,680.2431 C1087.8662,677.009 1090.4148,678.0647 1092.4795,682.1743 C1095.7239,678.5184 1098.0724,679.7466 1100.2158,683.348 C1102.4277,679.9652 1106.3605,679.7817 1108.3273,683.6231 C1111.6586,679.8015 1114.7779,680.8112 1116.4932,685.2254 C1119.6146,680.469 1123.2505,680.7953 1126.1312,685.4714 C1130.7125,687.4679 1130.6302,691.4314 1126.9855,694.2301 C1131.2051,696.409 1131.915,699.4045 1127.9265,702.5156 C1133.3077,703.9303 1133.4134,707.628 1130.2964,711.328 C1134.2597,714.7676 1132.5107,718.621 1128.2653,720.1763 C1131.7069,723.1064 1131.3847,726.1072 1127.1567,727.9425 C1130.8124,731.4031 1130.3025,734.7599 1125.4324,736.5033 C1122.9584,739.6414 1120.2281,739.7564 1117.7288,736.534 C1115.0451,740.2136 1111.9188,740.5957 1109.6037,736.1648 C1107.3133,741.2145 1104.4678,741.5229 1100.8223,737.4724 C1098.5072,740.7904 1095.6385,741.3439 1093.2272,737.5756 C1090.666,741.249 1087.5443,741.3922 1084.6598,737.9657 C1081.6734,740.9637 1078.7704,740.4763 1076.6808,736.8805 C1074.0535,740.3242 1070.163,741.0651 1067.9471,736.4353 C1065.4342,739.9379 1062.2596,740.8023 1059.8308,736.3495 C1057.2884,739.9671 1054.6712,740.335 1051.4999,737.1158 C1048.0536,740.1419 1044.9201,739.9693 1043.1229,735.3167 C1039.215,733.7213 1037.8682,730.3252 1041.7517,727.3831 C1037.2826,724.8638 1037.1682,721.9624 1041.5427,719.2168 C1037.6097,716.3477 1037.8567,713.9874 1041.7626,711.3371 C1037.7639,708.0614 1038.4381,705.0172 1042.6573,702.5812 C1038.9937,700.1371 1039.3041,696.7599 1042.8807,694.5163 C1039.6434,691.5867 1039.3198,688.664 1043.5387,686.334 " fill="#FEFECE" filter="url(#f1prw6xumhlc3q)" style="stroke:#000000;stroke-width:1.125;"/><text fill="#000000" font-family="sans-serif" font-size="10.5" lengthAdjust="spacing" textLength="45" x="1047.42" y="701.2732">LoraWAN</text><text fill="#000000" font-family="sans-serif" font-size="10.5" lengthAdjust="spacing" textLength="70.5" x="1047.42" y="714.4802">Asset Tracking</text><text fill="#000000" font-family="sans-serif" font-size="10.5" lengthAdjust="spacing" textLength="72" x="1047.42" y="727.6873">Dinghy Locator</text><!--MD5=[3ff5d2fb9a8117c537632aae671cabcb]
entity Esp32--><rect fill="#FEFECE" filter="url(#f1prw6xumhlc3q)" height="41.4141" style="stroke:#000000;stroke-width:1.125;" width="57" x="926.67" y="540.7483"/><text fill="#000000" font-family="sans-serif" font-size="10.5" lengthAdjust="spacing" textLength="42" x="934.17" y="559.1482">m5stack,</text><text fill="#000000" font-family="sans-serif" font-size="10.5" lengthAdjust="spacing" textLength="36" x="934.17" y="572.3552">arduino</text><!--MD5=[c6d492c1e608e21002a1e79a049df954]
link IMU to RPI--><path codeLine="206" d="M366.1575,392.9983 C374.805,392.9983 383.4525,392.9983 392.1075,392.9983 " fill="none" id="IMU-RPI" style="stroke:#A80036;stroke-width:0.75;"/><!--MD5=[a860cb1a85174d4976dae9c4f32e49f8]
link RPI to NMEA_2000--><path codeLine="207" d="M399.795,440.3233 C393.195,445.1233 386.25,449.5108 379.17,452.9983 C291.495,496.1983 249.3825,450.5908 163.92,497.9983 C151.935,504.6433 140.8875,514.4758 131.6325,524.3983 " fill="none" id="RPI-NMEA_2000" style="stroke:#A80036;stroke-width:0.75;"/><!--MD5=[f75ecebad45d24d2cfeff8c08b96d55d]
link RPI to NMEA_Mux--><path codeLine="208" d="M504.0825,423.1558 C541.755,443.3683 592.2975,471.2908 635.67,497.9983 C653.9625,509.2633 673.74,522.5308 690.2625,533.9533 " fill="none" id="RPI-NMEA_Mux" style="stroke:#A80036;stroke-width:0.75;"/><!--MD5=[3577f1ad49970e59a1e1697b6041c28e]
link Eth_Hub to RPI--><path codeLine="209" d="M823.35,261.4033 C745.4025,288.5833 588.285,343.3783 504.2325,372.6958 " fill="none" id="Eth_Hub-RPI" style="stroke:#A80036;stroke-width:0.75;"/><!--MD5=[1d20bbed48bf86b90ee5f13bc892e6f4]
link RPI to USB_Hub--><path codeLine="210" d="M397.8375,440.2783 C391.7625,444.8833 385.47,449.2333 379.17,452.9983 C331.335,481.5658 306.915,464.8033 262.17,497.9983 C245.6775,510.2308 231.87,529.4383 223.2075,543.3583 " fill="none" id="RPI-USB_Hub" style="stroke:#A80036;stroke-width:0.75;"/><!--MD5=[920310a45a910abea0e78fc3f928b9c7]
link Touchscreen to RPI--><path codeLine="211" d="M335.79,262.6858 C353.4075,282.9958 383.205,317.3533 407.7,345.5908 " fill="none" id="Touchscreen-RPI" style="stroke:#A80036;stroke-width:0.75;"/><!--MD5=[e542bf0be54ca915b2a2c465769198ce]
link Cameras to RPI--><path codeLine="212" d="M229.2675,280.2808 C233.685,283.0708 238.1925,285.6958 242.67,287.9983 C299.4825,317.1958 323.5425,301.5958 379.17,332.9983 C385.695,336.6883 392.1825,341.0458 398.4075,345.6958 " fill="none" id="Cameras-RPI" style="stroke:#A80036;stroke-width:0.75;"/><!--MD5=[738bdf1011746a1c073c591ef970d801]
reverse link Speakers to RPI--><path codeLine="213" d="M95.2725,261.8608 C102.9825,271.0183 113.7075,281.7658 125.67,287.9983 C227.1375,340.8958 275.7675,283.9933 379.17,332.9983 C386.37,336.4108 393.42,340.7833 400.095,345.6058 " fill="none" id="Speakers-backto-RPI" style="stroke:#A80036;stroke-width:0.75;"/><polygon fill="#A80036" points="92.775,258.8308,94.7604,265.9456,95.163,261.7221,99.3865,262.1248,92.775,258.8308" style="stroke:#A80036;stroke-width:0.75;"/><!--MD5=[e8f921cc9d34d3902ba4bcef1d5bd4c3]
link Mic to RPI--><path codeLine="214" d="M56.8575,149.8408 C39.3,179.0908 4.5,248.1508 39.42,287.9983 C89.61,345.2758 309.645,301.9033 379.17,332.9983 C386.6625,336.3508 393.96,340.7833 400.83,345.7258 " fill="none" id="Mic-RPI" style="stroke:#A80036;stroke-width:0.75;"/><!--MD5=[9d6d2f6c2f4d2fc3bb3ff0dee1317c54]
link SSB to RPI--><path codeLine="215" d="M585.66,262.6858 C564.1125,282.9958 527.6475,317.3533 497.685,345.5908 " fill="none" id="SSB-RPI" style="stroke:#A80036;stroke-width:0.75;"/><!--MD5=[ba43404d2398351bd02a197b89c6dc04]
link Iridium to RPI--><path codeLine="216" d="M652.245,149.7658 C663.825,177.9808 685.5525,243.8233 658.17,287.9983 C624.7575,341.8783 554.2725,368.7883 504.1875,381.5983 " fill="none" id="Iridium-RPI" style="stroke:#A80036;stroke-width:0.75;"/><!--MD5=[72d1981d7f6e9ae87e7ce2d696ef1c70]
link RPI to Other_Sensors--><path codeLine="217" d="M448.17,440.4508 C448.17,458.1958 448.17,478.7083 448.17,497.7058 " fill="none" id="RPI-Other_Sensors" style="stroke:#A80036;stroke-width:0.75;"/><!--MD5=[e6b62623cb5cffca99b55a6fc459f471]
link RPI to Esp32--><path codeLine="218" d="M504.075,407.8483 C575.1525,426.2683 701.295,460.6033 806.67,497.9983 C849.12,513.0658 896.91,533.9533 926.535,547.3783 " fill="none" id="RPI-Esp32" style="stroke:#A80036;stroke-width:0.75;"/><!--MD5=[abd7622213c1ceda57fd7e6c8ce2488a]
link WiFi_Local to RPI--><path codeLine="219" d="M448.17,262.6858 C448.17,282.9958 448.17,317.3533 448.17,345.5908 " fill="none" id="WiFi_Local-RPI" style="stroke:#A80036;stroke-width:0.75;"/><!--MD5=[9befc12befc76c6c24a0e27f7270b253]
link Keyboard_Mouse to RPI--><path codeLine="220" d="M499.245,156.0883 C503.1225,185.4208 508.1025,241.6933 497.67,287.9983 C493.215,307.7383 484.575,328.1308 475.74,345.5833 " fill="none" id="Keyboard_Mouse-RPI" style="stroke:#A80036;stroke-width:0.75;"/><!--MD5=[a15dace8b9997a4e161f7e6bb21c3756]
link SmartPhone to WiFi_Local--><path codeLine="222" d="M409.08,156.1108 C418.08,176.2933 431.8425,207.1558 440.4075,226.3558 " fill="none" id="SmartPhone-WiFi_Local" style="stroke:#A80036;stroke-width:0.75;"/><!--MD5=[a6a6198443ed7f46598e3abcaaf7a198]
link SiriusXM to NMEA_2000--><path codeLine="224" d="M103.92,407.4058 C103.92,432.7033 103.92,487.6183 103.92,524.3608 " fill="none" id="SiriusXM-NMEA_2000" style="stroke:#A80036;stroke-width:0.75;"/><!--MD5=[f06790075d9412e28e90e4ac15acc0e3]
link Eth_Hub to Router--><path codeLine="226" d="M915.96,244.4983 C924.5475,244.4983 933.1425,244.4983 941.73,244.4983 " fill="none" id="Eth_Hub-Router" style="stroke:#A80036;stroke-width:0.75;"/><!--MD5=[4e13fc5b7ed4d5c8bb5a843a2b474eca]
link Eth_Hub to Radar--><path codeLine="227" d="M876.96,262.6858 C888.8025,290.9833 912.0525,346.5508 923.88,374.8333 " fill="none" id="Eth_Hub-Radar" style="stroke:#A80036;stroke-width:0.75;"/><!--MD5=[0ff0ce0d78f63490cbe2abe10619b3e8]
link Eth_Hub to NAS--><path codeLine="228" d="M862.3725,262.6858 C855.1125,280.0258 843.57,307.6183 833.0025,332.8858 " fill="none" id="Eth_Hub-NAS" style="stroke:#A80036;stroke-width:0.75;"/><!--MD5=[fdba92f7cd499ccd998d05999f71f6ae]
link Dish_Router to Eth_Hub--><path codeLine="229" d="M902.6475,156.1108 C895.05,176.2933 883.44,207.1558 876.21,226.3558 " fill="none" id="Dish_Router-Eth_Hub" style="stroke:#A80036;stroke-width:0.75;"/><!--MD5=[fbe332a3304dc4c8c3dfaece74a779f6]
link USB_Hub to SDR--><path codeLine="231" d="M201.045,579.6058 C180.9825,607.9708 141.57,663.6883 121.5225,692.0383 " fill="none" id="USB_Hub-SDR" style="stroke:#A80036;stroke-width:0.75;"/><!--MD5=[4ba09ff32a53e36c5fb85e6eec1de587]
link USB_Hub to Weather--><path codeLine="232" d="M213.42,579.6058 C213.42,605.1508 213.42,652.8733 213.42,682.8208 " fill="none" id="USB_Hub-Weather" style="stroke:#A80036;stroke-width:0.75;"/><!--MD5=[bc87505a24fe564b5b4878ca4cf904ff]
link USB_Hub to GPS--><path codeLine="233" d="M249.45,561.3733 C258.165,561.3733 266.8725,561.3733 275.58,561.3733 " fill="none" id="USB_Hub-GPS" style="stroke:#A80036;stroke-width:0.75;"/><!--MD5=[2a0b371ec03d2c21e471fa956f48a495]
link Other_Sensors to AC--><path codeLine="235" d="M534.6225,561.3733 C543.27,561.3733 551.925,561.3733 560.58,561.3733 " fill="none" id="Other_Sensors-AC" style="stroke:#A80036;stroke-width:0.75;"/><!--MD5=[cbb222f50bcb791e9720287055fe13dd]
link Other_Sensors to Fridge--><path codeLine="236" d="M442.74,624.8383 C441.12,643.5583 439.4175,663.2533 438.06,678.9283 " fill="none" id="Other_Sensors-Fridge" style="stroke:#A80036;stroke-width:0.75;"/><!--MD5=[bde99af21072dc4abd6c3e9790e945d2]
link Other_Sensors to Lights_Fans--><path codeLine="237" d="M500.8275,624.8383 C513.5925,640.0333 526.89,655.8733 538.4775,669.6808 " fill="none" id="Other_Sensors-Lights_Fans" style="stroke:#A80036;stroke-width:0.75;"/><!--MD5=[9816221c84b92aca30c282d28f000dea]
link Other_Sensors to Pumps--><path codeLine="238" d="M393.9075,624.8383 C380.76,640.0333 367.065,655.8733 355.1175,669.6808 " fill="none" id="Other_Sensors-Pumps" style="stroke:#A80036;stroke-width:0.75;"/><!--MD5=[f4051e061112c5a67383a685ff83d16a]
link NMEA_Mux to NMEA_0183--><path codeLine="240" d="M727.92,588.8083 C727.92,612.4483 727.92,647.1658 727.92,673.3033 " fill="none" id="NMEA_Mux-NMEA_0183" style="stroke:#A80036;stroke-width:0.75;"/><!--MD5=[993848724ee1e0bda2efd2c10d093eb0]
link NMEA_Mux to AP--><path codeLine="241" d="M749.2425,588.8083 C774.4275,620.3308 815.34,671.5408 834.765,695.8558 " fill="none" id="NMEA_Mux-AP" style="stroke:#A80036;stroke-width:0.75;"/><!--MD5=[4c412d33c9dd3373fedf634d2cfe895b]
link Esp32 to Lora--><path codeLine="243" d="M972.465,581.9983 C994.14,606.9058 1031.505,649.8433 1056.825,678.9433 " fill="none" id="Esp32-Lora" style="stroke:#A80036;stroke-width:0.75;"/><!--MD5=[3a78a92175d5b8f917843889fc4ac663]
link Esp32 to Winches--><path codeLine="244" d="M955.17,581.9983 C955.17,606.9058 955.17,649.8433 955.17,678.9433 " fill="none" id="Esp32-Winches" style="stroke:#A80036;stroke-width:0.75;"/><!--MD5=[090045518a7210d3fe050bd4b1b61143]
link Cloud_Internet to Dish_Router--><path codeLine="246" d="M864.21,69.7708 C874.6275,84.4708 886.8375,101.7058 896.055,114.7108 " fill="none" id="Cloud_Internet-Dish_Router" style="stroke:#A80036;stroke-width:0.75;"/><!--MD5=[0417bd4aebf7681efb342db5775863ca]
link Cloud_Internet to Router--><path codeLine="247" d="M889.56,56.0758 C916.935,68.2108 949.845,87.3508 969.42,114.7483 C993.69,148.7233 997.08,199.8208 997.02,226.3558 " fill="none" id="Cloud_Internet-Router" style="stroke:#A80036;stroke-width:0.75;"/><!--MD5=[6d4697dd1a4fa0e14865453f969898e5]
link Cloud_Internet to Iridium--><path codeLine="248" d="M795.6,62.1883 C757.68,80.5708 705.6375,105.7933 674.04,121.1083 " fill="none" id="Cloud_Internet-Iridium" style="stroke:#A80036;stroke-width:0.75;"/><!--MD5=[f7b1ed679f3dcc8891234d56821c2a8b]
link Cloud_Internet to Remote_Desktop--><path codeLine="249" d="M821.1225,69.7708 C808.935,86.9758 794.28,107.6458 784.8525,120.9508 " fill="none" id="Cloud_Internet-Remote_Desktop" style="stroke:#A80036;stroke-width:0.75;"/><!--MD5=[f7c22a6020875df2ba44dffafefaebb5]
link Skipper to Touchscreen--><path codeLine="251" d="M382.035,60.4033 C370.5375,74.8033 356.2575,94.8358 347.67,114.7483 C331.35,152.5633 324.63,200.9758 322.08,226.3858 " fill="none" id="Skipper-Touchscreen" style="stroke:#A80036;stroke-width:0.75;"/><!--MD5=[180a6a48d329b5088bf365124668f177]
link Skipper to Speakers--><path codeLine="252" d="M381.8325,48.1183 C336.2175,70.3108 214.875,131.9383 125.67,200.9983 C114.3825,209.7358 103.02,221.2558 94.8525,230.1358 " fill="none" id="Skipper-Speakers" style="stroke:#A80036;stroke-width:0.75;"/><!--MD5=[18622fb937e9a958838b56c5905cf190]
link Skipper to Mic--><path codeLine="253" d="M381.945,44.5633 C328.5675,59.7583 171.9,104.3758 101.1075,124.5283 " fill="none" id="Skipper-Mic" style="stroke:#A80036;stroke-width:0.75;"/><!--MD5=[b5f99795dccb66293530d697261f575d]
link Skipper to Cameras--><path codeLine="254" d="M382.125,56.4433 C348.765,88.0108 276.54,156.3508 229.17,201.1633 " fill="none" id="Skipper-Cameras" style="stroke:#A80036;stroke-width:0.75;"/><!--MD5=[4d7243369b38bcf5d3d8f8df86a5cab3]
link Skipper to Iridium--><path codeLine="255" d="M418.2525,46.3783 C458.925,62.1208 558.15,100.5433 611.265,121.1083 " fill="none" id="Skipper-Iridium" style="stroke:#A80036;stroke-width:0.75;"/><!--MD5=[c0261e63bc2c3c7d09c0762b33b29a4a]
link Skipper to SSB--><path codeLine="256" d="M418.23,45.1108 C447.1575,55.0933 504.2325,78.1708 539.67,114.7483 C571.5525,147.6583 590.8125,199.4383 599.1975,226.2883 " fill="none" id="Skipper-SSB" style="stroke:#A80036;stroke-width:0.75;"/><!--MD5=[7055ac5873383501a6665c2abfcc17ee]
link Skipper to SmartPhone--><path codeLine="257" d="M400.17,69.7708 C400.17,84.4708 400.17,101.7058 400.17,114.7108 " fill="none" id="Skipper-SmartPhone" style="stroke:#A80036;stroke-width:0.75;"/><!--MD5=[9e619f9f7e27f8b7daf8036513ac83ac]
link Skipper to Keyboard_Mouse--><path codeLine="258" d="M418.2225,57.2908 C434.625,73.5658 458.7975,97.5433 475.8675,114.4783 " fill="none" id="Skipper-Keyboard_Mouse" style="stroke:#A80036;stroke-width:0.75;"/><!--MD5=[791020c57217bb146034c35bb978d496]
link Skipper to Remote_Desktop--><path codeLine="259" d="M418.4025,43.8958 C465.1425,55.5133 593.0475,87.3958 699.42,114.7483 C707.3175,116.7808 715.6725,118.9483 723.84,121.0858 " fill="none" id="Skipper-Remote_Desktop" style="stroke:#A80036;stroke-width:0.75;"/><!--MD5=[c58a7b9b1ad9d55a654586dd86eb5944]
@startuml

actor Skipper [
 Skipper
]

node RPI #palegreen [
 <b>Rpi4, BBN OS
 - - - -
 Local WiFi
 CanBus Interface
 Sound Card
 SSD
]

rectangle GPS [
 GPS USB
]

rectangle IMU [
 IMU
 - - - -
 compass, gyro, accel
]

rectangle NMEA_2000 [
 <b>NMEA2000 Bus
 - - - -
 engine sensors,
 fishfinder, sonar,
 etc
]

node NMEA_Mux [
 NMEA Multiplexer
 - - - -
 bidirectional Seatalk1
]

rectangle NMEA_0183 [
 <b>NMEA 0183 Devices
 - - - -
 AIS transducer/receiver
 GPS, VHF, compass
 Wind, Depth, Speed
]

rectangle AP [
 Autopilot
]

node Eth_Hub [
 Ethernet Hub
]

node USB_Hub [
 USB Hub
]

node Router [
 LTE/WiFi Router
]

rectangle Dish_Router [
 StarLink Router,
 Dish
]

node Radar [
 Radar
]

node Touchscreen [
 <b>HDMI Touchscreen
]

rectangle Speakers [
 Speakers
]

rectangle Mic [
 Microphone
]

rectangle Cameras [
 Cameras
 - - - -
 WebCam, Mast,
 Night (FLIR),
 low light vision,
 IP, docking, etc
]

node SDR [
 SDR Radio
]

node SSB [
 SSB Radio
]

cloud WiFi_Local [
 Local WiFi
]

rectangle Iridium [
 Iridium Phone
]

rectangle Other_Sensors [
 Other_Sensors
 - - - -
 IoT, 1w, i2c, etc
 batteries monitoring
 chargers (wind, solar, diesel gen)
 fluid levels
 env temp/pressure/humid
 dangerous gases sensors
 lightning strike sensors
]

rectangle Remote_Desktop [
 Remote Desktop (VNC)
]

node AC [
 A/C
 Heater
]

node Pumps [
 Pumps
 - - - -
 Bilge
 Fresh Water
 Black Water
]

node Fridge [
 Fridge
 Watermaker
 Live well
]

rectangle Lights_Fans [
 Lights: (Nav, Anchor,
 Running, Mast, Cabin,
 Underwater, Search, etc)
 Fans
 Bilge/Engine Blower
]

rectangle Keyboard_Mouse [
 Keyboard
 Mouse
]

rectangle Weather [
 NavTex
 WeatherFax
 Barograph
]

rectangle SiriusXM [
 SiriusXM Marine
]

rectangle SmartPhone [
 SmartPhones
 Tablets
]

database NAS [
 NAS
 - - - -
 Audio/Video Lib
 Charts, Backups, Tracks,
 Docs, Logs,
 Crew Docs, Float Plans,
 Inventory, Provisioning,
 Time Series Data, etc
]

node Winches [
 Anchor Windlass
 Power Winches
 Bow Thruster
]

cloud Cloud_Internet [
 <b>Internet
 Cloud Storage
 Cloud Services
]

cloud Lora [
 LoraWAN
 Asset Tracking
 Dinghy Locator
]

rectangle Esp32 [
 m5stack,
 arduino
]

RPI -l- IMU
RPI - - NMEA_2000
RPI - - NMEA_Mux
RPI -u- Eth_Hub
RPI - - USB_Hub
RPI -u- Touchscreen
RPI -u- Cameras
RPI -u-> Speakers
RPI -u- Mic
RPI -u- SSB
RPI -u- Iridium
RPI - - Other_Sensors
RPI -d- Esp32
RPI -u- WiFi_Local
RPI -u- Keyboard_Mouse

SmartPhone - - WiFi_Local

SiriusXM - - NMEA_2000

Eth_Hub -r- Router
Eth_Hub - - Radar
Eth_Hub - - NAS
Eth_Hub -u- Dish_Router

USB_Hub - - SDR
USB_Hub - - Weather
USB_Hub -r- GPS

Other_Sensors -r- AC
Other_Sensors - - Fridge
Other_Sensors - - Lights_Fans
Other_Sensors - - Pumps

NMEA_Mux - - NMEA_0183
NMEA_Mux - - AP

Esp32 - - Lora
Esp32 - - Winches

Cloud_Internet - - Dish_Router
Cloud_Internet - - Router
Cloud_Internet - - Iridium
Cloud_Internet - - Remote_Desktop

Skipper - - Touchscreen
Skipper - - Speakers
Skipper - - Mic
Skipper - - Cameras
Skipper - - Iridium
Skipper - - SSB
Skipper - - SmartPhone
Skipper - - Keyboard_Mouse
Skipper - - Remote_Desktop

@enduml

PlantUML version 1.2021.00(Sun Jan 10 05:25:05 EST 2021)
(GPL source distribution)
Java Runtime: OpenJDK Runtime Environment
JVM: OpenJDK 64-Bit Server VM
Default Encoding: Cp1252
Language: en
Country: US
--></g></svg>